v 0.0 -1.0 0.0
v 0.723607 -0.44722 0.525725
v -0.276388 -0.44722 0.850649
v -0.894426 -0.447216 0.0
v -0.276388 -0.44722 -0.850649
v 0.723607 -0.44722 -0.525725
v 0.276388 0.44722 0.850649
v -0.723607 0.44722 0.525725
v -0.723607 0.44722 -0.525725
v 0.276388 0.44722 -0.850649
v 0.894426 0.447216 0.0
v 0.0 1.0 0.0
v -0.232822 -0.657519 0.716563
v -0.162456 -0.850654 0.499995
v 0.203181 -0.96795 0.147618
v 0.425323 -0.850654 0.309011
v 0.609547 -0.657519 0.442856
v 0.531941 -0.502302 0.681712
v 0.262869 -0.525738 0.809012
v 0.812729 -0.502301 -0.295238
v 0.850648 -0.525736 0.0
v 0.203181 -0.96795 -0.147618
v 0.425323 -0.850654 -0.309011
v 0.609547 -0.657519 -0.442856
v -0.753442 -0.657515 0.0
v -0.52573 -0.850652 0.0
v -0.483971 -0.502302 0.716565
v -0.688189 -0.525736 0.499997
v -0.232822 -0.657519 -0.716563
v -0.120413 -0.920955 -0.370598
v -0.831051 -0.502299 -0.238853
v -0.688189 -0.525736 -0.499997
v -0.029639 -0.502302 -0.864184
v 0.262869 -0.525738 -0.809012
v 0.956626 0.251149 0.147618
v 0.951058 -0.0 0.309013
v 0.860698 -0.251151 -0.442858
v 0.964711 0.129893 -0.229041
v 0.155215 0.251152 0.955422
v -0.0 -0.0 1.0
v 0.687159 -0.251152 0.681715
v 0.587786 0.0 0.809017
v 0.515946 0.129894 0.846716
v -0.860698 0.251151 0.442858
v -0.951058 -0.0 0.309013
v -0.964711 -0.129893 0.229041
v -0.436007 -0.251152 0.864188
v -0.587786 0.0 0.809017
v -0.687159 0.251152 -0.681715
v -0.587786 -0.0 -0.809017
v -0.515946 -0.129894 -0.846716
v -0.956626 -0.251149 -0.147618
v -0.915098 0.129893 -0.381737
v 0.436007 0.251152 -0.864188
v 0.587786 -0.0 -0.809017
v -0.155215 -0.251152 -0.955422
v 0.0 0.0 -1.0
v 0.080276 0.129894 -0.988273
v 0.831051 0.502299 0.238853
v 0.688189 0.525736 0.499997
v 0.029639 0.502302 0.864184
v -0.262869 0.525738 0.809012
v -0.405008 0.519572 0.752338
v -0.812729 0.502301 0.295238
v -0.850648 0.525736 -0.0
v -0.840673 0.519571 -0.152694
v -0.531941 0.502302 -0.681712
v -0.262869 0.525738 -0.809012
v 0.483971 0.502302 -0.716565
v 0.688189 0.525736 -0.499997
v 0.077607 0.96795 0.238853
v 0.162456 0.850654 0.499995
v 0.753442 0.657515 0.0
v 0.52573 0.850652 0.0
v -0.203181 0.96795 0.147618
v -0.425323 0.850654 0.309011
v -0.203181 0.96795 -0.147618
v -0.425323 0.850654 -0.309011
v 0.077607 0.96795 -0.238853
v 0.162456 0.850654 -0.499995
v 0.3618 0.894429 -0.262863
v 0.506729 0.819912 -0.266403
v 0.409951 0.819913 -0.399604
v 0.447209 0.723612 -0.525728
v -0.138197 0.89443 -0.425319
v -0.096779 0.819914 -0.564248
v -0.253366 0.819914 -0.513369
v -0.210088 0.733355 -0.646571
v 0.132684 0.586334 -0.799129
v -0.566539 0.819912 -0.082322
v -0.566539 0.819912 0.082322
v -0.679848 0.733353 0.0
v -0.138197 0.89443 0.425319
v -0.253366 0.819914 0.513369
v -0.361804 0.723612 0.587778
v -0.05279 0.723612 0.688185
v -0.577066 0.586334 0.568513
v 0.3618 0.894429 0.262863
v 0.506729 0.819912 0.266403
v 0.447209 0.723612 0.525728
v 0.362366 0.586334 0.724502
v 0.861804 0.276396 -0.425322
v 0.809019 0.0 -0.587782
v 0.670821 0.276397 -0.688189
v -0.138198 0.276397 -0.951055
v -0.226618 0.140059 -0.963861
v -0.447215 0.276397 -0.850649
v -0.947213 0.276397 0.162458
v -0.616302 0.3809 0.689266
v -0.447216 0.276397 0.850649
v -0.383208 0.140059 0.912982
v -0.309017 -1e-06 0.951056
v -0.138199 0.276397 0.951055
v 0.749882 0.140058 0.646576
v 0.861804 0.276394 0.425323
v 0.383207 -0.14006 -0.912982
v 0.447216 -0.276398 -0.850648
v 0.138199 -0.276398 -0.951055
v -0.749881 -0.140059 -0.646577
v -0.861803 -0.276396 -0.425324
v -0.465084 -0.3809 -0.799132
v -0.846659 -0.140059 0.513374
v -0.861803 -0.276396 0.425324
v 0.309017 0.0 0.951056
v 0.226619 -0.14006 0.963861
v 0.383207 -0.14006 0.912982
v 1.0 0.0 0.0
v 0.986715 -0.140059 -0.082322
v 0.947213 -0.276396 0.162458
v 0.845982 -0.380899 0.373136
v 0.361804 -0.723612 -0.587779
v 0.253366 -0.819913 -0.51337
v 0.210087 -0.733354 -0.646572
v 0.052789 -0.723611 -0.688186
v -0.447211 -0.723612 -0.525727
v -0.55001 -0.733353 -0.399603
v -0.361801 -0.894429 -0.262863
v -0.638195 -0.723609 0.262864
v -0.361801 -0.894428 0.262864
v -0.447211 -0.72361 0.525729
v 0.670817 -0.723611 -0.162457
v 0.447211 -0.894428 1e-06
v 0.05279 -0.723612 0.688185
v 0.210089 -0.733354 0.646572
v 0.138199 -0.894429 0.425321
v 0.253368 -0.819912 0.51337
v -0.719015 0.586334 -0.373135
v 0.67082 0.276396 0.68819
v 0.093451 0.3809 -0.919882
v -0.903739 -0.380897 0.195378
v -0.093451 -0.3809 0.919882
v 0.90374 0.380897 -0.195376
v 0.296648 -0.280119 0.91298
v -0.670819 -0.276397 -0.688191
v 0.947213 -0.276396 -0.162458
v 0.84666 0.140059 -0.513372
v 0.296648 -0.280119 -0.91298
v -0.776629 -0.280118 0.564253
v -0.50673 -0.819911 0.266403
v -0.638195 -0.723609 -0.262863
v -0.361804 0.723612 -0.587778
v 0.361805 -0.723611 0.587779
v 0.138197 -0.894429 -0.425321
v 0.679849 -0.733353 0.0
v -0.645839 0.129894 0.752342
v 0.915098 -0.129893 0.381737
v 0.389673 0.920953 0.0
v -0.52542 0.760403 0.381735
v 0.200688 0.760403 -0.617666
v 0.200688 0.760403 0.617666
v -0.908902 0.409229 0.080178
v -0.961008 0.13641 -0.240533
v -0.093451 -0.3809 -0.919881
v 0.093451 0.3809 0.919882
v -1.0 1.000000000001e-06 0.0
v 0.566541 -0.819911 0.082323
v 0.638194 0.72361 0.262864
v -0.670817 0.723611 -0.162457
v -0.210088 0.733355 0.646571
v 0.769872 0.51957 -0.3706
v -0.769872 -0.51957 0.3706
v -0.114564 0.519572 -0.846711
v 0.114564 -0.519572 0.846711
v 0.405008 -0.519572 -0.752338
v -0.120413 -0.920955 0.370598
v 0.840673 -0.519571 0.152694
v -0.357124 0.40923 0.839639
v 0.465085 0.3809 -0.799132
v -0.465084 -0.3809 0.799132
v 0.616302 -0.3809 0.689266
v 0.845982 -0.380899 -0.373136
v -0.362367 -0.586334 -0.724501
v 0.90374 0.380896 0.195377
v 0.298886 0.253934 0.919883
v -0.782501 0.253934 -0.568515
v -0.903739 -0.380897 -0.195378
v -0.845982 0.3809 0.373136
v 0.166198 0.978672 -0.120749
v 0.166198 0.978672 0.120749
v -0.298885 -0.253934 -0.919883
v 0.063482 -0.978671 -0.195377
v 0.616302 -0.3809 -0.689265
v -0.166198 -0.978671 0.12075
v -0.383207 0.140059 -0.912982
v 0.138199 -0.276397 0.951055
v -0.05279 0.723612 -0.688185
v 0.590366 0.519572 0.617668
v -0.590366 -0.519572 -0.617668
v -0.52542 0.760403 -0.381735
v 0.57783 0.629943 -0.518926
v -0.357124 0.40923 -0.839639
v 0.357124 -0.40923 0.839639
v 0.908902 -0.409229 0.080178
v 0.262862 0.882855 0.389192
v -0.215245 -0.943209 -0.253036
v 0.782501 -0.253933 -0.568515
v -0.298885 -0.253934 0.919883
v 0.782501 -0.253934 0.568515
v -0.132684 -0.586334 0.799129
v 0.132684 0.586335 0.799129
v 0.298886 0.253934 -0.919883
v -0.132684 -0.586334 -0.799129
v -0.719015 0.586334 0.373135
v 0.719016 -0.586333 0.373136
v -0.063483 0.978672 -0.195376
v 0.801022 0.586331 -0.12075
v 0.719015 -0.586334 -0.373135
v -0.801022 -0.58633 -0.120749
v 0.063484 -0.978671 0.195377
v -0.967222 -0.253931 0.0
v 0.967222 0.253931 0.0
v -0.205432 0.978671 0.0
v 0.809019 -2.000000000002e-06 0.587783
v -0.776628 -0.280118 -0.564253
v -0.296648 0.280118 -0.912981
v 0.638194 0.72361 -0.262864
v 0.56654 -0.819912 -0.082322
v -0.080276 -0.129894 0.988273
v -0.389673 -0.920953 0.0
v 0.68819 0.40923 -0.599104
v -0.782501 0.253934 0.568515
v -0.577066 0.586334 -0.568513
v -0.063483 0.978672 0.195376
v 0.577067 -0.586333 0.568513
v 0.205432 -0.978671 1e-06
v 0.515946 0.129894 -0.846716
v -0.515946 -0.129894 0.846716
v 0.436007 0.251152 0.864188
v 0.915098 -0.129893 -0.381737
v -0.08027599999999999 -0.129894 -0.988273
v 0.769872 0.51957 0.3706
v -0.831051 -0.502299 0.238853
v 0.232822 0.657519 -0.716563
v -0.200688 -0.760403 -0.617666
v -0.200688 -0.760403 0.617666
v 0.531941 -0.502302 -0.681712
v -0.609547 0.657519 0.442856
v -0.114564 0.519573 0.846711
v -0.964711 -0.129893 -0.229041
v -0.812729 0.502301 -0.295238
v 0.812729 -0.502301 0.295238
v -0.315251 0.920955 -0.22904
v 0.465085 0.3809 0.799132
v -0.809018 0.0 0.587783
v 0.670818 -0.72361 0.162458
v 0.09678 -0.819913 0.564249
v -0.809018 0.0 -0.587783
v -0.550009 -0.733352 0.399605
v -0.986715 0.140059 -0.082322
v 0.645839 -0.129894 -0.752342
v 0.951058 0.0 -0.309013
v -0.162456 -0.850654 -0.499995
v 0.704293 -1.000000000001e-06 0.709909
v 0.451375 0.882854 0.129731
v -0.451375 -0.882853 0.129731
v -0.845982 0.380899 -0.373136
v -0.616302 0.3809 -0.689266
v 0.362366 0.586334 -0.724502
v -0.362367 -0.586333 0.724502
v 0.577066 -0.586334 -0.568513
v 0.801022 0.586331 0.12075
v -0.801022 -0.58633 0.12075
v -0.436007 -0.251152 -0.864188
v 0.831051 0.502299 -0.238853
v -0.769872 -0.51957 -0.3706
v 0.232822 0.657519 0.716563
v -0.531941 0.502302 0.681712
v -0.609547 0.657519 -0.442856
v 0.114564 -0.519573 -0.846711
v -0.956626 -0.251149 0.147618
v 0.964711 0.129893 0.229041
v 0.029639 0.502302 -0.864184
v -0.029639 -0.502302 0.864184
v -0.840673 0.519571 0.152694
v 0.840673 -0.519571 -0.152694
v -0.315251 0.920955 0.22904
v 0.315251 -0.920955 -0.22904
v 0.315251 -0.920955 0.22904
v 0.230948 0.133032 0.963828
v 0.230948 0.133033 -0.963828
v -0.230948 -0.133033 0.963828
v 0.886396 -0.399095 0.234576
v 0.497012 -0.399097 0.77052
v -0.050817 0.399096 0.9155
v 0.215245 0.943209 -0.253036
v -0.670817 0.723611 0.162457
v -0.497012 0.399096 -0.77052
v 0.025407 -0.943208 -0.331229
v -0.951058 0.0 -0.309013
v 0.52542 -0.760403 -0.381735
v 0.52542 -0.760403 0.381735
v 0.068206 -0.13641 0.988302
v -0.06820499999999999 0.13641 -0.988302
v 0.918856 0.13641 -0.370264
v -0.961008 0.136411 0.240534
v -0.688189 -0.40923 -0.599106
v 0.961008 -0.13641 0.240533
v -0.314971 0.629944 -0.709904
v -0.577832 -0.629942 0.518925
v -0.016097 -0.882855 0.46937
v 0.016098 0.882855 -0.469369
v 0.314971 -0.629943 0.709905
v 0.587783 0.798549 -0.129731
v -0.587784 -0.798549 -0.12973
v 0.854992 0.399093 0.33123
v 0.050817 -0.399097 -0.9155
v 0.854992 0.399094 -0.331229
v -0.886396 0.399095 -0.234577
v -0.497012 0.399096 0.77052
v 0.338569 0.696561 0.632593
v -0.338569 -0.696561 -0.632593
v 0.886396 -0.399095 -0.234576
v -0.174138 0.943209 -0.282901
v 0.457527 0.0 -0.889196
v -0.457527 0.0 -0.889196
v 0.457527 0.0 0.889196
v -0.457527 -1.000000000001e-06 0.889196
v -0.71215 0.357741 -0.604039
v -0.71215 0.357741 0.604039
v 0.71215 -0.357741 -0.604039
v 0.71215 -0.357741 0.604039
v 0.377183 0.476988 -0.793861
v 0.377183 0.476988 0.793861
v -0.377183 -0.476988 -0.793861
v -0.377183 -0.476988 0.793861
v 0.834716 0.550681 0.0
v -0.834716 -0.550681 0.0
v 0.119245 0.992865 0.0
v -0.119245 -0.992865 0.0
v -0.959966 0.280117 0.0
v -0.670819 -0.276397 0.688191
v 0.77663 0.280116 0.564252
v 0.986715 -0.140059 0.082322
v -0.068206 0.13641 0.988302
v 0.892805 -2.000000000002e-06 0.450444
v -0.892805 0.0 0.450444
v 0.016098 0.882855 0.469369
v -0.016099 -0.882854 -0.469371
v -0.050816 0.399096 -0.9155
v -0.338569 -0.69656 0.632594
v 0.050817 -0.399097 0.9155
v -0.886395 0.399095 0.234577
v 0.338569 0.696561 -0.632593
v -0.009708000000000001 0.614345 0.788978
v 0.753363 -0.614343 -0.234576
v -0.747367 -0.614341 -0.253036
v 0.009708000000000001 -0.614344 -0.788979
v -0.747367 -0.614341 0.253037
v 0.747366 0.614342 -0.253038
v 0.17414 -0.943208 0.282902
v -0.322868 0.943208 -0.078192
v -0.152509 0.0 -0.988302
v 0.892805 0.0 -0.450443
v -0.987059 1.0408340855860843e-17 -0.160355
v 0.525732 -0.136411 -0.839641
v 0.399272 -0.798552 -0.450441
v -0.399272 0.798552 0.45044
v 0.57783 0.629943 0.518926
v -0.645839 0.129894 -0.752343
v 0.645839 -0.129894 0.752343
v -0.687159 0.251152 0.681715
v -0.483971 -0.502302 -0.716565
v 0.251147 0.967949 0.0
v -0.251147 -0.967949 0.0
v -0.794547 0.357741 -0.490629
v -0.794547 0.357741 0.490629
v 0.794547 -0.357741 -0.490629
v 0.794547 -0.357741 0.490629
v 0.354409 0.357742 -0.863953
v 0.354409 0.357742 0.863953
v -0.354409 -0.357742 -0.863953
v -0.354409 -0.357742 0.863953
v 0.931188 0.357738 -0.070089
v -0.931188 -0.357738 -0.070089
v 0.036848 0.992865 0.113408
v -0.036848 -0.992865 -0.113408
v 0.77663 0.280118 -0.564251
v -0.846659 -0.140059 -0.513374
v 0.959966 -0.280117 0.0
v 0.309017 0.0 -0.951056
v 0.497012 -0.399097 -0.77052
v -0.947213 0.276396 -0.162458
v -0.753363 0.614343 -0.234576
v -0.215246 -0.943208 0.253038
v 0.497011 -0.69656 0.51748
v -0.497009 0.696561 -0.517479
v 0.152509 0.0 0.988302
v -0.009708000000000001 0.614345 -0.788978
v -0.854991 -0.399094 0.331231
v 0.921508 0.266061 0.282904
v -0.753363 0.614343 0.234576
v 0.009709000000000002 -0.614344 0.788978
v 0.753364 -0.614343 0.234576
v 0.322869 -0.943208 -0.078191
v -0.322868 0.943208 0.078192
v -0.204616 0.40923 0.889193
v 0.636088 0.136411 -0.759463
v 0.672087 0.629942 0.389194
v -0.305014 -0.798552 -0.518923
v -0.918856 -0.13641 0.370265
v 0.288918 -0.882854 0.370264
v -0.525732 0.13641 -0.839642
v -0.525732 0.13641 0.839641
v 0.305014 0.798552 -0.518924
v 0.305014 0.798552 0.518924
v -0.636087 -0.136411 0.759464
v -0.577832 -0.629943 -0.518924
v 0.204615 -0.409231 -0.889192
v 0.525732 -0.136411 0.839641
v -0.305015 -0.79855 0.518925
v 0.068205 -0.13641 -0.988302
v 0.451375 0.882854 -0.129731
v -0.288916 0.882855 -0.370262
v 0.961008 -0.13641 -0.240533
v -0.451376 -0.882853 -0.12973
v 0.55178 -0.798551 -0.240532
v -0.551779 0.798551 0.240532
v 0.649456 0.760399 0.0
v -0.649456 -0.760399 0.0
v 0.956626 0.251149 -0.147618
v -0.84529 0.133032 -0.517482
v 0.753368 -0.133032 -0.644002
v 0.579226 0.399096 0.710788
v 0.845289 -0.13303400000000007 0.517482
v -0.166198 -0.978671 -0.120749
v 0.579226 0.399096 -0.710788
v -0.84529 0.133032 0.517482
v -0.921507 -0.266063 -0.282904
v -0.37968 -0.133033 -0.915503
v -0.579224 -0.399096 0.710789
v 0.215245 0.943209 0.253036
v 0.221089 0.357741 -0.907271
v 0.221089 0.357741 0.907271
v -0.221089 -0.357741 -0.907271
v -0.221089 -0.357741 0.907271
v -0.638452 0.476987 -0.604038
v 0.638452 -0.476987 0.604038
v -0.6753 0.550685 0.490628
v 0.6753 -0.550685 -0.490628
v 0.931188 0.357738 0.070089
v -0.931188 -0.357738 0.070089
v 0.036848 0.992865 -0.113408
v -0.036848 -0.992865 0.113408
v 0.749882 0.140059 -0.646576
v -0.749881 -0.140059 0.646577
v 0.846659 0.140057 0.513373
v -0.226619 0.140059 0.963861
v -0.409952 -0.819912 0.399605
v 0.226619 -0.14006 -0.963861
v 0.550008 0.733353 0.399605
v -0.50673 -0.819912 -0.266402
v -0.986715 0.140059 0.082323
v -0.44721 0.894429 0.0
v 0.32287 -0.943208 0.078193
v 0.672087 0.629942 -0.389194
v -0.782445 -0.409229 -0.469374
v -0.782445 -0.409229 0.469374
v 0.987059 0.0 0.160355
v -0.162463 0.629944 -0.759458
v 0.162463 -0.629944 0.759458
v -0.918856 -0.13641 -0.370265
v 0.782446 0.409228 0.469372
v -0.314971 0.629944 0.709904
v -0.636087 -0.136411 -0.759464
v -0.772492 0.629942 -0.080177
v 0.288916 -0.882855 -0.370263
v -0.262862 -0.882855 -0.389192
v 0.772493 -0.629942 -0.080177
v 0.314971 -0.629943 -0.709905
v -0.058249 -0.798552 0.599101
v -0.288916 0.882855 0.370262
v 0.05825 0.798552 -0.599101
v 0.05825 0.798552 0.599101
v -0.05825 -0.79855 -0.599103
v -0.551779 0.798551 -0.240532
v 0.551781 -0.79855 0.240533
v 0.687159 -0.251152 -0.681715
v 0.590366 0.519572 -0.617668
v 0.483971 0.502302 0.716565
v -0.590366 -0.519572 0.617668
v -0.860698 0.251151 -0.442858
v -0.915098 0.129893 0.381737
v 0.860698 -0.251151 0.442858
v 0.155215 0.251152 -0.955422
v -0.155215 -0.251152 0.955422
v 0.080276 0.129894 0.988273
v -0.405008 0.519572 -0.752338
v 0.405008 -0.519572 0.752338
v 0.120413 0.920955 -0.370598
v -0.077607 -0.96795 0.238853
v -0.230948 -0.133033 -0.963829
v 0.55382 0.266065 -0.788982
v -0.753368 0.133032 -0.644002
v -0.753368 0.133032 0.644002
v 0.84529 -0.133032 -0.517481
v 0.55382 0.266064 0.788983
v -0.579224 -0.399096 -0.710789
v -0.553819 -0.266065 0.788983
v 0.579229 -0.266065 0.770521
v 0.706258 0.696558 0.126519
v -0.988023 -0.13303 0.078193
v -0.497009 0.696561 0.517479
v 0.497009 -0.696561 -0.517479
v 0.988023 0.133031 -0.078192
v -0.307168 -0.943208 0.126519
v -0.706258 -0.696558 0.126518
v -0.025408 0.943209 0.331227
v 0.307167 0.943208 -0.126518
v 0.257937 0.550685 -0.79386
v 0.257937 0.550685 0.79386
v -0.257937 -0.550685 -0.79386
v -0.257937 -0.550685 0.79386
v -0.6753 0.550685 -0.490628
v 0.6753 -0.550685 0.490628
v -0.638453 0.476987 0.604038
v 0.638453 -0.476987 -0.604038
v 0.871565 0.476984 0.113408
v -0.871565 -0.476984 -0.113408
v -0.096471 0.992865 0.070089
v 0.096471 -0.992865 -0.070089
v 0.550008 0.733353 -0.399605
v 0.096779 -0.819912 -0.56425
v -0.096779 0.819914 0.564248
v 0.447216 -0.276398 0.850648
v -0.309016 0.0 -0.951057
v -0.688189 -0.40923 0.599106
v -0.296649 0.280118 0.912981
v 0.357124 -0.409231 -0.839639
v -0.409952 -0.819913 -0.399603
v 0.409951 0.819913 0.399604
v 0.399274 -0.79855 0.450441
v -0.399272 0.798552 -0.45044
v 0.636088 0.13641 0.759463
v 0.704293 0.0 -0.709909
v -0.892805 0.0 -0.450444
v 0.68819 0.409229 0.599104
v -0.704293 0.0 -0.70991
v -0.704293 0.0 0.70991
v -0.672088 -0.629942 -0.389192
v 0.152509 0.0 -0.988302
v -0.152509 0.0 0.988302
v 0.918856 0.136407 0.370266
v 0.262862 0.882855 -0.389192
v -0.587784 -0.798549 0.129731
v 0.587783 0.798549 0.129731
v 0.987059 0.0 -0.160355
v -0.262863 -0.882854 0.389194
v -0.441423 0.882855 0.160354
v -0.987059 1.0000000000001327e-06 0.160356
v 0.441423 -0.882854 -0.160354
v -0.204615 0.40923 -0.889193
v 0.204615 -0.40923 0.889192
v -0.672088 -0.629941 0.389193
v -0.162463 0.629944 0.759458
v -0.908902 0.409229 -0.080178
v 0.908902 -0.409229 -0.080178
v -0.772492 0.629942 0.080177
v 0.782446 0.409229 -0.469371
v 0.772493 -0.629942 0.080178
v 0.441424 -0.882854 0.160356
v 0.162463 -0.629943 -0.759459
v -0.441423 0.882855 -0.160354
v 0.120413 0.920955 0.370598
v -0.077607 -0.96795 -0.238853
v -0.854991 -0.399094 -0.331231
v 0.747366 0.614342 0.253038
v -0.921508 -0.266063 0.282904
v -0.579229 0.266065 -0.770522
v -0.455902 0.614345 0.643998
v -0.553819 -0.266065 -0.788983
v 0.379681 0.133033 -0.915502
v -0.379681 -0.133033 0.915502
v 0.379681 0.133033 0.915502
v 0.579229 -0.266065 -0.770521
v 0.753368 -0.13303400000000004 0.644002
v -0.579229 0.266064 0.770521
v -0.015698999999999998 -0.266065 -0.963827
v -0.015699 -0.266065 0.963827
v 0.706258 0.696558 -0.126519
v 0.015699 0.266064 0.963827
v -0.471601 -0.614344 -0.632593
v -0.455902 0.614344 -0.643998
v 0.455902 -0.614344 -0.643999
v 0.471599 0.614344 -0.632594
v 0.471599 0.614344 0.632594
v -0.988023 -0.133031 -0.078192
v 0.988023 0.133031 0.078192
v 0.097915 0.696561 -0.710785
v 0.097915 0.696561 0.710785
v -0.097915 -0.696561 0.710785
v 0.025409 -0.943209 0.331228
v -0.097915 -0.69656 -0.710786
v 0.921508 0.266063 -0.282902
v 0.455903 -0.614344 0.643999
v 0.015700000000000002 0.266064 -0.963827
v -0.706258 -0.696557 -0.126518
v 0.174138 -0.943209 -0.282902
v 0.911804 -0.266064 -0.312769
v 0.911804 -0.266064 0.312769
v -0.911804 0.266063 -0.312769
v -0.471601 -0.614343 0.632594
v -0.911803 0.266065 0.312769
v -0.307168 -0.943208 -0.126518
v -0.025408 0.943209 -0.331227
v 0.307167 0.943208 0.126518
v -0.174138 0.943209 0.282901
v -0.64574 0.696561 -0.312768
v -0.64574 0.69656 0.312768
v 0.64574 -0.69656 -0.312768
v 0.645741 -0.696559 0.312769
v 0.161465 0.476988 -0.863951
v 0.161465 0.476988 0.863951
v -0.161465 -0.476988 -0.863951
v -0.161465 -0.476988 0.863951
v 0.871565 0.476984 -0.113408
v -0.871565 -0.476984 0.113408
v -0.096471 0.992865 -0.070089
v 0.096471 -0.992865 0.070089
v -0.771771 0.476987 -0.420539
v -0.771771 0.476987 0.420539
v 0.771771 -0.476987 -0.420539
v 0.771771 -0.476987 0.420539
f 383 198 348
f 528 81 305
f 81 563 305
f 432 82 81
f 82 83 81
f 81 83 563
f 599 236 323
f 541 84 83
f 83 84 424
f 599 369 236
f 541 210 84
f 210 604 84
f 84 604 363
f 278 529 253
f 635 284 226
f 529 89 253
f 225 77 637
f 321 85 624
f 624 85 333
f 321 86 85
f 86 87 85
f 85 87 433
f 262 87 209
f 86 88 87
f 552 406 209
f 89 408 608
f 608 408 206
f 206 479 88
f 318 602 161
f 406 242 288
f 242 533 288
f 631 292 89
f 77 232 637
f 533 147 288
f 473 568 415
f 495 90 582
f 90 91 473
f 473 91 568
f 90 92 91
f 92 306 91
f 178 485 92
f 485 577 92
f 92 577 306
f 223 458 257
f 639 260 147
f 66 171 294
f 75 243 539
f 458 97 257
f 626 93 527
f 93 357 527
f 377 94 491
f 491 94 93
f 93 543 357
f 377 95 94
f 179 96 543
f 543 96 493
f 97 589 522
f 522 589 95
f 483 574 179
f 179 574 96
f 96 364 609
f 220 530 286
f 535 287 97
f 63 187 258
f 530 101 286
f 199 383 348
f 214 98 451
f 451 98 625
f 550 99 98
f 98 99 274
f 100 470 550
f 177 520 565
f 101 605 330
f 330 605 100
f 100 378 470
f 378 418 470
f 177 586 520
f 281 346 73
f 343 499 101
f 613 327 152
f 314 102 613
f 613 102 327
f 373 103 156
f 464 104 397
f 104 446 240
f 442 554 103
f 103 554 464
f 554 417 464
f 464 417 104
f 104 512 446
f 188 342 69
f 340 497 216
f 149 292 631
f 313 105 615
f 615 105 359
f 372 106 313
f 313 106 105
f 204 107 235
f 235 107 211
f 211 307 507
f 511 449 545
f 335 422 204
f 204 422 107
f 588 277 307
f 391 283 200
f 335 50 422
f 49 338 277
f 501 276 385
f 472 108 350
f 350 108 171
f 108 362 171
f 606 521 175
f 521 569 175
f 472 315 108
f 315 622 108
f 108 622 362
f 461 290 230
f 44 386 197
f 381 109 339
f 109 287 535
f 596 329 109
f 596 110 329
f 110 187 329
f 337 111 423
f 423 111 110
f 111 547 110
f 337 112 111
f 467 113 547
f 547 113 416
f 301 561 112
f 112 561 467
f 467 354 113
f 354 600 113
f 113 600 304
f 174 632 61
f 455 505 217
f 248 263 390
f 516 148 443
f 352 482 556
f 595 233 273
f 466 115 352
f 352 115 482
f 444 355 233
f 466 562 115
f 562 410 115
f 115 410 325
f 193 537 59
f 388 503 218
f 340 202 497
f 221 504 452
f 300 560 58
f 375 116 334
f 400 469 560
f 469 431 560
f 375 117 116
f 157 118 469
f 469 118 431
f 157 428 118
f 118 326 597
f 536 256 202
f 157 184 289
f 33 633 173
f 391 121 283
f 195 501 385
f 441 555 53
f 484 119 557
f 557 119 267
f 267 398 555
f 398 120 481
f 121 517 590
f 590 517 154
f 316 476 234
f 234 476 120
f 120 585 448
f 196 394 52
f 344 382 121
f 241 381 339
f 356 264 447
f 420 122 356
f 356 122 264
f 465 426 558
f 420 123 122
f 158 351 465
f 150 409 587
f 587 409 123
f 546 450 351
f 28 500 546
f 27 345 189
f 194 248 390
f 407 124 299
f 299 124 593
f 407 125 124
f 125 126 124
f 124 126 336
f 126 429 336
f 336 429 42
f 151 361 598
f 598 361 205
f 205 572 153
f 212 303 544
f 544 303 519
f 18 457 190
f 388 130 503
f 231 440 393
f 607 127 524
f 127 566 524
f 317 353 478
f 127 128 566
f 317 129 353
f 353 399 128
f 130 302 619
f 619 302 129
f 186 295 129
f 399 576 155
f 155 332 618
f 642 261 130
f 20 641 191
f 24 280 459
f 376 131 523
f 523 131 603
f 486 132 376
f 376 132 131
f 132 133 131
f 131 133 489
f 133 581 489
f 542 134 133
f 133 134 581
f 542 494 134
f 134 612 367
f 396 584 201
f 201 584 308
f 308 30 358
f 29 531 222
f 192 382 344
f 331 135 601
f 549 136 135
f 135 136 427
f 487 137 549
f 137 471 549
f 160 366 559
f 215 623 137
f 137 435 471
f 324 616 160
f 160 616 366
f 228 538 31
f 349 384 445
f 25 282 347
f 349 203 384
f 564 138 526
f 526 138 368
f 275 139 159
f 268 140 319
f 140 621 319
f 139 567 468
f 567 430 468
f 468 430 140
f 140 360 621
f 463 510 203
f 13 532 279
f 20 227 641
f 642 224 261
f 365 141 629
f 141 436 629
f 579 164 488
f 579 265 164
f 265 176 164
f 176 142 237
f 237 142 570
f 142 414 570
f 176 580 142
f 474 245 414
f 245 540 22
f 463 229 510
f 219 293 634
f 610 143 412
f 490 266 143
f 266 144 143
f 143 144 480
f 145 146 266
f 266 146 144
f 144 162 322
f 162 614 322
f 611 370 145
f 145 421 146
f 298 311 146
f 311 17 405
f 405 17 244
f 17 534 244
f 403 627 147
f 403 147 260
f 553 516 148
f 553 148 114
f 504 452 149
f 615 149 359
f 461 290 150
f 636 150 252
f 455 505 151
f 634 151 293
f 393 440 152
f 635 152 284
f 126 125 153
f 544 153 212
f 119 484 154
f 398 234 120
f 128 399 155
f 128 155 434
f 102 314 156
f 102 156 397
f 117 116 157
f 401 548 184
f 123 122 158
f 123 158 477
f 138 564 159
f 268 468 140
f 136 559 160
f 471 160 324
f 88 87 161
f 88 161 318
f 146 144 162
f 551 405 311
f 132 486 163
f 542 163 358
f 141 488 164
f 237 164 176
f 48 337 423
f 264 514 447
f 355 444 166
f 317 619 129
f 323 82 432
f 274 625 98
f 568 91 437
f 76 377 491
f 321 86 492
f 563 424 83
f 357 543 493
f 214 550 98
f 65 575 171
f 65 171 294
f 53 309 172
f 620 172 402
f 597 326 173
f 56 173 454
f 600 304 174
f 39 174 453
f 269 374 175
f 472 175 569
f 496 265 176
f 496 176 580
f 99 565 177
f 470 177 418
f 90 495 178
f 90 178 92
f 95 94 179
f 95 179 483
f 210 541 475
f 240 397 104
f 319 268 573
f 28 477 546
f 211 235 571
f 318 479 88
f 212 153 572
f 322 480 144
f 34 548 184
f 34 489 581
f 567 404 185
f 320 611 145
f 213 295 186
f 213 302 129
f 62 63 187
f 62 187 416
f 512 446 188
f 54 188 389
f 518 450 189
f 47 189 392
f 519 303 190
f 41 190 341
f 618 332 191
f 37 191 387
f 29 531 192
f 331 192 601
f 410 325 193
f 35 193 460
f 39 453 194
f 506 299 407
f 49 338 195
f 513 267 557
f 585 448 196
f 31 196 538
f 362 622 197
f 64 197 640
f 79 462 198
f 305 198 528
f 71 395 199
f 451 199 625
f 56 454 200
f 511 200 449
f 22 540 201
f 617 201 308
f 401 594 202
f 401 202 256
f 404 525 203
f 404 203 510
f 106 235 204
f 545 204 335
f 125 312 205
f 125 205 153
f 86 492 206
f 86 206 88
f 263 343 499
f 60 378 418
f 559 136 427
f 316 517 154
f 78 552 209
f 78 495 582
f 70 475 210
f 70 210 498
f 68 571 211
f 68 211 507
f 19 572 212
f 19 212 508
f 21 186 213
f 21 213 576
f 72 583 214
f 72 214 425
f 487 137 215
f 584 445 396
f 37 387 216
f 515 442 103
f 47 392 217
f 592 301 112
f 41 341 218
f 595 444 233
f 13 532 219
f 610 219 412
f 364 609 220
f 61 220 632
f 54 389 221
f 334 400 116
f 367 612 222
f 33 222 633
f 411 628 223
f 64 223 640
f 630 413 224
f 17 224 534
f 79 462 225
f 624 225 333
f 73 346 226
f 599 226 369
f 24 459 227
f 629 227 365
f 616 366 228
f 25 228 347
f 370 611 229
f 15 229 638
f 52 394 230
f 606 230 521
f 35 460 231
f 607 231 524
f 75 539 232
f 415 232 371
f 114 273 233
f 466 233 355
f 154 119 234
f 154 234 316
f 105 106 235
f 105 235 571
f 82 323 236
f 541 236 475
f 141 164 237
f 141 237 436
f 561 301 238
f 312 598 205
f 324 471 435
f 564 275 159
f 70 578 240
f 70 240 498
f 44 386 241
f 447 241 514
f 602 406 242
f 67 242 456
f 71 395 243
f 527 243 626
f 614 405 244
f 18 244 457
f 15 474 245
f 15 245 638
f 512 104 417
f 591 334 400
f 518 450 351
f 592 337 112
f 336 124 593
f 336 248 42
f 618 155 434
f 515 373 103
f 597 118 431
f 511 372 545
f 586 177 418
f 59 325 193
f 409 150 252
f 368 282 526
f 363 278 253
f 492 608 206
f 612 134 494
f 29 331 192
f 610 143 490
f 13 360 279
f 184 401 256
f 489 603 131
f 306 411 628
f 377 522 95
f 304 113 416
f 61 364 220
f 448 120 481
f 606 374 175
f 66 403 260
f 328 276 620
f 413 224 261
f 186 302 213
f 77 232 371
f 77 333 225
f 556 148 443
f 556 443 207
f 558 514 264
f 558 264 465
f 630 413 265
f 630 265 496
f 320 490 266
f 320 266 145
f 441 513 267
f 441 267 555
f 138 159 268
f 138 268 573
f 172 374 269
f 172 269 402
f 554 442 270
f 55 375 334
f 434 128 566
f 373 314 156
f 254 30 358
f 494 358 542
f 42 380 273
f 553 273 114
f 74 167 274
f 565 274 99
f 239 26 275
f 525 275 139
f 260 639 276
f 260 276 328
f 67 307 277
f 67 277 456
f 604 363 278
f 69 278 342
f 621 360 279
f 27 279 345
f 256 536 280
f 603 280 523
f 586 520 281
f 59 281 537
f 252 636 282
f 252 282 368
f 484 154 590
f 335 449 545
f 369 226 284
f 327 284 152
f 585 120 476
f 31 366 228
f 330 101 286
f 493 609 96
f 329 109 287
f 483 589 95
f 209 406 288
f 495 627 178
f 33 222 367
f 33 326 173
f 420 123 587
f 420 290 45
f 607 127 478
f 35 410 193
f 408 89 292
f 359 292 149
f 361 151 293
f 412 293 219
f 64 223 411
f 64 362 197
f 20 227 365
f 20 332 191
f 626 93 491
f 75 415 232
f 617 163 486
f 22 414 245
f 15 474 298
f 15 370 229
f 194 39 299
f 194 299 593
f 221 591 300
f 221 300 504
f 217 592 301
f 217 301 505
f 261 130 302
f 261 302 186
f 508 212 303
f 18 303 190
f 61 258 304
f 61 304 174
f 79 198 305
f 509 305 563
f 437 91 306
f 437 306 628
f 107 211 307
f 107 307 588
f 163 617 308
f 163 308 358
f 374 172 309
f 481 555 398
f 570 237 436
f 23 376 486
f 16 551 311
f 16 496 580
f 40 238 312
f 407 312 125
f 57 58 313
f 57 313 372
f 271 440 314
f 271 314 373
f 569 472 315
f 45 315 502
f 32 208 316
f 32 316 476
f 36 166 317
f 36 317 478
f 68 479 318
f 68 318 507
f 28 573 319
f 28 319 500
f 14 185 320
f 14 320 490
f 80 509 321
f 80 321 492
f 19 480 322
f 19 322 508
f 74 438 323
f 74 323 432
f 26 435 324
f 26 324 439
f 482 115 325
f 251 325 59
f 428 118 326
f 289 326 33
f 180 284 327
f 578 327 102
f 66 260 328
f 575 350 171
f 63 287 329
f 63 329 187
f 170 286 330
f 425 330 100
f 254 29 331
f 419 331 135
f 576 155 332
f 295 332 20
f 262 77 333
f 433 333 85
f 246 55 334
f 246 334 591
f 51 449 335
f 51 335 50
f 43 593 336
f 43 336 42
f 247 48 337
f 247 337 592
f 456 277 338
f 385 338 195
f 535 109 339
f 386 339 241
f 387 216 340
f 536 340 202
f 388 218 341
f 457 341 190
f 529 278 342
f 389 342 188
f 530 101 343
f 390 343 263
f 391 121 344
f 531 344 192
f 392 189 345
f 532 345 279
f 635 226 346
f 537 346 281
f 538 228 347
f 636 347 282
f 462 198 348
f 395 348 199
f 396 445 349
f 463 349 203
f 402 269 350
f 402 350 575
f 426 465 351
f 426 351 518
f 148 114 352
f 148 352 556
f 127 478 353
f 127 353 128
f 561 467 354
f 40 354 506
f 562 466 355
f 36 355 166
f 45 502 356
f 45 356 420
f 72 583 357
f 72 357 493
f 272 30 358
f 272 358 494
f 182 292 359
f 571 359 105
f 430 140 360
f 255 360 13
f 572 205 361
f 183 361 293
f 294 171 362
f 294 362 64
f 424 84 363
f 169 363 253
f 574 96 364
f 258 364 61
f 295 20 365
f 488 365 141
f 285 559 366
f 285 366 31
f 581 134 367
f 289 367 33
f 181 252 368
f 573 368 138
f 475 236 369
f 180 369 284
f 421 145 370
f 298 370 15
f 262 77 371
f 582 473 90
f 250 57 372
f 250 372 511
f 249 271 373
f 249 373 515
f 259 309 374
f 259 374 606
f 270 55 375
f 594 375 117
f 310 23 376
f 310 376 523
f 168 76 377
f 168 377 522
f 605 100 378
f 207 378 60
f 49 50 422
f 588 422 107
f 595 273 380
f 519 429 544
f 423 110 596
f 423 381 48
f 427 135 601
f 208 517 316
f 167 274 625
f 432 528 81
f 435 137 623
f 239 525 275
f 639 276 385
f 9 385 338
f 640 197 386
f 8 386 339
f 6 340 387
f 641 387 191
f 2 341 388
f 642 388 130
f 10 342 389
f 452 389 221
f 7 343 390
f 453 390 194
f 5 344 391
f 454 391 200
f 455 217 392
f 3 392 345
f 635 152 393
f 460 393 231
f 461 230 394
f 538 394 196
f 539 243 395
f 12 395 348
f 1 349 396
f 540 396 201
f 578 102 397
f 578 397 240
f 119 267 398
f 119 398 234
f 129 353 399
f 129 399 213
f 300 591 400
f 300 400 560
f 117 594 401
f 117 401 548
f 328 620 402
f 328 402 575
f 178 627 403
f 178 403 485
f 139 525 404
f 139 404 567
f 162 551 405
f 162 405 614
f 161 552 406
f 161 406 602
f 40 506 407
f 40 407 312
f 479 206 408
f 182 408 292
f 477 123 409
f 181 409 252
f 291 562 410
f 291 410 35
f 577 306 411
f 294 411 64
f 183 293 412
f 480 412 143
f 186 261 413
f 579 413 265
f 297 570 414
f 297 414 22
f 296 75 415
f 296 415 568
f 258 62 416
f 258 416 304
f 246 55 417
f 246 417 512
f 251 60 418
f 251 418 586
f 254 272 419
f 254 419 331
f 46 45 420
f 46 420 587
f 298 370 421
f 298 421 16
f 379 50 422
f 379 422 588
f 165 48 423
f 165 423 596
f 169 80 424
f 169 424 363
f 170 72 425
f 170 425 330
f 247 48 426
f 247 426 518
f 208 601 427
f 208 427 32
f 289 34 428
f 289 428 326
f 380 42 429
f 380 429 519
f 255 14 430
f 255 430 360
f 250 57 431
f 250 431 597
f 167 74 432
f 167 432 528
f 262 333 433
f 262 433 78
f 249 271 434
f 249 434 618
f 239 623 435
f 239 435 26
f 310 629 436
f 310 436 23
f 168 76 437
f 168 437 628
f 599 323 438
f 520 438 565
f 616 324 439
f 526 439 564
f 38 314 613
f 38 524 566
f 195 513 441
f 195 441 501
f 216 515 442
f 216 442 497
f 263 516 443
f 263 443 499
f 218 595 444
f 218 444 503
f 215 584 445
f 215 445 623
f 498 240 446
f 69 446 188
f 44 241 447
f 502 447 356
f 52 259 448
f 52 448 196
f 283 200 449
f 283 449 51
f 500 546 450
f 27 450 189
f 71 199 451
f 583 451 214
f 631 149 452
f 10 452 389
f 632 174 453
f 7 453 390
f 5 391 454
f 633 454 173
f 3 392 455
f 634 455 151
f 533 242 456
f 9 456 338
f 2 341 457
f 534 457 244
f 640 223 458
f 535 458 97
f 536 280 459
f 641 459 227
f 537 193 460
f 11 460 393
f 4 394 461
f 636 461 150
f 12 348 462
f 637 462 225
f 1 349 463
f 638 463 229
f 156 103 464
f 156 464 397
f 122 264 465
f 122 465 158
f 114 233 466
f 114 466 352
f 111 112 467
f 111 467 547
f 159 139 468
f 159 468 268
f 116 400 469
f 116 469 157
f 99 550 470
f 99 470 177
f 136 549 471
f 136 471 160
f 269 175 472
f 269 472 350
f 371 582 473
f 371 473 415
f 142 580 474
f 142 474 414
f 180 369 475
f 180 475 70
f 285 32 476
f 285 476 585
f 181 409 477
f 181 477 28
f 291 36 478
f 291 478 607
f 182 408 479
f 182 479 68
f 183 412 480
f 183 480 19
f 259 309 481
f 259 481 448
f 251 60 482
f 251 482 325
f 63 589 483
f 63 483 62
f 51 50 484
f 51 484 590
f 66 403 485
f 66 485 65
f 297 23 486
f 297 486 617
f 30 272 487
f 30 487 215
f 295 21 488
f 295 488 365
f 184 603 489
f 184 489 34
f 255 14 490
f 255 490 610
f 296 76 491
f 296 491 626
f 169 80 492
f 169 492 608
f 170 72 493
f 170 493 609
f 254 272 494
f 254 494 612
f 209 78 495
f 209 495 627
f 311 630 496
f 311 496 16
f 270 442 497
f 270 594 375
f 604 210 498
f 69 498 446
f 207 443 499
f 207 605 378
f 27 450 500
f 621 500 319
f 53 441 501
f 53 620 172
f 622 315 502
f 44 502 447
f 166 444 503
f 166 619 317
f 58 300 504
f 58 615 313
f 238 301 505
f 238 598 312
f 600 354 506
f 39 506 299
f 602 318 507
f 67 507 307
f 18 303 508
f 614 508 322
f 79 305 509
f 624 509 321
f 185 404 510
f 185 611 320
f 56 250 511
f 56 511 200
f 54 246 512
f 54 512 188
f 49 379 513
f 49 513 195
f 381 241 514
f 381 514 165
f 37 249 515
f 37 515 216
f 248 43 516
f 248 516 263
f 382 121 517
f 382 517 208
f 47 247 518
f 47 518 189
f 41 380 519
f 41 519 190
f 73 438 520
f 73 520 281
f 290 230 521
f 290 521 46
f 257 168 522
f 257 522 97
f 24 310 523
f 24 523 280
f 440 231 524
f 440 524 38
f 384 239 525
f 384 525 203
f 25 439 526
f 25 526 282
f 71 243 527
f 583 527 357
f 383 167 528
f 383 528 198
f 10 342 529
f 631 529 89
f 7 343 530
f 632 530 220
f 633 222 531
f 5 531 344
f 3 345 532
f 634 532 219
f 9 456 533
f 639 533 147
f 642 224 534
f 2 534 457
f 8 458 535
f 8 535 339
f 6 340 536
f 6 536 459
f 11 346 537
f 11 537 460
f 4 394 538
f 4 538 347
f 637 232 539
f 12 539 395
f 1 396 540
f 638 540 245
f 82 236 541
f 82 541 83
f 132 163 542
f 132 542 133
f 94 93 543
f 94 543 179
f 126 153 544
f 126 544 429
f 106 372 545
f 106 545 204
f 158 477 546
f 158 546 351
f 187 110 547
f 187 547 416
f 157 117 548
f 157 548 428
f 419 487 549
f 419 549 135
f 425 214 550
f 425 550 100
f 146 421 551
f 146 551 162
f 87 433 552
f 87 552 161
f 42 43 553
f 42 553 273
f 55 270 554
f 55 554 417
f 309 53 555
f 309 555 481
f 60 207 556
f 60 556 482
f 50 379 557
f 50 557 484
f 48 165 558
f 48 558 426
f 32 427 559
f 32 559 285
f 57 58 560
f 57 560 431
f 40 238 561
f 40 561 354
f 36 355 562
f 36 562 291
f 80 509 563
f 80 563 424
f 26 439 564
f 26 564 275
f 74 274 565
f 74 565 438
f 271 38 566
f 271 566 434
f 14 185 567
f 14 567 430
f 76 296 568
f 76 568 437
f 45 46 569
f 45 569 315
f 23 436 570
f 23 570 297
f 182 359 571
f 182 571 68
f 183 361 572
f 183 572 19
f 181 368 573
f 181 573 28
f 258 62 574
f 258 574 364
f 66 328 575
f 66 575 65
f 295 21 576
f 295 576 332
f 294 65 577
f 294 577 411
f 180 327 578
f 180 578 70
f 186 21 579
f 186 579 413
f 298 16 580
f 298 580 474
f 289 34 581
f 289 581 367
f 262 78 582
f 262 582 371
f 71 527 583
f 71 583 451
f 30 308 584
f 30 584 215
f 31 285 585
f 31 585 196
f 59 251 586
f 59 586 281
f 290 46 587
f 290 587 150
f 49 379 588
f 49 588 277
f 287 97 589
f 287 589 63
f 283 51 590
f 283 590 121
f 54 246 591
f 54 591 221
f 47 247 592
f 47 592 217
f 248 194 593
f 248 593 43
f 497 270 594
f 497 594 202
f 41 380 595
f 41 595 218
f 381 165 596
f 381 596 109
f 56 250 597
f 56 597 173
f 505 238 598
f 505 598 151
f 73 438 599
f 73 599 226
f 39 506 600
f 39 600 174
f 382 192 601
f 382 601 208
f 67 507 602
f 67 602 242
f 256 280 603
f 256 603 184
f 69 498 604
f 69 604 278
f 499 101 605
f 499 605 207
f 52 259 606
f 52 606 230
f 35 291 607
f 35 607 231
f 253 169 608
f 253 608 89
f 286 170 609
f 286 609 220
f 13 255 610
f 13 610 219
f 510 185 611
f 510 611 229
f 29 254 612
f 29 612 222
f 440 38 613
f 440 613 152
f 18 508 614
f 18 614 244
f 504 58 615
f 504 615 149
f 25 439 616
f 25 616 228
f 22 297 617
f 22 617 201
f 37 249 618
f 37 618 191
f 503 166 619
f 503 619 130
f 501 53 620
f 501 620 276
f 27 500 621
f 27 621 279
f 44 502 622
f 44 622 197
f 384 445 623
f 384 623 239
f 79 509 624
f 79 624 225
f 383 199 625
f 383 625 167
f 75 296 626
f 75 626 243
f 288 209 627
f 288 627 147
f 257 168 628
f 257 628 223
f 24 227 629
f 24 629 310
f 17 224 630
f 17 630 311
f 10 529 631
f 10 631 452
f 7 530 632
f 7 632 453
f 5 454 633
f 5 633 531
f 3 455 634
f 3 634 532
f 11 346 635
f 11 635 393
f 4 461 636
f 4 636 347
f 12 462 637
f 12 637 539
f 1 463 638
f 1 638 540
f 9 533 639
f 9 639 385
f 8 458 640
f 8 640 386
f 6 387 641
f 6 641 459
f 2 534 642
f 2 642 388
