v 0.0 -1.0 0.0
v 0.723607 -0.44722 0.525725
v -0.276388 -0.44722 0.850649
v -0.894426 -0.447216 0.0
v -0.276388 -0.44722 -0.850649
v 0.723607 -0.44722 -0.525725
v 0.276388 0.44722 0.850649
v -0.723607 0.44722 0.525725
v -0.723607 0.44722 -0.525725
v 0.276388 0.44722 -0.850649
v 0.894426 0.447216 0.0
v 0.0 1.0 0.0
v -0.162456 -0.850654 0.499995
v 0.425323 -0.850654 0.309011
v 0.425323 -0.850654 -0.309011
v -0.52573 -0.850652 0.0
v 0.262869 -0.525738 -0.809012
v 0.951058 -0.0 0.309013
v 0.587786 0.0 0.809017
v -0.951058 -0.0 0.309013
v -0.587786 0.0 0.809017
v -0.587786 -0.0 -0.809017
v 0.587786 -0.0 -0.809017
v 0.688189 0.525736 0.499997
v -0.262869 0.525738 0.809012
v 0.688189 0.525736 -0.499997
v 0.52573 0.850652 0.0
v -0.425323 0.850654 -0.309011
f 11 12 27
f 11 26 12
f 26 10 12
f 12 9 28
f 10 9 12
f 28 8 12
f 9 8 28
f 8 25 12
f 25 7 12
f 7 24 12
f 12 24 27
f 24 11 27
f 11 10 26
f 6 23 11
f 23 10 11
f 23 9 10
f 5 22 23
f 22 9 23
f 4 20 9
f 20 8 9
f 21 25 8
f 3 25 21
f 25 3 7
f 19 24 7
f 19 11 24
f 2 18 19
f 19 18 11
f 6 17 23
f 23 17 5
f 9 22 4
f 5 4 22
f 20 21 8
f 20 3 21
f 4 3 20
f 7 3 19
f 3 2 19
f 13 2 3
f 2 6 18
f 18 6 11
f 6 15 17
f 15 5 17
f 15 1 5
f 5 1 4
f 16 4 1
f 1 13 16
f 13 3 16
f 16 3 4
f 2 15 6
f 2 14 15
f 14 1 15
f 1 2 13
f 14 2 1
