v 0.0 -1.0 0.0
v 0.723607 -0.44722 0.525725
v -0.276388 -0.44722 0.850649
v -0.894426 -0.447216 0.0
v -0.276388 -0.44722 -0.850649
v 0.723607 -0.44722 -0.525725
v 0.276388 0.44722 0.850649
v -0.723607 0.44722 0.525725
v -0.723607 0.44722 -0.525725
v 0.276388 0.44722 -0.850649
v 0.894426 0.447216 0.0
v 0.0 1.0 0.0
v -0.162456 -0.850654 0.499995
v 0.425323 -0.850654 0.309011
v 0.262869 -0.525738 0.809012
v 0.850648 -0.525736 0.0
v 0.425323 -0.850654 -0.309011
v -0.52573 -0.850652 0.0
v -0.688189 -0.525736 0.499997
v -0.162456 -0.850654 -0.499995
v -0.688189 -0.525736 -0.499997
v 0.262869 -0.525738 -0.809012
v 0.951058 -0.0 0.309013
v 0.951058 0.0 -0.309013
v -0.0 -0.0 1.0
v 0.587786 0.0 0.809017
v -0.951058 -0.0 0.309013
v -0.587786 0.0 0.809017
v -0.587786 -0.0 -0.809017
v -0.951058 0.0 -0.309013
v 0.587786 -0.0 -0.809017
v 0.0 0.0 -1.0
v 0.688189 0.525736 0.499997
v -0.262869 0.525738 0.809012
v -0.850648 0.525736 -0.0
v -0.262869 0.525738 -0.809012
v 0.688189 0.525736 -0.499997
v 0.162456 0.850654 0.499995
v 0.52573 0.850652 0.0
v -0.425323 0.850654 0.309011
v -0.425323 0.850654 -0.309011
v 0.162456 0.850654 -0.499995
v 0.3618 0.894429 -0.262863
v -0.138197 0.89443 -0.425319
v -0.05279 0.723612 -0.688185
v -0.44721 0.894429 0.0
v -0.138197 0.89443 0.425319
v -0.361804 0.723612 0.587778
v -0.05279 0.723612 0.688185
v 0.3618 0.894429 0.262863
v 0.861804 0.276396 -0.425322
v 0.809019 0.0 -0.587782
v -0.138198 0.276397 -0.951055
v -0.947213 0.276396 -0.162458
v -0.947213 0.276397 0.162458
v -0.447216 0.276397 0.850649
v -0.309017 -1e-06 0.951056
v 0.67082 0.276396 0.68819
v 0.809019 -2e-06 0.587783
v 0.309017 -0.0 -0.951056
v 0.447216 -0.276398 -0.850648
v -0.809018 -0.0 -0.587783
v -0.670819 -0.276397 -0.688191
v -0.809018 0.0 0.587783
v -0.670819 -0.276397 0.688191
v 0.309017 0.0 0.951056
v 0.447216 -0.276398 0.850648
v 0.947213 -0.276396 0.162458
v 0.138197 -0.894429 -0.425321
v -0.447211 -0.723612 -0.525727
v -0.638195 -0.723609 0.262864
v -0.361801 -0.894428 0.262864
v 0.670818 -0.72361 0.162458
v 0.05279 -0.723612 0.688185
f 39 43 12
f 43 42 12
f 11 43 39
f 43 37 42
f 11 37 43
f 37 10 42
f 42 44 12
f 44 41 12
f 42 45 44
f 44 45 41
f 10 36 42
f 42 36 45
f 36 9 45
f 45 9 41
f 41 46 12
f 46 40 12
f 41 35 46
f 46 35 40
f 35 8 40
f 9 35 41
f 8 34 40
f 47 38 12
f 40 47 12
f 40 48 47
f 48 49 47
f 47 49 38
f 40 34 48
f 34 7 48
f 48 7 49
f 49 7 38
f 38 50 12
f 12 50 39
f 50 11 39
f 7 33 38
f 38 33 50
f 33 11 50
f 24 37 11
f 24 51 37
f 6 51 24
f 6 52 51
f 51 52 37
f 52 10 37
f 6 31 52
f 31 10 52
f 32 36 10
f 32 53 36
f 5 53 32
f 53 9 36
f 5 29 53
f 29 9 53
f 30 35 9
f 30 54 35
f 4 54 30
f 54 55 35
f 55 8 35
f 4 27 54
f 54 27 55
f 27 8 55
f 28 34 8
f 28 56 34
f 3 56 28
f 56 7 34
f 3 57 56
f 56 57 7
f 3 25 57
f 25 7 57
f 26 58 7
f 58 33 7
f 58 11 33
f 2 59 26
f 26 59 58
f 2 23 59
f 23 11 59
f 59 11 58
f 60 32 10
f 31 60 10
f 60 5 32
f 31 61 60
f 60 61 5
f 6 22 31
f 31 22 61
f 22 5 61
f 29 62 9
f 62 30 9
f 62 4 30
f 29 63 62
f 62 63 4
f 5 21 29
f 29 21 63
f 21 4 63
f 27 64 8
f 8 64 28
f 64 3 28
f 64 65 3
f 4 19 27
f 27 19 64
f 64 19 65
f 19 3 65
f 25 66 7
f 7 66 26
f 66 2 26
f 66 67 2
f 3 15 25
f 25 15 66
f 66 15 67
f 15 2 67
f 11 23 24
f 23 6 24
f 23 68 6
f 2 16 23
f 23 16 68
f 16 6 68
f 17 22 6
f 17 5 22
f 1 69 17
f 17 69 5
f 1 20 69
f 20 5 69
f 5 70 21
f 20 70 5
f 70 4 21
f 20 18 70
f 18 4 70
f 1 18 20
f 18 71 4
f 4 71 19
f 18 72 71
f 71 3 19
f 18 1 72
f 1 13 72
f 13 3 72
f 72 3 71
f 16 17 6
f 16 73 17
f 17 73 1
f 16 2 73
f 2 14 73
f 14 1 73
f 3 74 15
f 13 74 3
f 74 14 15
f 14 2 15
f 13 1 74
f 1 14 74
