v 0.0 -1.0 0.0
v 0.723607 -0.44722 0.525725
v -0.276388 -0.44722 0.850649
v -0.894426 -0.447216 0.0
v -0.276388 -0.44722 -0.850649
v 0.723607 -0.44722 -0.525725
v 0.276388 0.44722 0.850649
v -0.723607 0.44722 0.525725
v -0.723607 0.44722 -0.525725
v 0.276388 0.44722 -0.850649
v 0.894426 0.447216 0.0
v 0.0 1.0 0.0
v -0.232822 -0.657519 0.716563
v 0.203181 -0.96795 0.147618
v 0.425323 -0.850654 0.309011
v 0.52542 -0.760403 0.381735
v 0.262869 -0.525738 0.809012
v 0.812729 -0.502301 -0.295238
v 0.850648 -0.525736 0.0
v 0.425323 -0.850654 -0.309011
v -0.649456 -0.760399 0.0
v -0.52573 -0.850652 0.0
v -0.688189 -0.525736 0.499997
v -0.232822 -0.657519 -0.716563
v -0.162456 -0.850654 -0.499995
v -0.831051 -0.502299 -0.238853
v -0.590366 -0.519572 -0.617668
v -0.029639 -0.502302 -0.864184
v 0.262869 -0.525738 -0.809012
v 0.405008 -0.519572 -0.752338
v 0.956626 0.251149 0.147618
v 0.964711 0.129893 -0.229041
v 0.956626 0.251149 -0.147618
v 0.155215 0.251152 0.955422
v 0.587786 0.0 0.809017
v 0.515946 0.129894 0.846716
v 0.436007 0.251152 0.864188
v -0.860698 0.251151 0.442858
v -0.964711 -0.129893 0.229041
v -0.436007 -0.251152 0.864188
v -0.645839 0.129894 0.752342
v -0.645839 0.129894 -0.752343
v -0.587786 -0.0 -0.809017
v 0.029639 0.502302 0.864184
v -0.262869 0.525738 0.809012
v -0.405008 0.519572 0.752338
v -0.812729 0.502301 0.295238
v -0.850648 0.525736 -0.0
v -0.531941 0.502302 -0.681712
v 0.483971 0.502302 -0.716565
v 0.077607 0.96795 0.238853
v 0.162456 0.850654 0.499995
v 0.753442 0.657515 0.0
v 0.649456 0.760399 0.0
v -0.203181 0.96795 -0.147618
v -0.425323 0.850654 -0.309011
v 0.077607 0.96795 -0.238853
v 0.166198 0.978672 -0.120749
v 0.638194 0.72361 -0.262864
v 0.801022 0.586331 -0.12075
v -0.063483 0.978672 -0.195376
v -0.05279 0.723612 -0.688185
v 0.132684 0.586334 -0.799129
v -0.205432 0.978671 0.0
v -0.719015 0.586334 0.373135
v -0.063483 0.978672 0.195376
v -0.05279 0.723612 0.688185
v -0.577066 0.586334 0.568513
v 0.132684 0.586335 0.799129
v 0.166198 0.978672 0.120749
v 0.447209 0.723612 0.525728
v 0.362366 0.586334 0.724502
v 0.801022 0.586331 0.12075
v 0.90374 0.380897 -0.195376
v 0.918856 0.13641 -0.370264
v 0.77663 0.280118 -0.564251
v 0.809019 0.0 -0.587782
v 0.465085 0.3809 -0.799132
v 0.093451 0.3809 -0.919882
v -0.298885 -0.253934 -0.919883
v -0.525732 0.13641 -0.839642
v -0.616302 0.3809 -0.689266
v -0.908902 0.409229 0.080178
v -0.967222 -0.253931 0.0
v -0.845982 0.3809 0.373136
v -0.616302 0.3809 0.689266
v -0.525732 0.13641 0.839641
v -0.357124 0.40923 0.839639
v -0.309017 -1e-06 0.951056
v 0.093451 0.3809 0.919882
v 0.90374 0.380896 0.195377
v -0.093451 -0.3809 -0.919881
v -0.465084 -0.3809 -0.799132
v -0.903739 -0.380897 -0.195378
v -0.782501 0.253934 0.568515
v -0.670819 -0.276397 0.688191
v -0.903739 -0.380897 0.195378
v -0.465084 -0.3809 0.799132
v 0.298886 0.253934 0.919883
v 0.138199 -0.276397 0.951055
v -0.093451 -0.3809 0.919882
v 0.616302 -0.3809 0.689266
v 0.967222 0.253931 0.0
v 0.845982 -0.380899 0.373136
v 0.908902 -0.409229 0.080178
v 0.845982 -0.380899 -0.373136
v 0.577066 -0.586334 -0.568513
v -0.132684 -0.586334 -0.799129
v -0.362367 -0.586334 -0.724501
v -0.447211 -0.723612 -0.525727
v -0.801022 -0.58633 -0.120749
v -0.801022 -0.58633 0.12075
v 0.719015 -0.586334 -0.373135
v 0.719016 -0.586333 0.373136
v -0.132684 -0.586334 0.799129
v 0.253368 -0.819912 0.51337
v 0.063484 -0.978671 0.195377
f 37 58 12
f 54 57 37
f 11 60 53
f 58 57 12
f 37 57 58
f 54 53 57
f 53 59 57
f 60 50 53
f 53 50 59
f 59 50 57
f 50 10 57
f 11 50 60
f 57 61 12
f 10 63 57
f 61 55 12
f 57 55 61
f 55 57 56
f 57 49 56
f 57 62 49
f 63 27 57
f 57 27 62
f 27 49 62
f 10 27 63
f 55 64 12
f 64 9 12
f 55 9 64
f 56 49 55
f 49 9 55
f 47 65 9
f 65 8 9
f 9 48 47
f 47 8 65
f 9 66 12
f 8 68 9
f 66 51 12
f 9 51 66
f 9 52 51
f 9 67 52
f 68 46 9
f 46 44 9
f 9 44 67
f 67 44 52
f 44 69 52
f 69 7 52
f 8 46 68
f 46 45 44
f 44 7 69
f 51 70 12
f 7 72 52
f 70 37 12
f 51 37 70
f 71 51 52
f 37 53 54
f 72 37 52
f 52 37 71
f 71 37 51
f 37 73 53
f 73 11 53
f 7 37 72
f 37 11 73
f 33 74 11
f 31 75 32
f 74 50 11
f 33 50 74
f 32 75 33
f 33 75 50
f 75 76 50
f 31 77 75
f 75 6 76
f 76 6 50
f 31 6 77
f 77 6 75
f 6 78 50
f 78 10 50
f 6 10 78
f 6 79 10
f 5 80 6
f 79 27 10
f 6 27 79
f 80 43 6
f 43 81 6
f 6 81 27
f 27 82 49
f 82 9 49
f 5 43 80
f 43 42 81
f 81 42 27
f 27 9 82
f 4 84 27
f 9 83 48
f 83 47 48
f 9 38 83
f 38 47 83
f 84 9 27
f 38 85 47
f 85 8 47
f 4 9 84
f 9 39 38
f 38 8 85
f 23 86 8
f 40 87 41
f 86 46 8
f 86 23 46
f 41 87 23
f 23 88 46
f 88 45 46
f 40 88 87
f 87 88 23
f 88 44 45
f 40 89 88
f 40 34 89
f 89 34 88
f 88 34 44
f 34 90 44
f 90 7 44
f 3 34 40
f 34 7 90
f 36 35 37
f 35 31 37
f 31 91 37
f 91 11 37
f 31 11 91
f 28 92 6
f 92 5 6
f 30 29 6
f 6 29 28
f 28 5 92
f 5 93 43
f 42 43 27
f 93 27 43
f 26 94 27
f 94 4 27
f 5 27 93
f 26 4 94
f 38 95 8
f 39 23 38
f 4 97 9
f 95 23 8
f 38 23 95
f 23 40 41
f 39 9 23
f 23 96 40
f 97 23 9
f 23 13 96
f 96 13 40
f 13 98 40
f 98 3 40
f 4 23 97
f 13 3 98
f 34 99 7
f 3 101 34
f 99 37 7
f 34 37 99
f 34 16 37
f 37 16 36
f 16 35 36
f 16 31 35
f 34 100 16
f 101 17 34
f 34 17 100
f 100 17 16
f 16 102 31
f 102 2 31
f 3 17 101
f 16 2 102
f 31 103 11
f 2 104 31
f 103 33 11
f 31 33 103
f 33 31 32
f 104 14 31
f 14 105 31
f 105 18 31
f 18 106 31
f 106 6 31
f 2 14 104
f 14 19 105
f 105 19 18
f 18 6 106
f 14 107 6
f 107 30 6
f 14 30 107
f 20 30 14
f 1 30 20
f 30 28 29
f 30 24 28
f 24 108 28
f 108 5 28
f 1 25 30
f 30 25 24
f 24 5 108
f 24 109 5
f 109 27 5
f 24 27 109
f 24 110 27
f 25 1 24
f 24 26 110
f 110 26 27
f 1 26 24
f 1 22 26
f 13 111 26
f 111 4 26
f 22 21 26
f 26 21 13
f 13 4 111
f 13 112 4
f 112 23 4
f 13 23 112
f 21 22 13
f 1 13 22
f 18 113 6
f 2 114 14
f 113 14 6
f 18 14 113
f 19 14 18
f 14 1 20
f 114 16 14
f 2 16 114
f 16 15 14
f 13 115 3
f 1 117 13
f 115 17 3
f 13 17 115
f 116 16 13
f 13 16 17
f 117 14 13
f 13 14 116
f 1 14 117
f 14 15 116
f 15 16 116
