v 0.0 -1.0 0.0
v 0.723607 -0.44722 0.525725
v -0.276388 -0.44722 0.850649
v -0.894426 -0.447216 0.0
v -0.276388 -0.44722 -0.850649
v 0.723607 -0.44722 -0.525725
v 0.276388 0.44722 0.850649
v -0.723607 0.44722 0.525725
v -0.723607 0.44722 -0.525725
v 0.276388 0.44722 -0.850649
v 0.894426 0.447216 0.0
v 0.0 1.0 0.0
v -0.232822 -0.657519 0.716563
v -0.162456 -0.850654 0.499995
v 0.203181 -0.96795 0.147618
v 0.425323 -0.850654 0.309011
v 0.609547 -0.657519 0.442856
v 0.531941 -0.502302 0.681712
v 0.262869 -0.525738 0.809012
v 0.812729 -0.502301 -0.295238
v 0.850648 -0.525736 0.0
v 0.203181 -0.96795 -0.147618
v 0.425323 -0.850654 -0.309011
v 0.609547 -0.657519 -0.442856
v -0.753442 -0.657515 0.0
v -0.52573 -0.850652 0.0
v -0.483971 -0.502302 0.716565
v -0.688189 -0.525736 0.499997
v -0.232822 -0.657519 -0.716563
v -0.120413 -0.920955 -0.370598
v -0.831051 -0.502299 -0.238853
v -0.688189 -0.525736 -0.499997
v -0.029639 -0.502302 -0.864184
v 0.262869 -0.525738 -0.809012
v 0.956626 0.251149 0.147618
v 0.951058 -0.0 0.309013
v 0.860698 -0.251151 -0.442858
v 0.964711 0.129893 -0.229041
v 0.155215 0.251152 0.955422
v -0.0 -0.0 1.0
v 0.687159 -0.251152 0.681715
v 0.587786 0.0 0.809017
v 0.515946 0.129894 0.846716
v -0.860698 0.251151 0.442858
v -0.951058 -0.0 0.309013
v -0.964711 -0.129893 0.229041
v -0.436007 -0.251152 0.864188
v -0.587786 0.0 0.809017
v -0.687159 0.251152 -0.681715
v -0.587786 -0.0 -0.809017
v -0.515946 -0.129894 -0.846716
v -0.956626 -0.251149 -0.147618
v -0.915098 0.129893 -0.381737
v 0.436007 0.251152 -0.864188
v 0.587786 -0.0 -0.809017
v -0.155215 -0.251152 -0.955422
v 0.0 0.0 -1.0
v 0.080276 0.129894 -0.988273
v 0.831051 0.502299 0.238853
v 0.688189 0.525736 0.499997
v 0.029639 0.502302 0.864184
v -0.262869 0.525738 0.809012
v -0.405008 0.519572 0.752338
v -0.812729 0.502301 0.295238
v -0.850648 0.525736 -0.0
v -0.840673 0.519571 -0.152694
v -0.531941 0.502302 -0.681712
v -0.262869 0.525738 -0.809012
v 0.483971 0.502302 -0.716565
v 0.688189 0.525736 -0.499997
v 0.077607 0.96795 0.238853
v 0.162456 0.850654 0.499995
v 0.753442 0.657515 0.0
v 0.52573 0.850652 0.0
v -0.203181 0.96795 0.147618
v -0.425323 0.850654 0.309011
v -0.203181 0.96795 -0.147618
v -0.425323 0.850654 -0.309011
v 0.077607 0.96795 -0.238853
v 0.162456 0.850654 -0.499995
v 0.3618 0.894429 -0.262863
v 0.506729 0.819912 -0.266403
v 0.409951 0.819913 -0.399604
v 0.447209 0.723612 -0.525728
v -0.138197 0.89443 -0.425319
v -0.096779 0.819914 -0.564248
v -0.253366 0.819914 -0.513369
v -0.210088 0.733355 -0.646571
v 0.132684 0.586334 -0.799129
v -0.566539 0.819912 -0.082322
v -0.566539 0.819912 0.082322
v -0.679848 0.733353 0.0
v -0.138197 0.89443 0.425319
v -0.253366 0.819914 0.513369
v -0.361804 0.723612 0.587778
v -0.05279 0.723612 0.688185
v -0.577066 0.586334 0.568513
v 0.3618 0.894429 0.262863
v 0.506729 0.819912 0.266403
v 0.447209 0.723612 0.525728
v 0.362366 0.586334 0.724502
v 0.861804 0.276396 -0.425322
v 0.809019 0.0 -0.587782
v 0.670821 0.276397 -0.688189
v -0.138198 0.276397 -0.951055
v -0.226618 0.140059 -0.963861
v -0.447215 0.276397 -0.850649
v -0.947213 0.276397 0.162458
v -0.616302 0.3809 0.689266
v -0.447216 0.276397 0.850649
v -0.383208 0.140059 0.912982
v -0.309017 -1e-06 0.951056
v -0.138199 0.276397 0.951055
v 0.749882 0.140058 0.646576
v 0.861804 0.276394 0.425323
v 0.383207 -0.14006 -0.912982
v 0.447216 -0.276398 -0.850648
v 0.138199 -0.276398 -0.951055
v -0.749881 -0.140059 -0.646577
v -0.861803 -0.276396 -0.425324
v -0.465084 -0.3809 -0.799132
v -0.846659 -0.140059 0.513374
v -0.861803 -0.276396 0.425324
v 0.309017 0.0 0.951056
v 0.226619 -0.14006 0.963861
v 0.383207 -0.14006 0.912982
v 1.0 0.0 0.0
v 0.986715 -0.140059 -0.082322
v 0.947213 -0.276396 0.162458
v 0.845982 -0.380899 0.373136
v 0.361804 -0.723612 -0.587779
v 0.253366 -0.819913 -0.51337
v 0.210087 -0.733354 -0.646572
v 0.052789 -0.723611 -0.688186
v -0.447211 -0.723612 -0.525727
v -0.55001 -0.733353 -0.399603
v -0.361801 -0.894429 -0.262863
v -0.638195 -0.723609 0.262864
v -0.361801 -0.894428 0.262864
v -0.447211 -0.72361 0.525729
v 0.670817 -0.723611 -0.162457
v 0.447211 -0.894428 1e-06
v 0.05279 -0.723612 0.688185
v 0.210089 -0.733354 0.646572
v 0.138199 -0.894429 0.425321
v 0.253368 -0.819912 0.51337
f 74 79 12
f 74 81 79
f 81 80 79
f 74 82 81
f 82 83 81
f 81 83 80
f 73 82 74
f 82 84 83
f 83 84 80
f 73 70 82
f 82 70 84
f 70 69 84
f 84 69 80
f 69 10 80
f 11 70 73
f 10 89 80
f 79 77 12
f 80 85 79
f 79 85 77
f 80 86 85
f 86 87 85
f 85 87 77
f 77 87 78
f 86 88 87
f 87 88 78
f 89 68 80
f 80 68 86
f 86 68 88
f 68 67 88
f 88 67 78
f 67 9 78
f 10 68 89
f 77 75 12
f 9 90 78
f 77 76 75
f 78 90 77
f 90 91 77
f 77 91 76
f 90 92 91
f 92 76 91
f 90 66 92
f 66 64 92
f 92 64 76
f 64 8 76
f 9 66 90
f 66 65 64
f 75 71 12
f 8 97 76
f 75 93 71
f 93 72 71
f 76 94 75
f 75 94 93
f 93 94 72
f 76 95 94
f 95 96 94
f 94 96 72
f 97 63 76
f 76 63 95
f 63 61 95
f 95 61 96
f 96 61 72
f 61 7 72
f 8 63 97
f 63 62 61
f 7 101 72
f 71 74 12
f 72 98 71
f 71 98 74
f 72 99 98
f 98 99 74
f 100 99 72
f 99 73 74
f 101 60 72
f 72 60 100
f 100 60 99
f 60 59 99
f 99 59 73
f 59 11 73
f 7 60 101
f 38 70 11
f 37 102 38
f 38 102 70
f 37 103 102
f 102 104 70
f 104 69 70
f 37 55 103
f 103 55 102
f 55 54 102
f 102 54 104
f 104 54 69
f 54 10 69
f 6 55 37
f 58 68 10
f 57 105 58
f 58 105 68
f 56 106 57
f 57 106 105
f 106 107 105
f 105 107 68
f 68 107 67
f 56 51 106
f 51 49 106
f 106 49 107
f 49 67 107
f 5 51 56
f 51 50 49
f 49 9 67
f 53 66 9
f 53 108 66
f 66 108 65
f 108 64 65
f 52 46 53
f 46 45 53
f 53 45 108
f 45 44 108
f 108 44 64
f 4 46 52
f 44 8 64
f 48 109 8
f 109 63 8
f 48 63 109
f 48 110 63
f 110 62 63
f 47 111 48
f 48 111 110
f 111 62 110
f 47 112 111
f 111 113 62
f 62 113 61
f 47 40 112
f 112 40 111
f 111 40 113
f 40 39 113
f 113 39 61
f 39 7 61
f 3 40 47
f 43 60 7
f 43 42 60
f 42 59 60
f 41 114 42
f 114 115 42
f 42 115 59
f 41 36 114
f 114 36 115
f 36 35 115
f 115 35 59
f 35 11 59
f 2 36 41
f 6 117 55
f 54 58 10
f 54 57 58
f 55 116 54
f 54 116 57
f 116 56 57
f 55 117 116
f 117 118 116
f 116 118 56
f 117 33 118
f 118 33 56
f 6 34 117
f 117 34 33
f 33 5 56
f 5 121 51
f 49 53 9
f 49 52 53
f 51 119 50
f 50 119 49
f 49 119 52
f 119 120 52
f 121 32 51
f 51 32 119
f 32 31 119
f 119 31 120
f 120 31 52
f 31 4 52
f 5 32 121
f 44 48 8
f 45 48 44
f 46 122 45
f 45 122 48
f 122 47 48
f 46 123 122
f 123 47 122
f 4 28 46
f 46 28 123
f 123 27 47
f 28 27 123
f 27 3 47
f 39 43 7
f 40 124 39
f 39 124 43
f 40 125 124
f 125 126 124
f 124 126 43
f 126 41 43
f 43 41 42
f 3 19 40
f 40 19 125
f 125 19 126
f 19 18 126
f 126 18 41
f 18 2 41
f 2 130 36
f 35 38 11
f 35 127 38
f 127 37 38
f 36 127 35
f 127 128 37
f 36 129 127
f 127 129 128
f 130 21 36
f 36 21 129
f 21 20 129
f 129 20 128
f 128 20 37
f 2 21 130
f 20 6 37
f 24 34 6
f 23 131 24
f 24 131 34
f 22 132 23
f 23 132 131
f 132 133 131
f 131 133 34
f 133 33 34
f 132 134 133
f 133 134 33
f 132 29 134
f 134 29 33
f 1 30 22
f 22 30 132
f 132 30 29
f 29 5 33
f 29 32 5
f 29 135 32
f 29 136 135
f 135 136 32
f 30 137 29
f 137 136 29
f 136 31 32
f 30 26 137
f 137 26 136
f 26 25 136
f 136 25 31
f 25 4 31
f 1 26 30
f 25 28 4
f 1 139 26
f 26 138 25
f 25 138 28
f 26 139 138
f 138 140 28
f 140 27 28
f 139 14 138
f 14 13 138
f 138 13 140
f 140 13 27
f 1 14 139
f 13 3 27
f 20 24 6
f 2 17 21
f 20 141 24
f 141 23 24
f 21 141 20
f 21 17 141
f 17 16 141
f 16 142 141
f 141 142 23
f 142 22 23
f 16 15 142
f 142 15 22
f 15 1 22
f 1 15 14
f 13 19 3
f 13 143 19
f 13 14 143
f 14 144 143
f 143 144 19
f 145 146 14
f 14 146 144
f 144 146 19
f 146 18 19
f 14 15 145
f 145 15 146
f 15 16 146
f 16 17 146
f 146 17 18
f 17 2 18
