v -0.23876920554499864 1.3103797270601687 0.13001260700009193
v -0.27582915374543276 1.2582563331865875 0.12364597630502337
v -0.3128662756980407 1.222713216834852 0.14623565543301947
v -0.21034318989786122 1.3531672444828033 0.1537169917653439
v -0.21145627080982005 1.3818523867813413 0.35175494063536605
v -0.596105380500693 -0.6768462432797441 -0.9120215121805894
v -0.10001338605742703 -0.9910441617396678 -0.7028175040329147
v -0.020060506382965703 -1.2334385749192633 -0.301325040448603
v -0.848568870055825 -0.9383248633714683 0.23982837834317694
v -0.19808583052036852 -1.4522159317791117 -0.3886956275749503
v -0.6584407430024051 -1.2331761333320834 -0.8746205623410716
v -1.2445793305522892 -0.817542042890274 -0.8973407152418248
v -0.09560436290090499 1.339214093370152 0.1477579579447047
v -0.0001521773942288455 1.3554620235219368 0.3227203242573578
v -0.10349110756088271 1.3137976974225336 0.4178816230110331
v 0.01795293748424096 1.1977292385399962 0.4495759996401428
v -0.1320833582585817 1.118879626710536 0.03027101424435127
v 0.18936841832020435 0.9319869673270735 0.44817741477373196
v 0.17861510065239114 0.9029942588889944 -0.005193118717157615
v 0.20885071989207965 0.5755957905566027 -0.07667087792795438
v 0.2937291293341934 0.962459454773473 0.17552656684668122
v 0.25272039926472245 0.9123418286838364 0.3839045766826548
v -0.012905137512460198 0.6217365064396034 -0.10774026933953917
v 0.09809358624263935 0.17576055344835947 -0.22660111284413842
v -0.06719701000163651 0.5066450508624447 -0.1397429150410627
v -0.15628752178315608 0.3974920744082751 0.31353339526127444
v -0.39029961638808786 0.25895363915674446 0.12264318016053902
v -0.19518443866089988 1.3928509577654855 0.20378772481501994
v -0.13158193764344558 1.4250679750579258 0.2807314628260412
v -0.11595643515633988 1.4245682404098425 0.22163997660384924
v -0.2872685557740087 1.406883382542881 0.2444293361608223
v -0.2857648326576529 1.5187468359348737 0.3082338172397895
v -0.3334604957630521 1.4880341091190048 0.23308840213734724
v -0.359718447897886 1.5667423492396997 0.3249332982344497
v -0.525253166509216 1.5797756350730938 0.3618339573500447
v -0.46547571828721857 1.4702527709605107 0.3292892793473014
v -0.6190130970388793 1.5696558595459142 0.38003232814495125
v -0.7207897200255293 1.5567789987446936 0.40116346301661054
v -0.7270750137803762 1.525483825821082 0.33867446181335653
v -0.71560668386606 1.4727027815509461 0.3595899705139178
v -0.9070526524958897 1.4960808856355494 0.4172580276830761
v -0.8554404727488869 1.4489886081267185 0.39960983011290785
v -0.875124048994981 1.4891447909953186 0.4545401079578815
v -1.0261663143967716 1.3653907886614334 0.43778258638601936
v -0.9801045292318034 1.4108781558731749 0.4839256718868889
v -1.0646015617123321 1.3754696203441494 0.4676547749135673
v -1.0896315173661946 -0.13537742027486113 -0.24763788309746104
v -0.06640266552744623 -0.5010310085837314 0.19723160290838118
v -0.5369907859125455 0.05987335312325521 -0.420070558870981
v -0.0515896178109137 -0.2563933968214236 -0.49800580550559054
v -1.407890071989428 -1.018040171212245 -0.06605615148067334
v -0.254500590852495 0.32669003381612766 0.23531552878884276
v -0.7894059105187994 -1.5638233094298595 -0.3088200440614581
v -0.18634370550533172 0.5413926271476547 0.2949493622643064
v -1.1255438855619244 -0.45287889159761474 -0.7915489789158711
v 0.2267034323045877 -0.07934967297543495 0.025563590160825683
v -1.4148957872068073 -0.5304237767693063 -0.16308494761654216
v 0.11695626676834339 0.46301165363215435 0.39082411170929
v -0.25834762010828993 -0.6951673252373165 -0.7923673206368221
v 0.17872313693801953 1.025246834722123 0.04349401870518004
v -0.32933702685159627 1.3872894114706185 0.30297184764306634
v 0.07611239708492351 -0.9156476836861951 -0.20536770047473774
v -0.4468655428183257 -1.4081208865117936 0.030309816870830286
v -0.6901485280221654 0.042138462724677694 0.04298647182897286
v -0.9619048200796854 -1.343162090335404 -0.7880316555337348
v 0.3397881281649465 0.4568368997780585 0.1767550046536417
v -0.3393653203892503 1.1606446817887044 0.25033862660881895
v -1.3871797127872325 -1.2453352818416719 -0.572553807563756
v -0.3764229875624985 -0.3372841738879878 0.3196175137825808
v -0.847389582770811 -0.478492980249323 -0.871016832402294
v -0.709409821847784 -1.4659429722203778 -0.7154020228441985
v -0.19469603733957327 0.6638012353563264 0.0019509816624666415
v 0.019526285792144146 1.2268383174511577 0.08762970595474523
v -0.30726711945847285 1.2956437760677335 0.3643485926629952
v -0.3804429066794447 -0.3517580490090136 -0.7461890303461363
v -0.005211606777756714 0.04917999260227923 0.2990491470058861
v -1.1652203387672957 -0.9337169196632413 0.13341840782632847
v 0.12212578753997297 -0.6050598321387264 -0.12437295900412776
v -0.0932417226328324 0.3598705333665368 -0.2074025730478351
v -1.4417357951365137 -0.892844113645334 -0.7517043712681761
v -0.21917009134413754 1.249857125588988 0.0995416059368744
v -0.21433174824491863 1.2202115319934645 0.42359844208844455
v -0.32631523474701046 1.4631317857783432 0.35061576401157374
v -0.9059965161698623 -0.27579432003345206 0.15657105874097643
v -0.3207143923909673 -0.7555247084101276 0.2754697496949481
v -0.2841115740583825 -1.2078773490579697 -0.8036506322954367
v -0.8162833445262949 -1.4310813233699453 -0.05752847701987315
v -1.5639841715332439 -0.9191614582919794 -0.5287575689432107
v -0.24991610243976733 0.46142536820852903 -0.04084433768174924
v -0.026875929876898914 0.9171992918687374 0.4788032161574475
v -0.20088495830404476 -0.13126411196599852 -0.5453441726394352
v -0.26030340316362355 1.0179148935053772 0.10527188614157675
v -0.3018967864385568 1.3832552573955716 0.1992584345763206
v -0.14224466965791016 1.3831523327333446 0.30144101500423315
v -0.3980451782163092 1.5262919573931168 0.24430381106553892
v -0.8480346738093036 -0.22394454471293013 -0.6859356370420204
v -1.289436358384456 -0.6584542134820716 0.04930570957739444
v -0.28826541284389207 0.9677050604055095 0.2798794723956473
v -1.0875937948798378 -1.0722876078076398 -0.8950930575225976
v -0.5784210799208646 1.4868135510777596 0.32414429004118506
v -0.031081271477573048 -0.8994758181564453 0.043124892185189875
v -1.5326259636093063 -1.0039824068887115 -0.28969248502613
v -0.6644813362834862 -1.5771682475681057 -0.51042113309235
v -0.018720751877417507 0.062427271517513046 -0.3423575873860938
v -0.145384934862913 -0.09303562620026448 0.3026990669448157
v -0.02054241567275515 0.7766143499424125 -0.07025333721081264
v 0.0731556655610805 1.26540329490592 0.1618196085705
v -0.37751818239371726 1.4313472154601539 0.31006947817311087
v -0.007031326762327039 -0.639152352439578 -0.5705632382430395
v -1.3279205175383988 -0.42378587112767446 -0.6057450114372587
v -0.3988207279452833 -0.9783603900495396 -0.8833077012801736
v -1.3336683013633743 -1.303381182432141 -0.339530098103801
v -0.5227646170883478 1.5418236240694803 0.27390553690397157
v -0.1519817903091755 -1.365510665871866 -0.1569243988942979
v -0.3411247577494312 0.31901208295467953 -0.12724776419557868
v 0.08617665401052353 0.7897714182096348 0.4648540365288201
v -0.3201688747286834 -0.069472750700044 0.3021999728028007
v -0.18340769457458989 0.09825169285259472 -0.3943097123183823
v -0.2086964110925687 1.0259454248881235 0.4189416705014296
v 0.06748632295477272 1.0328368970330073 -0.0012005056093327
v -0.474604834039762 1.518936744884534 0.3841417968234773
v -0.2620654518979459 1.3957442061286076 0.284527879789462
v -0.062050527956707575 1.3692309912304754 0.1955267069140381
v -0.056021811076326464 1.3299507664867958 0.39305267822379214
v -0.9586855869711515 -0.6710831333901544 -0.9367557030770179
v -0.2601279041091756 -1.1885795093023326 0.10988970110975219
v -1.453237253290355 -0.5055549645946847 -0.40734951169873873
v -1.2386603306792545 -1.2586899629846382 -0.1234152613355214
v -0.008083895898474802 -1.0921252683249256 -0.5243409146431065
v -0.5751666842740498 -0.42980212239695187 0.3247894461401142
v -0.6294317441594179 0.11556113739693963 -0.26391312063853545
v 0.0009980600042878603 0.2776940657404102 -0.23833721224985494
v -0.10848056289935136 0.1435512953626317 0.31865722665290575
v -0.24865269735816442 0.5979937949414752 0.09451062907589113
v -0.1391731970008425 0.9234519262530181 0.44119603386135564
v 0.2561423061057405 1.0136281055295011 0.10835507124081907
v -0.20244412759751665 1.062628011979282 0.05084088075325321
v -0.34413945029647036 1.1847846590886826 0.3161902839586921
v -0.4181656377402749 1.4792909565111614 0.2664080870596363
v -0.24148774025737788 1.3945399882729024 0.23016096348757714
v -0.2338628137428242 1.3442372246769223 0.37948021085512573
v -0.5965324664537639 -1.2310376567603918 0.1543972872376264
v -1.2487802398372811 -1.199621201720314 -0.770810356893762
v -1.0511503152740245 -0.7416804143259951 0.2049141271815988
v -0.19121648139938338 -0.49736348828867183 -0.7024015487555098
v -0.7745480379862542 -0.08299685419757988 -0.5533065828441973
v -0.5336280893809849 -0.20845754472929892 0.2850729045500069
v -0.37103840912195013 -0.018343714126245414 -0.5181695682676257
v -0.07976516143635026 -1.276866970105867 -0.5252506365091272
v -1.3517105212108151 -0.3476974272688013 -0.3492936473235696
v -0.12909344686888494 -0.82452130403786 0.17197986976368612
v 0.025258295975196188 -0.10322945063945177 0.24768994532951785
v 0.12115365957039037 0.01442022378887492 -0.24037782041932212
v 0.07966628487324764 0.8444141445957631 -0.05571698567292751
v -0.018812474436488397 0.7237549378258146 0.44527487016595946
v -0.1804473794799147 0.41746664230742225 -0.1415871127280521
v -0.19207899925896893 0.23874733244600602 0.29550374929060313
v -0.9884730850864034 1.4369108601544263 0.4354713488045925
v 0.10367094281488036 1.2843407275170273 0.25238198525389427
v -0.140084567072329 1.1981313068931814 0.4549247925876616
v -0.2632513574265279 0.9931303693008816 0.3514136070432927
v -0.34517821394105 1.5392865146237846 0.36417365388479916
v -0.5714200313571158 1.5226275895992984 0.3975745784787094
v -0.16209114356370188 1.0159498925407309 0.024676756222088137
v -0.36604087340725666 1.453055527215242 0.25713264595649266
v -0.32731404147036136 1.3472171185436952 0.33599708012099205
v -0.1429001429580068 1.3993976870289333 0.3353182110462305
v -0.8117676576018125 -1.234439602574674 0.13414076435148886
v -1.0177578267683933 -0.19112387317463178 0.0007070529650376606
v -0.603970626930515 -0.9730496272867387 -0.9442929048887062
v -0.7733491979650087 -0.48524750438686576 0.2900036375382926
v -0.31271194883273773 -1.4812229673897357 -0.1662599441498861
v -0.22231836409372388 -1.3705711792653117 -0.6258835168322516
v -0.6820493320101108 -0.4073454070130155 -0.8362462682349809
v -1.476802737695221 -0.7360019859679737 -0.6685856347091148
v -1.4601034487302784 -1.1654443984569987 -0.3270400944072666
v -0.4863419744110133 -0.033084460741767234 0.24177778209818324
v -0.3624876398424141 0.11792333476126983 -0.3885156944272048
v 0.05655945101317428 -0.36062459822625886 -0.40692266576968744
v -0.20805305137366067 -0.4402766255051616 0.27854398626511434
v -0.3992091957752286 0.31073037338569687 -0.0036776738917693244
v -0.23773508294912143 0.6112776440191625 0.21892825264540403
v 0.009515024453930016 0.47867577559453145 0.3928715296525722
v 0.10836530729913466 0.5997704001367645 -0.10999773301638337
v -0.4933105257778895 1.4972331194307962 0.2843137977922944
v -0.055730483438343095 1.134204503245634 0.4743453892047482
v -0.0533728492267706 1.1780899339795514 0.041486476961526436
v -0.018012120440415495 1.3646669050570877 0.22983374254345476
v -0.2751151389208091 1.178548147296377 0.38859847543695397
v -0.229159459612385 0.9354422138631637 0.36859933084343927
v -0.6976434083183529 1.504754391368148 0.4208247199303316
v -0.3129756717999029 1.163166153030332 0.14503962345021287
v -0.5427781715907363 1.600035553232815 0.32113583567835097
v -0.42130540631457 1.4501970581589543 0.31964088446057193
v -0.20139872286954744 1.389485467634939 0.32349211851139514
v -0.20627424326148192 1.4124911965266467 0.18741680061016427
v -0.5314775775236663 -0.9170871483914047 0.27604867586122167
v -1.0472124286277014 -1.4730438773829664 -0.5605464015223269
v -0.10169053410627815 -1.2068870189299477 -0.04876722079973184
v -1.0348062333853838 -0.41038161623017794 0.1399093358829532
v -0.6119993988065029 -0.20394367895889998 -0.7058985888062624
v 0.07681783005303255 -0.7589168860036708 -0.41469538948358664
v -1.3737606650637482 -1.05988953884744 -0.7658589961519274
v -1.5489494701267934 -0.8242411750516833 -0.3018251138498018
v -0.47121275738702567 -1.5427481346322585 -0.21269997136595606
v -0.38091428944031497 -1.4323612424714172 -0.6713096485927353
v -1.2190735055805353 -0.29624060404360103 -0.5635619964306117
v -0.8874951265560681 -0.8248028576559522 -0.9565338521560323
v -1.094027683771837 -1.084366608811451 0.10682087754556227
v -0.16421418750489497 -0.3009066302678531 -0.613469962903272
v -0.3311242920511251 0.18560722865550605 0.22621753264795585
v -0.7448096323038795 -0.3254807309936029 0.26563969024312495
v 0.023932473668473477 -0.5670301759646578 0.09632170271937376
v 0.07522175402077194 1.2507143399891454 0.3956619662984644
v -0.1292811121767781 0.24541226127424362 -0.27813642684707096
v -0.12951005521262673 0.03536832888417705 0.30925230551932015
v -0.10427297470446559 0.5097569398714669 0.35705778790619097
v -0.11420333688264363 0.6301372081172665 -0.072320114787061
v -0.28761411639861034 0.44737779602280475 0.051054453447751835
v 0.18248639872254088 0.4180673661872462 0.35325990274594876
v 0.2601771625596767 0.5132495618693441 -0.0419826119632792
v -0.15273510877349308 1.2957419873888067 0.10995645328754174
v -0.15085642703030017 1.2694959538207045 0.43225990586812474
v -0.2467883757867712 1.0595447508107605 0.3933816015630798
v -0.17789451123739403 1.1419876741742214 0.052250123394135074
v -0.2877856463729185 1.2493470906219926 0.38230872912669633
v -0.3291084911674431 1.4015778151496097 0.23515159787549716
v -0.2807143588260308 1.4921408310497963 0.34796225284311
v -0.6355019539055907 1.585899126949611 0.3462181836390502
v -0.8863039803791803 1.474513559264521 0.3901551190206042
v -0.5598034658588011 1.483728452273698 0.350505735413888
v -0.13605604833821014 1.393857595270661 0.2766140427570333
v -0.3828999421792846 1.4454714177478138 0.2753297576919234
f 3 1 2
f 8 10 149
f 10 103 206
f 205 103 10
f 198 68 143
f 87 128 198
f 4 222 1
f 226 82 141
f 81 2 1
f 3 2 81
f 226 138 189
f 124 214 14
f 16 214 124
f 16 18 214
f 160 90 186
f 159 66 21
f 22 66 159
f 106 154 184
f 79 25 184
f 183 26 157
f 49 178 148
f 147 177 64
f 64 27 181
f 64 211 27
f 177 211 64
f 25 23 184
f 156 218 25
f 26 54 52
f 183 217 26
f 106 120 154
f 3 81 225
f 6 75 145
f 98 67 92
f 11 99 208
f 11 208 170
f 52 219 27
f 144 171 84
f 213 78 56
f 136 221 19
f 159 21 136
f 18 22 214
f 182 98 92
f 30 29 232
f 232 28 30
f 140 122 31
f 167 29 228
f 29 30 32
f 30 196 32
f 33 32 196
f 140 31 165
f 31 122 233
f 228 83 195
f 34 162 32
f 162 34 35
f 34 32 193
f 139 194 36
f 35 121 162
f 185 36 231
f 163 231 121
f 121 35 163
f 229 193 39
f 39 38 229
f 231 163 40
f 191 40 163
f 38 39 230
f 40 191 42
f 94 124 14
f 188 123 232
f 21 66 136
f 18 66 22
f 152 56 66
f 152 48 56
f 28 4 1
f 28 13 4
f 232 123 28
f 193 100 40
f 40 39 193
f 41 43 38
f 39 40 230
f 42 230 40
f 43 42 191
f 158 45 43
f 45 158 46
f 158 44 46
f 230 42 44
f 42 43 45
f 45 44 42
f 44 45 46
f 150 97 169
f 201 49 148
f 126 197 85
f 126 85 151
f 47 96 131
f 84 64 212
f 145 75 210
f 78 179 56
f 209 87 128
f 97 57 150
f 182 54 52
f 182 52 219
f 205 103 53
f 205 53 63
f 98 182 54
f 190 217 135
f 12 125 55
f 204 127 57
f 153 179 56
f 153 56 66
f 51 97 57
f 51 57 204
f 18 66 220
f 155 183 217
f 111 6 59
f 129 62 8
f 17 187 120
f 164 120 106
f 227 67 61
f 227 122 140
f 145 179 109
f 59 109 7
f 9 168 142
f 9 197 130
f 131 181 64
f 131 64 169
f 11 99 65
f 103 198 53
f 221 153 66
f 221 66 136
f 192 92 67
f 3 67 93
f 51 176 112
f 51 128 209
f 180 105 69
f 85 130 197
f 55 125 70
f 207 96 47
f 11 86 71
f 11 71 65
f 218 156 72
f 218 72 92
f 81 225 187
f 13 107 188
f 166 138 74
f 166 74 141
f 174 6 75
f 201 75 148
f 220 66 152
f 183 133 157
f 9 168 209
f 9 144 171
f 101 213 78
f 62 202 129
f 132 184 79
f 178 215 49
f 143 68 203
f 12 175 110
f 222 1 81
f 222 81 187
f 223 141 82
f 15 160 186
f 122 195 83
f 194 162 121
f 200 144 84
f 169 84 64
f 48 69 85
f 48 85 151
f 206 71 86
f 7 111 59
f 53 63 87
f 53 87 198
f 175 127 88
f 203 88 68
f 156 72 89
f 215 115 49
f 18 186 90
f 155 135 217
f 50 104 91
f 210 91 75
f 137 192 92
f 164 92 218
f 1 3 93
f 1 93 28
f 5 124 94
f 195 167 228
f 33 32 95
f 233 139 194
f 70 55 96
f 201 146 49
f 77 51 97
f 144 97 200
f 160 135 119
f 189 224 138
f 12 208 99
f 12 143 203
f 113 185 100
f 113 100 193
f 62 199 101
f 62 101 78
f 88 127 204
f 88 176 68
f 71 206 103
f 71 103 198
f 153 50 104
f 132 118 215
f 152 180 105
f 133 117 157
f 23 184 106
f 218 106 164
f 73 13 107
f 73 107 60
f 122 233 108
f 122 108 83
f 78 179 109
f 78 202 62
f 55 12 110
f 55 207 96
f 86 11 111
f 86 111 7
f 68 176 112
f 68 112 198
f 32 95 113
f 32 113 193
f 8 10 114
f 199 126 101
f 89 156 115
f 219 181 27
f 18 90 116
f 18 116 220
f 105 69 117
f 216 117 133
f 104 91 118
f 104 118 24
f 190 135 119
f 161 224 138
f 60 73 120
f 60 120 19
f 36 194 121
f 36 121 231
f 61 227 122
f 61 122 5
f 13 188 123
f 13 123 28
f 15 16 124
f 15 124 5
f 6 70 125
f 6 208 170
f 114 199 126
f 172 126 63
f 110 175 127
f 207 150 47
f 112 51 128
f 112 128 198
f 7 202 129
f 7 173 86
f 69 85 130
f 147 212 64
f 49 115 131
f 49 131 146
f 24 20 132
f 24 132 118
f 76 58 133
f 76 133 216
f 72 92 134
f 72 134 89
f 90 160 135
f 90 135 155
f 60 107 136
f 60 136 19
f 225 3 137
f 17 164 120
f 67 166 138
f 67 138 161
f 95 165 139
f 185 139 36
f 28 93 140
f 196 140 33
f 5 166 141
f 5 141 15
f 63 87 142
f 63 142 126
f 99 12 143
f 99 143 65
f 77 97 144
f 77 144 9
f 59 109 145
f 59 145 6
f 96 201 146
f 96 146 131
f 69 117 147
f 69 147 130
f 91 118 148
f 91 148 75
f 129 7 149
f 129 149 8
f 127 110 150
f 127 150 57
f 101 126 151
f 101 151 213
f 76 105 152
f 76 152 220
f 24 104 153
f 24 153 221
f 19 20 154
f 19 154 120
f 116 58 155
f 116 155 90
f 79 25 156
f 215 156 115
f 52 26 157
f 52 211 27
f 41 43 158
f 230 158 44
f 107 188 159
f 107 159 136
f 82 223 160
f 189 160 224
f 98 67 161
f 98 190 54
f 83 228 162
f 83 162 194
f 37 35 163
f 37 163 38
f 137 17 164
f 137 164 92
f 33 140 165
f 33 165 95
f 61 67 166
f 61 166 5
f 94 29 167
f 94 167 195
f 87 142 168
f 87 168 209
f 47 150 169
f 47 169 131
f 111 6 170
f 111 170 11
f 130 9 171
f 130 212 147
f 114 10 172
f 114 172 126
f 149 7 173
f 149 173 10
f 70 6 174
f 70 174 96
f 80 12 175
f 80 175 88
f 102 88 176
f 102 176 51
f 117 147 177
f 117 177 211
f 118 148 178
f 118 178 215
f 50 153 179
f 210 179 145
f 48 152 180
f 48 180 69
f 115 131 181
f 115 181 89
f 134 92 182
f 134 182 219
f 58 155 183
f 58 183 133
f 20 154 184
f 20 184 132
f 95 139 185
f 95 185 113
f 16 15 186
f 16 186 18
f 73 13 187
f 73 187 120
f 14 159 188
f 14 188 232
f 82 226 189
f 82 189 160
f 161 119 190
f 161 190 98
f 38 163 191
f 38 191 43
f 3 137 192
f 3 192 67
f 35 34 193
f 35 193 37
f 108 233 194
f 108 194 83
f 5 122 195
f 5 195 94
f 28 30 196
f 28 196 140
f 142 9 197
f 142 197 126
f 65 71 198
f 65 198 143
f 8 114 199
f 8 199 62
f 169 97 200
f 169 200 84
f 174 96 201
f 174 201 75
f 109 78 202
f 109 202 7
f 80 12 203
f 80 203 88
f 102 88 204
f 102 204 51
f 172 10 205
f 172 205 63
f 173 86 206
f 173 206 10
f 110 55 207
f 110 207 150
f 125 6 208
f 125 208 12
f 77 9 209
f 77 209 51
f 50 91 210
f 50 210 179
f 157 117 211
f 157 211 52
f 171 130 212
f 171 212 84
f 48 151 213
f 48 213 56
f 159 14 214
f 159 214 22
f 79 132 215
f 79 215 156
f 105 117 216
f 105 216 76
f 54 26 217
f 54 217 190
f 23 25 218
f 23 218 106
f 89 134 219
f 89 219 181
f 58 76 220
f 58 220 116
f 20 24 221
f 20 221 19
f 13 4 222
f 13 222 187
f 15 141 223
f 15 223 160
f 119 161 224
f 119 224 160
f 17 187 225
f 17 225 137
f 74 138 226
f 74 226 141
f 93 67 227
f 93 227 140
f 32 29 228
f 32 228 162
f 37 193 229
f 37 229 38
f 41 38 230
f 41 230 158
f 100 185 231
f 100 231 40
f 94 29 232
f 94 232 14
f 165 31 233
f 165 233 139
