v -0.23876920554499864 1.3103797270601687 0.13001260700009193
v -0.27582915374543276 1.2582563331865875 0.12364597630502337
v -0.3128662756980407 1.222713216834852 0.14623565543301947
v -0.21034318989786122 1.3531672444828033 0.1537169917653439
v -0.21145627080982005 1.3818523867813413 0.35175494063536605
v -0.596105380500693 -0.6768462432797441 -0.9120215121805894
v -0.10001338605742703 -0.9910441617396678 -0.7028175040329147
v -0.020060506382965703 -1.2334385749192633 -0.301325040448603
v -0.848568870055825 -0.9383248633714683 0.23982837834317694
v -0.19808583052036852 -1.4522159317791117 -0.3886956275749503
v -0.6584407430024051 -1.2331761333320834 -0.8746205623410716
v -1.2445793305522892 -0.817542042890274 -0.8973407152418248
v -0.09560436290090499 1.339214093370152 0.1477579579447047
v -0.0001521773942288455 1.3554620235219368 0.3227203242573578
v -0.10349110756088271 1.3137976974225336 0.4178816230110331
v 0.01795293748424096 1.1977292385399962 0.4495759996401428
v -0.1320833582585817 1.118879626710536 0.03027101424435127
v 0.18936841832020435 0.9319869673270735 0.44817741477373196
v 0.17861510065239114 0.9029942588889944 -0.005193118717157615
v 0.20885071989207965 0.5755957905566027 -0.07667087792795438
v 0.2937291293341934 0.962459454773473 0.17552656684668122
v 0.25272039926472245 0.9123418286838364 0.3839045766826548
v -0.012905137512460198 0.6217365064396034 -0.10774026933953917
v 0.09809358624263935 0.17576055344835947 -0.22660111284413842
v -0.06719701000163651 0.5066450508624447 -0.1397429150410627
v -0.15628752178315608 0.3974920744082751 0.31353339526127444
v -0.39029961638808786 0.25895363915674446 0.12264318016053902
v -0.19518443866089988 1.3928509577654855 0.20378772481501994
v -0.13158193764344558 1.4250679750579258 0.2807314628260412
v -0.11595643515633988 1.4245682404098425 0.22163997660384924
v -0.2872685557740087 1.406883382542881 0.2444293361608223
v -0.2857648326576529 1.5187468359348737 0.3082338172397895
v -0.3334604957630521 1.4880341091190048 0.23308840213734724
v -0.359718447897886 1.5667423492396997 0.3249332982344497
v -0.525253166509216 1.5797756350730938 0.3618339573500447
v -0.46547571828721857 1.4702527709605107 0.3292892793473014
v -0.6190130970388793 1.5696558595459142 0.38003232814495125
v -0.7207897200255293 1.5567789987446936 0.40116346301661054
v -0.7270750137803762 1.525483825821082 0.33867446181335653
v -0.71560668386606 1.4727027815509461 0.3595899705139178
v -0.9070526524958897 1.4960808856355494 0.4172580276830761
v -0.8554404727488869 1.4489886081267185 0.39960983011290785
v -0.875124048994981 1.4891447909953186 0.4545401079578815
v -1.0261663143967716 1.3653907886614334 0.43778258638601936
v -0.9801045292318034 1.4108781558731749 0.4839256718868889
v -1.0646015617123321 1.3754696203441494 0.4676547749135673
v -1.0896315173661946 -0.13537742027486113 -0.24763788309746104
v -0.06640266552744623 -0.5010310085837314 0.19723160290838118
v -0.5369907859125455 0.05987335312325521 -0.420070558870981
v -0.0515896178109137 -0.2563933968214236 -0.49800580550559054
v -1.407890071989428 -1.018040171212245 -0.06605615148067334
v -0.254500590852495 0.32669003381612766 0.23531552878884276
v -0.7894059105187994 -1.5638233094298595 -0.3088200440614581
v -0.18634370550533172 0.5413926271476547 0.2949493622643064
v -1.1255438855619244 -0.45287889159761474 -0.7915489789158711
v 0.2267034323045877 -0.07934967297543495 0.025563590160825683
v -1.4148957872068073 -0.5304237767693063 -0.16308494761654216
v 0.11695626676834339 0.46301165363215435 0.39082411170929
v -0.25834762010828993 -0.6951673252373165 -0.7923673206368221
v 0.17872313693801953 1.025246834722123 0.04349401870518004
v -0.32933702685159627 1.3872894114706185 0.30297184764306634
v 0.07611239708492351 -0.9156476836861951 -0.20536770047473774
v -0.4468655428183257 -1.4081208865117936 0.030309816870830286
v -0.6901485280221654 0.042138462724677694 0.04298647182897286
v -0.9619048200796854 -1.343162090335404 -0.7880316555337348
v 0.3397881281649465 0.4568368997780585 0.1767550046536417
v -0.3393653203892503 1.1606446817887044 0.25033862660881895
v -1.3871797127872325 -1.2453352818416719 -0.572553807563756
v -0.3764229875624985 -0.3372841738879878 0.3196175137825808
v -0.847389582770811 -0.478492980249323 -0.871016832402294
v -0.709409821847784 -1.4659429722203778 -0.7154020228441985
v -0.19469603733957327 0.6638012353563264 0.0019509816624666415
v 0.019526285792144146 1.2268383174511577 0.08762970595474523
v -0.30726711945847285 1.2956437760677335 0.3643485926629952
f 3 1 2
f 8 10 7
f 10 71 7
f 8 71 10
f 65 68 12
f 53 68 65
f 4 13 1
f 74 15 5
f 13 2 1
f 3 2 13
f 74 67 15
f 15 73 14
f 16 73 15
f 16 18 73
f 15 18 16
f 73 66 21
f 22 66 73
f 23 19 20
f 24 25 20
f 58 26 52
f 49 24 50
f 69 58 64
f 64 27 24
f 64 52 27
f 58 52 64
f 25 23 20
f 24 23 25
f 26 54 52
f 58 54 26
f 23 60 19
f 3 13 17
f 6 70 59
f 15 67 17
f 11 12 6
f 11 6 7
f 52 24 27
f 9 69 47
f 48 62 56
f 60 20 19
f 73 21 60
f 18 22 73
f 72 15 17
f 30 29 5
f 5 28 30
f 28 61 31
f 5 29 32
f 29 30 32
f 30 28 32
f 33 32 28
f 28 31 33
f 31 61 33
f 32 61 5
f 34 61 32
f 61 34 35
f 34 32 35
f 33 61 36
f 35 36 61
f 33 36 32
f 37 32 36
f 36 35 37
f 37 35 39
f 39 38 37
f 32 37 40
f 38 40 37
f 38 39 41
f 40 38 42
f 5 15 14
f 14 13 5
f 21 66 60
f 18 66 22
f 58 56 66
f 58 48 56
f 28 4 1
f 28 13 4
f 5 13 28
f 35 32 40
f 40 39 35
f 41 43 38
f 39 40 41
f 42 41 40
f 43 42 38
f 41 45 43
f 45 41 46
f 41 44 46
f 41 42 44
f 42 43 45
f 45 44 42
f 44 45 46
f 55 9 47
f 70 49 50
f 8 63 48
f 8 48 62
f 47 70 49
f 47 64 69
f 59 70 50
f 62 50 56
f 9 53 68
f 9 57 55
f 72 54 52
f 72 52 24
f 8 71 53
f 8 53 63
f 15 72 54
f 15 54 18
f 12 6 55
f 12 55 57
f 24 50 56
f 24 56 66
f 51 9 57
f 51 57 12
f 18 66 58
f 18 58 54
f 7 6 59
f 7 62 8
f 17 73 60
f 17 60 23
f 1 67 61
f 1 61 28
f 59 50 62
f 59 62 7
f 9 53 63
f 9 63 69
f 49 24 64
f 49 64 47
f 11 12 65
f 71 65 53
f 20 24 66
f 20 66 60
f 3 17 67
f 3 67 1
f 51 12 68
f 51 68 9
f 48 58 69
f 48 69 63
f 55 6 70
f 55 70 47
f 11 7 71
f 11 71 65
f 23 24 72
f 23 72 17
f 13 17 73
f 13 73 14
f 61 67 74
f 61 74 5
