v -0.23876920554499864 1.3103797270601687 0.13001260700009193
v -0.27582915374543276 1.2582563331865875 0.12364597630502337
v -0.3128662756980407 1.222713216834852 0.14623565543301947
v -0.21034318989786122 1.3531672444828033 0.1537169917653439
v -0.21145627080982005 1.3818523867813413 0.35175494063536605
v -0.596105380500693 -0.6768462432797441 -0.9120215121805894
v -0.10001338605742703 -0.9910441617396678 -0.7028175040329147
v -0.020060506382965703 -1.2334385749192633 -0.301325040448603
v -0.848568870055825 -0.9383248633714683 0.23982837834317694
v -0.19808583052036852 -1.4522159317791117 -0.3886956275749503
v -0.6584407430024051 -1.2331761333320834 -0.8746205623410716
v -1.2445793305522892 -0.817542042890274 -0.8973407152418248
v -0.09560436290090499 1.339214093370152 0.1477579579447047
v -0.0001521773942288455 1.3554620235219368 0.3227203242573578
v -0.10349110756088271 1.3137976974225336 0.4178816230110331
v 0.01795293748424096 1.1977292385399962 0.4495759996401428
v -0.1320833582585817 1.118879626710536 0.03027101424435127
v 0.18936841832020435 0.9319869673270735 0.44817741477373196
v 0.17861510065239114 0.9029942588889944 -0.005193118717157615
v 0.20885071989207965 0.5755957905566027 -0.07667087792795438
v 0.2937291293341934 0.962459454773473 0.17552656684668122
v 0.25272039926472245 0.9123418286838364 0.3839045766826548
v -0.012905137512460198 0.6217365064396034 -0.10774026933953917
v 0.09809358624263935 0.17576055344835947 -0.22660111284413842
v -0.06719701000163651 0.5066450508624447 -0.1397429150410627
v -0.15628752178315608 0.3974920744082751 0.31353339526127444
v -0.39029961638808786 0.25895363915674446 0.12264318016053902
v -0.19518443866089988 1.3928509577654855 0.20378772481501994
v -0.13158193764344558 1.4250679750579258 0.2807314628260412
v -0.11595643515633988 1.4245682404098425 0.22163997660384924
v -0.2872685557740087 1.406883382542881 0.2444293361608223
v -0.2857648326576529 1.5187468359348737 0.3082338172397895
v -0.3334604957630521 1.4880341091190048 0.23308840213734724
v -0.359718447897886 1.5667423492396997 0.3249332982344497
v -0.525253166509216 1.5797756350730938 0.3618339573500447
v -0.46547571828721857 1.4702527709605107 0.3292892793473014
v -0.6190130970388793 1.5696558595459142 0.38003232814495125
v -0.7207897200255293 1.5567789987446936 0.40116346301661054
v -0.7270750137803762 1.525483825821082 0.33867446181335653
v -0.71560668386606 1.4727027815509461 0.3595899705139178
v -0.9070526524958897 1.4960808856355494 0.4172580276830761
v -0.8554404727488869 1.4489886081267185 0.39960983011290785
v -0.875124048994981 1.4891447909953186 0.4545401079578815
v -1.0261663143967716 1.3653907886614334 0.43778258638601936
v -0.9801045292318034 1.4108781558731749 0.4839256718868889
v -1.0646015617123321 1.3754696203441494 0.4676547749135673
v -1.0896315173661946 -0.13537742027486113 -0.24763788309746104
v -0.06640266552744623 -0.5010310085837314 0.19723160290838118
v -0.5369907859125455 0.05987335312325521 -0.420070558870981
v -0.0515896178109137 -0.2563933968214236 -0.49800580550559054
v -1.407890071989428 -1.018040171212245 -0.06605615148067334
v -0.254500590852495 0.32669003381612766 0.23531552878884276
v -0.7894059105187994 -1.5638233094298595 -0.3088200440614581
v -0.18634370550533172 0.5413926271476547 0.2949493622643064
v -1.1255438855619244 -0.45287889159761474 -0.7915489789158711
v 0.2267034323045877 -0.07934967297543495 0.025563590160825683
v -1.4148957872068073 -0.5304237767693063 -0.16308494761654216
v 0.11695626676834339 0.46301165363215435 0.39082411170929
v -0.25834762010828993 -0.6951673252373165 -0.7923673206368221
v 0.17872313693801953 1.025246834722123 0.04349401870518004
v -0.32933702685159627 1.3872894114706185 0.30297184764306634
v 0.07611239708492351 -0.9156476836861951 -0.20536770047473774
v -0.4468655428183257 -1.4081208865117936 0.030309816870830286
v -0.6901485280221654 0.042138462724677694 0.04298647182897286
v -0.9619048200796854 -1.343162090335404 -0.7880316555337348
v 0.3397881281649465 0.4568368997780585 0.1767550046536417
v -0.3393653203892503 1.1606446817887044 0.25033862660881895
v -1.3871797127872325 -1.2453352818416719 -0.572553807563756
v -0.3764229875624985 -0.3372841738879878 0.3196175137825808
v -0.847389582770811 -0.478492980249323 -0.871016832402294
v -0.709409821847784 -1.4659429722203778 -0.7154020228441985
v -0.19469603733957327 0.6638012353563264 0.0019509816624666415
v 0.019526285792144146 1.2268383174511577 0.08762970595474523
v -0.30726711945847285 1.2956437760677335 0.3643485926629952
v -0.3804429066794447 -0.3517580490090136 -0.7461890303461363
v -0.005211606777756714 0.04917999260227923 0.2990491470058861
v -1.1652203387672957 -0.9337169196632413 0.13341840782632847
v 0.12212578753997297 -0.6050598321387264 -0.12437295900412776
v -0.0932417226328324 0.3598705333665368 -0.2074025730478351
v -1.4417357951365137 -0.892844113645334 -0.7517043712681761
v -0.21917009134413754 1.249857125588988 0.0995416059368744
v -0.21433174824491863 1.2202115319934645 0.42359844208844455
v -0.32631523474701046 1.4631317857783432 0.35061576401157374
v -0.9059965161698623 -0.27579432003345206 0.15657105874097643
v -0.3207143923909673 -0.7555247084101276 0.2754697496949481
v -0.2841115740583825 -1.2078773490579697 -0.8036506322954367
v -0.8162833445262949 -1.4310813233699453 -0.05752847701987315
v -1.5639841715332439 -0.9191614582919794 -0.5287575689432107
v -0.24991610243976733 0.46142536820852903 -0.04084433768174924
v -0.026875929876898914 0.9171992918687374 0.4788032161574475
v -0.20088495830404476 -0.13126411196599852 -0.5453441726394352
v -0.26030340316362355 1.0179148935053772 0.10527188614157675
v -0.3018967864385568 1.3832552573955716 0.1992584345763206
v -0.14224466965791016 1.3831523327333446 0.30144101500423315
v -0.3980451782163092 1.5262919573931168 0.24430381106553892
v -0.8480346738093036 -0.22394454471293013 -0.6859356370420204
v -1.289436358384456 -0.6584542134820716 0.04930570957739444
v -0.28826541284389207 0.9677050604055095 0.2798794723956473
v -1.0875937948798378 -1.0722876078076398 -0.8950930575225976
v -0.5784210799208646 1.4868135510777596 0.32414429004118506
v -0.031081271477573048 -0.8994758181564453 0.043124892185189875
v -1.5326259636093063 -1.0039824068887115 -0.28969248502613
v -0.6644813362834862 -1.5771682475681057 -0.51042113309235
v -0.018720751877417507 0.062427271517513046 -0.3423575873860938
v -0.145384934862913 -0.09303562620026448 0.3026990669448157
v -0.02054241567275515 0.7766143499424125 -0.07025333721081264
v 0.0731556655610805 1.26540329490592 0.1618196085705
v -0.37751818239371726 1.4313472154601539 0.31006947817311087
v -0.007031326762327039 -0.639152352439578 -0.5705632382430395
v -1.3279205175383988 -0.42378587112767446 -0.6057450114372587
v -0.3988207279452833 -0.9783603900495396 -0.8833077012801736
v -1.3336683013633743 -1.303381182432141 -0.339530098103801
v -0.5227646170883478 1.5418236240694803 0.27390553690397157
v -0.1519817903091755 -1.365510665871866 -0.1569243988942979
v -0.3411247577494312 0.31901208295467953 -0.12724776419557868
v 0.08617665401052353 0.7897714182096348 0.4648540365288201
v -0.3201688747286834 -0.069472750700044 0.3021999728028007
v -0.18340769457458989 0.09825169285259472 -0.3943097123183823
v -0.2086964110925687 1.0259454248881235 0.4189416705014296
v 0.06748632295477272 1.0328368970330073 -0.0012005056093327
v -0.474604834039762 1.518936744884534 0.3841417968234773
v -0.2620654518979459 1.3957442061286076 0.284527879789462
v -0.062050527956707575 1.3692309912304754 0.1955267069140381
v -0.056021811076326464 1.3299507664867958 0.39305267822379214
f 3 1 2
f 8 10 7
f 10 103 7
f 114 103 10
f 65 68 99
f 87 112 65
f 4 13 1
f 74 82 5
f 81 2 1
f 3 2 81
f 74 67 82
f 124 107 14
f 16 107 124
f 16 18 107
f 82 90 16
f 107 66 21
f 22 66 107
f 106 19 20
f 79 25 20
f 58 26 52
f 49 118 91
f 69 117 64
f 64 27 115
f 64 52 27
f 117 52 64
f 25 23 20
f 79 23 25
f 26 54 52
f 58 54 26
f 106 120 19
f 3 81 17
f 6 75 59
f 98 67 92
f 11 99 6
f 11 6 111
f 52 89 27
f 77 69 84
f 48 78 56
f 60 20 19
f 107 21 60
f 18 22 107
f 72 98 92
f 30 29 94
f 94 28 30
f 28 122 31
f 94 29 32
f 29 30 32
f 30 28 32
f 33 32 28
f 28 31 33
f 31 122 33
f 32 83 5
f 34 83 32
f 83 34 35
f 34 32 35
f 95 108 36
f 35 121 83
f 95 36 100
f 37 100 121
f 121 35 37
f 37 35 39
f 39 38 37
f 100 37 40
f 38 40 37
f 38 39 41
f 40 38 42
f 94 124 14
f 14 123 94
f 21 66 60
f 18 66 22
f 76 56 66
f 76 48 56
f 28 4 1
f 28 13 4
f 94 123 28
f 35 100 40
f 40 39 35
f 41 43 38
f 39 40 41
f 42 41 40
f 43 42 38
f 41 45 43
f 45 41 46
f 41 44 46
f 41 42 44
f 42 43 45
f 45 44 42
f 44 45 46
f 110 97 47
f 70 49 91
f 114 63 85
f 114 85 101
f 47 96 49
f 84 64 69
f 59 75 50
f 78 50 56
f 77 87 112
f 97 57 110
f 72 54 52
f 72 52 89
f 114 103 53
f 114 53 63
f 98 72 54
f 98 54 90
f 12 6 55
f 102 110 57
f 24 50 56
f 24 56 66
f 51 97 57
f 51 57 102
f 18 66 58
f 116 58 54
f 111 6 59
f 7 62 8
f 17 73 120
f 17 120 106
f 93 67 61
f 93 122 28
f 59 50 109
f 59 109 7
f 9 87 63
f 9 63 69
f 49 115 64
f 49 64 47
f 11 99 65
f 103 65 53
f 20 24 66
f 20 66 60
f 3 92 67
f 3 67 93
f 51 102 112
f 51 112 77
f 48 105 69
f 85 69 63
f 55 6 70
f 110 96 47
f 11 86 71
f 11 71 65
f 23 79 72
f 23 72 92
f 81 17 73
f 13 107 14
f 61 67 74
f 61 74 5
f 70 6 75
f 70 75 91
f 58 66 76
f 58 76 52
f 9 87 77
f 9 77 69
f 101 48 78
f 62 109 7
f 24 20 79
f 118 79 49
f 99 68 80
f 12 80 110
f 13 1 81
f 13 81 73
f 15 5 82
f 15 82 16
f 122 5 83
f 108 83 121
f 47 77 84
f 47 84 64
f 48 69 85
f 48 85 101
f 7 71 86
f 7 111 59
f 53 63 87
f 53 87 65
f 80 110 88
f 80 88 68
f 79 72 89
f 79 115 49
f 18 16 90
f 116 90 54
f 50 104 91
f 50 91 75
f 17 3 92
f 17 92 23
f 1 3 93
f 1 93 28
f 5 124 94
f 5 94 32
f 33 32 95
f 33 95 108
f 70 55 96
f 70 96 49
f 77 51 97
f 77 97 47
f 82 90 119
f 82 119 67
f 12 6 99
f 12 99 80
f 113 95 100
f 113 100 35
f 62 8 101
f 62 101 78
f 88 110 102
f 88 102 68
f 71 7 103
f 71 103 65
f 24 50 104
f 24 118 79
f 76 48 105
f 76 117 52
f 23 20 106
f 23 106 17
f 73 13 107
f 73 107 60
f 122 33 108
f 122 108 83
f 78 50 109
f 78 109 62
f 55 12 110
f 55 110 96
f 86 11 111
f 86 111 7
f 68 102 112
f 68 112 65
f 32 95 113
f 32 113 35
f 8 10 114
f 8 114 101
f 89 79 115
f 89 115 27
f 18 90 116
f 18 116 58
f 105 69 117
f 105 117 76
f 104 91 118
f 104 118 24
f 98 90 119
f 98 119 67
f 60 73 120
f 60 120 19
f 36 108 121
f 36 121 100
f 61 93 122
f 61 122 5
f 13 14 123
f 13 123 28
f 15 16 124
f 15 124 5
