v -0.00341018 0.13031957 0.02175437
v -0.08171916 0.15250145 0.02965609
v -0.03054348 0.12477885 0.00109834
v -0.02490159 0.11211138 0.03756024
v -0.01840568 0.17843055 -0.02421958
v 0.01906794 0.12144925 0.03196844
v -0.01346903 0.16299355 -0.01200002
v -0.03439324 0.17236688 -0.00098213
v -0.08431416 0.10957263 0.00370973
v -0.04223354 0.17211574 -0.00417998
v -0.06330839 0.15660615 -0.01383879
v -0.07690395 0.16708033 -0.02693136
v -0.07225392 0.1153955 0.0516703
v 0.00486894 0.03796237 0.04586763
v -0.05718055 0.04091883 0.04630134
v -0.04520907 0.0388391 0.04450377
v -0.05024227 0.15773747 0.00939445
v -0.02121695 0.15887938 -0.00469237
v -0.02974875 0.03653986 0.05249331
v -0.00354389 0.04265977 0.04754153
v -0.03908818 0.1687202 -0.01192468
v 0.04976006 0.07023522 0.02373202
v -0.0264679 0.1810425 -0.00808117
v -0.01753347 0.04796425 0.04882963
v -0.0759832 0.138208 0.04921658
v 0.03483844 0.04315341 0.02895431
v -0.02274927 0.04988388 0.04660552
v -0.08806457 0.12496764 0.00057412
v -0.03430319 0.05052015 0.03828602
v -0.07266589 0.13005582 0.0516682
v -0.07648133 0.14827412 -0.00893762
v -0.0406522 0.12266506 0.0262903
v 0.03795509 0.1048871 -0.00320318
v -0.0591297 0.15039712 0.03448954
v -0.0452255 0.12935459 0.02037752
v -0.03061484 0.05441265 0.03669429
v -0.0247876 0.05260622 0.04083976
v -0.08090051 0.12558713 0.05215537
v -0.02999621 0.17811137 -0.00523582
v -0.07908773 0.17044488 -0.04137317
v -0.00149855 0.05592548 0.0546308
v 0.00519817 0.05701799 0.05342353
v -0.09107873 0.11506037 0.04014181
v -0.01239524 0.12264726 0.03358828
v -0.02800136 0.06107542 0.03747121
v -0.02537355 0.15840012 -0.00148013
v -0.06781859 0.15454353 0.03023372
v -0.00319589 0.11912518 0.03834958
v -0.00215139 0.09943738 0.04984975
v -0.05600139 0.06183067 0.02793115
v -0.07864073 0.16387238 -0.02838779
v -0.0703258 0.06336777 0.01980918
v -0.03225787 0.0881926 -0.02513096
v -0.06189763 0.12297065 -0.00877255
v -0.00639347 0.10524472 -0.0228419
v -0.0893851 0.09902404 0.01752183
v 0.05453721 0.06879672 0.02451769
v -0.04731121 0.16296037 0.00607403
v 0.04107326 0.08872432 -0.00978794
v -0.00324792 0.07571069 0.05871464
v 0.01341438 0.09307374 0.05146775
v -0.07350444 0.09388334 -0.01475172
v -0.01779548 0.07748619 0.05608724
v 0.01579974 0.12901416 0.01323687
v 0.00239297 0.13162713 0.0119551
v -0.06243324 0.08403527 0.04420312
v -0.08672301 0.09991725 0.00355371
v -0.0021452 0.11143287 0.04243662
v -0.04900084 0.08622168 0.04535204
v -0.04902007 0.11771293 0.03158143
v -0.00124391 0.0890932 0.05655212
v -0.04541156 0.09100213 0.04325277
v -0.04451455 0.09486042 0.04297249
v -0.00898303 0.16926449 -0.02268348
v -0.06723198 0.09917395 0.04159388
v -0.00780469 0.10516619 0.04382546
v -0.05107908 0.09389281 -0.02176169
v 0.01668846 0.0369766 0.0430006
v -0.05227733 0.11775075 0.03376946
v -0.00737751 0.03898843 0.04892945
v 0.01948735 0.04080929 0.04264106
v -0.05098041 0.13486613 0.027585
v 0.02031915 0.10041961 0.04576052
v 0.02262521 0.04362168 0.04090458
v -0.04276416 0.15727487 0.00520162
v -0.0821915 0.0756102 0.01654262
v 0.05266309 0.04767362 0.02120127
v 0.01674344 0.048439 0.04367863
v 0.02882705 0.09213337 0.04392009
v -0.01625752 0.1603125 -0.0096926
v -0.0639263 0.16792441 -0.04073042
v 0.05595734 0.05314741 0.02319772
v -0.03993796 0.1492285 0.00160172
v 0.01920463 0.05516651 0.04772215
v 0.05182373 0.0532767 0.02792701
v -0.05829864 0.138855 0.03293746
v 0.02012695 0.06385133 0.04791966
v 0.0289824 0.07408848 0.04344724
v 0.0226875 0.07514918 0.0493125
v 0.03129876 0.07590744 0.04269906
v -0.04556989 0.14663612 0.00565142
v 0.03088504 0.07899948 0.04338877
v -0.02917729 0.17619959 -0.00562411
v -0.06375713 0.15912175 -0.05015573
v -0.01852762 0.17653197 -0.01704354
v 0.03614382 0.0844392 0.03793693
v 0.02842334 0.08801108 0.0442342
v 0.01859657 0.03529394 -0.00867822
v 0.0172098 0.0352594 -0.01468516
v 0.03833591 0.03883083 0.00309381
v 0.02219292 0.03677532 -0.00209193
v 0.01963602 0.03823401 -0.01250767
v -0.06254169 0.17679461 -0.05782182
v -0.01109194 0.17992082 -0.02599643
v -0.06237257 0.15313041 -0.02899712
v 0.02920777 0.04745025 -0.00850818
v -0.0157822 0.10072957 -0.02372413
v -0.06251417 0.17213119 -0.0527881
v -0.08276186 0.11162341 0.04422146
v -0.05149269 0.13796388 0.02366218
v -0.06268195 0.16744086 -0.04571389
v -0.03892114 0.03376739 -0.02904256
v -0.06879619 0.03511772 -0.00520674
v -0.07703956 0.07196702 0.02640507
v 0.03570669 0.05608304 -0.00899933
v -0.00922961 0.17314463 -0.02419766
v -0.07144833 0.18105301 -0.05547855
v -0.06140699 0.17268822 -0.05826575
v -0.07485275 0.14993112 -0.02775294
v -0.03612504 0.12286688 -0.00829279
v -0.07423019 0.15652681 -0.02516709
v 0.02632181 0.07024065 -0.02387868
v 0.04334214 0.07167612 -0.00223046
v 0.01309699 0.09112648 -0.02926977
v 0.04551119 0.08695305 0.00388655
v -0.07291636 0.0650574 0.01879462
v -0.09094969 0.13895375 0.01737113
v -0.08514891 0.1396552 0.00248085
v 0.04463114 0.08417838 0.00082665
v -0.0741587 0.17987275 -0.05079475
v -0.04346534 0.12451145 0.02251889
v -0.03135885 0.12140977 0.02597109
v -0.07256706 0.1475323 0.04171409
v -0.06850422 0.16732018 -0.02395957
v -0.06481132 0.03453064 0.01550844
v -0.06430026 0.03508645 0.02427205
v -0.06672702 0.03589577 0.03384943
v -0.07253973 0.03539927 0.00702988
v -0.06639203 0.03771235 0.02962195
v -0.07201603 0.0375727 0.00397894
v -0.03514596 0.03858592 0.04773269
v -0.06441576 0.04128384 0.02824348
v -0.06999732 0.04207308 0.00668978
v -0.03445385 0.04456396 0.04542299
v -0.01511958 0.09993002 0.04450027
v -0.07884915 0.11867375 0.05062287
v -0.05016872 0.05346226 0.01625544
v -0.05290982 0.05704307 0.02098841
v -0.05826563 0.09092639 -0.02094869
v -0.06048358 0.15567975 0.00433438
v -0.05267578 0.08822074 -0.0218863
v -0.04499303 0.03901701 -0.02109783
v -0.04646261 0.03680027 -0.01777871
v -0.07758718 0.17717875 -0.05022109
v -0.06308703 0.03961417 0.02518156
v -0.07230302 0.15186699 -0.04154431
v -0.04699058 0.03889238 -0.01401692
v -0.08310943 0.10265445 -0.00329334
v -0.0395199 0.17385855 -0.00757526
v -0.03741645 0.04768213 -0.01714728
v -0.05442072 0.04783652 -0.00591869
v 0.00941157 0.12350285 -0.0098291
v -0.0502905 0.04909893 0.01716478
v -0.05567396 0.05698385 -0.00335104
v -0.02754591 0.05402157 -0.02514739
v -0.05406648 0.05995935 -0.00759922
v 0.02181502 0.11770533 -0.0100153
v -0.02964712 0.05810426 -0.02131132
v 0.05290641 0.06523045 -0.00051112
v -0.02544562 0.06020855 -0.0308647
v -0.02868068 0.0682835 -0.03061016
v -0.06854389 0.17513008 -0.0571879
v -0.09020572 0.14947775 0.01303509
v -0.08154276 0.07795066 0.02672728
v 0.02666617 0.11268609 -0.01050954
v -0.0446974 0.11791537 -0.01472586
v -0.01250182 0.10634409 -0.02236019
v -0.0882842 0.08686911 0.00810292
v -0.08800107 0.08662643 0.01546668
v -0.07777055 0.08784484 -0.01169481
v -0.05112141 0.16374125 -0.00266405
v -0.01242992 0.10286006 -0.02382248
v 0.04576943 0.0646288 -0.00121661
v -0.03089295 0.04740903 -0.024954
v -0.01322027 0.18397188 -0.02751946
v -0.04785945 0.11162729 -0.01748212
v -0.06199357 0.15028063 -0.00162971
v -0.00935695 0.08542373 -0.03811254
v -0.03984279 0.12156113 -0.01157031
v -0.05053938 0.13336659 -0.00108722
v -0.00781631 0.12821209 -0.00194304
v -0.00438224 0.12640753 -0.00694952
v 0.00140857 0.03478199 -0.0232652
v -0.0148462 0.03507093 -0.0260719
v -0.0213995 0.03479512 -0.02795882
v 0.03689089 0.0473532 -0.00610571
v 0.00683417 0.05501017 -0.03056113
v 0.00214247 0.0555028 -0.0313344
v -0.00589038 0.03479062 -0.02422447
v -0.00523259 0.05568896 -0.03284022
v -0.01773936 0.06626083 -0.03765731
v -0.03526304 0.07106765 -0.01801186
v 0.0087503 0.07430156 -0.03339821
v -0.05110362 0.07307195 -0.01624306
v -0.03811782 0.07639012 -0.01864436
v -0.02116286 0.17491852 -0.02197711
v -0.00534863 0.03382901 -0.02260043
v 0.00173239 0.03445966 -0.01660787
v -0.02785147 0.03840433 -0.01721042
v 0.00397347 0.03820855 -0.00379635
v -0.01952351 0.03850521 -0.00454345
v 0.00232623 0.0353482 0.0023246
v 0.0140143 0.0357038 0.00388789
v -0.0380666 0.0385186 -0.00730796
v -0.05273006 0.0334979 -0.00181175
v -0.041271 0.0338554 -0.00188008
v 0.00314923 0.03412531 0.01176222
v -0.0373144 0.033633 0.00457247
v 0.0214998 0.0358071 0.0181694
v -0.05135087 0.0336457 0.00803294
v 0.0132792 0.0343795 0.0214237
v 0.0143227 0.0344255 0.0215932
v -0.0303071 0.0339954 0.0147064
v -0.0298032 0.034287 0.0163531
v -0.0288615 0.0353967 0.01735
v -0.0382796 0.035429 0.0243806
v -0.05184771 0.03447027 0.03463518
v -0.00496131 0.0393649 0.0367022
v -0.0804691 0.11357963 0.04664344
v -0.0181599 0.0393223 0.0394029
v -0.08564473 0.11131719 0.03423478
v -0.0263231 0.034658 0.0434735
v -0.07279013 0.06439988 0.01520595
v -0.0368986 0.03592464 0.04479417
v -0.07280136 0.06438259 0.01208908
v -0.01530644 0.03524641 0.05013381
v -0.06670071 0.15236775 -0.04526639
v -0.07394537 0.08437488 -0.01515449
v 0.03597176 0.06666961 0.0377814
v -0.02437993 0.09586645 0.04443453
v 0.03402392 0.11353879 0.02459528
v -0.08948084 0.13839976 0.02506145
v -0.00534334 0.07826458 -0.03747694
v -0.0480697 0.12493027 -0.00840764
v -0.08412341 0.1083205 0.02473098
v -0.06199624 0.14761484 -0.00432568
v -0.0331634 0.0381954 -0.0005252
v -0.02188242 0.11087418 -0.01969532
v 0.04471785 0.09480266 0.01202471
v -0.0720285 0.06704661 -0.0007225599999999997
v -0.09429715 0.12617744 0.01922465
v -0.04949594 0.07343634 0.04167357
v -0.01446691 0.06313602 -0.03686587
v 0.00273814 0.07910568 0.05671919
v -0.07468381 0.107861 -0.00904771
v 0.03386449 0.07865669 -0.01763249
v -0.08315935 0.14674277 0.00307579
v 0.0258218 0.04632661 0.03827723
v -0.05530898 0.10365394 0.04151669
v -0.05614789 0.06192155 -0.00575411
v -0.06853119 0.15630045 0.02099771
v -0.04212149 0.12825104 0.00107515
v 0.02385576 0.10616625 0.03937808
v -0.02908746 0.07292463 -0.03335447
v -0.08004357 0.09208016 -0.00941982
v 0.0319129 0.09987006 -0.01462098
v 0.01912008 0.04716775 -0.02211468
v -0.08005037 0.11670406 0.04876246
v 0.04594182 0.04813882 -0.0038715699999999995
v -0.06846643 0.13498146 -0.00833598
v -0.02753848 0.07996478 0.04769721
v -0.07143369 0.07757352 0.03806076
v 0.05153713 0.07349669 0.0126987
v -0.07374808 0.15539253 0.0023491699999999994
v -0.05785299 0.0464445 0.01106261
v -0.02008631 0.03806445 -0.01722079
v -0.05733534 0.12340101 0.04023147
v -0.0254259 0.04142101 -0.02920483
v -0.05236903 0.14682913 0.01893465
v 0.04283111 0.08555604 0.02787376
v -0.00853083 0.06015942 0.05530895
v -0.01971175 0.16829145 -0.01302096
v -0.06375729 0.10251144 -0.0174844
v -0.00082448 0.09516512 -0.03205632
v 0.02587286 0.08848229 0.04665526
v -0.01551334 0.10436131 0.04291942
v -0.04507884 0.08726113 -0.02186552
v 0.02900777 0.03735822 -0.0002747399999999999
v 0.03083572 0.11554234 -0.0031785500000000005
v -0.05405689 0.15671602 -0.00248659
v 0.02547293 0.0740945 -0.02493854
v -0.03918559 0.06307453 0.04138289
v 0.05979814 0.05684018 0.01334273
v -0.09100365 0.14885725 0.02150703
v -0.08585634 0.09702539 0.02741496
v 0.02895261 0.05612525 0.04038897
v -0.06361674 0.14801371 -0.02017026
v -0.0866051 0.13226807 0.04678302
v -0.0141697 0.12767892 0.00130805
v -0.00170334 0.0478192 -0.02992893
v -0.06439255 0.07311633 -0.01533534
v 0.03910844 0.10829072 0.01314233
v -0.02759704 0.16979824 -0.01817042
v -0.06025526 0.04474962 -0.00413162
v -0.03742022 0.0454285 -0.02422679
v -0.0637824 0.1103727 0.03757979
v -0.07429408 0.1635685 -0.01553422
v -0.03032487 0.06769472 -0.02765495
v 0.03094044 0.06051808 -0.01813272
v 0.01405522 0.05252391 0.04859388
v 0.02391124 0.09802167 -0.02080729
v -0.08149667 0.15473104 0.01969734
v -0.01722441 0.09521409 -0.0320853
v -0.05181526 0.16392582 0.00174888
v -0.01170342 0.09735572 0.05159208
v -0.0469888 0.12600802 0.0269855
v -0.07689009 0.13041906 -0.00695701
v -0.08882645 0.09048332 0.0212047
v -0.03973825 0.10215357 0.04057441
v -0.05822597 0.06660731 0.03505028
v -0.02924544 0.06955152 0.03936901
v -0.09364421 0.11789378 0.01866208
v 0.03799278 0.0497932 0.03190202
v -0.0316939 0.10261265 -0.02235231
v -0.01375377 0.05186506 -0.03224348
v 0.02824862 0.03504637 0.0160167
v -0.0336564 0.0343441 0.0369141
v 0.04131877 0.09949674 0.02427575
v 0.0060412 0.12494359 0.03265289
v -0.03007161 0.17258324 -0.00635977
v -0.01797607 0.07061377 -0.03844388
v -0.05447342 0.04593751 0.0236126
v -0.04330976 0.05565684 -0.01140211
v -0.03195166 0.12518394 0.01940058
v 0.02425186 0.05645747 -0.0242548
v -0.04866364 0.13638523 0.00680639
v -0.0737904 0.12016662 -0.00788512
v 0.05983724 0.06642318 0.00851394
v -0.07761883 0.07399913 -0.00532635
v 0.04496022 0.08094263 0.0006111900000000002
v 0.0025821999999999998 0.10747582 -0.02060603
v -0.07388009 0.12091638 0.0533958
v 0.00598623 0.04668914 0.04907362
v -0.06445701 0.15342891 -0.00511804
v 0.01318912 0.08421118 0.05306583
v -0.06222569 0.0602652 0.02044929
v -0.08037933 0.09780066 0.03364575
v -0.08940816 0.14352815 0.03092475
v -0.04274023 0.07699534 0.04280408
v 0.03989968 0.07029482 0.03272002
v -0.06214562 0.13599775 0.03670097
v 0.02150351 0.12563988 0.02125262
v -0.00668781 0.11747209 -0.01535928
v 0.01071104 0.05468761 -0.02976752
v -0.04668618 0.05457072 0.03758737
v -0.02776207 0.12068537 -0.00901529
v -0.06406724 0.09017219 -0.01885552
v -0.0354537 0.11244769 0.03505541
v 0.04126135 0.04058507 0.02075193
v -0.03450805 0.15447469 0.00165046
v -0.06464419 0.06172323 0.0002255199999999999
v -0.09059387 0.11373094 0.01027677
v -0.08125743 0.0730252 0.00710204
v 0.04301509 0.09769096 0.0010258300000000001
v 0.04669328 0.04246532 0.00656495
v -0.01761801 0.03891117 0.05240344
v 0.0071936 0.09885947 0.04841951
v -0.02367146 0.03363097 -0.02321776
v -0.02578106 0.09377818 -0.02838822
v -0.09290734 0.12307021 0.03652323
v 0.02585506 0.08961066 -0.02270184
v -0.06194593 0.16479234 -0.05664767
v 0.03498179 0.06774079 -0.01568321
v -0.05621514 0.14139213 -0.00280273
v 0.00695449 0.06470013 0.05559915
v -0.07591778 0.1499769 -0.01684205
v -0.07764496 0.08221494 0.03579766
v 0.05767943 0.06139297 0.02420179
v 0.02936287 0.06650978 0.04228938
v -0.07411355 0.09944252 0.03833771
v -0.06112104 0.1556966 0.02251705
v -0.03650546 0.08115226 0.04316232
v -0.06109602 0.1170165 0.03965402
v -0.05768056 0.03362269 0.01404031
v -0.0834485 0.13393299 -0.00168732
v 0.04487254 0.07551671 0.02315525
v -0.01137866 0.07987715 0.05769888
v -0.01028289 0.06892636 0.05528961
v 0.02358946 0.0358906 0.02533769
v -0.05420137 0.1145173 0.03484399
v 0.00810435 0.0348429 0.0181346
v -0.02011064 0.12504545 0.02358831
v -0.05283173 0.07029892 -0.01486496
v -0.08353979 0.08116956 0.02701407
v -0.07091976 0.17136688 -0.03276375
v 0.01298133 0.11366375 0.03830295
v -0.03564224 0.09261741 0.04423849
v -0.06278668 0.1127419 -0.01360544
v -0.04553288 0.03473648 -0.0213632
v -0.05971053 0.03653578 -0.0094949
v -0.01838313 0.18543664 -0.01713637
v 0.05742175 0.05601221 0.00402456
v -0.08591877 0.14263412 0.03984981
v -0.02552829 0.05147271 -0.02688468
v -0.02285164 0.09063504 0.05228046
v -0.00780368 0.05016931 0.05098865
v -0.08577755 0.09170137 -4.697000000000002e-05
v 0.03841359 0.08748993 0.03518585
v -0.0416817 0.12575112 -0.00701933
v 0.02663726 0.0476071 -0.01642774
v 0.0059436 0.05097666 -0.02911936
v -0.03920697 0.08153638 -0.020571
v 0.02572594 0.12122705 -3.6149999999999984e-05
v -0.06387565 0.16140094 -0.02006421
v 0.04210691 0.08153316 -0.00666909
v 0.03155543 0.09248473 -0.01820428
v 0.00769625 0.0723756 0.05606215
v -0.06559238 0.0910424 0.04409208
v 0.00994449 0.10919723 -0.01947281
v -0.06569179 0.14961818 0.03816098
v -0.04488228 0.15052959 0.00764517
v -0.08356095 0.15255943 0.00768067
v -0.01009087 0.09822965 -0.02773136
v -0.09223262 0.131954 0.01543065
v -0.04197932 0.06962998 0.04182493
v -0.08882776 0.11359169 0.02387364
v -0.07772146 0.11355888 0.04815599
v 0.0386863 0.05645059 0.03118893
v 0.01697345 0.09710662 0.04744092
v -0.05251364 0.04757788 0.01485844
v -0.04996034 0.04310195 0.04446265
v -0.0265805 0.0377426 0.0157053
v 0.00741471 0.03465919 -0.00301168
v -0.00592505 0.06951563 -0.03593348
v -0.07012167 0.16882633 -0.05117365
v -0.07116895 0.14740156 -0.02759094
v -0.05606751 0.05347063 0.00737182
v -0.06629942 0.12337119 0.05061592
v -0.05860408 0.03346223 -0.00021666999999999997
v -0.02385433 0.16164528 -0.01450419
v -0.01581544 0.17504938 -0.01865416
v 0.00096836 0.13064303 0.0025865900000000006
v 0.02499074 0.06589732 -0.02356827
v -0.01111325 0.03829029 -0.01564636
v -0.08620462 0.08093075 0.01053542
v -0.05513975 0.11051601 -0.01767274
v 0.01323466 0.03845306 0.04450147
v -0.07369669 0.15613015 0.01435979
v -0.0633133 0.16503258 -0.03289512
v -0.06703297 0.06514596 0.02729286
v -0.04293064 0.12928436 0.00927007
v -0.08876373 0.11944938 0.04656009
v -0.03526256 0.0552849 -0.01054506
v -0.04375572 0.14773408 -0.00214332
v -0.03321096 0.07687319 -0.02770838
v -0.02915118 0.10197369 0.04263306
v 0.03281993 0.11655625 0.00444586
v 0.05988667 0.06851305 0.01617161
v 0.01353349 0.10255388 -0.02157931
v -0.05767694 0.08625834 -0.02109832
v -0.03395731 0.04102506 -0.02966025
v 0.00518207 0.04153632 -0.02406567
v 0.03755296 0.10685291 0.02630347
v -0.05523834 0.08199945 0.04498477
v -0.07403387 0.14406894 0.04499497
v -0.01435471 0.0544282 0.05071031
v -0.0224137 0.08328352 0.0555907
v -0.0327157 0.10896631 -0.01894141
v -0.05074939 0.10928682 0.03829758
v 0.02338677 0.07007599 0.04701262
v -0.0930398 0.12026416 0.01121682
v -0.00067307 0.10119875 -0.02285777
v -0.0538318 0.14981693 0.02506661
v 0.03702718 0.09394963 -0.01167404
v -0.07737826 0.15764266 -0.01413365
v 0.0134871 0.1007642 0.04745429
v -0.07928595 0.08004883 -0.00701255
v 0.05031813 0.05278637 -0.00341663
v -0.06515615 0.14034537 -0.00768486
v -0.07214195 0.10536685 0.03752321
v -0.04124488 0.04309889 0.04212956
v -0.0654728 0.04562757 0.00455754
v 0.04562 0.07468443 0.00260739
v -0.04537646 0.08238355 0.04328212
v 0.04331555 0.05214555 0.03249211
v 0.00818481 0.08075617 0.05537451
v -0.08931316 0.13653006 0.03045875
v -0.01042399 0.03848857 0.00622927
v 0.01147133 0.06758144 -0.03090117
v -0.01832068 0.11968625 -0.01111066
v -0.0137085 0.1849115 -0.02554955
v 0.0253435 0.1237475 0.00998188
v 0.00425159 0.10523743 0.04256355
v -0.06854352 0.06109048 0.01055776
v -0.06108427 0.1338619 -0.00722489
v -0.07900379 0.1285055 0.05314934
v -0.03697052 0.03568036 -0.01500779
v -0.07408436 0.14987744 -0.03261005
v -0.0108726 0.08882677 0.05666549
v -0.02191135 0.06714479 -0.03653575
v -0.06437103 0.17296209 -0.04922566
v -0.04435401 0.07337222 -0.01787443
v -0.07595081 0.06817061 0.01811797
v -0.0824716 0.1162413 -0.00232363
v 0.04628088 0.07870202 0.01478633
v -0.03407043 0.16148975 -0.01378696
v -0.05768453 0.15561695 0.01298311
v -0.03788539 0.16199719 0.0002468599999999998
v 0.05298796 0.04774769 0.005042
v -0.00282619 0.03488534 0.04561141
v -0.00684782 0.03644454 -0.02517712
v 0.00867844 0.12894574 0.02615688
v 0.01407427 0.07665172 0.05422135
v 0.03358413 0.03830393 0.02292867
v 0.01580015 0.11996558 -0.01141563
v 0.02921651 0.06785025 -0.02041857
v -0.03753854 0.12744127 0.01532087
v 0.03304458 0.10766252 0.03191615
v -0.06306989 0.15897471 -0.04295185
v -0.04553056 0.09851085 -0.02172951
v -0.02998201 0.0854023 0.04374508
v -0.05603276 0.13731083 0.03197059
v -0.06011714 0.09555291 0.04418382
v -0.01041117 0.09459234 -0.03378485
v -0.02158886 0.05683692 0.04546704
v -0.06200194 0.03643502 0.04391894
v -0.03113338 0.04960726 -0.01940694
v 0.03668402 0.1009957 -0.00984859
v -0.07822523 0.14962481 -0.00250194
v -0.08616148 0.10838594 0.01824492
v -0.08656194 0.14249188 0.00843268
v 0.01046428 0.09618045 -0.02589897
v -0.04843435 0.13754973 0.01324498
v -0.06112567 0.03779005 0.0197109
v -0.0720716 0.07153815 -0.00747144
v -0.0789317 0.15093057 0.0351519
v -0.08881256 0.08776549 0.01422654
v -0.05130794 0.06052166 0.03143493
v 0.01663861 0.03819609 -0.01988493
v -0.06189586 0.15424247 -0.0190186
v -0.03949475 0.03755157 0.0428709
v -0.06559994 0.11329504 0.04231871
v 0.0117454 0.05667834 0.05191406
v 0.04563688 0.05740262 0.03199222
v -0.05511138 0.07468784 0.04193974
v 0.0094076 0.09032805 0.05421414
v -0.05851589 0.04773131 0.00021246000000000004
v 0.05000082 0.06161207 -0.00346499
v -0.09223775 0.12488519 0.04078653
v 0.01231936 0.12903768 0.0013336199999999998
v -0.04612416 0.10506369 -0.02045758
v -0.02696411 0.08451281 -0.03636174
v -0.04281898 0.16220182 -0.01033751
v -0.01940887 0.17041104 -0.02099483
v -0.01073649 0.12990285 0.01099379
v 0.03412644 0.09705398 0.03759039
v -0.09228086 0.12762053 0.02975167
v 0.02614811 0.12014725 0.02730801
v -0.05293564 0.09091352 0.04456887
v -0.02647198 0.04503453 0.05121946
v -0.07022226 0.15143521 0.03671891
v -0.02054255 0.11979518 0.03300367
v -0.04322683 0.04626357 -0.01177173
v -0.07422655 0.16437012 -0.03824034
v -0.04910459 0.13666879 0.01931403
v 0.04957568 0.0438159 0.01458296
v 0.00958873 0.03420722 -0.01542405
v -0.07702557 0.11396763 -0.00461681
v -0.0628326 0.04518275 0.03462289
v -0.07203608 0.11107918 0.0453614
v -0.03260575 0.0612646 -0.01545301
v -0.06960559 0.15490763 -0.05018867
v -0.02287024 0.10284737 0.04354475
v 0.00665325 0.11673563 0.03871634
v -0.036425 0.09363069 -0.02353463
v 0.02368212 0.03976254 0.03714876
v -0.00817975 0.0498458 -0.03107139
v 0.03830205 0.08454914 -0.01447883
v 0.0151103 0.05981984 -0.02864575
v 0.00025369 0.06574117 0.05656926
v -0.05798954 0.07401788 -0.01752232
v 0.04559818 0.08815172 0.01312407
v -0.06554542 0.07443037 0.03916807
v -0.0021998999999999994 0.11215881 -0.01965866
v -0.08889226 0.0992091 0.00957032
v -0.06721659 0.1617134 -0.01373371
v -0.08076792 0.143014 -0.00153128
v -0.0568023 0.14514674 0.0317403
v -0.08379885 0.10290691 0.02803833
v -0.06976057 0.13442855 0.04826522
v -0.02026838 0.06226681 0.04821212
v -0.0820635 0.07599367 0.00176155
v -0.0332411 0.03357876 -0.02671945
v 0.00206568 0.05010468 0.05229022
v -0.0085264 0.06400173 -0.03585048
v 0.01069621 0.0798892 -0.03200958
v -0.04934993 0.14913519 0.01127406
v -0.08240389 0.12186563 0.04936503
v -0.04729006 0.13055355 0.0016909099999999997
v 0.01786943 0.09089861 0.04871294
v -0.06819241 0.17439828 -0.04536587
v 0.03357384 0.05851526 0.03831099
v -0.0637554 0.14428875 -0.01139573
v -0.08955969 0.12851666 0.00454575
v -0.04187911 0.05616439 0.0397967
v 0.03882938 0.05983983 -0.00642525
v -0.0059406 0.07903824 0.05796983
v 0.04851001 0.06178076 0.03034725
v -0.01309899 0.09077604 -0.03665927
v 0.01200922 0.0359619 -0.02173575
v -0.02329883 0.18324307 -0.017923
v 0.05718027 0.07110769 0.00803076
v -0.04957947 0.03609654 0.04595536
v -0.04443413 0.08765453 0.04347762
v -0.03897895 0.10683037 0.03824766
v 0.02424972 0.10266151 -0.01831383
v 0.0028887900000000005 0.03463625 0.01884977
v -0.09130982 0.14848588 0.01627007
v -0.05706936 0.05442438 0.00233955
v -0.06498457 0.1037155 0.04064781
v -0.07038525 0.0374503 -0.0009319000000000003
v -0.02926488 0.16140418 -0.00210395
v -0.08897947 0.11450869 0.02844603
f 21 169 8
f 459 405 12
f 201 309 452
f 65 565 1
f 140 405 611
f 65 1 44
f 38 352 506
f 440 173 157
f 127 140 511
f 560 65 64
f 571 475 143
f 503 584 68
f 384 346 200
f 565 402 1
f 65 44 339
f 374 139 350
f 3 344 402
f 344 142 572
f 547 56 67
f 28 347 514
f 41 42 416
f 129 508 446
f 604 41 416
f 344 368 142
f 613 386 307
f 83 273 486
f 269 73 479
f 617 556 71
f 69 474 555
f 73 269 533
f 365 548 441
f 73 69 72
f 73 569 69
f 10 17 58
f 624 72 69
f 400 326 70
f 17 85 58
f 183 432 541
f 144 12 596
f 625 368 400
f 628 183 541
f 332 380 567
f 72 624 73
f 68 296 76
f 604 42 41
f 518 10 85
f 8 340 103
f 166 104 247
f 531 329 407
f 36 45 29
f 8 103 39
f 291 264 617
f 37 45 36
f 486 439 83
f 27 37 570
f 68 339 48
f 12 144 459
f 90 564 7
f 296 155 325
f 60 291 617
f 427 264 291
f 342 50 157
f 24 37 27
f 570 24 27
f 44 48 339
f 64 65 362
f 526 132 301
f 169 10 8
f 509 415 397
f 592 135 374
f 68 572 296
f 416 42 291
f 76 296 325
f 68 48 572
f 617 71 509
f 291 60 398
f 60 617 398
f 595 56 372
f 246 520 376
f 92 495 95
f 320 88 94
f 420 112 549
f 350 139 135
f 607 289 543
f 92 95 87
f 102 107 295
f 393 448 552
f 106 418 102
f 258 187 117
f 87 95 495
f 84 268 457
f 316 479 393
f 101 93 431
f 532 361 600
f 532 96 361
f 361 96 598
f 88 306 94
f 306 97 320
f 480 99 523
f 79 287 400
f 96 532 598
f 94 306 320
f 98 355 523
f 287 70 326
f 23 103 340
f 457 268 88
f 70 287 79
f 214 403 591
f 70 79 400
f 105 411 23
f 105 451 411
f 90 46 18
f 439 273 83
f 102 89 107
f 102 295 98
f 19 151 244
f 135 592 493
f 18 450 90
f 451 105 23
f 515 493 592
f 195 501 114
f 622 179 283
f 389 100 98
f 389 102 100
f 418 566 102
f 566 290 528
f 128 113 118
f 88 320 353
f 194 537 288
f 306 98 480
f 268 84 81
f 315 194 288
f 418 106 249
f 98 100 102
f 85 10 58
f 425 59 374
f 325 68 76
f 80 20 376
f 98 99 480
f 89 273 439
f 99 98 523
f 450 564 90
f 10 518 8
f 382 128 118
f 92 388 618
f 141 326 32
f 295 107 89
f 90 7 292
f 411 21 23
f 249 106 102
f 297 161 77
f 81 84 457
f 103 23 39
f 529 459 424
f 345 319 420
f 451 126 114
f 383 588 425
f 114 126 74
f 328 547 189
f 202 452 363
f 374 135 139
f 74 126 451
f 153 544 285
f 328 189 455
f 146 152 165
f 278 13 156
f 55 117 192
f 217 209 203
f 520 20 80
f 112 116 111
f 543 289 575
f 121 511 91
f 112 111 108
f 118 121 91
f 104 118 91
f 342 173 440
f 137 252 541
f 424 115 529
f 118 511 121
f 289 82 120
f 519 303 87
f 370 431 93
f 434 252 137
f 184 404 86
f 120 82 575
f 422 318 215
f 289 120 575
f 283 57 468
f 332 372 540
f 322 458 432
f 35 141 32
f 354 284 458
f 91 611 405
f 34 271 47
f 141 35 326
f 47 571 430
f 271 2 47
f 354 517 160
f 284 432 458
f 272 527 3
f 8 39 23
f 152 544 165
f 143 475 430
f 467 502 568
f 571 143 430
f 144 596 459
f 21 8 23
f 583 325 155
f 189 547 455
f 29 491 154
f 29 37 36
f 158 50 356
f 154 19 29
f 613 307 550
f 536 152 147
f 308 25 413
f 579 15 441
f 152 149 147
f 441 548 579
f 244 151 551
f 57 283 618
f 331 601 477
f 435 548 615
f 149 152 146
f 29 19 37
f 370 93 101
f 148 145 150
f 145 153 150
f 212 422 215
f 390 357 428
f 331 281 392
f 156 352 278
f 19 154 151
f 542 469 321
f 379 334 117
f 38 506 608
f 132 526 453
f 247 104 115
f 166 247 115
f 38 608 352
f 151 154 551
f 525 626 429
f 182 445 127
f 164 140 127
f 40 164 127
f 445 40 127
f 140 164 40
f 166 131 445
f 445 131 574
f 187 55 192
f 180 181 274
f 181 318 274
f 131 51 405
f 180 318 181
f 173 342 157
f 71 556 49
f 175 178 414
f 296 583 155
f 51 317 405
f 131 317 51
f 414 537 175
f 217 521 209
f 446 386 129
f 129 386 508
f 175 537 178
f 386 485 508
f 409 163 162
f 318 212 215
f 162 170 122
f 167 162 163
f 150 153 631
f 167 170 162
f 342 440 544
f 572 142 368
f 177 185 626
f 50 158 157
f 628 432 183
f 137 541 434
f 560 172 452
f 195 114 5
f 190 275 62
f 204 205 288
f 169 21 10
f 248 275 190
f 619 253 198
f 487 275 248
f 452 172 363
f 557 174 176
f 168 578 417
f 9 578 168
f 315 537 194
f 417 9 168
f 191 324 300
f 395 597 327
f 160 191 300
f 629 174 557
f 160 324 191
f 602 188 417
f 13 352 156
f 285 557 492
f 185 299 626
f 128 382 113
f 185 177 525
f 218 220 222
f 452 202 201
f 366 186 130
f 493 193 616
f 193 558 616
f 160 197 354
f 197 256 354
f 160 256 197
f 309 201 363
f 201 202 363
f 200 609 384
f 384 609 254
f 186 456 254
f 493 283 179
f 346 609 200
f 179 412 488
f 186 561 196
f 423 185 525
f 419 199 254
f 199 186 254
f 177 626 525
f 186 199 419
f 130 186 419
f 179 193 493
f 46 450 18
f 366 130 419
f 366 478 186
f 167 314 171
f 471 205 204
f 116 206 279
f 279 616 558
f 279 206 616
f 514 347 578
f 512 403 214
f 159 161 470
f 159 77 161
f 270 557 176
f 117 187 192
f 561 456 196
f 470 161 297
f 563 516 464
f 248 190 62
f 289 607 517
f 46 464 516
f 256 489 550
f 557 343 171
f 534 294 253
f 453 301 132
f 337 551 234
f 214 591 512
f 499 606 301
f 606 134 381
f 294 134 606
f 327 28 395
f 292 7 564
f 421 207 364
f 456 186 196
f 421 208 207
f 208 364 207
f 499 444 213
f 470 77 159
f 203 209 521
f 587 210 208
f 210 335 208
f 108 109 112
f 587 335 210
f 444 198 253
f 163 409 167
f 114 74 5
f 444 619 198
f 171 343 573
f 182 113 445
f 414 263 335
f 263 211 341
f 341 619 444
f 545 311 270
f 501 195 5
f 343 212 581
f 263 510 211
f 510 341 211
f 116 125 206
f 404 124 387
f 216 5 564
f 174 270 176
f 146 165 544
f 205 471 288
f 117 334 258
f 313 216 564
f 216 313 5
f 110 229 399
f 110 336 229
f 229 336 399
f 446 508 166
f 520 80 376
f 78 457 232
f 633 380 332
f 220 443 222
f 633 241 43
f 109 577 203
f 241 119 43
f 551 19 244
f 255 119 241
f 218 204 217
f 490 119 255
f 78 81 457
f 184 124 404
f 119 239 278
f 86 124 184
f 119 437 239
f 437 278 239
f 245 243 260
f 260 243 513
f 504 245 260
f 576 336 375
f 437 119 490
f 243 136 513
f 631 148 150
f 504 243 245
f 243 52 136
f 243 504 52
f 136 52 513
f 218 443 220
f 454 498 221
f 460 282 124
f 145 148 631
f 232 81 78
f 174 629 371
f 187 258 55
f 225 410 167
f 460 330 593
f 146 147 149
f 167 226 225
f 225 230 449
f 146 536 147
f 226 230 225
f 226 449 230
f 234 146 394
f 226 167 507
f 203 218 217
f 520 246 242
f 182 127 113
f 109 111 577
f 108 111 109
f 234 237 146
f 623 536 146
f 246 376 242
f 376 570 242
f 219 507 378
f 286 507 219
f 551 237 234
f 378 286 219
f 551 146 237
f 158 356 157
f 297 470 591
f 297 591 512
f 306 98 389
f 618 360 22
f 329 531 466
f 329 466 368
f 273 566 528
f 522 362 65
f 546 475 413
f 322 628 432
f 606 294 253
f 213 253 444
f 54 408 254
f 505 254 384
f 599 490 255
f 56 540 372
f 563 324 300
f 563 300 464
f 507 224 257
f 507 257 286
f 309 363 500
f 309 500 478
f 338 374 259
f 338 259 290
f 373 513 260
f 602 487 417
f 28 481 261
f 28 434 541
f 330 435 262
f 330 555 593
f 208 335 605
f 208 444 499
f 355 523 496
f 556 496 617
f 62 275 265
f 367 293 77
f 588 383 266
f 381 301 606
f 31 280 597
f 539 432 284
f 26 586 268
f 438 612 249
f 630 533 269
f 630 269 479
f 343 557 270
f 343 403 512
f 517 354 458
f 517 391 483
f 35 527 461
f 35 461 346
f 406 528 273
f 406 273 486
f 379 323 562
f 53 465 318
f 417 487 275
f 417 275 578
f 484 374 276
f 59 426 266
f 620 472 277
f 549 277 420
f 462 119 278
f 380 308 413
f 375 116 279
f 519 488 412
f 505 384 489
f 54 347 408
f 477 331 281
f 477 531 415
f 66 555 282
f 428 387 357
f 515 493 283
f 22 283 618
f 485 596 284
f 485 284 539
f 356 504 447
f 356 447 157
f 218 204 454
f 218 454 222
f 600 532 287
f 600 393 448
f 414 537 288
f 414 288 335
f 598 82 289
f 598 483 391
f 396 360 290
f 515 290 592
f 476 416 291
f 476 291 398
f 632 90 292
f 518 340 8
f 265 62 293
f 265 408 347
f 482 542 294
f 482 294 433
f 610 98 295
f 439 295 89
f 4 583 296
f 4 296 572
f 585 530 297
f 53 422 318
f 116 110 298
f 116 298 111
f 33 538 299
f 33 467 312
f 256 160 300
f 256 300 101
f 266 526 301
f 266 301 381
f 45 29 302
f 331 302 359
f 92 87 303
f 92 303 388
f 358 2 304
f 252 628 541
f 56 255 599
f 404 357 387
f 268 88 306
f 268 612 438
f 115 550 307
f 446 307 386
f 608 559 308
f 608 308 506
f 366 478 309
f 3 565 402
f 472 521 310
f 472 421 364
f 248 349 311
f 248 311 62
f 568 467 312
f 473 338 290
f 21 621 313
f 516 450 46
f 123 492 314
f 410 314 167
f 122 170 315
f 603 471 378
f 630 479 316
f 490 580 437
f 12 596 317
f 12 317 405
f 178 180 318
f 178 318 212
f 125 420 319
f 616 383 133
f 42 353 553
f 385 553 97
f 276 484 626
f 538 626 299
f 2 458 322
f 2 322 304
f 117 379 323
f 433 534 294
f 17 160 324
f 17 324 10
f 49 71 325
f 49 325 68
f 82 575 326
f 532 326 287
f 280 597 327
f 280 347 54
f 56 305 328
f 56 328 547
f 73 407 329
f 73 625 479
f 50 460 330
f 548 330 435
f 45 302 331
f 45 331 37
f 261 481 332
f 261 332 567
f 26 268 333
f 369 495 87
f 530 585 478
f 561 478 186
f 521 587 335
f 521 335 288
f 524 399 336
f 369 336 576
f 19 551 337
f 19 337 242
f 312 374 338
f 312 338 251
f 584 68 339
f 6 522 362
f 292 518 340
f 292 340 23
f 274 510 341
f 562 341 323
f 152 544 342
f 579 342 548
f 170 573 463
f 537 463 581
f 32 35 344
f 32 344 368
f 277 420 345
f 499 453 301
f 101 607 346
f 101 346 384
f 327 280 347
f 327 347 28
f 412 179 348
f 303 468 57
f 260 373 349
f 260 545 270
f 493 135 350
f 133 425 383
f 482 542 351
f 363 594 172
f 30 448 352
f 30 352 25
f 14 20 353
f 457 353 88
f 11 256 354
f 596 354 284
f 556 496 355
f 610 355 98
f 52 504 356
f 460 356 50
f 599 490 357
f 305 357 404
f 252 304 358
f 497 413 380
f 262 435 359
f 555 494 69
f 249 554 360
f 249 360 290
f 475 430 361
f 475 361 600
f 251 6 568
f 251 568 312
f 55 258 363
f 55 363 594
f 277 472 364
f 277 589 345
f 29 491 615
f 29 615 302
f 3 309 366
f 3 366 272
f 62 591 367
f 62 367 293
f 4 466 368
f 4 368 572
f 524 336 369
f 26 369 333
f 46 464 370
f 632 518 292
f 270 174 371
f 270 371 260
f 9 595 372
f 9 481 28
f 86 513 373
f 455 602 188
f 33 538 374
f 33 374 312
f 110 336 375
f 110 375 116
f 24 570 376
f 24 376 20
f 49 556 377
f 49 503 68
f 204 471 378
f 204 378 286
f 585 334 379
f 53 379 465
f 43 633 380
f 462 559 608
f 321 542 381
f 321 426 484
f 104 118 382
f 582 445 166
f 319 125 383
f 319 526 453
f 256 489 384
f 256 384 101
f 42 553 385
f 42 590 291
f 539 485 386
f 31 386 489
f 282 428 387
f 282 387 124
f 57 618 388
f 57 388 303
f 249 612 389
f 249 389 102
f 75 428 390
f 630 490 316
f 271 34 391
f 458 391 517
f 359 331 392
f 624 392 73
f 287 400 393
f 287 393 600
f 145 449 394
f 145 394 146
f 138 597 395
f 138 395 614
f 22 360 396
f 22 396 283
f 63 398 397
f 477 397 415
f 535 476 398
f 535 398 63
f 586 232 399
f 586 399 26
f 32 326 400
f 32 400 368
f 498 227 627
f 498 442 221
f 572 344 402
f 44 402 1
f 270 343 403
f 270 403 311
f 328 86 404
f 328 404 305
f 574 131 405
f 40 405 140
f 6 339 406
f 6 406 251
f 392 531 407
f 392 407 73
f 293 265 408
f 293 456 77
f 122 162 409
f 603 409 378
f 123 314 410
f 631 449 145
f 5 501 411
f 5 621 313
f 303 519 412
f 303 412 348
f 358 546 413
f 358 413 497
f 180 178 414
f 510 414 263
f 250 531 415
f 583 415 325
f 20 24 416
f 20 416 604
f 67 9 417
f 67 417 188
f 290 249 418
f 290 418 566
f 609 254 419
f 272 419 366
f 116 112 420
f 116 420 125
f 310 472 421
f 310 421 208
f 297 512 422
f 297 422 53
f 467 502 423
f 299 423 185
f 596 459 424
f 550 424 115
f 350 374 425
f 350 425 133
f 381 266 426
f 381 426 321
f 590 291 427
f 385 523 480
f 66 282 428
f 569 533 73
f 594 172 429
f 351 469 542
f 34 47 430
f 598 430 361
f 85 370 431
f 85 607 17
f 267 541 432
f 267 432 539
f 117 55 433
f 117 433 323
f 261 252 434
f 261 434 28
f 302 615 435
f 302 435 359
f 540 332 436
f 255 633 241
f 13 278 437
f 13 437 580
f 333 268 438
f 554 438 249
f 610 295 439
f 61 439 377
f 285 544 440
f 285 629 557
f 623 15 441
f 491 441 365
f 627 498 442
f 627 442 238
f 111 577 443
f 111 443 223
f 605 208 444
f 605 444 341
f 382 582 445
f 382 445 113
f 115 307 446
f 115 446 166
f 440 285 447
f 440 447 157
f 13 352 448
f 13 448 552
f 410 123 449
f 410 449 225
f 313 516 450
f 313 450 564
f 292 23 451
f 292 451 564
f 65 565 452
f 65 452 560
f 345 319 453
f 345 453 589
f 286 204 454
f 286 454 221
f 86 373 455
f 86 455 328
f 408 254 456
f 408 456 293
f 520 242 457
f 14 457 353
f 271 2 458
f 271 458 391
f 91 529 459
f 91 459 405
f 52 356 460
f 52 460 513
f 272 527 461
f 609 461 346
f 43 559 462
f 43 462 119
f 343 573 463
f 343 463 581
f 101 370 464
f 101 464 300
f 274 379 465
f 274 465 318
f 250 531 466
f 250 466 4
f 299 33 467
f 299 467 423
f 348 303 468
f 622 468 283
f 429 351 469
f 429 469 626
f 367 77 470
f 367 470 591
f 315 288 471
f 315 471 122
f 203 620 472
f 203 472 521
f 251 338 473
f 251 528 406
f 66 555 474
f 66 569 533
f 25 30 475
f 25 475 413
f 24 535 476
f 24 476 416
f 63 397 477
f 63 477 535
f 334 585 478
f 334 478 258
f 400 393 479
f 400 479 625
f 97 306 480
f 97 480 385
f 372 9 481
f 372 481 332
f 55 351 482
f 55 482 433
f 289 598 483
f 289 483 517
f 59 426 484
f 59 484 374
f 317 131 485
f 317 485 596
f 377 439 486
f 377 503 49
f 349 248 487
f 349 487 602
f 279 519 488
f 279 488 558
f 280 505 489
f 280 489 31
f 390 630 490
f 390 490 357
f 16 441 491
f 16 551 146
f 153 285 492
f 153 492 123
f 133 350 493
f 133 493 616
f 359 262 494
f 359 624 392
f 333 438 495
f 333 495 369
f 264 427 496
f 264 496 617
f 252 358 497
f 252 567 261
f 222 454 498
f 222 498 227
f 589 208 499
f 589 499 453
f 258 363 500
f 258 500 478
f 451 114 501
f 451 501 411
f 64 423 502
f 64 502 362
f 486 406 503
f 486 503 377
f 371 447 504
f 371 504 260
f 54 280 505
f 54 505 254
f 25 352 506
f 25 506 308
f 409 167 507
f 409 507 378
f 131 166 508
f 131 508 485
f 325 415 509
f 325 509 71
f 180 414 510
f 180 510 274
f 113 118 511
f 113 511 127
f 212 343 512
f 212 512 422
f 124 86 513
f 124 513 460
f 9 578 514
f 9 514 28
f 396 290 515
f 396 515 283
f 21 313 516
f 21 516 563
f 17 607 517
f 17 517 160
f 370 632 518
f 370 518 85
f 375 279 519
f 375 519 576
f 14 457 520
f 14 520 20
f 204 217 521
f 204 521 288
f 339 65 522
f 339 522 6
f 427 496 523
f 427 523 385
f 26 399 524
f 26 524 369
f 172 429 525
f 172 525 423
f 383 319 526
f 383 526 266
f 344 35 527
f 344 527 3
f 473 251 528
f 473 528 290
f 104 115 529
f 104 529 91
f 77 478 530
f 77 530 297
f 281 392 531
f 281 531 477
f 82 326 532
f 82 532 598
f 428 75 533
f 428 533 66
f 323 433 534
f 323 619 341
f 37 24 535
f 37 601 331
f 15 623 536
f 15 536 579
f 170 315 537
f 170 537 463
f 276 374 538
f 276 538 626
f 31 597 539
f 31 539 386
f 255 56 540
f 255 540 436
f 138 267 541
f 138 541 614
f 134 294 542
f 134 542 381
f 346 607 543
f 346 543 35
f 145 153 544
f 145 544 146
f 349 260 545
f 349 545 311
f 2 358 546
f 2 546 47
f 188 455 547
f 188 547 67
f 50 342 548
f 50 548 330
f 109 112 549
f 109 549 203
f 11 424 550
f 11 550 256
f 491 16 551
f 491 551 154
f 316 490 552
f 316 552 393
f 320 353 553
f 320 553 97
f 495 438 554
f 495 618 92
f 262 330 555
f 262 555 494
f 610 355 556
f 61 556 377
f 314 492 557
f 314 557 171
f 179 488 558
f 179 558 193
f 380 308 559
f 380 559 43
f 423 172 560
f 423 560 64
f 77 478 561
f 77 561 456
f 274 379 562
f 274 562 341
f 10 324 563
f 10 563 21
f 74 5 564
f 74 564 451
f 309 452 565
f 309 565 3
f 89 273 566
f 89 566 102
f 497 380 567
f 497 567 252
f 362 6 568
f 362 568 502
f 474 66 569
f 474 569 69
f 19 37 570
f 19 570 242
f 546 47 571
f 546 571 475
f 44 402 572
f 44 572 48
f 167 170 573
f 167 573 171
f 40 445 574
f 40 574 405
f 35 543 575
f 35 575 326
f 87 519 576
f 87 576 369
f 218 203 577
f 218 577 443
f 265 347 578
f 265 578 275
f 152 536 579
f 152 579 342
f 552 13 580
f 552 580 490
f 178 537 581
f 178 581 212
f 104 166 582
f 104 582 382
f 250 4 583
f 250 583 415
f 406 339 584
f 406 584 503
f 53 297 585
f 53 585 379
f 81 232 586
f 81 586 268
f 310 208 587
f 310 587 521
f 59 425 588
f 59 588 266
f 364 277 589
f 364 589 208
f 385 42 590
f 385 590 427
f 311 403 591
f 311 591 62
f 259 290 592
f 259 592 374
f 282 555 593
f 282 593 460
f 351 55 594
f 351 594 429
f 67 56 595
f 67 595 9
f 11 354 596
f 11 596 424
f 267 539 597
f 267 597 138
f 34 430 598
f 34 598 391
f 305 56 599
f 305 599 357
f 30 475 600
f 30 600 448
f 535 37 601
f 535 601 477
f 373 349 602
f 373 602 455
f 122 409 603
f 122 603 471
f 353 20 604
f 353 604 42
f 263 335 605
f 263 605 341
f 213 499 606
f 213 606 253
f 431 101 607
f 431 607 85
f 278 352 608
f 278 608 462
f 272 461 609
f 272 609 419
f 61 439 610
f 61 610 556
f 511 91 611
f 511 611 140
f 306 268 612
f 306 612 389
f 489 550 613
f 489 613 386
f 28 541 614
f 28 614 395
f 365 491 615
f 365 615 548
f 125 206 616
f 125 616 383
f 397 398 617
f 397 617 509
f 554 495 618
f 554 618 360
f 534 323 619
f 534 619 253
f 549 203 620
f 549 620 277
f 411 5 621
f 411 621 21
f 348 468 622
f 348 622 179
f 16 441 623
f 16 623 146
f 494 69 624
f 494 624 359
f 329 368 625
f 329 625 73
f 321 484 626
f 321 626 469
f 401 231 627
f 401 627 227
f 304 252 628
f 304 628 322
f 447 285 629
f 447 629 371
f 75 390 630
f 75 630 533
f 123 153 631
f 123 631 449
f 46 370 632
f 46 632 90
f 436 332 633
f 436 633 255
