v -0.00341018 0.13031957 0.02175437
v -0.08171916 0.15250145 0.02965609
v -0.03054348 0.12477885 0.00109834
v -0.02490159 0.11211138 0.03756024
v -0.01840568 0.17843055 -0.02421958
v 0.01906794 0.12144925 0.03196844
v 0.0060412 0.12494359 0.03265289
v -0.01346903 0.16299355 -0.01200002
v -0.03439324 0.17236688 -0.00098213
v -0.08431416 0.10957263 0.00370973
v -0.04223354 0.17211574 -0.00417998
v -0.06330839 0.15660615 -0.01383879
v -0.07690395 0.16708033 -0.02693136
v -0.07225392 0.1153955 0.0516703
v 0.01298133 0.11366375 0.03830295
v 0.00486894 0.03796237 0.04586763
v -0.05718055 0.04091883 0.04630134
v -0.04520907 0.0388391 0.04450377
v -0.05024227 0.15773747 0.00939445
v -0.02121695 0.15887938 -0.00469237
v -0.04996034 0.04310195 0.04446265
v -0.02974875 0.03653986 0.05249331
v -0.00354389 0.04265977 0.04754153
v -0.03908818 0.1687202 -0.01192468
v -0.04124488 0.04309889 0.04212956
v 0.04976006 0.07023522 0.02373202
v 0.03402392 0.11353879 0.02459528
v -0.0264679 0.1810425 -0.00808117
v -0.01753347 0.04796425 0.04882963
v 0.00598623 0.04668914 0.04907362
v -0.0354537 0.11244769 0.03505541
v -0.0759832 0.138208 0.04921658
v 0.03483844 0.04315341 0.02895431
v -0.02274927 0.04988388 0.04660552
v -0.00780368 0.05016931 0.05098865
v -0.06387565 0.16140094 -0.02006421
v -0.08806457 0.12496764 0.00057412
v -0.06445701 0.15342891 -0.00511804
v -0.03430319 0.05052015 0.03828602
v -0.01435471 0.0544282 0.05071031
v -0.07266589 0.13005582 0.0516682
v 0.03799278 0.0497932 0.03190202
v 0.02150351 0.12563988 0.02125262
v -0.07648133 0.14827412 -0.00893762
v -0.0406522 0.12266506 0.0262903
v -0.04668618 0.05457072 0.03758737
v 0.03795509 0.1048871 -0.00320318
v -0.07900379 0.1285055 0.05314934
v -0.0591297 0.15039712 0.03448954
v -0.06569179 0.14961818 0.03816098
v -0.03195166 0.12518394 0.01940058
v -0.0452255 0.12935459 0.02037752
v -0.03061484 0.05441265 0.03669429
v -0.0247876 0.05260622 0.04083976
v -0.02158886 0.05683692 0.04546704
v -0.08090051 0.12558713 0.05215537
v -0.02999621 0.17811137 -0.00523582
v 0.04331555 0.05214555 0.03249211
v -0.07908773 0.17044488 -0.04137317
v -0.00149855 0.05592548 0.0546308
v 0.00519817 0.05701799 0.05342353
v 0.0386863 0.05645059 0.03118893
v -0.00853083 0.06015942 0.05530895
v -0.09107873 0.11506037 0.04014181
v 0.04563688 0.05740262 0.03199222
v -0.0141697 0.12767892 0.00130805
v -0.01239524 0.12264726 0.03358828
v -0.02800136 0.06107542 0.03747121
v -0.02537355 0.15840012 -0.00148013
v -0.06781859 0.15454353 0.03023372
v -0.00319589 0.11912518 0.03834958
v -0.03918559 0.06307453 0.04138289
v -0.00215139 0.09943738 0.04984975
v -0.05600139 0.06183067 0.02793115
v -0.05130794 0.06052166 0.03143493
v -0.04197932 0.06962998 0.04182493
v 0.00695449 0.06470013 0.05559915
v 0.04301509 0.09769096 0.00102583
v 0.03755296 0.10685291 0.02630347
v -0.07864073 0.16387238 -0.02838779
v -0.06199624 0.14761484 -0.00432568
v -0.01028289 0.06892636 0.05528961
v -0.0703258 0.06336777 0.01980918
v 0.04283111 0.08555604 0.02787376
v -0.04212149 0.12825104 0.00107515
v -0.03225787 0.0881926 -0.02513096
v 0.00769625 0.0723756 0.05606215
v -0.06189763 0.12297065 -0.00877255
v -0.00639347 0.10524472 -0.0228419
v -0.02924544 0.06955152 0.03936901
v -0.0893851 0.09902404 0.01752183
v 0.05453721 0.06879672 0.02451769
v -0.07388009 0.12091638 0.0533958
v -0.07403387 0.14406894 0.04499497
v -0.05405689 0.15671602 -0.00248659
v -0.04507884 0.08726113 -0.02186552
v -0.04731121 0.16296037 0.00607403
v -0.02578106 0.09377818 -0.02838822
v -0.08412341 0.1083205 0.02473098
v -0.07429408 0.1635685 -0.01553422
v -0.09429715 0.12617744 0.01922465
v -0.04949594 0.07343634 0.04167357
v 0.04107326 0.08872432 -0.00978794
v -0.05511138 0.07468784 0.04193974
v -0.04274023 0.07699534 0.04280408
v -0.06853119 0.15630045 0.02099771
v -0.00324792 0.07571069 0.05871464
v 0.01341438 0.09307374 0.05146775
v -0.07350444 0.09388334 -0.01475172
v -0.01779548 0.07748619 0.05608724
v -0.01137866 0.07987715 0.05769888
v 0.00273814 0.07910568 0.05671919
v -0.06189586 0.15424247 -0.0190186
v 0.01579974 0.12901416 0.01323687
v -0.01170342 0.09735572 0.05159208
v 0.00239297 0.13162713 0.0119551
v -0.09364421 0.11789378 0.01866208
v -0.04537646 0.08238355 0.04328212
v -0.03650546 0.08115226 0.04316232
v 0.00818481 0.08075617 0.05537451
v -0.0824716 0.1162413 -0.00232363
v -0.02753848 0.07996478 0.04769721
v -0.06243324 0.08403527 0.04420312
v -0.05523834 0.08199945 0.04498477
v -0.08616148 0.10838594 0.01824492
v -0.08672301 0.09991725 0.00355371
v -0.0224137 0.08328352 0.0555907
v -0.0021452 0.11143287 0.04243662
v -0.06112104 0.1556966 0.02251705
v -0.03753854 0.12744127 0.01532087
v -0.02998201 0.0854023 0.04374508
v -0.04900084 0.08622168 0.04535204
v -0.0108726 0.08882677 0.05666549
v -0.04902007 0.11771293 0.03158143
v -0.05768453 0.15561695 0.01298311
v -0.08577755 0.09170137 -4.697e-05
v -0.00124391 0.0890932 0.05655212
v 0.0094076 0.09032805 0.05421414
v -0.07369669 0.15613015 0.01435979
v -0.06559238 0.0910424 0.04409208
v 0.03910844 0.10829072 0.01314233
v -0.04541156 0.09100213 0.04325277
v -0.04451455 0.09486042 0.04297249
v -0.03564224 0.09261741 0.04423849
v -0.00898303 0.16926449 -0.02268348
v -0.06011714 0.09555291 0.04418382
v -0.02437993 0.09586645 0.04443453
v 0.01697345 0.09710662 0.04744092
v -0.06723198 0.09917395 0.04159388
v -0.02011064 0.12504545 0.02358831
v -0.03973825 0.10215357 0.04057441
v 0.0071936 0.09885947 0.04841951
v 0.0134871 0.1007642 0.04745429
v -0.07143369 0.07757352 0.03806076
v -0.06846643 0.13498146 -0.00833598
v -0.07468381 0.107861 -0.00904771
v -0.0789317 0.15093057 0.0351519
v -0.07411355 0.09944252 0.03833771
v -0.02915118 0.10197369 0.04263306
v 0.00425159 0.10523743 0.04256355
v -0.07214195 0.10536685 0.03752321
v -0.05530898 0.10365394 0.04151669
v -0.01551334 0.10436131 0.04291942
v -0.00780469 0.10516619 0.04382546
v -0.05420137 0.1145173 0.03484399
v -0.0637824 0.1103727 0.03757979
v -0.05074939 0.10928682 0.03829758
v -0.08004357 0.09208016 -0.00941982
v -0.05107908 0.09389281 -0.02176169
v -0.07394537 0.08437488 -0.01515449
v 0.01668846 0.0369766 0.0430006
v -0.05227733 0.11775075 0.03376946
v -0.00737751 0.03898843 0.04892945
v 0.01323466 0.03845306 0.04450147
v 0.01948735 0.04080929 0.04264106
v 0.0025822 0.10747582 -0.02060603
v -0.05098041 0.13486613 0.027585
v -0.01761801 0.03891117 0.05240344
v -0.01971175 0.16829145 -0.01302096
v -0.06406724 0.09017219 -0.01885552
v 0.02031915 0.10041961 0.04576052
v -0.05733534 0.12340101 0.04023147
v 0.02262521 0.04362168 0.04090458
v -0.04276416 0.15727487 0.00520162
v -0.06375729 0.10251144 -0.0174844
v -0.03407043 0.16148975 -0.01378696
v -0.0821915 0.0756102 0.01654262
v -0.06629942 0.12337119 0.05061592
v 0.0258218 0.04632661 0.03827723
v 0.02385576 0.10616625 0.03937808
v 0.05266309 0.04767362 0.02120127
v -0.03007161 0.17258324 -0.00635977
v -0.03450805 0.15447469 0.00165046
v 0.01674344 0.048439 0.04367863
v 0.02882705 0.09213337 0.04392009
v -0.03788539 0.16199719 0.00024686
v -0.04488228 0.15052959 0.00764517
v -0.01625752 0.1603125 -0.0096926
v -0.0639263 0.16792441 -0.04073042
v 0.04131877 0.09949674 0.02427575
v 0.01405522 0.05252391 0.04859388
v 0.05595734 0.05314741 0.02319772
v -0.03993796 0.1492285 0.00160172
v -0.0469888 0.12600802 0.0269855
v 0.01920463 0.05516651 0.04772215
v 0.05182373 0.0532767 0.02792701
v 0.04471785 0.09480266 0.01202471
v -0.01838313 0.18543664 -0.01713637
v 0.0117454 0.05667834 0.05191406
v 0.02895261 0.05612525 0.04038897
v 0.05767943 0.06139297 0.02420179
v -0.05829864 0.138855 0.03293746
v -0.05603276 0.13731083 0.03197059
v -0.06214562 0.13599775 0.03670097
v 0.02012695 0.06385133 0.04791966
v 0.03597176 0.06666961 0.0377814
v 0.03304458 0.10766252 0.03191615
v 0.02338677 0.07007599 0.04701262
v 0.02936287 0.06650978 0.04228938
v 0.03702718 0.09394963 -0.01167404
v 0.03989968 0.07029482 0.03272002
v -0.01581544 0.17504938 -0.01865416
v -0.06109602 0.1170165 0.03965402
v -0.06559994 0.11329504 0.04231871
v 0.0289824 0.07408848 0.04344724
v 0.04487254 0.07551671 0.02315525
v -0.07822523 0.14962481 -0.00250194
v -0.05236903 0.14682913 0.01893465
v 0.0226875 0.07514918 0.0493125
v -0.08948084 0.13839976 0.02506145
v 0.01407427 0.07665172 0.05422135
v 0.03129876 0.07590744 0.04269906
v -0.04556989 0.14663612 0.00565142
v 0.03088504 0.07899948 0.04338877
v -0.02917729 0.17619959 -0.00562411
v 0.01318912 0.08421118 0.05306583
v -0.06375713 0.15912175 -0.05015573
v -0.01852762 0.17653197 -0.01704354
v -0.07772146 0.11355888 0.04815599
v 0.03841359 0.08748993 0.03518585
v -0.06194593 0.16479234 -0.05664767
v 0.03614382 0.0844392 0.03793693
v 0.02587286 0.08848229 0.04665526
v -0.07737826 0.15764266 -0.01413365
v -0.09290734 0.12307021 0.03652323
v 0.02842334 0.08801108 0.0442342
v -0.07591778 0.1499769 -0.01684205
v 0.01859657 0.03529394 -0.00867822
v 0.0172098 0.0352594 -0.01468516
v 0.03833591 0.03883083 0.00309381
v 0.02219292 0.03677532 -0.00209193
v 0.01963602 0.03823401 -0.01250767
v 0.04669328 0.04246532 0.00656495
v 0.01663861 0.03819609 -0.01988493
v -0.09059387 0.11373094 0.01027677
v -0.06254169 0.17679461 -0.05782182
v -0.01109194 0.17992082 -0.02599643
v -0.06237257 0.15313041 -0.02899712
v 0.05298796 0.04774769 0.005042
v 0.0319129 0.09987006 -0.01462098
v -0.04866364 0.13638523 0.00680639
v 0.02391124 0.09802167 -0.02080729
v -0.02188242 0.11087418 -0.01969532
v -0.0538318 0.14981693 0.02506661
v 0.04594182 0.04813882 -0.00387157
v 0.02920777 0.04745025 -0.00850818
v 0.02663726 0.0476071 -0.01642774
v 0.01912008 0.04716775 -0.02211468
v -0.0157822 0.10072957 -0.02372413
v -0.06251417 0.17213119 -0.0527881
v -0.08276186 0.11162341 0.04422146
v -0.06361674 0.14801371 -0.02017026
v -0.05149269 0.13796388 0.02366218
v 0.05031813 0.05278637 -0.00341663
v -0.06268195 0.16744086 -0.04571389
v -0.03892114 0.03376739 -0.02904256
v -0.06879619 0.03511772 -0.00520674
v 0.05979814 0.05684018 0.01334273
v -0.07703956 0.07196702 0.02640507
v -0.06306989 0.15897471 -0.04295185
v 0.03570669 0.05608304 -0.00899933
v 0.05742175 0.05601221 0.00402456
v -0.01722441 0.09521409 -0.0320853
v -0.02776207 0.12068537 -0.00901529
v 0.02425186 0.05645747 -0.0242548
v 0.03094044 0.06051808 -0.01813272
v -0.00922961 0.17314463 -0.02419766
v 0.05983724 0.06642318 0.00851394
v -0.08315935 0.14674277 0.00307579
v -0.07144833 0.18105301 -0.05547855
v 0.03498179 0.06774079 -0.01568321
v -0.07116895 0.14740156 -0.02759094
v 0.05988667 0.06851305 0.01617161
v -0.06140699 0.17268822 -0.05826575
v 0.02499074 0.06589732 -0.02356827
v -0.07485275 0.14993112 -0.02775294
v -0.06222569 0.0602652 0.02044929
v -0.06200194 0.03643502 0.04391894
v -0.03612504 0.12286688 -0.00829279
v 0.02921651 0.06785025 -0.02041857
v -0.0416817 0.12575112 -0.00701933
v -0.04843435 0.13754973 0.01324498
v -0.08931316 0.13653006 0.03045875
v -0.07423019 0.15652681 -0.02516709
v 0.02632181 0.07024065 -0.02387868
v 0.04334214 0.07167612 -0.00223046
v 0.01309699 0.09112648 -0.02926977
v 0.04562 0.07468443 0.00260739
v -0.0930398 0.12026416 0.01121682
v 0.04551119 0.08695305 0.00388655
v 0.04496022 0.08094263 0.00061119
v 0.03386449 0.07865669 -0.01763249
v -0.07291636 0.0650574 0.01879462
v -0.09094969 0.13895375 0.01737113
v 0.04628088 0.07870202 0.01478633
v 0.04210691 0.08153316 -0.00666909
v -0.03742022 0.0454285 -0.02422679
v -0.08514891 0.1396552 0.00248085
v -0.0633133 0.16503258 -0.03289512
v 0.04463114 0.08417838 0.00082665
v -0.06437103 0.17296209 -0.04922566
v -0.0741587 0.17987275 -0.05079475
v -0.08149667 0.15473104 0.01969734
v -0.0137085 0.1849115 -0.02554955
v -0.04346534 0.12451145 0.02251889
v -0.07374808 0.15539253 0.00234917
v -0.03135885 0.12140977 0.02597109
v -0.04293064 0.12928436 0.00927007
v -0.08656194 0.14249188 0.00843268
v -0.08356095 0.15255943 0.00768067
v -0.08882645 0.09048332 0.0212047
v 0.03083572 0.11554234 -0.00317855
v 0.03281993 0.11655625 0.00444586
v -0.08940816 0.14352815 0.03092475
v -0.07091976 0.17136688 -0.03276375
v 0.02572594 0.12122705 -3.615e-05
v 0.05153713 0.07349669 0.0126987
v -0.07256706 0.1475323 0.04171409
v 0.0253435 0.1237475 0.00998188
v 0.00867844 0.12894574 0.02615688
v -0.06850422 0.16732018 -0.02395957
v 0.00096836 0.13064303 0.00258659
v -0.02285164 0.09063504 0.05228046
v -0.06481132 0.03453064 0.01550844
v -0.06430026 0.03508645 0.02427205
v -0.06672702 0.03589577 0.03384943
v -0.07689009 0.13041906 -0.00695701
v -0.07253973 0.03539927 0.00702988
v -0.06639203 0.03771235 0.02962195
v -0.03949475 0.03755157 0.0428709
v -0.07201603 0.0375727 0.00397894
v -0.06112567 0.03779005 0.0197109
v -0.03514596 0.03858592 0.04773269
v -0.06441576 0.04128384 0.02824348
v -0.08585634 0.09702539 0.02741496
v -0.06999732 0.04207308 0.00668978
v -0.08037933 0.09780066 0.03364575
v 0.02585506 0.08961066 -0.02270184
v -0.07764496 0.08221494 0.03579766
v -0.03445385 0.04456396 0.04542299
v -0.01511958 0.09993002 0.04450027
v -0.05785299 0.0464445 0.01106261
v -0.05181526 0.16392582 0.00174888
v -0.07884915 0.11867375 0.05062287
v -0.08005037 0.11670406 0.04876246
v -0.05251364 0.04757788 0.01485844
v -0.09223775 0.12488519 0.04078653
v -0.08591877 0.14263412 0.03984981
v -0.05016872 0.05346226 0.01625544
v -0.08876373 0.11944938 0.04656009
v -0.05606751 0.05347063 0.00737182
v -0.0866051 0.13226807 0.04678302
v -0.05290982 0.05704307 0.02098841
v -0.08353979 0.08116956 0.02701407
v -0.06278668 0.1127419 -0.01360544
v 0.00994449 0.10919723 -0.01947281
v -0.05826563 0.09092639 -0.02094869
v -0.06048358 0.15567975 0.00433438
v -0.07408436 0.14987744 -0.03261005
v -0.05267578 0.08822074 -0.0218863
v -0.0316939 0.10261265 -0.02235231
v -0.0737904 0.12016662 -0.00788512
v -0.04553288 0.03473648 -0.0213632
v -0.04499303 0.03901701 -0.02109783
v -0.04646261 0.03680027 -0.01777871
v -0.07758718 0.17717875 -0.05022109
v -0.06308703 0.03961417 0.02518156
v -0.07230302 0.15186699 -0.04154431
v -0.04699058 0.03889238 -0.01401692
v -0.07012167 0.16882633 -0.05117365
v -0.0480697 0.12493027 -0.00840764
v -0.08310943 0.10265445 -0.00329334
v -0.0654728 0.04562757 0.00455754
v -0.05447342 0.04593751 0.0236126
v -0.06025526 0.04474962 -0.00413162
v -0.09100365 0.14885725 0.02150703
v -0.0395199 0.17385855 -0.00757526
v -0.03395731 0.04102506 -0.02966025
v -0.05851589 0.04773131 0.00021246
v -0.03741645 0.04768213 -0.01714728
v -0.05442072 0.04783652 -0.00591869
v 0.00941157 0.12350285 -0.0098291
v -0.0327157 0.10896631 -0.01894141
v -0.03113338 0.04960726 -0.01940694
v -0.0502905 0.04909893 0.01716478
v -0.05567396 0.05698385 -0.00335104
v -0.02754591 0.05402157 -0.02514739
v -0.09223262 0.131954 0.01543065
v -0.05406648 0.05995935 -0.00759922
v 0.02181502 0.11770533 -0.0100153
v -0.02964712 0.05810426 -0.02131132
v 0.01046428 0.09618045 -0.02589897
v 0.05290641 0.06523045 -0.00051112
v -0.01832068 0.11968625 -0.01111066
v -0.02544562 0.06020855 -0.0308647
v -0.03032487 0.06769472 -0.02765495
v 0.01353349 0.10255388 -0.02157931
v -0.0720285 0.06704661 -0.00072256
v -0.02868068 0.0682835 -0.03061016
v -0.08125743 0.0730252 0.00710204
v -0.00082448 0.09516512 -0.03205632
v -0.07761883 0.07399913 -0.00532635
v -0.06854389 0.17513008 -0.0571879
v -0.09020572 0.14947775 0.01303509
v -0.02908746 0.07292463 -0.03335447
v -0.08620462 0.08093075 0.01053542
v -0.08154276 0.07795066 0.02672728
v 0.02666617 0.11268609 -0.01050954
v -0.03321096 0.07687319 -0.02770838
v -0.07928595 0.08004883 -0.00701255
v -0.0446974 0.11791537 -0.01472586
v -0.0834485 0.13393299 -0.00168732
v -0.01250182 0.10634409 -0.02236019
v -0.0882842 0.08686911 0.00810292
v -0.08881256 0.08776549 0.01422654
v -0.08800107 0.08662643 0.01546668
v -0.07777055 0.08784484 -0.01169481
v -0.05112141 0.16374125 -0.00266405
v -0.01041117 0.09459234 -0.03378485
v -0.01242992 0.10286006 -0.02382248
v 0.01580015 0.11996558 -0.01141563
v 0.04576943 0.0646288 -0.00121661
v -0.01009087 0.09822965 -0.02773136
v -0.03089295 0.04740903 -0.024954
v -0.00668781 0.11747209 -0.01535928
v -0.01322027 0.18397188 -0.02751946
v -0.04785945 0.11162729 -0.01748212
v -0.05513975 0.11051601 -0.01767274
v -0.06199357 0.15028063 -0.00162971
v 0.03668402 0.1009957 -0.00984859
v -0.05971053 0.03653578 -0.0094949
v 0.03155543 0.09248473 -0.01820428
v -0.00067307 0.10119875 -0.02285777
v -0.05621514 0.14139213 -0.00280273
v -0.00935695 0.08542373 -0.03811254
v -0.03984279 0.12156113 -0.01157031
v 0.05000082 0.06161207 -0.00346499
v -0.0254259 0.04142101 -0.02920483
v -0.05053938 0.13336659 -0.00108722
v -0.00781631 0.12821209 -0.00194304
v -0.00438224 0.12640753 -0.00694952
v 0.00140857 0.03478199 -0.0232652
v -0.0148462 0.03507093 -0.0260719
v -0.0213995 0.03479512 -0.02795882
v -0.02759704 0.16979824 -0.01817042
v -0.00684782 0.03644454 -0.02517712
v 0.02900777 0.03735822 -0.00027474
v -0.06515615 0.14034537 -0.00768486
v 0.00518207 0.04153632 -0.02406567
v -0.00170334 0.0478192 -0.02992893
v 0.03689089 0.0473532 -0.00610571
v -0.01375377 0.05186506 -0.03224348
v 0.0059436 0.05097666 -0.02911936
v -0.02552829 0.05147271 -0.02688468
v 0.00683417 0.05501017 -0.03056113
v 0.00214247 0.0555028 -0.0313344
v -0.06108427 0.1338619 -0.00722489
v -0.04330976 0.05565684 -0.01140211
v -0.00589038 0.03479062 -0.02422447
v 0.01071104 0.05468761 -0.02976752
v -0.00523259 0.05568896 -0.03284022
v -0.03526256 0.0552849 -0.01054506
v -0.01446691 0.06313602 -0.03686587
v -0.04553056 0.09851085 -0.02172951
v 0.01147133 0.06758144 -0.03090117
v -0.01773936 0.06626083 -0.03765731
v -0.05614789 0.06192155 -0.00575411
v -0.00592505 0.06951563 -0.03593348
v -0.02191135 0.06714479 -0.03653575
v -0.07595081 0.06817061 0.01811797
v -0.01797607 0.07061377 -0.03844388
v -0.03526304 0.07106765 -0.01801186
v -0.05283173 0.07029892 -0.01486496
v 0.0087503 0.07430156 -0.03339821
v -0.04435401 0.07337222 -0.01787443
v -0.0720716 0.07153815 -0.00747144
v 0.02547293 0.0740945 -0.02493854
v -0.06439255 0.07311633 -0.01533534
v -0.02385433 0.16164528 -0.01450419
v -0.05110362 0.07307195 -0.01624306
v -0.00534334 0.07826458 -0.03747694
v -0.03811782 0.07639012 -0.01864436
v -0.03920697 0.08153638 -0.020571
v -0.05767694 0.08625834 -0.02109832
v -0.02116286 0.17491852 -0.02197711
v -0.00534863 0.03382901 -0.02260043
v -0.02367146 0.03363097 -0.02321776
v 0.00173239 0.03445966 -0.01660787
v -0.03697052 0.03568036 -0.01500779
v -0.02008631 0.03806445 -0.01722079
v -0.01111325 0.03829029 -0.01564636
v -0.02785147 0.03840433 -0.01721042
v 0.00741471 0.03465919 -0.00301168
v 0.00397347 0.03820855 -0.00379635
v -0.01952351 0.03850521 -0.00454345
v 0.00232623 0.0353482 0.0023246
v 0.0140143 0.0357038 0.00388789
v -0.0380666 0.0385186 -0.00730796
v -0.05273006 0.0334979 -0.00181175
v -0.041271 0.0338554 -0.00188008
v 0.00314923 0.03412531 0.01176222
v 0.02824862 0.03504637 0.0160167
v -0.06703297 0.06514596 0.02729286
v -0.0331634 0.0381954 -0.0005252
v -0.05860408 0.03346223 -0.00021667
v -0.0373144 0.033633 0.00457247
v -0.01042399 0.03848857 0.00622927
v 0.0214998 0.0358071 0.0181694
v 0.00810435 0.0348429 0.0181346
v 0.02358946 0.0358906 0.02533769
v 0.04126135 0.04058507 0.02075193
v -0.05135087 0.0336457 0.00803294
v 0.0132792 0.0343795 0.0214237
v 0.0143227 0.0344255 0.0215932
v -0.0303071 0.0339954 0.0147064
v 0.03358413 0.03830393 0.02292867
v -0.05822597 0.06660731 0.03505028
v -0.0298032 0.034287 0.0163531
v -0.05768056 0.03362269 0.01404031
v -0.0288615 0.0353967 0.01735
v -0.0265805 0.0377426 0.0157053
v -0.0382796 0.035429 0.0243806
v -0.06464419 0.06172323 0.00022552
v -0.08882776 0.11359169 0.02387364
v -0.05184771 0.03447027 0.03463518
v -0.00496131 0.0393649 0.0367022
v -0.0804691 0.11357963 0.04664344
v -0.0336564 0.0343441 0.0369141
v -0.06854352 0.06109048 0.01055776
v -0.00282619 0.03488534 0.04561141
v -0.0181599 0.0393223 0.0394029
v -0.08564473 0.11131719 0.03423478
v -0.0263231 0.034658 0.0434735
v -0.07279013 0.06439988 0.01520595
v -0.0368986 0.03592464 0.04479417
v -0.07280136 0.06438259 0.01208908
v -0.01530644 0.03524641 0.05013381
v -0.04375572 0.14773408 -0.00214332
v -0.06670071 0.15236775 -0.04526639
f 24 397 9
f 319 335 13
f 98 86 381
f 460 66 342
f 126 255 10
f 139 323 2
f 66 116 342
f 116 66 1
f 322 335 321
f 1 150 67
f 116 1 67
f 93 32 48
f 56 93 48
f 12 13 100
f 331 91 435
f 366 405 369
f 290 322 321
f 264 129 49
f 336 116 114
f 230 408 101
f 408 329 37
f 93 41 32
f 157 94 338
f 186 465 499
f 160 15 128
f 265 274 259
f 454 261 459
f 66 150 1
f 311 310 308
f 149 158 140
f 116 67 7
f 149 161 158
f 258 237 280
f 261 233 197
f 187 426 420
f 150 51 67
f 30 23 16
f 274 282 259
f 78 320 311
f 316 78 311
f 3 51 150
f 104 123 154
f 306 311 308
f 51 327 67
f 435 91 126
f 37 382 121
f 60 61 35
f 146 149 140
f 487 406 543
f 167 166 149
f 111 120 138
f 124 123 104
f 140 123 146
f 296 379 292
f 123 124 146
f 162 149 146
f 162 167 149
f 30 60 35
f 51 31 327
f 468 477 155
f 468 247 272
f 253 522 250
f 181 190 153
f 400 317 276
f 162 143 167
f 152 153 160
f 111 138 137
f 132 124 104
f 143 162 146
f 211 278 92
f 272 292 258
f 81 95 233
f 124 143 146
f 46 75 21
f 342 116 336
f 128 15 7
f 25 46 21
f 118 104 102
f 118 132 104
f 143 132 142
f 143 124 132
f 11 19 97
f 118 142 132
f 165 204 134
f 19 184 97
f 424 330 329
f 341 13 12
f 76 105 102
f 105 118 102
f 45 204 165
f 329 318 37
f 167 151 165
f 151 31 165
f 31 45 165
f 396 424 329
f 143 151 167
f 117 245 303
f 73 160 128
f 46 72 76
f 142 118 143
f 237 241 270
f 128 163 164
f 153 15 160
f 39 46 25
f 105 119 118
f 119 143 118
f 261 197 302
f 152 160 73
f 144 143 119
f 144 151 143
f 72 105 76
f 90 119 105
f 30 61 60
f 196 11 184
f 119 131 144
f 9 192 235
f 39 72 46
f 148 153 152
f 388 237 559
f 108 148 152
f 68 72 39
f 90 105 72
f 131 151 144
f 131 159 151
f 53 68 39
f 68 90 72
f 159 31 151
f 9 235 57
f 63 112 111
f 226 315 84
f 147 159 131
f 4 31 159
f 54 68 53
f 67 31 4
f 153 148 181
f 34 54 22
f 340 116 7
f 4 159 147
f 128 7 71
f 63 61 77
f 13 341 319
f 278 282 288
f 198 145 8
f 163 361 115
f 107 63 111
f 87 112 63
f 394 74 369
f 29 54 34
f 54 29 55
f 22 29 34
f 67 71 7
f 233 558 193
f 163 4 147
f 87 231 120
f 108 152 138
f 22 178 29
f 114 116 43
f 127 110 111
f 340 7 6
f 300 305 497
f 133 137 115
f 397 11 9
f 306 316 311
f 153 190 15
f 120 112 87
f 29 40 55
f 133 343 111
f 58 62 42
f 133 115 343
f 329 289 318
f 87 63 77
f 58 65 62
f 55 82 110
f 67 4 163
f 110 82 111
f 207 310 78
f 29 35 40
f 43 116 340
f 178 23 29
f 128 67 163
f 35 61 63
f 23 30 35
f 63 82 40
f 164 163 115
f 128 71 67
f 120 111 112
f 23 35 29
f 40 35 63
f 111 137 133
f 63 107 82
f 107 111 82
f 126 91 255
f 209 77 61
f 557 550 178
f 350 25 18
f 202 58 206
f 201 194 205
f 267 252 254
f 311 320 310
f 209 215 77
f 197 228 302
f 41 94 32
f 332 47 450
f 93 188 41
f 27 6 15
f 202 206 191
f 69 196 193
f 224 188 14
f 211 92 65
f 234 246 243
f 223 188 224
f 242 240 234
f 263 433 269
f 324 222 257
f 58 202 65
f 41 214 94
f 191 206 58
f 166 224 161
f 223 41 188
f 84 240 216
f 65 221 216
f 183 189 174
f 223 182 41
f 214 50 94
f 189 210 194
f 65 216 62
f 166 223 224
f 265 259 253
f 215 209 201
f 167 165 223
f 166 167 223
f 223 165 182
f 6 7 15
f 49 50 214
f 233 203 197
f 213 41 182
f 213 214 41
f 213 212 214
f 214 212 49
f 282 413 288
f 69 186 499
f 21 17 18
f 25 21 18
f 264 228 135
f 236 225 108
f 194 210 205
f 210 215 201
f 182 204 213
f 33 42 189
f 218 229 231
f 172 182 165
f 212 213 49
f 205 210 201
f 225 236 231
f 182 134 204
f 210 216 219
f 28 235 192
f 174 189 194
f 134 182 172
f 500 493 498
f 243 148 108
f 134 172 165
f 204 177 213
f 218 77 215
f 78 141 200
f 207 84 315
f 77 218 231
f 243 108 225
f 238 208 28
f 404 474 458
f 213 177 49
f 238 222 208
f 198 69 20
f 148 190 181
f 93 14 188
f 195 148 243
f 217 79 27
f 108 138 236
f 234 195 246
f 234 243 225
f 179 192 196
f 197 184 19
f 210 219 225
f 174 30 16
f 174 194 30
f 22 353 555
f 310 207 308
f 84 79 217
f 20 499 198
f 179 196 69
f 222 238 28
f 315 308 207
f 33 531 42
f 236 120 231
f 446 324 257
f 77 231 87
f 288 413 337
f 226 84 221
f 219 232 225
f 219 234 232
f 198 179 69
f 240 195 234
f 216 234 219
f 282 278 259
f 195 84 217
f 294 256 270
f 86 403 381
f 221 84 216
f 217 27 15
f 194 201 30
f 253 259 191
f 355 91 331
f 444 404 458
f 161 149 166
f 222 28 179
f 62 216 210
f 192 9 196
f 210 225 218
f 189 183 175
f 317 444 458
f 240 242 216
f 200 79 84
f 225 232 234
f 240 84 195
f 193 184 197
f 184 11 97
f 316 103 78
f 115 128 164
f 193 196 184
f 30 201 209
f 173 23 178
f 236 138 120
f 225 229 218
f 195 190 148
f 229 225 231
f 499 145 198
f 11 196 9
f 210 218 215
f 195 217 190
f 241 294 270
f 202 211 65
f 482 404 400
f 179 28 192
f 325 204 45
f 243 246 195
f 42 62 189
f 198 8 179
f 389 482 400
f 62 210 189
f 208 24 28
f 216 242 234
f 208 222 324
f 96 380 169
f 175 183 174
f 235 28 57
f 15 190 217
f 258 36 113
f 280 319 36
f 199 319 280
f 285 286 267
f 33 530 536
f 37 309 101
f 309 117 101
f 245 367 372
f 113 12 81
f 222 287 257
f 453 412 421
f 291 103 316
f 257 287 145
f 374 331 187
f 331 435 436
f 312 300 497
f 78 260 450
f 255 309 10
f 461 342 445
f 312 103 291
f 303 368 334
f 78 220 260
f 78 310 320
f 269 283 98
f 187 331 426
f 145 287 222
f 435 126 434
f 286 281 267
f 356 352 362
f 331 436 426
f 64 367 245
f 345 354 387
f 230 396 329
f 175 33 189
f 490 187 420
f 365 14 364
f 89 269 440
f 506 479 462
f 550 23 173
f 10 309 37
f 175 530 33
f 252 266 251
f 302 228 52
f 366 362 352
f 413 274 457
f 237 199 280
f 300 312 291
f 230 334 396
f 275 321 199
f 334 2 396
f 252 251 248
f 291 316 306
f 270 275 199
f 237 270 199
f 394 405 366
f 314 230 329
f 267 266 252
f 291 306 281
f 329 330 289
f 36 258 280
f 267 281 266
f 78 450 47
f 286 300 291
f 47 141 78
f 270 321 275
f 228 264 49
f 286 291 281
f 27 79 200
f 503 86 416
f 228 177 273
f 259 278 191
f 193 197 203
f 408 230 314
f 427 374 187
f 273 177 52
f 388 258 292
f 78 200 207
f 92 278 293
f 202 278 211
f 503 416 502
f 228 273 52
f 228 49 177
f 191 278 202
f 288 293 278
f 207 200 84
f 200 141 27
f 44 247 468
f 322 59 335
f 12 38 81
f 85 261 328
f 337 92 293
f 58 42 531
f 49 70 50
f 288 337 293
f 454 233 261
f 38 12 326
f 70 2 157
f 226 26 337
f 303 334 230
f 465 24 208
f 117 255 125
f 308 315 337
f 337 315 226
f 101 408 37
f 91 125 255
f 323 139 330
f 52 325 45
f 129 106 49
f 323 396 2
f 66 3 150
f 38 326 139
f 199 321 335
f 49 106 70
f 319 12 36
f 298 17 354
f 321 270 256
f 325 52 204
f 117 303 101
f 70 157 50
f 106 2 70
f 328 52 130
f 101 303 230
f 130 51 3
f 135 197 19
f 139 106 129
f 51 45 31
f 135 129 264
f 100 244 12
f 38 139 135
f 2 334 157
f 130 52 51
f 38 135 378
f 139 2 106
f 283 425 98
f 328 261 52
f 113 36 12
f 326 330 139
f 52 45 51
f 290 321 256
f 135 139 129
f 141 43 27
f 261 302 52
f 396 323 330
f 85 130 3
f 378 135 19
f 9 57 28
f 141 333 43
f 354 352 387
f 85 328 130
f 47 333 141
f 47 332 333
f 52 177 204
f 354 394 352
f 6 27 43
f 338 94 50
f 152 73 138
f 333 339 43
f 157 338 50
f 332 336 333
f 336 339 333
f 115 137 73
f 61 30 209
f 341 12 319
f 113 272 258
f 354 75 394
f 24 9 28
f 336 114 339
f 339 114 43
f 147 115 361
f 43 340 6
f 199 335 319
f 436 435 426
f 39 25 360
f 39 54 53
f 372 368 245
f 186 24 465
f 55 40 82
f 487 493 478
f 122 131 119
f 128 115 73
f 360 25 350
f 222 179 145
f 48 32 372
f 373 74 297
f 127 111 343
f 360 22 39
f 343 147 131
f 468 272 113
f 298 354 346
f 372 32 368
f 368 94 157
f 123 140 154
f 326 12 244
f 332 428 336
f 354 17 21
f 354 349 346
f 365 48 372
f 21 75 354
f 555 353 350
f 467 266 250
f 154 140 359
f 55 110 127
f 92 337 65
f 90 55 127
f 140 357 359
f 76 75 46
f 90 127 122
f 349 354 345
f 366 369 371
f 289 432 318
f 343 115 147
f 482 478 411
f 180 109 185
f 39 22 54
f 193 203 233
f 348 344 351
f 344 356 351
f 32 94 368
f 492 503 502
f 158 357 140
f 90 122 119
f 355 99 91
f 127 131 122
f 364 93 365
f 22 360 353
f 186 11 24
f 412 417 262
f 504 96 498
f 357 158 161
f 374 357 355
f 335 100 13
f 98 381 269
f 56 48 365
f 356 362 393
f 127 343 131
f 155 289 44
f 54 55 90
f 19 363 378
f 366 371 362
f 305 300 295
f 352 356 344
f 64 370 367
f 19 11 363
f 239 14 365
f 559 237 258
f 357 161 355
f 355 161 99
f 365 372 367
f 388 559 258
f 56 365 93
f 374 359 357
f 353 360 350
f 334 368 157
f 370 365 367
f 441 262 376
f 402 376 176
f 395 389 451
f 423 390 290
f 386 322 290
f 390 241 237
f 59 386 290
f 390 59 290
f 322 386 59
f 388 304 390
f 245 368 303
f 390 304 59
f 379 304 388
f 508 251 513
f 433 89 440
f 415 419 425
f 304 335 59
f 419 416 425
f 429 98 425
f 402 176 445
f 304 80 335
f 411 416 415
f 415 416 419
f 415 474 411
f 405 394 369
f 137 138 73
f 407 411 474
f 425 416 429
f 355 331 374
f 163 147 361
f 429 86 98
f 80 100 335
f 416 86 429
f 304 100 80
f 474 404 407
f 506 466 479
f 292 247 296
f 296 247 379
f 384 276 383
f 407 404 411
f 292 272 247
f 247 244 379
f 379 244 304
f 411 492 416
f 383 385 384
f 400 404 317
f 416 492 502
f 304 244 100
f 384 400 276
f 75 74 394
f 389 384 385
f 351 356 277
f 389 400 384
f 394 366 352
f 67 327 31
f 410 428 262
f 74 373 369
f 396 330 424
f 404 482 411
f 22 350 548
f 314 329 408
f 336 402 342
f 26 226 221
f 446 257 5
f 437 168 109
f 91 99 125
f 358 307 412
f 463 464 458
f 397 24 11
f 170 168 437
f 439 501 455
f 44 227 247
f 255 117 309
f 403 263 381
f 430 168 170
f 342 402 445
f 445 89 263
f 399 406 409
f 496 418 422
f 426 435 434
f 430 136 168
f 136 156 168
f 89 453 443
f 227 326 244
f 247 227 244
f 487 418 496
f 392 156 136
f 289 227 44
f 393 395 277
f 543 418 487
f 418 420 422
f 430 420 136
f 10 156 392
f 317 404 444
f 136 10 392
f 438 363 95
f 356 393 277
f 395 393 399
f 422 420 430
f 358 452 312
f 432 289 347
f 378 438 95
f 371 406 399
f 378 363 438
f 126 10 136
f 37 318 432
f 330 326 227
f 362 371 399
f 289 330 227
f 420 434 136
f 434 126 136
f 14 93 364
f 362 399 393
f 420 426 434
f 121 10 37
f 428 332 262
f 262 358 412
f 443 453 421
f 269 89 443
f 294 241 256
f 428 410 441
f 452 358 262
f 308 281 306
f 452 103 312
f 220 103 452
f 508 514 516
f 300 286 295
f 66 414 403
f 342 461 460
f 284 431 299
f 308 442 281
f 90 68 54
f 445 176 89
f 443 439 283
f 442 457 281
f 269 443 283
f 262 260 220
f 445 263 414
f 378 449 38
f 449 81 38
f 412 307 421
f 458 398 317
f 378 81 449
f 402 441 376
f 95 81 378
f 454 468 81
f 3 66 284
f 66 460 445
f 250 266 253
f 414 263 403
f 454 81 233
f 460 461 445
f 284 66 403
f 221 65 26
f 391 448 375
f 88 391 375
f 336 441 402
f 262 417 376
f 66 445 414
f 3 284 85
f 459 85 454
f 454 85 391
f 431 448 391
f 220 452 262
f 308 337 413
f 261 85 459
f 413 282 274
f 85 301 391
f 431 169 447
f 336 428 441
f 193 558 69
f 262 450 260
f 301 456 391
f 456 431 391
f 443 421 439
f 26 65 337
f 412 176 417
f 332 450 262
f 453 176 412
f 431 403 169
f 410 262 441
f 312 497 358
f 431 456 301
f 299 431 301
f 395 399 401
f 413 442 308
f 413 457 442
f 69 499 20
f 284 301 85
f 284 299 301
f 208 324 5
f 284 403 431
f 168 156 109
f 156 382 375
f 347 289 155
f 274 265 457
f 389 395 401
f 493 495 478
f 398 464 463
f 422 498 496
f 253 266 265
f 266 471 265
f 265 281 457
f 422 170 498
f 169 185 448
f 265 471 281
f 121 382 156
f 88 155 477
f 180 185 169
f 495 493 500
f 88 477 391
f 478 482 389
f 477 468 454
f 377 380 504
f 377 169 380
f 492 495 503
f 487 399 409
f 269 433 440
f 169 448 447
f 504 380 96
f 11 186 558
f 487 478 399
f 170 437 109
f 228 197 135
f 422 430 170
f 69 558 186
f 170 109 498
f 286 285 295
f 467 251 266
f 81 468 113
f 399 478 401
f 439 421 501
f 382 155 88
f 254 268 267
f 295 497 305
f 86 484 403
f 484 169 403
f 268 285 267
f 295 485 497
f 548 350 538
f 185 375 448
f 285 480 295
f 500 498 495
f 268 480 285
f 478 495 492
f 96 503 495
f 125 99 544
f 495 498 96
f 254 469 268
f 295 480 485
f 494 358 497
f 469 480 268
f 347 155 382
f 10 121 156
f 485 494 497
f 494 307 358
f 511 515 510
f 480 476 485
f 363 11 95
f 421 307 494
f 96 484 86
f 176 376 417
f 347 37 432
f 469 473 480
f 503 96 86
f 179 8 145
f 254 462 469
f 473 475 480
f 185 156 375
f 448 431 447
f 473 476 475
f 476 480 475
f 485 488 494
f 469 470 473
f 470 476 473
f 96 169 484
f 504 169 377
f 494 501 421
f 89 176 453
f 488 485 476
f 494 488 501
f 466 469 462
f 462 479 466
f 470 481 476
f 481 472 476
f 248 249 252
f 469 466 470
f 472 483 476
f 483 488 476
f 470 472 481
f 155 44 468
f 390 256 241
f 488 455 501
f 385 383 389
f 504 180 169
f 463 511 510
f 463 458 466
f 466 472 470
f 395 451 277
f 109 156 185
f 390 237 388
f 257 145 5
f 472 466 458
f 488 439 455
f 180 504 498
f 483 491 488
f 401 478 389
f 423 256 390
f 474 483 472
f 483 486 491
f 491 439 488
f 496 498 487
f 109 180 498
f 324 446 5
f 491 283 439
f 37 347 382
f 498 493 487
f 478 492 411
f 483 489 486
f 489 491 486
f 266 281 471
f 374 279 359
f 505 5 145
f 489 483 474
f 406 487 409
f 345 387 352
f 464 398 458
f 477 454 391
f 415 489 474
f 425 489 415
f 425 491 489
f 269 381 263
f 465 505 145
f 458 474 472
f 491 425 283
f 382 88 375
f 499 465 145
f 465 208 5
f 505 465 5
f 558 95 11
f 250 528 530
f 191 531 522
f 553 22 548
f 463 508 511
f 250 522 528
f 528 522 530
f 254 252 249
f 292 379 388
f 550 173 178
f 125 544 117
f 171 174 534
f 544 245 117
f 245 544 64
f 514 513 516
f 99 552 544
f 544 552 64
f 16 550 174
f 175 534 530
f 521 527 516
f 254 249 462
f 249 508 462
f 531 33 536
f 508 516 511
f 552 271 64
f 516 527 511
f 529 541 527
f 370 64 271
f 513 251 517
f 350 22 555
f 99 271 552
f 233 95 558
f 531 536 522
f 508 463 506
f 527 541 515
f 271 365 370
f 220 78 103
f 161 271 99
f 171 175 174
f 427 279 374
f 271 547 365
f 187 279 427
f 418 490 420
f 490 279 187
f 271 239 547
f 239 365 547
f 550 553 174
f 556 554 418
f 418 554 490
f 543 549 418
f 549 556 418
f 191 522 253
f 239 271 161
f 554 313 490
f 523 279 490
f 224 239 161
f 277 348 351
f 549 554 556
f 554 83 313
f 554 549 83
f 224 14 239
f 83 523 490
f 313 83 490
f 508 513 514
f 543 371 549
f 511 527 515
f 523 154 279
f 154 359 279
f 344 348 277
f 525 344 277
f 534 175 171
f 352 344 345
f 406 371 543
f 433 263 89
f 525 277 451
f 539 344 525
f 371 297 549
f 549 297 83
f 523 83 297
f 519 525 451
f 297 74 523
f 519 451 389
f 523 537 154
f 463 466 506
f 539 345 344
f 345 346 349
f 537 523 74
f 537 104 154
f 389 520 519
f 383 509 389
f 519 532 525
f 345 298 346
f 191 58 531
f 520 532 519
f 520 525 532
f 538 345 539
f 75 537 74
f 507 509 383
f 520 389 509
f 462 508 506
f 521 529 527
f 550 557 553
f 276 317 398
f 537 102 104
f 536 530 522
f 507 383 276
f 423 290 256
f 16 23 550
f 75 76 537
f 76 102 537
f 249 251 508
f 248 251 249
f 538 545 345
f 18 298 345
f 17 298 18
f 557 178 553
f 178 22 553
f 398 507 276
f 509 524 518
f 529 546 541
f 512 509 507
f 510 524 509
f 510 509 512
f 350 545 538
f 507 510 512
f 350 345 545
f 463 507 398
f 507 463 510
f 18 345 350
f 297 371 369
f 373 297 369
