v -0.00341018 0.13031957 0.02175437
v -0.08171916 0.15250145 0.02965609
v -0.03054348 0.12477885 0.00109834
v -0.02490159 0.11211138 0.03756024
v -0.01840568 0.17843055 -0.02421958
v 0.01906794 0.12144925 0.03196844
v -0.03439324 0.17236688 -0.00098213
v -0.08431416 0.10957263 0.00370973
v -0.06330839 0.15660615 -0.01383879
v -0.07690395 0.16708033 -0.02693136
v -0.07225392 0.1153955 0.0516703
v 0.00486894 0.03796237 0.04586763
v -0.05718055 0.04091883 0.04630134
v -0.05024227 0.15773747 0.00939445
v -0.02974875 0.03653986 0.05249331
v -0.03908818 0.1687202 -0.01192468
v 0.04976006 0.07023522 0.02373202
v 0.03402392 0.11353879 0.02459528
v -0.01753347 0.04796425 0.04882963
v -0.0759832 0.138208 0.04921658
v 0.03483844 0.04315341 0.02895431
v -0.08806457 0.12496764 0.00057412
v -0.06445701 0.15342891 -0.00511804
v -0.03430319 0.05052015 0.03828602
v -0.07648133 0.14827412 -0.00893762
v -0.0406522 0.12266506 0.0262903
v 0.03795509 0.1048871 -0.00320318
v -0.0591297 0.15039712 0.03448954
v -0.07908773 0.17044488 -0.04137317
v -0.09107873 0.11506037 0.04014181
v -0.0141697 0.12767892 0.00130805
v -0.01474603 0.06558391 0.05373086
v -0.00215139 0.09943738 0.04984975
v -0.05600139 0.06183067 0.02793115
v -0.0703258 0.06336777 0.01980918
v 0.04283111 0.08555604 0.02787376
v -0.04212149 0.12825104 0.00107515
v -0.03225787 0.0881926 -0.02513096
v -0.06189763 0.12297065 -0.00877255
v -0.00639347 0.10524472 -0.0228419
v -0.0893851 0.09902404 0.01752183
v -0.02925558 0.07516921 0.04118643
v -0.09429715 0.12617744 0.01922465
v -0.04949594 0.07343634 0.04167357
v 0.04107326 0.08872432 -0.00978794
v 0.01341438 0.09307374 0.05146775
v -0.07350444 0.09388334 -0.01475172
v -0.06243324 0.08403527 0.04420312
v -0.06846643 0.13498146 -0.00833598
v -0.07468381 0.107861 -0.00904771
v -0.07214195 0.10536685 0.03752321
v 0.01668846 0.0369766 0.0430006
v -0.03135813 0.15362199 -0.00467389
v -0.05733534 0.12340101 0.04023147
v -0.04276416 0.15727487 0.00520162
v -0.0821915 0.0756102 0.01654262
v 0.05266309 0.04767362 0.02120127
v 0.02882705 0.09213337 0.04392009
v 0.02012695 0.06385133 0.04791966
v -0.06375713 0.15912175 -0.05015573
v 0.01859657 0.03529394 -0.00867822
v 0.03833591 0.03883083 0.00309381
v -0.06237257 0.15313041 -0.02899712
v 0.05298796 0.04774769 0.005042
v -0.02188242 0.11087418 -0.01969532
v -0.03892114 0.03376739 -0.02904256
v -0.06879619 0.03511772 -0.00520674
v 0.02499074 0.06589732 -0.02356827
v 0.01309699 0.09112648 -0.02926977
v 0.04562 0.07468443 0.00260739
v 0.02572594 0.12122705 -3.615e-05
v -0.06481132 0.03453064 0.01550844
v -0.08037933 0.09780066 0.03364575
v -0.05785299 0.0464445 0.01106261
v -0.04612416 0.10506369 -0.02045758
v -0.04553288 0.03473648 -0.0213632
v -0.0628326 0.04518275 0.03462289
v -0.02754591 0.05402157 -0.02514739
v -0.05406648 0.05995935 -0.00759922
v -0.0720285 0.06704661 -0.00072256
v -0.02908746 0.07292463 -0.03335447
v 0.01673262 0.1099123 -0.01702004
v -0.05621514 0.14139213 -0.00280273
v -0.00935695 0.08542373 -0.03811254
v 0.00140857 0.03478199 -0.0232652
v -0.0148462 0.03507093 -0.0260719
v -0.01375377 0.05186506 -0.03224348
v 0.0087503 0.07430156 -0.03339821
v 0.02132474 0.03462404 0.0056444
v 0.0140143 0.0357038 0.00388789
v 0.00314923 0.03412531 0.01176222
v -0.0331634 0.0381954 -0.0005252
v -0.0320742 0.0383234 -0.00042109
v -0.02169269 0.03826601 0.00451008
v -0.0373144 0.033633 0.00457247
v 0.00810435 0.0348429 0.0181346
v -0.05135087 0.0336457 0.00803294
v 0.0132792 0.0343795 0.0214237
v -0.0303071 0.0339954 0.0147064
v -0.0298032 0.034287 0.0163531
v -0.0288615 0.0353967 0.01735
v -0.0382796 0.035429 0.0243806
v -0.0181599 0.0393223 0.0394029
f 23 9 10
f 3 26 31
f 71 1 6
f 17 70 36
f 63 60 9
f 64 27 70
f 56 41 8
f 22 39 8
f 49 25 9
f 51 48 4
f 12 46 32
f 32 46 33
f 53 16 5
f 43 2 22
f 42 48 44
f 37 55 28
f 42 44 24
f 1 26 6
f 4 48 42
f 19 24 15
f 55 23 53
f 64 45 27
f 32 24 19
f 15 12 19
f 6 4 33
f 7 14 55
f 68 64 61
f 11 54 20
f 5 7 53
f 21 57 17
f 54 28 20
f 51 54 11
f 46 6 33
f 51 4 54
f 26 28 54
f 21 59 52
f 54 4 26
f 21 17 59
f 59 12 52
f 12 59 58
f 4 6 26
f 77 74 13
f 27 36 70
f 17 58 59
f 62 64 57
f 36 58 17
f 36 18 58
f 53 7 55
f 58 46 12
f 58 6 46
f 58 18 6
f 76 78 66
f 45 64 68
f 31 1 65
f 60 10 9
f 27 18 36
f 64 17 57
f 60 29 10
f 23 55 37
f 23 10 25
f 5 16 7
f 8 43 22
f 41 43 8
f 31 26 1
f 25 2 14
f 23 25 14
f 14 2 28
f 37 28 26
f 37 26 3
f 13 74 72
f 27 6 18
f 71 6 27
f 77 24 74
f 20 2 30
f 33 4 42
f 2 20 28
f 13 24 77
f 20 30 11
f 42 32 33
f 48 73 56
f 74 24 34
f 15 24 13
f 69 40 27
f 47 38 79
f 73 48 51
f 56 73 41
f 49 2 25
f 24 32 42
f 73 51 41
f 30 2 43
f 60 63 29
f 63 10 29
f 71 40 65
f 78 38 81
f 16 23 7
f 25 10 63
f 7 23 14
f 94 93 66
f 1 71 65
f 80 8 47
f 8 50 47
f 80 56 8
f 22 2 49
f 74 67 72
f 25 63 9
f 27 82 71
f 83 49 23
f 27 40 82
f 70 17 64
f 12 32 19
f 3 65 38
f 71 82 40
f 3 75 37
f 3 38 75
f 3 31 65
f 45 68 27
f 50 8 39
f 62 61 64
f 39 49 37
f 79 78 76
f 28 55 14
f 53 23 16
f 47 79 80
f 23 49 9
f 38 40 84
f 61 85 68
f 85 88 68
f 67 79 76
f 78 79 38
f 88 27 68
f 88 69 27
f 39 37 75
f 85 87 88
f 84 40 69
f 84 69 88
f 87 84 88
f 85 86 87
f 47 75 38
f 75 47 39
f 47 50 39
f 86 78 87
f 81 38 84
f 22 49 39
f 87 81 84
f 49 83 37
f 81 87 78
f 40 38 65
f 66 78 86
f 57 21 62
f 15 13 72
f 62 89 61
f 23 37 83
f 41 30 43
f 85 94 86
f 41 11 30
f 51 11 41
f 80 35 56
f 79 35 80
f 79 74 35
f 86 94 66
f 35 48 56
f 67 74 79
f 34 44 35
f 35 44 48
f 97 72 67
f 24 44 34
f 93 92 66
f 34 35 74
