v -0.00341018 0.13031957 0.02175437
v -0.08171916 0.15250145 0.02965609
v -0.03054348 0.12477885 0.00109834
v -0.02490159 0.11211138 0.03756024
v -0.01840568 0.17843055 -0.02421958
v 0.01906794 0.12144925 0.03196844
v -0.01346903 0.16299355 -0.01200002
v -0.03439324 0.17236688 -0.00098213
v -0.08431416 0.10957263 0.00370973
v -0.04223354 0.17211574 -0.00417998
v -0.06330839 0.15660615 -0.01383879
v -0.07690395 0.16708033 -0.02693136
v -0.07225392 0.1153955 0.0516703
v 0.00486894 0.03796237 0.04586763
v -0.05718055 0.04091883 0.04630134
v -0.04520907 0.0388391 0.04450377
v -0.05024227 0.15773747 0.00939445
v -0.02121695 0.15887938 -0.00469237
v -0.02974875 0.03653986 0.05249331
v -0.00354389 0.04265977 0.04754153
v -0.03908818 0.1687202 -0.01192468
v 0.04976006 0.07023522 0.02373202
v -0.0264679 0.1810425 -0.00808117
v -0.01753347 0.04796425 0.04882963
v -0.0759832 0.138208 0.04921658
v 0.03483844 0.04315341 0.02895431
v -0.02274927 0.04988388 0.04660552
v -0.08806457 0.12496764 0.00057412
v -0.03430319 0.05052015 0.03828602
v -0.07266589 0.13005582 0.0516682
v -0.07648133 0.14827412 -0.00893762
v -0.0406522 0.12266506 0.0262903
v 0.03795509 0.1048871 -0.00320318
v -0.0591297 0.15039712 0.03448954
v -0.0452255 0.12935459 0.02037752
v -0.03061484 0.05441265 0.03669429
v -0.0247876 0.05260622 0.04083976
v -0.08090051 0.12558713 0.05215537
v -0.02999621 0.17811137 -0.00523582
v -0.07908773 0.17044488 -0.04137317
v -0.00149855 0.05592548 0.0546308
v 0.00519817 0.05701799 0.05342353
v -0.09107873 0.11506037 0.04014181
v -0.01239524 0.12264726 0.03358828
v -0.02800136 0.06107542 0.03747121
v -0.02537355 0.15840012 -0.00148013
v -0.06781859 0.15454353 0.03023372
v -0.00319589 0.11912518 0.03834958
v -0.00215139 0.09943738 0.04984975
v -0.05600139 0.06183067 0.02793115
v -0.07864073 0.16387238 -0.02838779
v -0.0703258 0.06336777 0.01980918
v -0.03225787 0.0881926 -0.02513096
v -0.06189763 0.12297065 -0.00877255
v -0.00639347 0.10524472 -0.0228419
v -0.0893851 0.09902404 0.01752183
v 0.05453721 0.06879672 0.02451769
v -0.04731121 0.16296037 0.00607403
v 0.04107326 0.08872432 -0.00978794
v -0.00324792 0.07571069 0.05871464
v 0.01341438 0.09307374 0.05146775
v -0.07350444 0.09388334 -0.01475172
v -0.01779548 0.07748619 0.05608724
v 0.01579974 0.12901416 0.01323687
v 0.00239297 0.13162713 0.0119551
v -0.06243324 0.08403527 0.04420312
v -0.08672301 0.09991725 0.00355371
v -0.0021452 0.11143287 0.04243662
v -0.04900084 0.08622168 0.04535204
v -0.04902007 0.11771293 0.03158143
v -0.00124391 0.0890932 0.05655212
v -0.04541156 0.09100213 0.04325277
v -0.04451455 0.09486042 0.04297249
v -0.00898303 0.16926449 -0.02268348
v -0.06723198 0.09917395 0.04159388
v -0.00780469 0.10516619 0.04382546
v -0.05107908 0.09389281 -0.02176169
v 0.01668846 0.0369766 0.0430006
v -0.05227733 0.11775075 0.03376946
v -0.00737751 0.03898843 0.04892945
v 0.01948735 0.04080929 0.04264106
v -0.05098041 0.13486613 0.027585
v 0.02031915 0.10041961 0.04576052
v 0.02262521 0.04362168 0.04090458
v -0.04276416 0.15727487 0.00520162
v -0.0821915 0.0756102 0.01654262
v 0.05266309 0.04767362 0.02120127
v 0.01674344 0.048439 0.04367863
v 0.02882705 0.09213337 0.04392009
v -0.01625752 0.1603125 -0.0096926
v -0.0639263 0.16792441 -0.04073042
v 0.05595734 0.05314741 0.02319772
v -0.03993796 0.1492285 0.00160172
v 0.01920463 0.05516651 0.04772215
v 0.05182373 0.0532767 0.02792701
v -0.05829864 0.138855 0.03293746
v 0.02012695 0.06385133 0.04791966
v 0.0289824 0.07408848 0.04344724
v 0.0226875 0.07514918 0.0493125
v 0.03129876 0.07590744 0.04269906
v -0.04556989 0.14663612 0.00565142
v 0.03088504 0.07899948 0.04338877
v -0.02917729 0.17619959 -0.00562411
v -0.06375713 0.15912175 -0.05015573
v -0.01852762 0.17653197 -0.01704354
v 0.03614382 0.0844392 0.03793693
v 0.02842334 0.08801108 0.0442342
v 0.01859657 0.03529394 -0.00867822
v 0.0172098 0.0352594 -0.01468516
v 0.03833591 0.03883083 0.00309381
v 0.02219292 0.03677532 -0.00209193
v 0.01963602 0.03823401 -0.01250767
v -0.06254169 0.17679461 -0.05782182
v -0.01109194 0.17992082 -0.02599643
v -0.06237257 0.15313041 -0.02899712
v 0.02920777 0.04745025 -0.00850818
v -0.0157822 0.10072957 -0.02372413
v -0.06251417 0.17213119 -0.0527881
v -0.08276186 0.11162341 0.04422146
v -0.05149269 0.13796388 0.02366218
v -0.06268195 0.16744086 -0.04571389
v -0.03892114 0.03376739 -0.02904256
v -0.06879619 0.03511772 -0.00520674
v -0.07703956 0.07196702 0.02640507
v 0.03570669 0.05608304 -0.00899933
v -0.00922961 0.17314463 -0.02419766
v -0.07144833 0.18105301 -0.05547855
v -0.06140699 0.17268822 -0.05826575
v -0.07485275 0.14993112 -0.02775294
v -0.03612504 0.12286688 -0.00829279
v -0.07423019 0.15652681 -0.02516709
v 0.02632181 0.07024065 -0.02387868
v 0.04334214 0.07167612 -0.00223046
v 0.01309699 0.09112648 -0.02926977
v 0.04551119 0.08695305 0.00388655
v -0.07291636 0.0650574 0.01879462
v -0.09094969 0.13895375 0.01737113
v -0.08514891 0.1396552 0.00248085
v 0.04463114 0.08417838 0.00082665
v -0.0741587 0.17987275 -0.05079475
v -0.04346534 0.12451145 0.02251889
v -0.03135885 0.12140977 0.02597109
v -0.07256706 0.1475323 0.04171409
v -0.06850422 0.16732018 -0.02395957
v -0.06481132 0.03453064 0.01550844
v -0.06430026 0.03508645 0.02427205
v -0.06672702 0.03589577 0.03384943
v -0.07253973 0.03539927 0.00702988
v -0.06639203 0.03771235 0.02962195
v -0.07201603 0.0375727 0.00397894
v -0.03514596 0.03858592 0.04773269
v -0.06441576 0.04128384 0.02824348
v -0.06999732 0.04207308 0.00668978
v -0.03445385 0.04456396 0.04542299
v -0.01511958 0.09993002 0.04450027
v -0.07884915 0.11867375 0.05062287
v -0.05016872 0.05346226 0.01625544
v -0.05290982 0.05704307 0.02098841
v -0.05826563 0.09092639 -0.02094869
v -0.06048358 0.15567975 0.00433438
v -0.05267578 0.08822074 -0.0218863
v -0.04499303 0.03901701 -0.02109783
v -0.04646261 0.03680027 -0.01777871
v -0.07758718 0.17717875 -0.05022109
v -0.06308703 0.03961417 0.02518156
v -0.07230302 0.15186699 -0.04154431
v -0.04699058 0.03889238 -0.01401692
v -0.08310943 0.10265445 -0.00329334
v -0.0395199 0.17385855 -0.00757526
v -0.03741645 0.04768213 -0.01714728
v -0.05442072 0.04783652 -0.00591869
v 0.00941157 0.12350285 -0.0098291
v -0.0502905 0.04909893 0.01716478
v -0.05567396 0.05698385 -0.00335104
v -0.02754591 0.05402157 -0.02514739
v -0.05406648 0.05995935 -0.00759922
v 0.02181502 0.11770533 -0.0100153
v -0.02964712 0.05810426 -0.02131132
v 0.05290641 0.06523045 -0.00051112
v -0.02544562 0.06020855 -0.0308647
v -0.02868068 0.0682835 -0.03061016
v -0.06854389 0.17513008 -0.0571879
v -0.09020572 0.14947775 0.01303509
v -0.08154276 0.07795066 0.02672728
v 0.02666617 0.11268609 -0.01050954
v -0.0446974 0.11791537 -0.01472586
v -0.01250182 0.10634409 -0.02236019
v -0.0882842 0.08686911 0.00810292
v -0.08800107 0.08662643 0.01546668
v -0.07777055 0.08784484 -0.01169481
v -0.05112141 0.16374125 -0.00266405
v -0.01242992 0.10286006 -0.02382248
v 0.04576943 0.0646288 -0.00121661
v -0.03089295 0.04740903 -0.024954
v -0.01322027 0.18397188 -0.02751946
v -0.04785945 0.11162729 -0.01748212
v -0.06199357 0.15028063 -0.00162971
v -0.00935695 0.08542373 -0.03811254
v -0.03984279 0.12156113 -0.01157031
v -0.05053938 0.13336659 -0.00108722
v -0.00781631 0.12821209 -0.00194304
v -0.00438224 0.12640753 -0.00694952
v 0.00140857 0.03478199 -0.0232652
v -0.0148462 0.03507093 -0.0260719
v -0.0213995 0.03479512 -0.02795882
v 0.03689089 0.0473532 -0.00610571
v 0.00683417 0.05501017 -0.03056113
v 0.00214247 0.0555028 -0.0313344
v -0.00589038 0.03479062 -0.02422447
v -0.00523259 0.05568896 -0.03284022
v -0.01773936 0.06626083 -0.03765731
v -0.03526304 0.07106765 -0.01801186
v 0.0087503 0.07430156 -0.03339821
v -0.05110362 0.07307195 -0.01624306
v -0.03811782 0.07639012 -0.01864436
v -0.02116286 0.17491852 -0.02197711
v -0.00534863 0.03382901 -0.02260043
v 0.00173239 0.03445966 -0.01660787
v -0.02785147 0.03840433 -0.01721042
v 0.00397347 0.03820855 -0.00379635
v -0.01952351 0.03850521 -0.00454345
v 0.00232623 0.0353482 0.0023246
v 0.0140143 0.0357038 0.00388789
v -0.0380666 0.0385186 -0.00730796
v -0.05273006 0.0334979 -0.00181175
v -0.041271 0.0338554 -0.00188008
v 0.00314923 0.03412531 0.01176222
v -0.0373144 0.033633 0.00457247
v 0.0214998 0.0358071 0.0181694
v -0.05135087 0.0336457 0.00803294
v 0.0132792 0.0343795 0.0214237
v 0.0143227 0.0344255 0.0215932
v -0.0303071 0.0339954 0.0147064
v -0.0298032 0.034287 0.0163531
v -0.0288615 0.0353967 0.01735
v -0.0382796 0.035429 0.0243806
v -0.05184771 0.03447027 0.03463518
v -0.00496131 0.0393649 0.0367022
v -0.0804691 0.11357963 0.04664344
v -0.0181599 0.0393223 0.0394029
v -0.08564473 0.11131719 0.03423478
v -0.0263231 0.034658 0.0434735
v -0.07279013 0.06439988 0.01520595
v -0.0368986 0.03592464 0.04479417
v -0.07280136 0.06438259 0.01208908
v -0.01530644 0.03524641 0.05013381
v -0.06670071 0.15236775 -0.04526639
v -0.07394537 0.08437488 -0.01515449
v 0.03597176 0.06666961 0.0377814
v -0.02437993 0.09586645 0.04443453
v 0.03402392 0.11353879 0.02459528
v -0.08948084 0.13839976 0.02506145
v -0.00534334 0.07826458 -0.03747694
v -0.0480697 0.12493027 -0.00840764
v -0.08412341 0.1083205 0.02473098
v -0.06199624 0.14761484 -0.00432568
v -0.0331634 0.0381954 -0.0005252
v -0.02188242 0.11087418 -0.01969532
v 0.04471785 0.09480266 0.01202471
v -0.0720285 0.06704661 -0.0007225599999999997
v -0.09429715 0.12617744 0.01922465
v -0.04949594 0.07343634 0.04167357
v -0.01446691 0.06313602 -0.03686587
v 0.00273814 0.07910568 0.05671919
v -0.07468381 0.107861 -0.00904771
v 0.03386449 0.07865669 -0.01763249
v -0.08315935 0.14674277 0.00307579
v 0.0258218 0.04632661 0.03827723
v -0.05530898 0.10365394 0.04151669
v -0.05614789 0.06192155 -0.00575411
v -0.06853119 0.15630045 0.02099771
v -0.04212149 0.12825104 0.00107515
v 0.02385576 0.10616625 0.03937808
v -0.02908746 0.07292463 -0.03335447
v -0.08004357 0.09208016 -0.00941982
v 0.0319129 0.09987006 -0.01462098
v 0.01912008 0.04716775 -0.02211468
v -0.08005037 0.11670406 0.04876246
v 0.04594182 0.04813882 -0.0038715699999999995
v -0.06846643 0.13498146 -0.00833598
v -0.02753848 0.07996478 0.04769721
v -0.07143369 0.07757352 0.03806076
v 0.05153713 0.07349669 0.0126987
v -0.07374808 0.15539253 0.0023491699999999994
v -0.05785299 0.0464445 0.01106261
v -0.02008631 0.03806445 -0.01722079
v -0.05733534 0.12340101 0.04023147
v -0.0254259 0.04142101 -0.02920483
v -0.05236903 0.14682913 0.01893465
v 0.04283111 0.08555604 0.02787376
v -0.00853083 0.06015942 0.05530895
v -0.01971175 0.16829145 -0.01302096
v -0.06375729 0.10251144 -0.0174844
v -0.00082448 0.09516512 -0.03205632
v 0.02587286 0.08848229 0.04665526
v -0.01551334 0.10436131 0.04291942
v -0.04507884 0.08726113 -0.02186552
v 0.02900777 0.03735822 -0.0002747399999999999
v 0.03083572 0.11554234 -0.0031785500000000005
v -0.05405689 0.15671602 -0.00248659
v 0.02547293 0.0740945 -0.02493854
v -0.03918559 0.06307453 0.04138289
v 0.05979814 0.05684018 0.01334273
v -0.09100365 0.14885725 0.02150703
v -0.08585634 0.09702539 0.02741496
v 0.02895261 0.05612525 0.04038897
v -0.06361674 0.14801371 -0.02017026
v -0.0866051 0.13226807 0.04678302
v -0.0141697 0.12767892 0.00130805
v -0.00170334 0.0478192 -0.02992893
v -0.06439255 0.07311633 -0.01533534
v 0.03910844 0.10829072 0.01314233
v -0.02759704 0.16979824 -0.01817042
v -0.06025526 0.04474962 -0.00413162
v -0.03742022 0.0454285 -0.02422679
v -0.0637824 0.1103727 0.03757979
v -0.07429408 0.1635685 -0.01553422
v -0.03032487 0.06769472 -0.02765495
v 0.03094044 0.06051808 -0.01813272
v 0.01405522 0.05252391 0.04859388
v 0.02391124 0.09802167 -0.02080729
v -0.08149667 0.15473104 0.01969734
v -0.01722441 0.09521409 -0.0320853
v -0.05181526 0.16392582 0.00174888
v -0.01170342 0.09735572 0.05159208
v -0.0469888 0.12600802 0.0269855
v -0.07689009 0.13041906 -0.00695701
v -0.08882645 0.09048332 0.0212047
v -0.03973825 0.10215357 0.04057441
v -0.05822597 0.06660731 0.03505028
v -0.02924544 0.06955152 0.03936901
v -0.09364421 0.11789378 0.01866208
v 0.03799278 0.0497932 0.03190202
f 21 169 8
f 91 40 12
f 201 309 65
f 65 309 1
f 140 40 113
f 65 1 44
f 38 30 25
f 285 173 157
f 127 140 113
f 299 65 64
f 2 25 143
f 49 6 68
f 256 101 200
f 309 44 1
f 65 44 6
f 33 139 133
f 3 32 44
f 32 142 44
f 188 56 67
f 28 327 9
f 41 42 20
f 129 131 115
f 14 41 20
f 32 4 142
f 280 31 307
f 83 273 49
f 269 73 32
f 63 61 71
f 69 66 262
f 73 269 66
f 29 50 16
f 73 69 72
f 73 66 69
f 10 17 58
f 262 72 69
f 32 326 70
f 17 85 58
f 183 267 138
f 144 12 11
f 329 4 32
f 304 183 138
f 332 43 252
f 72 262 73
f 68 296 76
f 14 42 41
f 46 10 85
f 8 292 103
f 166 104 247
f 281 329 262
f 36 45 29
f 8 103 39
f 291 264 63
f 37 45 36
f 49 61 83
f 27 37 19
f 68 6 48
f 12 144 91
f 90 74 7
f 296 155 325
f 60 291 63
f 42 264 291
f 152 50 157
f 24 37 27
f 19 24 27
f 44 48 6
f 64 65 251
f 319 132 301
f 169 10 8
f 325 250 63
f 259 135 33
f 68 44 296
f 20 42 291
f 76 296 325
f 68 48 44
f 63 71 325
f 291 60 37
f 60 63 37
f 67 56 9
f 246 14 24
f 92 333 95
f 320 88 94
f 116 112 109
f 133 139 135
f 85 289 101
f 92 95 87
f 102 107 295
f 287 13 316
f 106 290 102
f 258 187 117
f 87 95 333
f 84 268 14
f 316 32 287
f 101 93 85
f 82 25 30
f 82 96 25
f 25 96 34
f 88 306 94
f 306 97 320
f 97 99 42
f 79 287 32
f 96 82 34
f 94 306 320
f 98 61 42
f 287 70 326
f 23 103 292
f 14 268 88
f 70 287 79
f 214 270 311
f 70 79 32
f 105 5 23
f 105 292 5
f 90 46 18
f 61 273 83
f 102 89 107
f 102 295 98
f 19 151 244
f 135 259 133
f 18 313 90
f 292 105 23
f 22 133 259
f 195 292 114
f 303 179 283
f 249 100 98
f 249 102 100
f 290 89 102
f 89 290 251
f 128 113 118
f 88 320 14
f 194 170 288
f 306 98 97
f 268 84 81
f 315 194 288
f 290 106 249
f 98 100 102
f 85 10 58
f 133 59 33
f 325 68 76
f 80 20 24
f 98 99 97
f 89 273 61
f 99 98 42
f 313 74 90
f 10 46 8
f 104 128 118
f 92 57 333
f 141 326 32
f 295 107 89
f 90 7 292
f 5 21 23
f 249 106 102
f 297 161 77
f 81 84 14
f 103 23 39
f 104 91 11
f 277 319 116
f 292 126 114
f 319 59 133
f 114 126 74
f 328 188 189
f 202 65 55
f 33 135 139
f 74 126 292
f 153 145 285
f 328 189 86
f 146 152 165
f 278 13 156
f 55 117 192
f 217 209 203
f 14 20 80
f 112 116 111
f 101 289 35
f 121 113 91
f 112 111 108
f 118 121 91
f 104 118 91
f 152 173 285
f 137 252 138
f 11 115 104
f 118 113 121
f 289 82 120
f 110 303 87
f 46 85 93
f 261 252 137
f 184 328 86
f 120 82 35
f 297 318 215
f 289 120 35
f 283 57 303
f 332 9 255
f 322 271 267
f 35 141 32
f 11 284 271
f 91 113 40
f 34 271 47
f 141 35 326
f 47 2 34
f 271 2 47
f 11 17 160
f 284 267 271
f 272 32 3
f 8 39 23
f 152 145 165
f 143 25 34
f 299 64 251
f 2 143 34
f 144 11 91
f 21 8 23
f 250 325 155
f 189 188 86
f 29 16 154
f 29 37 36
f 158 50 52
f 154 19 29
f 280 307 11
f 15 152 147
f 308 25 252
f 152 15 16
f 152 149 147
f 16 50 152
f 244 151 16
f 57 283 333
f 331 37 63
f 302 50 29
f 149 152 146
f 29 19 37
f 46 93 101
f 148 145 150
f 145 153 150
f 212 297 215
f 75 305 66
f 331 281 262
f 156 30 278
f 19 154 151
f 134 55 321
f 53 77 117
f 38 25 278
f 132 319 277
f 247 104 115
f 166 247 115
f 38 278 30
f 151 154 16
f 172 321 55
f 182 104 127
f 164 140 127
f 40 164 127
f 104 40 127
f 140 164 40
f 166 131 104
f 104 131 40
f 187 55 192
f 180 181 274
f 181 318 274
f 131 51 40
f 180 318 181
f 173 152 157
f 71 61 49
f 175 178 180
f 296 250 155
f 51 317 40
f 131 317 51
f 180 170 175
f 217 204 209
f 115 31 129
f 129 31 131
f 175 170 178
f 31 317 131
f 122 163 162
f 318 212 215
f 162 170 122
f 167 162 163
f 150 153 123
f 167 170 162
f 152 285 145
f 44 142 4
f 177 185 321
f 50 158 157
f 304 267 183
f 137 138 261
f 299 172 65
f 195 114 5
f 190 275 62
f 204 205 288
f 169 21 10
f 248 275 190
f 323 253 198
f 260 275 248
f 65 172 55
f 314 174 176
f 168 265 67
f 9 265 168
f 315 170 194
f 67 9 168
f 191 324 300
f 138 267 327
f 160 191 300
f 285 174 314
f 160 324 191
f 86 188 67
f 13 30 156
f 285 314 153
f 185 299 321
f 128 104 113
f 185 177 172
f 218 220 222
f 65 202 201
f 3 186 130
f 133 193 125
f 193 179 125
f 160 197 11
f 197 256 11
f 160 256 197
f 309 201 55
f 201 202 55
f 200 272 256
f 256 272 254
f 186 293 254
f 133 283 179
f 101 272 200
f 179 303 279
f 186 77 196
f 299 185 172
f 272 199 254
f 199 186 254
f 177 321 172
f 186 199 272
f 130 186 272
f 179 193 133
f 46 313 18
f 3 130 272
f 3 77 186
f 167 314 171
f 315 205 204
f 116 206 279
f 279 125 179
f 279 206 125
f 9 327 265
f 212 270 214
f 159 161 62
f 159 77 161
f 270 314 176
f 117 187 192
f 77 293 196
f 62 161 297
f 10 21 101
f 248 190 62
f 289 85 17
f 46 101 21
f 256 280 11
f 314 170 171
f 323 294 253
f 277 301 132
f 19 16 234
f 214 311 212
f 277 213 301
f 213 134 321
f 294 134 213
f 327 28 138
f 292 7 74
f 310 207 277
f 293 186 196
f 310 208 207
f 208 277 207
f 277 263 213
f 62 77 159
f 203 209 204
f 310 210 208
f 210 204 208
f 108 109 112
f 310 204 210
f 263 198 253
f 163 122 167
f 114 74 5
f 263 323 198
f 171 170 167
f 182 113 104
f 180 263 204
f 263 211 274
f 274 323 263
f 260 311 270
f 292 195 5
f 170 212 178
f 263 180 211
f 180 274 211
f 116 125 206
f 328 124 282
f 216 5 74
f 174 270 176
f 146 165 145
f 205 315 288
f 117 77 258
f 313 216 74
f 216 313 5
f 110 229 81
f 110 26 229
f 229 26 81
f 115 131 166
f 14 80 24
f 78 14 232
f 255 43 332
f 220 111 222
f 255 241 43
f 109 218 203
f 241 119 43
f 16 19 244
f 255 119 241
f 218 204 217
f 75 119 255
f 78 81 14
f 184 124 328
f 119 239 278
f 86 124 184
f 119 13 239
f 13 278 239
f 245 243 260
f 260 243 124
f 270 245 260
f 87 26 110
f 13 119 75
f 243 136 124
f 123 148 150
f 270 243 245
f 243 52 136
f 243 270 52
f 136 52 124
f 218 111 220
f 286 222 221
f 52 282 124
f 145 148 123
f 232 81 78
f 174 285 270
f 187 258 55
f 225 123 167
f 52 330 282
f 146 147 149
f 167 226 225
f 225 230 123
f 146 15 147
f 226 230 225
f 226 123 230
f 234 146 145
f 226 167 122
f 203 218 217
f 14 246 242
f 182 127 113
f 109 111 218
f 108 111 109
f 234 237 146
f 16 15 146
f 246 24 242
f 24 19 242
f 219 122 204
f 286 122 219
f 16 237 234
f 204 286 219
f 16 146 237
f 158 52 157
f 297 62 311
f 297 311 212
f 306 98 249
f 333 249 22
f 329 281 250
f 329 250 4
f 273 89 251
f 6 251 65
f 2 25 252
f 322 304 267
f 213 294 253
f 213 253 263
f 54 293 254
f 54 254 256
f 305 75 255
f 56 255 9
f 10 324 300
f 10 300 101
f 122 224 257
f 122 257 286
f 309 55 258
f 309 258 77
f 312 33 259
f 312 259 290
f 86 124 260
f 86 260 67
f 28 9 261
f 28 261 138
f 330 302 262
f 330 262 282
f 208 204 263
f 208 263 277
f 61 42 264
f 61 264 63
f 62 275 265
f 62 293 77
f 59 319 266
f 321 301 213
f 31 280 267
f 31 267 284
f 26 81 268
f 333 306 249
f 75 66 269
f 75 269 32
f 170 314 270
f 170 270 212
f 17 11 271
f 17 271 289
f 35 32 272
f 35 272 101
f 6 251 273
f 6 273 49
f 53 323 274
f 53 274 318
f 67 260 275
f 67 275 265
f 59 33 276
f 59 321 266
f 109 203 277
f 109 277 116
f 43 119 278
f 43 308 252
f 110 116 279
f 110 279 303
f 54 256 280
f 54 327 293
f 63 331 281
f 63 281 250
f 66 262 282
f 66 282 305
f 22 133 283
f 22 283 333
f 317 11 284
f 317 284 31
f 52 270 285
f 52 285 157
f 218 204 286
f 218 286 222
f 30 82 287
f 30 287 13
f 180 170 288
f 180 288 204
f 34 82 289
f 34 289 271
f 22 249 290
f 22 290 259
f 24 20 291
f 24 291 37
f 46 90 292
f 46 292 8
f 265 62 293
f 265 293 327
f 55 134 294
f 55 294 117
f 61 98 295
f 61 295 89
f 4 250 296
f 4 296 44
f 53 77 297
f 53 297 318
f 116 110 298
f 116 298 111
f 33 276 299
f 33 299 312
f 256 160 300
f 256 300 101
f 266 319 301
f 266 301 321
f 45 29 302
f 331 302 262
f 92 87 303
f 92 303 57
f 252 2 304
f 252 304 138
f 56 255 305
f 328 305 282
f 268 88 306
f 268 306 333
f 115 11 307
f 115 307 31
f 278 43 308
f 278 308 25
f 3 77 309
f 3 309 44
f 203 204 310
f 203 310 277
f 248 260 311
f 248 311 62
f 251 299 312
f 251 312 290
f 21 5 313
f 21 313 46
f 123 153 314
f 123 314 167
f 122 170 315
f 122 315 204
f 75 32 316
f 75 316 13
f 12 11 317
f 12 317 40
f 178 180 318
f 178 318 212
f 125 116 319
f 125 319 133
f 42 14 320
f 42 320 97
f 276 59 321
f 276 321 299
f 2 271 322
f 2 322 304
f 117 53 323
f 117 323 294
f 17 160 324
f 17 324 10
f 49 71 325
f 49 325 68
f 82 35 326
f 82 326 287
f 280 267 327
f 280 327 54
f 56 305 328
f 56 328 188
f 73 262 329
f 73 329 32
f 50 52 330
f 50 330 302
f 45 302 331
f 45 331 37
f 261 9 332
f 261 332 252
f 26 268 333
f 26 333 87
