v -0.00341018 0.13031957 0.02175437
v -0.08171916 0.15250145 0.02965609
v -0.03054348 0.12477885 0.00109834
v -0.02490159 0.11211138 0.03756024
v -0.01840568 0.17843055 -0.02421958
v 0.01906794 0.12144925 0.03196844
v 0.0060412 0.12494359 0.03265289
v -0.01346903 0.16299355 -0.01200002
v -0.03439324 0.17236688 -0.00098213
v -0.08431416 0.10957263 0.00370973
v -0.04223354 0.17211574 -0.00417998
v -0.06330839 0.15660615 -0.01383879
v -0.07690395 0.16708033 -0.02693136
v -0.07225392 0.1153955 0.0516703
v 0.01298133 0.11366375 0.03830295
v 0.00486894 0.03796237 0.04586763
v -0.05718055 0.04091883 0.04630134
v -0.04520907 0.0388391 0.04450377
v -0.05024227 0.15773747 0.00939445
v -0.02121695 0.15887938 -0.00469237
v -0.04996034 0.04310195 0.04446265
v -0.02974875 0.03653986 0.05249331
v -0.00354389 0.04265977 0.04754153
v -0.03908818 0.1687202 -0.01192468
v -0.04124488 0.04309889 0.04212956
v 0.04976006 0.07023522 0.02373202
v 0.03402392 0.11353879 0.02459528
v -0.0264679 0.1810425 -0.00808117
v -0.01753347 0.04796425 0.04882963
v 0.00598623 0.04668914 0.04907362
v -0.0354537 0.11244769 0.03505541
v -0.0759832 0.138208 0.04921658
v 0.03483844 0.04315341 0.02895431
v -0.02274927 0.04988388 0.04660552
v -0.00780368 0.05016931 0.05098865
v -0.06387565 0.16140094 -0.02006421
v -0.08806457 0.12496764 0.00057412
v -0.06445701 0.15342891 -0.00511804
v -0.03430319 0.05052015 0.03828602
v -0.01435471 0.0544282 0.05071031
v -0.07266589 0.13005582 0.0516682
v 0.03799278 0.0497932 0.03190202
v 0.02150351 0.12563988 0.02125262
v -0.07648133 0.14827412 -0.00893762
v -0.0406522 0.12266506 0.0262903
v -0.04668618 0.05457072 0.03758737
v 0.03795509 0.1048871 -0.00320318
v -0.07900379 0.1285055 0.05314934
v -0.0591297 0.15039712 0.03448954
v -0.06569179 0.14961818 0.03816098
v -0.03195166 0.12518394 0.01940058
v -0.0452255 0.12935459 0.02037752
v -0.03061484 0.05441265 0.03669429
v -0.0247876 0.05260622 0.04083976
v -0.02158886 0.05683692 0.04546704
v -0.08090051 0.12558713 0.05215537
v -0.02999621 0.17811137 -0.00523582
v 0.04331555 0.05214555 0.03249211
v -0.07908773 0.17044488 -0.04137317
v -0.00149855 0.05592548 0.0546308
v 0.00519817 0.05701799 0.05342353
v 0.0386863 0.05645059 0.03118893
v -0.00853083 0.06015942 0.05530895
v -0.09107873 0.11506037 0.04014181
v 0.04563688 0.05740262 0.03199222
v -0.0141697 0.12767892 0.00130805
v -0.01239524 0.12264726 0.03358828
v -0.02800136 0.06107542 0.03747121
v -0.02537355 0.15840012 -0.00148013
v -0.06781859 0.15454353 0.03023372
v -0.00319589 0.11912518 0.03834958
v -0.03918559 0.06307453 0.04138289
v -0.00215139 0.09943738 0.04984975
v -0.05600139 0.06183067 0.02793115
v -0.05130794 0.06052166 0.03143493
v -0.04197932 0.06962998 0.04182493
v 0.00695449 0.06470013 0.05559915
v 0.04301509 0.09769096 0.00102583
v 0.03755296 0.10685291 0.02630347
v -0.07864073 0.16387238 -0.02838779
v -0.06199624 0.14761484 -0.00432568
v -0.01028289 0.06892636 0.05528961
v -0.0703258 0.06336777 0.01980918
v 0.04283111 0.08555604 0.02787376
v -0.04212149 0.12825104 0.00107515
v -0.03225787 0.0881926 -0.02513096
v 0.00769625 0.0723756 0.05606215
v -0.06189763 0.12297065 -0.00877255
v -0.00639347 0.10524472 -0.0228419
v -0.02924544 0.06955152 0.03936901
v -0.0893851 0.09902404 0.01752183
v 0.05453721 0.06879672 0.02451769
v -0.07388009 0.12091638 0.0533958
v -0.07403387 0.14406894 0.04499497
v -0.05405689 0.15671602 -0.00248659
v -0.04507884 0.08726113 -0.02186552
v -0.04731121 0.16296037 0.00607403
v -0.02578106 0.09377818 -0.02838822
v -0.08412341 0.1083205 0.02473098
v -0.07429408 0.1635685 -0.01553422
v -0.09429715 0.12617744 0.01922465
v -0.04949594 0.07343634 0.04167357
v 0.04107326 0.08872432 -0.00978794
v -0.05511138 0.07468784 0.04193974
v -0.04274023 0.07699534 0.04280408
v -0.06853119 0.15630045 0.02099771
v -0.00324792 0.07571069 0.05871464
v 0.01341438 0.09307374 0.05146775
v -0.07350444 0.09388334 -0.01475172
v -0.01779548 0.07748619 0.05608724
v -0.01137866 0.07987715 0.05769888
v 0.00273814 0.07910568 0.05671919
v -0.06189586 0.15424247 -0.0190186
v 0.01579974 0.12901416 0.01323687
v -0.01170342 0.09735572 0.05159208
v 0.00239297 0.13162713 0.0119551
v -0.09364421 0.11789378 0.01866208
v -0.04537646 0.08238355 0.04328212
v -0.03650546 0.08115226 0.04316232
v 0.00818481 0.08075617 0.05537451
v -0.0824716 0.1162413 -0.00232363
v -0.02753848 0.07996478 0.04769721
v -0.06243324 0.08403527 0.04420312
v -0.05523834 0.08199945 0.04498477
v -0.08616148 0.10838594 0.01824492
v -0.08672301 0.09991725 0.00355371
v -0.0224137 0.08328352 0.0555907
v -0.0021452 0.11143287 0.04243662
v -0.06112104 0.1556966 0.02251705
v -0.03753854 0.12744127 0.01532087
v -0.02998201 0.0854023 0.04374508
v -0.04900084 0.08622168 0.04535204
v -0.0108726 0.08882677 0.05666549
v -0.04902007 0.11771293 0.03158143
v -0.05768453 0.15561695 0.01298311
v -0.08577755 0.09170137 -4.697e-05
v -0.00124391 0.0890932 0.05655212
v 0.0094076 0.09032805 0.05421414
v -0.07369669 0.15613015 0.01435979
v -0.06559238 0.0910424 0.04409208
v 0.03910844 0.10829072 0.01314233
v -0.04541156 0.09100213 0.04325277
v -0.04451455 0.09486042 0.04297249
v -0.03564224 0.09261741 0.04423849
v -0.00898303 0.16926449 -0.02268348
v -0.06011714 0.09555291 0.04418382
v -0.02437993 0.09586645 0.04443453
v 0.01697345 0.09710662 0.04744092
v -0.06723198 0.09917395 0.04159388
v -0.02011064 0.12504545 0.02358831
v -0.03973825 0.10215357 0.04057441
v 0.0071936 0.09885947 0.04841951
v 0.0134871 0.1007642 0.04745429
v -0.07143369 0.07757352 0.03806076
v -0.06846643 0.13498146 -0.00833598
v -0.07468381 0.107861 -0.00904771
v -0.0789317 0.15093057 0.0351519
v -0.07411355 0.09944252 0.03833771
v -0.02915118 0.10197369 0.04263306
v 0.00425159 0.10523743 0.04256355
v -0.07214195 0.10536685 0.03752321
v -0.05530898 0.10365394 0.04151669
v -0.01551334 0.10436131 0.04291942
v -0.00780469 0.10516619 0.04382546
v -0.05420137 0.1145173 0.03484399
v -0.0637824 0.1103727 0.03757979
v -0.05074939 0.10928682 0.03829758
v -0.08004357 0.09208016 -0.00941982
v -0.05107908 0.09389281 -0.02176169
v -0.07394537 0.08437488 -0.01515449
v 0.01668846 0.0369766 0.0430006
v -0.05227733 0.11775075 0.03376946
v -0.00737751 0.03898843 0.04892945
v 0.01323466 0.03845306 0.04450147
v 0.01948735 0.04080929 0.04264106
v 0.0025822 0.10747582 -0.02060603
v -0.05098041 0.13486613 0.027585
v -0.01761801 0.03891117 0.05240344
v -0.01971175 0.16829145 -0.01302096
v -0.06406724 0.09017219 -0.01885552
v 0.02031915 0.10041961 0.04576052
v -0.05733534 0.12340101 0.04023147
v 0.02262521 0.04362168 0.04090458
v -0.04276416 0.15727487 0.00520162
v -0.06375729 0.10251144 -0.0174844
v -0.03407043 0.16148975 -0.01378696
v -0.0821915 0.0756102 0.01654262
v -0.06629942 0.12337119 0.05061592
v 0.0258218 0.04632661 0.03827723
v 0.02385576 0.10616625 0.03937808
v 0.05266309 0.04767362 0.02120127
v -0.03007161 0.17258324 -0.00635977
v -0.03450805 0.15447469 0.00165046
v 0.01674344 0.048439 0.04367863
v 0.02882705 0.09213337 0.04392009
v -0.03788539 0.16199719 0.00024686
v -0.04488228 0.15052959 0.00764517
v -0.01625752 0.1603125 -0.0096926
v -0.0639263 0.16792441 -0.04073042
v 0.04131877 0.09949674 0.02427575
v 0.01405522 0.05252391 0.04859388
v 0.05595734 0.05314741 0.02319772
v -0.03993796 0.1492285 0.00160172
v -0.0469888 0.12600802 0.0269855
v 0.01920463 0.05516651 0.04772215
v 0.05182373 0.0532767 0.02792701
v 0.04471785 0.09480266 0.01202471
v -0.01838313 0.18543664 -0.01713637
v 0.0117454 0.05667834 0.05191406
v 0.02895261 0.05612525 0.04038897
v 0.05767943 0.06139297 0.02420179
v -0.05829864 0.138855 0.03293746
v -0.05603276 0.13731083 0.03197059
v -0.06214562 0.13599775 0.03670097
v 0.02012695 0.06385133 0.04791966
v 0.03597176 0.06666961 0.0377814
v 0.03304458 0.10766252 0.03191615
v 0.02338677 0.07007599 0.04701262
v 0.02936287 0.06650978 0.04228938
v 0.03702718 0.09394963 -0.01167404
v 0.03989968 0.07029482 0.03272002
v -0.01581544 0.17504938 -0.01865416
v -0.06109602 0.1170165 0.03965402
v -0.06559994 0.11329504 0.04231871
v 0.0289824 0.07408848 0.04344724
v 0.04487254 0.07551671 0.02315525
v -0.07822523 0.14962481 -0.00250194
v -0.05236903 0.14682913 0.01893465
v 0.0226875 0.07514918 0.0493125
v -0.08948084 0.13839976 0.02506145
v 0.01407427 0.07665172 0.05422135
v 0.03129876 0.07590744 0.04269906
v -0.04556989 0.14663612 0.00565142
v 0.03088504 0.07899948 0.04338877
v -0.02917729 0.17619959 -0.00562411
v 0.01318912 0.08421118 0.05306583
v -0.06375713 0.15912175 -0.05015573
v -0.01852762 0.17653197 -0.01704354
v -0.07772146 0.11355888 0.04815599
v 0.03841359 0.08748993 0.03518585
v -0.06194593 0.16479234 -0.05664767
v 0.03614382 0.0844392 0.03793693
v 0.02587286 0.08848229 0.04665526
v -0.07737826 0.15764266 -0.01413365
v -0.09290734 0.12307021 0.03652323
v 0.02842334 0.08801108 0.0442342
v -0.07591778 0.1499769 -0.01684205
v 0.01859657 0.03529394 -0.00867822
v 0.0172098 0.0352594 -0.01468516
v 0.03833591 0.03883083 0.00309381
v 0.02219292 0.03677532 -0.00209193
v 0.01963602 0.03823401 -0.01250767
v 0.04669328 0.04246532 0.00656495
v 0.01663861 0.03819609 -0.01988493
v -0.09059387 0.11373094 0.01027677
v -0.06254169 0.17679461 -0.05782182
v -0.01109194 0.17992082 -0.02599643
v -0.06237257 0.15313041 -0.02899712
v 0.05298796 0.04774769 0.005042
v 0.0319129 0.09987006 -0.01462098
v -0.04866364 0.13638523 0.00680639
v 0.02391124 0.09802167 -0.02080729
v -0.02188242 0.11087418 -0.01969532
v -0.0538318 0.14981693 0.02506661
v 0.04594182 0.04813882 -0.00387157
v 0.02920777 0.04745025 -0.00850818
v 0.02663726 0.0476071 -0.01642774
v 0.01912008 0.04716775 -0.02211468
v -0.0157822 0.10072957 -0.02372413
v -0.06251417 0.17213119 -0.0527881
v -0.08276186 0.11162341 0.04422146
v -0.06361674 0.14801371 -0.02017026
v -0.05149269 0.13796388 0.02366218
v 0.05031813 0.05278637 -0.00341663
v -0.06268195 0.16744086 -0.04571389
v -0.03892114 0.03376739 -0.02904256
v -0.06879619 0.03511772 -0.00520674
v 0.05979814 0.05684018 0.01334273
v -0.07703956 0.07196702 0.02640507
v -0.06306989 0.15897471 -0.04295185
v 0.03570669 0.05608304 -0.00899933
v 0.05742175 0.05601221 0.00402456
v -0.01722441 0.09521409 -0.0320853
v -0.02776207 0.12068537 -0.00901529
v 0.02425186 0.05645747 -0.0242548
v 0.03094044 0.06051808 -0.01813272
v -0.00922961 0.17314463 -0.02419766
v 0.05983724 0.06642318 0.00851394
v -0.08315935 0.14674277 0.00307579
v -0.07144833 0.18105301 -0.05547855
v 0.03498179 0.06774079 -0.01568321
v -0.07116895 0.14740156 -0.02759094
v 0.05988667 0.06851305 0.01617161
v -0.06140699 0.17268822 -0.05826575
v 0.02499074 0.06589732 -0.02356827
v -0.07485275 0.14993112 -0.02775294
v -0.06222569 0.0602652 0.02044929
v -0.06200194 0.03643502 0.04391894
v -0.03612504 0.12286688 -0.00829279
v 0.02921651 0.06785025 -0.02041857
v -0.0416817 0.12575112 -0.00701933
v -0.04843435 0.13754973 0.01324498
v -0.08931316 0.13653006 0.03045875
v -0.07423019 0.15652681 -0.02516709
v 0.02632181 0.07024065 -0.02387868
v 0.04334214 0.07167612 -0.00223046
v 0.01309699 0.09112648 -0.02926977
v 0.04562 0.07468443 0.00260739
v -0.0930398 0.12026416 0.01121682
v 0.04551119 0.08695305 0.00388655
v 0.04496022 0.08094263 0.00061119
v 0.03386449 0.07865669 -0.01763249
v -0.07291636 0.0650574 0.01879462
v -0.09094969 0.13895375 0.01737113
v 0.04628088 0.07870202 0.01478633
v 0.04210691 0.08153316 -0.00666909
v -0.03742022 0.0454285 -0.02422679
v -0.08514891 0.1396552 0.00248085
v -0.0633133 0.16503258 -0.03289512
v 0.04463114 0.08417838 0.00082665
v -0.06437103 0.17296209 -0.04922566
v -0.0741587 0.17987275 -0.05079475
v -0.08149667 0.15473104 0.01969734
v -0.0137085 0.1849115 -0.02554955
v -0.04346534 0.12451145 0.02251889
v -0.07374808 0.15539253 0.00234917
v -0.03135885 0.12140977 0.02597109
v -0.04293064 0.12928436 0.00927007
v -0.08656194 0.14249188 0.00843268
v -0.08356095 0.15255943 0.00768067
v -0.08882645 0.09048332 0.0212047
v 0.03083572 0.11554234 -0.00317855
v 0.03281993 0.11655625 0.00444586
v -0.08940816 0.14352815 0.03092475
v -0.07091976 0.17136688 -0.03276375
v 0.02572594 0.12122705 -3.615e-05
v 0.05153713 0.07349669 0.0126987
v -0.07256706 0.1475323 0.04171409
v 0.0253435 0.1237475 0.00998188
v 0.00867844 0.12894574 0.02615688
v -0.06850422 0.16732018 -0.02395957
v 0.00096836 0.13064303 0.00258659
v -0.02285164 0.09063504 0.05228046
v -0.06481132 0.03453064 0.01550844
v -0.06430026 0.03508645 0.02427205
v -0.06672702 0.03589577 0.03384943
v -0.07689009 0.13041906 -0.00695701
v -0.07253973 0.03539927 0.00702988
v -0.06639203 0.03771235 0.02962195
v -0.03949475 0.03755157 0.0428709
v -0.07201603 0.0375727 0.00397894
v -0.06112567 0.03779005 0.0197109
v -0.03514596 0.03858592 0.04773269
v -0.06441576 0.04128384 0.02824348
v -0.08585634 0.09702539 0.02741496
v -0.06999732 0.04207308 0.00668978
v -0.08037933 0.09780066 0.03364575
v 0.02585506 0.08961066 -0.02270184
v -0.07764496 0.08221494 0.03579766
v -0.03445385 0.04456396 0.04542299
v -0.01511958 0.09993002 0.04450027
v -0.05785299 0.0464445 0.01106261
v -0.05181526 0.16392582 0.00174888
v -0.07884915 0.11867375 0.05062287
v -0.08005037 0.11670406 0.04876246
v -0.05251364 0.04757788 0.01485844
v -0.09223775 0.12488519 0.04078653
v -0.08591877 0.14263412 0.03984981
v -0.05016872 0.05346226 0.01625544
v -0.08876373 0.11944938 0.04656009
v -0.05606751 0.05347063 0.00737182
v -0.0866051 0.13226807 0.04678302
v -0.05290982 0.05704307 0.02098841
v -0.08353979 0.08116956 0.02701407
v -0.06278668 0.1127419 -0.01360544
v 0.00994449 0.10919723 -0.01947281
v -0.05826563 0.09092639 -0.02094869
v -0.06048358 0.15567975 0.00433438
v -0.07408436 0.14987744 -0.03261005
v -0.05267578 0.08822074 -0.0218863
v -0.0316939 0.10261265 -0.02235231
v -0.0737904 0.12016662 -0.00788512
v -0.04553288 0.03473648 -0.0213632
v -0.04499303 0.03901701 -0.02109783
v -0.04646261 0.03680027 -0.01777871
v -0.07758718 0.17717875 -0.05022109
v -0.06308703 0.03961417 0.02518156
v -0.07230302 0.15186699 -0.04154431
v -0.04699058 0.03889238 -0.01401692
v -0.07012167 0.16882633 -0.05117365
v -0.0480697 0.12493027 -0.00840764
v -0.08310943 0.10265445 -0.00329334
v -0.0654728 0.04562757 0.00455754
v -0.05447342 0.04593751 0.0236126
v -0.06025526 0.04474962 -0.00413162
v -0.09100365 0.14885725 0.02150703
v -0.0395199 0.17385855 -0.00757526
v -0.03395731 0.04102506 -0.02966025
v -0.05851589 0.04773131 0.00021246
v -0.03741645 0.04768213 -0.01714728
v -0.05442072 0.04783652 -0.00591869
v 0.00941157 0.12350285 -0.0098291
v -0.0327157 0.10896631 -0.01894141
v -0.03113338 0.04960726 -0.01940694
v -0.0502905 0.04909893 0.01716478
v -0.05567396 0.05698385 -0.00335104
v -0.02754591 0.05402157 -0.02514739
v -0.09223262 0.131954 0.01543065
v -0.05406648 0.05995935 -0.00759922
v 0.02181502 0.11770533 -0.0100153
v -0.02964712 0.05810426 -0.02131132
v 0.01046428 0.09618045 -0.02589897
v 0.05290641 0.06523045 -0.00051112
v -0.01832068 0.11968625 -0.01111066
v -0.02544562 0.06020855 -0.0308647
v -0.03032487 0.06769472 -0.02765495
v 0.01353349 0.10255388 -0.02157931
v -0.0720285 0.06704661 -0.00072256
v -0.02868068 0.0682835 -0.03061016
v -0.08125743 0.0730252 0.00710204
v -0.00082448 0.09516512 -0.03205632
v -0.07761883 0.07399913 -0.00532635
v -0.06854389 0.17513008 -0.0571879
v -0.09020572 0.14947775 0.01303509
v -0.02908746 0.07292463 -0.03335447
v -0.08620462 0.08093075 0.01053542
v -0.08154276 0.07795066 0.02672728
v 0.02666617 0.11268609 -0.01050954
v -0.03321096 0.07687319 -0.02770838
v -0.07928595 0.08004883 -0.00701255
v -0.0446974 0.11791537 -0.01472586
v -0.0834485 0.13393299 -0.00168732
v -0.01250182 0.10634409 -0.02236019
v -0.0882842 0.08686911 0.00810292
v -0.08881256 0.08776549 0.01422654
v -0.08800107 0.08662643 0.01546668
v -0.07777055 0.08784484 -0.01169481
v -0.05112141 0.16374125 -0.00266405
v -0.01041117 0.09459234 -0.03378485
v -0.01242992 0.10286006 -0.02382248
v 0.01580015 0.11996558 -0.01141563
v 0.04576943 0.0646288 -0.00121661
v -0.01009087 0.09822965 -0.02773136
v -0.03089295 0.04740903 -0.024954
v -0.00668781 0.11747209 -0.01535928
v -0.01322027 0.18397188 -0.02751946
v -0.04785945 0.11162729 -0.01748212
v -0.05513975 0.11051601 -0.01767274
v -0.06199357 0.15028063 -0.00162971
v 0.03668402 0.1009957 -0.00984859
v -0.05971053 0.03653578 -0.0094949
v 0.03155543 0.09248473 -0.01820428
v -0.00067307 0.10119875 -0.02285777
v -0.05621514 0.14139213 -0.00280273
v -0.00935695 0.08542373 -0.03811254
v -0.03984279 0.12156113 -0.01157031
v 0.05000082 0.06161207 -0.00346499
v -0.0254259 0.04142101 -0.02920483
v -0.05053938 0.13336659 -0.00108722
v -0.00781631 0.12821209 -0.00194304
v -0.00438224 0.12640753 -0.00694952
v 0.00140857 0.03478199 -0.0232652
v -0.0148462 0.03507093 -0.0260719
v -0.0213995 0.03479512 -0.02795882
v -0.02759704 0.16979824 -0.01817042
v -0.00684782 0.03644454 -0.02517712
v 0.02900777 0.03735822 -0.00027474
v -0.06515615 0.14034537 -0.00768486
v 0.00518207 0.04153632 -0.02406567
v -0.00170334 0.0478192 -0.02992893
v 0.03689089 0.0473532 -0.00610571
v -0.01375377 0.05186506 -0.03224348
v 0.0059436 0.05097666 -0.02911936
v -0.02552829 0.05147271 -0.02688468
v 0.00683417 0.05501017 -0.03056113
v 0.00214247 0.0555028 -0.0313344
v -0.06108427 0.1338619 -0.00722489
v -0.04330976 0.05565684 -0.01140211
v -0.00589038 0.03479062 -0.02422447
v 0.01071104 0.05468761 -0.02976752
v -0.00523259 0.05568896 -0.03284022
v -0.03526256 0.0552849 -0.01054506
v -0.01446691 0.06313602 -0.03686587
v -0.04553056 0.09851085 -0.02172951
v 0.01147133 0.06758144 -0.03090117
v -0.01773936 0.06626083 -0.03765731
v -0.05614789 0.06192155 -0.00575411
v -0.00592505 0.06951563 -0.03593348
v -0.02191135 0.06714479 -0.03653575
v -0.07595081 0.06817061 0.01811797
v -0.01797607 0.07061377 -0.03844388
v -0.03526304 0.07106765 -0.01801186
v -0.05283173 0.07029892 -0.01486496
v 0.0087503 0.07430156 -0.03339821
v -0.04435401 0.07337222 -0.01787443
v -0.0720716 0.07153815 -0.00747144
v 0.02547293 0.0740945 -0.02493854
v -0.06439255 0.07311633 -0.01533534
v -0.02385433 0.16164528 -0.01450419
v -0.05110362 0.07307195 -0.01624306
v -0.00534334 0.07826458 -0.03747694
v -0.03811782 0.07639012 -0.01864436
v -0.03920697 0.08153638 -0.020571
v -0.05767694 0.08625834 -0.02109832
v -0.02116286 0.17491852 -0.02197711
v -0.00534863 0.03382901 -0.02260043
v -0.02367146 0.03363097 -0.02321776
v 0.00173239 0.03445966 -0.01660787
v -0.03697052 0.03568036 -0.01500779
v -0.02008631 0.03806445 -0.01722079
v -0.01111325 0.03829029 -0.01564636
v -0.02785147 0.03840433 -0.01721042
v 0.00741471 0.03465919 -0.00301168
v 0.00397347 0.03820855 -0.00379635
v -0.01952351 0.03850521 -0.00454345
v 0.00232623 0.0353482 0.0023246
v 0.0140143 0.0357038 0.00388789
v -0.0380666 0.0385186 -0.00730796
v -0.05273006 0.0334979 -0.00181175
v -0.041271 0.0338554 -0.00188008
v 0.00314923 0.03412531 0.01176222
v 0.02824862 0.03504637 0.0160167
v -0.06703297 0.06514596 0.02729286
v -0.0331634 0.0381954 -0.0005252
v -0.05860408 0.03346223 -0.00021667
v -0.0373144 0.033633 0.00457247
v -0.01042399 0.03848857 0.00622927
v 0.0214998 0.0358071 0.0181694
v 0.00810435 0.0348429 0.0181346
v 0.02358946 0.0358906 0.02533769
v 0.04126135 0.04058507 0.02075193
v -0.05135087 0.0336457 0.00803294
v 0.0132792 0.0343795 0.0214237
v 0.0143227 0.0344255 0.0215932
v -0.0303071 0.0339954 0.0147064
v 0.03358413 0.03830393 0.02292867
v -0.05822597 0.06660731 0.03505028
v -0.0298032 0.034287 0.0163531
v -0.05768056 0.03362269 0.01404031
v -0.0288615 0.0353967 0.01735
v -0.0265805 0.0377426 0.0157053
v -0.0382796 0.035429 0.0243806
v -0.06464419 0.06172323 0.00022552
v -0.08882776 0.11359169 0.02387364
v -0.05184771 0.03447027 0.03463518
v -0.00496131 0.0393649 0.0367022
v -0.0804691 0.11357963 0.04664344
v -0.0336564 0.0343441 0.0369141
v -0.06854352 0.06109048 0.01055776
v -0.00282619 0.03488534 0.04561141
v -0.0181599 0.0393223 0.0394029
v -0.08564473 0.11131719 0.03423478
v -0.0263231 0.034658 0.0434735
v -0.07279013 0.06439988 0.01520595
v -0.0368986 0.03592464 0.04479417
v -0.07280136 0.06438259 0.01208908
v -0.01530644 0.03524641 0.05013381
v -0.04375572 0.14773408 -0.00214332
v -0.06670071 0.15236775 -0.04526639
v 0.01231936 0.12903768 0.0013336199999999998
v -0.04612416 0.10506369 -0.02045758
v -0.02696411 0.08451281 -0.03636174
v -0.04281898 0.16220182 -0.01033751
v -0.01940887 0.17041104 -0.02099483
v -0.01073649 0.12990285 0.01099379
v 0.03412644 0.09705398 0.03759039
v -0.09228086 0.12762053 0.02975167
v 0.02614811 0.12014725 0.02730801
v -0.05293564 0.09091352 0.04456887
v -0.02647198 0.04503453 0.05121946
v -0.07022226 0.15143521 0.03671891
v -0.02054255 0.11979518 0.03300367
v -0.04322683 0.04626357 -0.01177173
v -0.07422655 0.16437012 -0.03824034
v -0.04910459 0.13666879 0.01931403
v 0.04957568 0.0438159 0.01458296
v 0.00958873 0.03420722 -0.01542405
v -0.07702557 0.11396763 -0.00461681
v -0.0628326 0.04518275 0.03462289
v -0.07203608 0.11107918 0.0453614
v -0.03260575 0.0612646 -0.01545301
v -0.06960559 0.15490763 -0.05018867
v -0.02287024 0.10284737 0.04354475
v 0.00665325 0.11673563 0.03871634
v -0.036425 0.09363069 -0.02353463
v 0.02368212 0.03976254 0.03714876
v -0.00817975 0.0498458 -0.03107139
v 0.03830205 0.08454914 -0.01447883
v 0.0151103 0.05981984 -0.02864575
v 0.00025369 0.06574117 0.05656926
v -0.05798954 0.07401788 -0.01752232
v 0.04559818 0.08815172 0.01312407
v -0.06554542 0.07443037 0.03916807
v -0.0021998999999999994 0.11215881 -0.01965866
v -0.08889226 0.0992091 0.00957032
v -0.06721659 0.1617134 -0.01373371
v -0.08076792 0.143014 -0.00153128
v -0.0568023 0.14514674 0.0317403
v -0.08379885 0.10290691 0.02803833
v -0.06976057 0.13442855 0.04826522
v -0.02026838 0.06226681 0.04821212
v -0.0820635 0.07599367 0.00176155
v -0.0332411 0.03357876 -0.02671945
v 0.00206568 0.05010468 0.05229022
v -0.0085264 0.06400173 -0.03585048
v 0.01069621 0.0798892 -0.03200958
v -0.04934993 0.14913519 0.01127406
v -0.08240389 0.12186563 0.04936503
v -0.04729006 0.13055355 0.0016909099999999997
v 0.01786943 0.09089861 0.04871294
v -0.06819241 0.17439828 -0.04536587
v 0.03357384 0.05851526 0.03831099
v -0.0637554 0.14428875 -0.01139573
v -0.08955969 0.12851666 0.00454575
v -0.04187911 0.05616439 0.0397967
v 0.03882938 0.05983983 -0.00642525
v -0.0059406 0.07903824 0.05796983
v 0.04851001 0.06178076 0.03034725
v -0.01309899 0.09077604 -0.03665927
v 0.01200922 0.0359619 -0.02173575
v -0.02329883 0.18324307 -0.017923
v 0.05718027 0.07110769 0.00803076
v -0.04957947 0.03609654 0.04595536
v -0.04443413 0.08765453 0.04347762
v -0.03897895 0.10683037 0.03824766
v 0.02424972 0.10266151 -0.01831383
v 0.0028887900000000005 0.03463625 0.01884977
v -0.09130982 0.14848588 0.01627007
v -0.05706936 0.05442438 0.00233955
v -0.06498457 0.1037155 0.04064781
v -0.07038525 0.0374503 -0.0009319000000000003
v -0.02926488 0.16140418 -0.00210395
v -0.08897947 0.11450869 0.02844603
v -0.02204779 0.18348586 -0.01209499
v 0.01544899 0.03485244 0.03698489
v -0.0532105 0.0335853 0.013987
v -0.01474603 0.06558391 0.05373086
v -0.07289616 0.15834962 -0.03410942
v -0.05039932 0.05183133 0.0340374
v -0.05574063 0.03412805 0.02667436
v -0.0168038 0.03975381 -0.02756535
v -0.08603451 0.08264572 0.01954268
v -0.03135813 0.15362199 -0.00467389
v -0.01159972 0.10107813 0.04419166
v -0.0031105 0.03894619 -0.00277939
v -0.07073153 0.15569959 0.00690582
v 0.03044456 0.11886441 0.02082175
v -0.06156942 0.17084875 -0.06167917
v 0.03236918 0.03581601 0.00702463
v -0.0870559 0.10562761 0.00976511
v -0.04863998 0.16472475 -0.00505915
v -0.05064789 0.08230943 -0.02136589
v -0.01669256 0.11568553 0.03785315
v -0.02933114 0.1147623 -0.01584464
v -0.05212427 0.12929832 -0.0041187
v -0.08006981 0.09058613 0.03459307
v -0.05553045 0.14905531 -0.00196021
v 0.03811107 0.06481181 -0.011142
v -0.0290472 0.12556338 0.00776177
v 0.04220994 0.07886148 0.0291872
v 0.01965917 0.11236219 0.03754527
v 0.02881052 0.04335229 0.03215772
v 0.01587048 0.03441623 -0.00296665
v -0.0735026 0.16871934 -0.0447918
v -0.04759043 0.1008118 0.04234915
v -0.06299059 0.11999459 0.04523553
v 0.00448168 0.03711783 0.0247553
v -0.06646786 0.14871539 -0.0315793
v -0.05810518 0.06646595 -0.01004434
v -0.0429144 0.11835991 0.03064504
v -0.03811952 0.06416231 -0.01382914
v 0.04125883 0.10361081 0.00267606
v -0.00707608 0.12240119 -0.01136441
v 0.007134650000000001 0.11468229 -0.01834564
v 0.01063766 0.04416156 -0.02492617
v -0.06750436 0.11424088 0.04803605
v -0.08598605 0.14670902 0.03482703
v 0.02106978 0.12497756 0.00109981
v -0.00574998 0.06548898 0.05617339
v 0.00591057 0.13140929 0.01682375
v -0.06572859 0.10709818 -0.01431767
v -0.02925558 0.07516921 0.04118643
v -0.07282322 0.14510601 -0.01565468
v -0.06965551 0.06872837 0.03112788
v 0.00628811 0.06541635 -0.03256304
v -0.09328121 0.12691094 0.01350501
v -0.01144743 0.17131059 -0.01960298
v -0.08141495 0.09710025 -0.00687458
v -0.08740551 0.10205209 0.02202036
v 0.00922319 0.04412509 0.04505744
v 0.03751917 0.06106271 0.03436602
v -0.06870077 0.14463537 0.04304163
v -0.04054188 0.03888601 -0.02736495
v -0.06773818 0.17728865 -0.05037596
v 0.03303009 0.08378164 0.04163693
v 0.05280185 0.04653994 0.01042772
v -0.02303599 0.07277846 -0.03807264
v -0.07059513 0.12994832 -0.00876292
v -0.056901 0.045437 0.04323696
v -0.02770837 0.09008129 -0.03191146
v -0.00020856999999999994 0.07894141 -0.03578208
v -0.01613175 0.18298848 -0.02603719
v 0.02677546 0.05142345 -0.02023406
v 0.03068489 0.07572687 -0.02077809
v 0.05630521 0.06776991 0.0026525
v 0.02701391 0.05995279 0.04345442
v -0.05607006 0.15000706 0.02986764
v -0.08949102 0.14392581 0.01248849
v -0.05036476 0.13715763 0.00195261
v -0.08474701 0.1107835 0.03948838
v -0.08389074 0.08078953 0.00229514
v -0.06937259 0.16061775 -0.0091905
v 0.01523568 0.0949779 -0.02443714
v -0.02186697 0.04402293 0.0532438
v -0.02924191 0.09045336 0.04423661
v -0.04368647 0.0471545 0.04028631
v 0.05232729 0.06432707 0.02828189
v -0.0506872 0.03593587 -0.01238079
v -0.01524557 0.08294077 0.05693459
v -0.03520323 0.16493551 -0.002681
v 0.01121214 0.06658412 0.05398218
v -0.05892216 0.07754549 0.04296139
v 0.00479899 0.09165484 0.05471517
v -0.05743409 0.0576835 0.00872597
v -0.06715651 0.04197286 0.01024094
v -0.09182203 0.12747346 0.03645865
v -0.06065248 0.10467197 0.04090639
v -0.0320742 0.0383234 -0.0004210900000000007
v -0.03367405 0.17774449 -0.00817995
v 0.00665096 0.0881445 -0.03294581
v -0.06336658 0.13037076 0.04166994
v -0.00950641 0.03835264 0.01557066
v 0.01500497 0.10726898 0.04181199
v -0.04691227 0.03462718 0.03973971
v -0.07172356 0.14617438 -0.02156782
v 0.0251308 0.03454691 0.01101258
v 0.00356411 0.12764883 -0.00446724
v -0.04705966 0.03350186 0.00356464
v -0.03630933 0.11876943 0.03067402
v -0.00658646 0.12641717 0.03022639
v 0.04354774 0.0973894 0.01731465
v 0.03352546 0.10966209 -0.00698948
v -0.07665521 0.15509766 0.00796863
v 0.04513702 0.04462544 0.02551651
v -0.05543665 0.05942025 0.02301897
v -0.05262544 0.05043462 0.02904674
v 0.01673262 0.1099123 -0.01702004
v -0.02357431 0.03703691 0.05414475
v -0.06550953 0.15857325 -0.05560027
v 0.00852878 0.034888 0.0362651
v 0.01775808 0.07013854 -0.02940468
v -0.02821882 0.15758144 -0.01099949
v -0.08173946 0.07686134 0.02331361
v -0.06993725 0.08607686 0.04217569
v -0.01325342 0.16627152 -0.01412037
v -0.03521833 0.06855983 0.04138147
v 0.0373786 0.07309341 -0.01263537
v -0.03948189 0.03361822 -0.02361247
v 0.03525168 0.09083682 0.03918392
v 0.03135225 0.04264928 -0.0046745
v -0.06035541 0.07976661 -0.01937554
v -0.09424355 0.12207432 0.02356847
v -0.01758787 0.11491318 -0.01720504
v -0.03282171 0.123005 -0.00590883
v -0.05647295 0.15778406 0.00817865
v -0.06129574 0.14519988 0.03713783
v 0.0430231 0.06379581 0.02803921
v -0.00389815 0.10566175 0.04404719
v -0.06187966 0.1600045 -0.02580625
v -0.06455872 0.0396399 0.03941153
v 0.05454987 0.05604463 -0.00066158
v -0.07453036 0.06668069 0.00469533
v 0.00084818 0.11670025 -0.01733709
v -0.05231444 0.12159646 -0.01079806
v -0.00044023999999999995 0.05834341 0.05448341
v -0.00022827999999999998 0.04339494 -0.02512442
v -0.00942456 0.05539922 -0.03365398
v 0.00690643 0.03900427 0.02954851
v -0.06920905 0.03545481 0.01204214
v -0.05319879 0.13672896 -0.0016580500000000005
v -0.01887051 0.0989732 0.04448928
v -0.05481332 0.09810248 -0.02142537
v -0.03622359 0.12777519 0.00985015
v 0.00445226 0.03770519 -0.01295765
v -0.03260662 0.07195562 -0.02486658
v 0.01381378 0.12322188 0.03250259
v -0.07135146 0.15727092 -0.04218309
v -0.00849808 0.08399047 0.05760522
v -0.05408812 0.03978121 -0.01054468
v 0.01077461 0.13079162 0.01434174
v -0.01000199 0.07267148 -0.03766137
v -0.04950777 0.129495 0.03025927
v -0.04665026 0.05984095 -0.01213584
v 0.06059493 0.06167721 0.01559156
v -0.08634714 0.09172209 0.02681108
v 0.04111812 0.09749126 -0.00397567
v -0.08957795 0.1207831 0.0035229100000000006
v 0.01636347 0.03439479 0.00229486
v -0.05211593 0.14179906 0.02051031
v 0.02648806 0.12230287 0.02039811
v -0.08699064 0.13812326 0.04231655
v 0.02028447 0.05134919 -0.02489538
v 0.02699676 0.05131778 0.03875204
v -0.09104428 0.14199862 0.02172963
v -0.07808147 0.1235194 0.05213699
v 0.02634802 0.08456223 -0.02315171
v -0.04974745 0.14112519 0.00529375
v 0.04070618 0.06447531 -0.00559203
v -0.0190475 0.09656213 -0.0275799
v -0.07720673 0.1563995 -0.01897254
v -0.0746388 0.14398484 -0.00715046
v -0.03556267 0.04939989 -0.01286504
v -0.03674488 0.08608369 0.04361289
v -0.08645483 0.08694049 0.0009166700000000001
v -0.03675209 0.15802075 0.0041862
v -0.02722907 0.08799148 0.04790973
v -0.04596674 0.10905146 0.03875411
v -0.01796898 0.18078031 -0.01810343
v -0.05034241 0.15546197 -0.00519277
v 0.0246721 0.0636945 0.04520464
v -0.04918664 0.04641123 0.04117004
v -0.05190103 0.09545762 0.04393765
v -0.06713216 0.15709447 -0.0062032
v 0.00037699 0.04493579 0.04651993
v -0.01186603 0.07318375 0.05625005
v 0.00951046 0.09548387 0.0509106
v 0.03629441 0.0712207 0.03711461
v -0.06211615 0.15600787 0.01803442
v -0.0670703 0.18072682 -0.05661862
v -0.0754295 0.17095605 -0.03287989
v -0.09201958 0.11611534 0.03584273
v -0.05418543 0.0673227 0.03693561
v -0.0306039 0.03803846 -0.03012384
v 0.01810979 0.07580659 0.05248826
v -0.05771311 0.04871782 0.00727651
v -0.02772004 0.05050209 0.04334072
v -0.07379571 0.10895629 0.03921725
v 0.05491939 0.07316161 0.01522359
v -0.00924893 0.1772585 -0.0282702
v -0.06576664 0.03646955 -0.0072073
v -0.03922792 0.09918463 -0.02191272
v 0.02132474 0.03462404 0.0056444
v -0.02120084 0.04665709 -0.02795132
v 0.04082479 0.09517022 0.02865792
v -0.01787049 0.03820389 0.02024322
v -0.0366651 0.0353042 0.023032
v -0.01572318 0.16312344 -0.01639657
v -0.05551686 0.1295607 0.03659845
v -0.07564316 0.09944045 -0.01192761
v -0.08825211 0.1269273 0.0461413
v 0.02171297 0.10956342 -0.01508109
v -0.05504716 0.05276756 -0.00394613
v -0.03785728 0.17010102 0.0014236
v 0.0174901 0.0346463 0.0220409
v -0.00808407 0.13030537 0.01687228
v -0.08250651 0.12765487 -0.00467964
v 3.092000000000001e-05 0.12315746 0.03474966
v -0.0701776 0.07566333 -0.01383921
v -0.04149118 0.11224766 0.03587345
v -0.03665841 0.0750873 0.04200694
v 0.02611092 0.1008899 0.04173326
v -0.08653773 0.15154801 0.02587537
v -0.06205929 0.15697807 -0.03378458
v -0.01155858 0.03389543 -0.02105426
v -0.08836646 0.11361863 0.00582278
v -0.06953877 0.06307475 0.00357582
v -0.05557811 0.11567692 -0.01464599
v -0.02630372 0.12518875 0.01739298
v 0.00807238 0.05157414 0.05177356
v -0.01624045 0.12512177 -0.00364997
v -0.03138313 0.05179131 -0.0138868
v -0.07410816 0.17355729 -0.03798684
v 0.03030039 0.11553645 0.02868501
v -0.02493915 0.17031135 -0.0113297
v -0.0654245 0.14011279 0.04130896
v 0.02702074 0.0613457 -0.02229206
v -0.04411124 0.09288399 -0.02237321
v -0.03073405 0.08542756 -0.03050667
v -0.0594986 0.08884547 0.04510929
v -0.01623134 0.12382942 0.02957699
v -0.00268438 0.05124742 0.05318679
v 0.04329341 0.04186414 0.00206344
v -0.02112678 0.1093229 0.04071532
v 0.00648435 0.034293 -0.02085493
v -0.08381225 0.0863377 0.02922327
v -0.07977899 0.13448894 0.05099029
v -0.0011826799999999998 0.05949242 -0.03336092
v -0.04448944 0.06107771 0.03954532
v -0.0717221 0.06702304 0.02495975
v 0.02197754 0.04285533 -0.01453623
v 0.00971632 0.10523506 0.04360383
v -0.07338664 0.15463418 -0.02994383
v 0.00438431 0.04580671 -0.02678899
v -0.06411481 0.09550988 -0.01811461
v -0.04109151 0.034006 -0.01199754
v 0.03844617 0.07564943 0.03505064
v 0.00260403 0.09694266 -0.02840706
v 0.04851267 0.07179818 0.0060005
v -0.00753469 0.10021302 0.0474887
v 0.05953164 0.0605046 0.0058397
v -0.02022534 0.07709519 -0.03904429
v -0.03705379 0.12715094 0.0003547400000000001
v -0.03450261 0.07613002 -0.02237315
v 0.01804526 0.08362316 0.05128584
v 0.00954854 0.03423262 0.0017162
v -0.06392088 0.12774242 -0.00854946
v -0.02394438 0.07880014 0.05353473
v -0.06943845 0.1647993 -0.0172187
v -0.04508261 0.12218447 -0.01156943
v -0.0014089 0.03619308 0.01294455
v -0.08911033 0.13851394 0.03765878
v 0.01347309 0.12429893 -0.00683614
v -0.02426559 0.1568769 -0.00785093
v 0.03741871 0.10850822 0.00033973
v 0.03374835 0.08364414 -0.01863045
v -0.05440375 0.03500731 0.04487459
v 0.05839241 0.06674124 0.02197946
v -0.04765656 0.13077525 0.02552357
v -0.00835625 0.113736 -0.01823981
v 0.01907655 0.09187062 -0.02489023
v -0.06237434 0.04014609 -0.00740402
v -0.04434183 0.15113809 -0.00568598
v 0.02035885 0.12448747 0.02590634
v -0.08373658 0.07677184 0.0089586
v -0.09054938 0.13511875 0.02168055
v 0.03866369 0.05169667 -0.00669102
v -0.08949549 0.09563243 0.01423481
v 0.02318395 0.05865436 0.04587106
v 0.04613397 0.05927881 -0.00477696
v -0.01998764 0.10278313 -0.02339292
v -0.03280004 0.15948699 0.00219628
v -0.06609604 0.15532529 0.00715618
v -0.07553688 0.15977062 -0.01043865
v -0.01498117 0.04257142 0.05140453
v -0.08561303 0.09627711 -0.00066514
v 0.04229655 0.04543577 0.02904092
v 0.0040479 0.09581736 0.05293677
v -0.06151122 0.12373565 0.04306268
v -0.05601079 0.15381662 0.02536928
v -0.00662106 0.09041525 0.05687975
v -0.02586708 0.05668921 0.03918224
v -0.08839924 0.13899 0.01064066
v -0.04918733 0.10452012 0.04030139
v 0.01474429 0.04271695 0.04451031
v -0.07656583 0.11674037 0.05148935
v -0.09273651 0.12073095 0.03269273
v -0.03943032 0.08959762 0.04317789
v -0.05399304 0.14498656 -0.00110934
v 0.01180703 0.07092098 0.05424049
v -0.03893375 0.04636427 0.04036478
v -0.07261837 0.14368135 -0.0109871
v -0.08089452 0.10967225 0.03791023
v -0.00500245 0.069655 0.05689251
v -0.07572944 0.10354026 0.03607097
v -0.04105149 0.04152862 -0.024061
v -0.05183005 0.04856873 0.02164703
v -0.02591961 0.18272826 -0.01354109
v -0.03117289 0.04029433 0.05131246
v 0.01571973 0.07375635 -0.02974777
v -0.06733083 0.03384644 0.00872663
v 0.04571923 0.0694894 0.02354934
v 0.00437145 0.10391901 -0.0215151
v -0.05899998 0.07375155 0.04119708
v -0.0655936 0.17665711 -0.06050473
v 0.05667175 0.05697082 0.02429192
v -0.06373114 0.16577037 -0.06010361
v -0.04075063 0.04928511 -0.0112862
v -0.05071827 0.152763 0.01181668
v 0.04231296 0.05909915 0.03084842
v -0.02924169 0.09429044 0.04482119
v -0.05446366 0.05535745 0.01032684
v 0.01997249 0.05440971 -0.02710823
v -0.06514665 0.03594565 0.03977508
v -0.06963725 0.04188127 0.00318258
v -0.01369113 0.17914707 -0.02812641
v -0.02328575 0.08946803 -0.03602725
v 0.02872312 0.09794322 -0.01749735
v 0.04376623 0.08839002 -0.00357088
v -0.03740303 0.11150775 -0.01824331
v -0.01803149 0.03485997 0.04926476
v -0.02418758 0.07226915 0.04768109
v -0.02169269 0.03826601 0.00451008
v -0.02585131 0.12182948 0.02607967
v 0.00900165 0.03689093 0.02848219
v 0.01930501 0.07901787 -0.02774399
v -0.02360019 0.11513818 -0.01557739
v -0.062019 0.03434318 0.03188328
v -0.0396703 0.036174 -0.00733977
v 0.04432654 0.09081812 0.02209752
v -0.02260159 0.16250449 -0.0060717
v -0.07973935 0.13606854 -0.00414821
v -0.07700431 0.15521281 0.02453477
v -0.03106692 0.06505886 -0.02275108
v -0.0510255 0.07570507 -0.0181869
v -0.01473156 0.07764075 -0.03849067
v 0.03781474 0.07969815 -0.01328963
v 0.02035681 0.0436624 -0.02045628
v -0.06282962 0.1518948 -0.00923734
v -0.0785977 0.17441574 -0.04660758
v 0.02065726 0.1041683 0.04300468
v 0.05909208 0.05795698 0.02027012
v 0.00185499 0.08469279 -0.0348385
v -0.06212611 0.06284536 -0.00452026
v -0.06768448 0.16533627 -0.0554664
v 0.036102 0.11266103 0.01049178
v -0.0792375 0.12055419 -0.00567448
v 0.02906309 0.11149602 0.03380579
v 0.00651117 0.13002517 0.00092881
v -0.06423083 0.14877806 -0.02589971
v 0.01452151 0.06138289 0.0505009
v -0.08235405 0.08087632 -0.00240389
v 0.05673057 0.05051574 0.01062708
v -0.07511501 0.06655704 0.01024409
v -0.00109744 0.03814784 0.02042701
v -0.08126871 0.10879438 0.02944066
v -0.00024264000000000002 0.05453602 0.0546412
v -0.04654958 0.06765213 0.03963579
v -0.00755197 0.11183813 0.04203969
v -0.04485389 0.15746031 -0.00867316
v -0.04654849 0.13320769 0.01688963
v -0.0484515 0.06479412 -0.01302991
v -0.0265689 0.03469583 -0.02911375
v -0.07653781 0.15344875 -0.01289875
v -0.07644067 0.07751106 0.0337483
v -0.00155395 0.12754717 0.02923287
v -0.02541173 0.12472533 0.00012885999999999996
v -0.00794688 0.04148992 -0.02591127
v -0.03098018 0.16634656 -0.01624116
v -0.0008661399999999992 0.06455963 -0.03449093
v 0.05774464 0.06415844 0.00262776
v 0.01926275 0.1268939 0.005555209999999999
v 0.02163267 0.04812727 0.04069443
v -0.08341814 0.09412744 0.03089845
v 0.0169816 0.12715003 0.02293149
v -0.08751121 0.15061504 0.01015246
v -0.03233206 0.04867284 0.04252396
v 0.00446304 0.12427294 -0.00942914
v -0.02812293 0.09932239 -0.02358013
v -0.07222332 0.15896734 -0.00542423
v -0.08943084 0.14730552 0.02769496
v 0.03697509 0.07987648 0.03719839
v 0.01451906 0.06459554 -0.02985569
v -0.05654431 0.12850938 -0.00620147
v 0.04599733 0.06981445 0.00301433
v -0.03470791 0.08403588 -0.02430226
v -0.01742058 0.06965949 0.05408953
v -0.08704141 0.13058932 0.0009116100000000002
v -0.07275916 0.16965906 -0.02701342
v 0.02498901 0.03810458 0.02942957
v 0.03591508 0.05991638 -0.01196651
v -0.05858144 0.05780146 0.01342954
v -0.04953683 0.12491344 0.03177844
v 0.03014532 0.086284 -0.02040814
v -0.03593149 0.09980995 0.0423358
v -0.05265555 0.04849422 0.03873119
v -0.05091096 0.1007457 -0.02161943
v -0.06920138 0.0930392 -0.01648612
v 0.01657396 0.11890153 0.0350423
v 0.02545695 0.03948389 -0.00402514
v -0.0633664 0.06279026 0.02564761
v 0.03440018 0.10503 -0.01022492
v -0.06324205 0.0455497 0.00048427999999999996
v -0.03862358 0.05830329 -0.01150575
v 0.00514504 0.10163906 0.04542301
v -0.01668335 0.08726669 0.05674119
v -0.04979743 0.11342104 0.03511792
v -0.03097877 0.07702086 -0.03281649
v -0.0874265 0.09546953 0.00403124
v -0.05334196 0.144012 0.02426139
v 0.02590364 0.07553604 0.04641665
v -0.06244193 0.14084781 0.03696584
v -0.0008114 0.03742417 0.00477215
v -0.01144041 0.03764077 0.05027573
v -0.09259497 0.11943826 0.02680295
v -0.08618044 0.08257215 0.0063639
v -0.0902417 0.13575994 0.01414916
v -0.00641199 0.09287621 -0.03481764
v -0.00886916 0.09540026 0.05444598
v -0.00763232 0.10304531 0.04371064
v -0.00430826 0.06141857 0.05568849
v -0.02946016 0.15550263 -0.00119147
v -0.06164166 0.15582039 0.01109982
v -0.00234743 0.03590313 -0.01592974
v -0.00205785 0.08099829 0.05755384
v 0.05837457 0.07118641 0.01307274
v 0.03560601 0.03652664 0.00981553
v -0.00970153 0.16738863 -0.01936025
v -0.007824 0.10924112 -0.02218567
v -0.05681066 0.03387394 -0.01116631
v -0.01337343 0.04789241 0.04788385
v -0.07045693 0.10098777 0.03979406
v -0.08380358 0.125611 0.05044049
v 0.0048214 0.07376398 -0.03455245
v -0.03458864 0.04474496 -0.0271229
v 0.01011387 0.07646811 0.05525679
v -0.09113211 0.122821 0.04411516
v -0.08846922 0.11124294 0.01267916
v -0.07725608 0.14565854 0.04312293
v -0.05312132 0.07791243 0.04333492
v -0.0873599 0.11248315 0.04204949
v -0.07324252 0.15231332 -0.03570352
v 0.00493049 0.04198266 0.04572339
v -0.04484287 0.14629393 0.00171148
v -0.06681723 0.11951525 0.05149022
v -0.06153038 0.14037628 -0.00627347
v 0.0173729 0.10246037 -0.0214877
v 0.05040001 0.06729248 0.02685147
v -0.01521069 0.18463639 -0.02205724
v 0.04367318 0.05016223 -0.00598435
v -0.03324434 0.08226659 0.04185218
v -0.03750113 0.0402219 0.04429655
v 0.01396404 0.04557917 -0.02470651
v 0.05052275 0.07339791 0.01616689
v 0.03304036 0.06177384 0.03978144
v -0.05662373 0.09632217 0.04366791
v -0.07564069 0.159304 -0.02690846
v -0.00011289000000000004 0.0692882 0.05657979
v 0.04378536 0.0488037 0.03134342
v -0.03259716 0.17498725 -0.00259531
v -0.06528365 0.15592447 -0.04986593
v -0.05238982 0.04544913 0.0176863
v -0.02312295 0.0945159 0.04735887
v -0.06479261 0.04172453 0.0316169
v -0.06151758 0.17517449 -0.0606317
v -0.05646433 0.03768311 0.04681964
v -0.0261775 0.04249893 0.05331522
v -0.0690003 0.03846771 0.0107689
v -0.04160143 0.15978 0.00353747
v -0.07096183 0.03434573 -0.0007837399999999999
v -0.00958372 0.17426102 -0.02839076
v -0.04767276 0.03611665 -0.01330121
f 729 397 1119
f 319 335 1048
f 98 585 1038
f 460 66 342
f 595 1097 650
f 139 323 992
f 565 116 342
f 116 565 1
f 322 872 611
f 855 150 740
f 680 1 1025
f 805 886 48
f 56 805 48
f 908 13 100
f 331 927 435
f 366 405 369
f 290 322 694
f 939 129 707
f 560 116 790
f 925 408 686
f 408 942 797
f 805 41 32
f 571 1098 338
f 186 1028 499
f 160 584 128
f 265 274 259
f 780 709 459
f 565 150 855
f 311 310 308
f 149 1091 140
f 680 1025 7
f 630 161 1091
f 863 1120 280
f 807 233 607
f 187 426 924
f 150 868 983
f 690 824 1102
f 771 282 259
f 978 320 311
f 316 978 311
f 659 868 150
f 722 123 154
f 306 311 308
f 51 327 983
f 435 927 1068
f 37 1006 121
f 60 775 881
f 146 149 140
f 1003 406 543
f 167 166 727
f 1084 120 138
f 124 123 722
f 140 879 146
f 296 892 292
f 879 569 146
f 162 727 1115
f 162 167 727
f 1016 60 881
f 51 739 327
f 468 477 155
f 613 683 272
f 253 522 1086
f 181 1000 153
f 400 317 955
f 162 943 167
f 152 153 891
f 1084 723 137
f 132 124 1099
f 943 162 1115
f 211 794 917
f 735 292 668
f 948 819 233
f 822 665 1115
f 46 639 821
f 1008 116 560
f 128 584 857
f 716 46 821
f 118 1099 102
f 118 132 1099
f 143 132 142
f 143 822 132
f 853 19 97
f 624 142 132
f 1066 204 134
f 19 184 97
f 424 1035 329
f 341 1048 908
f 76 105 102
f 105 118 102
f 670 204 1066
f 942 318 1047
f 817 859 1066
f 859 31 1066
f 31 670 1066
f 628 424 329
f 143 625 817
f 1074 946 567
f 73 160 768
f 615 72 76
f 142 624 143
f 237 241 270
f 768 163 164
f 733 15 891
f 39 615 716
f 105 119 624
f 947 143 624
f 261 607 302
f 1064 160 73
f 144 143 947
f 144 151 143
f 756 860 76
f 682 119 860
f 1016 775 60
f 720 853 1128
f 813 131 144
f 9 192 235
f 39 72 615
f 148 153 152
f 388 1120 559
f 826 148 152
f 68 72 39
f 682 860 756
f 970 1054 144
f 970 159 1054
f 53 68 39
f 68 90 756
f 159 31 1054
f 1119 235 57
f 953 112 1084
f 226 315 660
f 147 159 970
f 4 31 159
f 941 68 53
f 572 739 4
f 153 148 181
f 34 836 570
f 340 680 7
f 4 159 147
f 128 857 71
f 679 61 590
f 1048 341 319
f 794 900 288
f 198 847 8
f 163 361 644
f 107 953 617
f 87 112 953
f 956 74 369
f 29 54 34
f 54 29 55
f 714 29 34
f 1025 71 857
f 1103 558 193
f 163 883 583
f 87 1095 120
f 826 152 937
f 714 934 29
f 790 680 43
f 127 110 719
f 340 7 786
f 300 305 497
f 940 137 1078
f 397 11 1119
f 306 316 311
f 733 1000 661
f 120 112 87
f 29 40 55
f 133 343 1065
f 58 62 42
f 133 115 343
f 329 289 318
f 87 953 1117
f 58 65 62
f 1046 825 110
f 653 883 163
f 110 825 111
f 592 310 78
f 1090 35 40
f 43 680 340
f 934 23 1090
f 1018 653 163
f 881 775 1080
f 824 604 881
f 679 82 40
f 164 163 1079
f 1018 71 653
f 120 1084 112
f 23 35 1090
f 40 881 63
f 1084 137 940
f 953 107 825
f 107 617 825
f 595 91 1097
f 209 77 61
f 557 550 178
f 350 25 18
f 965 1118 206
f 201 194 205
f 267 890 997
f 311 320 310
f 1010 215 721
f 607 799 302
f 41 94 32
f 742 47 450
f 93 188 41
f 873 1058 661
f 202 206 191
f 632 196 931
f 224 1104 676
f 211 92 717
f 234 246 243
f 666 1104 224
f 242 240 695
f 263 433 930
f 1108 222 257
f 1118 965 618
f 600 214 875
f 191 206 1118
f 166 224 161
f 938 731 188
f 660 240 896
f 969 221 216
f 183 189 944
f 938 182 731
f 214 1071 875
f 803 210 194
f 969 216 691
f 166 223 224
f 265 259 253
f 215 1010 201
f 167 165 223
f 166 167 223
f 223 165 182
f 1058 7 15
f 598 1071 214
f 1103 203 197
f 848 731 182
f 213 214 731
f 213 212 214
f 214 212 598
f 1030 705 288
f 643 186 752
f 21 17 623
f 25 21 18
f 939 228 135
f 904 1070 610
f 194 928 205
f 928 215 201
f 182 1052 848
f 662 42 189
f 218 229 834
f 172 182 165
f 212 213 598
f 205 928 201
f 1070 904 834
f 182 134 1052
f 1114 216 219
f 28 235 192
f 944 1032 194
f 134 182 172
f 500 493 994
f 243 148 610
f 134 172 165
f 792 177 213
f 218 949 215
f 672 141 741
f 592 660 315
f 949 218 834
f 243 610 1070
f 238 818 28
f 404 474 458
f 213 177 598
f 238 222 818
f 198 69 20
f 148 1000 181
f 93 14 1104
f 195 148 243
f 217 79 27
f 610 138 236
f 234 195 246
f 234 243 1070
f 874 192 720
f 968 184 19
f 820 219 225
f 944 690 1102
f 944 194 690
f 958 353 555
f 310 592 308
f 844 79 217
f 20 913 198
f 179 720 632
f 222 238 28
f 315 308 592
f 33 936 42
f 236 120 1095
f 446 324 257
f 949 1095 87
f 622 705 337
f 226 660 221
f 219 232 225
f 219 234 232
f 990 179 632
f 240 759 695
f 1041 234 219
f 282 278 1012
f 566 844 217
f 294 256 270
f 585 841 381
f 221 660 896
f 1007 873 661
f 194 201 690
f 253 696 576
f 355 91 331
f 444 404 458
f 161 630 166
f 222 28 874
f 691 216 1114
f 192 9 720
f 820 1070 218
f 189 183 175
f 1094 444 458
f 240 242 1041
f 200 79 844
f 225 232 234
f 240 844 759
f 815 184 197
f 1128 853 97
f 316 103 978
f 1079 768 164
f 815 196 184
f 869 201 209
f 173 23 934
f 236 138 120
f 1070 229 218
f 195 861 148
f 229 1070 834
f 499 847 198
f 853 720 9
f 820 218 215
f 566 217 190
f 648 294 270
f 965 211 717
f 482 871 812
f 874 28 192
f 325 204 45
f 243 246 195
f 42 62 803
f 198 8 755
f 967 482 812
f 62 612 803
f 818 634 28
f 1041 242 695
f 818 222 1108
f 652 380 169
f 175 183 944
f 235 28 57
f 661 190 1007
f 258 769 113
f 280 319 769
f 199 319 280
f 285 876 703
f 33 1049 536
f 797 309 686
f 309 117 101
f 726 367 372
f 113 998 81
f 687 287 257
f 453 412 897
f 996 588 316
f 1130 287 145
f 885 331 642
f 331 435 436
f 704 300 497
f 796 260 450
f 255 309 865
f 461 737 673
f 312 588 996
f 303 911 334
f 796 220 260
f 978 310 320
f 930 809 98
f 642 331 426
f 145 287 1087
f 435 1068 434
f 286 1050 703
f 725 352 362
f 331 436 426
f 64 367 245
f 345 354 387
f 804 628 708
f 586 662 189
f 490 187 420
f 365 945 364
f 89 269 440
f 506 479 462
f 550 23 173
f 865 309 797
f 586 1049 662
f 890 266 1059
f 302 799 575
f 366 362 352
f 413 771 457
f 237 199 280
f 300 704 757
f 804 1040 396
f 275 321 199
f 1040 862 396
f 252 251 248
f 996 316 306
f 270 275 199
f 237 270 199
f 956 405 1121
f 314 804 708
f 267 266 890
f 757 306 658
f 329 330 289
f 769 863 280
f 703 281 266
f 796 450 47
f 286 300 291
f 914 141 672
f 270 321 275
f 1069 264 598
f 286 291 1050
f 27 79 200
f 503 1045 903
f 799 177 273
f 1012 278 191
f 193 197 203
f 1076 925 314
f 427 374 753
f 273 177 575
f 388 668 292
f 672 741 207
f 917 794 293
f 1001 794 211
f 503 903 502
f 799 273 575
f 1069 598 177
f 191 278 1001
f 288 293 794
f 207 741 989
f 741 141 27
f 951 683 468
f 322 59 872
f 998 38 81
f 609 261 328
f 838 917 293
f 1118 42 936
f 49 70 50
f 622 838 1085
f 780 233 709
f 823 1039 326
f 70 2 157
f 226 961 1113
f 303 334 230
f 1028 729 621
f 117 1097 125
f 898 315 337
f 1113 315 226
f 686 408 797
f 91 125 1097
f 323 139 743
f 52 325 45
f 129 106 49
f 323 396 862
f 565 659 150
f 823 326 646
f 199 611 335
f 49 106 70
f 319 908 36
f 770 699 579
f 321 270 256
f 325 52 204
f 762 567 101
f 70 571 50
f 106 992 70
f 328 52 130
f 101 567 925
f 783 51 659
f 135 968 19
f 139 106 828
f 51 45 739
f 135 129 939
f 100 933 1039
f 38 932 1082
f 2 677 157
f 130 52 51
f 38 1082 378
f 139 992 106
f 976 562 878
f 328 261 1020
f 113 36 12
f 326 743 646
f 52 45 51
f 829 694 256
f 1082 139 828
f 1005 647 27
f 261 302 1020
f 628 323 1035
f 85 783 3
f 378 1082 765
f 1119 57 28
f 1005 333 647
f 354 352 387
f 85 328 783
f 914 333 1005
f 914 332 333
f 575 177 918
f 354 394 352
f 6 873 568
f 338 94 50
f 1064 73 937
f 333 339 800
f 571 338 50
f 332 336 333
f 336 339 333
f 1078 137 73
f 61 869 209
f 341 908 319
f 113 272 1009
f 579 639 746
f 957 1119 28
f 1031 114 339
f 339 114 43
f 781 644 361
f 1034 340 786
f 199 335 319
f 436 435 426
f 1036 950 360
f 39 836 53
f 372 911 726
f 186 24 1028
f 637 40 82
f 669 493 1021
f 122 131 1110
f 768 1079 73
f 360 950 1111
f 1087 755 847
f 48 886 372
f 373 74 745
f 127 1065 343
f 360 958 1036
f 343 1122 816
f 613 272 113
f 770 1123 346
f 372 32 368
f 368 1098 157
f 123 754 154
f 326 1039 933
f 332 428 336
f 579 699 1055
f 1123 349 346
f 1092 48 372
f 1055 639 579
f 555 353 350
f 467 760 250
f 154 754 359
f 1046 110 907
f 92 838 1107
f 981 601 907
f 140 656 359
f 1017 75 888
f 981 907 122
f 349 354 345
f 366 369 971
f 991 432 318
f 343 115 781
f 1063 478 671
f 894 1057 185
f 1036 958 836
f 193 203 1103
f 348 1127 351
f 1127 725 351
f 32 1098 368
f 492 503 502
f 158 357 140
f 682 122 1110
f 599 99 689
f 127 816 122
f 364 805 365
f 958 360 353
f 186 563 24
f 713 1106 262
f 504 652 591
f 357 158 954
f 885 656 795
f 830 100 13
f 98 1038 930
f 56 48 1092
f 725 362 393
f 127 343 816
f 155 597 811
f 941 601 981
f 765 363 378
f 366 371 835
f 305 300 295
f 352 725 344
f 64 370 1096
f 765 11 363
f 239 945 365
f 559 1120 863
f 357 954 599
f 599 954 1015
f 850 372 1096
f 388 559 863
f 56 1092 805
f 885 359 656
f 353 360 1111
f 677 368 157
f 370 850 1096
f 441 851 747
f 402 674 773
f 395 789 921
f 423 390 290
f 386 322 290
f 390 749 582
f 999 386 290
f 390 664 290
f 322 386 999
f 787 638 390
f 726 911 303
f 390 638 574
f 892 638 787
f 577 663 513
f 433 89 440
f 415 419 425
f 1116 830 574
f 419 416 425
f 429 878 1067
f 1037 773 673
f 1116 80 830
f 411 416 415
f 415 416 419
f 415 474 411
f 405 956 369
f 137 937 73
f 407 411 474
f 425 785 429
f 795 331 885
f 163 781 361
f 429 1045 878
f 80 100 830
f 903 1045 429
f 1116 100 80
f 474 404 407
f 506 466 479
f 292 247 296
f 296 247 892
f 384 955 383
f 407 404 411
f 292 735 247
f 247 810 892
f 892 810 304
f 993 492 785
f 383 385 384
f 400 404 317
f 903 492 502
f 1116 244 100
f 384 400 955
f 75 74 746
f 389 384 385
f 351 974 631
f 389 400 384
f 394 1121 352
f 983 327 739
f 410 428 851
f 74 373 369
f 628 1035 424
f 871 482 581
f 958 350 548
f 314 942 1076
f 560 912 737
f 961 226 221
f 446 257 702
f 437 168 109
f 91 99 125
f 806 307 920
f 463 464 641
f 397 729 11
f 170 168 437
f 619 501 455
f 44 227 1023
f 255 117 309
f 654 263 381
f 430 168 170
f 737 1037 673
f 919 1088 763
f 852 406 409
f 496 418 422
f 426 435 434
f 1011 136 168
f 935 578 688
f 89 453 443
f 227 326 933
f 1023 227 933
f 1003 418 496
f 392 578 935
f 597 227 811
f 1062 395 277
f 543 418 1003
f 418 420 422
f 1011 711 136
f 10 578 392
f 317 404 444
f 935 650 392
f 438 651 95
f 974 1062 277
f 395 1062 399
f 422 711 1011
f 358 452 1053
f 432 991 347
f 378 438 95
f 629 406 399
f 378 651 438
f 126 650 935
f 1047 318 432
f 743 326 227
f 835 629 399
f 289 330 227
f 711 434 814
f 434 1068 814
f 945 805 364
f 835 399 393
f 711 1075 434
f 121 865 37
f 428 742 851
f 262 806 920
f 443 453 897
f 269 89 443
f 294 648 1124
f 428 410 441
f 452 358 262
f 1044 808 306
f 452 103 915
f 220 103 452
f 784 514 1072
f 300 876 295
f 870 414 654
f 737 461 460
f 764 431 299
f 1044 442 808
f 90 68 941
f 919 594 1088
f 443 439 283
f 442 929 808
f 269 443 809
f 626 260 977
f 919 763 986
f 378 449 38
f 449 81 38
f 713 307 730
f 458 398 1094
f 378 81 449
f 402 441 747
f 95 657 378
f 454 1105 81
f 3 870 284
f 870 460 673
f 250 760 882
f 986 263 654
f 780 948 233
f 460 461 673
f 284 870 654
f 221 767 961
f 774 867 375
f 88 774 375
f 678 441 912
f 626 1106 747
f 870 673 414
f 3 764 902
f 459 609 780
f 780 609 655
f 431 867 774
f 977 452 262
f 898 337 705
f 709 609 459
f 413 1030 771
f 609 301 391
f 431 561 447
f 678 428 441
f 193 558 643
f 851 1061 260
f 301 456 909
f 456 431 909
f 443 421 439
f 26 1107 838
f 412 962 417
f 742 1061 851
f 453 962 412
f 979 841 561
f 410 851 441
f 704 985 806
f 431 456 301
f 299 431 301
f 395 399 401
f 413 442 1044
f 413 457 442
f 69 913 20
f 764 301 902
f 764 299 301
f 208 324 702
f 284 403 431
f 688 849 109
f 156 382 375
f 347 991 155
f 274 1109 457
f 789 395 401
f 493 495 1021
f 1022 464 463
f 422 858 496
f 882 760 265
f 760 471 1109
f 1109 808 929
f 422 170 858
f 1056 681 448
f 1109 926 808
f 121 382 578
f 906 155 477
f 894 185 782
f 495 493 500
f 906 477 1043
f 478 482 967
f 477 1105 780
f 377 380 504
f 377 782 380
f 492 495 503
f 487 852 409
f 269 433 440
f 561 448 447
f 504 380 652
f 1019 186 922
f 669 1021 852
f 170 437 109
f 228 968 135
f 422 430 170
f 643 922 186
f 170 1057 858
f 876 285 295
f 467 1059 760
f 81 1105 113
f 852 793 401
f 1077 421 501
f 382 698 88
f 997 802 703
f 295 497 305
f 585 484 841
f 484 1056 841
f 802 285 703
f 295 751 497
f 548 734 846
f 681 375 867
f 285 589 295
f 500 994 495
f 972 589 285
f 478 495 492
f 96 503 495
f 125 99 544
f 495 994 96
f 620 1112 268
f 295 1042 751
f 606 806 985
f 1112 480 972
f 347 698 382
f 10 121 578
f 959 606 985
f 606 307 806
f 511 515 510
f 1042 476 485
f 651 563 95
f 730 307 606
f 877 484 585
f 962 376 417
f 856 37 432
f 1112 473 480
f 503 96 1045
f 755 8 847
f 620 462 469
f 473 475 480
f 681 156 375
f 448 431 447
f 473 476 475
f 476 480 475
f 685 488 1093
f 893 470 473
f 470 476 473
f 877 169 484
f 504 782 377
f 606 701 1002
f 89 962 453
f 488 685 1029
f 1093 488 701
f 1027 469 462
f 462 479 466
f 587 481 887
f 481 777 887
f 248 249 252
f 776 1027 470
f 777 605 1029
f 605 488 1029
f 587 777 481
f 155 811 468
f 1004 964 648
f 995 455 501
f 385 383 1131
f 504 180 782
f 864 511 510
f 463 641 1027
f 1027 472 587
f 395 921 277
f 109 156 681
f 390 582 787
f 1130 145 5
f 843 1027 641
f 995 619 455
f 180 504 761
f 605 491 995
f 401 793 573
f 423 964 1004
f 474 483 472
f 483 486 491
f 901 619 995
f 496 498 1003
f 1057 180 761
f 324 446 702
f 901 976 619
f 37 856 1006
f 498 493 1003
f 478 492 671
f 483 489 486
f 489 491 486
f 266 281 471
f 885 279 1024
f 505 5 564
f 489 483 474
f 406 487 409
f 345 387 352
f 464 1022 641
f 477 780 1043
f 415 489 474
f 425 489 415
f 425 697 489
f 930 381 263
f 465 505 564
f 458 474 843
f 901 562 976
f 382 88 375
f 499 465 564
f 465 621 5
f 505 465 5
f 922 819 1019
f 736 528 854
f 576 531 522
f 553 958 548
f 864 1083 511
f 736 522 528
f 528 522 854
f 254 252 249
f 292 379 388
f 550 1073 178
f 125 544 1074
f 171 174 635
f 633 946 1074
f 946 633 831
f 514 513 516
f 1015 552 633
f 633 552 831
f 16 550 174
f 586 635 530
f 910 732 1072
f 254 249 884
f 249 577 884
f 531 33 536
f 1083 645 511
f 552 710 64
f 645 527 511
f 1014 845 732
f 370 64 1100
f 905 798 517
f 350 958 555
f 1015 952 552
f 233 819 558
f 531 536 522
f 508 864 506
f 527 845 982
f 271 365 370
f 220 796 103
f 837 952 1015
f 171 175 174
f 427 279 374
f 271 547 365
f 753 279 427
f 1013 490 420
f 490 279 753
f 271 239 547
f 239 365 547
f 550 980 174
f 556 554 1013
f 1013 554 490
f 866 549 772
f 549 556 1013
f 576 522 253
f 239 710 837
f 554 313 490
f 889 279 490
f 580 239 837
f 1129 348 351
f 549 554 556
f 554 83 313
f 554 549 83
f 580 14 239
f 83 889 490
f 313 83 490
f 784 513 514
f 543 724 549
f 511 527 515
f 684 154 279
f 154 1024 279
f 960 348 1129
f 525 960 1129
f 635 175 171
f 352 344 345
f 406 629 543
f 433 763 1088
f 525 840 451
f 539 960 525
f 1051 297 549
f 549 297 83
f 1060 83 297
f 519 525 1089
f 745 74 1060
f 519 1089 718
f 523 537 593
f 463 466 506
f 539 345 344
f 345 346 349
f 537 523 74
f 537 963 593
f 1131 520 519
f 758 895 1131
f 519 532 636
f 987 973 346
f 191 1118 744
f 738 532 519
f 738 636 532
f 846 640 539
f 75 537 74
f 507 895 758
f 520 1131 895
f 884 508 506
f 910 1014 732
f 550 557 980
f 693 317 398
f 832 102 104
f 536 1049 522
f 507 758 603
f 423 829 964
f 16 23 550
f 75 1017 832
f 1017 102 832
f 249 663 577
f 248 251 249
f 846 545 640
f 916 298 987
f 1125 298 916
f 557 178 980
f 178 748 980
f 1022 507 603
f 509 524 518
f 1014 546 845
f 512 509 507
f 728 524 509
f 510 509 512
f 734 545 846
f 507 510 512
f 734 987 545
f 463 507 1022
f 507 864 510
f 18 987 734
f 745 1051 369
f 373 745 369
f 678 912 560
f 1031 560 114
f 1056 841 561
f 1056 561 448
f 1067 878 562
f 1067 562 901
f 11 651 563
f 11 563 24
f 145 5 564
f 145 847 1087
f 66 342 565
f 66 565 659
f 195 861 759
f 195 759 695
f 303 726 567
f 303 567 925
f 923 6 568
f 43 800 339
f 124 879 569
f 124 569 132
f 958 836 570
f 22 748 980
f 157 70 571
f 157 571 1098
f 880 150 983
f 67 653 71
f 389 400 573
f 789 573 401
f 664 390 574
f 664 574 830
f 1020 302 575
f 1020 575 918
f 191 696 576
f 191 576 744
f 508 884 577
f 784 577 513
f 156 382 578
f 849 578 688
f 1123 770 579
f 354 579 394
f 224 676 580
f 224 580 161
f 411 871 581
f 993 671 492
f 1120 388 582
f 1120 582 749
f 147 4 583
f 1122 781 343
f 15 7 584
f 15 584 160
f 86 877 585
f 86 585 98
f 175 635 586
f 175 586 189
f 470 887 587
f 470 587 1027
f 103 316 588
f 103 588 915
f 480 972 589
f 480 589 476
f 77 61 590
f 77 1117 87
f 498 493 591
f 858 761 1057
f 207 989 592
f 207 592 78
f 154 722 593
f 154 593 684
f 176 89 594
f 176 594 674
f 1068 927 595
f 126 595 650
f 12 823 596
f 12 596 36
f 289 227 597
f 289 597 318
f 49 766 598
f 49 707 129
f 355 689 599
f 355 599 357
f 41 94 600
f 41 600 188
f 55 941 601
f 1046 601 907
f 420 422 602
f 924 602 426
f 276 758 603
f 276 603 833
f 30 824 604
f 869 604 61
f 483 777 605
f 483 605 491
f 494 959 606
f 1093 606 701
f 197 233 607
f 197 968 184
f 365 805 608
f 365 608 370
f 85 328 609
f 85 609 301
f 108 148 610
f 108 610 138
f 321 199 611
f 694 611 322
f 210 803 612
f 706 1114 219
f 1105 113 613
f 468 613 683
f 797 942 614
f 37 1047 432
f 46 716 888
f 46 888 639
f 281 926 616
f 1050 658 291
f 111 825 617
f 111 617 788
f 65 1118 618
f 969 767 221
f 439 283 619
f 1077 619 501
f 254 884 620
f 254 620 268
f 208 5 621
f 208 621 957
f 288 1085 622
f 288 622 705
f 18 21 623
f 18 916 987
f 118 132 624
f 118 624 105
f 1054 31 625
f 151 625 143
f 262 977 626
f 262 626 1106
f 529 533 667
f 529 667 521
f 396 804 628
f 396 628 323
f 371 835 629
f 724 629 543
f 149 1091 630
f 149 630 1115
f 277 974 631
f 840 1129 525
f 69 931 632
f 69 632 990
f 544 1074 633
f 544 633 99
f 729 1119 957
f 729 957 621
f 534 984 635
f 534 635 530
f 525 519 636
f 525 636 539
f 55 40 637
f 55 637 601
f 304 892 638
f 1116 638 574
f 75 888 639
f 75 639 746
f 345 539 987
f 345 987 346
f 458 1022 641
f 458 641 843
f 753 374 642
f 753 642 426
f 69 913 643
f 69 1081 931
f 1078 73 899
f 115 899 781
f 1072 527 645
f 1072 645 784
f 139 743 646
f 139 932 1082
f 568 27 647
f 568 800 923
f 966 1004 648
f 241 648 270
f 250 467 649
f 250 1086 253
f 10 1097 650
f 10 650 392
f 363 378 651
f 363 651 11
f 96 994 652
f 96 652 169
f 572 67 653
f 572 653 4
f 403 284 654
f 403 654 381
f 391 609 655
f 774 1043 906
f 357 140 656
f 357 656 1033
f 81 378 657
f 81 948 454
f 616 1050 658
f 808 658 306
f 3 783 659
f 1026 659 66
f 84 240 660
f 989 660 592
f 15 1058 661
f 15 661 733
f 33 42 662
f 33 662 1049
f 251 249 663
f 251 798 842
f 999 290 664
f 59 664 830
f 143 822 665
f 143 943 817
f 223 224 666
f 223 666 182
f 627 521 667
f 1014 778 546
f 1009 735 668
f 863 668 388
f 487 852 669
f 1003 669 493
f 45 739 670
f 45 670 204
f 581 1063 671
f 581 671 993
f 78 47 672
f 78 672 207
f 919 414 673
f 445 673 773
f 747 402 674
f 376 674 176
f 469 620 675
f 893 675 473
f 14 580 676
f 14 676 1104
f 1040 862 677
f 334 677 911
f 336 339 678
f 336 678 428
f 1080 61 679
f 63 679 40
f 116 790 680
f 116 680 1
f 185 109 681
f 185 681 1056
f 981 122 682
f 90 682 756
f 247 735 683
f 247 683 44
f 889 279 684
f 523 684 593
f 485 476 685
f 485 685 494
f 101 925 686
f 101 686 309
f 222 179 687
f 222 687 257
f 168 109 688
f 168 688 136
f 91 99 689
f 91 689 355
f 30 824 690
f 30 690 201
f 62 1114 691
f 62 691 969
f 94 50 692
f 94 692 600
f 276 398 693
f 276 693 383
f 321 256 694
f 321 694 611
f 234 195 695
f 234 695 1041
f 259 253 696
f 259 1012 282
f 491 489 697
f 491 901 995
f 155 906 698
f 155 698 347
f 17 21 699
f 17 699 770
f 98 86 700
f 98 700 809
f 501 488 701
f 501 701 1002
f 5 208 702
f 5 702 975
f 267 997 703
f 267 703 266
f 312 757 704
f 915 704 806
f 413 1030 705
f 413 705 1044
f 210 1114 706
f 210 928 194
f 598 264 707
f 598 707 49
f 329 314 708
f 329 708 628
f 807 233 709
f 261 709 609
f 271 239 710
f 271 1100 370
f 602 1075 711
f 602 711 422
f 596 823 712
f 908 1039 100
f 412 1106 713
f 412 713 730
f 570 34 714
f 1126 748 22
f 131 144 715
f 131 816 122
f 25 821 716
f 950 716 39
f 618 965 717
f 767 1107 26
f 1131 519 718
f 389 789 573
f 111 110 719
f 111 719 788
f 196 632 720
f 196 720 1128
f 77 87 721
f 77 721 209
f 104 124 722
f 963 722 593
f 138 1084 723
f 138 723 826
f 971 629 724
f 971 724 369
f 356 351 725
f 356 725 393
f 245 367 726
f 946 726 567
f 630 1115 727
f 630 727 166
f 510 982 728
f 510 728 509
f 24 11 729
f 24 729 1028
f 897 412 730
f 421 1002 501
f 600 188 731
f 600 731 214
f 527 1072 732
f 527 732 845
f 153 1000 733
f 153 733 891
f 350 548 734
f 350 734 18
f 272 1009 735
f 272 735 683
f 649 842 736
f 649 736 522
f 1008 560 737
f 342 737 460
f 520 519 738
f 520 738 526
f 31 670 739
f 31 739 4
f 67 71 740
f 880 740 150
f 200 989 741
f 200 741 27
f 332 914 742
f 332 742 428
f 330 323 743
f 330 743 227
f 531 33 744
f 531 744 576
f 297 1051 745
f 297 745 1060
f 394 579 746
f 956 746 74
f 376 674 747
f 376 747 417
f 714 1126 748
f 714 748 934
f 241 237 749
f 966 749 1004
f 635 984 750
f 635 750 174
f 485 1042 751
f 485 959 494
f 499 198 752
f 499 752 186
f 187 426 753
f 187 753 490
f 140 359 754
f 140 754 123
f 179 687 755
f 179 755 198
f 72 76 756
f 72 756 68
f 291 300 757
f 291 757 658
f 383 276 758
f 383 758 1131
f 566 844 759
f 566 759 190
f 266 1059 760
f 266 760 471
f 591 498 761
f 591 761 504
f 117 101 762
f 117 1074 125
f 263 986 763
f 263 763 433
f 284 431 764
f 284 764 3
f 19 135 765
f 19 765 11
f 50 49 766
f 50 1071 875
f 618 969 767
f 618 767 1107
f 1018 163 768
f 128 768 160
f 36 113 769
f 36 769 319
f 298 17 770
f 298 973 987
f 274 259 771
f 274 771 457
f 418 866 772
f 418 772 420
f 594 674 773
f 594 773 445
f 909 431 774
f 391 774 655
f 61 1016 775
f 61 775 1080
f 469 675 776
f 469 776 1027
f 472 587 777
f 472 777 483
f 667 984 778
f 667 778 1014
f 344 725 779
f 344 960 539
f 454 948 780
f 454 780 1105
f 583 163 781
f 583 781 147
f 169 380 782
f 169 1056 484
f 130 328 783
f 130 783 51
f 508 577 784
f 1083 784 645
f 416 425 785
f 416 785 993
f 1058 7 786
f 6 786 923
f 388 1101 787
f 388 787 582
f 133 719 788
f 940 788 1084
f 718 451 789
f 718 789 389
f 114 560 790
f 114 790 43
f 488 501 791
f 488 791 605
f 918 177 792
f 204 1052 134
f 478 495 793
f 478 793 573
f 278 1001 794
f 278 794 900
f 355 331 795
f 1033 795 656
f 978 103 796
f 78 796 47
f 37 614 797
f 37 797 865
f 663 905 798
f 663 798 251
f 228 607 799
f 228 1069 264
f 647 568 800
f 647 800 333
f 368 372 801
f 368 801 677
f 268 997 802
f 268 802 1112
f 1032 194 803
f 189 803 42
f 230 314 804
f 230 804 334
f 93 945 805
f 93 805 41
f 358 1053 806
f 358 806 262
f 261 709 807
f 261 807 607
f 616 658 808
f 616 808 926
f 283 443 809
f 283 976 619
f 244 1116 810
f 244 810 1023
f 44 227 811
f 44 951 683
f 400 404 812
f 400 812 573
f 1110 131 813
f 119 947 624
f 136 711 814
f 136 814 1068
f 193 197 815
f 193 931 1081
f 715 131 816
f 970 816 1122
f 167 1066 817
f 167 817 943
f 208 1108 818
f 208 818 634
f 95 657 819
f 95 819 563
f 706 219 820
f 928 820 215
f 21 25 821
f 21 821 699
f 569 1115 822
f 569 822 132
f 38 12 823
f 38 823 932
f 23 1102 824
f 23 824 35
f 82 1046 825
f 82 825 953
f 108 138 826
f 108 826 148
f 216 221 827
f 216 827 219
f 129 135 828
f 129 828 106
f 290 694 829
f 290 829 423
f 335 611 872
f 335 872 1048
f 64 245 831
f 64 831 552
f 537 75 832
f 537 832 963
f 398 276 833
f 398 833 458
f 231 949 834
f 231 834 904
f 362 393 835
f 362 835 366
f 54 34 836
f 54 836 53
f 161 580 837
f 954 837 1015
f 337 622 838
f 1113 838 26
f 257 287 839
f 975 839 5
f 277 921 840
f 277 840 1129
f 403 381 841
f 403 841 979
f 467 649 842
f 467 842 251
f 472 1027 843
f 472 843 474
f 989 200 844
f 84 844 240
f 541 982 845
f 541 845 551
f 538 535 846
f 538 846 548
f 564 145 847
f 564 847 499
f 213 731 848
f 213 848 792
f 156 578 849
f 156 849 109
f 608 370 850
f 1092 850 372
f 626 747 851
f 626 851 260
f 399 401 852
f 399 852 406
f 11 9 853
f 11 853 19
f 530 522 854
f 530 854 534
f 1 565 855
f 1 855 740
f 347 432 856
f 347 856 382
f 7 1025 857
f 7 857 584
f 498 496 858
f 498 858 761
f 625 817 859
f 625 859 31
f 105 76 860
f 105 860 119
f 190 661 861
f 190 861 759
f 2 323 862
f 2 862 677
f 258 769 863
f 258 863 668
f 463 507 864
f 463 864 506
f 10 255 865
f 10 865 121
f 543 549 866
f 543 866 418
f 448 431 867
f 448 867 681
f 51 983 868
f 51 868 659
f 30 604 869
f 30 869 201
f 66 1026 870
f 66 870 460
f 404 812 871
f 404 871 411
f 830 1048 872
f 830 872 59
f 27 1007 873
f 27 873 568
f 179 222 874
f 179 874 720
f 692 600 875
f 692 875 50
f 286 703 876
f 286 876 300
f 96 169 877
f 96 877 86
f 700 86 878
f 700 878 976
f 123 140 879
f 123 879 124
f 67 572 880
f 67 880 740
f 35 824 881
f 35 881 40
f 253 250 882
f 253 882 265
f 4 583 883
f 4 883 653
f 462 506 884
f 462 884 620
f 374 642 885
f 374 885 279
f 32 805 886
f 32 886 372
f 476 685 887
f 476 887 470
f 615 76 888
f 615 888 716
f 523 684 889
f 523 889 83
f 252 254 890
f 252 890 1059
f 160 1064 891
f 160 891 15
f 1101 787 892
f 379 892 292
f 776 675 893
f 776 893 470
f 180 782 894
f 180 894 1057
f 509 507 895
f 988 895 520
f 827 221 896
f 827 1041 219
f 421 443 897
f 421 897 730
f 308 315 898
f 1044 898 705
f 644 781 899
f 1079 899 73
f 282 278 900
f 282 1030 771
f 697 491 901
f 697 901 1067
f 85 301 902
f 85 902 3
f 785 429 903
f 785 903 492
f 236 231 904
f 236 904 610
f 513 516 905
f 513 905 663
f 88 698 906
f 88 906 774
f 127 110 907
f 127 907 122
f 596 712 908
f 596 908 36
f 391 774 909
f 391 909 301
f 521 1072 910
f 521 910 627
f 801 677 911
f 801 911 372
f 402 737 912
f 402 912 441
f 752 643 913
f 752 913 198
f 47 672 914
f 47 914 742
f 312 588 915
f 312 915 704
f 623 1125 916
f 623 916 18
f 92 211 917
f 92 917 838
f 204 792 918
f 204 918 52
f 445 594 919
f 445 919 673
f 713 262 920
f 713 920 307
f 451 840 921
f 451 921 789
f 558 819 922
f 558 922 643
f 43 800 923
f 1034 923 786
f 420 602 924
f 420 924 187
f 230 314 925
f 230 925 303
f 471 1109 926
f 471 926 281
f 91 595 927
f 91 927 331
f 706 820 928
f 706 928 210
f 457 442 929
f 457 929 1109
f 269 433 930
f 269 930 809
f 815 196 931
f 815 931 193
f 646 823 932
f 646 932 139
f 244 100 933
f 244 933 1023
f 178 748 934
f 178 934 1073
f 136 1068 935
f 136 935 688
f 744 1118 936
f 744 936 33
f 723 826 937
f 723 937 137
f 666 188 938
f 666 938 182
f 264 707 939
f 264 939 228
f 133 788 940
f 133 940 1078
f 54 55 941
f 54 941 53
f 329 318 942
f 329 942 314
f 665 1115 943
f 665 943 143
f 174 1102 944
f 174 944 175
f 14 93 945
f 14 945 239
f 245 726 946
f 245 946 831
f 813 119 947
f 813 947 144
f 657 81 948
f 657 948 819
f 721 87 949
f 721 949 215
f 25 716 950
f 25 950 1111
f 811 44 951
f 811 951 468
f 710 552 952
f 710 952 837
f 679 1117 953
f 679 953 82
f 161 158 954
f 161 954 837
f 693 383 955
f 693 955 317
f 394 1121 956
f 394 956 746
f 634 28 957
f 634 957 208
f 22 1126 958
f 22 958 553
f 751 985 959
f 751 959 485
f 779 348 960
f 779 960 344
f 26 767 961
f 26 961 1113
f 176 376 962
f 176 962 89
f 104 722 963
f 104 963 832
f 256 829 964
f 1124 964 648
f 1001 211 965
f 202 965 206
f 241 749 966
f 241 966 648
f 573 812 967
f 573 967 478
f 607 228 968
f 607 968 197
f 65 62 969
f 65 969 618
f 715 144 970
f 715 970 816
f 371 629 971
f 371 971 366
f 802 285 972
f 802 972 1112
f 770 298 973
f 770 973 346
f 356 351 974
f 356 974 393
f 257 839 975
f 257 975 702
f 809 283 976
f 809 976 700
f 220 260 977
f 220 977 452
f 78 310 978
f 78 978 796
f 431 561 979
f 431 979 403
f 553 22 980
f 553 980 174
f 90 941 981
f 90 981 682
f 515 510 982
f 515 982 527
f 572 880 983
f 572 983 739
f 533 534 984
f 533 984 667
f 497 704 985
f 497 985 751
f 414 919 986
f 414 986 654
f 640 539 987
f 640 987 545
f 509 895 988
f 509 988 518
f 84 660 989
f 84 989 844
f 198 179 990
f 198 990 69
f 597 318 991
f 597 991 155
f 2 70 992
f 2 992 323
f 411 416 993
f 411 993 581
f 591 493 994
f 591 994 652
f 791 501 995
f 791 995 605
f 757 306 996
f 757 996 312
f 254 268 997
f 254 997 890
f 12 113 998
f 12 998 38
f 59 322 999
f 59 999 664
f 861 661 1000
f 861 1000 148
f 202 965 1001
f 202 1001 191
f 730 606 1002
f 730 1002 421
f 487 669 1003
f 487 1003 406
f 390 423 1004
f 390 1004 749
f 141 914 1005
f 141 1005 27
f 382 856 1006
f 382 1006 121
f 217 27 1007
f 217 1007 190
f 342 116 1008
f 342 1008 737
f 258 668 1009
f 258 1009 113
f 209 201 1010
f 209 1010 721
f 430 422 1011
f 430 1011 168
f 696 259 1012
f 696 1012 191
f 772 420 1013
f 772 1013 549
f 627 910 1014
f 627 1014 667
f 99 633 1015
f 99 1015 599
f 604 881 1016
f 604 1016 61
f 76 888 1017
f 76 1017 102
f 128 71 1018
f 128 1018 768
f 563 186 1019
f 563 1019 819
f 52 918 1020
f 52 1020 328
f 793 495 1021
f 793 1021 852
f 833 458 1022
f 833 1022 603
f 247 810 1023
f 247 1023 44
f 359 154 1024
f 359 1024 885
f 740 71 1025
f 740 1025 1
f 3 659 1026
f 3 1026 870
f 466 462 1027
f 466 1027 463
f 465 499 1028
f 465 1028 621
f 887 685 1029
f 887 1029 777
f 900 288 1030
f 900 1030 282
f 678 560 1031
f 678 1031 339
f 189 944 1032
f 189 1032 803
f 355 795 1033
f 355 1033 357
f 43 923 1034
f 43 1034 340
f 330 329 1035
f 330 1035 323
f 39 836 1036
f 39 1036 950
f 402 773 1037
f 402 1037 737
f 381 585 1038
f 381 1038 930
f 712 823 1039
f 712 1039 908
f 334 804 1040
f 334 1040 677
f 896 827 1041
f 896 1041 240
f 589 295 1042
f 589 1042 476
f 655 774 1043
f 655 1043 780
f 308 898 1044
f 308 1044 306
f 86 878 1045
f 86 1045 96
f 637 601 1046
f 637 1046 82
f 614 942 1047
f 614 1047 37
f 13 908 1048
f 13 1048 830
f 530 522 1049
f 530 1049 586
f 281 616 1050
f 281 1050 703
f 724 549 1051
f 724 1051 369
f 792 204 1052
f 792 1052 848
f 915 452 1053
f 915 1053 806
f 151 144 1054
f 151 1054 625
f 821 699 1055
f 821 1055 639
f 782 169 1056
f 782 1056 185
f 109 185 1057
f 109 1057 170
f 6 873 1058
f 6 1058 786
f 251 467 1059
f 251 1059 252
f 523 83 1060
f 523 1060 74
f 450 260 1061
f 450 1061 742
f 393 974 1062
f 393 1062 399
f 482 581 1063
f 482 1063 478
f 152 891 1064
f 152 1064 937
f 719 133 1065
f 719 1065 127
f 165 167 1066
f 165 1066 134
f 425 429 1067
f 425 1067 697
f 126 595 1068
f 126 1068 935
f 799 177 1069
f 799 1069 228
f 225 820 1070
f 225 1070 234
f 766 50 1071
f 766 1071 598
f 516 514 1072
f 516 1072 521
f 173 934 1073
f 173 1073 550
f 762 567 1074
f 762 1074 117
f 426 602 1075
f 426 1075 434
f 408 925 1076
f 408 1076 942
f 439 619 1077
f 439 1077 421
f 115 133 1078
f 115 1078 899
f 644 163 1079
f 644 1079 899
f 63 679 1080
f 63 1080 881
f 643 193 1081
f 643 1081 69
f 135 828 1082
f 135 1082 765
f 508 864 1083
f 508 1083 784
f 617 953 1084
f 617 1084 788
f 293 288 1085
f 293 1085 838
f 649 250 1086
f 649 1086 522
f 687 287 1087
f 687 1087 755
f 89 594 1088
f 89 1088 433
f 451 718 1089
f 451 1089 525
f 29 934 1090
f 29 1090 40
f 158 140 1091
f 158 1091 161
f 608 805 1092
f 608 1092 850
f 494 685 1093
f 494 1093 606
f 317 398 1094
f 317 1094 444
f 231 236 1095
f 231 1095 949
f 367 64 1096
f 367 1096 372
f 255 117 1097
f 255 1097 10
f 94 32 1098
f 94 1098 338
f 104 124 1099
f 104 1099 102
f 710 64 1100
f 710 1100 271
f 379 892 1101
f 379 1101 388
f 16 23 1102
f 16 1102 174
f 233 558 1103
f 233 1103 197
f 188 93 1104
f 188 1104 666
f 468 477 1105
f 468 1105 613
f 417 747 1106
f 417 1106 412
f 717 618 1107
f 717 1107 92
f 324 257 1108
f 324 1108 208
f 265 274 1109
f 265 1109 760
f 119 682 1110
f 119 1110 813
f 350 353 1111
f 350 1111 25
f 675 620 1112
f 675 1112 473
f 337 838 1113
f 337 1113 315
f 612 210 1114
f 612 1114 62
f 146 569 1115
f 146 1115 149
f 304 638 1116
f 304 1116 810
f 590 679 1117
f 590 1117 77
f 58 42 1118
f 58 1118 65
f 9 235 1119
f 9 1119 11
f 237 280 1120
f 237 1120 749
f 366 405 1121
f 366 1121 352
f 147 781 1122
f 147 1122 970
f 354 579 1123
f 354 1123 349
f 256 294 1124
f 256 1124 964
f 17 623 1125
f 17 1125 298
f 570 714 1126
f 570 1126 958
f 779 348 1127
f 779 1127 725
f 184 196 1128
f 184 1128 97
f 631 277 1129
f 631 1129 351
f 839 287 1130
f 839 1130 5
f 389 385 1131
f 389 1131 718
