v -0.00341018 0.13031957 0.02175437
v -0.08171916 0.15250145 0.02965609
v -0.03054348 0.12477885 0.00109834
v -0.02490159 0.11211138 0.03756024
v -0.01840568 0.17843055 -0.02421958
v 0.01906794 0.12144925 0.03196844
v -0.01346903 0.16299355 -0.01200002
v -0.03439324 0.17236688 -0.00098213
v -0.08431416 0.10957263 0.00370973
v -0.04223354 0.17211574 -0.00417998
v -0.06330839 0.15660615 -0.01383879
v -0.07690395 0.16708033 -0.02693136
v -0.07225392 0.1153955 0.0516703
v 0.00486894 0.03796237 0.04586763
v -0.05718055 0.04091883 0.04630134
v -0.04520907 0.0388391 0.04450377
v -0.05024227 0.15773747 0.00939445
v -0.02121695 0.15887938 -0.00469237
v -0.02974875 0.03653986 0.05249331
v -0.00354389 0.04265977 0.04754153
v -0.03908818 0.1687202 -0.01192468
v 0.04976006 0.07023522 0.02373202
v -0.0264679 0.1810425 -0.00808117
v -0.01753347 0.04796425 0.04882963
v -0.0759832 0.138208 0.04921658
v 0.03483844 0.04315341 0.02895431
v -0.02274927 0.04988388 0.04660552
v -0.08806457 0.12496764 0.00057412
v -0.03430319 0.05052015 0.03828602
v -0.07266589 0.13005582 0.0516682
v -0.07648133 0.14827412 -0.00893762
v -0.0406522 0.12266506 0.0262903
v 0.03795509 0.1048871 -0.00320318
v -0.0591297 0.15039712 0.03448954
v -0.0452255 0.12935459 0.02037752
v -0.03061484 0.05441265 0.03669429
v -0.0247876 0.05260622 0.04083976
v -0.08090051 0.12558713 0.05215537
v -0.02999621 0.17811137 -0.00523582
v -0.07908773 0.17044488 -0.04137317
v -0.00149855 0.05592548 0.0546308
v 0.00519817 0.05701799 0.05342353
v -0.09107873 0.11506037 0.04014181
v -0.01239524 0.12264726 0.03358828
v -0.02800136 0.06107542 0.03747121
v -0.02537355 0.15840012 -0.00148013
v -0.06781859 0.15454353 0.03023372
v -0.00319589 0.11912518 0.03834958
v -0.00215139 0.09943738 0.04984975
v -0.05600139 0.06183067 0.02793115
v -0.07864073 0.16387238 -0.02838779
v -0.0703258 0.06336777 0.01980918
v -0.03225787 0.0881926 -0.02513096
v -0.06189763 0.12297065 -0.00877255
v -0.00639347 0.10524472 -0.0228419
v -0.0893851 0.09902404 0.01752183
v 0.05453721 0.06879672 0.02451769
v -0.04731121 0.16296037 0.00607403
v 0.04107326 0.08872432 -0.00978794
v -0.00324792 0.07571069 0.05871464
v 0.01341438 0.09307374 0.05146775
v -0.07350444 0.09388334 -0.01475172
v -0.01779548 0.07748619 0.05608724
v 0.01579974 0.12901416 0.01323687
v 0.00239297 0.13162713 0.0119551
v -0.06243324 0.08403527 0.04420312
v -0.08672301 0.09991725 0.00355371
v -0.0021452 0.11143287 0.04243662
v -0.04900084 0.08622168 0.04535204
v -0.04902007 0.11771293 0.03158143
v -0.00124391 0.0890932 0.05655212
v -0.04541156 0.09100213 0.04325277
v -0.04451455 0.09486042 0.04297249
v -0.00898303 0.16926449 -0.02268348
v -0.06723198 0.09917395 0.04159388
v -0.00780469 0.10516619 0.04382546
v -0.05107908 0.09389281 -0.02176169
v 0.01668846 0.0369766 0.0430006
v -0.05227733 0.11775075 0.03376946
v -0.00737751 0.03898843 0.04892945
v 0.01948735 0.04080929 0.04264106
v -0.05098041 0.13486613 0.027585
v 0.02031915 0.10041961 0.04576052
v 0.02262521 0.04362168 0.04090458
v -0.04276416 0.15727487 0.00520162
v -0.0821915 0.0756102 0.01654262
v 0.05266309 0.04767362 0.02120127
v 0.01674344 0.048439 0.04367863
v 0.02882705 0.09213337 0.04392009
v -0.01625752 0.1603125 -0.0096926
v -0.0639263 0.16792441 -0.04073042
v 0.05595734 0.05314741 0.02319772
v -0.03993796 0.1492285 0.00160172
v 0.01920463 0.05516651 0.04772215
v 0.05182373 0.0532767 0.02792701
v -0.05829864 0.138855 0.03293746
v 0.02012695 0.06385133 0.04791966
v 0.0289824 0.07408848 0.04344724
v 0.0226875 0.07514918 0.0493125
v 0.03129876 0.07590744 0.04269906
v -0.04556989 0.14663612 0.00565142
v 0.03088504 0.07899948 0.04338877
v -0.02917729 0.17619959 -0.00562411
v -0.06375713 0.15912175 -0.05015573
v -0.01852762 0.17653197 -0.01704354
v 0.03614382 0.0844392 0.03793693
v 0.02842334 0.08801108 0.0442342
v 0.01859657 0.03529394 -0.00867822
v 0.0172098 0.0352594 -0.01468516
v 0.03833591 0.03883083 0.00309381
v 0.02219292 0.03677532 -0.00209193
v 0.01963602 0.03823401 -0.01250767
v -0.06254169 0.17679461 -0.05782182
v -0.01109194 0.17992082 -0.02599643
v -0.06237257 0.15313041 -0.02899712
v 0.02920777 0.04745025 -0.00850818
v -0.0157822 0.10072957 -0.02372413
v -0.06251417 0.17213119 -0.0527881
v -0.08276186 0.11162341 0.04422146
v -0.05149269 0.13796388 0.02366218
v -0.06268195 0.16744086 -0.04571389
v -0.03892114 0.03376739 -0.02904256
v -0.06879619 0.03511772 -0.00520674
v -0.07703956 0.07196702 0.02640507
v 0.03570669 0.05608304 -0.00899933
v -0.00922961 0.17314463 -0.02419766
v -0.07144833 0.18105301 -0.05547855
v -0.06140699 0.17268822 -0.05826575
v -0.07485275 0.14993112 -0.02775294
v -0.03612504 0.12286688 -0.00829279
v -0.07423019 0.15652681 -0.02516709
v 0.02632181 0.07024065 -0.02387868
v 0.04334214 0.07167612 -0.00223046
v 0.01309699 0.09112648 -0.02926977
v 0.04551119 0.08695305 0.00388655
v -0.07291636 0.0650574 0.01879462
v -0.09094969 0.13895375 0.01737113
v -0.08514891 0.1396552 0.00248085
v 0.04463114 0.08417838 0.00082665
v -0.0741587 0.17987275 -0.05079475
v -0.04346534 0.12451145 0.02251889
v -0.03135885 0.12140977 0.02597109
v -0.07256706 0.1475323 0.04171409
v -0.06850422 0.16732018 -0.02395957
v -0.06481132 0.03453064 0.01550844
v -0.06430026 0.03508645 0.02427205
v -0.06672702 0.03589577 0.03384943
v -0.07253973 0.03539927 0.00702988
v -0.06639203 0.03771235 0.02962195
v -0.07201603 0.0375727 0.00397894
v -0.03514596 0.03858592 0.04773269
v -0.06441576 0.04128384 0.02824348
v -0.06999732 0.04207308 0.00668978
v -0.03445385 0.04456396 0.04542299
v -0.01511958 0.09993002 0.04450027
v -0.07884915 0.11867375 0.05062287
v -0.05016872 0.05346226 0.01625544
v -0.05290982 0.05704307 0.02098841
v -0.05826563 0.09092639 -0.02094869
v -0.06048358 0.15567975 0.00433438
v -0.05267578 0.08822074 -0.0218863
v -0.04499303 0.03901701 -0.02109783
v -0.04646261 0.03680027 -0.01777871
v -0.07758718 0.17717875 -0.05022109
v -0.06308703 0.03961417 0.02518156
v -0.07230302 0.15186699 -0.04154431
v -0.04699058 0.03889238 -0.01401692
v -0.08310943 0.10265445 -0.00329334
v -0.0395199 0.17385855 -0.00757526
v -0.03741645 0.04768213 -0.01714728
v -0.05442072 0.04783652 -0.00591869
v 0.00941157 0.12350285 -0.0098291
v -0.0502905 0.04909893 0.01716478
v -0.05567396 0.05698385 -0.00335104
v -0.02754591 0.05402157 -0.02514739
v -0.05406648 0.05995935 -0.00759922
v 0.02181502 0.11770533 -0.0100153
v -0.02964712 0.05810426 -0.02131132
v 0.05290641 0.06523045 -0.00051112
v -0.02544562 0.06020855 -0.0308647
v -0.02868068 0.0682835 -0.03061016
v -0.06854389 0.17513008 -0.0571879
v -0.09020572 0.14947775 0.01303509
v -0.08154276 0.07795066 0.02672728
v 0.02666617 0.11268609 -0.01050954
v -0.0446974 0.11791537 -0.01472586
v -0.01250182 0.10634409 -0.02236019
v -0.0882842 0.08686911 0.00810292
v -0.08800107 0.08662643 0.01546668
v -0.07777055 0.08784484 -0.01169481
v -0.05112141 0.16374125 -0.00266405
v -0.01242992 0.10286006 -0.02382248
v 0.04576943 0.0646288 -0.00121661
v -0.03089295 0.04740903 -0.024954
v -0.01322027 0.18397188 -0.02751946
v -0.04785945 0.11162729 -0.01748212
v -0.06199357 0.15028063 -0.00162971
v -0.00935695 0.08542373 -0.03811254
v -0.03984279 0.12156113 -0.01157031
v -0.05053938 0.13336659 -0.00108722
v -0.00781631 0.12821209 -0.00194304
v -0.00438224 0.12640753 -0.00694952
v 0.00140857 0.03478199 -0.0232652
v -0.0148462 0.03507093 -0.0260719
v -0.0213995 0.03479512 -0.02795882
v 0.03689089 0.0473532 -0.00610571
v 0.00683417 0.05501017 -0.03056113
v 0.00214247 0.0555028 -0.0313344
v -0.00589038 0.03479062 -0.02422447
v -0.00523259 0.05568896 -0.03284022
v -0.01773936 0.06626083 -0.03765731
v -0.03526304 0.07106765 -0.01801186
v 0.0087503 0.07430156 -0.03339821
v -0.05110362 0.07307195 -0.01624306
v -0.03811782 0.07639012 -0.01864436
v -0.02116286 0.17491852 -0.02197711
v -0.00534863 0.03382901 -0.02260043
v 0.00173239 0.03445966 -0.01660787
v -0.02785147 0.03840433 -0.01721042
v 0.00397347 0.03820855 -0.00379635
v -0.01952351 0.03850521 -0.00454345
v 0.00232623 0.0353482 0.0023246
v 0.0140143 0.0357038 0.00388789
v -0.0380666 0.0385186 -0.00730796
v -0.05273006 0.0334979 -0.00181175
v -0.041271 0.0338554 -0.00188008
v 0.00314923 0.03412531 0.01176222
v -0.0373144 0.033633 0.00457247
v 0.0214998 0.0358071 0.0181694
v -0.05135087 0.0336457 0.00803294
v 0.0132792 0.0343795 0.0214237
v 0.0143227 0.0344255 0.0215932
v -0.0303071 0.0339954 0.0147064
v -0.0298032 0.034287 0.0163531
v -0.0288615 0.0353967 0.01735
v -0.0382796 0.035429 0.0243806
v -0.05184771 0.03447027 0.03463518
v -0.00496131 0.0393649 0.0367022
v -0.0804691 0.11357963 0.04664344
v -0.0181599 0.0393223 0.0394029
v -0.08564473 0.11131719 0.03423478
v -0.0263231 0.034658 0.0434735
v -0.07279013 0.06439988 0.01520595
v -0.0368986 0.03592464 0.04479417
v -0.07280136 0.06438259 0.01208908
v -0.01530644 0.03524641 0.05013381
v -0.06670071 0.15236775 -0.04526639
v -0.07394537 0.08437488 -0.01515449
v 0.03597176 0.06666961 0.0377814
v -0.02437993 0.09586645 0.04443453
v 0.03402392 0.11353879 0.02459528
v -0.08948084 0.13839976 0.02506145
v -0.00534334 0.07826458 -0.03747694
v -0.0480697 0.12493027 -0.00840764
v -0.08412341 0.1083205 0.02473098
v -0.06199624 0.14761484 -0.00432568
v -0.0331634 0.0381954 -0.0005252
v -0.02188242 0.11087418 -0.01969532
v 0.04471785 0.09480266 0.01202471
v -0.0720285 0.06704661 -0.0007225599999999997
v -0.09429715 0.12617744 0.01922465
v -0.04949594 0.07343634 0.04167357
v -0.01446691 0.06313602 -0.03686587
v 0.00273814 0.07910568 0.05671919
v -0.07468381 0.107861 -0.00904771
v 0.03386449 0.07865669 -0.01763249
v -0.08315935 0.14674277 0.00307579
v 0.0258218 0.04632661 0.03827723
v -0.05530898 0.10365394 0.04151669
v -0.05614789 0.06192155 -0.00575411
v -0.06853119 0.15630045 0.02099771
v -0.04212149 0.12825104 0.00107515
v 0.02385576 0.10616625 0.03937808
v -0.02908746 0.07292463 -0.03335447
v -0.08004357 0.09208016 -0.00941982
v 0.0319129 0.09987006 -0.01462098
v 0.01912008 0.04716775 -0.02211468
v -0.08005037 0.11670406 0.04876246
v 0.04594182 0.04813882 -0.0038715699999999995
v -0.06846643 0.13498146 -0.00833598
v -0.02753848 0.07996478 0.04769721
v -0.07143369 0.07757352 0.03806076
v 0.05153713 0.07349669 0.0126987
v -0.07374808 0.15539253 0.0023491699999999994
v -0.05785299 0.0464445 0.01106261
v -0.02008631 0.03806445 -0.01722079
v -0.05733534 0.12340101 0.04023147
v -0.0254259 0.04142101 -0.02920483
v -0.05236903 0.14682913 0.01893465
v 0.04283111 0.08555604 0.02787376
v -0.00853083 0.06015942 0.05530895
v -0.01971175 0.16829145 -0.01302096
v -0.06375729 0.10251144 -0.0174844
v -0.00082448 0.09516512 -0.03205632
v 0.02587286 0.08848229 0.04665526
v -0.01551334 0.10436131 0.04291942
v -0.04507884 0.08726113 -0.02186552
v 0.02900777 0.03735822 -0.0002747399999999999
v 0.03083572 0.11554234 -0.0031785500000000005
v -0.05405689 0.15671602 -0.00248659
v 0.02547293 0.0740945 -0.02493854
v -0.03918559 0.06307453 0.04138289
v 0.05979814 0.05684018 0.01334273
v -0.09100365 0.14885725 0.02150703
v -0.08585634 0.09702539 0.02741496
v 0.02895261 0.05612525 0.04038897
v -0.06361674 0.14801371 -0.02017026
v -0.0866051 0.13226807 0.04678302
v -0.0141697 0.12767892 0.00130805
v -0.00170334 0.0478192 -0.02992893
v -0.06439255 0.07311633 -0.01533534
v 0.03910844 0.10829072 0.01314233
v -0.02759704 0.16979824 -0.01817042
v -0.06025526 0.04474962 -0.00413162
v -0.03742022 0.0454285 -0.02422679
v -0.0637824 0.1103727 0.03757979
v -0.07429408 0.1635685 -0.01553422
v -0.03032487 0.06769472 -0.02765495
v 0.03094044 0.06051808 -0.01813272
v 0.01405522 0.05252391 0.04859388
v 0.02391124 0.09802167 -0.02080729
v -0.08149667 0.15473104 0.01969734
v -0.01722441 0.09521409 -0.0320853
v -0.05181526 0.16392582 0.00174888
v -0.01170342 0.09735572 0.05159208
v -0.0469888 0.12600802 0.0269855
v -0.07689009 0.13041906 -0.00695701
v -0.08882645 0.09048332 0.0212047
v -0.03973825 0.10215357 0.04057441
v -0.05822597 0.06660731 0.03505028
v -0.02924544 0.06955152 0.03936901
v -0.09364421 0.11789378 0.01866208
v 0.03799278 0.0497932 0.03190202
v -0.0316939 0.10261265 -0.02235231
v -0.01375377 0.05186506 -0.03224348
v 0.02824862 0.03504637 0.0160167
v -0.0336564 0.0343441 0.0369141
v 0.04131877 0.09949674 0.02427575
v 0.0060412 0.12494359 0.03265289
v -0.03007161 0.17258324 -0.00635977
v -0.01797607 0.07061377 -0.03844388
v -0.05447342 0.04593751 0.0236126
v -0.04330976 0.05565684 -0.01140211
v -0.03195166 0.12518394 0.01940058
v 0.02425186 0.05645747 -0.0242548
v -0.04866364 0.13638523 0.00680639
v -0.0737904 0.12016662 -0.00788512
v 0.05983724 0.06642318 0.00851394
v -0.07761883 0.07399913 -0.00532635
v 0.04496022 0.08094263 0.0006111900000000002
v 0.0025821999999999998 0.10747582 -0.02060603
v -0.07388009 0.12091638 0.0533958
v 0.00598623 0.04668914 0.04907362
v -0.06445701 0.15342891 -0.00511804
v 0.01318912 0.08421118 0.05306583
v -0.06222569 0.0602652 0.02044929
v -0.08037933 0.09780066 0.03364575
v -0.08940816 0.14352815 0.03092475
v -0.04274023 0.07699534 0.04280408
v 0.03989968 0.07029482 0.03272002
v -0.06214562 0.13599775 0.03670097
v 0.02150351 0.12563988 0.02125262
v -0.00668781 0.11747209 -0.01535928
v 0.01071104 0.05468761 -0.02976752
v -0.04668618 0.05457072 0.03758737
v -0.02776207 0.12068537 -0.00901529
v -0.06406724 0.09017219 -0.01885552
v -0.0354537 0.11244769 0.03505541
v 0.04126135 0.04058507 0.02075193
v -0.03450805 0.15447469 0.00165046
v -0.06464419 0.06172323 0.0002255199999999999
v -0.09059387 0.11373094 0.01027677
v -0.08125743 0.0730252 0.00710204
v 0.04301509 0.09769096 0.0010258300000000001
v 0.04669328 0.04246532 0.00656495
v -0.01761801 0.03891117 0.05240344
v 0.0071936 0.09885947 0.04841951
v -0.02367146 0.03363097 -0.02321776
v -0.02578106 0.09377818 -0.02838822
v -0.09290734 0.12307021 0.03652323
v 0.02585506 0.08961066 -0.02270184
v -0.06194593 0.16479234 -0.05664767
v 0.03498179 0.06774079 -0.01568321
v -0.05621514 0.14139213 -0.00280273
v 0.00695449 0.06470013 0.05559915
v -0.07591778 0.1499769 -0.01684205
v -0.07764496 0.08221494 0.03579766
v 0.05767943 0.06139297 0.02420179
v 0.02936287 0.06650978 0.04228938
v -0.07411355 0.09944252 0.03833771
v -0.06112104 0.1556966 0.02251705
v -0.03650546 0.08115226 0.04316232
v -0.06109602 0.1170165 0.03965402
v -0.05768056 0.03362269 0.01404031
v -0.0834485 0.13393299 -0.00168732
v 0.04487254 0.07551671 0.02315525
v -0.01137866 0.07987715 0.05769888
v -0.01028289 0.06892636 0.05528961
v 0.02358946 0.0358906 0.02533769
v -0.05420137 0.1145173 0.03484399
v 0.00810435 0.0348429 0.0181346
v -0.02011064 0.12504545 0.02358831
v -0.05283173 0.07029892 -0.01486496
v -0.08353979 0.08116956 0.02701407
v -0.07091976 0.17136688 -0.03276375
v 0.01298133 0.11366375 0.03830295
v -0.03564224 0.09261741 0.04423849
v -0.06278668 0.1127419 -0.01360544
v -0.04553288 0.03473648 -0.0213632
v -0.05971053 0.03653578 -0.0094949
v -0.01838313 0.18543664 -0.01713637
v 0.05742175 0.05601221 0.00402456
v -0.08591877 0.14263412 0.03984981
v -0.02552829 0.05147271 -0.02688468
v -0.02285164 0.09063504 0.05228046
v -0.00780368 0.05016931 0.05098865
v -0.08577755 0.09170137 -4.697000000000002e-05
v 0.03841359 0.08748993 0.03518585
v -0.0416817 0.12575112 -0.00701933
v 0.02663726 0.0476071 -0.01642774
v 0.0059436 0.05097666 -0.02911936
v -0.03920697 0.08153638 -0.020571
v 0.02572594 0.12122705 -3.6149999999999984e-05
v -0.06387565 0.16140094 -0.02006421
v 0.04210691 0.08153316 -0.00666909
v 0.03155543 0.09248473 -0.01820428
v 0.00769625 0.0723756 0.05606215
v -0.06559238 0.0910424 0.04409208
v 0.00994449 0.10919723 -0.01947281
v -0.06569179 0.14961818 0.03816098
v -0.04488228 0.15052959 0.00764517
v -0.08356095 0.15255943 0.00768067
v -0.01009087 0.09822965 -0.02773136
v -0.09223262 0.131954 0.01543065
v -0.04197932 0.06962998 0.04182493
v -0.08882776 0.11359169 0.02387364
v -0.07772146 0.11355888 0.04815599
v 0.0386863 0.05645059 0.03118893
v 0.01697345 0.09710662 0.04744092
v -0.05251364 0.04757788 0.01485844
v -0.04996034 0.04310195 0.04446265
v -0.0265805 0.0377426 0.0157053
v 0.00741471 0.03465919 -0.00301168
v -0.00592505 0.06951563 -0.03593348
v -0.07012167 0.16882633 -0.05117365
v -0.07116895 0.14740156 -0.02759094
v -0.05606751 0.05347063 0.00737182
v -0.06629942 0.12337119 0.05061592
v -0.05860408 0.03346223 -0.00021666999999999997
v -0.02385433 0.16164528 -0.01450419
v -0.01581544 0.17504938 -0.01865416
v 0.00096836 0.13064303 0.0025865900000000006
v 0.02499074 0.06589732 -0.02356827
v -0.01111325 0.03829029 -0.01564636
v -0.08620462 0.08093075 0.01053542
v -0.05513975 0.11051601 -0.01767274
v 0.01323466 0.03845306 0.04450147
v -0.07369669 0.15613015 0.01435979
v -0.0633133 0.16503258 -0.03289512
v -0.06703297 0.06514596 0.02729286
v -0.04293064 0.12928436 0.00927007
v -0.08876373 0.11944938 0.04656009
v -0.03526256 0.0552849 -0.01054506
v -0.04375572 0.14773408 -0.00214332
v -0.03321096 0.07687319 -0.02770838
v -0.02915118 0.10197369 0.04263306
v 0.03281993 0.11655625 0.00444586
v 0.05988667 0.06851305 0.01617161
v 0.01353349 0.10255388 -0.02157931
v -0.05767694 0.08625834 -0.02109832
v -0.03395731 0.04102506 -0.02966025
v 0.00518207 0.04153632 -0.02406567
v 0.03755296 0.10685291 0.02630347
v -0.05523834 0.08199945 0.04498477
v -0.07403387 0.14406894 0.04499497
v -0.01435471 0.0544282 0.05071031
v -0.0224137 0.08328352 0.0555907
v -0.0327157 0.10896631 -0.01894141
v -0.05074939 0.10928682 0.03829758
v 0.02338677 0.07007599 0.04701262
v -0.0930398 0.12026416 0.01121682
v -0.00067307 0.10119875 -0.02285777
v -0.0538318 0.14981693 0.02506661
v 0.03702718 0.09394963 -0.01167404
v -0.07737826 0.15764266 -0.01413365
v 0.0134871 0.1007642 0.04745429
v -0.07928595 0.08004883 -0.00701255
v 0.05031813 0.05278637 -0.00341663
v -0.06515615 0.14034537 -0.00768486
v -0.07214195 0.10536685 0.03752321
v -0.04124488 0.04309889 0.04212956
v -0.0654728 0.04562757 0.00455754
v 0.04562 0.07468443 0.00260739
v -0.04537646 0.08238355 0.04328212
v 0.04331555 0.05214555 0.03249211
v 0.00818481 0.08075617 0.05537451
v -0.08931316 0.13653006 0.03045875
v -0.01042399 0.03848857 0.00622927
v 0.01147133 0.06758144 -0.03090117
v -0.01832068 0.11968625 -0.01111066
v -0.0137085 0.1849115 -0.02554955
v 0.0253435 0.1237475 0.00998188
v 0.00425159 0.10523743 0.04256355
v -0.06854352 0.06109048 0.01055776
v -0.06108427 0.1338619 -0.00722489
v -0.07900379 0.1285055 0.05314934
v -0.03697052 0.03568036 -0.01500779
v -0.07408436 0.14987744 -0.03261005
v -0.0108726 0.08882677 0.05666549
v -0.02191135 0.06714479 -0.03653575
v -0.06437103 0.17296209 -0.04922566
v -0.04435401 0.07337222 -0.01787443
v -0.07595081 0.06817061 0.01811797
v -0.0824716 0.1162413 -0.00232363
v 0.04628088 0.07870202 0.01478633
v -0.03407043 0.16148975 -0.01378696
v -0.05768453 0.15561695 0.01298311
v -0.03788539 0.16199719 0.0002468599999999998
v 0.05298796 0.04774769 0.005042
v -0.00282619 0.03488534 0.04561141
v -0.00684782 0.03644454 -0.02517712
v 0.00867844 0.12894574 0.02615688
v 0.01407427 0.07665172 0.05422135
v 0.03358413 0.03830393 0.02292867
v 0.01580015 0.11996558 -0.01141563
v 0.02921651 0.06785025 -0.02041857
v -0.03753854 0.12744127 0.01532087
v 0.03304458 0.10766252 0.03191615
v -0.06306989 0.15897471 -0.04295185
v -0.04553056 0.09851085 -0.02172951
v -0.02998201 0.0854023 0.04374508
v -0.05603276 0.13731083 0.03197059
v -0.06011714 0.09555291 0.04418382
v -0.01041117 0.09459234 -0.03378485
v -0.02158886 0.05683692 0.04546704
v -0.06200194 0.03643502 0.04391894
v -0.03113338 0.04960726 -0.01940694
v 0.03668402 0.1009957 -0.00984859
v -0.07822523 0.14962481 -0.00250194
v -0.08616148 0.10838594 0.01824492
v -0.08656194 0.14249188 0.00843268
v 0.01046428 0.09618045 -0.02589897
v -0.04843435 0.13754973 0.01324498
v -0.06112567 0.03779005 0.0197109
v -0.0720716 0.07153815 -0.00747144
v -0.0789317 0.15093057 0.0351519
v -0.08881256 0.08776549 0.01422654
v -0.05130794 0.06052166 0.03143493
v 0.01663861 0.03819609 -0.01988493
v -0.06189586 0.15424247 -0.0190186
v -0.03949475 0.03755157 0.0428709
v -0.06559994 0.11329504 0.04231871
v 0.0117454 0.05667834 0.05191406
v 0.04563688 0.05740262 0.03199222
v -0.05511138 0.07468784 0.04193974
v 0.0094076 0.09032805 0.05421414
v -0.05851589 0.04773131 0.00021246000000000004
v 0.05000082 0.06161207 -0.00346499
v -0.09223775 0.12488519 0.04078653
v 0.01231936 0.12903768 0.0013336199999999998
v -0.04612416 0.10506369 -0.02045758
v -0.02696411 0.08451281 -0.03636174
v -0.04281898 0.16220182 -0.01033751
v -0.01940887 0.17041104 -0.02099483
v -0.01073649 0.12990285 0.01099379
v 0.03412644 0.09705398 0.03759039
v -0.09228086 0.12762053 0.02975167
v 0.02614811 0.12014725 0.02730801
v -0.05293564 0.09091352 0.04456887
v -0.02647198 0.04503453 0.05121946
v -0.07022226 0.15143521 0.03671891
v -0.02054255 0.11979518 0.03300367
v -0.04322683 0.04626357 -0.01177173
v -0.07422655 0.16437012 -0.03824034
v -0.04910459 0.13666879 0.01931403
v 0.04957568 0.0438159 0.01458296
v 0.00958873 0.03420722 -0.01542405
v -0.07702557 0.11396763 -0.00461681
v -0.0628326 0.04518275 0.03462289
v -0.07203608 0.11107918 0.0453614
v -0.03260575 0.0612646 -0.01545301
v -0.06960559 0.15490763 -0.05018867
v -0.02287024 0.10284737 0.04354475
v 0.00665325 0.11673563 0.03871634
v -0.036425 0.09363069 -0.02353463
v 0.02368212 0.03976254 0.03714876
v -0.00817975 0.0498458 -0.03107139
v 0.03830205 0.08454914 -0.01447883
v 0.0151103 0.05981984 -0.02864575
v 0.00025369 0.06574117 0.05656926
v -0.05798954 0.07401788 -0.01752232
v 0.04559818 0.08815172 0.01312407
v -0.06554542 0.07443037 0.03916807
v -0.0021998999999999994 0.11215881 -0.01965866
v -0.08889226 0.0992091 0.00957032
v -0.06721659 0.1617134 -0.01373371
v -0.08076792 0.143014 -0.00153128
v -0.0568023 0.14514674 0.0317403
v -0.08379885 0.10290691 0.02803833
v -0.06976057 0.13442855 0.04826522
v -0.02026838 0.06226681 0.04821212
v -0.0820635 0.07599367 0.00176155
v -0.0332411 0.03357876 -0.02671945
v 0.00206568 0.05010468 0.05229022
v -0.0085264 0.06400173 -0.03585048
v 0.01069621 0.0798892 -0.03200958
v -0.04934993 0.14913519 0.01127406
v -0.08240389 0.12186563 0.04936503
v -0.04729006 0.13055355 0.0016909099999999997
v 0.01786943 0.09089861 0.04871294
v -0.06819241 0.17439828 -0.04536587
v 0.03357384 0.05851526 0.03831099
v -0.0637554 0.14428875 -0.01139573
v -0.08955969 0.12851666 0.00454575
v -0.04187911 0.05616439 0.0397967
v 0.03882938 0.05983983 -0.00642525
v -0.0059406 0.07903824 0.05796983
v 0.04851001 0.06178076 0.03034725
v -0.01309899 0.09077604 -0.03665927
v 0.01200922 0.0359619 -0.02173575
v -0.02329883 0.18324307 -0.017923
v 0.05718027 0.07110769 0.00803076
v -0.04957947 0.03609654 0.04595536
v -0.04443413 0.08765453 0.04347762
v -0.03897895 0.10683037 0.03824766
v 0.02424972 0.10266151 -0.01831383
v 0.0028887900000000005 0.03463625 0.01884977
v -0.09130982 0.14848588 0.01627007
v -0.05706936 0.05442438 0.00233955
v -0.06498457 0.1037155 0.04064781
v -0.07038525 0.0374503 -0.0009319000000000003
v -0.02926488 0.16140418 -0.00210395
v -0.08897947 0.11450869 0.02844603
v -0.02204779 0.18348586 -0.01209499
v 0.01544899 0.03485244 0.03698489
v -0.0532105 0.0335853 0.013987
v -0.01474603 0.06558391 0.05373086
v -0.07289616 0.15834962 -0.03410942
v -0.05039932 0.05183133 0.0340374
v -0.05574063 0.03412805 0.02667436
v -0.0168038 0.03975381 -0.02756535
v -0.08603451 0.08264572 0.01954268
v -0.03135813 0.15362199 -0.00467389
v -0.01159972 0.10107813 0.04419166
v -0.0031105 0.03894619 -0.00277939
v -0.07073153 0.15569959 0.00690582
v 0.03044456 0.11886441 0.02082175
v -0.06156942 0.17084875 -0.06167917
v 0.03236918 0.03581601 0.00702463
v -0.0870559 0.10562761 0.00976511
v -0.04863998 0.16472475 -0.00505915
v -0.05064789 0.08230943 -0.02136589
v -0.01669256 0.11568553 0.03785315
v -0.02933114 0.1147623 -0.01584464
v -0.05212427 0.12929832 -0.0041187
v -0.08006981 0.09058613 0.03459307
v -0.05553045 0.14905531 -0.00196021
v 0.03811107 0.06481181 -0.011142
v -0.0290472 0.12556338 0.00776177
v 0.04220994 0.07886148 0.0291872
v 0.01965917 0.11236219 0.03754527
v 0.02881052 0.04335229 0.03215772
v 0.01587048 0.03441623 -0.00296665
v -0.0735026 0.16871934 -0.0447918
v -0.04759043 0.1008118 0.04234915
v -0.06299059 0.11999459 0.04523553
v 0.00448168 0.03711783 0.0247553
v -0.06646786 0.14871539 -0.0315793
v -0.05810518 0.06646595 -0.01004434
v -0.0429144 0.11835991 0.03064504
v -0.03811952 0.06416231 -0.01382914
v 0.04125883 0.10361081 0.00267606
v -0.00707608 0.12240119 -0.01136441
v 0.007134650000000001 0.11468229 -0.01834564
v 0.01063766 0.04416156 -0.02492617
v -0.06750436 0.11424088 0.04803605
v -0.08598605 0.14670902 0.03482703
v 0.02106978 0.12497756 0.00109981
v -0.00574998 0.06548898 0.05617339
v 0.00591057 0.13140929 0.01682375
v -0.06572859 0.10709818 -0.01431767
v -0.02925558 0.07516921 0.04118643
v -0.07282322 0.14510601 -0.01565468
v -0.06965551 0.06872837 0.03112788
v 0.00628811 0.06541635 -0.03256304
v -0.09328121 0.12691094 0.01350501
v -0.01144743 0.17131059 -0.01960298
v -0.08141495 0.09710025 -0.00687458
v -0.08740551 0.10205209 0.02202036
v 0.00922319 0.04412509 0.04505744
v 0.03751917 0.06106271 0.03436602
v -0.06870077 0.14463537 0.04304163
v -0.04054188 0.03888601 -0.02736495
v -0.06773818 0.17728865 -0.05037596
v 0.03303009 0.08378164 0.04163693
v 0.05280185 0.04653994 0.01042772
v -0.02303599 0.07277846 -0.03807264
v -0.07059513 0.12994832 -0.00876292
v -0.056901 0.045437 0.04323696
v -0.02770837 0.09008129 -0.03191146
v -0.00020856999999999994 0.07894141 -0.03578208
v -0.01613175 0.18298848 -0.02603719
v 0.02677546 0.05142345 -0.02023406
v 0.03068489 0.07572687 -0.02077809
v 0.05630521 0.06776991 0.0026525
v 0.02701391 0.05995279 0.04345442
v -0.05607006 0.15000706 0.02986764
v -0.08949102 0.14392581 0.01248849
v -0.05036476 0.13715763 0.00195261
v -0.08474701 0.1107835 0.03948838
v -0.08389074 0.08078953 0.00229514
v -0.06937259 0.16061775 -0.0091905
v 0.01523568 0.0949779 -0.02443714
v -0.02186697 0.04402293 0.0532438
v -0.02924191 0.09045336 0.04423661
v -0.04368647 0.0471545 0.04028631
v 0.05232729 0.06432707 0.02828189
v -0.0506872 0.03593587 -0.01238079
v -0.01524557 0.08294077 0.05693459
v -0.03520323 0.16493551 -0.002681
v 0.01121214 0.06658412 0.05398218
v -0.05892216 0.07754549 0.04296139
v 0.00479899 0.09165484 0.05471517
v -0.05743409 0.0576835 0.00872597
v -0.06715651 0.04197286 0.01024094
v -0.09182203 0.12747346 0.03645865
v -0.06065248 0.10467197 0.04090639
v -0.0320742 0.0383234 -0.0004210900000000007
v -0.03367405 0.17774449 -0.00817995
v 0.00665096 0.0881445 -0.03294581
v -0.06336658 0.13037076 0.04166994
v -0.00950641 0.03835264 0.01557066
v 0.01500497 0.10726898 0.04181199
v -0.04691227 0.03462718 0.03973971
v -0.07172356 0.14617438 -0.02156782
v 0.0251308 0.03454691 0.01101258
v 0.00356411 0.12764883 -0.00446724
v -0.04705966 0.03350186 0.00356464
v -0.03630933 0.11876943 0.03067402
v -0.00658646 0.12641717 0.03022639
v 0.04354774 0.0973894 0.01731465
v 0.03352546 0.10966209 -0.00698948
v -0.07665521 0.15509766 0.00796863
v 0.04513702 0.04462544 0.02551651
v -0.05543665 0.05942025 0.02301897
v -0.05262544 0.05043462 0.02904674
v 0.01673262 0.1099123 -0.01702004
v -0.02357431 0.03703691 0.05414475
v -0.06550953 0.15857325 -0.05560027
v 0.00852878 0.034888 0.0362651
v 0.01775808 0.07013854 -0.02940468
v -0.02821882 0.15758144 -0.01099949
v -0.08173946 0.07686134 0.02331361
v -0.06993725 0.08607686 0.04217569
v -0.01325342 0.16627152 -0.01412037
v -0.03521833 0.06855983 0.04138147
v 0.0373786 0.07309341 -0.01263537
v -0.03948189 0.03361822 -0.02361247
v 0.03525168 0.09083682 0.03918392
v 0.03135225 0.04264928 -0.0046745
v -0.06035541 0.07976661 -0.01937554
v -0.09424355 0.12207432 0.02356847
v -0.01758787 0.11491318 -0.01720504
v -0.03282171 0.123005 -0.00590883
v -0.05647295 0.15778406 0.00817865
v -0.06129574 0.14519988 0.03713783
v 0.0430231 0.06379581 0.02803921
v -0.00389815 0.10566175 0.04404719
v -0.06187966 0.1600045 -0.02580625
v -0.06455872 0.0396399 0.03941153
v 0.05454987 0.05604463 -0.00066158
v -0.07453036 0.06668069 0.00469533
v 0.00084818 0.11670025 -0.01733709
v -0.05231444 0.12159646 -0.01079806
v -0.00044023999999999995 0.05834341 0.05448341
v -0.00022827999999999998 0.04339494 -0.02512442
v -0.00942456 0.05539922 -0.03365398
v 0.00690643 0.03900427 0.02954851
v -0.06920905 0.03545481 0.01204214
v -0.05319879 0.13672896 -0.0016580500000000005
v -0.01887051 0.0989732 0.04448928
v -0.05481332 0.09810248 -0.02142537
v -0.03622359 0.12777519 0.00985015
v 0.00445226 0.03770519 -0.01295765
v -0.03260662 0.07195562 -0.02486658
v 0.01381378 0.12322188 0.03250259
v -0.07135146 0.15727092 -0.04218309
v -0.00849808 0.08399047 0.05760522
v -0.05408812 0.03978121 -0.01054468
v 0.01077461 0.13079162 0.01434174
v -0.01000199 0.07267148 -0.03766137
v -0.04950777 0.129495 0.03025927
v -0.04665026 0.05984095 -0.01213584
v 0.06059493 0.06167721 0.01559156
v -0.08634714 0.09172209 0.02681108
v 0.04111812 0.09749126 -0.00397567
v -0.08957795 0.1207831 0.0035229100000000006
v 0.01636347 0.03439479 0.00229486
v -0.05211593 0.14179906 0.02051031
v 0.02648806 0.12230287 0.02039811
v -0.08699064 0.13812326 0.04231655
v 0.02028447 0.05134919 -0.02489538
v 0.02699676 0.05131778 0.03875204
v -0.09104428 0.14199862 0.02172963
v -0.07808147 0.1235194 0.05213699
v 0.02634802 0.08456223 -0.02315171
v -0.04974745 0.14112519 0.00529375
v 0.04070618 0.06447531 -0.00559203
v -0.0190475 0.09656213 -0.0275799
v -0.07720673 0.1563995 -0.01897254
v -0.0746388 0.14398484 -0.00715046
v -0.03556267 0.04939989 -0.01286504
v -0.03674488 0.08608369 0.04361289
v -0.08645483 0.08694049 0.0009166700000000001
v -0.03675209 0.15802075 0.0041862
v -0.02722907 0.08799148 0.04790973
v -0.04596674 0.10905146 0.03875411
v -0.01796898 0.18078031 -0.01810343
v -0.05034241 0.15546197 -0.00519277
v 0.0246721 0.0636945 0.04520464
v -0.04918664 0.04641123 0.04117004
v -0.05190103 0.09545762 0.04393765
v -0.06713216 0.15709447 -0.0062032
v 0.00037699 0.04493579 0.04651993
v -0.01186603 0.07318375 0.05625005
v 0.00951046 0.09548387 0.0509106
v 0.03629441 0.0712207 0.03711461
v -0.06211615 0.15600787 0.01803442
v -0.0670703 0.18072682 -0.05661862
v -0.0754295 0.17095605 -0.03287989
v -0.09201958 0.11611534 0.03584273
v -0.05418543 0.0673227 0.03693561
v -0.0306039 0.03803846 -0.03012384
v 0.01810979 0.07580659 0.05248826
v -0.05771311 0.04871782 0.00727651
v -0.02772004 0.05050209 0.04334072
v -0.07379571 0.10895629 0.03921725
v 0.05491939 0.07316161 0.01522359
v -0.00924893 0.1772585 -0.0282702
v -0.06576664 0.03646955 -0.0072073
v -0.03922792 0.09918463 -0.02191272
v 0.02132474 0.03462404 0.0056444
v -0.02120084 0.04665709 -0.02795132
v 0.04082479 0.09517022 0.02865792
v -0.01787049 0.03820389 0.02024322
v -0.0366651 0.0353042 0.023032
v -0.01572318 0.16312344 -0.01639657
v -0.05551686 0.1295607 0.03659845
v -0.07564316 0.09944045 -0.01192761
v -0.08825211 0.1269273 0.0461413
v 0.02171297 0.10956342 -0.01508109
v -0.05504716 0.05276756 -0.00394613
v -0.03785728 0.17010102 0.0014236
v 0.0174901 0.0346463 0.0220409
v -0.00808407 0.13030537 0.01687228
v -0.08250651 0.12765487 -0.00467964
v 3.092000000000001e-05 0.12315746 0.03474966
v -0.0701776 0.07566333 -0.01383921
v -0.04149118 0.11224766 0.03587345
v -0.03665841 0.0750873 0.04200694
v 0.02611092 0.1008899 0.04173326
v -0.08653773 0.15154801 0.02587537
v -0.06205929 0.15697807 -0.03378458
v -0.01155858 0.03389543 -0.02105426
v -0.08836646 0.11361863 0.00582278
v -0.06953877 0.06307475 0.00357582
v -0.05557811 0.11567692 -0.01464599
v -0.02630372 0.12518875 0.01739298
v 0.00807238 0.05157414 0.05177356
v -0.01624045 0.12512177 -0.00364997
v -0.03138313 0.05179131 -0.0138868
v -0.07410816 0.17355729 -0.03798684
v 0.03030039 0.11553645 0.02868501
v -0.02493915 0.17031135 -0.0113297
v -0.0654245 0.14011279 0.04130896
v 0.02702074 0.0613457 -0.02229206
v -0.04411124 0.09288399 -0.02237321
v -0.03073405 0.08542756 -0.03050667
v -0.0594986 0.08884547 0.04510929
v -0.01623134 0.12382942 0.02957699
v -0.00268438 0.05124742 0.05318679
v 0.04329341 0.04186414 0.00206344
v -0.02112678 0.1093229 0.04071532
v 0.00648435 0.034293 -0.02085493
v -0.08381225 0.0863377 0.02922327
v -0.07977899 0.13448894 0.05099029
v -0.0011826799999999998 0.05949242 -0.03336092
v -0.04448944 0.06107771 0.03954532
v -0.0717221 0.06702304 0.02495975
v 0.02197754 0.04285533 -0.01453623
v 0.00971632 0.10523506 0.04360383
v -0.07338664 0.15463418 -0.02994383
v 0.00438431 0.04580671 -0.02678899
v -0.06411481 0.09550988 -0.01811461
v -0.04109151 0.034006 -0.01199754
v 0.03844617 0.07564943 0.03505064
v 0.00260403 0.09694266 -0.02840706
v 0.04851267 0.07179818 0.0060005
v -0.00753469 0.10021302 0.0474887
v 0.05953164 0.0605046 0.0058397
v -0.02022534 0.07709519 -0.03904429
v -0.03705379 0.12715094 0.0003547400000000001
v -0.03450261 0.07613002 -0.02237315
v 0.01804526 0.08362316 0.05128584
v 0.00954854 0.03423262 0.0017162
v -0.06392088 0.12774242 -0.00854946
v -0.02394438 0.07880014 0.05353473
v -0.06943845 0.1647993 -0.0172187
v -0.04508261 0.12218447 -0.01156943
v -0.0014089 0.03619308 0.01294455
v -0.08911033 0.13851394 0.03765878
v 0.01347309 0.12429893 -0.00683614
v -0.02426559 0.1568769 -0.00785093
v 0.03741871 0.10850822 0.00033973
v 0.03374835 0.08364414 -0.01863045
v -0.05440375 0.03500731 0.04487459
v 0.05839241 0.06674124 0.02197946
v -0.04765656 0.13077525 0.02552357
v -0.00835625 0.113736 -0.01823981
v 0.01907655 0.09187062 -0.02489023
v -0.06237434 0.04014609 -0.00740402
v -0.04434183 0.15113809 -0.00568598
v 0.02035885 0.12448747 0.02590634
v -0.08373658 0.07677184 0.0089586
v -0.09054938 0.13511875 0.02168055
v 0.03866369 0.05169667 -0.00669102
v -0.08949549 0.09563243 0.01423481
v 0.02318395 0.05865436 0.04587106
v 0.04613397 0.05927881 -0.00477696
v -0.01998764 0.10278313 -0.02339292
v -0.03280004 0.15948699 0.0021962799999999997
v -0.06609604 0.15532529 0.00715618
v -0.07553688 0.15977062 -0.01043865
v -0.01498117 0.04257142 0.05140453
v -0.08561303 0.09627711 -0.00066514
v 0.04229655 0.04543577 0.02904092
v 0.0040479 0.09581736 0.05293677
v -0.06151122 0.12373565 0.04306268
v -0.05601079 0.15381662 0.02536928
v -0.00662106 0.09041525 0.05687975
v -0.02586708 0.05668921 0.03918224
v -0.08839924 0.13899 0.01064066
v -0.04918733 0.10452012 0.04030139
v 0.01474429 0.04271695 0.04451031
v -0.07656583 0.11674037 0.05148935
v -0.09273651 0.12073095 0.03269273
v -0.03943032 0.08959762 0.04317789
v -0.05399304 0.14498656 -0.00110934
v 0.01180703 0.07092098 0.05424049
v -0.03893375 0.04636427 0.04036478
v -0.07261837 0.14368135 -0.0109871
v -0.08089452 0.10967225 0.03791023
v -0.00500245 0.069655 0.05689251
v -0.07572944 0.10354026 0.03607097
v -0.04105149 0.04152862 -0.024061
v -0.05183005 0.04856873 0.02164703
v -0.02591961 0.18272826 -0.01354109
v -0.03117289 0.04029433 0.05131246
v 0.01571973 0.07375635 -0.02974777
v -0.06733083 0.03384644 0.00872663
v 0.04571923 0.0694894 0.02354934
v 0.00437145 0.10391901 -0.0215151
v -0.05899998 0.07375155 0.04119708
v -0.0655936 0.17665711 -0.06050473
v 0.05667175 0.05697082 0.02429192
v -0.06373114 0.16577037 -0.06010361
v -0.04075063 0.04928511 -0.0112862
v -0.05071827 0.152763 0.01181668
v 0.04231296 0.05909915 0.03084842
v -0.02924169 0.09429044 0.04482119
v -0.05446366 0.05535745 0.01032684
v 0.01997249 0.05440971 -0.02710823
v -0.06514665 0.03594565 0.03977508
v -0.06963725 0.04188127 0.00318258
v -0.01369113 0.17914707 -0.02812641
v -0.02328575 0.08946803 -0.03602725
v 0.02872312 0.09794322 -0.01749735
v 0.04376623 0.08839002 -0.00357088
v -0.03740303 0.11150775 -0.01824331
v -0.01803149 0.03485997 0.04926476
v -0.02418758 0.07226915 0.04768109
v -0.02169269 0.03826601 0.00451008
v -0.02585131 0.12182948 0.02607967
v 0.00900165 0.03689093 0.02848219
v 0.01930501 0.07901787 -0.02774399
v -0.02360019 0.11513818 -0.01557739
v -0.062019 0.03434318 0.03188328
v -0.0396703 0.036174 -0.00733977
v 0.04432654 0.09081812 0.02209752
v -0.02260159 0.16250449 -0.0060717
v -0.07973935 0.13606854 -0.00414821
v -0.07700431 0.15521281 0.02453477
v -0.03106692 0.06505886 -0.02275108
v -0.0510255 0.07570507 -0.0181869
v -0.01473156 0.07764075 -0.03849067
v 0.03781474 0.07969815 -0.01328963
v 0.02035681 0.0436624 -0.02045628
v -0.06282962 0.1518948 -0.00923734
v -0.0785977 0.17441574 -0.04660758
v 0.02065726 0.1041683 0.04300468
v 0.05909208 0.05795698 0.02027012
v 0.00185499 0.08469279 -0.0348385
v -0.06212611 0.06284536 -0.00452026
v -0.06768448 0.16533627 -0.0554664
v 0.036102 0.11266103 0.01049178
v -0.0792375 0.12055419 -0.00567448
v 0.02906309 0.11149602 0.03380579
v 0.00651117 0.13002517 0.00092881
v -0.06423083 0.14877806 -0.02589971
v 0.01452151 0.06138289 0.0505009
v -0.08235405 0.08087632 -0.00240389
v 0.05673057 0.05051574 0.01062708
v -0.07511501 0.06655704 0.01024409
v -0.00109744 0.03814784 0.02042701
v -0.08126871 0.10879438 0.02944066
v -0.00024264000000000002 0.05453602 0.0546412
v -0.04654958 0.06765213 0.03963579
v -0.00755197 0.11183813 0.04203969
v -0.04485389 0.15746031 -0.00867316
v -0.04654849 0.13320769 0.01688963
v -0.0484515 0.06479412 -0.01302991
v -0.0265689 0.03469583 -0.02911375
v -0.07653781 0.15344875 -0.01289875
v -0.07644067 0.07751106 0.0337483
v -0.00155395 0.12754717 0.02923287
v -0.02541173 0.12472533 0.00012885999999999996
v -0.00794688 0.04148992 -0.02591127
v -0.03098018 0.16634656 -0.01624116
v -0.0008661399999999992 0.06455963 -0.03449093
v 0.05774464 0.06415844 0.00262776
v 0.01926275 0.1268939 0.005555209999999999
v 0.02163267 0.04812727 0.04069443
v -0.08341814 0.09412744 0.03089845
v 0.0169816 0.12715003 0.02293149
v -0.08751121 0.15061504 0.01015246
v -0.03233206 0.04867284 0.04252396
v 0.00446304 0.12427294 -0.00942914
v -0.02812293 0.09932239 -0.02358013
v -0.07222332 0.15896734 -0.00542423
v -0.08943084 0.14730552 0.02769496
v 0.03697509 0.07987648 0.03719839
v 0.01451906 0.06459554 -0.02985569
v -0.05654431 0.12850938 -0.00620147
v 0.04599733 0.06981445 0.00301433
v -0.03470791 0.08403588 -0.02430226
v -0.01742058 0.06965949 0.05408953
v -0.08704141 0.13058932 0.0009116100000000002
v -0.07275916 0.16965906 -0.02701342
v 0.02498901 0.03810458 0.02942957
v 0.03591508 0.05991638 -0.01196651
v -0.05858144 0.05780146 0.01342954
v -0.04953683 0.12491344 0.03177844
v 0.03014532 0.086284 -0.02040814
v -0.03593149 0.09980995 0.0423358
v -0.05265555 0.04849422 0.03873119
v -0.05091096 0.1007457 -0.02161943
v -0.06920138 0.0930392 -0.01648612
v 0.01657396 0.11890153 0.0350423
v 0.02545695 0.03948389 -0.00402514
v -0.0633664 0.06279026 0.02564761
v 0.03440018 0.10503 -0.01022492
v -0.06324205 0.0455497 0.00048427999999999996
v -0.03862358 0.05830329 -0.01150575
v 0.00514504 0.10163906 0.04542301
v -0.01668335 0.08726669 0.05674119
v -0.04979743 0.11342104 0.03511792
v -0.03097877 0.07702086 -0.03281649
v -0.0874265 0.09546953 0.00403124
v -0.05334196 0.144012 0.02426139
v 0.02590364 0.07553604 0.04641665
v -0.06244193 0.14084781 0.03696584
v -0.0008114 0.03742417 0.00477215
v -0.01144041 0.03764077 0.05027573
v -0.09259497 0.11943826 0.02680295
v -0.08618044 0.08257215 0.0063639
v -0.0902417 0.13575994 0.01414916
v -0.00641199 0.09287621 -0.03481764
v -0.00886916 0.09540026 0.05444598
v -0.00763232 0.10304531 0.04371064
v -0.00430826 0.06141857 0.05568849
v -0.02946016 0.15550263 -0.00119147
v -0.06164166 0.15582039 0.01109982
v -0.00234743 0.03590313 -0.01592974
v -0.00205785 0.08099829 0.05755384
v 0.05837457 0.07118641 0.01307274
v 0.03560601 0.03652664 0.00981553
v -0.00970153 0.16738863 -0.01936025
v -0.007824 0.10924112 -0.02218567
v -0.05681066 0.03387394 -0.01116631
v -0.01337343 0.04789241 0.04788385
v -0.07045693 0.10098777 0.03979406
v -0.08380358 0.125611 0.05044049
v 0.0048214 0.07376398 -0.03455245
v -0.03458864 0.04474496 -0.0271229
v 0.01011387 0.07646811 0.05525679
v -0.09113211 0.122821 0.04411516
v -0.08846922 0.11124294 0.01267916
v -0.07725608 0.14565854 0.04312293
v -0.05312132 0.07791243 0.04333492
v -0.0873599 0.11248315 0.04204949
v -0.07324252 0.15231332 -0.03570352
v 0.00493049 0.04198266 0.04572339
v -0.04484287 0.14629393 0.00171148
v -0.06681723 0.11951525 0.05149022
v -0.06153038 0.14037628 -0.00627347
v 0.0173729 0.10246037 -0.0214877
v 0.05040001 0.06729248 0.02685147
v -0.01521069 0.18463639 -0.02205724
v 0.04367318 0.05016223 -0.00598435
v -0.03324434 0.08226659 0.04185218
v -0.03750113 0.0402219 0.04429655
v 0.01396404 0.04557917 -0.02470651
v 0.05052275 0.07339791 0.01616689
v 0.03304036 0.06177384 0.03978144
v -0.05662373 0.09632217 0.04366791
v -0.07564069 0.159304 -0.02690846
v -0.00011289000000000004 0.0692882 0.05657979
v 0.04378536 0.0488037 0.03134342
v -0.03259716 0.17498725 -0.00259531
v -0.06528365 0.15592447 -0.04986593
v -0.05238982 0.04544913 0.0176863
v -0.02312295 0.0945159 0.04735887
v -0.06479261 0.04172453 0.0316169
v -0.06151758 0.17517449 -0.0606317
v -0.05646433 0.03768311 0.04681964
v -0.0261775 0.04249893 0.05331522
v -0.0690003 0.03846771 0.0107689
v -0.04160143 0.15978 0.00353747
v -0.07096183 0.03434573 -0.0007837399999999999
v -0.00958372 0.17426102 -0.02839076
v -0.04767276 0.03611665 -0.01330121
v 0.00493185 0.0348148 0.04346211
v -0.00943088 0.03888769 -0.00748487
v -0.03721825 0.11594244 -0.01517305
v 0.01952039 0.06206477 -0.02729247
v -0.06948104 0.08565646 -0.01719842
v -0.04607629 0.16819719 0.00073744
v 0.03675839 0.09919547 0.03283767
v 0.04513381 0.09363069 0.00623368
v -0.08095914 0.10926674 -0.00201899
v -0.03077018 0.11597313 0.0328588
v -0.04155818 0.06977401 -0.0167741
v -0.02350685 0.12672006 0.0109969
v -0.06242532 0.04188572 0.01464677
v -0.09260143 0.13018652 0.02518358
v -0.01981892 0.16509494 -0.01760898
v -0.04076035 0.03466823 0.04049253
v 0.00080905 0.11633319 0.04016756
v -0.07740951 0.16260515 -0.02075458
v -0.02535315 0.0625672 0.04064217
v 0.04141401 0.10284216 0.01657892
v -0.06051078 0.1074845 -0.0170423
v -0.02436639 0.17693266 -0.01171963
v 0.01367761 0.12967262 0.00693274
v -0.06573972 0.15565338 0.0260176
v 0.03366354 0.11574212 0.01718129
v -0.02100048 0.12313643 -0.00611901
v -0.05007672 0.14997652 -0.00364197
v 0.0287344 0.10360053 0.03803524
v 0.0474469 0.07369141 0.01243002
v 0.01319698 0.03483579 0.03163098
v -0.06608067 0.07020274 0.03555286
v -0.0231815 0.08168699 -0.03832916
v -0.04486421 0.0819979 -0.02047352
v 0.03347585 0.03644734 0.01626696
v -0.08724041 0.11967213 -0.00017812999999999965
v -0.03361965 0.15691468 -0.01102487
v -0.05321673 0.13221978 0.03297838
v 0.0165683 0.06626989 0.05100989
v -0.02148109 0.07419446 0.05285768
v -0.0335409 0.03634262 0.04908996
v 0.02973996 0.05253843 -0.01622495
v 0.00980203 0.11003994 0.0399454
v -0.05782263 0.06953801 -0.01441647
v -0.06227852 0.15166598 -0.01467273
v -0.06393854 0.15262699 0.03448107
v 0.0222916 0.03705331 0.03310102
v -0.01086621 0.12691699 0.02757544
v -0.08103384 0.08469818 0.0331064
v -0.00046583 0.11983662 -0.01361058
v 0.06009357 0.06569345 0.01853332
v -0.07087229 0.11611638 -0.00795637
v -0.00264419 0.03872707 0.02513126
v 0.04215613 0.06971758 0.02831823
v -0.03469233 0.03382871 0.01243858
v -0.03358207 0.10383908 0.04073799
v -0.03918958 0.12828193 0.00503463
v 0.0119662 0.0343354 -0.00595713
v -0.07887611 0.15347012 0.00398758
v -0.06821456 0.14390932 -0.01498417
v -0.02173049 0.09841096 -0.02430685
v 0.01840092 0.12145507 -0.00768042
v 0.01983851 0.09651889 -0.02278588
v -0.078022 0.07099516 0.02132215
v -0.06670235 0.132106 0.04548094
v -0.05075118 0.04310962 -0.01001868
v -0.01235441 0.11556773 -0.01648693
v -0.06038127 0.04592142 0.04008874
v 0.0552579 0.05141626 0.00320626
v -0.04846863 0.14559606 0.00836615
v -0.05499689 0.10774199 0.03942459
v -0.00204064 0.03405394 -0.01933107
v -0.04895294 0.05628109 -0.01022088
v -0.06894021 0.15652777 -0.0019716
v -0.04399088 0.09942546 0.04238343
v -0.00441016 0.08279451 -0.03746725
v -0.07738271 0.153466 0.03089499
v 0.01901223 0.12736197 0.01778658
v -0.08057599 0.0766078 -0.00298794
v 0.02657921 0.11702438 0.03086794
v -0.01053863 0.06799918 -0.03651706
v -0.04645946 0.12723953 -0.00488433
v -0.00205167 0.10093469 0.04562592
v -0.04976341 0.0562412 0.03362425
v -0.00825064 0.04514872 -0.02844107
v -0.05825951 0.14099493 0.03244064
v 0.01395035 0.03488 -0.01861287
v 0.04028164 0.07263713 -0.0092881
v -0.08874618 0.13625578 0.00714778
v -0.0686026 0.14992277 -0.04005135
v -0.04304563 0.12785122 0.01684226
v 0.0012556400000000001 0.08384557 0.05744644
v 0.00539748 0.05838257 -0.03090376
v -0.03886471 0.10333987 -0.0206414
v 0.02092518 0.08631143 0.04943312
v -0.09033691 0.1311983 0.03813879
v 0.04143888 0.0923651 -0.0074587
v -0.0658081 0.16764344 -0.03055867
v -0.03419049 0.04751401 -0.0223015
v -0.06938241 0.10865787 0.0375078
v -0.06111398 0.15305212 0.0009998300000000002
v -0.08819459 0.10314633 0.01750902
v -0.05823237 0.0956904 -0.02061603
v -0.07912672 0.10619883 0.0320507
v -0.08072826 0.08820415 -0.00780031
v 0.05445156 0.05834289 0.02765301
v -0.0197067 0.09291734 -0.03463688
v -0.0917576 0.14334588 0.01779071
v 0.02974173 0.0706471 0.04165389
v -0.03259056 0.08194266 -0.02910021
v -0.05709413 0.04599654 0.02686528
v -0.01044654 0.05368597 0.05195861
v -0.06114938 0.05883441 0.01653944
v -0.0529785 0.05955377 0.02621192
v -0.06447977 0.06065147 0.00423432
v -0.07400445 0.17818523 -0.05391632
v 0.02908655 0.03579999 0.00356309
v -0.05417256 0.12337919 0.03757644
v -0.01932136 0.09212389 0.05382065
v -0.08863127 0.0948812 0.00793376
v 0.03053011 0.11221207 -0.00818606
v -0.055369 0.15442476 0.01616065
v -0.02731607 0.03391007 -0.02135375
v -0.08638915 0.12168475 0.04841244
v 0.01942122 0.0513213 0.04479891
v -0.03306416 0.07665484 0.0412779
v 0.01225411 0.0834567 -0.03077158
v -0.0261201 0.07117748 -0.03545153
v 0.02910274 0.10247506 -0.01576838
v 0.05411421 0.04777309 0.017484
v -0.04246598 0.0341891 -0.02726065
v 0.00325145 0.05982864 0.0554643
v -0.03814411 0.0505996 0.03930216
v 0.01324299 0.09673824 0.04875016
v -0.0867764 0.08434486 0.01241903
v -0.06426688 0.0335625 -0.00512532
v -0.00994402 0.0763431 0.05738856
v -0.07692291 0.15351394 -0.00907856
v -0.03080939 0.05699804 -0.01783502
v 0.0530564 0.06970883 0.00312914
v -0.00651742 0.0450362 0.04750278
v -0.09226899 0.11475156 0.01701738
v -0.07447183 0.13507476 0.0506889
v -0.01518003 0.1080775 0.04235043
v -0.05499421 0.09964082 0.04295523
v -0.05438826 0.13404922 -0.00399204
v -0.0536167 0.08534685 0.04533247
v -0.02254211 0.04061578 0.05398603
v -0.07214624 0.13486431 -0.00775922
v -0.03249191 0.05719635 -0.01210473
v -0.00278728 0.10577531 -0.02245903
v -0.01240601 0.08522257 0.05726778
v 0.01134801 0.09824375 -0.02302425
v 0.01337613 0.0486303 -0.0265515
v -0.04498945 0.07157733 0.04192925
v 0.05401649 0.07288385 0.01867801
v -0.06108054 0.16833773 -0.05919206
v 0.00419344 0.07291517 0.05629873
v 0.0336274 0.04871773 -0.00639046
v -0.02641667 0.04467402 -0.02820974
v -0.07769346 0.17367969 -0.04147867
v 0.032434 0.04533397 0.03031676
v -0.02453993 0.18005865 -0.01872695
v -0.0178916 0.161138 -0.00670727
v 0.04208069 0.06348063 -0.00254053
v -0.09224076 0.11816838 0.04120173
v -0.07457755 0.15164041 -0.02864799
v 0.00645525 0.03816519 -0.01016486
v -0.04459038 0.04379799 0.04268546
v -0.07083139 0.12254425 0.05327488
v -0.0682824 0.09237684 0.04238873
v -0.0536442 0.04935817 0.01220185
v -0.03305846 0.0861855 0.04256035
v 0.03638504 0.05699648 0.03360146
v -0.06412418 0.17953625 -0.05873042
v -0.04530134 0.15695057 0.00720369
v -0.01145246 0.17220633 -0.02684498
v -0.03664724 0.16640131 -0.00028167000000000003
v -0.07149813 0.03445297 0.00420265
v 0.0049172 0.0339971 0.00916661
v -0.02236197 0.09820761 0.04476594
v -0.0351005 0.15203437 -0.00013279000000000003
v -0.06924212 0.04147405 0.00019289
v -0.06292835 0.03906166 0.04270768
v -0.06775058 0.15734825 -0.05398211
v -0.01109677 0.18202324 -0.02804245
v -0.0229494 0.05102065 0.04392645
v -0.047872 0.0341363 -0.01541825
v -0.06517138 0.0372895 0.02595377
f 729 169 1119
f 1228 405 1048
f 201 309 452
f 65 565 1
f 140 872 611
f 680 1 1025
f 38 805 506
f 440 173 157
f 127 140 694
f 1154 65 790
f 571 1098 143
f 503 584 1148
f 780 709 200
f 565 402 855
f 680 1025 339
f 978 139 350
f 1143 868 402
f 344 142 983
f 547 927 1250
f 28 1006 514
f 41 775 881
f 129 1297 446
f 1016 41 881
f 344 1141 142
f 613 1190 307
f 83 1000 486
f 269 943 1201
f 1222 723 71
f 69 1277 1099
f 943 269 1275
f 365 639 821
f 73 69 72
f 73 822 69
f 853 17 58
f 624 72 69
f 1066 326 70
f 17 1306 58
f 183 1035 541
f 144 1048 908
f 859 368 1066
f 628 183 541
f 1074 946 567
f 72 624 73
f 768 1274 76
f 1016 775 41
f 1308 853 1128
f 8 340 103
f 166 1120 247
f 970 1054 407
f 36 45 29
f 1119 103 39
f 953 264 1084
f 941 45 36
f 486 439 83
f 27 836 570
f 1148 857 48
f 1048 144 1228
f 90 847 7
f 296 155 644
f 60 953 617
f 1288 264 953
f 956 1244 157
f 24 37 1317
f 714 24 27
f 1025 48 857
f 790 680 1208
f 526 132 301
f 169 10 1119
f 509 1249 1065
f 592 135 1139
f 1018 653 1274
f 881 775 1080
f 76 1274 1079
f 1018 48 653
f 1084 71 940
f 953 60 1267
f 60 617 1267
f 595 1232 1097
f 246 520 376
f 1236 1118 95
f 320 1255 94
f 420 890 997
f 350 139 135
f 1200 799 543
f 92 95 87
f 102 107 295
f 666 1104 552
f 106 418 695
f 258 187 930
f 87 95 1118
f 84 268 944
f 316 1201 393
f 1103 93 431
f 532 361 731
f 532 96 361
f 361 96 1216
f 1255 928 94
f 928 97 320
f 480 99 834
f 79 1248 400
f 96 532 1216
f 94 928 320
f 1070 1225 834
f 1248 70 1052
f 1153 103 340
f 944 1032 88
f 70 1248 79
f 214 403 994
f 70 79 400
f 105 818 1153
f 105 451 818
f 1294 46 18
f 439 1000 83
f 102 89 107
f 102 295 1070
f 1171 151 244
f 135 592 493
f 18 913 90
f 451 105 1153
f 515 493 592
f 195 501 1316
f 622 705 283
f 1239 100 98
f 1239 102 100
f 418 759 695
f 566 1138 528
f 128 113 118
f 88 320 690
f 194 537 1290
f 820 1070 480
f 268 84 81
f 1094 194 1290
f 418 106 1041
f 98 100 102
f 1128 853 58
f 425 59 978
f 1079 768 76
f 80 20 934
f 1070 99 480
f 89 861 439
f 99 1070 834
f 450 847 90
f 853 1308 8
f 1287 128 118
f 1236 388 717
f 141 326 32
f 295 107 89
f 90 7 755
f 818 634 1153
f 1041 106 695
f 652 161 77
f 81 84 944
f 103 23 39
f 529 459 769
f 345 876 1172
f 687 126 114
f 996 588 425
f 1130 126 74
f 328 547 189
f 202 737 673
f 978 135 139
f 74 126 1087
f 1144 544 285
f 328 189 1265
f 1319 152 165
f 278 945 156
f 55 117 192
f 217 209 203
f 520 20 80
f 890 116 1059
f 543 799 575
f 121 511 91
f 112 111 108
f 118 121 91
f 104 118 91
f 956 173 1121
f 137 1238 708
f 769 863 529
f 118 511 121
f 799 82 120
f 1012 303 1260
f 1312 431 93
f 1076 925 137
f 184 404 753
f 120 82 575
f 422 903 215
f 799 120 575
f 1286 917 468
f 1272 1097 540
f 322 458 743
f 1221 141 32
f 1204 284 646
f 91 611 405
f 34 1155 47
f 141 35 326
f 47 571 1176
f 1155 992 47
f 354 1082 160
f 284 743 646
f 1187 783 3
f 1119 39 23
f 152 544 165
f 143 475 430
f 467 502 800
f 571 143 430
f 144 908 1228
f 957 1119 23
f 781 644 155
f 189 547 1265
f 1036 950 154
f 29 836 36
f 158 1244 745
f 154 958 1036
f 613 307 1175
f 770 1123 147
f 308 25 413
f 579 1198 1055
f 1123 149 147
f 1055 639 579
f 244 151 551
f 57 1286 1107
f 981 601 1170
f 1017 548 888
f 149 152 1319
f 1036 958 836
f 1312 93 1103
f 148 1127 150
f 1127 725 150
f 212 422 215
f 390 357 1301
f 682 281 1110
f 156 805 278
f 958 154 151
f 713 1106 1193
f 379 1038 1191
f 38 506 1092
f 132 526 453
f 247 1120 863
f 1220 247 863
f 38 1092 805
f 151 154 1111
f 525 851 747
f 182 445 1246
f 164 140 1246
f 999 164 1246
f 445 664 1246
f 140 164 999
f 787 638 445
f 445 638 574
f 187 55 192
f 180 181 274
f 181 318 274
f 1116 51 830
f 180 318 181
f 173 956 157
f 71 937 49
f 175 178 414
f 296 781 155
f 51 1149 830
f 1116 1149 51
f 414 537 175
f 217 521 209
f 446 386 129
f 129 386 1297
f 175 537 178
f 386 810 1297
f 409 163 162
f 903 212 215
f 162 170 955
f 167 162 163
f 150 974 631
f 167 170 162
f 342 1121 544
f 983 142 1141
f 177 185 851
f 1244 158 157
f 628 1035 183
f 137 942 1076
f 560 912 737
f 195 1316 702
f 190 275 62
f 204 205 641
f 169 729 10
f 248 1235 190
f 619 1206 198
f 487 1235 248
f 737 1037 673
f 852 174 176
f 168 578 935
f 1140 578 168
f 1229 537 194
f 935 650 168
f 191 651 300
f 395 991 327
f 160 191 300
f 629 174 557
f 160 651 191
f 711 188 814
f 945 805 156
f 835 557 492
f 185 1251 851
f 128 648 1124
f 185 177 1192
f 1298 220 1072
f 737 202 201
f 764 1134 130
f 1044 193 1295
f 193 929 1295
f 1231 197 354
f 197 256 354
f 1231 256 197
f 870 201 673
f 201 202 673
f 200 609 1276
f 1276 609 655
f 186 867 774
f 898 283 1270
f 709 609 200
f 179 1030 771
f 186 561 196
f 678 185 1192
f 419 199 909
f 199 1134 909
f 177 851 525
f 1134 199 419
f 130 1134 419
f 179 193 1044
f 46 913 18
f 764 130 419
f 366 478 1134
f 1196 314 171
f 1022 205 204
f 760 206 1109
f 1109 1295 929
f 1109 926 1295
f 514 347 578
f 512 403 214
f 159 161 470
f 159 1233 161
f 270 852 176
f 117 187 192
f 561 456 196
f 470 161 652
f 1019 516 922
f 248 190 62
f 289 968 1252
f 643 922 516
f 256 1105 1175
f 852 1203 171
f 1077 294 1206
f 453 301 132
f 337 1147 846
f 214 994 512
f 959 606 985
f 1257 134 806
f 730 134 1257
f 856 28 395
f 755 7 847
f 421 207 364
f 456 186 196
f 421 1223 207
f 1223 364 207
f 685 444 1093
f 470 1233 159
f 203 209 521
f 587 210 887
f 210 777 887
f 108 109 112
f 587 777 210
f 995 198 253
f 163 409 1318
f 1307 74 5
f 995 619 198
f 171 1203 573
f 182 964 1004
f 414 263 335
f 263 211 341
f 901 619 995
f 545 311 1003
f 501 195 702
f 343 1142 671
f 263 510 211
f 510 341 211
f 116 125 1289
f 1179 124 1024
f 216 5 564
f 174 270 176
f 1319 165 544
f 205 1022 641
f 930 334 258
f 313 216 564
f 216 313 5
f 736 229 854
f 736 336 229
f 229 336 854
f 446 508 1220
f 520 1073 376
f 78 457 635
f 633 946 1074
f 220 443 222
f 633 241 831
f 109 577 884
f 241 710 43
f 551 1171 244
f 1015 952 241
f 218 864 1202
f 837 952 1015
f 78 81 457
f 184 124 404
f 119 239 278
f 753 124 184
f 119 437 239
f 437 278 239
f 245 243 1013
f 1013 243 513
f 504 245 1013
f 576 1165 375
f 437 710 837
f 243 136 513
f 1129 1309 150
f 504 243 245
f 243 52 136
f 243 504 52
f 136 52 513
f 1298 443 220
f 1133 498 221
f 684 282 124
f 960 1309 1129
f 635 81 78
f 174 629 1245
f 187 763 1088
f 225 1089 718
f 460 330 1162
f 146 147 149
f 1318 226 225
f 225 230 636
f 987 973 147
f 738 230 225
f 738 636 230
f 846 640 394
f 226 1318 895
f 884 218 1202
f 520 246 980
f 182 829 964
f 109 1188 577
f 108 111 109
f 846 237 640
f 916 536 987
f 246 376 980
f 376 748 980
f 219 507 378
f 286 507 219
f 734 237 846
f 1253 286 219
f 734 987 237
f 158 745 157
f 652 470 591
f 1164 994 512
f 820 98 1239
f 767 1184 961
f 1054 970 466
f 1186 466 368
f 1159 566 528
f 522 1208 680
f 546 1098 413
f 322 628 1035
f 606 1002 701
f 1093 701 444
f 54 408 774
f 505 1043 1276
f 599 954 1234
f 1232 540 1097
f 563 651 300
f 1019 1158 922
f 507 224 257
f 507 257 728
f 870 673 500
f 1157 500 654
f 741 672 259
f 741 259 989
f 373 513 1013
f 711 1011 417
f 797 481 686
f 797 434 1219
f 832 1017 262
f 330 963 593
f 1029 777 605
f 1029 444 685
f 355 1095 496
f 556 496 1222
f 62 688 849
f 894 293 1233
f 588 996 266
f 806 985 1257
f 811 1279 597
f 539 1189 284
f 662 586 268
f 691 1114 249
f 727 1275 269
f 727 269 1201
f 1021 852 669
f 1021 403 512
f 1082 354 932
f 1252 391 939
f 1221 527 461
f 1020 461 346
f 661 1007 273
f 661 1000 733
f 878 976 562
f 1045 465 903
f 417 1011 1235
f 935 688 578
f 484 796 276
f 59 426 915
f 620 1112 277
f 997 802 703
f 462 119 278
f 1226 308 911
f 882 760 279
f 1199 771 412
f 505 1276 1105
f 54 1182 408
f 1170 981 281
f 477 816 415
f 66 722 282
f 1301 387 656
f 1160 898 283
f 22 1286 1107
f 933 1039 284
f 933 284 539
f 356 504 1243
f 745 1243 157
f 1083 864 454
f 1083 454 645
f 731 848 287
f 731 938 448
f 414 537 1290
f 414 1290 843
f 598 82 1069
f 707 939 391
f 396 1184 660
f 515 660 592
f 1242 881 291
f 1242 679 398
f 632 990 292
f 1308 340 8
f 265 62 681
f 265 408 1182
f 482 542 897
f 482 897 433
f 610 1070 295
f 439 295 89
f 883 583 296
f 883 1274 653
f 585 530 877
f 1045 422 903
f 760 110 298
f 760 298 1059
f 33 538 742
f 914 467 1005
f 657 160 300
f 948 1158 101
f 704 526 301
f 704 985 806
f 45 29 302
f 1256 756 860
f 1001 1260 303
f 1001 794 388
f 1040 862 304
f 1238 628 708
f 689 255 599
f 1179 656 387
f 803 1255 306
f 803 612 1304
f 1009 550 307
f 446 735 386
f 850 1096 308
f 1092 308 506
f 366 654 1157
f 1143 565 402
f 776 1215 310
f 1284 421 364
f 248 349 858
f 248 858 1136
f 1156 467 1005
f 473 338 1138
f 729 1293 1028
f 1167 752 643
f 123 1062 314
f 921 314 1196
f 955 170 315
f 603 1022 378
f 727 1201 316
f 837 580 437
f 12 908 317
f 12 1149 830
f 178 180 318
f 993 785 212
f 1050 1172 319
f 658 1218 133
f 42 869 553
f 721 1010 1169
f 1259 977 626
f 1061 851 742
f 992 458 322
f 862 322 304
f 1191 379 809
f 433 534 294
f 765 160 324
f 765 324 1137
f 49 71 1078
f 1213 1079 768
f 82 575 918
f 848 1052 1248
f 1279 991 327
f 698 347 54
f 56 305 328
f 927 328 547
f 1205 407 329
f 1205 625 817
f 50 460 330
f 548 832 1017
f 45 756 331
f 45 331 1150
f 261 481 332
f 261 762 567
f 662 268 333
f 744 1118 87
f 530 585 841
f 561 1224 979
f 1215 587 335
f 1215 843 641
f 524 1049 336
f 369 1165 576
f 1171 551 337
f 1171 337 242
f 312 672 1151
f 312 1151 251
f 584 1148 857
f 786 522 1034
f 874 720 340
f 874 340 1153
f 1258 510 697
f 562 1163 976
f 152 544 1241
f 579 746 639
f 812 967 463
f 871 1280 581
f 32 1221 344
f 32 344 739
f 802 703 345
f 751 453 301
f 101 1200 807
f 101 709 780
f 327 698 347
f 856 1006 28
f 1030 705 348
f 1181 468 917
f 260 373 349
f 260 545 1003
f 493 135 350
f 133 425 996
f 482 542 962
f 673 1180 1037
f 30 448 1300
f 30 805 1273
f 1102 824 690
f 944 690 88
f 998 256 354
f 1039 1204 284
f 556 496 355
f 610 1225 1070
f 52 504 356
f 1060 745 50
f 599 954 357
f 795 656 885
f 804 304 1040
f 497 911 1226
f 262 1285 359
f 1099 494 69
f 249 969 360
f 896 360 660
f 875 1071 361
f 875 361 1195
f 1210 6 568
f 251 1156 1005
f 1088 763 919
f 1088 919 594
f 972 1284 364
f 972 589 345
f 1263 716 615
f 29 615 302
f 3 1157 366
f 3 764 902
f 1136 761 367
f 1057 894 293
f 4 466 368
f 4 1141 572
f 524 1165 369
f 26 936 333
f 643 464 1312
f 632 720 292
f 1003 174 371
f 1003 371 260
f 650 595 1097
f 865 481 797
f 86 1194 373
f 1075 711 188
f 33 538 796
f 914 672 312
f 1086 1165 375
f 110 882 760
f 24 714 934
f 1090 934 1271
f 49 937 1064
f 1213 503 768
f 204 1022 378
f 864 1253 286
f 585 1038 379
f 1045 1240 465
f 831 633 946
f 462 1096 850
f 1193 920 806
f 321 426 977
f 104 118 382
f 582 445 787
f 319 1050 383
f 876 526 453
f 256 1105 384
f 948 780 101
f 1262 553 385
f 1262 590 679
f 539 933 1268
f 951 1190 489
f 282 754 387
f 282 1024 124
f 57 717 388
f 917 388 1181
f 249 1114 389
f 1041 1239 102
f 75 1301 1091
f 630 1230 316
f 1155 34 391
f 458 828 1082
f 860 1256 392
f 624 947 1205
f 1248 400 393
f 287 938 731
f 960 449 394
f 145 394 146
f 138 991 395
f 138 395 1047
f 961 1184 396
f 961 396 1113
f 63 1267 397
f 477 1065 415
f 637 1242 398
f 1046 825 63
f 1177 635 399
f 586 1049 662
f 670 326 1066
f 670 1066 368
f 732 910 1183
f 498 845 982
f 983 868 402
f 1178 402 855
f 669 1021 1174
f 1003 1174 311
f 328 642 885
f 328 885 795
f 574 1116 830
f 1291 872 140
f 1058 339 406
f 1058 661 1210
f 813 1303 407
f 947 407 1205
f 681 265 408
f 1152 456 1056
f 955 162 409
f 603 758 378
f 123 314 921
f 1129 449 960
f 702 501 411
f 5 1293 313
f 303 1012 412
f 794 900 348
f 677 546 413
f 358 911 497
f 180 178 414
f 510 414 263
f 1122 816 415
f 781 415 325
f 1271 1090 416
f 824 881 604
f 67 650 935
f 1068 814 188
f 660 896 418
f 1138 418 759
f 609 1212 419
f 902 419 764
f 116 890 420
f 116 1172 125
f 310 893 421
f 310 421 208
f 1164 512 422
f 297 422 1045
f 467 502 423
f 299 423 185
f 908 1228 424
f 550 769 115
f 350 978 425
f 350 425 133
f 381 1053 426
f 381 426 1193
f 1117 953 1288
f 949 834 480
f 66 282 754
f 822 1275 665
f 1180 172 674
f 962 469 1283
f 34 47 1176
f 1216 1071 361
f 85 815 431
f 1306 968 17
f 267 541 432
f 267 432 539
f 117 55 433
f 117 433 809
f 686 1145 434
f 686 434 797
f 302 615 435
f 756 435 860
f 540 1074 436
f 1015 633 241
f 945 278 437
f 13 437 580
f 333 803 1304
f 969 691 249
f 610 295 439
f 826 1264 377
f 285 544 440
f 835 629 557
f 623 15 441
f 716 821 365
f 1183 732 845
f 1183 845 238
f 1188 577 443
f 798 905 223
f 605 1029 444
f 1211 995 341
f 1315 582 445
f 648 1004 964
f 668 735 446
f 668 446 1220
f 1302 835 447
f 1302 971 157
f 13 1300 1104
f 676 1104 552
f 410 1266 449
f 1089 449 225
f 1028 516 450
f 313 450 1146
f 874 1153 451
f 755 1087 847
f 65 565 452
f 65 1008 1154
f 345 876 453
f 345 1135 589
f 286 864 454
f 286 454 221
f 86 924 455
f 642 1265 328
f 408 774 867
f 408 867 1152
f 520 980 1132
f 1102 944 690
f 271 992 458
f 271 458 828
f 91 529 459
f 91 1228 405
f 52 356 1060
f 52 889 513
f 1187 783 461
f 609 461 346
f 1296 1096 462
f 43 462 1100
f 343 967 463
f 343 1063 671
f 1103 1312 464
f 101 464 1158
f 1067 1240 465
f 274 465 785
f 250 970 466
f 250 466 4
f 299 914 467
f 299 467 423
f 348 1181 468
f 622 1085 838
f 429 962 469
f 747 1106 626
f 367 1233 470
f 367 470 761
f 1094 1290 471
f 315 471 693
f 203 620 472
f 203 472 1027
f 251 338 473
f 1210 1007 661
f 66 722 474
f 879 569 533
f 1273 30 475
f 25 1098 413
f 24 535 476
f 1090 1242 416
f 63 719 477
f 63 1170 1046
f 334 585 841
f 334 654 258
f 400 393 1201
f 1066 817 859
f 97 820 480
f 1169 480 949
f 372 865 481
f 372 481 1272
f 1281 962 482
f 55 482 433
f 1069 598 483
f 289 939 1252
f 59 426 484
f 1227 484 796
f 1149 1116 485
f 317 933 1039
f 377 1264 486
f 1064 503 1213
f 349 248 487
f 1209 1011 711
f 279 519 488
f 1109 488 558
f 280 505 489
f 1279 489 811
f 1091 630 1230
f 390 954 357
f 16 441 1299
f 16 734 987
f 1144 285 492
f 1313 1062 123
f 133 350 493
f 133 1044 1295
f 359 262 494
f 359 624 392
f 333 438 495
f 333 1118 936
f 264 1288 496
f 264 496 1222
f 252 358 497
f 1145 567 261
f 645 1133 498
f 1072 732 910
f 1042 1223 499
f 1042 751 453
f 763 1197 986
f 258 986 654
f 451 114 1108
f 451 1108 818
f 64 1031 502
f 64 502 1208
f 733 406 891
f 486 891 377
f 1245 724 504
f 866 504 772
f 906 280 505
f 906 505 1043
f 886 805 506
f 886 506 308
f 758 1318 895
f 758 895 378
f 638 787 892
f 131 892 810
f 325 1249 509
f 1078 940 71
f 180 414 510
f 180 510 1258
f 113 118 511
f 1305 694 829
f 1142 343 512
f 212 512 422
f 124 753 1194
f 124 1194 889
f 1140 578 514
f 865 514 1166
f 396 660 515
f 396 1160 1113
f 21 1028 516
f 21 516 563
f 17 968 517
f 765 1082 160
f 931 632 518
f 815 518 85
f 375 279 519
f 375 696 576
f 14 1132 520
f 14 520 20
f 204 217 521
f 204 1027 641
f 339 680 522
f 339 522 786
f 1288 496 1095
f 427 1095 949
f 26 1049 524
f 26 524 369
f 172 747 525
f 912 1192 678
f 383 319 526
f 757 526 704
f 344 1221 527
f 344 783 659
f 473 251 528
f 473 528 1138
f 1120 863 529
f 104 529 91
f 1056 1224 530
f 77 530 877
f 281 1110 531
f 281 816 477
f 82 1168 532
f 82 532 598
f 428 75 533
f 428 533 879
f 323 433 534
f 976 619 901
f 37 24 535
f 1150 601 981
f 1125 916 536
f 1198 770 579
f 170 1229 537
f 812 871 463
f 276 796 538
f 276 1061 851
f 811 597 539
f 31 539 1268
f 255 1232 540
f 255 540 436
f 138 267 541
f 138 1219 1047
f 134 730 713
f 134 920 806
f 346 1200 543
f 346 543 1020
f 145 1144 544
f 145 544 146
f 349 260 545
f 349 545 858
f 2 677 546
f 1207 546 47
f 188 1265 547
f 188 547 1068
f 1244 746 548
f 50 548 330
f 109 112 549
f 109 1217 884
f 11 424 550
f 998 1175 256
f 491 16 551
f 950 1111 154
f 316 1230 552
f 316 552 393
f 320 869 553
f 320 1010 97
f 495 438 554
f 1118 618 1236
f 262 832 555
f 262 1099 494
f 610 355 556
f 826 937 377
f 314 1062 557
f 314 557 171
f 179 771 558
f 179 558 193
f 1226 308 559
f 380 559 1296
f 678 912 560
f 1031 1154 64
f 1056 1224 561
f 1056 561 456
f 1067 878 562
f 1067 562 1163
f 10 651 563
f 10 563 21
f 74 5 564
f 74 847 1087
f 309 452 565
f 309 565 1143
f 89 861 759
f 89 759 695
f 497 726 567
f 497 567 1145
f 923 6 568
f 362 800 502
f 1277 879 569
f 1277 569 69
f 958 836 570
f 19 748 980
f 546 47 571
f 546 571 1098
f 880 402 983
f 44 653 48
f 167 170 573
f 1196 573 171
f 664 445 574
f 664 574 830
f 1020 543 575
f 1020 575 918
f 1260 696 576
f 87 576 744
f 218 884 577
f 1298 577 443
f 265 1182 578
f 849 578 688
f 1123 770 579
f 152 579 1241
f 552 676 580
f 552 580 1230
f 1269 871 581
f 993 671 212
f 1120 166 582
f 1120 582 749
f 250 4 583
f 1122 781 415
f 406 339 584
f 1173 584 503
f 53 877 585
f 53 585 379
f 81 635 586
f 81 586 268
f 310 887 587
f 310 587 1215
f 59 425 588
f 59 588 915
f 364 972 589
f 364 589 1223
f 385 1262 590
f 385 1117 1288
f 311 1174 591
f 858 761 1136
f 259 989 592
f 259 592 1139
f 282 722 593
f 282 1162 684
f 351 1281 594
f 351 594 674
f 1250 927 595
f 67 595 650
f 11 823 596
f 11 596 424
f 267 539 597
f 267 597 138
f 34 766 598
f 34 707 391
f 305 689 599
f 305 599 357
f 30 475 600
f 30 1195 448
f 535 1150 601
f 1046 601 1170
f 373 1209 602
f 924 602 455
f 122 758 603
f 122 603 833
f 353 824 604
f 869 604 42
f 263 777 605
f 263 1211 341
f 213 959 606
f 1093 606 701
f 431 101 1200
f 431 968 1306
f 278 805 608
f 278 1254 462
f 272 461 609
f 272 609 419
f 61 439 610
f 61 610 556
f 511 91 611
f 694 611 140
f 306 803 612
f 706 1114 389
f 1105 1175 613
f 489 613 1190
f 797 1219 614
f 28 1047 395
f 365 716 888
f 365 888 1214
f 125 926 616
f 1050 658 383
f 397 1267 617
f 397 617 788
f 554 1118 618
f 969 767 1184
f 534 323 619
f 1077 619 1206
f 1217 884 620
f 549 620 277
f 411 5 621
f 411 621 957
f 348 1085 622
f 348 622 705
f 16 441 623
f 16 916 987
f 494 69 624
f 494 624 359
f 1186 368 625
f 329 625 1205
f 321 977 626
f 321 626 1106
f 401 231 667
f 401 667 1310
f 304 804 628
f 304 628 322
f 447 835 629
f 724 629 1245
f 75 1091 630
f 75 630 1275
f 123 1313 631
f 1266 1129 449
f 46 931 632
f 46 632 990
f 436 1074 633
f 436 633 255
f 729 1119 957
f 729 957 621
f 232 1161 635
f 232 635 399
f 449 225 636
f 449 636 394
f 535 476 637
f 535 637 601
f 131 892 638
f 1116 638 574
f 548 888 1214
f 548 1214 746
f 146 394 987
f 146 987 147
f 288 1022 641
f 1290 641 843
f 753 404 642
f 753 642 455
f 46 913 643
f 46 1081 931
f 1078 49 899
f 325 899 781
f 1072 498 645
f 1072 645 1298
f 458 743 646
f 458 932 1082
f 568 251 647
f 568 800 923
f 966 1004 648
f 382 1287 118
f 110 1247 649
f 110 1086 375
f 9 1097 650
f 9 650 168
f 324 160 651
f 324 651 1137
f 1164 994 652
f 297 652 77
f 572 44 653
f 572 653 4
f 478 366 654
f 478 654 334
f 1212 609 655
f 774 1043 906
f 357 1301 656
f 357 656 1033
f 256 1231 657
f 256 948 384
f 616 1050 658
f 808 658 133
f 3 783 659
f 1026 1143 309
f 290 418 660
f 989 660 592
f 406 1058 661
f 406 661 733
f 1292 333 662
f 1292 662 1049
f 111 109 663
f 111 798 842
f 999 1246 664
f 40 664 830
f 73 822 665
f 1205 943 817
f 393 552 666
f 393 666 1248
f 627 1310 667
f 1183 778 238
f 1009 735 668
f 863 668 1220
f 270 852 669
f 1003 669 1174
f 32 739 670
f 32 670 326
f 581 1063 671
f 581 671 993
f 374 33 672
f 1139 672 259
f 1197 500 673
f 363 673 773
f 747 172 674
f 429 674 351
f 472 620 675
f 893 675 421
f 13 580 676
f 13 676 1104
f 1040 862 677
f 358 677 911
f 423 502 678
f 423 678 185
f 1080 1262 679
f 291 679 1242
f 65 790 680
f 65 680 1
f 293 62 681
f 293 1152 1056
f 981 281 682
f 331 1256 756
f 386 735 683
f 386 683 31
f 889 124 684
f 460 684 1162
f 499 1223 685
f 499 685 213
f 261 1145 686
f 261 686 481
f 451 292 687
f 451 687 114
f 275 62 688
f 275 688 417
f 1232 255 689
f 56 689 305
f 353 824 690
f 353 690 320
f 1304 1114 691
f 1304 691 969
f 475 430 692
f 475 692 600
f 122 471 693
f 1261 693 409
f 511 1305 694
f 511 694 611
f 102 89 695
f 102 695 1041
f 519 375 696
f 1199 1012 412
f 341 510 697
f 341 901 995
f 280 906 698
f 1279 698 327
f 15 441 699
f 15 1198 770
f 379 53 700
f 379 700 809
f 253 444 701
f 1206 701 1002
f 5 411 702
f 5 702 975
f 420 997 703
f 420 1172 116
f 266 757 704
f 915 704 806
f 179 1030 705
f 179 1270 1044
f 306 1114 706
f 306 928 1255
f 598 483 707
f 598 707 34
f 541 137 708
f 541 708 628
f 807 101 709
f 346 709 609
f 119 437 710
f 119 1100 462
f 602 1075 711
f 602 711 1209
f 596 823 712
f 908 1039 317
f 1283 1106 713
f 542 713 730
f 570 27 714
f 1126 748 19
f 1303 407 715
f 531 816 281
f 1299 821 716
f 950 716 1263
f 618 1236 717
f 767 1107 22
f 1318 225 718
f 167 1196 573
f 397 63 719
f 397 1282 788
f 518 632 720
f 518 1308 1128
f 385 427 721
f 385 721 553
f 555 474 722
f 963 722 593
f 556 1222 723
f 556 723 826
f 971 629 724
f 971 724 157
f 153 150 725
f 153 725 492
f 380 559 726
f 946 726 567
f 630 1275 727
f 630 727 316
f 286 982 728
f 286 728 507
f 21 10 729
f 21 729 1028
f 897 542 730
f 294 1002 1206
f 1195 448 731
f 1195 731 361
f 498 1072 732
f 498 732 845
f 486 1000 733
f 486 733 891
f 551 337 1147
f 551 1147 16
f 307 1009 735
f 307 735 683
f 649 842 736
f 649 736 336
f 1008 560 737
f 452 737 201
f 226 225 738
f 226 738 228
f 368 670 739
f 368 1141 4
f 44 48 740
f 880 1178 402
f 338 989 741
f 338 1151 251
f 299 914 742
f 299 1251 185
f 432 322 1189
f 432 1189 539
f 369 26 744
f 369 744 576
f 356 1243 745
f 356 745 1060
f 1241 579 746
f 956 746 1244
f 429 674 747
f 429 747 469
f 714 1126 1278
f 714 1278 934
f 382 104 749
f 966 749 1004
f 635 1161 750
f 635 750 457
f 499 1042 751
f 499 959 213
f 450 90 752
f 450 752 1167
f 86 455 753
f 86 753 1194
f 1301 387 754
f 428 754 66
f 292 687 755
f 292 755 90
f 302 435 756
f 302 756 45
f 383 526 757
f 383 1218 658
f 409 1261 758
f 409 758 1318
f 566 1138 759
f 566 759 1159
f 116 1059 760
f 116 760 1289
f 591 311 761
f 591 761 470
f 332 261 762
f 1272 1074 540
f 258 986 763
f 258 763 187
f 366 1134 764
f 366 764 3
f 17 517 765
f 17 765 1137
f 430 34 766
f 430 1071 875
f 618 969 767
f 618 767 1107
f 1018 1274 768
f 68 768 503
f 424 550 769
f 424 769 1228
f 1314 15 770
f 536 973 987
f 488 1199 771
f 488 771 558
f 260 866 772
f 260 772 373
f 594 674 773
f 594 773 363
f 909 186 774
f 254 774 655
f 42 1016 775
f 1262 775 1080
f 472 675 776
f 472 776 1027
f 335 587 777
f 335 777 263
f 667 984 778
f 667 778 1183
f 145 1144 779
f 145 960 394
f 384 948 780
f 384 1276 1105
f 583 296 781
f 583 781 1311
f 77 161 782
f 77 1056 530
f 527 461 783
f 527 783 344
f 218 577 784
f 1083 1298 645
f 318 274 785
f 318 785 993
f 1058 339 786
f 6 786 923
f 166 1101 787
f 166 787 582
f 509 1282 788
f 940 788 1084
f 718 410 789
f 718 1196 167
f 64 1154 790
f 64 790 1208
f 444 253 791
f 444 791 1211
f 918 82 792
f 326 1052 70
f 343 512 793
f 343 1203 573
f 303 1001 794
f 303 794 900
f 305 328 795
f 1033 795 656
f 978 1227 796
f 374 796 33
f 28 614 797
f 1166 797 865
f 1188 905 798
f 663 798 111
f 289 607 799
f 289 1069 483
f 647 568 800
f 647 800 467
f 413 308 801
f 413 801 677
f 277 997 802
f 277 802 1284
f 1032 1255 803
f 268 803 333
f 252 137 804
f 252 804 358
f 352 945 805
f 1300 805 30
f 381 1053 806
f 381 806 1193
f 346 709 807
f 346 807 1200
f 616 658 808
f 616 1295 926
f 323 433 809
f 1237 976 619
f 485 1116 810
f 485 810 1023
f 31 539 811
f 31 951 683
f 170 537 812
f 170 812 573
f 1110 1303 813
f 392 947 624
f 417 711 814
f 417 814 1068
f 370 431 815
f 370 931 1081
f 715 531 816
f 970 816 1122
f 479 1066 817
f 479 817 943
f 411 1108 818
f 411 818 634
f 300 657 819
f 300 819 563
f 706 389 820
f 928 820 97
f 441 1299 821
f 441 821 699
f 569 1115 822
f 569 822 69
f 354 11 823
f 354 1204 932
f 1271 1102 824
f 1271 824 416
f 398 1046 825
f 398 825 953
f 61 556 826
f 61 826 1264
f 249 360 827
f 249 827 1239
f 391 1252 828
f 391 828 271
f 127 694 829
f 1246 829 182
f 405 611 872
f 405 872 1048
f 1296 380 831
f 43 831 241
f 330 548 832
f 330 832 963
f 471 122 833
f 471 833 288
f 523 949 834
f 523 834 904
f 285 492 835
f 285 835 1302
f 37 1317 836
f 37 836 36
f 1230 580 837
f 954 837 1234
f 283 622 838
f 1113 1286 22
f 114 126 839
f 975 839 5
f 123 921 840
f 123 1266 1129
f 478 334 1224
f 478 1224 979
f 1247 649 842
f 298 842 111
f 335 1215 843
f 335 843 414
f 989 338 844
f 290 844 418
f 442 982 845
f 442 845 240
f 234 233 846
f 234 846 337
f 1146 74 847
f 1146 847 450
f 532 731 848
f 532 848 1168
f 265 578 849
f 265 849 62
f 1254 462 850
f 1092 850 308
f 626 747 851
f 626 851 1259
f 557 171 852
f 557 852 174
f 1137 8 853
f 1137 853 17
f 399 336 854
f 399 854 232
f 1 565 855
f 1 855 1178
f 327 395 856
f 327 856 347
f 339 1025 857
f 339 857 584
f 311 545 858
f 311 858 761
f 625 817 859
f 625 859 368
f 359 435 860
f 359 860 392
f 273 661 861
f 1159 861 759
f 2 322 862
f 2 862 677
f 115 769 863
f 115 863 668
f 204 378 864
f 204 864 217
f 9 372 865
f 9 865 514
f 1245 504 866
f 371 866 260
f 456 186 867
f 456 867 1152
f 344 983 868
f 344 868 659
f 353 604 869
f 353 869 320
f 309 1026 870
f 309 870 201
f 537 812 871
f 537 871 1269
f 830 1048 872
f 830 872 1291
f 251 1007 873
f 251 873 568
f 292 451 874
f 292 874 720
f 692 1195 875
f 692 875 430
f 319 1172 876
f 319 876 526
f 297 77 877
f 297 877 53
f 700 53 878
f 700 878 976
f 66 428 879
f 66 879 474
f 44 572 880
f 44 880 1178
f 416 824 881
f 416 881 1242
f 375 110 882
f 375 882 279
f 4 583 883
f 4 883 653
f 203 217 884
f 203 884 620
f 404 642 885
f 404 1179 124
f 25 805 886
f 25 886 308
f 208 685 887
f 208 887 310
f 615 435 888
f 615 888 716
f 460 684 889
f 460 889 52
f 112 549 890
f 112 890 1059
f 503 1064 891
f 503 891 1173
f 1101 787 892
f 508 1297 446
f 776 675 893
f 776 893 310
f 367 1233 894
f 367 894 1057
f 507 378 895
f 988 895 226
f 827 360 896
f 827 1041 1239
f 294 433 897
f 294 897 730
f 493 1160 898
f 1044 898 1270
f 644 781 899
f 1079 899 1213
f 412 303 900
f 412 1030 771
f 697 341 901
f 697 901 1067
f 272 419 902
f 1187 902 3
f 785 465 903
f 785 903 212
f 355 523 904
f 355 904 610
f 443 222 905
f 443 905 1188
f 54 698 906
f 54 906 774
f 477 63 907
f 477 907 281
f 596 712 908
f 596 908 424
f 254 774 909
f 254 909 419
f 227 1072 910
f 227 910 627
f 801 677 911
f 801 911 308
f 172 737 912
f 172 912 525
f 752 643 913
f 752 913 90
f 33 672 914
f 33 914 742
f 266 588 915
f 266 915 704
f 623 1125 916
f 623 916 16
f 57 388 917
f 57 917 1286
f 326 792 918
f 326 918 35
f 363 594 919
f 363 1197 673
f 713 1193 920
f 713 920 134
f 410 840 921
f 410 921 789
f 464 1158 922
f 464 922 643
f 362 800 923
f 1034 923 786
f 373 602 924
f 373 924 86
f 252 137 925
f 252 925 497
f 206 1109 926
f 1289 926 125
f 56 595 927
f 56 927 328
f 706 820 928
f 706 928 306
f 558 193 929
f 558 929 1109
f 117 187 930
f 117 1191 809
f 815 518 931
f 815 931 370
f 646 1204 932
f 646 932 458
f 485 1149 933
f 485 933 1268
f 376 1278 934
f 376 934 1073
f 417 1068 935
f 417 935 688
f 744 1118 936
f 744 936 26
f 723 826 937
f 723 937 71
f 666 448 938
f 666 938 1248
f 483 707 939
f 483 939 289
f 509 788 940
f 509 940 1078
f 37 535 941
f 37 941 36
f 541 138 942
f 541 942 137
f 665 1275 943
f 665 943 1205
f 457 1102 944
f 457 944 81
f 13 352 945
f 13 945 437
f 380 726 946
f 380 946 831
f 813 392 947
f 813 947 407
f 657 256 948
f 657 948 1158
f 721 427 949
f 721 949 1169
f 491 716 950
f 491 950 1111
f 811 31 951
f 811 951 489
f 710 241 952
f 710 952 837
f 679 1117 953
f 679 953 398
f 490 390 954
f 490 954 837
f 693 409 955
f 693 955 315
f 342 1121 956
f 342 956 746
f 634 23 957
f 634 957 411
f 19 1126 958
f 19 1171 242
f 751 985 959
f 751 959 499
f 779 1309 960
f 779 960 145
f 22 767 961
f 22 961 1113
f 351 429 962
f 351 962 1281
f 555 722 963
f 555 963 832
f 1305 829 964
f 1124 964 648
f 1001 388 965
f 92 965 95
f 382 749 966
f 382 966 648
f 573 812 967
f 573 967 343
f 607 289 968
f 607 968 431
f 554 438 969
f 554 969 618
f 715 407 970
f 715 970 816
f 447 629 971
f 447 971 1302
f 802 345 972
f 802 972 1284
f 770 1314 973
f 770 973 147
f 153 150 974
f 153 974 492
f 1316 839 975
f 1316 975 702
f 809 1237 976
f 809 976 700
f 484 276 977
f 484 977 426
f 1139 135 978
f 374 978 796
f 186 561 979
f 1134 979 478
f 242 19 980
f 242 980 1132
f 331 1150 981
f 331 981 682
f 221 286 982
f 221 982 498
f 572 880 983
f 572 983 1141
f 231 232 1161
f 231 1161 667
f 301 704 985
f 301 985 751
f 500 1197 986
f 500 986 654
f 640 394 987
f 640 987 237
f 507 895 988
f 507 988 224
f 290 660 989
f 290 989 844
f 90 292 990
f 1294 990 46
f 597 138 991
f 597 991 1279
f 1207 47 992
f 2 992 322
f 178 318 993
f 178 993 581
f 591 403 994
f 591 994 652
f 791 253 995
f 791 995 1211
f 757 133 996
f 757 996 266
f 549 277 997
f 549 997 890
f 11 550 998
f 11 998 354
f 1291 140 999
f 40 999 664
f 861 661 1000
f 861 1000 439
f 92 965 1001
f 92 1001 1260
f 730 606 1002
f 730 1002 294
f 270 669 1003
f 270 1003 174
f 445 182 1004
f 445 1004 1315
f 312 914 1005
f 312 1005 251
f 347 856 1006
f 347 1006 514
f 528 251 1007
f 528 1007 1159
f 452 65 1008
f 452 1008 737
f 115 668 1009
f 115 1009 550
f 553 320 1010
f 553 1010 721
f 487 1209 1011
f 487 1011 1235
f 696 519 1012
f 696 1012 1260
f 772 373 1013
f 772 1013 504
f 627 910 1014
f 627 1014 667
f 255 633 1015
f 255 1234 599
f 604 881 1016
f 604 1016 42
f 435 888 1017
f 1285 1017 262
f 68 48 1018
f 68 1018 768
f 563 516 1019
f 563 1019 819
f 35 918 1020
f 1221 1020 461
f 793 512 1021
f 1203 1021 852
f 833 288 1022
f 833 1022 603
f 386 810 1023
f 386 1023 31
f 387 282 1024
f 387 1024 1179
f 740 48 1025
f 740 1025 1
f 3 659 1026
f 3 1026 1157
f 521 203 1027
f 521 1027 204
f 313 450 1028
f 313 1028 1293
f 887 685 1029
f 887 1029 777
f 900 348 1030
f 900 1030 412
f 678 560 1031
f 678 1031 502
f 268 944 1032
f 268 1032 803
f 305 795 1033
f 305 1033 357
f 362 923 1034
f 1208 1034 522
f 432 541 1035
f 432 1035 322
f 29 836 1036
f 29 1036 950
f 172 1180 1037
f 172 1037 737
f 334 585 1038
f 334 1038 930
f 712 1204 1039
f 712 1039 908
f 358 804 1040
f 358 1040 677
f 896 827 1041
f 896 1041 418
f 589 1135 1042
f 589 1042 1223
f 655 774 1043
f 655 1043 1276
f 493 898 1044
f 493 1044 133
f 53 1240 1045
f 53 1045 297
f 637 601 1046
f 637 1046 398
f 614 1219 1047
f 614 1047 28
f 12 908 1048
f 12 1048 830
f 399 336 1049
f 399 1049 1177
f 125 616 1050
f 125 1050 1172
f 724 504 1051
f 724 1051 157
f 792 326 1052
f 1168 1052 848
f 915 426 1053
f 915 1053 806
f 329 407 1054
f 329 1054 625
f 821 699 1055
f 821 1055 639
f 782 77 1056
f 1233 1056 293
f 62 293 1057
f 62 1136 248
f 6 1210 1058
f 6 1058 786
f 111 298 1059
f 111 1059 112
f 460 52 1060
f 460 1060 50
f 538 276 1061
f 538 1061 742
f 492 1313 1062
f 492 1062 557
f 1280 581 1063
f 463 1063 343
f 377 891 1064
f 377 1064 937
f 1282 509 1065
f 719 1065 477
f 400 479 1066
f 400 1066 70
f 274 465 1067
f 1258 1067 697
f 67 595 1068
f 67 1068 935
f 799 82 1069
f 799 1069 289
f 98 820 1070
f 98 1070 102
f 766 430 1071
f 766 1071 1216
f 222 220 1072
f 222 1072 227
f 80 934 1073
f 80 1073 520
f 762 567 1074
f 762 1074 332
f 455 602 1075
f 1265 1075 188
f 434 925 1076
f 434 1076 1219
f 534 619 1077
f 534 1077 294
f 325 509 1078
f 325 1078 899
f 644 296 1079
f 644 1079 899
f 291 679 1080
f 291 1080 881
f 643 1312 1081
f 643 1081 46
f 517 828 1082
f 517 1082 765
f 218 864 1083
f 218 1083 784
f 617 953 1084
f 617 1084 788
f 468 348 1085
f 468 1085 838
f 649 110 1086
f 649 1086 1165
f 687 126 1087
f 687 1087 755
f 1281 594 1088
f 55 1088 187
f 410 718 1089
f 410 1089 449
f 24 934 1090
f 24 1090 476
f 390 1301 1091
f 390 1091 490
f 608 805 1092
f 1254 1092 850
f 213 685 1093
f 213 1093 606
f 315 471 1094
f 315 1094 194
f 523 355 1095
f 523 1095 949
f 559 1296 1096
f 559 1096 308
f 372 1272 1097
f 372 1097 9
f 475 25 1098
f 475 1098 143
f 555 474 1099
f 555 1099 262
f 710 43 1100
f 710 1100 119
f 508 1297 1101
f 508 1101 166
f 14 20 1102
f 14 1102 457
f 101 464 1103
f 101 1103 431
f 448 1300 1104
f 448 1104 666
f 489 505 1105
f 489 1105 613
f 469 747 1106
f 469 1106 1283
f 717 618 1107
f 717 1107 57
f 501 114 1108
f 501 1108 411
f 279 488 1109
f 279 1109 760
f 392 1256 1110
f 392 1110 813
f 551 151 1111
f 551 1111 491
f 675 620 1112
f 675 1284 421
f 283 838 1113
f 283 1113 1160
f 612 306 1114
f 612 1114 1304
f 533 569 1115
f 533 1275 75
f 131 638 1116
f 131 1116 810
f 590 679 1117
f 590 1117 385
f 495 333 1118
f 495 1118 554
f 8 103 1119
f 8 1119 1137
f 104 529 1120
f 104 1120 749
f 440 173 1121
f 440 1121 544
f 1311 781 1122
f 250 1122 970
f 152 579 1123
f 152 1123 149
f 113 128 1124
f 1305 1124 964
f 15 623 1125
f 15 1125 536
f 570 714 1126
f 570 1126 958
f 779 148 1127
f 779 1127 725
f 85 518 1128
f 1306 1128 58
f 631 123 1129
f 631 1129 150
f 839 126 1130
f 839 1307 5
f 167 163 1131
f 167 1131 718
f 457 14 1132
f 457 1132 750
f 454 645 1133
f 454 1133 221
f 186 979 1134
f 186 1134 909
f 453 345 1135
f 453 1135 1042
f 1057 62 1136
f 1057 1136 367
f 10 651 1137
f 10 1137 1119
f 844 418 1138
f 844 1138 338
f 374 978 1139
f 374 1139 672
f 9 168 1140
f 9 1140 514
f 739 368 1141
f 739 1141 344
f 212 671 1142
f 212 1142 512
f 659 868 1143
f 659 1143 1026
f 725 779 1144
f 725 1144 492
f 925 497 1145
f 925 1145 434
f 564 74 1146
f 564 1146 313
f 734 16 1147
f 734 1147 846
f 68 503 1148
f 68 1148 48
f 317 12 1149
f 317 1149 933
f 941 535 1150
f 941 1150 45
f 741 672 1151
f 741 1151 338
f 681 293 1152
f 681 1152 408
f 23 103 1153
f 23 1153 634
f 560 1031 1154
f 560 1154 1008
f 271 992 1155
f 271 1155 391
f 647 251 1156
f 647 1156 467
f 870 500 1157
f 870 1157 1026
f 819 657 1158
f 819 1158 1019
f 273 861 1159
f 273 1159 1007
f 515 396 1160
f 515 1160 493
f 984 750 1161
f 984 1161 667
f 593 282 1162
f 593 1162 330
f 901 976 1163
f 901 1163 1067
f 297 422 1164
f 297 1164 652
f 336 649 1165
f 336 1165 524
f 28 797 1166
f 28 1166 514
f 516 643 1167
f 516 1167 450
f 792 1052 1168
f 792 1168 82
f 97 1010 1169
f 97 1169 480
f 907 281 1170
f 907 1170 63
f 958 151 1171
f 958 1171 19
f 703 420 1172
f 703 1172 345
f 406 584 1173
f 406 1173 891
f 403 1021 1174
f 403 1174 591
f 550 998 1175
f 550 1175 307
f 430 34 1176
f 430 1176 571
f 586 1049 1177
f 586 1177 635
f 740 1 1178
f 740 1178 44
f 885 656 1179
f 885 1179 404
f 773 673 1180
f 773 1180 674
f 794 348 1181
f 794 1181 388
f 347 54 1182
f 347 1182 578
f 1014 910 1183
f 1014 1183 667
f 360 660 1184
f 360 1184 969
f 233 846 1185
f 233 1185 228
f 1054 625 1186
f 1054 1186 466
f 272 461 1187
f 272 1187 902
f 663 109 1188
f 663 1188 798
f 743 284 1189
f 743 1189 322
f 683 307 1190
f 683 1190 951
f 930 1038 1191
f 930 1191 117
f 525 912 1192
f 525 1192 177
f 321 1106 1193
f 321 1193 426
f 513 373 1194
f 513 1194 889
f 600 30 1195
f 600 1195 692
f 789 921 1196
f 789 1196 718
f 919 363 1197
f 919 1197 763
f 699 15 1198
f 699 1198 1055
f 519 488 1199
f 519 1199 1012
f 607 799 1200
f 607 1200 431
f 479 943 1201
f 479 1201 400
f 217 864 1202
f 217 1202 884
f 793 343 1203
f 793 1203 1021
f 823 712 1204
f 823 1204 354
f 73 665 1205
f 73 1205 624
f 253 701 1206
f 253 1206 198
f 2 992 1207
f 2 1207 546
f 362 502 1208
f 362 1208 1034
f 349 487 1209
f 349 1209 373
f 873 1007 1210
f 873 1210 568
f 605 444 1211
f 605 1211 263
f 254 655 1212
f 254 1212 419
f 49 1064 1213
f 49 1213 899
f 639 746 1214
f 639 1214 365
f 1027 776 1215
f 1027 1215 641
f 598 766 1216
f 598 1216 532
f 549 620 1217
f 549 1217 109
f 757 383 1218
f 757 1218 133
f 942 138 1219
f 942 1219 1076
f 166 247 1220
f 166 1220 508
f 35 1020 1221
f 35 1221 141
f 1084 264 1222
f 1084 1222 71
f 208 421 1223
f 208 1223 685
f 841 334 1224
f 841 1224 530
f 904 834 1225
f 904 1225 610
f 726 497 1226
f 726 1226 559
f 59 978 1227
f 59 1227 484
f 459 91 1228
f 459 1228 769
f 315 194 1229
f 315 1229 170
f 490 837 1230
f 490 1230 1091
f 160 354 1231
f 160 1231 657
f 56 595 1232
f 56 1232 689
f 782 161 1233
f 782 1233 1056
f 1015 255 1234
f 1015 1234 837
f 275 190 1235
f 275 1235 417
f 965 388 1236
f 965 1236 95
f 323 809 1237
f 323 1237 619
f 804 628 1238
f 804 1238 137
f 389 249 1239
f 389 1239 820
f 878 1067 1240
f 878 1240 53
f 342 544 1241
f 342 1241 746
f 476 1090 1242
f 476 1242 637
f 1051 504 1243
f 1051 1243 157
f 50 745 1244
f 50 1244 548
f 371 866 1245
f 371 1245 174
f 127 829 1246
f 127 1246 140
f 298 842 1247
f 298 1247 110
f 287 848 1248
f 287 1248 938
f 415 325 1249
f 415 1249 1065
f 1068 547 1250
f 1068 1250 595
f 742 299 1251
f 742 1251 851
f 517 828 1252
f 517 1252 968
f 378 864 1253
f 378 1253 219
f 608 1092 1254
f 608 1254 278
f 88 320 1255
f 88 1255 1032
f 682 331 1256
f 682 1256 1110
f 606 985 1257
f 606 1257 730
f 274 180 1258
f 274 1258 1067
f 276 977 1259
f 276 1259 851
f 87 576 1260
f 87 1260 92
f 122 693 1261
f 122 1261 758
f 42 775 1262
f 42 1262 553
f 29 950 1263
f 29 1263 615
f 439 486 1264
f 439 1264 61
f 455 1075 1265
f 455 1265 642
f 840 410 1266
f 840 1266 123
f 825 63 1267
f 825 1267 953
f 1023 485 1268
f 1023 1268 31
f 178 537 1269
f 178 1269 581
f 705 179 1270
f 705 1270 283
f 20 934 1271
f 20 1271 1102
f 332 481 1272
f 332 1272 1074
f 25 805 1273
f 25 1273 475
f 296 883 1274
f 296 1274 1079
f 1115 822 1275
f 1115 1275 533
f 780 200 1276
f 780 1276 384
f 474 879 1277
f 474 1277 1099
f 748 1126 1278
f 748 1278 376
f 280 489 1279
f 280 1279 698
f 463 1063 1280
f 463 1280 871
f 55 482 1281
f 55 1281 1088
f 719 1065 1282
f 719 1282 397
f 542 713 1283
f 542 1283 962
f 1112 675 1284
f 1112 1284 277
f 435 1017 1285
f 435 1285 359
f 838 468 1286
f 838 1286 1113
f 648 128 1287
f 648 1287 382
f 427 385 1288
f 427 1288 1095
f 206 926 1289
f 206 1289 760
f 288 471 1290
f 288 1290 641
f 40 830 1291
f 40 1291 999
f 26 333 1292
f 26 1292 1049
f 621 5 1293
f 621 1293 729
f 90 990 1294
f 90 1294 18
f 808 616 1295
f 808 1295 133
f 43 831 1296
f 43 1296 462
f 892 1101 1297
f 892 1297 810
f 784 577 1298
f 784 1298 1083
f 491 716 1299
f 491 1299 16
f 352 805 1300
f 352 1300 13
f 428 754 1301
f 428 1301 75
f 440 157 1302
f 440 1302 285
f 531 1110 1303
f 531 1303 715
f 438 969 1304
f 438 1304 333
f 113 511 1305
f 113 1305 1124
f 85 431 1306
f 85 1306 1128
f 1130 839 1307
f 1130 1307 74
f 720 340 1308
f 720 1308 518
f 148 150 1309
f 148 1309 779
f 227 222 1310
f 227 1310 627
f 250 583 1311
f 250 1311 1122
f 370 1081 1312
f 370 1312 431
f 974 631 1313
f 974 1313 492
f 536 15 1314
f 536 1314 973
f 749 582 1315
f 749 1315 1004
f 114 501 1316
f 114 1316 839
f 27 836 1317
f 27 1317 24
f 1131 718 1318
f 1131 1318 163
f 146 544 1319
f 146 1319 149
