v -0.153524 0.64202 -0.422194
v -5e-05 0.675383 -0.452501
v 0.113527 0.649967 -0.432039
v 0.077931 0.558038 -0.522606
v -0.190716 0.561821 -0.596923
v -0.109092 0.547706 -0.669958
v 0.061217 0.602342 -0.652104
v -0.127089 0.643704 -0.562151
v -0.246465 0.057247 0.245276
v -0.22534 0.052348 0.352896
v -0.164794 0.086236 0.460117
v -0.266334 0.041536 0.332926
v -0.278495 0.004713 0.363119
v -0.374945 0.05757 0.34227
v -0.388987 0.121876 0.327102
v -0.472575 0.191717 0.492922
v -0.451239 0.077153 0.461255
v -0.341896 0.113917 0.000174
v -0.247236 0.107613 -0.119817
v -0.121375 0.055129 -0.050698
v -0.44941 0.210614 0.096328
v -0.496492 0.342908 0.062016
v -0.089212 0.032736 0.321128
v -0.045176 0.062569 0.451008
v 0.113648 0.029462 0.117946
v 0.062106 0.086021 -0.15422
v -0.258051 0.356641 -0.346271
v -0.234315 0.436903 -0.426199
v -0.052241 0.243593 -0.344556
v -0.186291 0.438101 -0.571481
v -0.446936 0.506828 -0.261611
v -0.41806 0.463797 -0.33214
v -0.402033 0.293713 -0.384504
v -0.417708 0.128703 -0.401998
v -0.453335 0.076316 -0.387134
v -0.312002 0.063209 -0.368471
v -0.264127 0.175258 -0.268049
v -0.189964 0.975726 -0.2058
v -0.238062 0.904988 -0.151045
v 2e-05 0.989398 -0.18576
v -0.2832 1.04842 -0.289366
v -0.130389 0.860921 -0.018551
v -0.260047 0.776508 0.013888
v -0.412685 0.805932 -0.292009
v -0.390996 0.854281 -0.44414
v -0.406552 0.675858 -0.460726
v -0.364156 0.644461 -0.53973
v -0.307037 0.626086 -0.638175
v -0.317299 0.603306 -0.537965
v -0.333262 0.8773 -0.526424
v -0.223315 0.964554 -0.574089
v -0.323358 0.762751 -0.590384
v -0.134797 0.805594 -0.756535
v -0.222108 0.735362 -0.723024
v 2.1e-05 0.988295 -0.661267
v -0.04612 0.846647 -0.768144
v 0.046235 0.686333 -0.82507
v 0.088177 0.89334 -0.729783
v 0.222215 0.735353 -0.722267
v -0.113441 0.637254 -0.798408
v -0.517296 0.236951 -0.181773
v 0.246457 0.057243 0.245282
v 0.335328 0.10146 0.05292
v 0.197996 0.129389 -0.185858
v 0.327587 0.172722 -0.153669
v 0.437111 0.239036 -0.100395
v 0.492316 0.397062 -0.090426
v 0.49503 0.412236 0.076842
v 0.355561 0.108655 0.191886
v 0.221151 0.334927 -0.351551
v 0.234482 0.436656 -0.426415
v 0.32175 0.365485 -0.363265
v 0.481672 0.423802 -0.284731
v 0.331246 0.498345 -0.388608
v 0.41698 0.18365 -0.39801
v 0.332451 0.120377 -0.389803
v 0.416308 0.07951 -0.404127
v 0.378869 0.03859 -0.403867
v 0.489104 0.119154 -0.353983
v 0.374935 0.057571 0.342272
v 0.440794 0.48217 0.2948
v 0.470734 0.330628 0.468936
v 0.418512 0.043215 0.398567
v 0.346288 0.00266 0.380109
v 0.313325 0.048909 0.324546
v 0.278496 0.004713 0.363119
v 0.41681 0.167512 0.569262
v 0.393563 0.83392 -0.251269
v 0.437937 1.04119 -0.260539
v 0.340816 0.921611 -0.218244
v 0.248489 0.811363 -0.049174
v 0.066084 0.874427 -0.008379
v 0.414386 0.818375 -0.402711
v 0.332951 0.877182 -0.526097
v 0.230503 0.99688 -0.502918
v 0.33864 0.6599 -0.601867
v 0.317179 0.603379 -0.537978
v 0.297986 0.615742 -0.630194
v 0.288293 0.519995 -0.566064
v -0.194104 0.175162 0.561015
v -0.261414 0.006382 0.48012
v -0.448316 0.507884 0.22011
v -0.32266 0.627698 0.329994
v 2.7e-05 1.05969 -0.426039
v 0.042227 0.612054 -0.774505
v -0.041849 0.674627 -0.675798
v 0.208037 0.64512 -0.58651
v 0.217843 0.636468 -0.455136
v -0.297243 0.542375 -0.573284
v -0.06581 0.516551 -0.742889
v -0.21233 0.569966 -0.626662
v 2.1e-05 0.405408 -0.629342
v -0.244102 0.588509 -0.480887
v -0.162595 0.552676 -0.499999
v -0.140532 0.789998 0.14894
v -0.070882 0.818007 0.118209
v 0.14046 0.790138 0.148871
v 0.266306 0.041532 0.332938
v 0.152201 0.179536 0.579382
v 0.0918 0.392657 0.628252
v 0.060192 0.599878 0.514154
v 0.231617 0.420699 0.595924
v 0.186263 0.438048 -0.571527
v 0.278853 0.09073 -0.287202
v 0.33971 0.007935 -0.355377
v 0.458479 0.08584 -0.179057
v 0.46422 0.016358 -0.344161
v 0.40614 0.000892 -0.372149
v 0.21164 0.570198 -0.626279
v 0.243907 0.588553 -0.480808
v 0.111537 0.544532 -0.671006
v 0.049567 0.526212 -0.60656
v 0.376317 0.672981 0.079
v 0.267648 0.751036 0.093694
v -0.46897 0.022326 -0.255282
v -0.414483 0.04026 -0.402238
v -0.37885 0.038568 -0.403859
v -0.382674 0.01164 -0.392022
v -0.430117 0.002163 -0.358469
v -0.362107 -0.000178 -0.343539
v -0.218296 0.632413 -0.614552
v -0.119221 0.675211 -0.486148
v -0.222309 0.642542 -0.490531
v 0.188957 0.628638 -0.400956
v 0.214881 0.566869 -0.431716
v 0.162457 0.552701 -0.499952
v -0.270692 0.5031 0.535567
v 0.045029 0.375504 -0.500635
v 1.2e-05 0.560955 -0.442012
v -0.076692 0.583545 -0.374314
v 0.040358 0.681797 -0.500466
v 0.119191 0.675287 -0.486302
v 0.079435 0.648732 -0.409157
v -0.079435 0.648717 -0.409122
v -0.251613 0.5833 -0.418447
v -0.153487 0.574684 -0.372759
v -0.117888 0.595898 -0.353964
v 0.069759 0.739045 0.306173
v -1.8e-05 0.703572 0.38243
v -0.316134 0.016677 0.341685
v 0.43961 0.036482 -0.388025
v 0.408593 0.045375 -0.388284
v -0.154021 0.896378 0.26993
v -0.115687 0.968869 0.177637
v 6e-06 1.0188 0.119245
v 6e-06 0.827721 0.406424
v -0.076096 0.837044 0.388104
v -0.099175 0.788756 0.185167
v 9e-06 0.823246 0.116453
v -0.026449 0.730607 0.295361
v -0.04325 0.885228 0.314687
v -0.131846 0.896859 0.309497
v -0.1795 0.92697 0.338521
v -0.0352 0.972198 0.162362
v -7e-06 0.857135 0.429447
v -0.129812 0.896057 0.35256
v -0.074261 0.98831 0.172651
v 0.154685 0.895959 0.269869
v 0.164923 0.887707 0.372932
v 0.083624 0.997329 0.159302
v 0.132548 0.896363 0.309425
v 0.162853 0.928741 0.28635
v 0.155587 0.927205 0.331426
v -0.244228 0.063862 0.244784
v -0.172651 0.075841 0.415557
v -0.279662 0.011167 0.365564
v -0.371568 0.060273 0.347774
v -0.405476 0.189066 0.260687
v -0.465932 0.192296 0.490793
v -0.338197 0.119744 0.001341
v -0.395125 0.19403 -0.086635
v -0.44337 0.214142 0.09607
v -0.489564 0.343674 0.06137
v -0.104647 0.03286 0.181622
v -0.088507 0.039621 0.320079
v 1.7e-05 0.045066 -0.001039
v 0.061631 0.092333 -0.15123
v -0.256466 0.359106 -0.339914
v -0.230355 0.442212 -0.423933
v -0.18798 0.280825 -0.328718
v -0.051621 0.248092 -0.33923
v -0.234609 0.18984 -0.228258
v -0.278178 0.493492 -0.465168
v -0.441295 0.503455 -0.259203
v -0.401256 0.292527 -0.377649
v -0.416264 0.128317 -0.395159
v -0.301867 0.058072 -0.330062
v -0.188895 0.970017 -0.209707
v 2e-05 0.983481 -0.189499
v -0.289901 1.02428 -0.26434
v 0.12617 0.950146 -0.16373
v 0.06273 0.901656 -0.069818
v -0.128117 0.855101 -0.021706
v -0.403086 0.996496 -0.250272
v -0.400102 0.907167 -0.350046
v -0.404217 0.657189 -0.328111
v -0.381511 0.657644 -0.493412
v -0.328403 0.628961 -0.58294
v -0.328369 0.875018 -0.521968
v -0.25409 0.910316 -0.582211
v -0.311067 0.976588 -0.438234
v -0.13167 0.803171 -0.75076
v -0.21794 0.732926 -0.717955
v 0.056057 1.00787 -0.611423
v -0.046219 0.940218 -0.696345
v 0.115437 0.738667 -0.782169
v 0.042559 0.646871 -0.825507
v -0.480407 0.402296 -0.143705
v -0.510864 0.237284 -0.184515
v 0.24422 0.063858 0.24479
v 0.278351 0.076187 0.09834
v 0.324023 0.176573 -0.149036
v 0.420786 0.185208 0.033694
v 0.481961 0.33028 0.110843
v 0.367105 0.146013 0.293565
v 0.12674 0.04614 0.330451
v 0.15474 0.090145 0.454541
v 0.218686 0.337767 -0.345647
v 0.192577 0.240706 -0.298876
v 0.1645 0.404235 -0.438913
v 0.475821 0.421245 -0.281862
v 0.470468 0.4614 -0.152103
v 0.410912 0.536151 -0.279024
v 0.326661 0.502491 -0.385323
v 0.415739 0.182967 -0.391155
v 0.377039 0.078034 -0.399135
v 0.439281 0.29498 0.291761
v 0.475224 0.26594 0.455015
v 0.387593 0.833457 -0.254894
v 0.286187 1.04286 -0.292321
v 0.407683 0.817043 -0.401196
v 0.328047 0.874865 -0.521672
v 0.280896 1.01495 -0.42762
v 0.214165 0.92551 -0.611168
v 0.384223 0.729718 -0.503572
v 0.313098 0.71414 -0.623041
v 0.494846 0.333728 -0.16556
v 0.44943 0.559037 0.060096
v 0.33122 0.612055 -0.531868
v 0.295026 0.62177 -0.62822
v 0.26625 0.530363 -0.60951
v -0.1829 0.144931 0.523991
v -0.262546 0.013071 0.478395
v -0.042663 0.175923 0.588934
v -0.37305 0.013958 0.468767
v -0.449667 0.530998 0.140671
v -0.318669 0.622538 0.327456
v -0.148407 0.63878 -0.70467
v 0.090887 0.655335 -0.706915
v 0.225472 0.648758 -0.489739
v 0.082264 0.697054 -0.550603
v -0.291019 0.544094 -0.570581
v -0.225119 0.496264 -0.640085
v -0.065011 0.512438 -0.737282
v -0.112146 0.434343 -0.646496
v -0.269165 0.594739 -0.467165
v 0.136367 0.810357 0.073715
v 0.150296 0.183639 0.574041
v 0.081598 0.284374 0.62722
v -0.052955 0.498458 0.582665
v 0.059624 0.595053 0.509114
v 0.230087 0.418249 0.589547
v 0.227349 0.471348 -0.568559
v 0.285644 0.092425 -0.287119
v 0.113036 0.537695 -0.670942
v -0.166888 0.674887 -0.572134
v -0.082277 0.696971 -0.550433
v 0.191927 0.626981 -0.381278
v 0.153567 0.555993 -0.415668
v -0.418517 0.302631 0.555475
v -0.041873 0.539445 -0.489475
v -0.187579 0.555519 -0.40929
v -0.119216 0.643199 -0.380946
v 1.6e-05 0.726646 0.330773
v 0.044506 0.693944 0.435111
v 0.058516 0.663226 0.520881
v 0.062504 0.637562 0.588178
v -0.003047 0.451601 0.907391
v 0.027764 0.380233 1.00736
v 0.061664 0.593645 0.695458
v -0.000562 0.532849 0.790238
v 0.19227 0.571442 0.929603
v 0.140701 0.767253 0.444971
v 0.17264 0.75534 0.529215
v 0.193293 0.73241 0.619
v 0.210237 0.660631 0.783925
v 0.147807 0.45317 1.02736
v 0.109573 0.393643 1.06913
v -0.058368 0.663234 0.52077
v -0.193852 0.57248 0.914278
v -0.062336 0.758501 0.337924
v -0.187096 0.735494 0.607689
v -0.194482 0.669123 0.767724
v -0.15818 0.449659 1.03719
v -0.087122 0.330437 1.11432
v -0.037489 0.60614 0.83983
v -0.036469 0.718211 0.666692
v -0.044277 0.41956 1.04314
v -0.102544 0.507556 0.994006
v -0.110214 0.563218 0.934393
v -0.04031 0.782515 0.431167
v 0.125534 0.633927 0.848209
v 0.031097 0.556902 0.9047
v 0.07013 0.768724 0.567828
v 0.107296 0.782556 0.244559
v 0.301899 0.823518 0.18819
v 0.754501 0.77624 0.173336
v 0.867306 0.771945 0.111413
v 0.451655 0.8272 0.175735
v 0.687406 0.959382 0.05519
v 0.648423 0.820308 0.154284
v 0.096254 0.834343 0.203754
v 0.127332 0.875289 0.175696
v 0.183569 0.919287 0.145636
v 0.33806 0.969989 0.102706
v 0.836623 0.892264 0.045511
v 0.906989 0.84862 0.042954
v 0.546808 0.772873 0.279703
v 0.731445 0.786723 0.399861
v 0.111789 0.780102 0.312849
v 0.21169 0.791131 0.397305
v 0.289566 0.797154 0.429738
v 0.378699 0.800916 0.45015
v 0.881799 0.756917 0.315031
v 0.63699 0.845297 0.282853
v 0.400617 0.862109 0.357964
v 0.18796 0.832262 0.315571
v 0.310537 0.863465 0.312234
v 0.59739 0.944849 0.147164
v 0.470572 0.960088 0.173962
v 0.883574 0.819285 0.12179
v -0.00067 0.844419 0.113758
v -0.045813 0.919752 0.034291
v -0.061375 0.973728 -0.037189
v -0.000741 1.1804 -0.432274
v -0.03284 1.22416 -0.551825
v -0.064127 1.07457 -0.194192
v -0.189341 1.24643 -0.331751
v -0.063983 0.867735 0.136066
v -0.173288 1.01933 0.034231
v -0.182197 1.12022 -0.093174
v -0.191091 1.17222 -0.170387
v -0.152017 1.28111 -0.49526
v 0.060583 1.01288 -0.096361
v 0.057997 1.13275 -0.296769
v 0.179783 1.24108 -0.323931
v 0.139975 0.961563 0.083021
v 0.166956 1.01921 0.033705
v 0.189748 1.13029 -0.102352
v 0.137126 1.27851 -0.486204
v 0.102752 1.28205 -0.560691
v 0.066184 0.912487 0.061821
v 0.077308 1.17342 -0.148056
v 0.029539 1.24917 -0.41343
v 0.088387 1.0133 0.071875
v 0.032314 0.930215 0.111619
v -0.039554 1.27702 -0.536602
v -0.07032 0.960362 0.107675
v -0.107312 0.782578 0.244533
v -0.222662 0.775468 0.282496
v -0.316761 0.773107 0.291729
v -0.754511 0.77621 0.173378
v -0.507217 0.772258 0.28523
v -0.612813 0.789876 0.208562
v -0.731457 0.78669 0.399909
v -0.111778 0.780136 0.312841
v -0.289567 0.797204 0.429699
v -0.474374 0.799459 0.451896
v -0.561196 0.79874 0.446108
v -0.881814 0.75688 0.315084
v -0.990545 0.720664 0.195156
v -0.491457 0.827381 0.172909
v -0.687393 0.95939 0.05517
v -0.185121 0.919309 0.145469
v -0.25366 0.947819 0.124706
v -0.338595 0.970003 0.102604
v -0.594563 0.976135 0.067348
v -0.836613 0.892297 0.045463
v -0.549343 0.924612 0.19504
v -0.470564 0.960064 0.174
v -0.88357 0.819302 0.121766
v -0.754102 0.902515 0.116168
v -0.300964 0.922411 0.226225
v -0.231909 0.900788 0.230877
v -0.780799 0.809924 0.307134
v -0.187931 0.832268 0.315547
v -0.152641 0.644975 -0.41591
v -4.9e-05 0.658919 -0.437539
v 0.112554 0.652438 -0.425562
v 0.15269 0.645049 -0.415908
v -0.074272 0.677588 -0.496042
v 0.0743 0.6693 -0.530122
v -0.134955 0.670417 -0.48861
v 0.180883 0.658128 -0.478506
v -0.238758 0.620137 -0.450302
v -0.209475 0.622822 -0.540185
v 8.5e-05 0.568829 -0.486326
v -0.077342 0.551611 -0.519991
v -0.112505 0.548002 -0.676062
v 0.055817 0.545747 -0.699101
v 0.118548 0.661977 -0.428879
v -0.25281 1.43142 0.547362
v -0.283762 1.3871 0.443982
v -0.224106 1.49645 0.446194
v -0.180839 1.3259 0.672659
v -0.254892 1.27257 0.624034
v -0.254971 1.02696 0.335275
v -0.184547 0.991447 0.26294
v -0.334207 1.1713 0.408996
v -0.316701 1.29953 0.389599
v -0.201157 1.50382 0.584849
v -0.265253 1.15976 0.240284
v -0.290644 1.24716 0.273505
v -0.285133 1.18587 0.592725
v -0.189184 0.959906 0.488946
v -0.166467 0.928063 0.393161
v -0.128891 1.48118 0.694654
v -0.272359 1.38139 0.445211
v -0.306211 1.1376 0.477158
v -3.4e-05 1.31879 0.776853
v -0.143721 1.23752 0.738469
v -0.142242 1.33226 0.722589
v 0.156938 1.33255 0.702321
v -2.5e-05 0.904478 0.56189
v -1.6e-05 0.873903 0.478032
v -0.083515 1.11447 0.74024
v -1.8e-05 1.40706 0.763438
v 0.083479 1.11442 0.74022
v -0.130051 1.02723 0.676981
v 0.092943 1.41646 0.744121
v 0.17872 0.939218 0.505316
v 0.101336 0.885809 0.456358
v -0.123918 1.41331 0.708637
v 0.122289 0.960211 0.613935
v -0.061474 0.863754 0.371372
v -0.050473 1.35682 0.741155
v 0.083641 1.03009 0.679864
v 0.252843 1.4314 0.547418
v 0.216615 1.35773 0.645666
v 0.187201 1.5032 0.409875
v 0.259469 1.42774 0.387328
v 0.254992 1.02699 0.335297
v 0.332562 1.26433 0.459158
v 0.208291 0.96176 0.398828
v 0.302423 1.20286 0.558968
v 0.247263 1.36042 0.283201
v 0.189064 1.10903 0.191724
v 0.166116 1.01361 0.222849
v 0.141163 1.42599 0.687978
v 0.102234 0.888114 0.3332
v 0.154572 1.56505 0.579969
v 0.303896 1.29707 0.392739
v 0.320482 1.17555 0.411876
v 0.280484 1.12996 0.307682
v 3.2e-05 1.55005 0.329518
v 0.095631 1.51092 0.309853
v -0.14884 1.51375 0.390411
v 2.2e-05 1.13726 0.109672
v 0.049563 1.05149 0.143175
v 3.3e-05 1.31257 0.116809
v 1.2e-05 1.41059 0.169158
v 0.144814 1.21195 0.137855
v 0.118976 1.39607 0.191306
v 0.198619 1.37625 0.246138
v -0.198579 1.37621 0.246145
v -0.166693 1.11871 0.174238
v -0.114702 1.04056 0.172955
v 0.123074 1.56386 0.452385
v -0.019933 1.00547 0.157853
v -0.10843 1.58973 0.475843
v 0.066704 1.47275 0.267999
v -0.07154 1.21834 0.125004
v -0.258747 1.43429 0.549715
v -0.289982 1.3903 0.443801
v -0.208075 1.50847 0.421876
v -0.18282 1.32578 0.679372
v -0.260266 1.27358 0.628404
v -0.26032 1.02292 0.333271
v -0.341132 1.1704 0.408515
v -0.207278 1.5066 0.586801
v -0.270545 1.15861 0.23585
v -0.179428 1.46352 0.67202
v -0.169528 1.06969 0.185832
v -0.143703 1.02915 0.189873
v -0.192051 0.954105 0.491616
v -0.17056 0.922385 0.393172
v -0.156255 0.933073 0.288872
v -0.121712 0.90916 0.276825
v -0.105374 0.881909 0.33235
v -0.135545 0.898916 0.359674
v -0.095193 0.87824 0.359574
v -0.105261 0.938047 0.222197
v -0.13531 0.96983 0.21961
v -0.132302 1.5898 0.51268
v -0.103858 0.992252 0.196723
v -0.08315 0.955272 0.205931
v -0.086527 0.901244 0.299457
v -0.266136 1.37819 0.445421
v -0.206905 1.46432 0.537844
v -0.29635 1.22196 0.518915
v -0.260828 1.05498 0.386211
v -0.181618 1.40039 0.643441
v -3.3e-05 1.31967 0.783797
v -0.122128 1.33039 0.750835
v -0.195874 1.2484 0.697309
v 0.162999 1.33474 0.70505
v 0.074709 1.22145 0.768565
v -2.5e-05 0.898158 0.5649
v -0.053825 0.87027 0.473622
v -1.6e-05 1.40783 0.770396
v -0.103733 0.879321 0.457395
v -0.162867 0.964085 0.603773
v 0.183799 0.934421 0.505759
v 0.103689 0.879299 0.4574
v 0.228973 1.05389 0.6268
v -0.130229 1.41555 0.710673
v 0.124613 0.954907 0.617867
v 0.132499 1.02335 0.682251
v 0.098007 0.871802 0.401312
v 0.077174 0.862191 0.365192
v -0.089815 0.869682 0.366193
v -0.06252 0.861344 0.41782
v -1.8e-05 1.48741 0.764397
v -0.024336 0.868564 0.355886
v -0.018593 0.882581 0.418113
v 0.047427 0.873272 0.347979
v 0.105528 0.901438 0.385509
v -0.067413 1.22332 0.742556
v -3.7e-05 1.12005 0.739722
v 0.077445 0.97152 0.61383
v 0.061225 1.27063 0.743738
v 0.258779 1.43426 0.549773
v 0.286658 1.30978 0.566601
v 0.221869 1.35905 0.650101
v 0.21855 1.24222 0.664631
v 0.18868 1.50874 0.405863
v 0.265204 1.43139 0.385673
v 0.26034 1.02294 0.333295
v 0.18938 0.942171 0.350169
v 0.311466 1.0886 0.365801
v 0.207315 1.50655 0.586875
v 0.240004 0.98165 0.4224
v 0.144132 0.910173 0.425359
v 0.249399 1.01667 0.529624
v 0.250635 1.36433 0.27847
v 0.191752 1.10779 0.185381
v 0.170136 1.01022 0.218229
v 0.253339 1.2745 0.226782
v 0.142416 1.4254 0.694839
v 0.121717 0.909175 0.276829
v 0.105261 0.938042 0.222199
v 0.135323 0.969839 0.219599
v 0.105382 0.88192 0.332352
v 0.135558 0.898946 0.359693
v 0.170519 1.57401 0.619126
v 0.083147 0.955262 0.20593
v 0.103867 0.992253 0.196714
v 0.086564 0.922924 0.257277
v 0.2903 1.16868 0.326439
v 0.206878 1.09377 0.23951
v 0.274638 1.07025 0.435024
v 2.5e-05 1.55598 0.325813
v 0.116778 1.54376 0.357795
v 0.168558 1.49025 0.354146
v -0.154905 1.51723 0.390083
v -0.140868 1.48235 0.279101
v 2.2e-05 1.13565 0.10286
v 0.081496 1.40353 0.174825
v 1.5e-05 1.60293 0.403941
v 0.08805 1.08928 0.131762
v 0.113766 1.21356 0.114843
v -0.068893 1.59283 0.418456
v -0.158916 1.39679 0.20189
v -0.17183 1.11649 0.170033
v -0.098255 1.04239 0.154767
v -0.208326 1.29027 0.19443
v 0.129373 1.56688 0.452802
v -0.059558 1.09206 0.122538
v 5e-06 0.964209 0.168502
v -0.061888 0.957703 0.183603
v 0.061895 0.957694 0.183623
v 0.05682 1.61737 0.452612
v 0.109326 0.989619 0.201849
v -0.084244 0.954676 0.20694
v 0.064945 1.46742 0.272185
v 0.022164 1.55044 0.381287
v -0.073607 1.39043 0.197911
v -0.060278 1.1394 0.140116
v -0.127165 1.46412 0.294147
v 0.053779 1.10066 0.149462
v -0.112109 0.955046 0.214301
v -0.106917 0.996638 0.195905
v -0.125771 1.04195 0.199774
v -0.184402 0.977649 0.348523
v -0.17588 1.02063 0.262906
v -0.113713 0.894607 0.390698
v 0.114262 0.894373 0.391169
v 0.075559 0.955505 0.215384
v 0.075729 0.958193 0.21413
v 0.106931 0.996602 0.195899
v 0.108069 0.997068 0.195747
v 0.113411 0.998772 0.195098
v 0.104696 0.985629 0.197735
v 0.129288 1.04839 0.199566
v 0.18195 0.978036 0.338004
v 0.125257 1.03142 0.204043
v -0.112306 0.995014 0.199329
v -0.111912 0.994072 0.200305
v -0.099264 0.989226 0.211625
v -0.126412 1.03368 0.203817
v -0.125246 1.03142 0.204027
v -0.053008 1.54444 0.389231
v -0.135466 1.05231 0.202437
v 0.075493 0.954937 0.215703
v -0.075493 0.954937 0.215699
v -0.07526 0.864294 0.41281
v -0.11371 0.998633 0.195105
v -0.104379 0.983923 0.198061
v 0.116649 0.893277 0.393149
v 0.1137 0.998652 0.195091
v 0.020486 0.7385 0.313314
v 0.060606 0.65704 0.518357
v -0.00297 0.446068 0.903105
v 0.030064 0.375101 1.00319
v 0.061517 0.553399 0.763706
v 0.193993 0.565187 0.932232
v 0.069302 0.757852 0.337686
v 0.110284 0.76575 0.383662
v 0.17795 0.752421 0.532719
v 0.212259 0.654566 0.786774
v 0.14719 0.446263 1.02832
v 0.10838 0.386766 1.0686
v 0.071162 0.326202 1.10196
v 0.06668 0.412913 0.983134
v -0.064168 0.587813 0.692423
v -0.19524 0.565934 0.916332
v -0.069302 0.757851 0.337686
v -0.145662 0.765699 0.44651
v -0.192417 0.699808 0.690361
v -0.158047 0.442706 1.03798
v -0.085079 0.323939 1.11271
v -0.083998 0.726207 0.389249
v -0.035684 0.611553 0.843884
v -0.076801 0.711095 0.717675
v -0.041516 0.423636 1.04811
v -0.106702 0.539507 0.972077
v -0.046332 0.790276 0.461081
v 0.124358 0.639787 0.851852
v 0.078818 0.687137 0.757286
v 0.038597 0.458403 1.02408
v 0.088552 0.796018 0.501182
v 0.064206 0.797862 0.432681
v 0.10735 0.776298 0.241424
v 0.211205 0.80884 0.199644
v 0.301591 0.818258 0.183582
v 0.75263 0.77013 0.170478
v 0.495357 0.784998 0.222406
v 0.691218 0.955602 0.050697
v 0.107 0.832394 0.194245
v 0.187149 0.920238 0.139696
v 0.342907 0.969271 0.097707
v 0.433217 0.976084 0.085502
v 0.840192 0.887986 0.041272
v 0.909429 0.842727 0.040071
v 0.9634 0.788291 0.053976
v 0.7361 0.781594 0.398846
v 0.112285 0.776105 0.318574
v 0.216751 0.788225 0.401171
v 0.294526 0.793936 0.433484
v 0.566891 0.794706 0.445711
v 0.885326 0.751329 0.31272
v 0.991148 0.716194 0.189795
v 0.256918 0.763449 0.330168
v 0.563366 0.76314 0.333472
v 0.472842 0.871727 0.315398
v 0.830538 0.811736 0.240398
v 0.931302 0.774641 0.158004
v 0.161716 0.831298 0.304463
v 0.599261 0.950491 0.150861
v 0.4716 0.965722 0.177987
v 0.781771 0.874183 0.145252
v 0.227376 0.929449 0.210224
v 0.378985 0.906265 0.257726
v -0.000668 0.838798 0.109587
v -0.063475 0.968133 -0.040834
v -0.002151 0.996257 -0.10421
v -0.000745 1.1738 -0.434617
v -0.067112 1.04826 -0.16455
v -0.190868 1.24484 -0.338396
v -0.07093 0.867184 0.135409
v -0.113166 0.910284 0.115771
v -0.177831 1.02083 0.02912
v -0.183898 1.12173 -0.099796
v -0.153025 1.27826 -0.501572
v -0.076326 1.27333 -0.641686
v 0.062965 1.08908 -0.231465
v 0.181379 1.24022 -0.330692
v 0.069305 0.867202 0.135178
v 0.110464 0.9102 0.115445
v 0.145381 0.96304 0.078826
v 0.171499 1.02074 0.028603
v 0.192245 1.13085 -0.108867
v 0.138743 1.27665 -0.492757
v 0.10293 1.2793 -0.567126
v 0.110771 1.22406 -0.225917
v 0.075372 1.17947 -0.145098
v 0.060211 1.03387 0.048604
v -0.114728 1.22501 -0.226678
v -0.036838 1.2834 -0.535672
v -0.061838 1.27045 -0.416323
v -0.110969 1.12157 -0.032797
v -0.107365 0.776319 0.241399
v -0.172473 0.769538 0.270699
v -0.316695 0.766226 0.290444
v -0.75264 0.7701 0.17052
v -0.833715 0.743169 0.184976
v -0.624315 0.76599 0.262443
v -0.736113 0.781563 0.398892
v -0.112271 0.77614 0.318567
v -0.294502 0.793994 0.433487
v -0.479905 0.795314 0.45301
v -0.566896 0.794693 0.445745
v -0.885341 0.751293 0.312772
v -1.0083 0.711507 0.113098
v -0.301634 0.818267 0.183579
v -0.691204 0.955613 0.050675
v -0.188755 0.920218 0.139556
v -0.343463 0.969263 0.097629
v -0.598986 0.97362 0.062541
v -0.840184 0.888023 0.041223
v -0.909428 0.842763 0.040022
v -0.599276 0.950474 0.150875
v -0.547575 0.899019 0.236563
v -0.422814 0.938772 0.221128
v -0.886883 0.823644 0.126145
v -0.781787 0.874196 0.145218
v -0.300165 0.927437 0.231032
v -0.200634 0.891858 0.238317
v -0.797451 0.819156 0.260159
v 1.9e-05 0.737118 0.301335
v 0.002938 0.738115 0.302125
v 0.001787 0.739269 0.299718
v -0.003231 0.738228 0.302209
v -0.002144 0.739373 0.299786
v -3.1e-05 0.739609 0.29951
v -0.290391 0.037164 0.318678
v -0.339992 0.036634 0.333134
v -0.337931 0.024354 0.337367
v -0.384724 0.049248 0.357104
v -0.353472 0.033893 0.324205
v -0.373922 0.00835 0.338594
v 0.374291 0.055619 0.352422
v 0.373883 0.00834 0.338676
v 0.343496 0.02713 0.338639
v 0.287412 0.04265 0.332834
v 0.29386 0.015812 0.325723
v 0.337955 0.024368 0.337394
v 0.340019 0.036637 0.333112
v -0.325025 0.027285 -0.397565
v -0.348767 0.002234 -0.396278
v -0.372763 0.026121 -0.39825
v 0.345567 0.044903 -0.394313
v 0.359649 0.031196 -0.410305
v 0.371972 0.015086 -0.394031
v 0.359949 0.005645 -0.372206
v -0.3817 0.029927 -0.413599
v -0.404725 0.003346 -0.401983
v -0.390722 0.005581 -0.389609
v -0.380024 0.011896 -0.392964
v 0.398475 0.048842 -0.402544
v 0.403503 0.027818 -0.434098
v 0.427111 0.029457 -0.394425
v 0.42474 0.017585 -0.390714
v 0.402296 0.007905 -0.375341
v -0.454502 0.047722 -0.373001
v -0.437976 0.026963 -0.402567
v -0.453806 0.018145 -0.416988
v -0.426794 0.020321 -0.389837
v 0.454444 0.047729 -0.372918
v 0.438001 0.026959 -0.402593
v 0.463585 0.025363 -0.415712
v -0.340921 0.038253 0.346771
v -0.339155 0.02807 0.350182
v -0.339403 0.029476 0.349802
v -0.341053 0.040294 0.345779
v 0.341417 0.041962 0.345059
v 0.338211 0.030269 0.348979
v 0.341315 0.040394 0.34582
v 0.340969 0.038355 0.346733
v 0.339412 0.02939 0.349833
v 0.340216 0.034595 0.348375
v -0.340195 0.034616 0.348362
v -0.376647 0.024972 -0.389844
v 0.376927 0.019833 -0.386611
v -0.426218 0.029194 -0.384372
v -0.424357 0.020394 -0.38073
v 0.426204 0.029155 -0.384363
v 0.425899 0.027669 -0.383841
v 0.380523 0.013113 -0.382528
v -0.339086 0.027992 0.350178
v 0.341126 0.040942 0.345473
v 0.339075 0.027982 0.350173
v 0.425962 0.033874 -0.386623
v -0.42597 0.03388 -0.386619
v -0.383429 0.01551 -0.3875
v 0.374976 0.031889 -0.391769
v -0.374975 0.031104 -0.392255
v -0.231156 1.01118 0.398707
v -0.242906 1.04741 0.505435
v -0.070098 1.22378 0.734045
v -0.286156 1.23334 0.528568
v -0.12606 0.915461 0.421933
v -0.075901 0.879296 0.346898
v -0.231008 1.06753 0.287905
v 0.075499 0.948174 0.211707
v 0.207708 1.09396 0.235851
v 0.240054 1.03955 0.343495
v 0.125998 1.03049 0.196746
v 0.06168 1.14387 0.136097
v -0.071994 1.23284 0.137054
v -0.075503 0.948158 0.211716
v -0.024589 1.58494 0.59427
v -1.1e-05 1.61673 0.575733
v -0.080381 1.57388 0.641293
v 0.021281 1.56358 0.634796
v 0.047695 1.60297 0.600313
v 0.102916 1.48594 0.688199
v 0.141314 1.55207 0.563699
v -0.102896 1.48594 0.688232
v -0.150696 1.54523 0.602777
v -0.238083 1.42014 0.537868
v -0.094958 1.40924 0.718706
v 0.117566 1.3232 0.718938
v 0.191644 1.25477 0.669464
v 0.03786 1.59979 0.47132
v -0.103413 1.58227 0.505309
v -0.095716 1.5625 0.423924
v -0.164072 1.49075 0.388534
v -1.9e-05 1.52843 0.323624
v 0.207814 0.984706 0.450521
v 0.277756 1.3478 0.50078
v 0.209084 1.36296 0.270807
v 0.126055 0.915449 0.421877
v -0.094257 0.898044 0.300084
v -0.088147 0.913239 0.262708
v -0.086801 0.930683 0.236816
v 0.094266 0.92152 0.254195
v 0.005716 0.954013 0.190936
v 5e-06 1.07879 0.144368
v -0.025635 0.952623 0.193456
v 0.038087 0.950977 0.197401
v -0.186055 1.40195 0.64709
v -0.191518 1.39556 0.641071
v 0.096482 0.904068 0.288833
v -0.138383 0.954361 0.279293
v 0.138449 0.937931 0.311932
v 0.018318 1.00828 0.172651
v 0.216855 1.36711 0.612061
v -0.187926 1.40363 0.641592
v 3.8e-05 0.906426 0.275483
v 1.8e-05 0.927716 0.234083
v -0.159239 0.892165 0.267924
v -0.043634 0.989549 0.13564
v 7e-06 1.02399 0.114557
v 6e-06 0.821261 0.409121
v -0.043584 0.84152 0.425121
v -0.105872 0.7893 0.183206
v -0.054447 0.818687 0.124837
v 9e-06 0.826559 0.110286
v -0.092695 0.75079 0.256283
v -0.113376 0.840003 0.241605
v -0.094932 0.823083 0.339604
v -0.029914 0.891153 0.140133
v -0.037789 0.873432 0.35279
v -0.128381 0.891906 0.305966
v -0.186016 0.927722 0.340966
v -0.13041 0.92269 0.244238
v -0.083374 0.997288 0.160107
v -0.066552 0.958462 0.173548
v 7e-06 0.846083 0.393573
v -5e-06 0.856008 0.436355
v -0.050397 0.862157 0.455657
v -0.036792 0.848622 0.391172
v -0.107916 1.00103 0.202273
v 0.159913 0.891771 0.26784
v 0.137841 0.928494 0.197332
v 0.078863 0.830843 0.390025
v 0.137127 0.856685 0.338806
v 0.105885 0.78925 0.183213
v 0.092709 0.750772 0.256265
v 0.116048 0.824194 0.267647
v 0.028368 0.758735 0.319151
v 0.05771 0.884925 0.151379
v 0.033699 0.973664 0.164626
v 0.037876 0.873379 0.352777
v 0.072463 0.945601 0.212424
v 0.129124 0.891381 0.305895
v 0.145799 0.968984 0.213437
v 0.111089 0.900048 0.393286
v 0.06491 0.97426 0.182222
v -0.114398 0.912121 0.278057
v -0.163318 0.931426 0.335877
v 0.013618 0.865373 0.368299
v 0.12099 0.900159 0.329098
v 0.122525 0.947163 0.239193
v -0.02738 0.904632 0.274523
v 0.023014 0.882085 0.318476
v -7e-06 0.928108 0.228688
v 5e-06 0.864836 0.369279
v 0.12072 0.900002 0.328898
v 6e-06 0.964935 0.175539
v -4.8e-05 0.774463 0.219519
v -6e-05 0.804413 0.152021
v -0.061039 0.923108 0.240558
v -0.225471 1.01525 0.399078
v -0.293949 1.19052 0.420416
v -0.044775 0.900856 0.460665
v 0.150378 1.01709 0.234085
v -0.025234 1.5791 0.590464
v 0.029135 1.60892 0.57666
v -0.021294 1.55742 0.631499
v 0.021257 1.5574 0.631508
v 0.098732 1.48455 0.682762
v -0.078835 1.53311 0.685579
v -0.144757 1.54196 0.601031
v 0.036342 1.59378 0.47456
v -0.058579 1.51282 0.337002
v 0.20273 0.989438 0.449647
v 0.160714 1.52618 0.488218
v 0.260969 0.642865 -0.616198
v 0.25712 0.633296 -0.575213
v 0.259187 0.606769 -0.626821
v -0.233332 0.63604 -0.587136
v -0.258775 0.58401 -0.607092
v -0.268402 0.631955 -0.581162
v 0.22798 0.63649 -0.58333
v 0.253013 0.617792 -0.63966
v 0.262424 0.605014 -0.574087
v -0.227538 0.636521 -0.583237
v -0.253553 0.579972 -0.609421
v -0.262029 0.60501 -0.573946
f 4 2 1
f 4 3 2
f 4 7 3
f 7 4 1
f 1 6 7
f 8 5 1
f 2 7 8
f 2 8 1
f 3 7 2
f 6 5 8
f 7 6 8
f 1 5 6
f 15 14 9
f 16 17 15
f 17 14 15
f 9 21 15
f 11 24 23
f 10 23 9
f 20 18 9
f 20 19 18
f 29 27 19
f 27 29 28
f 28 32 27
f 32 33 27
f 37 27 33
f 37 36 18
f 38 42 39
f 45 44 46
f 49 47 28
f 47 46 28
f 28 46 44
f 44 31 28
f 44 45 39
f 45 41 39
f 51 45 50
f 45 51 41
f 52 45 46
f 50 45 52
f 51 50 53
f 56 53 57
f 57 59 58
f 54 60 53
f 53 60 57
f 39 43 44
f 33 22 61
f 22 18 61
f 22 33 32
f 28 31 22
f 28 22 32
f 64 25 62
f 25 64 26
f 26 20 25
f 64 62 63
f 64 63 65
f 63 69 68
f 62 69 63
f 23 62 25
f 9 23 25
f 9 25 20
f 23 24 62
f 70 29 26
f 70 26 64
f 75 76 77
f 72 70 75
f 79 72 75
f 82 68 69
f 68 82 81
f 83 84 86
f 80 83 69
f 69 87 82
f 69 62 85
f 69 85 80
f 88 74 73
f 91 40 90
f 90 40 89
f 90 89 88
f 94 93 88
f 95 94 89
f 89 94 88
f 67 73 66
f 68 67 66
f 68 66 63
f 88 73 67
f 74 88 93
f 97 74 96
f 96 74 93
f 74 97 99
f 74 72 73
f 101 11 10
f 10 11 23
f 29 20 26
f 19 20 29
f 19 27 37
f 19 37 18
f 101 17 100
f 13 17 101
f 10 13 101
f 15 21 22
f 102 22 31
f 103 102 31
f 15 22 102
f 15 102 16
f 39 41 38
f 51 104 40
f 41 40 38
f 51 40 41
f 89 104 55
f 89 55 95
f 104 51 53
f 104 53 55
f 48 60 54
f 60 105 57
f 105 107 98
f 98 57 105
f 58 56 57
f 55 56 58
f 53 56 55
f 109 49 28
f 109 30 111
f 112 110 30
f 112 30 28
f 28 30 109
f 31 44 103
f 42 115 43
f 116 40 92
f 42 43 39
f 43 115 103
f 43 103 44
f 24 83 86
f 24 87 83
f 119 120 122
f 119 100 120
f 100 119 11
f 24 11 119
f 24 119 87
f 87 119 122
f 63 66 65
f 74 71 70
f 74 99 71
f 71 99 70
f 99 123 70
f 70 123 112
f 70 72 74
f 64 76 70
f 65 124 64
f 125 76 124
f 76 64 124
f 89 40 104
f 95 59 94
f 95 58 59
f 57 98 59
f 126 79 65
f 66 126 65
f 79 126 66
f 79 73 72
f 73 79 66
f 99 97 129
f 123 131 112
f 99 129 131
f 99 131 123
f 91 88 67
f 67 133 91
f 67 68 133
f 81 133 68
f 133 81 91
f 134 91 81
f 92 134 117
f 92 91 134
f 88 91 90
f 33 135 35
f 33 35 34
f 33 61 135
f 18 36 61
f 135 61 36
f 36 140 135
f 52 54 53
f 53 50 52
f 60 106 105
f 141 113 106
f 113 143 106
f 143 142 106
f 141 106 60
f 48 141 60
f 58 95 55
f 98 96 59
f 94 59 93
f 96 93 59
f 130 97 108
f 17 16 100
f 147 100 102
f 100 16 102
f 48 54 52
f 48 52 47
f 52 46 47
f 148 29 70
f 148 70 112
f 29 148 112
f 28 29 112
f 79 125 65
f 125 79 127
f 125 127 128
f 65 125 124
f 101 100 11
f 75 77 79
f 21 9 18
f 21 18 22
f 37 33 34
f 37 34 36
f 132 149 150
f 146 145 132
f 149 145 144
f 149 132 145
f 114 132 150
f 42 38 40
f 42 40 116
f 87 122 82
f 70 76 75
f 83 87 69
f 40 91 92
f 105 106 151
f 105 151 152
f 105 152 107
f 107 152 108
f 155 143 113
f 114 156 155
f 150 157 156
f 156 157 155
f 149 154 150
f 157 150 154
f 157 154 155
f 150 156 114
f 134 81 121
f 81 120 121
f 121 120 100
f 100 147 121
f 121 147 159
f 115 147 103
f 145 108 144
f 130 108 145
f 144 153 149
f 140 139 135
f 102 103 147
f 81 82 120
f 82 122 120
f 108 97 107
f 78 125 128
f 78 77 76
f 24 86 62
f 49 113 141
f 159 134 121
f 159 147 115
f 137 36 34
f 140 136 139
f 9 12 10
f 13 14 17
f 13 160 14
f 13 12 160
f 84 83 80
f 84 80 85
f 84 85 86
f 109 111 49
f 92 117 116
f 42 116 115
f 86 85 118
f 62 118 85
f 76 125 78
f 161 77 128
f 127 161 128
f 34 35 136
f 34 136 137
f 47 49 48
f 49 141 48
f 79 77 161
f 79 161 127
f 153 144 152
f 158 134 159
f 140 138 136
f 97 96 107
f 107 96 98
f 151 142 154
f 151 154 149
f 155 142 143
f 142 155 154
f 146 130 145
f 153 152 151
f 153 151 149
f 108 152 144
f 113 111 114
f 114 155 113
f 110 132 111
f 132 110 112
f 131 129 132
f 132 112 131
f 111 113 49
f 129 97 130
f 151 106 142
f 146 129 130
f 111 132 114
f 111 30 110
f 129 146 132
f 13 10 12
f 86 118 62
f 12 9 160
f 160 9 14
f 138 137 136
f 128 162 78
f 77 78 162
f 137 140 36
f 137 138 140
f 162 128 77
f 136 35 139
f 139 35 135
f 158 115 116
f 134 158 116
f 134 116 117
f 115 158 159
f 163 168 170
f 167 163 170
f 166 167 170
f 163 165 169
f 163 164 165
f 163 169 168
f 166 171 163
f 166 163 167
f 171 164 163
f 172 173 174
f 172 175 173
f 173 175 176
f 173 176 177
f 177 172 174
f 177 176 172
f 169 170 168
f 165 164 178
f 166 178 179
f 178 170 165
f 166 170 178
f 164 180 178
f 166 179 171
f 171 179 178
f 171 178 180
f 181 174 182
f 174 173 182
f 172 181 182
f 172 182 175
f 182 183 175
f 182 177 183
f 183 181 172
f 177 174 181
f 177 181 183
f 171 180 164
f 170 169 165
f 175 183 176
f 182 173 177
f 183 172 176
f 188 184 187
f 188 187 189
f 190 184 191
f 184 188 192
f 195 184 194
f 184 195 185
f 190 194 184
f 190 196 194
f 201 190 200
f 198 201 200
f 201 198 199
f 203 199 198
f 204 203 198
f 206 205 200
f 202 206 200
f 198 200 205
f 202 207 206
f 207 202 190
f 211 209 212
f 212 209 208
f 214 215 210
f 210 215 208
f 215 216 204
f 215 193 208
f 216 215 217
f 218 217 215
f 217 203 216
f 204 216 203
f 221 219 215
f 221 215 214
f 215 219 218
f 219 221 220
f 225 222 220
f 226 227 222
f 204 193 215
f 228 193 204
f 206 229 228
f 205 206 228
f 228 229 191
f 228 198 205
f 228 204 198
f 191 192 228
f 197 232 231
f 232 233 231
f 231 233 230
f 230 236 185
f 230 185 194
f 230 194 196
f 230 196 231
f 239 201 238
f 239 197 201
f 242 233 241
f 238 243 241
f 238 241 245
f 235 234 247
f 233 234 235
f 235 230 233
f 248 235 247
f 242 243 211
f 249 211 243
f 249 250 211
f 252 249 251
f 252 253 249
f 252 224 253
f 252 254 224
f 252 251 255
f 243 251 249
f 257 233 232
f 239 232 197
f 242 234 233
f 242 211 234
f 258 247 234
f 258 234 211
f 241 233 257
f 244 255 243
f 251 243 255
f 259 255 244
f 255 259 256
f 259 260 256
f 244 243 238
f 263 185 262
f 194 185 195
f 190 202 200
f 201 197 196
f 190 201 196
f 187 262 189
f 262 187 265
f 262 265 263
f 186 263 184
f 184 263 187
f 187 263 265
f 186 184 185
f 186 185 263
f 266 193 192
f 188 266 192
f 208 221 210
f 221 214 210
f 221 208 209
f 220 221 209
f 253 224 209
f 209 224 220
f 223 222 268
f 227 268 222
f 227 226 269
f 260 269 226
f 259 270 260
f 269 260 270
f 271 269 270
f 268 227 269
f 224 226 222
f 222 225 224
f 273 275 203
f 199 203 275
f 273 274 275
f 203 272 273
f 273 272 276
f 203 276 272
f 193 228 192
f 277 212 213
f 213 193 266
f 213 266 267
f 235 236 230
f 235 237 236
f 185 236 237
f 197 231 196
f 278 282 279
f 264 279 262
f 264 278 279
f 264 237 278
f 283 244 240
f 240 201 283
f 238 240 244
f 232 239 284
f 284 245 246
f 239 245 284
f 239 238 245
f 211 250 209
f 253 209 250
f 249 253 250
f 241 243 242
f 255 254 252
f 226 224 254
f 254 256 260
f 226 254 260
f 256 254 255
f 232 245 241
f 246 245 232
f 257 232 241
f 259 261 270
f 275 285 283
f 274 285 275
f 275 283 201
f 261 283 285
f 261 259 283
f 259 244 283
f 191 229 207
f 191 207 190
f 207 229 206
f 208 193 213
f 222 219 220
f 222 223 219
f 223 218 219
f 286 268 287
f 218 286 203
f 218 268 286
f 223 268 218
f 218 203 217
f 220 224 225
f 262 290 189
f 262 280 290
f 188 290 266
f 189 290 188
f 238 201 240
f 199 275 201
f 284 246 232
f 185 264 262
f 185 237 264
f 192 191 184
f 285 274 291
f 285 291 289
f 291 274 273
f 213 212 208
f 282 278 248
f 247 282 248
f 235 248 278
f 237 235 278
f 212 277 211
f 268 271 287
f 288 271 270
f 271 268 269
f 286 287 276
f 286 276 203
f 276 292 291
f 293 276 287
f 291 273 276
f 293 291 292
f 271 291 293
f 293 292 276
f 258 211 277
f 277 247 258
f 281 277 267
f 281 280 279
f 281 290 280
f 290 281 267
f 277 213 267
f 261 285 270
f 285 289 270
f 289 288 270
f 289 291 271
f 289 271 288
f 293 287 271
f 280 262 279
f 266 290 267
f 281 279 282
f 281 247 277
f 281 282 247
f 300 302 301
f 308 299 307
f 303 304 294
f 297 295 296
f 294 296 295
f 304 296 294
f 305 296 304
f 305 297 296
f 302 307 298
f 302 298 301
f 307 299 298
f 305 300 297
f 306 302 305
f 300 301 297
f 305 302 300
f 297 309 295
f 295 311 294
f 311 295 309
f 312 309 297
f 315 314 308
f 298 299 314
f 299 308 314
f 310 301 314
f 301 298 314
f 313 312 297
f 313 297 301
f 313 301 310
f 313 316 317
f 319 318 320
f 314 318 319
f 310 319 320
f 312 313 317
f 309 317 311
f 308 318 315
f 315 318 314
f 314 319 310
f 312 317 309
f 316 313 320
f 310 320 313
f 322 305 316
f 306 305 322
f 305 317 316
f 318 323 320
f 302 318 307
f 305 324 317
f 324 311 317
f 321 303 294
f 304 324 305
f 311 321 294
f 308 307 318
f 302 306 322
f 304 303 324
f 322 316 320
f 322 323 318
f 322 320 323
f 302 322 318
f 324 303 321
f 324 321 311
f 332 333 325
f 335 326 334
f 326 325 333
f 334 326 333
f 336 337 330
f 330 327 331
f 327 330 337
f 327 337 328
f 335 329 326
f 335 330 329
f 330 331 329
f 338 326 329
f 338 329 331
f 341 325 326
f 343 341 326
f 341 340 325
f 343 342 341
f 344 327 328
f 339 331 344
f 331 327 344
f 338 343 326
f 339 343 338
f 338 331 339
f 339 344 345
f 346 343 348
f 346 348 342
f 341 342 347
f 325 340 347
f 343 346 342
f 341 347 340
f 339 345 343
f 349 350 348
f 335 350 349
f 330 349 351
f 337 351 328
f 336 351 337
f 350 334 348
f 347 334 333
f 325 347 332
f 336 330 351
f 330 335 349
f 335 334 350
f 349 345 344
f 349 344 351
f 349 343 345
f 348 343 349
f 344 328 351
f 348 334 347
f 348 347 342
f 347 333 332
f 362 357 361
f 353 352 359
f 359 354 353
f 360 354 359
f 361 354 360
f 355 363 356
f 358 363 357
f 357 363 355
f 357 354 361
f 362 358 357
f 364 354 357
f 364 357 365
f 365 357 355
f 353 372 352
f 372 353 354
f 364 372 354
f 367 352 372
f 368 367 372
f 368 372 364
f 369 368 364
f 366 365 355
f 355 370 366
f 355 371 370
f 355 356 371
f 369 364 365
f 366 369 365
f 369 366 373
f 370 371 374
f 366 370 374
f 352 375 376
f 369 373 368
f 375 367 368
f 352 367 375
f 362 373 366
f 358 374 377
f 356 363 371
f 363 377 371
f 361 360 368
f 375 378 376
f 363 358 377
f 362 361 368
f 362 368 373
f 378 360 359
f 359 352 376
f 366 374 362
f 358 362 374
f 374 371 377
f 360 378 375
f 360 375 368
f 376 378 359
f 383 385 384
f 380 379 386
f 387 381 380
f 387 380 386
f 390 391 382
f 385 382 384
f 382 385 390
f 383 381 387
f 388 383 387
f 388 385 383
f 389 385 388
f 392 381 383
f 395 394 379
f 379 380 381
f 395 379 381
f 396 395 381
f 391 398 382
f 393 384 398
f 398 384 382
f 396 381 392
f 397 396 393
f 392 383 384
f 396 392 384
f 396 384 393
f 397 399 400
f 396 397 400
f 393 401 402
f 395 400 403
f 395 403 404
f 391 401 398
f 398 401 393
f 396 400 395
f 395 404 394
f 394 404 379
f 393 402 397
f 397 402 399
f 385 399 402
f 385 389 399
f 389 400 399
f 389 388 400
f 405 402 401
f 385 405 401
f 385 401 390
f 388 387 400
f 387 403 400
f 387 404 403
f 387 406 404
f 404 406 379
f 386 379 406
f 391 390 401
f 387 386 406
f 385 402 405
f 409 417 408
f 418 408 417
f 417 409 410
f 416 419 411
f 412 408 420
f 419 408 411
f 419 420 408
f 416 411 413
f 416 413 415
f 412 420 410
f 412 410 414
f 418 415 407
f 418 407 408
f 410 420 417
f 416 415 418
f 418 419 416
f 414 421 408
f 407 415 413
f 420 418 417
f 420 419 418
f 408 412 414
f 408 407 413
f 413 411 408
f 422 424 423
f 425 422 426
f 422 423 426
f 423 429 426
f 427 433 432
f 430 433 427
f 429 430 427
f 426 429 434
f 427 432 428
f 431 422 425
f 435 427 436
f 435 434 427
f 423 424 430
f 434 429 427
f 423 430 429
f 428 436 427
f 424 422 431
f 437 431 425
f 434 439 438
f 435 436 428
f 424 431 437
f 434 435 439
f 424 438 430
f 430 438 433
f 433 428 432
f 438 426 434
f 439 433 438
f 439 435 433
f 435 428 433
f 425 426 437
f 426 438 424
f 437 426 424
f 440 442 441
f 440 446 444
f 440 448 443
f 446 449 444
f 440 443 450
f 451 445 452
f 451 454 445
f 444 454 451
f 441 446 440
f 454 444 445
f 448 440 444
f 445 444 455
f 447 440 450
f 442 440 447
f 442 447 453
f 452 445 455
f 457 452 455
f 448 444 457
f 448 457 446
f 444 451 457
f 451 452 457
f 453 447 456
f 453 456 442
f 455 444 449
f 441 443 448
f 441 448 446
f 446 457 449
f 457 455 449
f 450 443 441
f 456 441 442
f 447 450 441
f 447 441 456
f 458 463 461
f 463 465 464
f 463 464 462
f 458 461 460
f 461 463 466
f 466 463 467
f 459 465 458
f 458 465 463
f 467 462 468
f 467 463 462
f 469 459 458
f 470 462 464
f 468 462 470
f 458 460 471
f 471 469 458
f 472 474 473
f 474 468 470
f 469 471 459
f 466 467 472
f 467 474 472
f 467 468 474
f 461 466 472
f 473 464 465
f 465 461 472
f 465 472 473
f 474 464 473
f 474 470 464
f 471 461 459
f 460 461 471
f 459 461 465
f 475 481 477
f 480 482 478
f 481 483 482
f 481 482 480
f 477 481 485
f 485 480 486
f 481 480 485
f 488 476 475
f 476 484 483
f 476 483 475
f 486 478 479
f 480 478 486
f 475 483 481
f 486 479 489
f 487 486 489
f 475 477 490
f 488 475 490
f 485 492 478
f 492 489 479
f 487 489 492
f 486 487 492
f 476 491 484
f 484 491 483
f 485 486 492
f 477 485 491
f 490 477 488
f 483 478 482
f 485 478 483
f 491 485 483
f 492 479 478
f 488 477 491
f 488 491 476
f 496 497 494
f 496 494 493
f 499 498 501
f 500 502 496
f 500 496 493
f 498 504 503
f 494 497 499
f 505 506 498
f 497 505 499
f 493 494 501
f 499 505 498
f 495 500 493
f 494 499 501
f 514 500 495
f 514 519 500
f 497 520 505
f 505 520 521
f 493 501 518
f 514 495 519
f 518 501 520
f 520 501 521
f 521 501 498
f 519 518 497
f 518 520 497
f 519 495 493
f 518 519 493
f 526 527 523
f 527 528 525
f 528 529 531
f 530 526 523
f 525 528 532
f 535 533 538
f 533 537 538
f 526 535 538
f 526 538 527
f 524 523 525
f 533 534 528
f 537 533 528
f 538 537 528
f 527 538 528
f 536 530 523
f 536 523 524
f 523 527 525
f 534 529 528
f 530 543 526
f 536 543 530
f 544 545 510
f 544 510 541
f 510 545 531
f 545 546 547
f 546 545 544
f 525 549 548
f 526 549 535
f 533 549 550
f 535 549 533
f 533 550 545
f 536 524 543
f 545 528 531
f 532 528 545
f 549 525 532
f 548 549 526
f 550 549 532
f 550 532 545
f 551 548 526
f 526 543 551
f 548 524 525
f 543 524 548
f 543 548 551
f 552 553 554
f 554 553 555
f 556 557 552
f 552 557 560
f 558 559 562
f 560 558 562
f 562 559 563
f 560 562 564
f 553 560 564
f 555 553 564
f 568 566 560
f 557 565 560
f 565 568 560
f 566 567 559
f 566 559 558
f 560 566 558
f 569 561 552
f 569 552 554
f 553 552 560
f 552 561 556
f 575 561 569
f 575 556 561
f 565 555 579
f 565 579 568
f 568 579 580
f 566 568 580
f 557 555 565
f 581 564 562
f 555 564 579
f 579 564 581
f 579 581 562
f 556 575 557
f 585 586 582
f 582 587 588
f 589 585 582
f 588 587 591
f 589 592 585
f 586 593 582
f 587 590 566
f 591 587 566
f 586 585 593
f 584 583 588
f 594 595 598
f 593 596 582
f 583 582 588
f 594 598 587
f 596 594 587
f 582 596 587
f 583 589 582
f 583 597 602
f 602 589 583
f 584 588 605
f 593 607 594
f 594 607 608
f 596 593 594
f 609 593 585
f 609 607 593
f 609 605 607
f 605 588 607
f 607 588 591
f 591 566 607
f 607 566 608
f 566 610 608
f 609 606 605
f 506 507 498
f 512 516 515
f 511 510 509
f 539 534 533
f 540 547 546
f 571 577 576
f 597 589 602
f 509 508 510
f 507 506 510
f 511 509 510
f 498 513 504
f 512 611 508
f 595 515 504
f 504 515 612
f 504 612 515
f 515 613 504
f 515 516 613
f 510 517 509
f 505 521 614
f 502 500 522
f 498 615 521
f 615 614 521
f 534 539 529
f 531 529 542
f 531 542 510
f 616 510 531
f 616 531 510
f 545 539 533
f 571 570 572
f 559 545 563
f 559 574 545
f 617 563 545
f 573 574 570
f 573 539 540
f 573 540 574
f 539 563 617
f 571 619 618
f 576 619 571
f 567 577 620
f 567 620 621
f 567 621 622
f 567 622 572
f 620 577 571
f 577 567 576
f 567 566 624
f 579 562 625
f 557 575 554
f 557 554 555
f 587 598 599
f 595 515 598
f 590 587 571
f 587 599 571
f 601 603 623
f 590 621 572
f 590 603 580
f 603 626 580
f 603 601 571
f 601 619 571
f 604 512 600
f 595 604 628
f 595 628 627
f 628 604 513
f 600 513 604
f 595 615 630
f 595 630 604
f 604 630 631
f 595 594 615
f 592 632 585
f 606 632 589
f 583 584 597
f 517 506 614
f 614 615 604
f 580 579 578
f 580 578 571
f 601 610 567
f 599 608 610
f 599 610 601
f 613 608 599
f 613 599 512
f 578 563 573
f 578 573 570
f 500 519 522
f 522 496 502
f 517 614 508
f 506 505 614
f 615 498 633
f 615 630 631
f 503 633 594
f 604 508 614
f 506 517 510
f 580 571 603
f 580 603 626
f 618 634 619
f 567 576 619
f 567 619 601
f 567 610 566
f 567 566 624
f 512 516 613
f 604 615 631
f 563 578 562
f 578 579 625
f 578 625 562
f 563 539 573
f 608 613 594
f 613 504 503
f 613 503 594
f 522 497 496
f 604 512 508
f 522 519 497
f 632 609 585
f 584 605 606
f 584 606 589
f 584 589 597
f 609 632 606
f 632 592 589
f 554 575 569
f 508 507 510
f 510 542 541
f 599 598 515
f 513 507 508
f 574 559 570
f 542 529 539
f 539 540 542
f 601 571 599
f 542 544 541
f 517 508 509
f 599 600 512
f 578 570 571
f 570 559 567
f 510 542 636
f 627 637 504
f 627 504 513
f 513 628 627
f 507 513 498
f 599 515 600
f 515 512 600
f 513 611 638
f 512 638 600
f 508 611 513
f 617 545 639
f 571 620 621
f 571 621 590
f 640 621 622
f 570 567 572
f 574 547 545
f 540 574 547
f 571 601 623
f 572 590 603
f 572 603 571
f 544 542 546
f 540 546 542
f 649 641 642
f 648 647 641
f 649 648 641
f 653 652 644
f 643 654 651
f 643 644 652
f 643 652 654
f 646 645 643
f 646 643 651
f 654 652 651
f 650 649 642
f 650 642 645
f 650 645 646
f 655 656 645
f 657 658 662
f 641 657 662
f 641 662 658
f 658 642 641
f 653 644 660
f 656 643 645
f 643 660 644
f 656 660 643
f 659 655 642
f 659 642 658
f 655 645 642
f 659 656 655
f 656 664 663
f 661 665 653
f 658 667 664
f 653 660 661
f 661 660 665
f 660 656 666
f 660 666 665
f 659 664 656
f 659 658 664
f 667 658 657
f 657 641 667
f 663 666 656
f 668 663 669
f 669 663 664
f 666 670 665
f 670 666 663
f 652 665 670
f 669 664 649
f 649 664 671
f 671 664 667
f 641 672 667
f 653 665 652
f 652 670 651
f 651 670 646
f 650 646 668
f 650 668 669
f 650 669 649
f 648 649 671
f 648 671 672
f 647 648 672
f 646 670 668
f 668 670 663
f 671 667 672
f 675 677 676
f 684 683 676
f 674 679 673
f 680 679 674
f 680 674 675
f 681 680 675
f 682 681 675
f 678 676 683
f 678 682 676
f 682 675 676
f 673 687 674
f 693 675 674
f 689 675 693
f 688 674 687
f 689 693 674
f 689 674 688
f 692 685 684
f 692 684 691
f 686 676 677
f 676 691 684
f 686 691 676
f 677 675 689
f 694 686 677
f 689 690 694
f 689 694 677
f 690 686 694
f 690 689 695
f 689 688 698
f 687 698 688
f 692 697 685
f 692 691 697
f 691 686 696
f 686 690 696
f 682 678 699
f 699 695 700
f 682 699 700
f 683 684 697
f 683 697 701
f 700 689 702
f 700 695 703
f 700 703 689
f 702 689 698
f 698 679 702
f 680 700 702
f 685 697 684
f 683 701 678
f 681 682 700
f 681 700 680
f 702 679 680
f 699 696 690
f 699 701 696
f 678 701 699
f 699 690 695
f 696 697 691
f 696 701 697
f 703 695 689
f 708 705 706
f 708 707 709
f 711 704 705
f 712 711 705
f 711 710 704
f 707 715 714
f 709 707 714
f 712 705 708
f 713 712 708
f 713 708 709
f 716 717 707
f 716 707 708
f 719 720 718
f 720 721 706
f 722 706 721
f 706 705 704
f 720 704 718
f 706 704 720
f 715 707 724
f 717 723 707
f 723 724 707
f 706 722 708
f 708 722 716
f 722 717 716
f 726 725 722
f 721 727 726
f 720 719 727
f 722 725 717
f 722 721 726
f 720 727 721
f 725 723 717
f 726 728 725
f 715 724 729
f 714 729 724
f 714 724 730
f 713 726 731
f 711 731 719
f 710 719 718
f 715 729 714
f 709 714 730
f 709 728 713
f 728 726 713
f 731 712 713
f 712 731 711
f 711 719 710
f 723 728 730
f 728 723 725
f 709 730 728
f 723 730 724
f 731 726 727
f 731 727 719
f 732 733 739
f 741 740 734
f 740 733 734
f 739 733 740
f 737 734 735
f 738 737 735
f 735 743 738
f 735 736 743
f 736 744 743
f 741 734 737
f 741 737 738
f 742 741 738
f 745 734 733
f 745 733 732
f 747 734 745
f 746 735 734
f 735 746 750
f 735 750 736
f 736 750 751
f 736 751 744
f 749 734 747
f 748 749 747
f 749 746 734
f 748 752 749
f 752 754 753
f 754 752 748
f 751 755 744
f 751 750 755
f 750 756 755
f 757 758 754
f 750 746 756
f 752 746 749
f 747 754 748
f 754 747 757
f 745 758 747
f 747 758 757
f 746 752 756
f 742 752 753
f 742 753 741
f 756 759 755
f 741 753 754
f 741 754 739
f 739 754 758
f 740 741 739
f 744 755 743
f 738 743 759
f 743 755 759
f 759 752 742
f 752 759 756
f 738 759 742
f 647 672 641
f 698 687 673
f 732 739 758
f 732 758 745
f 704 710 718
f 679 698 673
f 768 766 767
f 766 770 767
f 772 774 773
f 776 778 775
f 778 776 777
f 780 779 781
f 784 783 785
f 782 785 783
f 788 786 787
f 789 786 788
f 787 781 788
f 786 781 787
f 792 791 793
f 792 790 791
f 793 791 794
f 791 790 794
f 795 798 797
f 798 796 797
f 796 781 795
f 796 795 797
f 801 799 800
f 800 794 801
f 770 769 771
f 768 802 804
f 768 804 803
f 773 774 807
f 774 772 806
f 777 810 809
f 777 809 808
f 777 808 778
f 810 811 809
f 804 802 812
f 784 814 783
f 793 818 817
f 793 817 792
f 794 790 819
f 795 781 798
f 771 769 770
f 771 770 767
f 771 767 768
f 771 768 802
f 771 802 812
f 771 812 804
f 771 804 803
f 771 803 820
f 770 766 768
f 770 768 820
f 770 820 771
f 772 811 809
f 772 809 808
f 772 808 778
f 772 778 821
f 772 821 806
f 775 821 806
f 775 806 774
f 772 822 776
f 772 776 777
f 772 777 810
f 772 810 811
f 775 774 807
f 775 807 773
f 775 773 822
f 775 822 776
f 799 794 792
f 799 818 817
f 799 817 792
f 799 792 823
f 794 799 800
f 799 801 794
f 799 794 793
f 799 793 818
f 781 798 796
f 781 796 824
f 785 782 783
f 819 784 814
f 819 814 783
f 819 783 790
f 819 790 794
f 785 783 826
f 785 826 783
f 785 783 790
f 785 790 819
f 785 819 784
f 792 794 790
f 779 788 789
f 779 789 786
f 779 786 827
f 779 827 781
f 779 780 825
f 779 825 788
f 781 825 788
f 829 828 834
f 831 829 834
f 839 836 840
f 843 846 845
f 842 843 845
f 846 848 847
f 842 845 844
f 846 844 845
f 844 849 850
f 846 847 852
f 844 846 852
f 830 847 853
f 853 829 830
f 830 852 847
f 842 844 850
f 842 850 856
f 842 856 843
f 846 856 855
f 856 846 843
f 854 837 853
f 861 848 855
f 855 862 854
f 855 854 861
f 837 854 862
f 837 862 836
f 860 863 829
f 837 860 829
f 853 837 829
f 846 855 848
f 851 831 850
f 850 831 858
f 831 834 840
f 836 862 840
f 852 849 844
f 857 855 856
f 865 921 864
f 840 869 839
f 838 836 839
f 850 849 873
f 850 873 851
f 830 849 852
f 859 857 858
f 858 857 850
f 859 858 840
f 850 857 856
f 863 874 905
f 837 836 860
f 862 855 859
f 840 834 869
f 840 862 859
f 864 921 875
f 921 866 875
f 866 841 875
f 875 841 828
f 841 834 828
f 832 833 828
f 833 864 875
f 828 833 875
f 874 863 876
f 863 860 876
f 838 835 836
f 836 835 876
f 835 867 905
f 835 905 876
f 876 905 874
f 868 835 877
f 877 838 839
f 870 877 841
f 841 877 869
f 877 870 868
f 849 830 872
f 872 830 851
f 861 878 847
f 878 853 847
f 853 878 854
f 877 835 838
f 847 848 861
f 836 876 860
f 835 868 871
f 835 871 868
f 834 841 869
f 839 869 877
f 829 832 828
f 830 829 831
f 830 831 851
f 878 861 854
f 859 855 857
f 831 840 858
f 863 880 833
f 880 881 866
f 880 835 881
f 880 864 833
f 880 866 864
f 864 866 921
f 864 921 865
f 881 868 870
f 881 870 841
f 881 841 866
f 880 863 905
f 880 905 835
f 905 867 835
f 881 835 868
f 892 882 886
f 886 890 892
f 885 890 886
f 882 893 883
f 884 870 883
f 883 866 882
f 897 899 898
f 897 898 895
f 900 903 902
f 900 902 901
f 903 895 896
f 903 896 902
f 884 883 893
f 907 908 911
f 907 911 910
f 885 907 910
f 885 910 890
f 913 889 909
f 905 906 908
f 905 908 907
f 884 906 914
f 884 914 870
f 917 918 899
f 899 918 898
f 900 901 917
f 884 893 913
f 884 913 906
f 891 893 882
f 894 886 864
f 904 899 897
f 906 911 908
f 920 917 899
f 890 912 158
f 892 890 882
f 888 893 887
f 887 893 891
f 882 921 886
f 882 866 921
f 895 898 904
f 909 910 911
f 913 909 906
f 894 915 923
f 916 868 914
f 906 916 914
f 917 901 919
f 917 920 918
f 890 910 912
f 901 903 919
f 899 904 920
f 926 927 894
f 915 894 927
f 864 866 926
f 927 926 866
f 927 866 928
f 905 928 868
f 905 927 928
f 866 870 928
f 915 927 874
f 864 921 866
f 927 905 874
f 870 868 928
f 864 926 894
f 905 868 916
f 885 886 894
f 907 885 915
f 885 923 915
f 885 894 923
f 922 896 897
f 922 897 895
f 902 896 922
f 902 922 895
f 904 896 895
f 904 897 896
f 886 921 864
f 919 903 900
f 919 900 917
f 895 903 901
f 929 923 894
f 905 907 874
f 907 915 874
f 898 920 904
f 898 918 920
f 883 870 866
f 868 870 914
f 901 902 895
f 905 916 906
f 889 913 888
f 888 913 893
f 890 887 891
f 911 906 909
f 891 882 890
f 932 933 887
f 909 933 932
f 932 910 909
f 887 890 932
f 932 890 158
f 932 158 912
f 932 912 910
f 933 889 888
f 933 888 887
f 933 909 889
f 935 934 937
f 935 936 934
f 940 939 942
f 939 941 942
f 935 944 939
f 935 939 945
f 943 944 935
f 942 944 943
f 941 944 942
f 939 944 941
f 939 946 945
f 940 946 939
f 947 945 946
f 948 947 949
f 938 947 948
f 948 937 938
f 948 935 937
f 934 938 937
f 949 942 943
f 948 949 943
f 948 943 935
f 947 946 940
f 947 940 949
f 949 940 942
f 945 947 936
f 936 947 938
f 936 938 934
f 935 945 936
f 952 951 950
f 952 950 951
f 955 954 953
f 955 953 954
f 957 956 958
f 960 961 959
f 958 956 957
f 961 960 959
