v 0.4375 0.164062 0.765625
v -0.4375 0.164062 0.765625
v 0.5 0.09375 0.6875
v -0.5 0.09375 0.6875
v 0.546875 0.054688 0.578125
v -0.546875 0.054688 0.578125
v 0.351562 -0.023438 0.617188
v -0.351562 -0.023438 0.617188
v 0.351562 0.132812 0.78125
v -0.351562 0.132812 0.78125
v -0.273438 0.164062 0.796875
v 0.203125 0.09375 0.742188
v -0.203125 0.09375 0.742188
v 0.078125 0.242188 0.65625
v -0.078125 0.242188 0.65625
v 0.273438 0.328125 0.796875
v -0.273438 0.328125 0.796875
v 0.203125 0.390625 0.742188
v -0.203125 0.390625 0.742188
v -0.15625 0.4375 0.648438
v 0.351562 0.515625 0.617188
v -0.351562 0.515625 0.617188
v -0.351562 0.453125 0.71875
v 0.351562 0.359375 0.78125
v -0.351562 0.359375 0.78125
v 0.5 0.390625 0.6875
v 0.546875 0.4375 0.578125
v -0.546875 0.4375 0.578125
v 0.625 0.242188 0.5625
v -0.625 0.242188 0.5625
v -0.5625 0.242188 0.671875
v 0.351562 0.242188 0.828125
v -0.351562 0.242188 0.828125
v 0.0 0.429688 0.742188
v 0.0 0.351562 0.820312
v 0.0 -0.679688 0.734375
v 0.0 -0.320312 0.78125
v 0.0 -0.1875 0.796875
v 0.0 0.40625 0.601562
v 0.0 0.570312 0.570312
v 0.0 0.898438 -0.546875
v 0.0 0.5625 -0.851562
v 0.0 0.070312 -0.828125
v 0.0 -0.382812 -0.351562
v 0.203125 -0.1875 0.5625
v -0.203125 -0.1875 0.5625
v 0.3125 -0.4375 0.570312
v -0.3125 -0.4375 0.570312
v 0.351562 -0.695312 0.570312
v -0.351562 -0.695312 0.570312
v 0.367188 -0.890625 0.53125
v -0.367188 -0.890625 0.53125
v 0.179688 -0.96875 0.554688
v -0.179688 -0.96875 0.554688
v 0.0 -0.984375 0.578125
v 0.4375 -0.140625 0.53125
v -0.4375 -0.140625 0.53125
v 0.632812 -0.039062 0.539062
v -0.632812 -0.039062 0.539062
v 0.828125 0.148438 0.445312
v -0.828125 0.148438 0.445312
v 0.859375 0.429688 0.59375
v -0.859375 0.429688 0.59375
v -0.710938 0.484375 0.625
v 0.492188 0.601562 0.6875
v -0.492188 0.601562 0.6875
v 0.320312 0.757812 0.734375
v -0.320312 0.757812 0.734375
v 0.15625 0.71875 0.757812
v -0.15625 0.71875 0.757812
v 0.164062 0.414062 0.773438
v -0.164062 0.414062 0.773438
v 0.125 0.304688 0.765625
v -0.125 0.304688 0.765625
v 0.203125 0.09375 0.742188
v -0.203125 0.09375 0.742188
v 0.375 0.015625 0.703125
v -0.375 0.015625 0.703125
v 0.492188 0.0625 0.671875
v -0.492188 0.0625 0.671875
v 0.625 0.1875 0.648438
v -0.625 0.1875 0.648438
v 0.640625 0.296875 0.648438
v -0.640625 0.296875 0.648438
v 0.429688 0.4375 0.71875
v -0.429688 0.4375 0.71875
v 0.25 0.46875 0.757812
v -0.25 0.46875 0.757812
v -0.109375 -0.71875 0.734375
v 0.117188 -0.835938 0.710938
v 0.0625 -0.882812 0.695312
v 0.0 -0.140625 0.742188
v 0.101562 -0.148438 0.742188
v -0.101562 -0.148438 0.742188
v 0.125 -0.226562 0.75
v -0.125 -0.226562 0.75
v 0.085938 -0.289062 0.742188
v -0.085938 -0.289062 0.742188
v 0.617188 0.054688 0.625
v -0.4375 0.546875 0.796875
v -0.3125 0.640625 0.835938
v 0.203125 0.617188 0.851562
v -0.125 -0.101562 0.8125
v 0.210938 -0.445312 0.710938
v -0.210938 -0.445312 0.710938
v 0.25 -0.703125 0.6875
v -0.25 -0.703125 0.6875
v 0.0 0.046875 0.726562
v 0.0 0.210938 0.765625
v 0.328125 0.476562 0.742188
v 0.132812 0.210938 0.757812
v -0.132812 0.210938 0.757812
v 0.078125 -0.445312 0.75
v -0.078125 -0.445312 0.75
v 0.039062 -0.125 0.78125
v 0.109375 -0.226562 0.828125
v -0.257812 -0.3125 0.554688
v 0.0 -0.78125 0.65625
v 0.09375 -0.75 0.664062
v -0.09375 -0.75 0.664062
v 0.09375 -0.8125 0.640625
v -0.09375 -0.8125 0.640625
v -0.046875 -0.851562 0.632812
v 0.273438 0.421875 0.773438
v -0.226562 0.109375 0.78125
v -0.375 0.085938 0.726562
v 0.546875 0.210938 0.671875
v -0.546875 0.210938 0.671875
v 0.28125 0.398438 0.765625
v 0.335938 0.40625 0.75
v -0.335938 0.40625 0.75
v 0.484375 0.554688 0.554688
v -0.484375 0.554688 0.554688
v 0.679688 0.453125 0.492188
v -0.601562 0.0 0.414062
v 0.0 0.898438 0.289062
v 0.0 0.984375 -0.078125
v 0.0 -0.195312 -0.671875
v 0.0 -0.460938 0.1875
v 0.0 -0.976562 0.460938
v 0.0 -0.804688 0.34375
v 0.0 -0.570312 0.320312
v 0.851562 0.234375 0.054688
v -0.851562 0.234375 0.054688
v 0.773438 0.265625 -0.4375
v -0.773438 0.265625 -0.4375
v 0.460938 0.4375 -0.703125
v -0.460938 0.4375 -0.703125
v 0.734375 -0.046875 0.070312
v -0.734375 -0.046875 0.070312
v 0.59375 -0.125 -0.164062
v -0.59375 -0.125 -0.164062
v 0.640625 -0.007812 -0.429688
v -0.640625 -0.007812 -0.429688
v 0.335938 0.054688 -0.664062
v -0.335938 0.054688 -0.664062
v 0.234375 -0.351562 0.40625
v -0.234375 -0.351562 0.40625
v 0.289062 -0.710938 0.382812
v -0.289062 -0.710938 0.382812
v -0.328125 -0.914062 0.398438
v -0.140625 -0.757812 0.367188
v 0.296875 -0.3125 -0.265625
v -0.296875 -0.3125 -0.265625
v 0.34375 -0.148438 -0.539062
v 0.453125 0.867188 -0.382812
v -0.453125 0.867188 -0.382812
v 0.453125 0.929688 -0.070312
v 0.453125 0.851562 0.234375
v -0.453125 0.851562 0.234375
v -0.726562 0.40625 0.335938
v 0.640625 0.703125 0.054688
v -0.640625 0.703125 0.054688
v 0.796875 0.5625 0.125
v -0.796875 0.5625 0.125
v 0.796875 0.539062 -0.359375
v -0.796875 0.539062 -0.359375
v 0.820312 0.328125 -0.203125
v -0.820312 0.328125 -0.203125
v 0.40625 -0.171875 0.148438
v -0.40625 -0.171875 0.148438
v -0.429688 -0.195312 -0.210938
v 0.890625 0.40625 -0.234375
v -0.890625 0.40625 -0.234375
v 1.039062 -0.101562 -0.328125
v -1.039062 -0.101562 -0.328125
v 1.28125 0.054688 -0.429688
v -1.28125 0.054688 -0.429688
v 1.351562 0.320312 -0.421875
v -1.351562 0.320312 -0.421875
v 1.234375 0.507812 -0.421875
v -1.234375 0.507812 -0.421875
v 1.023438 0.476562 -0.3125
v -1.023438 0.476562 -0.3125
v 0.945312 0.304688 -0.289062
v -0.945312 0.304688 -0.289062
v 0.882812 -0.023438 -0.210938
v -0.882812 -0.023438 -0.210938
v 1.171875 0.359375 -0.4375
v -1.171875 0.359375 -0.4375
v 1.023438 0.34375 -0.359375
v -1.023438 0.34375 -0.359375
v 0.835938 0.171875 -0.273438
v -0.835938 0.171875 -0.273438
v 0.757812 0.09375 -0.273438
v -0.757812 0.09375 -0.273438
v -0.820312 0.085938 -0.273438
v 0.84375 0.015625 -0.273438
v -0.84375 0.015625 -0.273438
v 0.71875 0.039062 -0.1875
v 0.796875 0.203125 -0.210938
v -0.890625 0.242188 -0.265625
v 0.8125 -0.015625 -0.320312
v -1.257812 0.242188 -0.492188
v 0.890625 0.109375 -0.328125
v -0.890625 0.109375 -0.328125
v 0.9375 0.0625 -0.335938
v 1.0 0.125 -0.367188
v -1.0 0.125 -0.367188
v 1.015625 0.234375 -0.375
v -1.015625 0.234375 -0.375
v 1.109375 0.210938 -0.390625
v 1.023438 0.4375 -0.484375
v -1.023438 0.4375 -0.484375
v 1.039062 -0.085938 -0.492188
v -1.039062 -0.085938 -0.492188
v 0.789062 -0.125 -0.328125
v -0.789062 -0.125 -0.328125
v -0.599668 0.142924 0.579165
v -0.456201 0.001065 0.607283
v 0.248456 -4.6e-05 0.643681
v 0.103456 0.141919 0.663601
v -0.103456 0.141919 0.663601
v -0.103199 0.346271 0.66425
v 0.248634 0.491477 0.644351
v -0.248634 0.491477 0.644351
v -0.456216 0.490362 0.60787
v 0.599981 0.345208 0.579642
v 0.082217 -0.940404 0.639009
v -0.082217 -0.940404 0.639009
v 0.233462 -0.573875 0.703395
v 0.180262 -0.156075 0.718071
v -0.262493 -0.074897 0.751986
v 0.87709 0.2939 0.526765
v -0.87709 0.2939 0.526765
v 0.599252 0.53986 0.655625
v 0.562952 0.48024 0.762965
v -0.152281 0.523533 0.850232
v 0.16921 -0.001516 0.772227
v 0.08438 0.095166 0.728633
v -0.097992 -0.566438 0.744361
v 0.132573 -0.175754 0.792565
v -0.05706 -0.215876 0.834638
v 0.492134 0.374954 0.735828
v -0.551952 0.245851 0.668222
v 0.66554 -0.016885 0.245454
v -0.800992 0.202993 0.218558
v 0.45752 0.682031 0.330423
v -0.809432 0.475047 -0.165418
v 0.306708 -0.277967 0.154605
v -0.287724 -0.218435 0.288457
v 1.099095 0.427839 -0.350502
v 1.304543 0.421264 -0.409854
v 1.240113 0.181137 -0.417033
v -1.240113 0.181137 -0.417033
v 0.961734 -0.016618 -0.290401
v -0.961734 -0.016618 -0.290401
v -0.805855 0.158206 -0.059028
v 0.765187 -0.019306 -0.222982
v -0.765187 -0.019306 -0.222982
v -1.130795 0.032316 -0.465969
v 1.144307 0.122647 -0.45138
v -1.144307 0.122647 -0.45138
v 1.188198 -0.033259 -0.533344
v 0.905577 0.138027 -0.487567
v 0.576974 0.096641 0.580861
v 0.616244 0.191788 0.572936
v -0.616244 0.191788 0.572935
v 0.405249 -0.015829 0.614594
v -0.405249 -0.01583 0.614593
v 0.299409 -0.016553 0.632876
v 0.199881 0.023017 0.648788
v -0.299409 -0.016555 0.632874
v -0.199879 0.023015 0.648787
v 0.126087 0.095578 0.658837
v 0.086633 0.191123 0.662668
v -0.126084 0.095578 0.658836
v -0.086631 0.191124 0.662666
v 0.086369 0.295148 0.663145
v 0.125948 0.394594 0.659383
v -0.086367 0.295148 0.663143
v 0.200078 0.468642 0.649384
v 0.299581 0.508056 0.633438
v 0.405247 0.507327 0.6151
v 0.616532 0.294453 0.573288
v -0.616533 0.294453 0.573288
v 0.337951 0.074104 0.753886
v 0.263763 0.097478 0.775581
v 0.451402 0.091807 0.725547
v 0.40054 0.072266 0.736964
v -0.451397 0.091808 0.725533
v 0.501867 0.125037 0.708272
v -0.501864 0.125039 0.708264
v -0.457385 0.386304 0.757784
v -0.526964 0.363476 0.714081
v 0.245379 0.369655 0.759053
v -0.245382 0.369652 0.759054
v -0.269207 0.388848 0.763544
v -0.294869 0.401039 0.760522
v 0.394476 0.394662 0.749589
v -0.394465 0.394616 0.749618
v 0.549795 0.296186 0.67132
v 0.538276 0.324304 0.67464
v -0.54979 0.296185 0.671322
v -0.538258 0.324279 0.674644
v 0.553764 0.263598 0.669291
v 0.231143 0.135697 0.754482
v 0.211201 0.159106 0.750358
v -0.231176 0.135749 0.754509
v -0.211203 0.159107 0.75035
v 0.222923 0.344524 0.756275
v 0.203099 0.313168 0.756293
v -0.222923 0.344524 0.756269
v -0.203107 0.313164 0.75629
v 0.193591 0.279606 0.75471
v 0.194059 0.244291 0.751059
v -0.1936 0.279603 0.754708
v -0.194061 0.244291 0.751058
v 0.199416 0.184921 0.748598
v 0.195966 0.212514 0.748933
v -0.199424 0.184925 0.748597
v -0.195966 0.212514 0.748931
f 10 33 2
f 1 32 9
f 10 11 33
f 16 9 32
f 33 11 17
f 24 16 32
f 25 33 17
f 32 1 24
f 2 33 25
f 139 260 157
f 261 181 158
f 151 210 149
f 221 202 200
f 228 154 152
f 153 227 151
f 145 227 153
f 179 146 184
f 145 178 183
f 186 190 226
f 190 224 226
f 191 274 225
f 191 189 187
f 191 187 274
f 146 224 184
f 154 224 146
f 154 226 224
f 228 226 154
f 223 145 183
f 223 275 145
f 275 185 145
f 185 227 145
f 191 275 223
f 191 185 275
f 225 185 191
f 224 194 184
f 193 223 183
f 192 194 224
f 193 191 223
f 262 191 193
f 224 190 192
f 263 189 191
f 186 188 190
f 188 265 190
f 264 187 189
f 187 185 274
f 185 225 274
f 228 186 226
f 228 198 186
f 228 152 198
f 197 151 227
f 197 227 185
f 221 200 214
f 199 222 189
f 199 201 222
f 273 214 188
f 188 214 265
f 221 214 273
f 264 272 187
f 189 222 272
f 189 272 264
f 267 273 186
f 273 188 271
f 219 273 267
f 219 221 273
f 187 272 185
f 222 185 272
f 222 218 185
f 216 267 198
f 219 267 216
f 266 213 197
f 185 213 266
f 185 218 217
f 185 217 213
f 216 198 209
f 204 216 207
f 204 207 206
f 205 215 203
f 219 204 212
f 204 219 216
f 195 215 218
f 195 203 215
f 221 219 196
f 219 212 196
f 218 220 195
f 221 196 202
f 195 220 201
f 218 222 201
f 220 218 201
f 217 218 215
f 216 209 207
f 205 217 215
f 205 213 217
f 271 186 273
f 188 186 271
f 214 190 265
f 200 190 214
f 208 197 213
f 205 208 213
f 206 268 179
f 268 144 179
f 150 268 206
f 178 210 211
f 178 149 210
f 196 212 184
f 179 184 212
f 183 178 195
f 204 179 212
f 211 203 195
f 178 211 195
f 179 204 206
f 205 211 210
f 203 211 205
f 209 270 207
f 270 206 207
f 270 150 206
f 269 208 205
f 210 269 205
f 210 151 269
f 270 152 150
f 270 198 152
f 209 198 270
f 151 197 269
f 197 208 269
f 268 150 144
f 143 149 178
f 196 184 202
f 184 194 202
f 193 183 195
f 193 195 201
f 200 194 192
f 200 202 194
f 262 199 191
f 193 199 262
f 193 201 199
f 200 192 190
f 267 186 198
f 185 266 197
f 199 189 263
f 191 199 263
f 156 164 182
f 154 156 182
f 182 152 154
f 165 155 153
f 151 165 153
f 156 146 148
f 156 154 146
f 145 153 147
f 153 155 147
f 46 57 181
f 261 46 181
f 158 46 261
f 180 45 260
f 260 45 157
f 56 45 180
f 150 182 257
f 182 135 257
f 182 181 135
f 181 57 135
f 256 180 149
f 58 56 180
f 58 180 256
f 182 150 152
f 180 151 149
f 164 158 181
f 182 164 181
f 260 151 180
f 163 151 260
f 139 163 260
f 259 177 179
f 177 146 179
f 176 178 145
f 177 259 175
f 173 177 175
f 259 144 175
f 259 179 144
f 143 168 174
f 143 176 168
f 178 176 143
f 175 245 171
f 175 257 245
f 175 144 257
f 143 174 134
f 245 64 171
f 257 61 245
f 60 143 134
f 70 40 136
f 136 170 70
f 170 133 70
f 40 169 136
f 39 169 40
f 39 69 169
f 69 132 258
f 69 258 169
f 171 64 133
f 175 170 173
f 171 133 170
f 171 170 175
f 169 134 172
f 169 258 134
f 258 132 134
f 173 170 167
f 169 172 168
f 147 166 176
f 177 148 146
f 148 177 167
f 145 147 176
f 177 173 167
f 166 168 176
f 172 174 168
f 134 174 172
f 148 41 42
f 148 167 41
f 41 166 147
f 41 147 42
f 167 137 41
f 137 168 41
f 168 166 41
f 137 170 136
f 167 170 137
f 136 169 137
f 169 168 137
f 156 148 43
f 148 42 43
f 43 42 155
f 42 147 155
f 150 257 144
f 135 61 257
f 256 149 143
f 60 256 143
f 60 58 256
f 49 139 157
f 164 156 139
f 156 44 139
f 158 164 139
f 44 163 139
f 156 138 44
f 151 163 44
f 138 151 44
f 165 151 138
f 156 43 138
f 155 165 138
f 43 155 138
f 46 48 117
f 158 48 46
f 47 157 45
f 158 50 48
f 158 160 50
f 157 47 49
f 241 49 47
f 54 161 162
f 161 160 162
f 159 53 141
f 158 162 160
f 159 141 49
f 160 52 50
f 49 51 159
f 161 52 160
f 161 54 52
f 51 53 159
f 140 55 54
f 239 140 53
f 239 55 140
f 141 54 162
f 141 140 54
f 140 141 53
f 158 142 162
f 142 141 162
f 141 142 49
f 139 142 158
f 142 139 49
f 135 57 59
f 245 63 64
f 62 244 134
f 244 60 134
f 64 66 133
f 246 134 132
f 65 246 132
f 246 62 134
f 133 68 70
f 66 68 133
f 67 132 69
f 67 65 132
f 40 70 34
f 34 69 39
f 40 34 39
f 76 112 332
f 111 75 329
f 328 112 74
f 73 111 326
f 324 74 72
f 71 73 322
f 319 125 76
f 72 88 308
f 71 124 87
f 305 86 84
f 77 79 300
f 75 249 298
f 249 77 297
f 122 121 120
f 121 118 120
f 122 123 121
f 119 118 121
f 118 89 120
f 36 89 118
f 36 118 119
f 120 89 122
f 90 119 121
f 90 36 119
f 122 89 123
f 91 90 121
f 123 91 121
f 123 89 91
f 96 103 117
f 45 242 95
f 242 93 95
f 96 48 105
f 96 117 48
f 45 95 104
f 45 104 47
f 105 98 96
f 114 98 105
f 113 104 95
f 113 95 97
f 96 94 103
f 103 92 108
f 94 92 103
f 115 93 92
f 96 98 253
f 98 37 253
f 37 38 253
f 38 37 116
f 253 38 92
f 94 253 92
f 94 96 253
f 116 93 115
f 38 116 115
f 95 116 97
f 252 116 95
f 93 116 252
f 97 116 37
f 38 115 92
f 93 252 95
f 113 251 36
f 251 89 36
f 114 251 113
f 113 98 114
f 113 37 98
f 97 37 113
f 107 251 105
f 251 114 105
f 89 251 107
f 241 113 36
f 241 36 106
f 104 113 241
f 54 240 107
f 240 89 107
f 36 90 106
f 90 53 106
f 90 91 239
f 90 239 53
f 240 91 89
f 55 91 240
f 91 55 239
f 109 112 108
f 76 108 112
f 109 75 111
f 250 109 108
f 250 75 109
f 109 74 112
f 111 35 109
f 73 35 111
f 35 74 109
f 35 72 74
f 71 35 73
f 108 76 103
f 93 250 92
f 249 250 93
f 250 108 92
f 75 250 249
f 243 103 76
f 249 45 77
f 249 242 45
f 249 93 242
f 59 80 82
f 99 81 79
f 81 62 83
f 247 65 85
f 85 65 110
f 101 100 88
f 101 88 248
f 65 67 102
f 87 110 65
f 88 72 248
f 87 65 102
f 71 87 102
f 35 34 72
f 34 35 71
f 70 101 248
f 248 34 70
f 72 34 248
f 69 34 102
f 34 71 102
f 101 70 68
f 67 69 102
f 101 68 100
f 68 66 100
f 86 66 84
f 66 64 84
f 100 66 86
f 246 83 62
f 246 247 83
f 246 65 247
f 84 64 63
f 84 245 82
f 245 61 82
f 84 63 245
f 60 244 81
f 244 62 81
f 82 135 59
f 61 135 82
f 58 81 99
f 58 60 81
f 78 59 57
f 80 59 78
f 56 58 77
f 58 79 77
f 58 99 79
f 243 117 103
f 243 46 117
f 57 243 78
f 57 46 243
f 45 56 77
f 107 48 50
f 105 48 107
f 241 106 49
f 47 104 241
f 107 50 52
f 51 106 53
f 49 106 51
f 54 107 52
f 240 54 55
f 31 2 25
f 24 29 26
f 30 31 25
f 26 295 238
f 26 29 295
f 25 23 237
f 21 24 294
f 23 25 19
f 25 17 19
f 16 24 18
f 24 21 18
f 23 19 236
f 18 293 235
f 18 21 293
f 18 235 292
f 291 19 15
f 234 19 291
f 14 18 289
f 19 17 11
f 19 11 15
f 14 16 18
f 9 16 14
f 15 11 13
f 9 14 12
f 233 13 287
f 288 13 233
f 15 13 288
f 12 232 285
f 12 286 232
f 12 14 286
f 284 13 8
f 7 12 281
f 12 231 281
f 12 282 231
f 13 10 8
f 13 11 10
f 9 12 7
f 8 10 4
f 4 10 2
f 1 9 3
f 9 7 3
f 280 4 230
f 8 4 280
f 229 4 278
f 278 4 31
f 278 31 30
f 29 3 276
f 3 5 276
f 4 2 31
f 29 1 3
f 24 1 29
