v 0.4375 0.164062 0.765625
v -0.4375 0.164062 0.765625
v 0.5 0.09375 0.6875
v 0.546875 0.054688 0.578125
v 0.351562 -0.023438 0.617188
v -0.351562 -0.023438 0.617188
v 0.351562 0.132812 0.78125
v -0.351562 0.132812 0.78125
v 0.203125 0.09375 0.742188
v -0.203125 0.09375 0.742188
v 0.078125 0.242188 0.65625
v -0.078125 0.242188 0.65625
v 0.242188 0.242188 0.796875
v 0.273438 0.328125 0.796875
v -0.273438 0.328125 0.796875
v -0.15625 0.4375 0.648438
v 0.351562 0.515625 0.617188
v -0.351562 0.515625 0.617188
v -0.351562 0.453125 0.71875
v -0.351562 0.359375 0.78125
v 0.4375 0.328125 0.765625
v -0.4375 0.328125 0.765625
v -0.546875 0.4375 0.578125
v 0.625 0.242188 0.5625
v -0.625 0.242188 0.5625
v 0.5625 0.242188 0.671875
v -0.5625 0.242188 0.671875
v 0.351562 0.375 0.804688
v 0.265625 0.335938 0.820312
v -0.265625 0.335938 0.820312
v 0.351562 0.242188 0.828125
v 0.351562 0.117188 0.804688
v -0.351562 0.117188 0.804688
v 0.0 0.429688 0.742188
v 0.0 0.351562 0.820312
v 0.0 -0.679688 0.734375
v 0.0 -0.320312 0.78125
v 0.0 -0.1875 0.796875
v 0.0 -0.773438 0.71875
v 0.0 0.40625 0.601562
v 0.0 0.570312 0.570312
v 0.0 0.898438 -0.546875
v 0.0 0.5625 -0.851562
v 0.0 0.070312 -0.828125
v 0.0 -0.382812 -0.351562
v 0.203125 -0.1875 0.5625
v -0.203125 -0.1875 0.5625
v 0.3125 -0.4375 0.570312
v -0.3125 -0.4375 0.570312
v 0.351562 -0.695312 0.570312
v -0.351562 -0.695312 0.570312
v -0.367188 -0.890625 0.53125
v -0.328125 -0.945312 0.523438
v 0.179688 -0.96875 0.554688
v -0.179688 -0.96875 0.554688
v 0.0 -0.984375 0.578125
v 0.4375 -0.140625 0.53125
v -0.4375 -0.140625 0.53125
v 0.632812 -0.039062 0.539062
v -0.632812 -0.039062 0.539062
v 0.828125 0.148438 0.445312
v -0.828125 0.148438 0.445312
v 0.859375 0.429688 0.59375
v -0.859375 0.429688 0.59375
v 0.710938 0.484375 0.625
v -0.710938 0.484375 0.625
v 0.492188 0.601562 0.6875
v -0.492188 0.601562 0.6875
v 0.320312 0.757812 0.734375
v -0.320312 0.757812 0.734375
v 0.15625 0.71875 0.757812
v -0.15625 0.71875 0.757812
v 0.164062 0.414062 0.773438
v -0.164062 0.414062 0.773438
v 0.125 0.304688 0.765625
v -0.125 0.304688 0.765625
v 0.203125 0.09375 0.742188
v -0.203125 0.09375 0.742188
v 0.375 0.015625 0.703125
v -0.375 0.015625 0.703125
v -0.492188 0.0625 0.671875
v 0.625 0.1875 0.648438
v -0.625 0.1875 0.648438
v 0.429688 0.4375 0.71875
v -0.429688 0.4375 0.71875
v 0.109375 -0.71875 0.734375
v -0.109375 -0.71875 0.734375
v 0.117188 -0.835938 0.710938
v -0.117188 -0.835938 0.710938
v 0.0625 -0.882812 0.695312
v -0.0625 -0.882812 0.695312
v 0.0 -0.195312 0.75
v 0.0 -0.140625 0.742188
v 0.101562 -0.148438 0.742188
v -0.101562 -0.148438 0.742188
v 0.125 -0.226562 0.75
v -0.125 -0.226562 0.75
v 0.085938 -0.289062 0.742188
v -0.085938 -0.289062 0.742188
v 0.742188 0.375 0.65625
v 0.6875 0.414062 0.726562
v -0.4375 0.546875 0.796875
v 0.3125 0.640625 0.835938
v -0.3125 0.640625 0.835938
v 0.125 -0.101562 0.8125
v 0.210938 -0.445312 0.710938
v -0.210938 -0.445312 0.710938
v 0.25 -0.703125 0.6875
v -0.25 -0.703125 0.6875
v 0.234375 -0.914062 0.632812
v 0.0 0.046875 0.726562
v 0.0 0.210938 0.765625
v 0.328125 0.476562 0.742188
v -0.328125 0.476562 0.742188
v -0.132812 0.210938 0.757812
v -0.117188 -0.6875 0.734375
v 0.132812 -0.226562 0.796875
v -0.046875 -0.148438 0.8125
v 0.109375 -0.226562 0.828125
v -0.109375 -0.226562 0.828125
v 0.257812 -0.3125 0.554688
v -0.257812 -0.3125 0.554688
v -0.09375 -0.820312 0.710938
v 0.09375 -0.742188 0.726562
v -0.09375 -0.742188 0.726562
v -0.09375 -0.8125 0.640625
v 0.046875 -0.851562 0.632812
v 0.335938 0.429688 0.757812
v 0.578125 0.195312 0.679688
v -0.226562 0.109375 0.78125
v 0.210938 0.375 0.78125
v -0.375 0.085938 0.726562
v 0.546875 0.210938 0.671875
v -0.546875 0.210938 0.671875
v 0.53125 0.335938 0.679688
v 0.28125 0.398438 0.765625
v 0.335938 0.40625 0.75
v -0.335938 0.40625 0.75
v 0.195312 0.664062 0.617188
v -0.195312 0.664062 0.617188
v 0.335938 0.6875 0.59375
v 0.484375 0.554688 0.554688
v 0.679688 0.453125 0.492188
v -0.679688 0.453125 0.492188
v 0.601562 0.0 0.414062
v -0.601562 0.0 0.414062
v 0.0 0.898438 0.289062
v 0.0 -0.195312 -0.671875
v 0.0 -0.460938 0.1875
v 0.0 -0.976562 0.460938
v 0.0 -0.804688 0.34375
v 0.0 -0.570312 0.320312
v 0.851562 0.234375 0.054688
v -0.851562 0.234375 0.054688
v 0.773438 0.265625 -0.4375
v -0.773438 0.265625 -0.4375
v 0.460938 0.4375 -0.703125
v -0.460938 0.4375 -0.703125
v 0.734375 -0.046875 0.070312
v -0.734375 -0.046875 0.070312
v 0.59375 -0.125 -0.164062
v -0.59375 -0.125 -0.164062
v 0.640625 -0.007812 -0.429688
v -0.640625 -0.007812 -0.429688
v -0.335938 0.054688 -0.664062
v 0.234375 -0.351562 0.40625
v -0.234375 -0.351562 0.40625
v -0.179688 -0.414062 0.257812
v 0.289062 -0.710938 0.382812
v -0.289062 -0.710938 0.382812
v 0.25 -0.5 0.390625
v -0.328125 -0.914062 0.398438
v 0.296875 -0.3125 -0.265625
v -0.296875 -0.3125 -0.265625
v 0.453125 0.867188 -0.382812
v -0.453125 0.867188 -0.382812
v -0.453125 0.851562 0.234375
v 0.726562 0.40625 0.335938
v -0.726562 0.40625 0.335938
v 0.640625 0.703125 0.054688
v -0.640625 0.703125 0.054688
v 0.796875 0.5625 0.125
v -0.796875 0.5625 0.125
v -0.796875 0.617188 -0.117188
v -0.640625 0.75 -0.195312
v 0.640625 0.679688 -0.445312
v 0.796875 0.539062 -0.359375
v -0.796875 0.539062 -0.359375
v 0.820312 0.328125 -0.203125
v -0.820312 0.328125 -0.203125
v 0.40625 -0.171875 0.148438
v -0.40625 -0.171875 0.148438
v 0.890625 0.40625 -0.234375
v -0.890625 0.40625 -0.234375
v 0.773438 -0.140625 -0.125
v -0.773438 -0.140625 -0.125
v 1.039062 -0.101562 -0.328125
v -1.039062 -0.101562 -0.328125
v 1.28125 0.054688 -0.429688
v -1.28125 0.054688 -0.429688
v 1.351562 0.320312 -0.421875
v -1.351562 0.320312 -0.421875
v 1.234375 0.507812 -0.421875
v -1.234375 0.507812 -0.421875
v 1.023438 0.476562 -0.3125
v -1.023438 0.476562 -0.3125
v -1.1875 0.4375 -0.390625
v -0.945312 0.304688 -0.289062
v 0.882812 -0.023438 -0.210938
v -0.882812 -0.023438 -0.210938
v -1.039062 0.0 -0.367188
v 1.171875 0.359375 -0.4375
v -1.171875 0.359375 -0.4375
v -1.023438 0.34375 -0.359375
v 0.835938 0.171875 -0.273438
v -0.835938 0.171875 -0.273438
v 0.757812 0.09375 -0.273438
v -0.757812 0.09375 -0.273438
v 0.820312 0.085938 -0.273438
v -0.820312 0.085938 -0.273438
v 0.726562 0.0 -0.070312
v -0.796875 0.203125 -0.210938
v 0.890625 0.242188 -0.265625
v -0.890625 0.242188 -0.265625
v 0.8125 -0.015625 -0.320312
v -0.8125 -0.015625 -0.320312
v 0.851562 0.015625 -0.320312
v -0.851562 0.015625 -0.320312
v 0.765625 0.09375 -0.320312
v -0.765625 0.09375 -0.320312
v 1.039062 0.328125 -0.414062
v 1.1875 0.34375 -0.484375
v -1.257812 0.242188 -0.492188
v 1.046875 0.0 -0.421875
v 0.882812 -0.015625 -0.265625
v 0.890625 0.109375 -0.328125
v -0.890625 0.109375 -0.328125
v 1.0 0.125 -0.367188
v -0.960938 0.171875 -0.351562
v 1.015625 0.234375 -0.375
v -1.054688 0.1875 -0.382812
v 1.023438 0.4375 -0.484375
v -1.25 0.46875 -0.546875
v -1.367188 0.296875 -0.5
v 1.039062 -0.085938 -0.492188
v -1.039062 -0.085938 -0.492188
v 0.539491 0.164915 0.687266
v 0.248456 -4.6e-05 0.643681
v -0.103199 0.346271 0.66425
v -0.398797 0.352153 0.775346
v -0.456216 0.490362 0.60787
v 0.402919 0.363532 0.797233
v 0.238654 0.292329 0.825628
v -0.238654 0.292329 0.825628
v 0.239309 0.196083 0.82515
v 0.402733 0.128661 0.797125
v -0.402733 0.128661 0.797125
v -0.300747 0.189734 0.83503
v -0.082217 -0.940404 0.639009
v -0.288268 -0.938907 0.583293
v -0.260221 -0.965289 0.541187
v -0.364748 -0.793245 0.551865
v -0.233462 -0.573875 0.703395
v 0.262493 -0.074897 0.751986
v -0.180262 -0.156075 0.718071
v -0.262493 -0.074897 0.751986
v -0.744527 0.044733 0.494027
v 0.562952 0.48024 0.762965
v 0.152281 0.523533 0.850232
v -0.152281 0.523533 0.850232
v 0.050566 0.390802 0.830777
v -0.050566 0.390802 0.830777
v 0.378951 0.457027 0.730811
v -0.434691 0.037647 0.690373
v -0.290068 0.05016 0.73409
v 0.08438 0.095166 0.728633
v 0.0 0.281601 0.796728
v 0.0 -0.380852 0.738591
v 0.132573 -0.175754 0.792565
v -0.132573 -0.175754 0.792565
v -0.075522 -0.12007 0.783976
v 0.0 -0.191412 0.773188
v 0.0 -0.167194 0.74601
v 0.038934 -0.270663 0.806753
v -0.123877 -0.227529 0.815693
v 0.046714 -0.859213 0.658153
v 0.073819 -0.833309 0.633337
v -0.581855 0.242186 0.682805
v 0.547413 0.343025 0.690705
v 0.544039 0.310666 0.672219
v 0.281596 -0.39175 0.490899
v 0.25917 -0.359892 -0.053129
v -0.25917 -0.359892 -0.053129
v 0.66554 -0.016885 0.245454
v 0.81505 0.079638 0.064475
v 0.800992 0.202993 0.218558
v -0.800992 0.202993 0.218558
v 0.796989 0.406587 -0.40472
v -0.796989 0.406587 -0.40472
v -0.827571 0.305369 -0.330383
v 0.415655 -0.064711 -0.54492
v -1.099095 0.427839 -0.350502
v 1.240113 0.181137 -0.417033
v -1.240113 0.181137 -0.417033
v 1.121064 0.014438 -0.370265
v -0.961734 -0.016618 -0.290401
v 1.098187 0.364806 -0.407702
v 0.67056 -0.080295 -0.157768
v 0.765187 -0.019306 -0.222982
v 0.716987 0.008081 -0.180437
v -0.760936 0.093214 -0.298885
v 0.794795 0.086458 -0.321966
v 0.814072 -0.01676 -0.297037
v 0.833371 -0.003158 -0.320003
v -0.814072 -0.01676 -0.297037
v -0.833371 -0.003158 -0.320003
v 1.009232 0.161588 -0.556976
v -1.009232 0.161588 -0.556976
v -0.233683 -0.951431 0.592699
v 0.533275 -0.060452 0.600566
v 0.766685 0.432414 0.665024
v 0.086982 -0.98436 0.502596
v -0.177027 -0.077978 -0.709991
v -0.210385 0.282179 -0.824526
v 0.245818 0.736324 -0.687189
v 0.707472 0.423905 0.389482
v 0.235183 0.740846 0.405256
v 0.295444 -0.184309 0.374871
v 0.727351 -0.087363 -0.136028
v 0.616244 0.191788 0.572936
v -0.576975 0.096641 0.580861
v 0.405249 -0.015829 0.614594
v -0.50424 0.024341 0.594915
v -0.405249 -0.01583 0.614593
v 0.299409 -0.016553 0.632876
v 0.199881 0.023017 0.648788
v -0.299409 -0.016555 0.632874
v -0.199879 0.023015 0.648787
v 0.126087 0.095578 0.658837
v 0.086633 0.191123 0.662668
v -0.126084 0.095578 0.658836
v -0.086631 0.191124 0.662666
v 0.086369 0.295148 0.663145
v 0.125948 0.394594 0.659383
v -0.086367 0.295148 0.663143
v -0.125947 0.394595 0.659382
v 0.200078 0.468642 0.649384
v 0.299581 0.508056 0.633438
v -0.200076 0.468644 0.649383
v 0.405247 0.507327 0.6151
v 0.504196 0.467303 0.595398
v 0.577151 0.39347 0.581244
v 0.616532 0.294453 0.573288
v -0.577152 0.393471 0.581244
v -0.616533 0.294453 0.573288
v 0.377952 0.371806 0.802114
v 0.284747 0.351506 0.820133
v -0.284745 0.351508 0.820129
v 0.230223 0.267667 0.824409
v -0.230219 0.267667 0.824407
v -0.377841 0.120378 0.802027
v 0.587344 -0.069931 0.537622
v 0.699584 0.16558 0.608042
v 0.500086 0.51363 0.77942
v -0.626094 0.446413 0.747407
v -0.650304 0.191398 0.636386
v -0.077846 -0.404548 0.744974
v 0.136532 -0.201303 0.795241
v 7e-06 -0.182341 0.747663
v 0.337951 0.074104 0.753886
v 0.263763 0.097478 0.775581
v 0.451402 0.091807 0.725547
v 0.40054 0.072266 0.736964
v -0.451397 0.091808 0.725533
v 0.501867 0.125037 0.708272
v -0.501864 0.125039 0.708264
v -0.583895 0.265624 0.685171
v 0.457409 0.386357 0.757776
v -0.457385 0.386304 0.757784
v -0.526964 0.363476 0.714081
v 0.245379 0.369655 0.759053
v -0.245382 0.369652 0.759054
v -0.269207 0.388848 0.763544
v -0.294869 0.401039 0.760522
v 0.394476 0.394662 0.749589
v -0.394465 0.394616 0.749618
v 0.549795 0.296186 0.67132
v -0.54979 0.296185 0.671322
v -0.538258 0.324279 0.674644
v 0.553764 0.263598 0.669291
v -0.55376 0.263598 0.669291
v 0.274133 0.112588 0.747159
v 0.231143 0.135697 0.754482
v 0.211201 0.159106 0.750358
v -0.231176 0.135749 0.754509
v -0.211203 0.159107 0.75035
v 0.222923 0.344524 0.756275
v 0.203099 0.313168 0.756293
v -0.222923 0.344524 0.756269
v -0.203107 0.313164 0.75629
v 0.193591 0.279606 0.75471
v 0.194059 0.244291 0.751059
v -0.1936 0.279603 0.754708
v -0.194061 0.244291 0.751058
v 0.199416 0.184921 0.748598
v 0.195966 0.212514 0.748933
v -0.199424 0.184925 0.748597
v -0.195966 0.212514 0.748931
v 0.13566 -0.505718 0.342338
v 0.0 -0.257623 -0.60225
v -0.838841 0.155002 0.060169
v -0.48937 -0.139953 0.127455
v -1.142061 0.434171 -0.375061
v -1.078811 0.490028 -0.335524
v 1.000547 -0.010207 -0.32916
v -1.000534 -0.010262 -0.329199
v 1.081266 0.013629 -0.388402
v 0.862021 0.307339 -0.213659
v -0.76869 0.110916 -0.27792
v 0.823053 -0.011252 -0.320451
v -0.82306 -0.011268 -0.320433
v 0.828803 -0.018744 -0.30943
v -0.828841 -0.018704 -0.309344
v 1.148342 0.342122 -0.47545
v 1.286399 0.373028 -0.579707
v -0.453091 0.217797 0.798219
v -0.26561 0.297336 0.835208
v -0.309394 -0.632649 0.640952
v -0.043991 -0.902775 0.683322
v 0.003917 -0.180212 0.767905
v 0.074739 -0.816795 0.632529
v -0.403685 0.048903 0.721771
v 0.243276 0.831538 -0.592045
v 0.460873 0.172845 0.745061
v 0.279932 -0.955864 0.561794
v 0.110333 -0.235691 0.819353
v -0.110374 -0.235463 0.819569
v -0.792036 0.354465 0.392223
v -0.666839 -0.108244 -0.149861
v 1.060504 0.206022 -0.381051
v -1.060509 0.206038 -0.381017
v 1.220623 0.364536 -0.595937
f 22 2 426
f 426 2 33
f 22 426 33
f 1 32 256
f 22 33 20
f 33 2 361
f 257 361 2
f 1 31 32
f 32 31 7
f 33 8 258
f 33 258 20
f 31 13 255
f 255 7 31
f 258 8 20
f 29 13 31
f 13 29 253
f 253 359 13
f 254 8 360
f 8 254 427
f 427 20 8
f 254 20 427
f 29 31 17
f 17 357 29
f 31 28 17
f 20 254 358
f 358 254 30
f 28 21 356
f 252 356 21
f 21 28 31
f 22 20 250
f 31 1 21
f 26 21 1
f 431 88 124
f 88 431 287
f 287 431 124
f 192 293 168
f 148 301 173
f 217 221 310
f 307 231 232
f 425 203 201
f 244 243 304
f 196 164 162
f 308 163 195
f 161 163 308
f 194 300 156
f 190 188 194
f 188 300 194
f 155 189 193
f 318 243 207
f 200 304 318
f 200 318 246
f 304 243 318
f 317 201 245
f 242 442 201
f 242 201 317
f 442 425 201
f 203 442 242
f 203 425 442
f 156 207 194
f 164 207 156
f 164 318 207
f 164 246 318
f 242 317 155
f 317 245 155
f 245 163 155
f 245 195 163
f 207 206 194
f 205 242 155
f 193 205 155
f 207 414 206
f 243 204 207
f 205 203 242
f 202 204 243
f 202 243 244
f 304 202 244
f 303 199 201
f 246 211 200
f 246 198 211
f 199 245 201
f 199 305 245
f 305 197 245
f 164 196 198
f 164 198 246
f 197 195 245
f 241 213 233
f 232 305 201
f 232 238 305
f 424 307 232
f 241 233 200
f 303 305 199
f 201 305 303
f 241 200 211
f 305 238 234
f 235 234 236
f 234 238 236
f 316 423 421
f 423 226 421
f 210 316 228
f 210 423 316
f 314 235 227
f 225 422 420
f 422 314 420
f 422 235 314
f 235 236 227
f 216 220 230
f 216 237 220
f 312 219 229
f 219 236 215
f 219 215 229
f 237 224 239
f 216 224 237
f 223 215 238
f 215 236 238
f 214 224 208
f 239 224 214
f 223 240 193
f 223 238 240
f 231 193 232
f 193 240 232
f 441 214 213
f 441 241 214
f 241 441 213
f 240 440 232
f 440 238 232
f 238 440 240
f 241 211 239
f 241 239 214
f 211 237 239
f 228 220 237
f 219 227 236
f 228 306 210
f 237 306 228
f 211 416 237
f 416 306 237
f 209 197 235
f 235 415 234
f 415 197 234
f 197 417 234
f 417 305 234
f 304 200 233
f 233 202 304
f 213 202 233
f 212 424 232
f 212 307 424
f 307 193 231
f 423 315 226
f 210 315 423
f 210 220 315
f 313 422 225
f 313 235 422
f 219 235 313
f 316 315 228
f 315 220 228
f 421 315 316
f 226 315 421
f 227 313 314
f 314 313 420
f 313 225 420
f 219 313 227
f 220 311 230
f 220 218 311
f 217 312 229
f 217 219 312
f 230 311 216
f 311 419 216
f 311 218 419
f 215 217 229
f 222 154 190
f 160 154 222
f 215 221 217
f 153 221 215
f 153 215 189
f 208 224 194
f 224 190 194
f 193 418 223
f 418 189 223
f 222 190 224
f 216 222 224
f 189 215 223
f 218 216 419
f 160 216 218
f 160 222 216
f 210 218 220
f 210 160 218
f 219 217 309
f 310 221 309
f 217 310 309
f 210 196 160
f 221 219 309
f 195 219 221
f 195 235 219
f 209 235 195
f 189 418 193
f 160 411 154
f 153 159 221
f 295 159 153
f 439 162 160
f 196 439 160
f 196 162 439
f 329 221 308
f 329 195 221
f 308 195 329
f 208 206 214
f 194 206 208
f 213 413 207
f 213 302 413
f 213 214 302
f 214 206 302
f 205 307 203
f 307 212 203
f 205 193 307
f 213 207 202
f 212 232 201
f 305 417 197
f 306 211 198
f 416 211 306
f 197 209 195
f 197 415 235
f 196 210 198
f 210 306 198
f 207 204 202
f 203 212 201
f 302 414 207
f 413 302 207
f 302 206 414
f 164 165 174
f 163 301 148
f 173 301 163
f 174 162 164
f 161 173 163
f 158 164 156
f 165 164 158
f 155 163 157
f 163 148 157
f 47 58 192
f 167 47 192
f 328 166 191
f 57 328 191
f 57 166 328
f 192 146 412
f 192 60 146
f 192 58 60
f 294 191 159
f 145 57 294
f 145 294 61
f 57 191 294
f 174 160 162
f 174 146 160
f 174 412 146
f 174 192 412
f 308 173 161
f 221 191 308
f 191 173 308
f 159 191 221
f 174 293 192
f 166 292 191
f 292 173 191
f 188 156 300
f 188 299 156
f 155 187 189
f 298 187 155
f 183 190 154
f 184 188 183
f 188 190 183
f 182 187 180
f 153 187 182
f 153 189 187
f 183 297 179
f 183 154 297
f 296 182 178
f 153 182 296
f 297 438 179
f 438 144 179
f 297 144 438
f 62 144 297
f 143 296 178
f 61 296 143
f 177 140 40
f 68 140 177
f 40 139 41
f 139 141 142
f 177 41 147
f 40 41 177
f 41 327 147
f 327 142 147
f 142 327 41
f 139 142 41
f 144 68 179
f 183 177 181
f 179 68 177
f 179 177 183
f 185 177 176
f 181 177 185
f 175 142 180
f 186 175 180
f 176 299 188
f 176 156 299
f 158 156 176
f 298 186 187
f 155 186 298
f 155 157 186
f 188 184 185
f 188 185 176
f 180 187 186
f 185 183 181
f 184 183 185
f 142 182 180
f 142 178 182
f 142 326 178
f 326 143 178
f 142 143 326
f 43 158 42
f 176 42 158
f 325 157 43
f 325 186 157
f 43 433 325
f 42 433 43
f 42 325 433
f 42 175 186
f 42 186 325
f 42 176 147
f 147 175 42
f 176 177 147
f 142 175 147
f 324 43 44
f 165 324 44
f 165 158 43
f 165 43 324
f 44 157 148
f 43 157 44
f 411 160 297
f 411 297 154
f 160 146 297
f 146 62 297
f 296 295 153
f 296 294 159
f 296 159 295
f 61 294 296
f 168 167 192
f 293 174 149
f 174 45 149
f 168 293 149
f 45 292 149
f 149 292 166
f 45 173 292
f 165 148 410
f 165 410 45
f 174 165 45
f 410 148 45
f 148 173 45
f 165 323 148
f 323 44 148
f 44 323 165
f 46 166 57
f 46 121 166
f 47 49 122
f 167 49 47
f 291 166 121
f 48 291 121
f 168 49 167
f 291 48 166
f 48 171 166
f 48 50 171
f 166 171 409
f 150 170 151
f 150 52 170
f 172 52 150
f 169 54 151
f 152 151 168
f 169 151 171
f 151 170 49
f 151 49 168
f 170 51 49
f 170 262 51
f 52 262 170
f 50 169 171
f 172 53 52
f 260 53 172
f 172 261 260
f 172 55 261
f 150 55 172
f 50 54 169
f 150 56 55
f 322 150 54
f 56 322 54
f 56 150 322
f 150 151 54
f 152 171 151
f 168 149 152
f 171 152 409
f 152 166 409
f 149 166 152
f 59 57 145
f 59 362 57
f 146 267 62
f 146 60 267
f 63 61 143
f 144 64 66
f 65 63 143
f 144 66 68
f 67 65 142
f 65 143 142
f 68 70 140
f 69 142 141
f 69 67 142
f 70 72 140
f 71 69 139
f 69 141 139
f 40 72 34
f 140 72 40
f 40 71 139
f 34 71 40
f 78 115 408
f 75 77 405
f 404 115 76
f 400 76 74
f 131 75 398
f 395 130 78
f 371 392 77
f 371 79 392
f 391 377 288
f 83 377 391
f 82 290 387
f 82 289 135
f 289 268 135
f 82 268 289
f 84 273 128
f 273 113 128
f 380 85 83
f 377 83 288
f 59 82 129
f 81 432 80
f 432 274 80
f 81 274 432
f 79 59 373
f 77 79 371
f 73 75 131
f 126 39 125
f 124 126 287
f 126 127 287
f 39 126 124
f 125 123 126
f 123 91 90
f 123 90 126
f 259 91 123
f 286 287 127
f 90 287 286
f 90 88 287
f 286 127 126
f 90 286 126
f 123 89 259
f 97 265 122
f 97 95 265
f 121 264 96
f 46 264 121
f 264 105 96
f 97 49 107
f 97 122 49
f 121 96 106
f 121 106 48
f 107 99 97
f 107 278 99
f 116 367 107
f 367 278 107
f 98 106 96
f 94 96 105
f 93 94 105
f 99 37 120
f 37 38 120
f 37 119 38
f 119 37 284
f 120 38 118
f 119 94 93
f 38 119 93
f 99 285 97
f 437 285 99
f 437 120 285
f 120 437 99
f 117 436 98
f 436 119 98
f 119 436 117
f 285 120 97
f 120 280 97
f 120 118 280
f 118 95 280
f 368 279 117
f 279 119 117
f 94 119 279
f 118 281 95
f 118 93 281
f 93 118 283
f 118 38 283
f 98 284 37
f 98 119 284
f 282 369 283
f 282 92 369
f 38 282 283
f 369 430 283
f 92 282 430
f 92 430 369
f 430 93 283
f 430 38 93
f 282 38 430
f 281 93 95
f 280 95 97
f 96 368 117
f 279 368 96
f 94 279 96
f 96 117 98
f 116 39 36
f 116 125 39
f 116 87 125
f 39 124 36
f 86 36 124
f 106 116 36
f 116 278 367
f 37 99 278
f 278 116 106
f 98 278 106
f 37 278 98
f 109 87 116
f 86 108 36
f 116 263 109
f 263 116 107
f 108 106 36
f 125 87 109
f 123 125 109
f 89 123 109
f 86 124 108
f 124 88 108
f 88 110 108
f 109 259 89
f 88 90 110
f 429 90 91
f 259 429 91
f 259 90 429
f 56 90 259
f 90 56 110
f 76 111 112
f 76 115 111
f 115 78 111
f 112 77 75
f 276 112 111
f 276 77 112
f 112 277 76
f 277 35 76
f 75 35 112
f 35 277 112
f 35 272 76
f 272 74 76
f 271 35 75
f 73 271 75
f 111 95 93
f 111 78 95
f 105 276 93
f 264 276 105
f 276 111 93
f 77 276 264
f 80 266 275
f 266 95 78
f 266 78 275
f 58 266 80
f 77 264 79
f 58 80 274
f 58 274 81
f 366 60 83
f 60 81 83
f 66 60 366
f 59 363 82
f 66 366 83
f 100 101 82
f 365 83 85
f 268 364 84
f 364 67 84
f 102 85 114
f 84 113 273
f 84 67 113
f 67 103 113
f 102 270 72
f 104 102 72
f 102 114 74
f 102 74 270
f 73 113 103
f 73 103 269
f 35 34 74
f 272 35 74
f 35 271 73
f 34 35 73
f 270 34 72
f 74 34 270
f 34 269 103
f 71 34 103
f 34 73 269
f 70 104 72
f 69 71 103
f 70 68 102
f 104 70 102
f 69 103 67
f 365 68 83
f 85 68 365
f 68 66 83
f 102 68 85
f 268 67 364
f 65 82 101
f 65 268 82
f 65 67 268
f 321 101 100
f 65 321 100
f 65 101 321
f 64 62 66
f 64 144 62
f 61 100 82
f 61 65 100
f 61 63 65
f 66 62 60
f 62 267 60
f 59 145 363
f 145 82 363
f 145 61 82
f 81 60 58
f 57 320 79
f 320 59 79
f 57 362 320
f 362 59 320
f 266 265 95
f 266 122 265
f 266 47 122
f 58 47 266
f 264 57 79
f 46 57 264
f 51 428 49
f 428 263 49
f 51 263 428
f 109 263 51
f 107 49 263
f 48 108 50
f 48 106 108
f 52 51 262
f 109 51 52
f 260 52 53
f 109 52 260
f 50 108 110
f 260 261 55
f 319 260 55
f 109 319 55
f 109 260 319
f 50 435 54
f 435 110 54
f 50 110 435
f 259 55 56
f 109 55 259
f 54 110 56
f 361 8 33
f 257 8 361
f 257 2 8
f 7 256 32
f 7 1 256
f 7 255 13
f 254 15 30
f 254 10 15
f 360 10 254
f 8 10 360
f 14 253 29
f 253 14 359
f 14 13 359
f 358 15 20
f 30 15 358
f 17 14 357
f 14 29 357
f 17 356 252
f 17 28 356
f 21 17 252
f 354 22 23
f 25 22 354
f 27 22 25
f 21 24 353
f 26 24 21
f 22 19 251
f 17 21 350
f 19 250 20
f 22 250 19
f 19 20 15
f 349 15 16
f 14 17 348
f 345 15 12
f 249 15 345
f 346 15 249
f 16 15 346
f 11 14 344
f 15 10 12
f 13 14 11
f 7 11 9
f 13 11 7
f 12 10 342
f 9 11 340
f 338 10 6
f 5 1 335
f 1 248 335
f 1 336 248
f 1 9 336
f 10 8 6
f 7 9 1
f 6 8 2
f 1 5 3
f 333 6 2
f 26 247 24
f 247 3 24
f 2 22 27
f 26 3 247
f 26 434 3
f 26 1 434
f 1 3 434
