v 0.0026 0.384173 -0.139009
v -0.335135 0.007513 -0.25555
v -0.4603 0.053968 -0.102891
v 0.198802 -0.140373 -0.25555
v 0.04084 -0.098469 -0.085169
v 0.096835 0.228703 0.034398
v -0.224971 0.213969 -0.241523
v -0.103699 0.352625 -0.25555
v -0.313869 0.131124 -0.044779
v -0.032394 -0.165021 -0.105267
v 0.229845 -0.102934 -0.25555
v 0.07542 0.33684 -0.240042
v 0.059551 0.052213 0.181679
v 0.103026 0.118042 -0.25555
v 0.207376 -0.434921 -0.25555
v 0.122578 -0.298291 -0.25555
v 0.155049 0.123567 0.164201
v -0.207 0.316909 -0.119043
v -0.042873 0.488383 0.098989
v -0.387349 0.00279 0.241719
v -0.113838 0.019026 0.253114
v 0.075722 -0.08246 -0.25555
v -0.4603 -0.021976 0.065229
v 0.1473 0.15919 0.228388
v -0.243528 0.019026 0.253114
v -0.192223 0.025903 -0.25555
v -0.360199 -0.024454 0.04223
v 0.140398 -0.102766 -0.09887
v 0.299978 0.160921 -0.10739
v -0.087829 0.107817 -0.25555
v 0.216219 -0.279807 -0.12554
v -0.081781 0.463531 -0.200934
v -0.000336 0.235334 -0.25555
v -0.411694 0.118955 0.038057
v 0.243178 0.020975 0.004592
v 0.196962 -0.05461 -0.25555
v 0.331774 0.011207 -0.050726
v 0.105154 -0.234718 -0.117544
v 0.060393 0.289358 0.13991
v -0.080949 -0.031399 -0.000718
v -0.4603 0.070172 0.135366
v 0.0026 0.428775 0.060719
v 0.07957 0.221727 -0.25555
v 0.018406 0.103968 -0.25555
v 0.147477 0.306479 -0.05912
v 0.280403 -0.363157 -0.140231
v -0.383104 -0.008309 0.171924
v -0.020387 0.455841 -0.192721
v 0.072575 0.343905 -0.070996
v 0.133261 0.103313 0.238246
v -0.352471 -0.05188 -0.25555
v 0.075251 0.027516 0.12114
v -0.25011 0.164087 0.227519
v -0.053558 0.371636 0.190943
v 0.175605 -0.265765 -0.123084
v 0.110597 -0.293052 -0.127851
v -0.035683 0.481185 0.057302
v 0.12453 -0.141967 -0.25555
v -0.18883 0.461892 -0.032732
v 0.4603 -0.489104 -0.172471
v 0.275948 -0.025335 -0.25555
v 0.227009 0.319549 -0.187477
v -0.207991 0.108214 0.237396
v -0.176221 -0.020823 0.075273
v 0.15189 0.066997 -0.25555
v 0.446261 -0.345992 -0.25555
v -0.4603 0.109712 -0.068943
v -0.053558 0.19602 0.221905
v 0.01082 -0.037155 -0.25555
v -0.048392 0.001411 -0.25555
v 0.200755 0.015952 -0.25555
v 0.303197 -0.058459 -0.25555
v -0.4603 0.047123 -0.24172
v -0.053558 0.148125 0.230348
v 0.231685 -0.188697 -0.25555
v 0.193883 0.324872 -0.129018
v -0.4603 0.074707 0.195706
v -0.095676 0.076282 0.243013
v 0.228115 0.224915 -0.25555
v -0.316548 0.032891 0.250667
v -0.016689 0.458602 -0.08384
v 0.001393 -0.092516 -0.25555
v 0.088997 0.277088 -0.25555
v 0.37931 -0.142627 -0.25555
v -0.205596 -0.111729 -0.156441
v -0.336435 0.156167 0.22893
v 0.4603 0.17606 -0.25555
v -0.412708 -0.037861 -0.100216
v 0.064286 -0.302607 -0.25555
v 0.446263 -0.407004 -0.166476
v 0.167681 0.044123 0.135943
v 0.35839 0.002365 -0.101151
v -0.048646 -0.263731 -0.194678
v -0.207 0.358006 0.052007
v 0.120529 -0.406378 -0.190271
v -0.236766 0.22413 0.159921
v 0.359788 -0.358149 -0.164644
v -0.041284 -0.058504 -0.052093
v -0.099722 -0.162729 -0.25555
v 0.232968 -0.458579 -0.157019
v 0.36339 -0.491609 -0.162909
v -0.371548 0.111901 -0.066514
v 0.044117 0.352885 -0.016164
v -0.077371 0.46292 -0.25555
v 0.227887 -0.096574 -0.161533
v 0.225295 0.182421 0.014448
v -0.079546 0.5 0.1683
v 0.245348 -0.057458 -0.099634
v -0.432551 0.084343 0.241597
v 0.080298 -0.052532 -0.04427
v 0.046981 -0.280209 -0.125633
v -0.143013 -0.003667 0.202589
v 0.108871 -0.383744 -0.25555
v 0.046464 -0.214123 -0.25555
v 0.286709 -0.153164 -0.179029
v -0.256931 0.183526 0.054959
v 0.39118 -0.064241 -0.138293
v 0.236288 -0.403103 -0.25555
v 0.243974 -0.304181 -0.25555
v 0.054987 0.019712 0.231101
v 0.39253 -0.016704 -0.25555
v 0.388626 -0.329353 -0.25555
v 0.070857 0.198903 0.107629
v -0.387362 0.104062 -0.241511
v -0.414382 -0.018816 0.092744
v 0.176477 0.175177 -0.026705
v 0.0026 0.420572 -0.07759
v 0.227798 0.103114 0.025484
v 0.109048 0.188289 0.047636
v 0.034555 0.343432 -0.227704
v 0.305798 -0.110797 -0.193382
v -0.316563 -0.061309 -0.206348
v 0.4603 0.099128 -0.228031
v -0.418645 -0.032198 -0.022875
v 0.369352 -0.204825 -0.193634
v 0.171399 -0.126663 -0.119897
v -0.034041 -0.280899 -0.25555
v 0.342425 0.162685 -0.097496
v 0.447345 -0.041605 -0.148109
v 0.4603 -0.402732 -0.25555
v -0.278188 0.084265 0.241609
v 0.219032 0.246107 -0.11738
v 0.248587 -0.234299 -0.25555
v -0.100146 -0.107615 -0.089979
v -0.328279 -0.013131 0.137633
v 0.336146 -0.031339 -0.130368
v 0.444093 0.308587 -0.209001
v -0.123755 0.172072 0.226124
v 0.402766 -0.246312 -0.25555
v -0.109715 0.339705 0.196566
v -0.207 0.36193 0.009296
v -0.376464 0.060316 0.245828
v 0.330864 0.084814 -0.047805
v -0.207 0.422224 0.168024
v 0.0026 0.426678 0.125411
v -0.4603 0.042671 0.234677
v 0.423481 0.00447 -0.088996
v 0.355743 -0.281029 -0.25555
v -0.292252 -0.036663 -0.01582
v 0.393863 0.057622 -0.064213
v -0.4603 0.133579 0.153671
v 0.41726 0.111053 -0.077946
v -0.275082 0.148948 -0.193145
v 0.395731 0.148832 -0.17586
v 0.121769 -0.013323 -0.25555
v -0.279784 0.18168 0.195923
v 0.112758 0.05262 0.183883
v -0.4603 0.003005 0.151726
v -0.025479 0.365011 -0.25555
v 0.000144 0.358666 0.193217
v -0.157145 0.488908 0.099632
v -0.207 0.392992 0.135212
v 0.316906 -0.318646 -0.160385
v -0.194565 -0.116883 -0.107541
v 0.186782 -0.440511 -0.181779
v 0.073688 -0.030733 0.001118
v -0.133412 0.473737 -0.026051
v 0.306936 -0.207942 -0.176484
v 0.303085 -0.300545 -0.25555
v -0.340109 0.145243 0.170705
v -0.361396 -0.048591 -0.166145
v -0.432444 0.137971 0.182735
v 0.246461 0.197912 -0.127864
v -0.209586 0.279415 0.029869
v 0.446261 -0.173978 -0.25555
v 0.155577 -0.041956 -0.25555
v 0.446522 0.252246 -0.19915
v 0.389623 0.152484 -0.07999
v 0.417498 -0.053339 -0.25555
v -0.427877 0.1035 -0.25555
v -0.207 0.349329 -0.036297
v -0.113237 0.055177 -0.25555
v 0.218367 0.277003 -0.25555
v -0.432239 -0.038222 -0.142065
v 0.4603 -0.287309 -0.187835
v 0.446619 -0.101068 -0.25555
v -0.270878 -0.008942 0.167507
v 0.238818 0.004323 -0.089703
v 0.153736 0.184278 0.024668
v 0.033617 -0.345412 -0.208602
v 0.377068 -0.287663 -0.18046
v 0.0026 0.403327 -0.004719
v -0.099208 -0.103868 -0.25555
v 0.003223 -0.03216 -0.003986
v 0.205846 -0.061325 -0.121923
v -0.4603 0.009173 -0.227797
v 0.338423 -0.072096 -0.183032
v 0.078398 -0.019973 0.082932
v 0.001504 0.149571 -0.25555
v -0.008034 -0.147877 -0.25555
v -0.339654 0.112713 -0.241512
v 0.355045 0.246026 -0.25555
v -0.165873 0.371636 0.190943
v 0.398579 0.157535 -0.126749
v -0.000228 -0.076937 -0.07048
v 0.230815 0.140163 0.015689
v -0.446261 0.122291 0.068264
v -0.009745 0.273606 0.208225
v -0.109715 0.419531 0.182495
v 0.282407 0.240562 -0.155553
v -0.30353 0.143769 0.034453
v 0.280437 -0.068261 -0.161297
v -0.207 0.338469 0.148662
v -0.324333 -0.056993 -0.135742
v -0.137725 -0.040343 -0.25555
v -0.126146 0.434851 -0.25555
v 0.063366 -0.259725 -0.25555
v -0.142216 0.463102 -0.227479
v -0.207 0.365364 -0.227471
v 0.446261 0.154761 -0.142375
v -0.145423 -0.157585 -0.18535
v -0.340054 -0.00491 0.194291
v -0.4603 0.057781 0.009359
v 0.355965 0.203145 -0.25555
v 0.444091 -0.499741 -0.25555
v 0.395555 -0.496783 -0.25555
v 0.029469 0.375022 0.140869
v 0.191216 -0.281496 -0.25555
v 0.199184 -0.390349 -0.144991
v -0.427904 -0.040713 -0.25555
v -0.390378 0.10494 -0.177989
v -0.041837 -0.056671 -0.25555
v 0.187927 -0.047081 -0.040791
v 0.318258 -0.018299 -0.25555
v -0.054671 -0.232834 -0.117248
v 0.331162 0.256019 -0.178663
v 0.01034 -0.008197 0.172472
v 0.169824 0.2206 -0.25555
v 0.084456 0.272759 0.054713
v -0.035296 -0.019669 0.085817
v -0.4603 0.098739 -0.027368
v -0.296364 0.155449 0.097824
v -0.198291 0.478537 0.172093
v 0.315274 -0.373828 -0.25555
v 0.422429 -0.420558 -0.25555
v 0.288391 0.159089 -0.037073
v 0.302388 0.22651 -0.25555
v -0.213664 0.245862 -0.183515
v 0.062406 0.077228 0.242852
v 0.432247 0.196081 -0.188435
v 0.094995 0.215973 0.204496
v -0.292265 -0.06462 -0.073239
v 0.4603 0.081758 -0.129559
v -0.009267 -0.306342 -0.201608
v 0.183027 0.150352 0.082614
v -0.207 0.403875 -0.180402
v 0.03517 -0.019012 0.091078
v 0.423579 -0.353788 -0.174717
v -0.206666 0.421716 -0.101284
v 0.273186 0.103308 -0.25555
v -0.109715 0.29181 0.205012
v 0.25025 0.168627 -0.063788
v -0.232979 -0.022382 0.061398
v 0.030283 0.345293 -0.174386
v 0.178856 0.034559 0.081502
v -0.200387 0.28114 0.206898
v -0.275329 -0.076487 -0.201522
v -0.4603 0.02347 -0.045665
v -0.23074 0.089428 -0.25555
v 0.238741 -0.195992 -0.149822
v 0.267322 0.175635 -0.25555
v -0.208987 0.276585 -0.043383
v -0.201908 0.437769 -0.15487
v 0.4225 -0.256671 -0.191749
v -0.121398 -0.024563 0.040843
v 0.149891 0.231746 -0.048842
v 0.025009 0.28795 -0.25555
v 0.173813 0.196436 0.093855
v -0.234956 0.200643 -0.083411
v 0.131084 -0.200049 -0.25555
v 0.0026 0.37762 -0.191352
v -0.207 0.412529 0.038557
v -0.084036 0.178378 -0.25555
v -0.214022 0.265154 0.083339
v -0.068217 0.458386 0.175644
v -0.25171 0.151184 -0.25555
v 0.4603 0.275677 -0.25555
v 0.0554 0.255775 0.197114
v 0.156405 0.024313 0.023505
v 0.4603 0.039181 -0.25555
v -0.4603 0.012986 -0.115547
v -0.167377 -0.07584 -0.069214
v -0.385037 -0.014967 0.123787
v -0.179913 0.044352 0.248649
v -0.055057 -0.182594 -0.25555
v -0.130954 -0.168663 -0.120028
v -0.357445 0.109897 -0.151005
v 0.014154 0.132838 0.233042
v -0.164942 -0.030391 0.002726
v 0.148778 0.328193 -0.174734
v 0.121032 0.289047 -0.019272
v 0.379421 0.09946 -0.25555
v 0.03743 -0.175953 -0.107194
v -0.4603 0.105503 -0.149887
v 0.16226 -0.023054 -0.019181
v -0.400388 0.130329 0.131107
v 0.169915 0.01771 -0.013792
v 0.015695 -0.328033 -0.133998
v -0.099692 -0.202854 -0.152659
v -0.047649 0.47407 -0.022568
v -0.207 0.303557 -0.178925
v -0.021902 -0.292409 -0.155942
v 0.348253 -0.462057 -0.25555
v 0.2029 0.012092 -0.045504
v -0.427877 0.146 0.23072
v 0.079417 0.176822 0.225285
v -0.004669 0.439101 -0.25555
v 0.239719 -0.462508 -0.25555
v 0.030268 0.36161 0.044382
v -0.005302 -0.01374 0.132922
v 0.209038 -0.36998 -0.25555
v -0.162134 0.223402 -0.25555
v -0.137794 0.227949 0.21627
v -0.164181 0.481392 0.051989
v -0.241534 -0.004329 0.198447
v -0.260862 0.009108 -0.25555
v -0.214738 0.243771 -0.127236
v -0.149438 0.330831 -0.25555
v 0.169619 -0.056554 -0.09482
v 0.098756 0.333012 0.01212
v 0.103326 0.029876 0.055099
v 0.387836 -0.084935 -0.25555
v -0.236753 -0.044717 -0.032238
v 0.149985 0.070236 0.203029
v 0.049448 0.141407 -0.25555
v 0.346538 0.147784 -0.25555
v -0.20768 -0.079542 -0.25555
v -0.11718 0.467362 -0.10831
v 0.337111 0.092423 -0.25555
v 0.082087 0.3536 0.046573
v 0.029915 0.36793 0.093355
v -0.268224 -0.04922 -0.25555
v 0.0551 0.3789 0.18966
v -0.088181 -0.00887 0.16834
v 0.014572 0.232127 0.215539
v 0.351247 -0.442089 -0.154121
v 0.104935 -0.37912 -0.143006
v 0.152922 0.266202 -0.25555
v 0.040281 -0.047382 -0.036605
v -0.150565 -0.1181 -0.25555
v 0.298241 -0.015025 -0.118728
v 0.432236 -0.143102 -0.212392
v -0.333261 0.067415 -0.25555
v -0.007927 0.481233 0.171614
v -0.118174 -0.015294 0.1213
v 0.356123 0.192121 -0.174924
v -0.178934 0.299692 -0.25555
v 0.297067 0.314472 -0.175598
v -0.029897 0.060851 0.245744
v 0.348289 0.311266 -0.193754
v 0.387516 -0.495769 -0.215925
v 0.109184 0.337744 -0.083363
v -0.303395 0.130836 -0.14537
v 0.431458 -0.074288 -0.195187
v 0.058117 0.209885 0.170192
v 0.4603 -0.245093 -0.22849
v 0.130066 0.04054 0.115381
v 0.4603 -0.009475 -0.227471
v -0.153923 0.465189 -0.150723
v -0.260257 0.189248 0.128828
v 0.069347 -0.336978 -0.135567
v 0.406086 -0.424519 -0.160609
v 0.4603 0.105089 -0.181548
v 0.286192 -0.475884 -0.174064
v 0.195306 0.206583 -0.091126
v 0.062557 0.025243 -0.25555
v 0.327625 0.311526 -0.25555
v 0.182012 0.147317 -0.25555
v 0.17662 0.089013 0.106609
v -0.207 0.406234 -0.04982
v -0.23534 0.219486 0.111559
v -0.166291 0.405668 -0.25555
v -0.207756 -0.11196 -0.25555
v 0.329274 0.15436 -0.144871
v -0.255962 0.175826 -0.034943
v 0.182197 0.323022 -0.25555
v -0.141407 0.131182 -0.25555
f 130 1 274
f 324 35 317
f 122 179 158
f 206 240 3
f 341 299 275
f 99 360 203
f 137 200 264
f 67 251 34
f 237 329 351
f 7 296 258
f 313 10 245
f 354 112 64
f 68 74 355
f 77 161 41
f 80 25 141
f 28 110 5
f 304 25 335
f 134 88 159
f 15 331 118
f 50 259 13
f 247 330 52
f 362 374 117
f 50 326 308
f 35 37 153
f 205 105 222
f 71 165 65
f 182 161 77
f 273 159 343
f 330 247 354
f 376 185 135
f 158 143 84
f 15 328 100
f 126 129 199
f 246 187 370
f 43 345 33
f 257 281 79
f 348 32 379
f 9 102 34
f 260 383 133
f 11 84 75
f 173 97 201
f 174 98 302
f 166 276 96
f 19 171 107
f 188 160 162
f 238 290 75
f 132 181 51
f 79 248 193
f 279 363 296
f 365 64 40
f 98 215 204
f 305 99 210
f 167 344 50
f 197 232 145
f 324 317 315
f 27 197 145
f 115 131 222
f 345 248 14
f 224 277 85
f 245 322 111
f 334 253 171
f 148 63 74
f 71 61 36
f 85 393 231
f 156 168 47
f 137 114 89
f 195 376 284
f 334 292 94
f 207 146 222
f 267 330 250
f 282 337 289
f 104 327 169
f 130 12 287
f 374 362 196
f 255 254 66
f 114 22 227
f 162 160 263
f 151 292 191
f 305 93 99
f 341 52 208
f 340 39 249
f 41 23 168
f 219 107 253
f 289 337 163
f 334 172 253
f 105 205 136
f 244 349 121
f 102 314 67
f 81 48 32
f 254 179 122
f 249 311 340
f 124 211 363
f 393 360 99
f 170 39 353
f 262 174 302
f 63 78 74
f 57 155 42
f 158 179 119
f 56 381 318
f 5 313 38
f 198 37 35
f 73 2 240
f 346 349 270
f 158 119 143
f 275 35 128
f 267 176 208
f 55 280 56
f 388 71 14
f 150 271 54
f 138 214 164
f 159 88 224
f 132 51 277
f 139 117 374
f 210 22 114
f 205 339 136
f 261 288 129
f 324 198 35
f 275 389 91
f 103 45 49
f 148 68 333
f 91 17 344
f 219 295 107
f 41 233 23
f 88 181 224
f 3 251 67
f 152 325 109
f 287 293 338
f 67 314 3
f 168 23 47
f 315 299 208
f 128 216 265
f 206 73 240
f 323 236 371
f 116 391 294
f 12 274 372
f 242 69 82
f 143 238 75
f 342 11 72
f 275 128 389
f 205 222 108
f 178 31 173
f 147 370 187
f 273 197 27
f 237 39 329
f 273 309 64
f 175 15 100
f 126 272 385
f 211 163 296
f 95 357 200
f 371 236 235
f 68 148 74
f 392 228 226
f 283 191 269
f 131 178 135
f 279 293 397
f 2 73 190
f 239 357 95
f 22 210 82
f 318 381 111
f 319 306 231
f 63 304 78
f 203 242 99
f 64 197 273
f 345 44 209
f 287 83 43
f 101 323 371
f 29 394 164
f 287 33 293
f 369 21 259
f 135 185 362
f 51 240 2
f 89 16 200
f 287 43 33
f 191 266 321
f 6 126 286
f 396 83 12
f 229 266 283
f 12 372 310
f 246 368 220
f 223 294 96
f 385 142 286
f 28 315 110
f 126 385 286
f 87 260 133
f 44 14 70
f 59 348 269
f 288 106 199
f 120 259 21
f 40 204 250
f 84 342 196
f 61 11 36
f 29 183 272
f 372 274 49
f 317 35 299
f 152 20 25
f 108 243 339
f 299 35 275
f 100 384 46
f 225 347 26
f 111 56 38
f 361 92 198
f 308 369 259
f 267 204 176
f 285 64 309
f 90 268 97
f 233 134 23
f 330 267 52
f 229 283 392
f 18 191 321
f 166 96 380
f 63 141 25
f 375 298 355
f 189 342 121
f 60 371 235
f 200 318 322
f 169 327 291
f 116 380 96
f 118 328 15
f 294 391 96
f 360 242 203
f 289 373 102
f 315 208 176
f 237 155 364
f 332 7 367
f 217 251 233
f 350 39 340
f 157 263 160
f 329 202 351
f 230 263 383
f 276 166 53
f 38 56 280
f 193 387 212
f 268 195 97
f 1 291 48
f 188 256 153
f 229 338 367
f 345 43 248
f 63 148 53
f 252 116 221
f 147 187 297
f 109 156 152
f 26 192 225
f 346 270 281
f 291 327 48
f 297 87 212
f 237 364 295
f 385 183 142
f 63 25 304
f 257 79 212
f 293 30 397
f 60 101 371
f 201 195 284
f 251 217 34
f 57 320 19
f 140 90 60
f 303 145 47
f 54 333 218
f 302 98 343
f 152 141 53
f 256 188 138
f 69 22 82
f 174 306 144
f 83 287 12
f 316 161 182
f 71 65 14
f 267 250 204
f 300 189 121
f 41 161 217
f 131 207 222
f 225 70 242
f 108 198 243
f 247 52 120
f 256 138 29
f 78 21 369
f 94 191 184
f 246 366 260
f 125 134 27
f 42 155 351
f 333 355 218
f 177 320 32
f 71 36 186
f 70 225 192
f 264 200 322
f 176 110 315
f 154 172 223
f 83 358 248
f 373 307 102
f 88 194 181
f 112 354 21
f 47 145 232
f 251 3 233
f 332 293 279
f 127 1 81
f 38 280 136
f 323 328 118
f 134 301 88
f 377 167 52
f 277 51 352
f 397 30 279
f 279 336 363
f 146 117 139
f 48 104 32
f 214 230 164
f 81 1 48
f 174 85 306
f 162 214 188
f 49 202 103
f 275 377 52
f 307 373 163
f 311 286 45
f 62 193 396
f 191 283 266
f 137 305 114
f 375 123 39
f 94 292 151
f 252 316 180
f 117 207 131
f 184 116 294
f 50 344 17
f 282 289 395
f 257 234 346
f 174 144 98
f 189 378 196
f 174 262 85
f 76 45 286
f 233 41 217
f 393 277 360
f 224 181 132
f 357 56 318
f 338 392 226
f 345 209 33
f 230 162 263
f 155 19 364
f 59 191 292
f 57 42 202
f 295 219 54
f 122 158 66
f 10 319 245
f 211 296 363
f 66 90 140
f 155 237 351
f 288 17 265
f 245 93 264
f 367 258 321
f 72 11 61
f 186 4 22
f 280 105 136
f 219 154 213
f 280 31 178
f 97 382 90
f 163 337 258
f 64 285 40
f 299 341 208
f 376 195 66
f 310 62 12
f 231 393 99
f 106 288 265
f 325 182 109
f 380 116 252
f 370 147 212
f 366 164 260
f 25 20 232
f 139 374 378
f 303 27 145
f 308 259 50
f 54 219 150
f 5 10 313
f 247 120 21
f 321 337 18
f 311 45 340
f 18 282 191
f 190 73 241
f 295 54 237
f 153 216 128
f 141 63 53
f 199 106 126
f 114 227 89
f 61 244 72
f 86 325 152
f 1 169 291
f 195 268 66
f 361 146 92
f 93 319 99
f 79 281 270
f 100 239 175
f 226 8 338
f 341 275 52
f 163 373 289
f 236 255 140
f 49 45 372
f 101 356 384
f 184 294 94
f 364 19 107
f 326 375 355
f 234 87 312
f 135 178 201
f 176 204 359
f 122 66 254
f 367 7 258
f 62 396 12
f 315 317 299
f 129 126 6
f 31 55 56
f 41 168 77
f 52 267 208
f 154 253 172
f 378 189 133
f 316 252 217
f 123 129 6
f 322 245 264
f 200 137 89
f 157 92 139
f 277 224 132
f 302 343 262
f 329 350 340
f 30 192 279
f 113 200 16
f 155 57 19
f 61 71 349
f 168 156 77
f 270 349 71
f 116 395 9
f 86 166 180
f 210 242 82
f 261 123 375
f 250 354 365
f 16 290 238
f 232 197 335
f 163 258 296
f 276 213 223
f 246 29 366
f 127 81 320
f 198 108 361
f 283 228 392
f 38 313 245
f 43 83 248
f 279 192 26
f 24 50 17
f 86 152 53
f 390 59 269
f 215 98 5
f 382 101 90
f 357 318 200
f 308 74 369
f 289 9 395
f 375 39 298
f 2 352 51
f 253 154 219
f 213 154 223
f 185 376 149
f 334 177 292
f 355 308 326
f 350 329 39
f 250 365 40
f 166 86 53
f 301 134 278
f 29 164 366
f 21 78 112
f 57 202 320
f 161 316 217
f 223 172 94
f 284 135 201
f 227 22 290
f 352 336 347
f 119 238 143
f 324 315 243
f 127 49 1
f 286 311 6
f 32 320 81
f 148 333 53
f 24 326 50
f 54 271 333
f 220 62 142
f 18 337 282
f 331 119 118
f 239 31 56
f 357 239 56
f 181 194 240
f 277 352 347
f 147 297 212
f 13 52 167
f 282 116 184
f 298 39 170
f 76 62 310
f 301 194 88
f 157 378 133
f 274 1 49
f 165 71 186
f 104 226 228
f 221 116 9
f 94 151 191
f 189 300 133
f 261 129 123
f 23 125 47
f 329 103 202
f 243 198 324
f 379 228 283
f 141 152 80
f 32 348 177
f 376 135 284
f 368 62 220
f 221 9 34
f 66 140 255
f 336 2 363
f 105 115 222
f 362 185 196
f 106 256 272
f 304 335 112
f 110 215 5
f 27 303 125
f 216 106 265
f 197 64 335
f 365 354 64
f 280 178 115
f 202 127 320
f 370 212 387
f 118 254 323
f 375 326 261
f 282 395 116
f 180 166 380
f 69 386 22
f 300 121 312
f 219 213 150
f 62 368 193
f 379 283 269
f 50 13 167
f 11 342 84
f 234 257 212
f 312 87 133
f 186 22 165
f 115 178 131
f 316 182 86
f 260 187 246
f 157 160 92
f 384 356 46
f 387 193 370
f 69 70 386
f 89 227 16
f 314 102 241
f 121 349 312
f 135 117 131
f 183 220 142
f 338 229 392
f 393 85 277
f 169 287 8
f 206 314 73
f 40 98 204
f 76 286 142
f 36 4 186
f 181 240 51
f 149 158 84
f 241 211 124
f 16 119 113
f 280 115 105
f 335 64 112
f 123 6 39
f 8 287 338
f 91 344 377
f 382 97 356
f 136 5 38
f 60 90 101
f 201 97 195
f 34 102 67
f 144 319 10
f 332 367 338
f 202 49 127
f 213 276 150
f 3 278 233
f 80 152 25
f 321 266 229
f 113 95 200
f 38 245 111
f 353 54 170
f 381 56 111
f 101 328 323
f 229 367 321
f 193 358 83
f 237 353 39
f 16 238 119
f 374 196 378
f 164 394 138
f 124 190 241
f 187 87 297
f 59 390 191
f 157 133 383
f 162 230 214
f 92 37 198
f 250 330 354
f 234 212 87
f 23 134 125
f 183 29 220
f 394 29 138
f 255 236 254
f 109 182 156
f 339 205 108
f 119 179 254
f 340 45 103
f 310 372 45
f 231 99 319
f 75 290 4
f 27 159 273
f 347 279 26
f 70 14 386
f 17 91 389
f 263 157 383
f 248 388 14
f 116 96 391
f 104 228 32
f 110 359 215
f 74 78 369
f 303 47 125
f 58 290 22
f 30 70 192
f 149 196 185
f 95 15 175
f 270 71 388
f 333 271 276
f 21 354 247
f 306 319 144
f 355 74 308
f 188 153 160
f 59 177 348
f 20 156 47
f 339 28 136
f 355 298 218
f 218 170 54
f 92 160 37
f 91 377 275
f 384 100 328
f 126 106 272
f 61 349 244
f 236 323 254
f 173 31 46
f 117 146 207
f 121 342 72
f 338 293 332
f 301 3 240
f 326 24 261
f 184 191 282
f 239 46 31
f 287 169 130
f 94 294 223
f 232 335 25
f 7 279 296
f 306 85 231
f 212 79 193
f 252 221 34
f 124 363 2
f 73 314 241
f 11 75 4
f 359 204 215
f 134 233 278
f 353 237 54
f 90 66 268
f 277 347 360
f 193 368 370
f 4 290 58
f 242 210 99
f 35 153 128
f 169 226 104
f 15 113 331
f 93 137 264
f 180 380 252
f 28 339 315
f 97 46 356
f 364 107 295
f 177 334 19
f 129 288 199
f 243 315 339
f 307 241 102
f 103 329 340
f 396 193 83
f 389 128 265
f 60 235 236
f 258 337 321
f 224 85 262
f 55 31 280
f 309 98 285
f 300 312 133
f 72 244 121
f 196 342 189
f 113 119 331
f 322 318 111
f 220 29 246
f 96 276 223
f 206 3 314
f 359 110 176
f 290 16 227
f 248 358 193
f 347 225 360
f 333 68 355
f 40 285 98
f 281 257 346
f 32 228 379
f 276 271 150
f 310 45 76
f 210 114 305
f 191 390 269
f 138 188 214
f 156 182 77
f 52 13 120
f 177 59 292
f 261 17 288
f 75 84 143
f 348 379 269
f 301 240 194
f 272 256 29
f 10 98 144
f 92 146 139
f 344 167 377
f 44 345 14
f 13 259 120
f 60 236 140
f 136 28 5
f 254 118 119
f 156 20 152
f 305 137 93
f 336 352 2
f 278 3 301
f 149 84 196
f 182 325 86
f 343 159 262
f 30 44 70
f 94 172 334
f 5 98 10
f 97 173 46
f 6 249 39
f 209 293 33
f 225 242 360
f 239 100 46
f 298 170 218
f 163 211 307
f 58 22 4
f 30 293 209
f 234 312 346
f 175 239 95
f 17 261 24
f 169 1 130
f 190 124 2
f 316 86 180
f 106 216 256
f 30 209 44
f 66 158 149
f 78 304 112
f 65 165 14
f 62 76 142
f 312 349 346
f 260 164 230
f 242 70 69
f 36 11 4
f 47 232 20
f 17 389 265
f 8 226 169
f 262 159 224
f 19 334 171
f 336 279 347
f 222 146 361
f 211 241 307
f 378 157 139
f 149 376 66
f 98 273 343
f 53 333 276
f 34 217 252
f 253 107 171
f 19 320 177
f 98 309 273
f 178 173 201
f 260 230 383
f 187 260 87
f 385 272 183
f 93 245 319
f 386 14 165
f 270 388 79
f 388 248 79
f 153 37 160
f 12 130 274
f 135 362 117
f 202 42 351
f 246 370 368
f 279 7 332
f 382 356 101
f 9 289 102
f 384 328 101
f 108 222 361
f 22 386 165
f 95 113 15
f 104 48 327
f 27 134 159
f 216 153 256
f 311 249 6
