v 0.0026 0.384173 -0.139009
v 0.0026 0.378657 -0.159468
v -0.335135 0.007513 -0.25555
v -0.350916 -0.008982 -0.25555
v -0.351116 0.010235 -0.25555
v -0.4603 0.053968 -0.102891
v 0.198802 -0.140373 -0.25555
v 0.04084 -0.098469 -0.085169
v 0.05521 -0.091974 -0.08141
v 0.096835 0.228703 0.034398
v -0.224971 0.213969 -0.241523
v -0.103699 0.352625 -0.25555
v -0.313869 0.131124 -0.044779
v -0.032394 -0.165021 -0.105267
v -0.033099 -0.180973 -0.108071
v 0.229845 -0.102934 -0.25555
v 0.07542 0.33684 -0.240042
v 0.059551 0.052213 0.181679
v 0.103026 0.118042 -0.25555
v 0.207376 -0.434921 -0.25555
v 0.205319 -0.418923 -0.25555
v 0.122578 -0.298291 -0.25555
v 0.155049 0.123567 0.164201
v -0.207 0.316909 -0.119043
v -0.042873 0.488383 0.098989
v -0.045491 0.486528 0.083098
v -0.058035 0.487972 0.093265
v -0.387349 0.00279 0.241719
v -0.113838 0.019026 0.253114
v 0.075722 -0.08246 -0.25555
v 0.080379 -0.063241 -0.25555
v -0.4603 -0.021976 0.065229
v -0.4603 -0.007105 0.071684
v -0.4603 -0.008917 0.055649
v 0.1473 0.15919 0.228388
v -0.243528 0.019026 0.253114
v 0.026466 -0.105085 -0.088764
v 0.012811 -0.097448 -0.084549
v -0.192223 0.025903 -0.25555
v -0.360199 -0.024454 0.04223
v 0.140398 -0.102766 -0.09887
v 0.299978 0.160921 -0.10739
v -0.087829 0.107817 -0.25555
v 0.216219 -0.279807 -0.12554
v -0.081781 0.463531 -0.200934
v -0.064962 0.463377 -0.209077
v -0.000336 0.235334 -0.25555
v -0.411694 0.118955 0.038057
v 0.243178 0.020975 0.004592
v 0.230812 0.02297 0.016004
v 0.196962 -0.05461 -0.25555
v 0.331774 0.011207 -0.050726
v 0.105154 -0.234718 -0.117544
v 0.060393 0.289358 0.13991
v -0.080949 -0.031399 -0.000718
v -0.4603 0.070172 0.135366
v 0.049245 -0.101174 -0.25555
v 0.0026 0.428775 0.060719
v 0.0026 0.413821 0.068243
v 0.07957 0.221727 -0.25555
v 0.018406 0.103968 -0.25555
v 0.147477 0.306479 -0.05912
v 0.280403 -0.363157 -0.140231
v -0.383104 -0.008309 0.171924
v -0.020387 0.455841 -0.192721
v -0.02682 0.494043 0.155197
v 0.072575 0.343905 -0.070996
v 0.133261 0.103313 0.238246
v -0.264149 0.044353 0.248652
v 0.075251 0.027516 0.12114
v -0.25011 0.164087 0.227519
v -0.264373 0.181252 0.224499
v -0.053558 0.371636 0.190943
v -0.379609 -0.046342 -0.227474
v 0.110597 -0.293052 -0.127851
v -0.035683 0.481185 0.057302
v -0.050721 0.482287 0.051206
v -0.18883 0.461892 -0.032732
v 0.4603 -0.489104 -0.172471
v 0.4603 -0.485274 -0.187703
v -0.067597 0.315759 0.200798
v 0.275948 -0.025335 -0.25555
v 0.227009 0.319549 -0.187477
v -0.207991 0.108214 0.237396
v -0.176221 -0.020823 0.075273
v -0.403249 -0.026954 0.019744
v -0.404303 -0.030625 0.001177
v -0.389542 -0.028372 0.011205
v 0.15189 0.066997 -0.25555
v 0.446261 -0.345992 -0.25555
v -0.4603 0.109712 -0.068943
v -0.053558 0.19602 0.221905
v 0.01082 -0.037155 -0.25555
v -0.048392 0.001411 -0.25555
v 0.200755 0.015952 -0.25555
v 0.303197 -0.058459 -0.25555
v -0.17493 -0.017023 0.107446
v -0.4603 0.047123 -0.24172
v 0.231685 -0.188697 -0.25555
v 0.247667 -0.191418 -0.25555
v 0.237319 -0.203897 -0.25555
v 0.191964 0.32439 -0.145109
v -0.4603 0.074707 0.195706
v -0.095676 0.076282 0.243013
v 0.228115 0.224915 -0.25555
v 0.233749 0.209714 -0.25555
v 0.256005 -0.376843 -0.142645
v -0.316548 0.032891 0.250667
v -0.016689 0.458602 -0.08384
v 0.001393 -0.092516 -0.25555
v 0.088997 0.277088 -0.25555
v 0.078478 -0.201637 -0.111742
v 0.37931 -0.142627 -0.25555
v 0.373676 -0.127426 -0.25555
v -0.205596 -0.111729 -0.156441
v -0.336435 0.156167 0.22893
v -0.372999 0.145582 0.217621
v 0.4603 0.17606 -0.25555
v 0.4603 -0.467602 -0.227729
v 0.112342 -0.068684 -0.25555
v -0.412708 -0.037861 -0.100216
v 0.064286 -0.302607 -0.25555
v 0.446263 -0.407004 -0.166476
v 0.432236 -0.398916 -0.167293
v 0.167681 0.044123 0.135943
v 0.125562 0.057239 -0.25555
v -0.048646 -0.263731 -0.194678
v -0.207 0.358006 0.052007
v 0.120529 -0.406378 -0.190271
v 0.129103 -0.411104 -0.176713
v -0.236766 0.22413 0.159921
v 0.359788 -0.358149 -0.164644
v 0.36897 -0.371473 -0.164257
v -0.041284 -0.058504 -0.052093
v -0.099722 -0.162729 -0.25555
v 0.232968 -0.458579 -0.157019
v 0.36339 -0.491609 -0.162909
v -0.371548 0.111901 -0.066514
v -0.356624 0.114918 -0.060947
v 0.044117 0.352885 -0.016164
v -0.077371 0.46292 -0.25555
v 0.227887 -0.096574 -0.161533
v 0.225295 0.182421 0.014448
v -0.079546 0.5 0.1683
v 0.245348 -0.057458 -0.099634
v -0.432551 0.084343 0.241597
v -0.143013 -0.003667 0.202589
v 0.108871 -0.383744 -0.25555
v -0.229527 -0.097711 -0.160826
v 0.046464 -0.214123 -0.25555
v 0.286709 -0.153164 -0.179029
v -0.256931 0.183526 0.054959
v 0.39118 -0.064241 -0.138293
v -0.4603 -0.024935 -0.199078
v -0.081637 0.291811 0.205016
v 0.236288 -0.403103 -0.25555
v 0.243974 -0.304181 -0.25555
v 0.255141 -0.292381 -0.25555
v 0.054987 0.019712 0.231101
v 0.39253 -0.016704 -0.25555
v 0.388626 -0.329353 -0.25555
v 0.390103 -0.345992 -0.25555
v 0.070857 0.198903 0.107629
v -0.039997 -0.142434 -0.25555
v -0.387362 0.104062 -0.241511
v -0.414382 -0.018816 0.092744
v 0.378223 -0.384767 -0.163531
v 0.176477 0.175177 -0.026705
v 0.172219 0.177942 -0.011003
v 0.016418 0.352251 -0.081353
v 0.030257 0.350493 -0.073094
v 0.0026 0.420572 -0.07759
v 0.109048 0.188289 0.047636
v 0.034555 0.343432 -0.227704
v 0.016427 0.346636 -0.214983
v -0.102788 -0.201044 -0.241511
v -0.316563 -0.061309 -0.206348
v -0.330787 -0.057193 -0.213986
v 0.066738 0.201581 0.123078
v 0.389302 -0.076113 -0.205501
v 0.4603 0.099128 -0.228031
v 0.369352 -0.204825 -0.193634
v 0.362698 -0.21912 -0.189866
v 0.171399 -0.126663 -0.119897
v 0.164897 -0.140757 -0.112407
v -0.034041 -0.280899 -0.25555
v 0.342425 0.162685 -0.097496
v 0.447345 -0.041605 -0.148109
v 0.040261 0.027733 0.251575
v 0.4603 -0.402732 -0.25555
v -0.278188 0.084265 0.241609
v 0.219032 0.246107 -0.11738
v 0.227476 0.25728 -0.125546
v 0.22811 -0.154473 -0.151481
v -0.179912 0.140141 0.231751
v 0.248587 -0.234299 -0.25555
v -0.379262 0.104386 -0.25555
v -0.100146 -0.107615 -0.089979
v -0.11453 -0.114467 -0.092974
v -0.328279 -0.013131 0.137633
v 0.100853 0.334163 -0.180454
v 0.116818 0.332092 -0.178544
v 0.444093 0.308587 -0.209001
v 0.4603 0.3085 -0.20935
v 0.4603 0.308305 -0.224344
v -0.123755 0.172072 0.226124
v -0.109715 0.164091 0.227538
v -0.109715 0.180056 0.224722
v 0.402766 -0.246312 -0.25555
v 0.4603 0.159848 -0.25555
v -0.207 0.36193 0.009296
v 0.330864 0.084814 -0.047805
v -0.207 0.422224 0.168024
v 0.0026 0.426678 0.125411
v 0.0026 0.407278 0.135717
v -0.4603 0.048235 0.219545
v -0.4603 0.027203 0.219189
v 0.423481 0.00447 -0.088996
v 0.355743 -0.281029 -0.25555
v -0.292252 -0.036663 -0.01582
v -0.305931 -0.033694 -0.007721
v 0.393863 0.057622 -0.064213
v 0.390249 0.042219 -0.060676
v 0.056149 0.294198 0.176126
v 0.056207 0.278109 0.178118
v -0.371421 0.119475 0.023416
v -0.38647 0.117408 0.017753
v -0.4603 0.133579 0.153671
v 0.41726 0.111053 -0.077946
v 0.432259 0.116319 -0.080585
v -0.275082 0.148948 -0.193145
v -0.265917 0.157019 -0.203808
v 0.395731 0.148832 -0.17586
v 0.411784 0.148479 -0.178095
v -0.273784 0.184193 0.180821
v 0.339868 -0.400988 -0.152345
v -0.025479 0.365011 -0.25555
v 0.000144 0.358666 0.193217
v -0.157145 0.488908 0.099632
v -0.207 0.392992 0.135212
v 0.316906 -0.318646 -0.160385
v 0.073688 -0.030733 0.001118
v -0.361694 0.111719 -0.092808
v 0.245384 0.237438 -0.134145
v 0.250131 0.221923 -0.134354
v -0.133412 0.473737 -0.026051
v 0.306936 -0.207942 -0.176484
v 0.4603 0.012419 -0.119517
v 0.432221 -0.212325 -0.25555
v 0.432221 -0.228536 -0.25555
v -0.370042 -0.011801 0.147315
v -0.340109 0.145243 0.170705
v -0.361396 -0.048591 -0.166145
v -0.192961 0.440121 0.17886
v -0.432444 0.137971 0.182735
v -0.207 0.326549 -0.013177
v 0.446261 0.200377 -0.25555
v -0.068141 0.465191 -0.150682
v 0.446261 -0.173978 -0.25555
v 0.446522 0.252246 -0.19915
v 0.077751 -0.378938 -0.199661
v 0.067432 -0.371753 -0.209892
v -0.427877 0.1035 -0.25555
v -0.267456 0.196927 0.221741
v -0.261584 0.200001 0.206947
v -0.284057 0.0052 0.25555
v -0.300268 0.0052 0.25555
v -0.113237 0.055177 -0.25555
v -0.432239 -0.038222 -0.142065
v 0.4603 -0.287309 -0.187835
v 0.446619 -0.101068 -0.25555
v -0.270878 -0.008942 0.167507
v 0.238818 0.004323 -0.089703
v 0.08323 0.03728 0.097198
v 0.166879 0.183287 0.019384
v 0.164425 0.181139 0.00698
v 0.432377 0.130594 -0.25555
v 0.033617 -0.345412 -0.208602
v 0.39161 0.026177 -0.25555
v 0.377068 -0.287663 -0.18046
v 0.4603 -0.355069 -0.226954
v -0.091183 0.484117 0.065368
v 0.0026 0.403327 -0.004719
v -0.099208 -0.103868 -0.25555
v 0.252437 0.036625 0.012433
v 0.433208 -0.135854 -0.25555
v 0.003223 -0.03216 -0.003986
v -0.010471 -0.029803 0.004363
v -0.011129 -0.034815 -0.01104
v 0.205846 -0.061325 -0.121923
v -0.4603 -0.011294 -0.223384
v -0.4603 0.001548 -0.213491
v 0.098313 0.090362 -0.25555
v 0.338423 -0.072096 -0.183032
v 0.068302 0.252129 -0.25555
v 0.056381 0.325512 -0.25555
v 0.078398 -0.019973 0.082932
v 0.001504 0.149571 -0.25555
v -0.008034 -0.147877 -0.25555
v -0.05966 0.031812 -0.25555
v -0.339654 0.112713 -0.241512
v 0.355045 0.246026 -0.25555
v -0.207 0.381426 -0.028908
v -0.165873 0.371636 0.190943
v 0.446833 -0.067134 -0.25555
v 0.034551 0.34329 -0.25555
v 0.432498 0.04113 -0.067321
v 0.4603 -0.185643 -0.220054
v -0.009745 0.273606 0.208225
v -0.30353 0.143769 0.034453
v 0.280437 -0.068261 -0.161297
v 0.4603 0.233372 -0.210367
v 0.432758 -0.498794 -0.194734
v -0.207 0.338469 0.148662
v -0.324333 -0.056993 -0.135742
v 0.103714 0.202052 0.125721
v 0.330196 -0.123615 -0.198732
v 0.339269 -0.137049 -0.198815
v -0.067597 0.283829 0.20643
v -0.411666 0.103646 -0.227472
v -0.137725 -0.040343 -0.25555
v 0.396323 0.053857 -0.25555
v -0.142216 0.463102 -0.227479
v -0.15851 0.463103 -0.227445
v -0.207 0.365364 -0.227471
v -0.207 0.349152 -0.227471
v 0.446261 0.154761 -0.142375
v -0.145423 -0.157585 -0.18535
v -0.4603 0.047297 -0.060522
v 0.0026 0.415896 -0.185367
v 0.444091 -0.499741 -0.25555
v 0.41171 -0.498136 -0.25555
v 0.029469 0.375022 0.140869
v 0.191216 -0.281496 -0.25555
v 0.185582 -0.266295 -0.25555
v -0.308374 0.002779 0.241721
v 0.199184 -0.390349 -0.144991
v -0.165934 0.469937 -0.053728
v -0.390378 0.10494 -0.177989
v -0.057819 -0.05395 -0.25555
v 0.187927 -0.047081 -0.040791
v -0.054671 -0.232834 -0.117248
v 0.331162 0.256019 -0.178663
v 0.348174 0.256033 -0.184063
v 0.01034 -0.008197 0.172472
v 0.169824 0.2206 -0.25555
v -0.038853 0.298858 -0.25555
v -0.035296 -0.019669 0.085817
v -0.02159 -0.020673 0.077217
v 0.137415 0.336311 -0.051369
v -0.4603 0.098739 -0.027368
v -0.4603 0.097468 -0.043666
v -0.265914 0.143154 0.231231
v -0.296364 0.155449 0.097824
v 0.165808 -0.334136 -0.25555
v -0.198291 0.478537 0.172093
v 0.315274 -0.373828 -0.25555
v 0.214784 -0.143094 -0.25555
v 0.063418 -0.224976 -0.115858
v 0.288391 0.159089 -0.037073
v -0.213664 0.245862 -0.183515
v -0.210202 0.260847 -0.178389
v 0.062406 0.077228 0.242852
v 0.432247 0.196081 -0.188435
v 0.333318 0.021861 -0.25555
v 0.094995 0.215973 0.204496
v -0.162375 0.485045 0.17094
v -0.292265 -0.06462 -0.073239
v 0.4603 0.081758 -0.129559
v 0.005666 0.0052 0.25555
v 0.013772 0.019026 0.253114
v 0.444094 -0.065217 -0.143834
v 0.4603 -0.418943 -0.227471
v 0.147986 -0.245652 -0.25555
v 0.209317 -0.449881 -0.169514
v -0.4603 0.035859 -0.158466
v -0.011827 -0.218438 -0.25555
v 0.183027 0.150352 0.082614
v -0.207 0.403875 -0.180402
v 0.423579 -0.353788 -0.174717
v 0.416843 -0.368191 -0.171553
v -0.206666 0.421716 -0.101284
v 0.283534 0.115788 -0.25555
v 0.289168 0.100587 -0.25555
v -0.332691 0.0052 0.25555
v -0.109715 0.29181 0.205012
v 0.255278 -0.0716 -0.179932
v 0.25025 0.168627 -0.063788
v -0.232979 -0.022382 0.061398
v 0.446261 -0.293253 -0.25555
v 0.101773 0.19771 0.10111
v 0.178856 0.034559 0.081502
v 0.170253 0.036984 0.095425
v -0.200387 0.28114 0.206898
v -0.275329 -0.076487 -0.201522
v -0.4603 0.02347 -0.045665
v -0.40201 -0.029091 -0.25555
v -0.142746 -0.160806 -0.25555
v -0.202889 0.440432 -0.080698
v -0.23074 0.089428 -0.25555
v 0.238741 -0.195992 -0.149822
v 0.232717 -0.209971 -0.14424
v 0.147253 -0.226555 -0.11614
v -0.409872 -0.003235 0.205051
v 0.267322 0.175635 -0.25555
v -0.138155 0.036056 0.250114
v 0.149891 0.231746 -0.048842
v 0.164565 0.194145 0.080738
v -0.234956 0.200643 -0.083411
v -0.233642 0.203918 -0.067588
v 0.131084 -0.200049 -0.25555
v 0.147676 0.18912 0.0524
v -0.324621 0.13727 0.071205
v 0.211911 -0.256537 -0.25555
v 0.104313 0.198592 0.025087
v 0.112347 0.19614 0.011222
v -0.084036 0.178378 -0.25555
v -0.214022 0.265154 0.083339
v 0.349179 -0.414259 -0.152306
v 0.445187 0.266952 -0.25555
v 0.0554 0.255775 0.197114
v -0.4603 0.012986 -0.115547
v -0.205541 0.224149 -0.25555
v -0.200335 0.240765 -0.25555
v -0.167377 -0.07584 -0.069214
v -0.180086 -0.067953 -0.062235
v -0.385037 -0.014967 0.123787
v -0.214481 -0.106962 -0.182654
v -0.225466 -0.100777 -0.192847
v -0.212469 -0.108525 -0.198666
v -0.179913 0.044352 0.248649
v -0.196381 0.048192 0.247975
v -0.408197 -0.039804 -0.132268
v 0.316367 0.156199 -0.053186
v 0.302143 0.157573 -0.045524
v 0.014154 0.132838 0.233042
v -0.164942 -0.030391 0.002726
v -0.304217 0.156456 0.139955
v 0.259966 -0.022614 -0.25555
v 0.4603 0.038105 -0.141065
v 0.121032 0.289047 -0.019272
v 0.126758 0.299775 -0.029993
v 0.379421 0.09946 -0.25555
v 0.385055 0.084259 -0.25555
v -0.30848 -0.0642 -0.220099
v 0.173518 0.068969 0.117082
v -0.302625 0.129247 -0.228016
v 0.249137 0.304974 -0.148401
v -0.299872 0.149484 0.066149
v 0.015695 -0.328033 -0.133998
v -0.222031 0.068299 0.244422
v 0.088049 -0.386291 -0.213433
v -0.314305 -0.058883 -0.109583
v -0.099692 -0.202854 -0.152659
v 0.285879 0.044294 -0.015198
v 0.27424 0.056642 -0.009018
v 0.157796 0.204411 0.139025
v -0.045291 0.475662 -0.006608
v -0.034004 -0.015739 0.117974
v 0.049574 0.366726 0.108069
v 0.143914 0.019226 -0.005093
v 0.133638 0.225882 -0.026712
v -0.4603 -0.002981 -0.031779
v 0.139488 0.186719 0.038616
v -0.021902 -0.292409 -0.155942
v 0.341602 -0.36407 -0.25555
v 0.348253 -0.462057 -0.25555
v 0.2029 0.012092 -0.045504
v 0.30699 0.012103 -0.25555
v 0.072075 0.299414 0.085946
v -0.22408 0.236003 0.074069
v -0.207 0.34788 -0.109452
v -0.207 0.359776 -0.120465
v 0.280254 0.086962 -0.018804
v -0.4603 0.079553 0.214267
v -0.4603 -0.014236 0.12961
v -0.178806 0.356186 0.193658
v -0.193144 0.068784 -0.25555
v -0.132384 0.497617 0.154464
v -0.124279 0.5 0.1683
v 0.001928 -0.04552 -0.033424
v 0.001292 -0.054729 -0.046684
v -0.4603 0.103119 0.021324
v -0.264204 -0.037018 -0.016805
v -0.24661 0.181554 -0.120006
v -0.169576 0.207186 -0.25555
v 0.137949 -0.028359 0.010964
v 0.148088 -0.031486 -0.001293
v -0.25846 -0.01455 0.126838
v 0.111832 0.340668 -0.039754
v -0.164181 0.481392 0.051989
v -0.260862 0.009108 -0.25555
v 0.033875 -0.022707 0.058893
v 0.162126 -0.16261 -0.25555
v -0.214738 0.243771 -0.127236
v 0.027722 -0.082758 -0.25555
v 0.197882 -0.097491 -0.25555
v -0.173615 0.234848 -0.25555
v 0.0026 0.418575 0.14201
v -0.219498 0.235326 -0.042074
v 0.444971 0.30818 -0.25555
v -0.149438 0.330831 -0.25555
v 0.169619 -0.056554 -0.09482
v -0.254596 -0.000337 0.22298
v 0.4603 -0.196114 -0.25555
v 0.26825 -0.408546 -0.25555
v 0.0026 0.419843 -0.061395
v 0.062351 0.31044 -0.25555
v 0.243789 0.011932 -0.046605
v 0.263671 0.010698 -0.053608
v 0.38873 0.295038 -0.25555
v 0.057845 0.331146 0.15116
v 0.223419 -0.40431 -0.147478
v 0.212161 0.019313 -0.004664
v 0.412193 -0.190951 -0.25555
v -0.4603 -0.024119 -0.16685
v 0.336889 -0.391751 -0.25555
v 0.113513 -0.032551 -0.004206
v -0.150883 0.29844 -0.25555
v 0.4603 -0.268936 -0.25555
v 0.387836 -0.084935 -0.25555
v -0.236753 -0.044717 -0.032238
v 0.190157 -0.112946 -0.135657
v 0.070425 0.315332 0.088537
v -0.199795 0.458153 0.052236
v -0.334363 -0.054934 -0.161961
v -0.025957 0.245952 0.213094
v -0.017851 0.25978 0.210666
v 0.149985 0.070236 0.203029
v 0.040135 -0.349009 -0.137711
v 0.052708 -0.359086 -0.139494
v 0.312617 -0.390813 -0.146346
v 0.367435 0.065146 -0.058466
v 0.067293 -0.352668 -0.138339
v -0.126346 0.171342 -0.25555
v 0.285443 0.16182 -0.102252
v 0.379199 -0.384714 -0.25555
v -0.11718 0.467362 -0.10831
v 0.343734 -0.489585 -0.227472
v 0.056417 0.042554 0.207844
v 0.261696 -0.350464 -0.25555
v -0.150561 -0.151655 -0.137353
v -0.042897 0.497206 0.154554
v 0.082087 0.3536 0.046573
v 0.029915 0.36793 0.093355
v 0.344027 -0.359011 -0.160947
v 0.119441 -0.168669 -0.105899
v -0.268224 -0.04922 -0.25555
v 0.209261 0.114194 -0.25555
v 0.0551 0.3789 0.18966
v -0.088181 -0.00887 0.16834
v 0.162337 0.174057 0.128581
v 0.368005 -0.072958 -0.187648
v 0.343299 -0.052988 -0.25555
v -0.4603 0.04539 -0.116648
v 0.1473 0.202337 0.220799
v -0.432872 0.110807 -0.053899
v 0.282833 0.270221 -0.25555
v 0.4603 0.3081 -0.25555
v 0.124656 0.023782 0.020582
v 0.104935 -0.37912 -0.143006
v 0.152922 0.266202 -0.25555
v -0.31885 0.133756 0.013155
v 0.432236 -0.143102 -0.212392
v 0.432237 -0.127137 -0.215208
v 0.417146 0.035641 -0.25555
v 0.27908 0.314447 -0.25555
v 0.319178 -0.06118 -0.25555
v 0.446263 -0.119261 -0.217218
v -0.432472 -0.007458 0.177792
v -0.4603 0.020613 0.108955
v 0.155125 0.199705 -0.049299
v 0.324923 0.165706 -0.25555
v 0.432218 -0.025692 -0.25555
v -0.118174 -0.015294 0.1213
v -0.058334 -0.116655 -0.093708
v 0.216152 0.165175 -0.083661
v -0.292228 0.060318 0.24584
v -0.366847 0.139588 0.175153
v -0.039153 -0.034225 -0.010082
v 0.166109 0.325025 -0.227472
v 0.430742 -0.002104 -0.126268
v -0.378901 0.113946 -0.02432
v -0.223862 -0.070788 -0.064476
v -0.108633 -0.191598 -0.124071
v -0.273916 0.171369 0.092316
v 0.297067 0.314472 -0.175598
v -0.029897 0.060851 0.245744
v 0.348289 0.311266 -0.193754
v -0.275844 0.156889 -0.029172
v 0.0026 0.374752 0.108091
v 0.151574 -0.060296 -0.115869
v -0.028585 0.461297 -0.166455
v 0.4603 -0.443045 -0.17338
v 0.4603 -0.009475 -0.25555
v 0.110476 0.315722 -0.006634
v 0.027021 0.331004 0.198099
v -0.192548 0.479901 0.131056
v 0.204681 0.322712 -0.155106
v 0.145625 0.329579 -0.146868
v -0.4603 0.095905 0.176634
v -0.4603 0.110328 0.187139
v -0.4603 0.095178 -0.076124
v -0.212571 -0.108755 -0.214776
v 0.327518 0.06955 -0.043489
v -0.303395 0.130836 -0.14537
v -0.207 0.35024 0.020528
v -0.368109 -0.045337 -0.11808
v 0.027021 0.25023 0.21234
v -0.220313 0.23181 -0.057878
v 0.056452 0.212684 0.186073
v 0.189175 0.166021 -0.078559
v -0.059478 -0.006635 0.183254
v 0.131584 -0.411707 -0.14876
v 0.34844 -0.150483 -0.198773
v 0.016423 0.360755 0.015627
v -0.203632 -0.018837 0.092475
v -0.31024 -0.06385 -0.25555
v -0.4603 0.007747 0.07814
v -0.163942 0.191985 -0.25555
v -0.077703 -0.020426 0.07944
v 0.120101 0.011131 0.029638
v 0.090733 -0.005377 0.086896
v 0.006466 0.190649 0.222856
v -0.00164 0.204476 0.220419
v 0.283477 -0.060943 -0.119502
v 0.295254 0.31334 -0.25555
v -0.444089 0.1035 -0.25555
v -0.4603 0.1035 -0.25555
v 0.401978 0.168331 -0.25555
v -0.260257 0.189248 0.128828
v -0.249816 0.188664 0.028287
v -0.200899 0.454564 0.036465
v -0.165873 0.052336 0.247245
v -0.35675 0.025436 -0.25555
v -0.362384 0.040636 -0.25555
v -0.157156 0.49478 0.137471
v -0.209807 0.264084 -0.162517
v 0.4603 0.105089 -0.181548
v -0.242823 -0.090491 -0.154997
v -0.126729 -0.173414 -0.134919
v 0.280772 0.244432 -0.25555
v 0.098909 0.043658 0.133384
v 0.098183 0.036912 0.09508
v -0.194508 0.17974 0.22478
v -0.003426 -0.310645 -0.145029
v -0.179912 0.076282 0.243017
v 0.207768 0.207113 -0.101739
v -0.4603 -0.023289 -0.25555
v 0.4603 0.127211 -0.205931
v 0.07865 0.264608 -0.25555
v -0.055559 0.478441 0.019378
v 0.010066 -0.158834 -0.104134
v 0.327625 0.311526 -0.25555
v -0.316868 0.136314 0.02904
v 0.375522 -0.070741 -0.175085
v 0.4603 -0.466871 -0.158514
v 0.17662 0.089013 0.106609
v 0.43292 -0.499106 -0.211486
v -0.399182 0.110194 -0.061908
v 0.090012 0.203582 0.053481
v -0.207 0.367078 0.163228
v 0.120522 0.330838 -0.210871
v 0.311977 0.286103 -0.176818
v 0.4603 -0.016892 -0.209745
v 0.4603 -0.025687 -0.227471
v 0.414687 -0.173963 -0.205624
v -0.096224 0.251662 -0.25555
v -0.207 0.300518 -0.25555
v -0.192599 0.308415 -0.25555
v 0.046576 0.132578 0.233095
v -0.207328 0.311251 0.096936
v -0.4603 0.087327 0.162878
v 0.390467 -0.415115 -0.25555
v 0.26415 -0.23714 -0.154838
v 0.030279 0.349383 -0.089325
v -0.446261 -0.017285 0.105485
v 0.2014 0.1642 -0.08905
v 0.4603 0.024968 -0.065749
v 0.432183 -0.303217 -0.184147
v -0.009486 -0.264368 -0.122798
v 0.4603 -0.4988 -0.16415
v 0.183301 -0.334946 -0.135257
v 0.346535 -0.007818 -0.25555
v -0.426024 -0.012946 -0.25555
v -0.4603 0.012035 0.095198
v -0.142693 -0.160746 -0.227473
v 0.418182 -0.378415 -0.25555
v 0.262645 -0.086017 -0.180788
v 0.351706 -0.491051 -0.241511
v 0.211314 -0.023898 -0.064938
v -0.128194 -0.106479 -0.089469
v 0.055446 0.376043 0.173706
v 0.199468 0.047226 0.072531
v 0.4603 0.031075 -0.241511
v 0.446261 0.283783 -0.25555
v 0.353552 -0.205737 -0.19012
v 0.0026 0.385255 0.082152
v -0.08769 -0.215932 -0.128377
v -0.277736 0.154053 -0.04502
v 0.050257 -0.143561 -0.25555
v -0.136392 -0.027443 0.017281
v 0.204548 0.086513 -0.25555
v -0.303488 0.111645 -0.25555
v -0.362425 0.052334 0.247239
v 0.146355 0.247488 -0.047269
v 0.187046 0.12112 0.080152
v -0.207 0.357258 -0.241511
v -0.179913 0.219967 0.217681
v -0.267901 -0.078634 -0.159325
v 0.060223 -0.014172 0.12952
v 0.3915 0.124462 -0.075506
v 0.33182 0.213747 -0.171449
v 0.254129 0.317725 -0.169802
v 0.382677 -0.467359 -0.25555
v 0.370826 -0.478421 -0.25555
v -0.4603 -0.003216 -0.114996
v -0.037124 -0.028991 -0.25555
v 0.113151 -0.353652 -0.25555
v 0.128332 -0.026375 0.023863
v 0.358652 -0.261001 -0.181558
v 0.093214 -0.354985 -0.138777
v 0.332496 0.298239 -0.186555
v -0.032067 -0.009178 0.166125
v 0.000909 0.443051 0.05321
v 0.119313 -0.024917 0.037255
v 0.109531 0.001521 0.048807
v 0.070371 -0.098767 -0.085485
v 0.301048 0.044328 -0.024889
v -0.4603 0.121995 0.162844
v 0.110562 0.33522 -0.122825
v 0.306847 -0.481719 -0.205145
v -0.304729 -0.026374 0.023899
v 0.339873 -0.036221 -0.25555
v 0.418859 -0.006946 -0.25555
v -0.41984 -0.001585 0.215733
v -0.422116 -0.003952 0.200826
v -0.221919 -0.034482 -0.010761
v -0.229917 0.207519 -0.110165
v -0.10492 0.466766 -0.1189
v 0.4603 0.079365 -0.161893
v 0.352683 0.139583 -0.066527
v -0.361681 0.121018 0.235129
v 0.411639 -0.313038 -0.18077
v -0.206856 -0.028282 0.012047
v 0.04593 -0.31767 -0.132204
v -0.295093 0.134865 -0.171886
v 0.387592 0.257453 -0.193667
v 0.309393 0.166914 -0.154707
v 0.246614 -0.16841 -0.158736
v 0.35743 0.310305 -0.22484
v -0.015756 0.33084 0.198129
v -0.24396 -0.036495 -0.25555
v -0.292228 0.124176 0.234567
v 0.152587 -0.020008 -0.008864
v 0.016427 0.356066 -0.032824
v 0.304006 -0.343427 -0.25555
v 0.432239 -0.430839 -0.161618
v -0.345374 0.112545 -0.161498
v -0.271209 -0.003372 -0.25555
v -0.21783 0.23597 -0.10044
v -0.170577 0.0052 0.25555
v -0.178683 0.019026 0.253114
v -0.196971 0.447548 -0.107497
v 0.0617 0.219545 0.144062
v -0.215988 0.236545 -0.25555
v 0.208238 -0.1685 -0.137457
v 0.194562 -0.168552 -0.12869
v -0.207 0.416174 0.183082
v -0.216053 -0.013757 0.133216
v 0.385913 0.163032 -0.095513
v -0.332437 -4.9e-05 0.224794
v 0.295853 -0.059276 -0.109919
v 0.4603 -0.451366 -0.227471
v -0.255962 0.175826 -0.034943
v -0.024603 0.272835 0.208357
v 0.362515 0.206694 -0.179146
v 0.081253 -0.381867 -0.25555
v 0.048416 -0.057799 -0.25555
v 0.4603 -0.041898 -0.25555
v 0.047196 0.348706 -0.059984
v 0.150587 -0.42376 -0.25555
v 0.411715 -0.498066 -0.227472
v -0.134039 0.483887 0.06363
v -0.207991 0.156108 0.228944
v 0.280078 -0.418051 -0.149899
v -0.211053 -0.09054 -0.08048
v 0.134369 0.059025 0.220241
v -0.043678 0.029091 -0.25555
v -0.207 0.332941 -0.25555
v -0.070021 0.469496 -0.076387
v 0.060716 0.111005 -0.25555
v 0.041061 0.354951 0.193877
v 0.268609 0.175394 -0.025641
v -0.274098 -0.019461 0.087203
v -0.4603 -0.020131 0.081335
v -0.207 0.420349 0.070085
v 0.060395 0.207112 0.154383
v 0.4603 -0.101068 -0.241869
v -0.219214 0.228091 -0.204535
v -0.372841 -0.001755 0.214318
v 0.146585 -0.053112 -0.075028
v 0.149032 0.185104 0.19095
v 0.0026 0.372483 0.092039
v 0.035408 0.300386 -0.25555
v 0.419814 0.162149 -0.181482
v -0.288436 0.138591 -0.200217
v 0.4603 0.089715 -0.091461
v 0.221889 0.294343 -0.127967
v 0.397244 0.010976 -0.25555
v -0.178683 0.002787 0.24172
v 0.196153 0.230358 -0.25555
v -0.203825 0.443439 -0.010869
v -0.015509 -0.046913 -0.25555
v 0.058115 0.237535 0.165339
v -0.067134 0.132776 -0.25555
v 0.151132 0.180607 0.17544
v 0.130275 0.084919 -0.25555
v -0.006891 0.293416 -0.25555
v 0.295422 -0.33595 -0.150056
v -0.432238 -0.035921 -0.093472
v -0.30147 -0.037467 -0.25555
v -0.2215 0.2213 -0.25555
v -0.342677 0.11378 -0.145561
v 0.1473 0.2183 0.21797
v 0.252985 0.065966 0.00678
v 0.309308 -0.482004 -0.189124
v -0.11876 0.312465 -0.25555
v -0.240277 0.193938 -0.05667
v -0.059548 0.273899 -0.25555
v 0.075554 -0.333008 -0.25555
v -0.137794 0.19602 0.221904
v 0.186351 0.173198 -0.037998
v 0.096491 -0.047605 -0.043762
v 0.120214 -0.211376 -0.113449
v 0.414517 -0.001794 -0.124276
v -0.4603 0.069849 -0.002579
v -0.2907 0.152146 0.039744
v 0.4603 -0.0653 -0.14425
v 0.393562 0.182501 -0.25555
v 0.164157 -0.41489 -0.25555
v -0.019008 -0.012592 0.141503
v -0.3966 0.111447 -0.045953
v -0.207 0.381767 0.161484
v -0.158427 0.46292 -0.25555
v -0.170735 0.466529 -0.085612
v 0.10958 0.05996 -0.25555
v -0.4603 -0.039124 -0.206918
v -0.126791 -0.17443 -0.164852
v -0.256149 0.036788 -0.25555
v -0.188415 0.455872 -0.11845
v 0.074978 -0.025333 0.033046
v 0.4603 0.05602 -0.180061
v -0.275951 0.019026 0.253114
v 0.375777 0.124887 -0.071581
v -0.080915 0.480808 0.039445
v 0.17067 0.084561 0.121203
v 0.243698 0.164722 -0.086128
v -0.196208 0.456923 -0.006077
v 0.103924 -0.395046 -0.145859
v 0.17968 -0.438069 -0.25555
v 0.149717 0.119692 0.195938
v -0.160579 -0.016102 0.11493
v -0.4603 0.063389 -0.062485
v 0.151756 0.044621 0.138934
v -0.127266 0.214223 -0.25555
v -0.172798 0.492626 0.141143
v 0.432236 -0.382956 -0.170132
v 0.081229 -0.137915 -0.10006
v 0.152057 0.329447 -0.131987
v -0.065816 0.481547 0.04534
v 0.120866 0.21195 0.18172
v 0.062063 0.022332 0.172479
v 0.283276 0.102126 -0.023674
v 0.280239 -0.390803 -0.145141
v -0.117901 0.463295 -0.213435
v 0.4603 -0.001062 -0.213239
v -0.20787 0.27621 -0.241515
v 0.432476 -0.111149 -0.218004
v -0.266993 0.158422 -0.129991
v -0.329933 -0.05716 -0.194003
v 0.0543 0.0052 0.25555
v -0.264149 0.108211 0.23738
v 0.444094 0.009118 -0.062554
v -0.077371 0.463102 -0.227472
v -0.4603 -0.035067 -0.093519
v 0.368835 0.166392 -0.076754
v -0.116883 -0.011001 0.153411
v 0.119244 0.20121 0.121146
v 0.287197 -0.447166 -0.155033
v -0.030776 -0.004337 0.198158
v -0.292224 0.05617 -0.25555
v 0.148631 -0.422181 -0.193685
v -0.124834 -0.177268 -0.213434
v 0.005168 -0.024235 0.043888
v 0.326353 -0.485043 -0.161712
v -0.222031 0.03637 0.250058
v -0.207 0.339925 -0.211215
v -0.21448 0.261317 0.067601
v 0.446264 0.219891 -0.19344
v -0.010795 -0.019233 -0.25555
v 0.296866 0.23662 -0.161734
v 0.186798 0.036946 0.095432
v -0.17429 0.179506 -0.25555
v 0.4603 0.009 -0.06295
v 0.132636 0.323585 -0.04251
v 0.4084 -0.261513 -0.25555
v -0.103553 -0.17945 -0.25555
v -0.06502 -0.220535 -0.115092
v 0.3524 0.026227 -0.046421
v -0.4603 0.129453 0.124549
f 3 4 5
f 25 26 27
f 32 33 34
f 86 87 88
f 99 100 101
f 203 204 205
f 206 207 208
f 28 216 217
f 226 227 48
f 255 228 117
f 168 275 276
f 287 288 289
f 98 291 292
f 317 151 318
f 165 263 320
f 224 225 54
f 7 99 101
f 365 383 384
f 385 336 108
f 173 391 316
f 319 81 155
f 419 132 236
f 103 216 28
f 425 55 426
f 428 429 430
f 455 456 285
f 24 472 473
f 475 103 28
f 268 478 400
f 479 480 144
f 481 289 482
f 306 17 296
f 498 423 424
f 455 509 510
f 514 50 341
f 156 20 21
f 520 90 390
f 245 536 42
f 52 311 294
f 546 532 132
f 312 257 511
f 13 410 485
f 345 459 297
f 559 501 205
f 279 322 566
f 297 349 348
f 16 82 96
f 198 14 576
f 289 348 580
f 333 460 545
f 377 176 164
f 258 593 46
f 596 441 442
f 62 83 599
f 191 578 69
f 430 429 604
f 133 132 167
f 422 376 154
f 173 168 416
f 615 180 318
f 105 106 346
f 178 618 395
f 91 376 603
f 445 177 178
f 426 55 584
f 64 28 404
f 626 145 311
f 144 480 367
f 264 71 72
f 3 635 636
f 637 479 239
f 368 121 315
f 640 149 115
f 260 204 203
f 36 266 504
f 488 487 518
f 336 267 108
f 332 190 331
f 644 392 393
f 645 71 195
f 121 368 87
f 650 639 181
f 85 97 36
f 111 651 295
f 393 643 70
f 460 140 545
f 220 484 221
f 74 3 253
f 249 515 259
f 398 284 135
f 365 89 549
f 625 208 92
f 362 473 379
f 374 22 7
f 308 565 564
f 151 180 294
f 534 531 278
f 431 647 432
f 665 666 595
f 667 270 180
f 92 207 206
f 669 362 670
f 392 274 70
f 614 130 75
f 331 80 659
f 103 673 56
f 67 676 171
f 619 34 33
f 678 577 62
f 681 342 53
f 80 682 137
f 4 685 165
f 686 103 571
f 354 586 152
f 198 576 9
f 151 689 142
f 690 190 539
f 108 69 578
f 143 412 408
f 699 585 454
f 46 593 65
f 700 590 409
f 685 269 165
f 701 150 57
f 301 447 704
f 706 407 62
f 245 187 536
f 658 707 378
f 120 30 31
f 412 168 464
f 274 393 70
f 384 383 322
f 560 487 392
f 353 116 84
f 82 469 96
f 717 6 422
f 719 22 355
f 534 561 722
f 181 327 650
f 363 671 436
f 93 496 110
f 52 212 474
f 348 551 575
f 726 720 622
f 628 629 98
f 455 729 474
f 734 96 160
f 502 668 519
f 404 736 737
f 389 484 738
f 90 162 390
f 348 134 580
f 361 739 495
f 55 85 702
f 163 391 173
f 45 740 258
f 674 190 715
f 317 180 151
f 443 118 181
f 699 342 14
f 44 683 337
f 713 748 203
f 414 335 7
f 17 202 111
f 247 151 750
f 421 54 225
f 9 134 198
f 352 351 557
f 89 405 549
f 597 752 81
f 492 753 548
f 246 338 78
f 190 467 716
f 327 639 650
f 113 158 100
f 36 762 763
f 13 400 231
f 297 726 392
f 382 78 764
f 248 440 307
f 765 179 54
f 241 132 280
f 766 424 423
f 767 523 768
f 113 16 96
f 662 240 314
f 115 198 425
f 36 770 489
f 25 543 66
f 25 239 144
f 331 774 119
f 341 488 503
f 636 635 165
f 669 11 362
f 151 247 318
f 408 412 378
f 364 713 777
f 6 463 396
f 297 711 345
f 759 243 447
f 178 253 3
f 779 57 496
f 159 363 189
f 575 85 55
f 136 375 130
f 289 9 482
f 66 214 25
f 180 564 565
f 781 67 171
f 190 332 783
f 754 191 84
f 785 71 84
f 348 288 287
f 395 640 115
f 464 168 173
f 524 470 512
f 377 150 186
f 522 115 787
f 377 164 299
f 18 788 68
f 545 140 76
f 94 789 61
f 362 790 424
f 274 392 644
f 40 489 200
f 354 152 775
f 414 334 335
f 794 360 388
f 278 531 530
f 163 179 765
f 202 175 600
f 727 726 622
f 370 189 371
f 255 579 228
f 346 106 405
f 177 710 115
f 708 790 362
f 342 465 53
f 54 524 512
f 489 40 795
f 80 331 119
f 199 198 692
f 796 32 166
f 799 180 569
f 748 713 260
f 278 186 122
f 239 128 797
f 467 690 539
f 376 91 557
f 13 800 11
f 180 317 318
f 50 392 341
f 488 802 503
f 256 761 410
f 40 166 86
f 760 492 548
f 804 545 698
f 306 296 805
f 40 389 795
f 487 726 242
f 777 713 233
f 674 537 190
f 269 74 253
f 566 695 188
f 808 307 369
f 131 264 72
f 526 253 177
f 211 128 303
f 84 451 647
f 206 709 394
f 103 476 64
f 256 610 500
f 658 694 50
f 484 733 221
f 345 724 551
f 350 512 10
f 32 34 166
f 423 486 620
f 677 33 166
f 323 379 538
f 81 73 144
f 196 414 7
f 503 592 523
f 360 212 434
f 106 105 405
f 708 325 379
f 339 376 557
f 80 137 313
f 301 400 3
f 360 187 388
f 523 142 290
f 712 229 230
f 818 126 293
f 400 668 535
f 10 441 350
f 347 295 819
f 214 698 59
f 197 301 3
f 395 822 548
f 766 823 11
f 457 825 35
f 826 474 143
f 215 333 214
f 787 115 584
f 195 104 92
f 664 587 245
f 247 667 180
f 341 691 468
f 75 403 53
f 41 547 185
f 473 472 256
f 697 182 247
f 625 624 208
f 783 332 659
f 90 688 517
f 9 8 728
f 13 583 351
f 213 239 797
f 217 570 737
f 85 36 489
f 410 409 829
f 695 181 188
f 792 293 61
f 719 355 148
f 766 11 424
f 122 22 831
f 372 153 180
f 383 365 405
f 208 832 206
f 549 405 365
f 833 168 577
f 457 378 173
f 242 834 488
f 468 455 50
f 836 188 582
f 343 713 344
f 245 749 233
f 125 23 529
f 291 649 269
f 668 830 417
f 598 213 367
f 437 389 745
f 594 123 758
f 56 34 686
f 407 441 572
f 690 467 190
f 578 191 108
f 269 717 422
f 495 739 410
f 673 103 601
f 839 188 372
f 70 623 392
f 311 142 387
f 654 587 751
f 396 351 91
f 459 345 842
f 662 314 844
f 132 124 381
f 517 537 674
f 368 40 87
f 121 269 433
f 517 688 190
f 727 622 392
f 407 572 62
f 207 92 208
f 364 210 118
f 342 681 359
f 359 15 342
f 131 631 354
f 291 848 154
f 713 723 344
f 96 469 365
f 429 395 604
f 90 270 123
f 851 764 78
f 51 16 497
f 290 142 145
f 48 13 351
f 242 852 297
f 272 770 36
f 104 195 647
f 379 324 141
f 266 854 69
f 389 489 795
f 333 512 140
f 389 437 85
f 152 586 471
f 342 15 14
f 322 444 181
f 447 232 400
f 839 372 180
f 143 794 388
f 258 740 538
f 152 471 632
f 858 577 388
f 583 138 243
f 555 6 376
f 261 561 278
f 400 39 850
f 170 507 283
f 78 813 859
f 143 707 658
f 130 861 20
f 300 284 321
f 65 593 258
f 20 355 21
f 366 421 624
f 732 20 137
f 47 60 298
f 400 535 43
f 183 697 247
f 351 837 34
f 337 107 513
f 165 98 263
f 76 652 77
f 818 293 89
f 730 56 601
f 57 299 110
f 116 117 743
f 450 746 53
f 864 91 6
f 383 302 118
f 641 115 542
f 762 104 431
f 484 522 738
f 793 238 597
f 18 125 529
f 95 89 703
f 370 588 29
f 246 258 538
f 613 551 724
f 605 212 52
f 137 539 190
f 61 300 268
f 134 289 580
f 737 570 64
f 41 185 184
f 315 121 608
f 173 661 163
f 808 230 307
f 530 450 278
f 401 402 247
f 294 553 656
f 668 866 535
f 367 867 239
f 488 341 755
f 693 238 512
f 831 22 278
f 8 41 728
f 238 333 215
f 348 287 493
f 108 146 705
f 395 149 640
f 447 747 231
f 10 168 441
f 641 542 454
f 18 70 643
f 682 79 137
f 251 427 200
f 321 492 39
f 188 307 440
f 814 718 93
f 633 239 525
f 48 351 483
f 509 273 510
f 496 57 110
f 622 560 392
f 201 175 202
f 807 447 231
f 416 10 415
f 63 236 132
f 314 418 131
f 366 872 316
f 545 76 698
f 47 295 60
f 512 793 597
f 595 780 160
f 659 80 313
f 515 505 259
f 23 35 862
f 58 214 59
f 54 815 316
f 210 327 181
f 668 620 486
f 316 815 421
f 105 642 302
f 9 41 488
f 266 36 854
f 760 3 492
f 380 381 270
f 501 559 511
f 360 874 212
f 846 538 78
f 770 272 489
f 228 602 146
f 145 341 503
f 337 130 375
f 25 282 239
f 347 12 237
f 99 7 358
f 323 538 876
f 257 118 511
f 301 704 400
f 242 9 834
f 619 33 686
f 778 148 129
f 436 588 363
f 297 287 242
f 163 661 10
f 235 438 116
f 824 243 759
f 347 668 502
f 850 39 492
f 878 424 11
f 708 379 502
f 116 131 354
f 68 436 671
f 812 346 562
f 160 521 554
f 453 315 177
f 223 222 533
f 88 87 40
f 137 419 136
f 158 541 157
f 471 631 131
f 446 658 857
f 538 740 45
f 395 445 178
f 304 240 844
f 270 308 180
f 403 402 767
f 421 609 208
f 35 23 803
f 178 881 253
f 691 341 273
f 359 112 547
f 264 265 116
f 108 743 117
f 775 410 829
f 426 584 425
f 726 727 392
f 37 14 653
f 750 151 767
f 619 686 34
f 159 882 370
f 218 248 679
f 834 9 488
f 610 410 500
f 125 50 694
f 48 483 34
f 69 84 883
f 784 282 491
f 55 745 389
f 84 71 353
f 606 243 13
f 341 145 52
f 881 178 177
f 585 14 454
f 350 490 140
f 512 224 54
f 107 337 786
f 544 512 350
f 576 14 9
f 419 124 167
f 621 348 575
f 868 381 124
f 158 515 250
f 327 369 639
f 394 71 206
f 484 368 522
f 835 403 547
f 87 886 269
f 791 109 258
f 105 654 558
f 232 231 400
f 512 238 793
f 511 118 630
f 266 272 504
f 19 60 346
f 187 434 212
f 708 502 424
f 148 22 719
f 298 60 19
f 195 206 645
f 354 838 310
f 566 181 695
f 450 530 534
f 230 808 369
f 845 323 141
f 457 803 817
f 124 594 758
f 39 268 300
f 137 827 732
f 541 20 506
f 130 561 129
f 19 792 61
f 4 635 5
f 128 211 607
f 92 206 195
f 472 24 256
f 210 277 118
f 537 517 190
f 451 69 647
f 111 295 296
f 37 359 8
f 248 188 440
f 573 383 405
f 713 364 260
f 280 680 270
f 13 485 361
f 484 220 368
f 355 541 156
f 20 841 148
f 691 273 468
f 652 246 282
f 190 594 80
f 786 890 63
f 29 724 891
f 529 788 18
f 507 172 109
f 203 589 723
f 162 219 161
f 780 180 160
f 397 3 269
f 176 127 328
f 172 507 170
f 253 121 433
f 238 550 333
f 130 337 75
f 436 624 92
f 399 382 303
f 512 421 224
f 284 94 718
f 271 515 286
f 800 361 11
f 202 581 663
f 790 708 424
f 160 735 574
f 367 480 479
f 241 247 675
f 335 334 7
f 33 103 686
f 187 435 434
f 410 880 409
f 538 338 246
f 413 655 563
f 895 297 348
f 548 822 3
f 8 359 547
f 63 107 875
f 395 753 492
f 241 820 532
f 212 874 474
f 574 735 566
f 252 438 579
f 137 896 827
f 431 69 897
f 838 13 310
f 591 698 333
f 229 712 222
f 300 94 284
f 304 394 477
f 511 559 205
f 412 143 276
f 162 161 390
f 900 312 260
f 901 94 93
f 54 179 163
f 400 492 892
f 33 796 166
f 535 816 43
f 347 819 47
f 245 858 388
f 104 29 588
f 608 253 315
f 136 827 896
f 341 461 487
f 145 142 311
f 27 282 25
f 586 354 471
f 617 489 389
f 166 87 86
f 782 861 130
f 6 555 422
f 132 133 124
f 81 752 238
f 253 433 269
f 802 41 503
f 284 687 328
f 396 91 864
f 250 520 390
f 9 728 41
f 111 562 346
f 147 551 29
f 120 95 51
f 273 341 52
f 214 58 725
f 505 515 308
f 713 902 245
f 126 89 120
f 538 382 851
f 365 160 684
f 620 400 904
f 248 307 679
f 76 26 25
f 37 653 359
f 856 652 282
f 620 904 423
f 325 708 326
f 73 81 238
f 791 246 109
f 133 167 124
f 689 387 142
f 329 396 864
f 100 99 16
f 125 18 865
f 377 127 176
f 552 23 378
f 158 162 541
f 447 807 232
f 421 208 624
f 393 18 643
f 200 28 801
f 888 575 551
f 759 447 339
f 355 156 21
f 546 132 241
f 884 905 679
f 533 222 212
f 62 906 442
f 872 457 316
f 188 836 52
f 202 870 62
f 2 237 65
f 556 457 366
f 297 852 726
f 52 153 188
f 673 601 56
f 117 438 252
f 523 290 145
f 843 557 351
f 20 782 841
f 527 208 309
f 117 252 579
f 424 502 519
f 348 621 55
f 409 880 13
f 642 105 558
f 181 566 322
f 176 398 908
f 741 639 369
f 591 804 698
f 447 243 747
f 262 129 452
f 123 868 124
f 722 561 75
f 159 345 70
f 667 247 270
f 83 105 581
f 188 665 877
f 241 532 546
f 879 180 565
f 905 218 679
f 131 71 394
f 170 67 175
f 442 350 596
f 296 17 508
f 186 127 377
f 269 6 717
f 7 16 358
f 223 307 222
f 413 228 438
f 339 243 824
f 819 295 47
f 563 655 310
f 762 36 811
f 35 529 862
f 526 177 315
f 308 569 565
f 466 517 357
f 584 522 787
f 529 23 862
f 58 59 698
f 595 666 180
f 587 203 511
f 281 90 123
f 896 137 136
f 287 481 482
f 295 651 60
f 581 202 83
f 523 41 184
f 302 642 558
f 722 75 534
f 565 569 879
f 647 195 84
f 52 218 910
f 116 438 117
f 172 170 109
f 508 17 111
f 900 260 364
f 327 230 369
f 151 387 689
f 821 269 121
f 373 190 123
f 278 450 646
f 193 244 448
f 903 125 393
f 843 660 557
f 885 141 45
f 108 267 266
f 348 289 288
f 64 404 737
f 527 309 528
f 762 29 406
f 700 409 13
f 203 501 511
f 214 333 698
f 302 383 573
f 342 127 278
f 100 414 196
f 297 623 70
f 51 7 120
f 702 85 437
f 239 282 784
f 250 907 209
f 357 757 466
f 572 441 462
f 62 442 441
f 190 716 715
f 71 116 353
f 351 352 91
f 658 23 857
f 575 55 621
f 457 889 316
f 52 455 273
f 180 153 656
f 95 120 89
f 515 271 308
f 526 315 253
f 230 855 712
f 612 678 62
f 541 162 757
f 217 103 64
f 841 782 148
f 20 136 130
f 170 171 676
f 669 670 424
f 126 818 89
f 230 187 742
f 398 894 328
f 129 782 893
f 336 28 200
f 188 180 665
f 144 367 304
f 413 227 226
f 224 421 225
f 196 7 100
f 128 213 797
f 495 362 638
f 307 639 741
f 69 36 897
f 371 189 588
f 828 347 502
f 328 849 542
f 497 16 7
f 118 840 630
f 875 786 63
f 395 177 445
f 432 647 69
f 208 609 309
f 293 19 89
f 359 653 14
f 147 36 97
f 454 115 641
f 263 376 339
f 144 73 214
f 474 360 143
f 205 312 420
f 336 772 272
f 594 373 123
f 860 261 129
f 584 55 522
f 328 115 284
f 771 233 187
f 809 62 192
f 825 556 35
f 91 352 557
f 569 180 879
f 132 381 380
f 560 622 487
f 276 143 169
f 115 149 428
f 762 811 147
f 83 714 587
f 380 270 132
f 65 141 46
f 514 468 50
f 48 911 228
f 627 567 654
f 284 604 321
f 327 210 364
f 561 860 129
f 863 147 97
f 228 911 56
f 109 170 1
f 115 14 199
f 813 303 859
f 245 902 343
f 394 709 386
f 904 400 423
f 136 337 375
f 302 405 105
f 141 12 502
f 62 441 706
f 246 652 458
f 654 511 302
f 231 606 13
f 404 28 736
f 140 490 67
f 185 547 184
f 91 603 6
f 180 271 305
f 680 744 270
f 214 66 144
f 54 163 10
f 302 840 118
f 154 848 269
f 183 247 241
f 658 446 125
f 56 686 571
f 617 389 85
f 162 90 517
f 669 424 878
f 44 403 75
f 522 389 738
f 333 140 460
f 190 783 659
f 461 341 392
f 865 18 393
f 842 345 551
f 87 396 463
f 192 62 648
f 193 448 192
f 306 175 174
f 683 44 75
f 259 250 249
f 322 118 443
f 428 430 604
f 23 457 817
f 490 350 67
f 347 830 668
f 436 68 366
f 85 863 97
f 877 595 188
f 151 194 767
f 393 274 644
f 515 249 250
f 228 413 48
f 300 321 39
f 164 176 299
f 245 42 749
f 615 318 247
f 396 87 34
f 465 342 278
f 18 540 159
f 851 382 764
f 89 19 405
f 32 796 33
f 761 495 410
f 3 397 4
f 203 205 501
f 140 544 350
f 12 347 828
f 93 94 61
f 416 168 10
f 635 4 165
f 592 41 523
f 855 212 712
f 148 278 22
f 11 400 13
f 214 76 25
f 62 577 648
f 82 95 365
f 721 183 241
f 239 867 637
f 757 162 517
f 254 356 213
f 354 775 13
f 474 456 455
f 302 573 405
f 203 723 713
f 798 316 163
f 299 284 110
f 202 600 870
f 79 657 137
f 168 572 462
f 568 96 554
f 241 63 820
f 169 143 168
f 400 11 423
f 111 202 663
f 237 306 295
f 755 341 487
f 307 884 679
f 334 414 541
f 237 141 65
f 412 276 275
f 814 110 718
f 253 881 177
f 205 204 260
f 368 221 40
f 98 154 376
f 372 188 153
f 256 672 314
f 60 111 346
f 330 109 2
f 240 662 844
f 888 551 147
f 418 314 672
f 116 108 191
f 78 303 813
f 541 357 517
f 327 234 233
f 9 14 37
f 19 293 792
f 322 160 365
f 382 399 78
f 588 370 371
f 561 614 75
f 124 137 594
f 455 510 273
f 561 534 278
f 778 278 148
f 324 379 323
f 436 92 588
f 409 590 775
f 469 82 365
f 208 386 832
f 117 146 108
f 245 448 244
f 202 17 201
f 46 885 45
f 219 907 250
f 367 254 304
f 187 887 771
f 107 44 513
f 83 102 599
f 394 304 314
f 583 843 351
f 270 247 182
f 259 308 250
f 36 69 854
f 491 246 633
f 882 159 189
f 544 140 512
f 635 3 5
f 239 213 598
f 590 13 775
f 142 194 151
f 256 495 761
f 284 398 687
f 29 762 147
f 652 283 458
f 887 230 771
f 616 76 140
f 623 297 392
f 294 180 553
f 125 903 392
f 41 869 547
f 314 240 213
f 731 67 600
f 270 183 280
f 122 150 411
f 339 557 243
f 230 887 187
f 457 35 803
f 890 136 63
f 704 447 400
f 162 158 219
f 412 275 168
f 508 111 296
f 873 18 159
f 269 516 154
f 348 493 895
f 182 183 270
f 449 413 354
f 815 54 421
f 238 215 499
f 297 70 711
f 528 309 776
f 365 384 322
f 35 366 68
f 768 547 767
f 155 386 319
f 342 699 909
f 654 567 587
f 421 611 316
f 24 495 256
f 3 618 178
f 122 831 278
f 786 136 890
f 492 3 892
f 574 595 160
f 487 461 392
f 518 242 488
f 533 218 307
f 693 550 238
f 496 93 779
f 13 139 583
f 583 243 557
f 767 402 401
f 500 471 256
f 90 281 190
f 421 512 597
f 716 467 715
f 379 473 382
f 782 129 148
f 617 85 489
f 682 80 79
f 29 613 724
f 199 14 198
f 187 42 536
f 365 703 89
f 754 116 191
f 116 754 84
f 399 303 78
f 54 470 524
f 629 628 263
f 765 54 316
f 58 76 725
f 176 135 284
f 168 276 169
f 181 277 210
f 723 589 587
f 432 69 431
f 756 170 283
f 104 647 634
f 595 566 188
f 246 791 258
f 382 473 256
f 889 173 316
f 15 359 14
f 538 851 78
f 98 165 291
f 233 806 364
f 708 362 326
f 273 509 468
f 175 67 731
f 8 9 38
f 696 205 420
f 804 591 545
f 188 218 582
f 115 522 177
f 447 301 339
f 159 370 345
f 734 160 554
f 533 307 223
f 67 283 140
f 587 448 245
f 563 13 413
f 359 681 53
f 272 36 504
f 35 68 529
f 569 308 271
f 245 577 858
f 735 160 566
f 7 334 374
f 259 505 308
f 367 356 254
f 52 836 218
f 40 200 166
f 575 888 147
f 794 143 360
f 402 241 675
f 657 79 594
f 283 109 246
f 751 511 654
f 710 395 115
f 741 369 307
f 410 775 500
f 50 285 143
f 120 293 847
f 314 304 844
f 173 415 10
f 160 96 684
f 541 517 467
f 109 283 507
f 180 780 595
f 65 109 330
f 188 853 307
f 438 228 579
f 523 547 768
f 438 235 354
f 336 200 772
f 720 726 487
f 120 31 57
f 494 7 411
f 397 269 4
f 129 893 130
f 103 475 146
f 22 541 355
f 732 827 20
f 303 633 859
f 457 173 889
f 323 45 141
f 144 304 81
f 242 726 852
f 769 304 254
f 160 305 271
f 362 361 638
f 532 63 132
f 723 664 245
f 710 177 395
f 538 379 382
f 748 260 203
f 222 230 229
f 9 37 38
f 96 521 114
f 177 368 453
f 870 600 62
f 143 285 826
f 76 283 652
f 71 785 195
f 146 117 228
f 282 76 856
f 322 279 160
f 260 312 205
f 319 528 776
f 309 319 776
f 577 245 192
f 22 411 7
f 612 572 577
f 104 634 431
f 136 419 63
f 187 360 435
f 6 87 463
f 541 467 20
f 334 22 374
f 93 61 120
f 785 84 195
f 362 898 326
f 678 612 577
f 271 286 113
f 699 127 909
f 187 212 742
f 328 542 115
f 511 751 587
f 165 649 291
f 316 611 366
f 410 610 256
f 866 417 535
f 322 443 444
f 269 685 4
f 48 227 13
f 329 864 6
f 362 379 898
f 361 362 11
f 575 147 85
f 705 146 28
f 247 180 615
f 102 62 599
f 373 594 190
f 583 139 138
f 828 502 12
f 540 18 363
f 128 239 633
f 53 835 547
f 271 113 521
f 166 103 677
f 558 654 302
f 522 368 177
f 62 809 448
f 239 479 144
f 339 301 165
f 618 3 395
f 324 845 141
f 767 194 142
f 98 292 154
f 87 821 121
f 347 47 417
f 829 409 775
f 880 410 13
f 248 218 188
f 550 693 333
f 244 192 245
f 125 446 23
f 706 441 407
f 213 769 254
f 280 132 680
f 108 266 69
f 171 756 283
f 477 394 81
f 385 28 336
f 898 379 326
f 50 49 285
f 151 294 311
f 118 322 383
f 201 17 175
f 778 129 278
f 534 75 53
f 188 181 853
f 303 128 633
f 441 596 350
f 603 376 6
f 45 323 876
f 278 129 262
f 113 96 114
f 105 562 111
f 620 668 400
f 410 739 361
f 753 395 548
f 27 26 282
f 452 261 262
f 583 660 843
f 587 105 83
f 13 361 800
f 22 334 541
f 132 419 167
f 8 547 869
f 835 53 403
f 670 362 424
f 86 88 40
f 269 422 516
f 699 454 127
f 36 763 431
f 279 810 160
f 17 306 174
f 67 781 283
f 320 263 339
f 604 395 321
f 853 181 307
f 779 93 57
f 860 561 261
f 230 327 233
f 141 885 46
f 414 158 157
f 567 105 587
f 850 492 400
f 302 511 840
f 34 87 166
f 233 42 187
f 280 183 721
f 118 277 181
f 503 523 145
f 282 26 76
f 476 103 166
f 83 62 448
f 757 517 466
f 134 348 55
f 366 457 872
f 525 239 491
f 364 312 900
f 449 310 413
f 206 386 709
f 742 212 230
f 600 67 62
f 36 431 897
f 328 127 454
f 115 604 284
f 28 737 736
f 512 470 10
f 665 180 666
f 40 484 389
f 284 718 340
f 209 158 250
f 67 170 676
f 542 849 454
f 23 446 857
f 450 465 646
f 566 595 574
f 471 131 418
f 218 884 307
f 279 566 810
f 45 258 46
f 817 803 23
f 92 104 588
f 427 64 166
f 217 737 28
f 30 411 150
f 283 246 458
f 656 153 294
f 531 534 530
f 43 61 268
f 723 343 344
f 20 861 782
f 280 721 241
f 767 401 247
f 37 8 38
f 611 421 366
f 228 601 602
f 57 31 30
f 712 212 222
f 743 108 116
f 212 605 533
f 500 775 471
f 744 132 270
f 29 891 345
f 498 668 423
f 822 395 3
f 478 268 39
f 493 297 895
f 448 587 714
f 609 421 309
f 309 597 81
f 598 367 239
f 218 533 910
f 424 519 668
f 10 470 54
f 405 19 346
f 175 237 2
f 320 339 165
f 773 145 626
f 180 308 564
f 189 363 588
f 378 143 408
f 57 93 120
f 427 166 200
f 213 356 367
f 168 143 577
f 219 209 907
f 365 684 96
f 209 219 158
f 206 832 386
f 715 467 517
f 547 112 53
f 87 269 821
f 388 577 143
f 72 71 131
f 529 68 788
f 241 44 63
f 153 52 294
f 35 556 366
f 636 165 3
f 429 428 395
f 554 521 568
f 882 189 370
f 123 381 868
f 265 131 116
f 823 766 423
f 115 428 604
f 265 264 131
f 161 219 390
f 144 543 25
f 14 115 454
f 77 652 871
f 422 555 376
f 311 773 626
f 456 474 285
f 347 417 830
f 415 173 416
f 680 132 744
f 675 247 402
f 337 683 75
f 465 278 646
f 136 786 337
f 186 150 122
f 306 237 175
f 8 869 41
f 105 812 562
f 584 115 425
f 64 200 801
f 823 423 11
f 758 123 124
f 350 62 67
f 128 256 314
f 572 168 833
f 816 298 43
f 215 214 499
f 495 638 361
f 96 734 554
f 63 419 236
f 607 211 256
f 307 230 222
f 520 250 90
f 155 81 386
f 16 99 358
f 633 78 859
f 468 509 455
f 217 216 103
f 220 221 368
f 84 69 451
f 287 482 9
f 478 39 400
f 455 52 729
f 49 50 455
f 238 214 73
f 118 257 312
f 123 270 381
f 284 340 110
f 391 163 316
f 820 63 532
f 143 658 50
f 494 411 30
f 170 2 1
f 103 33 677
f 197 165 301
f 284 299 176
f 285 474 826
f 697 183 182
f 20 156 506
f 269 886 6
f 20 148 355
f 316 798 765
f 98 629 263
f 459 349 297
f 190 281 123
f 444 443 181
f 246 491 282
f 513 44 337
f 115 692 198
f 173 378 412
f 825 457 556
f 234 327 806
f 901 718 94
f 581 105 111
f 894 176 328
f 181 639 307
f 484 40 733
f 125 694 658
f 228 56 730
f 76 871 856
f 547 523 184
f 186 278 127
f 271 799 569
f 258 109 65
f 261 452 129
f 293 120 61
f 437 55 702
f 295 306 805
f 241 402 44
f 43 268 400
f 271 521 160
f 299 57 150
f 474 874 360
f 359 53 112
f 465 450 53
f 84 191 883
f 657 594 137
f 661 173 10
f 131 394 314
f 82 439 51
f 354 310 449
f 287 9 242
f 847 126 120
f 34 56 48
f 846 338 538
f 28 385 108
f 411 22 122
f 283 781 171
f 330 2 65
f 144 66 543
f 392 903 393
f 720 487 622
f 51 439 16
f 413 310 655
f 42 233 749
f 49 455 285
f 130 893 782
f 570 217 64
f 471 354 631
f 577 192 648
f 331 190 774
f 674 715 517
f 13 227 413
f 332 331 659
f 518 487 242
f 587 589 203
f 394 386 81
f 287 289 481
f 283 76 616
f 231 232 807
f 299 150 377
f 625 92 624
f 226 48 413
f 692 115 199
f 867 367 637
f 256 303 382
f 771 230 233
f 547 403 767
f 266 267 336
f 656 553 180
f 552 457 23
f 149 395 428
f 70 18 873
f 28 146 475
f 76 77 871
f 128 607 256
f 17 174 175
f 70 873 159
f 729 52 474
f 137 467 539
f 293 126 847
f 703 365 95
f 420 312 511
f 906 350 442
f 246 78 633
f 191 69 883
f 237 295 347
f 128 314 213
f 608 121 253
f 457 552 378
f 659 137 190
f 214 238 499
f 512 333 693
f 577 572 833
f 388 187 245
f 477 81 304
f 319 309 81
f 773 311 52
f 325 326 379
f 2 170 175
f 487 488 755
f 251 64 427
f 61 298 19
f 540 363 159
f 525 491 633
f 669 878 11
f 417 866 668
f 240 304 213
f 3 400 892
f 211 303 256
f 746 450 534
f 376 628 98
f 798 163 765
f 438 354 413
f 357 541 757
f 29 551 613
f 200 64 251
f 208 527 528
f 340 718 110
f 351 396 837
f 50 125 392
f 94 300 789
f 760 548 3
f 811 36 147
f 214 725 76
f 775 632 471
f 652 856 871
f 590 700 13
f 212 855 230
f 165 197 3
f 849 328 454
f 521 113 114
f 572 612 62
f 119 774 80
f 150 701 30
f 789 300 61
f 272 200 489
f 233 234 806
f 152 632 775
f 511 630 840
f 899 471 418
f 723 587 664
f 877 665 595
f 298 417 47
f 321 395 492
f 18 68 363
f 467 137 20
f 176 908 135
f 711 70 345
f 541 414 157
f 908 398 135
f 836 582 218
f 421 597 309
f 30 120 7
f 568 521 96
f 398 176 894
f 816 535 298
f 348 459 551
f 774 190 80
f 763 762 431
f 845 324 323
f 393 125 865
f 206 71 645
f 202 62 102
f 628 376 263
f 154 516 422
f 272 266 336
f 44 107 63
f 286 515 113
f 83 202 102
f 387 151 311
f 13 243 139
f 7 494 30
f 345 891 724
f 362 495 24
f 660 583 557
f 52 910 533
f 255 117 579
f 651 111 60
f 439 82 16
f 406 29 104
f 733 40 221
f 93 110 814
f 43 298 61
f 424 668 498
f 346 812 105
f 134 55 198
f 245 233 713
f 571 103 56
f 718 901 93
f 601 228 730
f 100 158 414
f 62 350 906
f 262 261 278
f 51 497 7
f 83 448 714
f 671 363 68
f 876 538 45
f 64 801 28
f 23 658 378
f 208 528 319
f 24 473 362
f 160 810 566
f 12 141 237
f 747 243 231
f 264 116 71
f 777 233 364
f 435 360 434
f 545 591 333
f 535 417 298
f 292 291 154
f 567 627 105
f 784 491 239
f 379 141 502
f 649 165 269
f 523 767 142
f 238 752 597
f 809 192 448
f 105 627 654
f 772 200 272
f 78 338 846
f 95 82 51
f 308 270 90
f 243 606 231
f 514 341 468
f 453 368 315
f 283 616 140
f 250 308 90
f 55 389 522
f 6 886 87
f 28 108 705
f 137 659 313
f 9 289 134
f 113 100 16
f 688 90 190
f 367 479 637
f 905 884 218
f 354 13 838
f 55 437 745
f 563 310 13
f 104 762 406
f 911 48 56
f 173 412 464
f 488 41 802
f 594 79 80
f 515 158 113
f 441 168 462
f 312 364 118
f 180 305 160
f 511 205 696
f 863 85 147
f 386 208 319
f 459 842 551
f 146 601 103
f 127 342 909
f 304 769 213
f 130 614 561
f 256 418 672
f 875 107 786
f 750 767 247
f 295 805 296
f 235 116 354
f 348 349 459
f 707 143 378
f 485 410 361
f 605 52 533
f 327 364 806
f 390 219 250
f 634 647 431
f 436 366 624
f 687 398 328
f 180 799 271
f 746 534 53
f 44 402 403
f 146 602 601
f 592 503 41
f 76 58 698
f 101 100 7
f 351 34 483
f 29 345 370
f 511 696 420
f 668 486 423
f 663 581 111
f 902 713 343
f 343 723 245
f 701 57 30
f 124 419 137
f 243 138 139
f 256 899 418
f 136 20 827
f 145 773 52
f 848 291 269
f 329 6 396
f 55 425 198
f 476 166 64
f 269 3 74
f 156 541 506
f 192 244 193
f 493 287 297
f 396 34 837
f 188 839 180
f 256 471 899
f 731 600 175
f 756 171 170
f 109 1 2
f 824 759 339
f 699 14 585
