v 0.0026 0.384173 -0.139009
v 0.0026 0.378657 -0.159468
v -0.335135 0.007513 -0.25555
v -0.350916 -0.008982 -0.25555
v -0.351116 0.010235 -0.25555
v -0.4603 0.053968 -0.102891
v 0.198802 -0.140373 -0.25555
v 0.04084 -0.098469 -0.085169
v 0.05521 -0.091974 -0.08141
v 0.096835 0.228703 0.034398
v -0.224971 0.213969 -0.241523
v -0.103699 0.352625 -0.25555
v -0.313869 0.131124 -0.044779
v -0.032394 -0.165021 -0.105267
v -0.033099 -0.180973 -0.108071
v 0.229845 -0.102934 -0.25555
v 0.07542 0.33684 -0.240042
v 0.059551 0.052213 0.181679
v 0.103026 0.118042 -0.25555
v 0.207376 -0.434921 -0.25555
v 0.205319 -0.418923 -0.25555
v 0.122578 -0.298291 -0.25555
v 0.155049 0.123567 0.164201
v -0.207 0.316909 -0.119043
v -0.042873 0.488383 0.098989
v -0.045491 0.486528 0.083098
v -0.058035 0.487972 0.093265
v -0.387349 0.00279 0.241719
v -0.113838 0.019026 0.253114
v 0.075722 -0.08246 -0.25555
v 0.080379 -0.063241 -0.25555
v -0.4603 -0.021976 0.065229
v -0.4603 -0.007105 0.071684
v -0.4603 -0.008917 0.055649
v 0.1473 0.15919 0.228388
v -0.243528 0.019026 0.253114
v 0.026466 -0.105085 -0.088764
v 0.012811 -0.097448 -0.084549
v -0.192223 0.025903 -0.25555
v -0.360199 -0.024454 0.04223
v 0.140398 -0.102766 -0.09887
v 0.299978 0.160921 -0.10739
v -0.087829 0.107817 -0.25555
v 0.216219 -0.279807 -0.12554
v -0.081781 0.463531 -0.200934
v -0.064962 0.463377 -0.209077
v -0.000336 0.235334 -0.25555
v -0.411694 0.118955 0.038057
v 0.243178 0.020975 0.004592
v 0.230812 0.02297 0.016004
v 0.196962 -0.05461 -0.25555
v 0.331774 0.011207 -0.050726
v 0.105154 -0.234718 -0.117544
v 0.060393 0.289358 0.13991
v 0.049245 -0.101174 -0.25555
v 0.0026 0.428775 0.060719
v 0.0026 0.413821 0.068243
v 0.147477 0.306479 -0.05912
v 0.280403 -0.363157 -0.140231
v -0.383104 -0.008309 0.171924
v -0.020387 0.455841 -0.192721
v -0.02682 0.494043 0.155197
v -0.264149 0.044353 0.248652
v 0.075251 0.027516 0.12114
v -0.25011 0.164087 0.227519
v -0.264373 0.181252 0.224499
v -0.053558 0.371636 0.190943
v -0.379609 -0.046342 -0.227474
v -0.035683 0.481185 0.057302
v -0.050721 0.482287 0.051206
v -0.18883 0.461892 -0.032732
v 0.4603 -0.489104 -0.172471
v 0.4603 -0.485274 -0.187703
v -0.067597 0.315759 0.200798
v 0.275948 -0.025335 -0.25555
v 0.227009 0.319549 -0.187477
v -0.207991 0.108214 0.237396
v -0.176221 -0.020823 0.075273
v -0.403249 -0.026954 0.019744
v -0.389542 -0.028372 0.011205
v 0.446261 -0.345992 -0.25555
v -0.4603 0.109712 -0.068943
v -0.053558 0.19602 0.221905
v -0.17493 -0.017023 0.107446
v -0.4603 0.047123 -0.24172
v 0.231685 -0.188697 -0.25555
v 0.247667 -0.191418 -0.25555
v 0.237319 -0.203897 -0.25555
v 0.191964 0.32439 -0.145109
v -0.4603 0.074707 0.195706
v -0.095676 0.076282 0.243013
v 0.233749 0.209714 -0.25555
v 0.256005 -0.376843 -0.142645
v -0.316548 0.032891 0.250667
v -0.016689 0.458602 -0.08384
v 0.001393 -0.092516 -0.25555
v 0.088997 0.277088 -0.25555
v 0.078478 -0.201637 -0.111742
v 0.373676 -0.127426 -0.25555
v -0.205596 -0.111729 -0.156441
v -0.336435 0.156167 0.22893
v -0.372999 0.145582 0.217621
v 0.4603 0.17606 -0.25555
v 0.4603 -0.467602 -0.227729
v 0.064286 -0.302607 -0.25555
v 0.446263 -0.407004 -0.166476
v 0.432236 -0.398916 -0.167293
v 0.167681 0.044123 0.135943
v 0.125562 0.057239 -0.25555
v -0.048646 -0.263731 -0.194678
v 0.120529 -0.406378 -0.190271
v 0.129103 -0.411104 -0.176713
v -0.236766 0.22413 0.159921
v 0.359788 -0.358149 -0.164644
v 0.36897 -0.371473 -0.164257
v -0.099722 -0.162729 -0.25555
v 0.232968 -0.458579 -0.157019
v 0.36339 -0.491609 -0.162909
v -0.371548 0.111901 -0.066514
v -0.356624 0.114918 -0.060947
v 0.044117 0.352885 -0.016164
v 0.227887 -0.096574 -0.161533
v 0.245348 -0.057458 -0.099634
v 0.108871 -0.383744 -0.25555
v -0.229527 -0.097711 -0.160826
v 0.286709 -0.153164 -0.179029
v -0.256931 0.183526 0.054959
v -0.4603 -0.024935 -0.199078
v -0.081637 0.291811 0.205016
v 0.236288 -0.403103 -0.25555
v 0.243974 -0.304181 -0.25555
v 0.054987 0.019712 0.231101
v 0.39253 -0.016704 -0.25555
v 0.388626 -0.329353 -0.25555
v 0.070857 0.198903 0.107629
v -0.039997 -0.142434 -0.25555
v -0.414382 -0.018816 0.092744
v 0.378223 -0.384767 -0.163531
v 0.176477 0.175177 -0.026705
v 0.172219 0.177942 -0.011003
v 0.016418 0.352251 -0.081353
v 0.030257 0.350493 -0.073094
v 0.0026 0.420572 -0.07759
v 0.109048 0.188289 0.047636
v 0.034555 0.343432 -0.227704
v -0.316563 -0.061309 -0.206348
v -0.330787 -0.057193 -0.213986
v 0.066738 0.201581 0.123078
v 0.389302 -0.076113 -0.205501
v 0.4603 0.099128 -0.228031
v 0.369352 -0.204825 -0.193634
v 0.362698 -0.21912 -0.189866
v 0.171399 -0.126663 -0.119897
v 0.164897 -0.140757 -0.112407
v 0.342425 0.162685 -0.097496
v 0.447345 -0.041605 -0.148109
v 0.040261 0.027733 0.251575
v 0.4603 -0.402732 -0.25555
v -0.278188 0.084265 0.241609
v 0.219032 0.246107 -0.11738
v 0.227476 0.25728 -0.125546
v 0.22811 -0.154473 -0.151481
v 0.248587 -0.234299 -0.25555
v -0.379262 0.104386 -0.25555
v -0.100146 -0.107615 -0.089979
v -0.11453 -0.114467 -0.092974
v -0.328279 -0.013131 0.137633
v 0.100853 0.334163 -0.180454
v 0.116818 0.332092 -0.178544
v 0.444093 0.308587 -0.209001
v 0.4603 0.3085 -0.20935
v 0.4603 0.308305 -0.224344
v -0.123755 0.172072 0.226124
v -0.109715 0.164091 0.227538
v -0.109715 0.180056 0.224722
v 0.402766 -0.246312 -0.25555
v 0.4603 0.159848 -0.25555
v -0.207 0.36193 0.009296
v 0.330864 0.084814 -0.047805
v -0.207 0.422224 0.168024
v 0.0026 0.426678 0.125411
v 0.0026 0.407278 0.135717
v -0.4603 0.048235 0.219545
v -0.4603 0.027203 0.219189
v 0.423481 0.00447 -0.088996
v 0.355743 -0.281029 -0.25555
v -0.292252 -0.036663 -0.01582
v -0.305931 -0.033694 -0.007721
v 0.393863 0.057622 -0.064213
v 0.390249 0.042219 -0.060676
v 0.056149 0.294198 0.176126
v 0.056207 0.278109 0.178118
v -0.371421 0.119475 0.023416
v -0.38647 0.117408 0.017753
v -0.4603 0.133579 0.153671
v 0.41726 0.111053 -0.077946
v 0.432259 0.116319 -0.080585
v -0.275082 0.148948 -0.193145
v -0.265917 0.157019 -0.203808
v 0.395731 0.148832 -0.17586
v 0.411784 0.148479 -0.178095
v -0.273784 0.184193 0.180821
v 0.339868 -0.400988 -0.152345
v -0.207 0.392992 0.135212
v 0.316906 -0.318646 -0.160385
v 0.073688 -0.030733 0.001118
v 0.245384 0.237438 -0.134145
v 0.250131 0.221923 -0.134354
v -0.133412 0.473737 -0.026051
v 0.306936 -0.207942 -0.176484
v 0.4603 0.012419 -0.119517
v 0.432221 -0.212325 -0.25555
v 0.432221 -0.228536 -0.25555
v -0.370042 -0.011801 0.147315
v -0.340109 0.145243 0.170705
v -0.361396 -0.048591 -0.166145
v -0.192961 0.440121 0.17886
v -0.432444 0.137971 0.182735
v -0.207 0.326549 -0.013177
v 0.446261 0.200377 -0.25555
v -0.068141 0.465191 -0.150682
v 0.446261 -0.173978 -0.25555
v 0.446522 0.252246 -0.19915
v 0.077751 -0.378938 -0.199661
v 0.067432 -0.371753 -0.209892
v -0.427877 0.1035 -0.25555
v -0.267456 0.196927 0.221741
v -0.261584 0.200001 0.206947
v -0.284057 0.0052 0.25555
v -0.300268 0.0052 0.25555
v -0.432239 -0.038222 -0.142065
v 0.446619 -0.101068 -0.25555
v -0.270878 -0.008942 0.167507
v 0.08323 0.03728 0.097198
v 0.166879 0.183287 0.019384
v 0.164425 0.181139 0.00698
v 0.432377 0.130594 -0.25555
v 0.39161 0.026177 -0.25555
v 0.377068 -0.287663 -0.18046
v 0.4603 -0.355069 -0.226954
v -0.091183 0.484117 0.065368
v 0.0026 0.403327 -0.004719
v 0.252437 0.036625 0.012433
v 0.433208 -0.135854 -0.25555
v -0.010471 -0.029803 0.004363
v -0.011129 -0.034815 -0.01104
v 0.205846 -0.061325 -0.121923
v -0.4603 -0.011294 -0.223384
v -0.4603 0.001548 -0.213491
v 0.098313 0.090362 -0.25555
v 0.338423 -0.072096 -0.183032
v 0.068302 0.252129 -0.25555
v 0.056381 0.325512 -0.25555
v 0.078398 -0.019973 0.082932
v -0.339654 0.112713 -0.241512
v 0.355045 0.246026 -0.25555
v -0.207 0.381426 -0.028908
v 0.446833 -0.067134 -0.25555
v 0.034551 0.34329 -0.25555
v 0.432498 0.04113 -0.067321
v -0.009745 0.273606 0.208225
v -0.30353 0.143769 0.034453
v 0.4603 0.233372 -0.210367
v 0.432758 -0.498794 -0.194734
v -0.324333 -0.056993 -0.135742
v 0.103714 0.202052 0.125721
v 0.330196 -0.123615 -0.198732
v 0.339269 -0.137049 -0.198815
v -0.067597 0.283829 0.20643
v -0.411666 0.103646 -0.227472
v 0.396323 0.053857 -0.25555
v -0.142216 0.463102 -0.227479
v -0.15851 0.463103 -0.227445
v -0.207 0.365364 -0.227471
v -0.207 0.349152 -0.227471
v -0.145423 -0.157585 -0.18535
v -0.4603 0.047297 -0.060522
v 0.0026 0.415896 -0.185367
v 0.444091 -0.499741 -0.25555
v 0.41171 -0.498136 -0.25555
v 0.029469 0.375022 0.140869
v 0.191216 -0.281496 -0.25555
v 0.185582 -0.266295 -0.25555
v -0.308374 0.002779 0.241721
v 0.199184 -0.390349 -0.144991
v -0.165934 0.469937 -0.053728
v -0.057819 -0.05395 -0.25555
v -0.054671 -0.232834 -0.117248
v 0.331162 0.256019 -0.178663
v 0.348174 0.256033 -0.184063
v -0.035296 -0.019669 0.085817
v -0.02159 -0.020673 0.077217
v 0.137415 0.336311 -0.051369
v -0.4603 0.098739 -0.027368
v -0.4603 0.097468 -0.043666
v -0.265914 0.143154 0.231231
v -0.296364 0.155449 0.097824
v 0.165808 -0.334136 -0.25555
v -0.198291 0.478537 0.172093
v 0.315274 -0.373828 -0.25555
v 0.214784 -0.143094 -0.25555
v 0.288391 0.159089 -0.037073
v -0.213664 0.245862 -0.183515
v -0.210202 0.260847 -0.178389
v 0.333318 0.021861 -0.25555
v -0.162375 0.485045 0.17094
v 0.4603 0.081758 -0.129559
v 0.013772 0.019026 0.253114
v 0.444094 -0.065217 -0.143834
v 0.4603 -0.418943 -0.227471
v 0.147986 -0.245652 -0.25555
v 0.209317 -0.449881 -0.169514
v -0.207 0.403875 -0.180402
v 0.423579 -0.353788 -0.174717
v 0.416843 -0.368191 -0.171553
v 0.289168 0.100587 -0.25555
v -0.332691 0.0052 0.25555
v -0.109715 0.29181 0.205012
v 0.255278 -0.0716 -0.179932
v -0.232979 -0.022382 0.061398
v 0.446261 -0.293253 -0.25555
v 0.101773 0.19771 0.10111
v 0.170253 0.036984 0.095425
v -0.275329 -0.076487 -0.201522
v -0.4603 0.02347 -0.045665
v -0.40201 -0.029091 -0.25555
v -0.142746 -0.160806 -0.25555
v -0.202889 0.440432 -0.080698
v 0.238741 -0.195992 -0.149822
v 0.147253 -0.226555 -0.11614
v -0.409872 -0.003235 0.205051
v 0.267322 0.175635 -0.25555
v -0.138155 0.036056 0.250114
v 0.149891 0.231746 -0.048842
v 0.164565 0.194145 0.080738
v -0.234956 0.200643 -0.083411
v -0.233642 0.203918 -0.067588
v 0.147676 0.18912 0.0524
v -0.324621 0.13727 0.071205
v 0.211911 -0.256537 -0.25555
v 0.104313 0.198592 0.025087
v 0.112347 0.19614 0.011222
v 0.445187 0.266952 -0.25555
v 0.0554 0.255775 0.197114
v -0.4603 0.012986 -0.115547
v -0.205541 0.224149 -0.25555
v -0.200335 0.240765 -0.25555
v -0.180086 -0.067953 -0.062235
v -0.385037 -0.014967 0.123787
v -0.214481 -0.106962 -0.182654
v -0.225466 -0.100777 -0.192847
v -0.212469 -0.108525 -0.198666
v -0.179913 0.044352 0.248649
v -0.196381 0.048192 0.247975
v -0.408197 -0.039804 -0.132268
v 0.316367 0.156199 -0.053186
v 0.302143 0.157573 -0.045524
v -0.164942 -0.030391 0.002726
v 0.259966 -0.022614 -0.25555
v 0.4603 0.038105 -0.141065
v 0.126758 0.299775 -0.029993
v 0.379421 0.09946 -0.25555
v 0.385055 0.084259 -0.25555
v -0.30848 -0.0642 -0.220099
v 0.173518 0.068969 0.117082
v -0.302625 0.129247 -0.228016
v 0.249137 0.304974 -0.148401
v -0.299872 0.149484 0.066149
v 0.015695 -0.328033 -0.133998
v -0.222031 0.068299 0.244422
v 0.088049 -0.386291 -0.213433
v -0.314305 -0.058883 -0.109583
v 0.285879 0.044294 -0.015198
v 0.27424 0.056642 -0.009018
v 0.157796 0.204411 0.139025
v -0.045291 0.475662 -0.006608
v -0.034004 -0.015739 0.117974
v 0.049574 0.366726 0.108069
v 0.143914 0.019226 -0.005093
v 0.133638 0.225882 -0.026712
v -0.4603 -0.002981 -0.031779
v 0.139488 0.186719 0.038616
v 0.341602 -0.36407 -0.25555
v 0.2029 0.012092 -0.045504
v 0.30699 0.012103 -0.25555
v 0.072075 0.299414 0.085946
v -0.22408 0.236003 0.074069
v -0.207 0.34788 -0.109452
v 0.280254 0.086962 -0.018804
v -0.4603 0.079553 0.214267
v -0.4603 -0.014236 0.12961
v -0.178806 0.356186 0.193658
v -0.193144 0.068784 -0.25555
v -0.132384 0.497617 0.154464
v -0.124279 0.5 0.1683
v 0.001928 -0.04552 -0.033424
v 0.001292 -0.054729 -0.046684
v -0.4603 0.103119 0.021324
v -0.264204 -0.037018 -0.016805
v -0.24661 0.181554 -0.120006
v -0.169576 0.207186 -0.25555
v 0.137949 -0.028359 0.010964
v 0.148088 -0.031486 -0.001293
v 0.111832 0.340668 -0.039754
v -0.260862 0.009108 -0.25555
v 0.033875 -0.022707 0.058893
v 0.162126 -0.16261 -0.25555
v 0.027722 -0.082758 -0.25555
v 0.197882 -0.097491 -0.25555
v -0.173615 0.234848 -0.25555
v 0.0026 0.418575 0.14201
v -0.219498 0.235326 -0.042074
v 0.444971 0.30818 -0.25555
v -0.149438 0.330831 -0.25555
v -0.254596 -0.000337 0.22298
v 0.4603 -0.196114 -0.25555
v 0.26825 -0.408546 -0.25555
v 0.0026 0.419843 -0.061395
v 0.062351 0.31044 -0.25555
v 0.243789 0.011932 -0.046605
v 0.263671 0.010698 -0.053608
v 0.38873 0.295038 -0.25555
v 0.057845 0.331146 0.15116
v 0.223419 -0.40431 -0.147478
v 0.212161 0.019313 -0.004664
v 0.412193 -0.190951 -0.25555
v -0.4603 -0.024119 -0.16685
v 0.336889 -0.391751 -0.25555
v 0.113513 -0.032551 -0.004206
v -0.150883 0.29844 -0.25555
v 0.4603 -0.268936 -0.25555
v 0.190157 -0.112946 -0.135657
v 0.070425 0.315332 0.088537
v -0.199795 0.458153 0.052236
v -0.334363 -0.054934 -0.161961
v -0.025957 0.245952 0.213094
v -0.017851 0.25978 0.210666
v 0.040135 -0.349009 -0.137711
v 0.052708 -0.359086 -0.139494
v 0.312617 -0.390813 -0.146346
v 0.367435 0.065146 -0.058466
v 0.067293 -0.352668 -0.138339
v 0.285443 0.16182 -0.102252
v 0.379199 -0.384714 -0.25555
v 0.343734 -0.489585 -0.227472
v 0.056417 0.042554 0.207844
v -0.150561 -0.151655 -0.137353
v -0.042897 0.497206 0.154554
v 0.082087 0.3536 0.046573
v 0.344027 -0.359011 -0.160947
v 0.119441 -0.168669 -0.105899
v -0.268224 -0.04922 -0.25555
v 0.209261 0.114194 -0.25555
v 0.0551 0.3789 0.18966
v 0.162337 0.174057 0.128581
v 0.368005 -0.072958 -0.187648
v 0.343299 -0.052988 -0.25555
v -0.4603 0.04539 -0.116648
v 0.1473 0.202337 0.220799
v 0.282833 0.270221 -0.25555
v 0.4603 0.3081 -0.25555
v 0.124656 0.023782 0.020582
v 0.104935 -0.37912 -0.143006
v 0.152922 0.266202 -0.25555
v -0.31885 0.133756 0.013155
v 0.432236 -0.143102 -0.212392
v 0.432237 -0.127137 -0.215208
v 0.417146 0.035641 -0.25555
v 0.27908 0.314447 -0.25555
v 0.319178 -0.06118 -0.25555
v 0.446263 -0.119261 -0.217218
v -0.432472 -0.007458 0.177792
v -0.4603 0.020613 0.108955
v 0.155125 0.199705 -0.049299
v 0.324923 0.165706 -0.25555
v 0.432218 -0.025692 -0.25555
v -0.058334 -0.116655 -0.093708
v -0.292228 0.060318 0.24584
v -0.366847 0.139588 0.175153
v -0.039153 -0.034225 -0.010082
v 0.430742 -0.002104 -0.126268
v -0.378901 0.113946 -0.02432
v -0.223862 -0.070788 -0.064476
v -0.108633 -0.191598 -0.124071
v -0.273916 0.171369 0.092316
v 0.297067 0.314472 -0.175598
v 0.348289 0.311266 -0.193754
v -0.275844 0.156889 -0.029172
v 0.0026 0.374752 0.108091
v 0.151574 -0.060296 -0.115869
v -0.028585 0.461297 -0.166455
v 0.4603 -0.443045 -0.17338
v 0.4603 -0.009475 -0.25555
v 0.110476 0.315722 -0.006634
v -0.192548 0.479901 0.131056
v 0.204681 0.322712 -0.155106
v 0.145625 0.329579 -0.146868
v -0.4603 0.095905 0.176634
v -0.4603 0.110328 0.187139
v -0.4603 0.095178 -0.076124
v 0.327518 0.06955 -0.043489
v -0.303395 0.130836 -0.14537
v -0.207 0.35024 0.020528
v -0.368109 -0.045337 -0.11808
v 0.027021 0.25023 0.21234
v -0.220313 0.23181 -0.057878
v 0.056452 0.212684 0.186073
v 0.189175 0.166021 -0.078559
v -0.059478 -0.006635 0.183254
v 0.131584 -0.411707 -0.14876
v 0.34844 -0.150483 -0.198773
v 0.016423 0.360755 0.015627
v -0.203632 -0.018837 0.092475
v -0.31024 -0.06385 -0.25555
v -0.4603 0.007747 0.07814
v -0.163942 0.191985 -0.25555
v -0.077703 -0.020426 0.07944
v 0.120101 0.011131 0.029638
v 0.090733 -0.005377 0.086896
v -0.00164 0.204476 0.220419
v 0.283477 -0.060943 -0.119502
v 0.295254 0.31334 -0.25555
v -0.444089 0.1035 -0.25555
v -0.4603 0.1035 -0.25555
v 0.401978 0.168331 -0.25555
v -0.260257 0.189248 0.128828
v -0.249816 0.188664 0.028287
v -0.165873 0.052336 0.247245
v -0.35675 0.025436 -0.25555
v -0.362384 0.040636 -0.25555
v -0.157156 0.49478 0.137471
v -0.209807 0.264084 -0.162517
v 0.4603 0.105089 -0.181548
v -0.242823 -0.090491 -0.154997
v -0.126729 -0.173414 -0.134919
v 0.280772 0.244432 -0.25555
v 0.098909 0.043658 0.133384
v 0.098183 0.036912 0.09508
v -0.194508 0.17974 0.22478
v -0.003426 -0.310645 -0.145029
v 0.207768 0.207113 -0.101739
v -0.4603 -0.023289 -0.25555
v 0.4603 0.127211 -0.205931
v 0.07865 0.264608 -0.25555
v -0.055559 0.478441 0.019378
v 0.010066 -0.158834 -0.104134
v 0.327625 0.311526 -0.25555
v -0.316868 0.136314 0.02904
v 0.375522 -0.070741 -0.175085
v 0.4603 -0.466871 -0.158514
v 0.17662 0.089013 0.106609
v 0.43292 -0.499106 -0.211486
v -0.399182 0.110194 -0.061908
v 0.090012 0.203582 0.053481
v -0.207 0.367078 0.163228
v 0.120522 0.330838 -0.210871
v 0.311977 0.286103 -0.176818
v 0.4603 -0.016892 -0.209745
v 0.4603 -0.025687 -0.227471
v 0.414687 -0.173963 -0.205624
v -0.096224 0.251662 -0.25555
v -0.207 0.300518 -0.25555
v -0.192599 0.308415 -0.25555
v 0.046576 0.132578 0.233095
v -0.207328 0.311251 0.096936
v -0.4603 0.087327 0.162878
v 0.390467 -0.415115 -0.25555
v 0.26415 -0.23714 -0.154838
v 0.030279 0.349383 -0.089325
v -0.446261 -0.017285 0.105485
v 0.2014 0.1642 -0.08905
v 0.4603 0.024968 -0.065749
v 0.432183 -0.303217 -0.184147
v -0.009486 -0.264368 -0.122798
v 0.4603 -0.4988 -0.16415
v 0.183301 -0.334946 -0.135257
v 0.346535 -0.007818 -0.25555
v -0.426024 -0.012946 -0.25555
v -0.4603 0.012035 0.095198
v -0.142693 -0.160746 -0.227473
v 0.418182 -0.378415 -0.25555
v 0.262645 -0.086017 -0.180788
v 0.351706 -0.491051 -0.241511
v 0.211314 -0.023898 -0.064938
v -0.128194 -0.106479 -0.089469
v 0.055446 0.376043 0.173706
v 0.199468 0.047226 0.072531
v 0.4603 0.031075 -0.241511
v 0.446261 0.283783 -0.25555
v 0.353552 -0.205737 -0.19012
v 0.0026 0.385255 0.082152
v -0.08769 -0.215932 -0.128377
v -0.277736 0.154053 -0.04502
v 0.050257 -0.143561 -0.25555
v -0.136392 -0.027443 0.017281
v 0.204548 0.086513 -0.25555
v -0.303488 0.111645 -0.25555
v -0.362425 0.052334 0.247239
v 0.146355 0.247488 -0.047269
v 0.187046 0.12112 0.080152
v -0.179913 0.219967 0.217681
v -0.267901 -0.078634 -0.159325
v 0.060223 -0.014172 0.12952
v 0.3915 0.124462 -0.075506
v 0.33182 0.213747 -0.171449
v 0.254129 0.317725 -0.169802
v 0.382677 -0.467359 -0.25555
v 0.370826 -0.478421 -0.25555
v -0.4603 -0.003216 -0.114996
v -0.037124 -0.028991 -0.25555
v 0.113151 -0.353652 -0.25555
v 0.128332 -0.026375 0.023863
v 0.358652 -0.261001 -0.181558
v 0.093214 -0.354985 -0.138777
v 0.332496 0.298239 -0.186555
v -0.032067 -0.009178 0.166125
v 0.000909 0.443051 0.05321
v 0.119313 -0.024917 0.037255
v 0.109531 0.001521 0.048807
v 0.070371 -0.098767 -0.085485
v 0.301048 0.044328 -0.024889
v -0.4603 0.121995 0.162844
v 0.110562 0.33522 -0.122825
v 0.306847 -0.481719 -0.205145
v -0.304729 -0.026374 0.023899
v 0.339873 -0.036221 -0.25555
v 0.418859 -0.006946 -0.25555
v -0.41984 -0.001585 0.215733
v -0.422116 -0.003952 0.200826
v -0.221919 -0.034482 -0.010761
v -0.229917 0.207519 -0.110165
v -0.10492 0.466766 -0.1189
v 0.4603 0.079365 -0.161893
v 0.352683 0.139583 -0.066527
v -0.361681 0.121018 0.235129
v 0.411639 -0.313038 -0.18077
v -0.206856 -0.028282 0.012047
v 0.04593 -0.31767 -0.132204
v -0.295093 0.134865 -0.171886
v 0.387592 0.257453 -0.193667
v 0.309393 0.166914 -0.154707
v 0.246614 -0.16841 -0.158736
v 0.35743 0.310305 -0.22484
v -0.015756 0.33084 0.198129
v -0.24396 -0.036495 -0.25555
v -0.292228 0.124176 0.234567
v 0.152587 -0.020008 -0.008864
v 0.016427 0.356066 -0.032824
v 0.304006 -0.343427 -0.25555
v 0.432239 -0.430839 -0.161618
v -0.345374 0.112545 -0.161498
v -0.271209 -0.003372 -0.25555
v -0.21783 0.23597 -0.10044
v -0.170577 0.0052 0.25555
v -0.178683 0.019026 0.253114
v -0.196971 0.447548 -0.107497
v 0.0617 0.219545 0.144062
v -0.215988 0.236545 -0.25555
v 0.194562 -0.168552 -0.12869
v -0.207 0.416174 0.183082
v -0.216053 -0.013757 0.133216
v 0.385913 0.163032 -0.095513
v -0.332437 -4.9e-05 0.224794
v 0.295853 -0.059276 -0.109919
v 0.4603 -0.451366 -0.227471
v -0.024603 0.272835 0.208357
v 0.362515 0.206694 -0.179146
v 0.081253 -0.381867 -0.25555
v 0.048416 -0.057799 -0.25555
v 0.4603 -0.041898 -0.25555
v 0.047196 0.348706 -0.059984
v 0.150587 -0.42376 -0.25555
v 0.411715 -0.498066 -0.227472
v -0.134039 0.483887 0.06363
v -0.207991 0.156108 0.228944
v -0.211053 -0.09054 -0.08048
v 0.134369 0.059025 0.220241
v -0.043678 0.029091 -0.25555
v -0.207 0.332941 -0.25555
v -0.070021 0.469496 -0.076387
v 0.060716 0.111005 -0.25555
v 0.041061 0.354951 0.193877
v 0.268609 0.175394 -0.025641
v -0.274098 -0.019461 0.087203
v -0.4603 -0.020131 0.081335
v -0.207 0.420349 0.070085
v 0.060395 0.207112 0.154383
v 0.4603 -0.101068 -0.241869
v -0.219214 0.228091 -0.204535
v -0.372841 -0.001755 0.214318
v 0.146585 -0.053112 -0.075028
v 0.149032 0.185104 0.19095
v 0.0026 0.372483 0.092039
v 0.035408 0.300386 -0.25555
v 0.419814 0.162149 -0.181482
v -0.288436 0.138591 -0.200217
v 0.4603 0.089715 -0.091461
v 0.221889 0.294343 -0.127967
v 0.397244 0.010976 -0.25555
v -0.178683 0.002787 0.24172
v 0.196153 0.230358 -0.25555
v -0.203825 0.443439 -0.010869
v -0.015509 -0.046913 -0.25555
v 0.058115 0.237535 0.165339
v -0.067134 0.132776 -0.25555
v 0.151132 0.180607 0.17544
v 0.130275 0.084919 -0.25555
v -0.006891 0.293416 -0.25555
v 0.295422 -0.33595 -0.150056
v -0.432238 -0.035921 -0.093472
v -0.30147 -0.037467 -0.25555
v -0.2215 0.2213 -0.25555
v -0.342677 0.11378 -0.145561
v 0.1473 0.2183 0.21797
v 0.252985 0.065966 0.00678
v 0.309308 -0.482004 -0.189124
v -0.11876 0.312465 -0.25555
v -0.240277 0.193938 -0.05667
v -0.059548 0.273899 -0.25555
v 0.075554 -0.333008 -0.25555
v -0.137794 0.19602 0.221904
v 0.186351 0.173198 -0.037998
v 0.096491 -0.047605 -0.043762
v 0.120214 -0.211376 -0.113449
v 0.414517 -0.001794 -0.124276
v -0.4603 0.069849 -0.002579
v -0.2907 0.152146 0.039744
v 0.4603 -0.0653 -0.14425
v 0.393562 0.182501 -0.25555
v 0.164157 -0.41489 -0.25555
v -0.019008 -0.012592 0.141503
v -0.3966 0.111447 -0.045953
v -0.207 0.381767 0.161484
v -0.158427 0.46292 -0.25555
v -0.170735 0.466529 -0.085612
v 0.10958 0.05996 -0.25555
v -0.4603 -0.039124 -0.206918
v -0.126791 -0.17443 -0.164852
v -0.256149 0.036788 -0.25555
v -0.188415 0.455872 -0.11845
v 0.074978 -0.025333 0.033046
v 0.4603 0.05602 -0.180061
v -0.275951 0.019026 0.253114
v 0.375777 0.124887 -0.071581
v -0.080915 0.480808 0.039445
v 0.17067 0.084561 0.121203
v 0.243698 0.164722 -0.086128
v -0.196208 0.456923 -0.006077
v 0.103924 -0.395046 -0.145859
v 0.17968 -0.438069 -0.25555
v 0.149717 0.119692 0.195938
v -0.160579 -0.016102 0.11493
v -0.4603 0.063389 -0.062485
v 0.151756 0.044621 0.138934
v -0.127266 0.214223 -0.25555
v -0.172798 0.492626 0.141143
v 0.432236 -0.382956 -0.170132
v 0.081229 -0.137915 -0.10006
v 0.152057 0.329447 -0.131987
v -0.065816 0.481547 0.04534
v 0.120866 0.21195 0.18172
v 0.062063 0.022332 0.172479
v 0.283276 0.102126 -0.023674
v 0.280239 -0.390803 -0.145141
v -0.117901 0.463295 -0.213435
v 0.4603 -0.001062 -0.213239
v -0.20787 0.27621 -0.241515
v 0.432476 -0.111149 -0.218004
v -0.266993 0.158422 -0.129991
v -0.329933 -0.05716 -0.194003
v 0.0543 0.0052 0.25555
v -0.264149 0.108211 0.23738
v 0.444094 0.009118 -0.062554
v -0.077371 0.463102 -0.227472
v -0.4603 -0.035067 -0.093519
v 0.368835 0.166392 -0.076754
v -0.116883 -0.011001 0.153411
v 0.119244 0.20121 0.121146
v 0.287197 -0.447166 -0.155033
v -0.030776 -0.004337 0.198158
v -0.292224 0.05617 -0.25555
v 0.148631 -0.422181 -0.193685
v -0.124834 -0.177268 -0.213434
v 0.005168 -0.024235 0.043888
v 0.326353 -0.485043 -0.161712
v -0.222031 0.03637 0.250058
v -0.207 0.339925 -0.211215
v -0.21448 0.261317 0.067601
v 0.446264 0.219891 -0.19344
v -0.010795 -0.019233 -0.25555
v 0.296866 0.23662 -0.161734
v 0.186798 0.036946 0.095432
v -0.17429 0.179506 -0.25555
v 0.4603 0.009 -0.06295
v 0.132636 0.323585 -0.04251
v 0.4084 -0.261513 -0.25555
v -0.103553 -0.17945 -0.25555
v -0.06502 -0.220535 -0.115092
v 0.3524 0.026227 -0.046421
v -0.4603 0.129453 0.124549
f 3 4 5
f 25 26 27
f 32 33 34
f 79 34 80
f 86 87 88
f 170 171 172
f 173 174 175
f 28 183 184
f 193 194 48
f 218 195 102
f 139 235 236
f 206 245 246
f 85 248 249
f 267 126 268
f 85 226 270
f 191 192 54
f 7 86 88
f 305 103 316
f 317 284 94
f 144 322 266
f 269 74 129
f 118 114 203
f 90 183 28
f 165 9 348
f 350 351 352
f 373 374 243
f 24 388 304
f 390 90 28
f 43 393 11
f 394 395 67
f 396 246 397
f 259 17 253
f 410 346 347
f 373 420 421
f 425 50 123
f 130 20 21
f 431 81 321
f 208 443 42
f 450 440 114
f 263 220 422
f 13 337 400
f 132 377 254
f 461 413 172
f 238 271 468
f 254 292 291
f 165 14 477
f 246 291 480
f 281 378 69
f 105 110 136
f 221 491 46
f 494 10 361
f 58 76 496
f 159 478 63
f 352 351 39
f 115 114 138
f 144 139 342
f 511 149 268
f 76 92 19
f 147 514 324
f 82 128 500
f 364 146 147
f 348 9 483
f 60 28 331
f 521 123 251
f 67 395 306
f 227 65 66
f 3 529 530
f 531 394 25
f 534 125 100
f 223 171 170
f 36 229 415
f 403 402 429
f 284 230 94
f 280 158 279
f 538 50 323
f 539 65 83
f 543 533 150
f 78 84 36
f 97 544 252
f 323 537 64
f 378 121 69
f 187 399 188
f 68 3 216
f 212 426 222
f 327 39 116
f 305 19 453
f 520 175 83
f 311 22 7
f 81 467 466
f 126 149 251
f 442 439 110
f 353 83 354
f 558 559 493
f 560 81 149
f 83 174 173
f 562 304 563
f 50 234 64
f 510 112 53
f 279 73 552
f 90 566 34
f 58 569 142
f 515 34 33
f 571 50 58
f 574 288 53
f 73 575 118
f 4 578 85
f 579 90 473
f 297 485 127
f 165 477 9
f 126 582 122
f 583 158 445
f 94 63 478
f 50 338 335
f 592 484 110
f 46 491 61
f 593 488 336
f 578 231 85
f 594 105 55
f 255 366 597
f 599 334 58
f 208 155 443
f 551 600 144
f 51 30 31
f 338 139 382
f 234 323 64
f 316 103 271
f 462 402 50
f 296 101 77
f 75 385 16
f 609 6 345
f 611 22 298
f 442 463 614
f 150 197 543
f 157 564 83
f 51 408 96
f 52 179 389
f 618 612 518
f 523 524 85
f 373 621 389
f 626 16 133
f 414 561 430
f 331 628 629
f 320 399 630
f 291 9 480
f 303 631 24
f 9 78 595
f 135 322 144
f 45 632 221
f 567 158 607
f 267 149 126
f 362 103 150
f 592 288 14
f 44 576 285
f 605 640 170
f 340 283 7
f 17 169 97
f 210 126 642
f 344 54 192
f 295 294 128
f 19 332 453
f 261 644 74
f 405 645 452
f 209 286 71
f 158 20 608
f 197 533 543
f 36 654 655
f 13 11 198
f 254 618 50
f 304 71 656
f 211 360 260
f 657 148 54
f 205 114 239
f 658 347 346
f 330 432 659
f 555 204 65
f 36 661 167
f 25 448 62
f 279 665 104
f 530 529 85
f 562 11 304
f 126 210 268
f 335 338 144
f 103 605 667
f 6 381 325
f 254 603 132
f 651 128 366
f 147 216 3
f 669 55 408
f 117 312 112
f 246 9 397
f 62 181 25
f 149 466 467
f 671 58 142
f 158 280 673
f 646 159 77
f 675 65 77
f 291 245 206
f 324 534 100
f 382 139 144
f 433 386 423
f 9 100 676
f 105 136 96
f 18 677 35
f 39 678 47
f 304 679 347
f 234 50 538
f 297 127 412
f 340 282 283
f 683 302 155
f 110 439 438
f 135 148 657
f 169 2 497
f 619 618 518
f 29 157 308
f 218 479 195
f 19 92 332
f 146 602 100
f 414 679 304
f 54 433 423
f 167 40 684
f 73 279 104
f 166 165 585
f 685 32 137
f 688 149 471
f 640 605 223
f 25 65 686
f 20 583 445
f 13 689 11
f 149 267 268
f 403 691 123
f 219 653 337
f 40 137 79
f 652 405 452
f 693 69 591
f 259 253 694
f 40 320 684
f 402 618 206
f 667 605 200
f 567 444 158
f 231 68 216
f 468 588 156
f 697 260 307
f 113 227 66
f 435 216 146
f 178 65 257
f 77 370 83
f 173 601 65
f 90 391 60
f 219 506 412
f 551 587 50
f 399 625 188
f 132 616 291
f 293 423 10
f 32 34 137
f 346 401 516
f 570 33 137
f 163 340 7
f 123 490 432
f 302 179 356
f 92 76 332
f 414 274 313
f 73 118 264
f 255 11 3
f 432 122 247
f 604 196 197
f 707 109 250
f 2 252 708
f 181 591 57
f 164 255 3
f 324 711 452
f 658 712 11
f 375 714 35
f 715 389 50
f 182 281 181
f 676 100 483
f 557 486 208
f 210 560 149
f 123 584 384
f 41 451 154
f 304 388 219
f 590 151 210
f 520 344 175
f 673 280 552
f 81 581 428
f 9 8 620
f 13 482 294
f 180 25 686
f 184 472 629
f 78 36 167
f 337 336 718
f 588 150 156
f 681 250 47
f 611 298 124
f 658 11 347
f 105 22 720
f 309 52 149
f 103 305 332
f 175 721 173
f 453 332 305
f 722 139 50
f 206 723 403
f 384 373 50
f 725 156 481
f 289 605 290
f 208 641 200
f 248 542 231
f 561 719 47
f 495 180 306
f 358 320 637
f 492 106 650
f 334 10 474
f 583 20 158
f 478 159 94
f 231 609 345
f 24 631 337
f 566 90 498
f 728 156 309
f 64 519 50
f 251 122 319
f 547 486 643
f 325 294 82
f 377 132 731
f 555 65 733
f 114 107 315
f 428 444 567
f 9 40 34
f 9 231 355
f 428 581 158
f 619 518 50
f 334 474 58
f 174 83 175
f 288 574 8
f 8 15 288
f 113 526 297
f 248 737 128
f 605 615 290
f 16 385 305
f 351 324 39
f 740 656 71
f 51 16 409
f 247 122 123
f 48 13 294
f 206 741 254
f 233 661 36
f 313 273 61
f 229 743 63
f 320 167 684
f 281 423 121
f 320 358 78
f 127 485 387
f 288 15 14
f 271 363 150
f 366 199 11
f 728 309 149
f 50 683 155
f 221 632 313
f 127 387 527
f 747 50 155
f 482 119 128
f 458 6 128
f 224 463 110
f 11 39 739
f 141 418 242
f 71 702 748
f 50 600 551
f 112 750 20
f 61 491 221
f 20 298 21
f 624 20 118
f 152 590 210
f 294 726 34
f 285 93 424
f 69 545 70
f 707 250 19
f 622 34 498
f 101 102 635
f 369 638 53
f 753 82 6
f 535 100 447
f 654 91 353
f 399 9 630
f 682 67 261
f 51 19 596
f 209 221 313
f 509 291 616
f 501 179 52
f 118 445 158
f 9 246 480
f 629 472 60
f 41 154 153
f 265 9 504
f 144 554 135
f 697 197 260
f 438 369 110
f 329 44 210
f 251 456 549
f 561 755 11
f 306 756 25
f 403 123 647
f 586 67 423
f 720 22 110
f 8 41 620
f 67 281 182
f 291 206 406
f 94 102 598
f 324 125 534
f 366 639 198
f 535 447 110
f 18 64 537
f 575 72 118
f 214 349 167
f 156 260 360
f 703 610 51
f 65 25 434
f 48 294 398
f 420 52 421
f 408 55 96
f 518 462 50
f 168 2 169
f 696 366 198
f 342 10 341
f 59 203 114
f 83 761 266
f 423 682 261
f 493 670 133
f 552 73 264
f 426 416 222
f 23 35 751
f 56 181 57
f 54 704 266
f 177 197 150
f 561 516 401
f 266 704 344
f 76 536 256
f 9 41 403
f 229 36 743
f 652 3 405
f 314 315 81
f 413 461 422
f 302 763 179
f 735 313 71
f 661 233 167
f 195 499 102
f 285 112 312
f 86 7 301
f 272 313 765
f 220 103 422
f 255 597 11
f 206 9 723
f 515 33 579
f 668 124 111
f 83 91 157
f 135 554 10
f 202 339 101
f 713 128 651
f 2 561 414
f 739 39 405
f 767 347 11
f 101 113 297
f 35 83 564
f 701 19 464
f 133 232 457
f 372 265 146
f 190 189 441
f 80 34 40
f 87 282 131
f 387 526 113
f 365 551 746
f 313 632 45
f 324 364 147
f 67 204 733
f 344 505 175
f 35 23 692
f 147 770 216
f 584 123 52
f 8 98 451
f 227 228 101
f 94 635 102
f 412 337 718
f 348 483 165
f 618 619 50
f 37 14 546
f 642 126 330
f 515 579 34
f 132 771 29
f 185 211 572
f 723 9 403
f 506 337 412
f 108 50 587
f 48 398 34
f 63 77 772
f 674 241 209
f 9 637 320
f 77 65 296
f 502 128 13
f 770 147 146
f 484 14 110
f 293 404 121
f 423 191 54
f 449 423 293
f 477 14 9
f 118 107 138
f 517 291 78
f 757 315 107
f 87 426 213
f 197 307 533
f 724 330 451
f 34 775 231
f 680 95 221
f 76 547 460
f 199 198 11
f 423 67 682
f 422 103 525
f 229 233 415
f 155 356 179
f 124 22 611
f 83 173 539
f 297 727 262
f 468 150 588
f 369 438 442
f 197 697 307
f 734 272 61
f 375 692 706
f 107 492 650
f 118 716 624
f 282 20 417
f 112 463 111
f 19 681 47
f 4 529 5
f 65 178 503
f 388 24 219
f 177 237 103
f 444 428 158
f 370 63 83
f 97 252 253
f 211 156 360
f 475 103 332
f 605 103 223
f 239 573 81
f 13 400 303
f 399 187 9
f 298 282 130
f 20 730 124
f 584 52 384
f 545 209 241
f 158 492 73
f 285 779 59
f 29 616 780
f 108 677 18
f 418 143 95
f 170 487 615
f 81 186 134
f 670 149 133
f 326 3 231
f 143 418 141
f 216 9 355
f 67 454 281
f 112 285 53
f 328 304 257
f 423 344 191
f 232 426 244
f 689 303 11
f 169 76 556
f 679 414 347
f 133 627 476
f 306 395 394
f 205 210 568
f 283 282 7
f 33 90 579
f 155 357 356
f 337 769 336
f 313 286 209
f 339 548 465
f 784 254 291
f 452 711 3
f 59 93 764
f 324 645 405
f 205 709 440
f 179 763 389
f 476 627 468
f 215 339 479
f 118 785 716
f 353 63 786
f 727 13 262
f 489 591 281
f 196 604 189
f 67 65 392
f 422 461 172
f 338 50 236
f 81 134 321
f 789 263 223
f 790 39 51
f 54 148 135
f 11 405 781
f 33 685 137
f 11 705 43
f 2 708 47
f 208 747 155
f 504 216 265
f 117 716 785
f 123 379 402
f 123 122 251
f 27 241 25
f 485 297 387
f 513 167 320
f 137 34 79
f 672 750 112
f 6 458 345
f 114 115 107
f 74 644 67
f 216 355 231
f 691 41 123
f 39 580 276
f 325 82 753
f 213 431 321
f 9 620 41
f 97 464 19
f 181 56 617
f 416 426 81
f 605 791 208
f 109 19 51
f 313 304 740
f 305 133 577
f 516 11 793
f 211 260 572
f 69 26 25
f 37 546 8
f 745 545 241
f 516 793 346
f 274 414 275
f 680 209 95
f 115 138 107
f 582 319 122
f 277 325 753
f 87 86 16
f 108 18 754
f 455 23 144
f 87 81 282
f 366 696 199
f 323 18 537
f 167 28 690
f 777 78 291
f 651 366 255
f 298 130 21
f 450 114 205
f 773 794 572
f 441 189 179
f 58 795 361
f 761 375 266
f 156 725 52
f 169 759 58
f 459 375 83
f 254 741 618
f 566 498 34
f 102 339 215
f 432 247 123
f 732 128 294
f 20 672 730
f 436 175 261
f 102 215 479
f 347 414 430
f 291 517 9
f 336 769 13
f 536 76 460
f 150 468 271
f 110 327 797
f 633 533 307
f 489 693 591
f 366 128 639
f 225 111 371
f 106 757 107
f 614 463 53
f 560 210 81
f 156 558 766
f 205 440 450
f 768 149 467
f 794 185 572
f 141 58 2
f 361 293 494
f 253 17 419
f 231 6 609
f 7 16 301
f 190 260 189
f 255 128 713
f 708 252 47
f 465 548 262
f 654 36 700
f 35 108 751
f 435 146 265
f 81 471 467
f 383 428 300
f 483 9 676
f 108 23 751
f 56 57 591
f 493 559 149
f 486 170 422
f 240 81 106
f 785 118 117
f 206 396 397
f 252 544 47
f 432 41 153
f 256 536 460
f 614 53 442
f 467 471 768
f 52 185 799
f 101 339 102
f 143 141 95
f 419 17 97
f 789 223 103
f 126 319 582
f 710 231 9
f 310 158 106
f 110 369 540
f 161 207 367
f 792 108 323
f 732 553 128
f 774 61 45
f 94 230 229
f 291 246 245
f 60 331 629
f 436 261 437
f 654 29 333
f 593 336 13
f 170 413 422
f 181 281 591
f 256 103 475
f 87 340 163
f 254 519 64
f 595 78 358
f 25 241 674
f 213 796 176
f 300 649 383
f 474 10 380
f 58 361 10
f 158 608 607
f 65 101 296
f 294 295 82
f 551 23 746
f 78 9 517
f 375 778 266
f 149 52 549
f 426 232 81
f 435 265 216
f 197 744 604
f 508 571 58
f 282 81 649
f 184 90 60
f 730 672 124
f 20 117 112
f 141 142 569
f 562 563 347
f 109 707 19
f 197 155 634
f 327 783 276
f 111 672 782
f 284 28 167
f 156 149 558
f 339 194 193
f 191 344 192
f 163 7 87
f 65 180 686
f 24 304 532
f 260 533 633
f 63 36 786
f 308 157 91
f 717 2 414
f 276 738 447
f 409 16 7
f 103 729 525
f 764 285 59
f 324 146 364
f 354 83 63
f 175 505 261
f 8 546 14
f 29 36 84
f 110 100 535
f 226 128 255
f 389 302 50
f 172 263 343
f 284 663 233
f 492 310 106
f 749 224 111
f 276 100 39
f 662 200 155
f 698 58 160
f 714 459 35
f 82 295 128
f 471 149 768
f 114 315 314
f 462 518 402
f 236 50 140
f 100 125 350
f 654 700 29
f 76 606 486
f 314 81 114
f 425 384 50
f 48 800 195
f 522 469 547
f 197 177 103
f 463 749 111
f 752 29 84
f 195 800 34
f 95 141 1
f 100 14 166
f 702 257 748
f 208 791 289
f 65 601 318
f 793 11 346
f 117 285 312
f 256 332 76
f 61 12 414
f 58 10 599
f 209 545 376
f 547 422 256
f 198 502 13
f 331 28 628
f 121 404 58
f 154 451 153
f 82 500 6
f 149 232 258
f 573 636 81
f 181 62 67
f 54 135 10
f 256 729 103
f 128 737 231
f 152 210 205
f 551 365 108
f 34 579 473
f 513 320 78
f 562 347 767
f 44 330 53
f 9 320 630
f 281 121 378
f 158 673 552
f 379 123 50
f 754 18 323
f 731 132 291
f 34 325 381
f 160 58 541
f 161 367 160
f 259 2 145
f 576 44 53
f 222 213 212
f 271 103 362
f 350 352 39
f 23 375 706
f 404 293 58
f 2 719 561
f 78 752 84
f 766 493 156
f 126 162 330
f 323 234 538
f 426 212 213
f 195 339 48
f 136 110 96
f 208 42 641
f 511 268 210
f 18 446 132
f 740 304 656
f 32 685 33
f 653 24 337
f 3 326 4
f 170 172 413
f 121 449 293
f 12 2 717
f 51 39 47
f 342 139 10
f 529 4 85
f 490 41 432
f 744 179 604
f 124 110 22
f 181 69 25
f 58 50 541
f 75 51 305
f 613 152 205
f 25 756 531
f 649 81 428
f 217 299 180
f 297 412 13
f 389 374 373
f 256 475 332
f 170 615 605
f 687 266 135
f 169 497 759
f 72 550 118
f 139 474 380
f 470 16 457
f 205 59 709
f 140 50 139
f 97 169 556
f 2 259 252
f 647 123 402
f 260 773 572
f 338 236 235
f 703 96 610
f 216 770 146
f 172 171 223
f 9 188 40
f 309 156 52
f 219 565 65
f 47 97 19
f 278 95 2
f 204 555 733
f 777 291 29
f 113 65 565
f 101 94 159
f 71 257 702
f 282 300 428
f 197 201 200
f 9 14 37
f 19 250 681
f 271 133 305
f 304 328 71
f 91 29 308
f 463 510 53
f 107 118 492
f 373 421 52
f 463 442 110
f 668 110 124
f 273 313 272
f 336 488 412
f 385 75 305
f 175 318 721
f 208 367 207
f 169 17 168
f 46 774 45
f 186 796 213
f 306 217 67
f 155 776 662
f 93 44 424
f 76 89 496
f 482 732 294
f 81 210 151
f 222 81 213
f 36 63 743
f 771 132 157
f 449 121 423
f 529 3 5
f 25 180 495
f 488 13 412
f 122 162 126
f 219 24 653
f 39 327 580
f 545 242 376
f 776 197 662
f 512 69 121
f 519 254 50
f 251 149 456
f 108 792 50
f 41 758 451
f 65 204 180
f 623 58 497
f 81 152 239
f 197 776 155
f 375 35 692
f 779 117 59
f 597 366 11
f 81 87 186
f 338 235 139
f 419 97 253
f 762 18 132
f 231 427 128
f 291 406 784
f 151 152 81
f 368 339 297
f 704 54 344
f 67 182 411
f 254 64 603
f 437 261 666
f 305 316 271
f 659 451 330
f 129 318 269
f 288 592 798
f 547 469 486
f 344 507 266
f 3 514 147
f 105 720 110
f 285 117 779
f 405 3 781
f 476 493 133
f 402 379 50
f 429 206 403
f 441 185 260
f 586 454 67
f 408 51 669
f 13 120 482
f 330 44 329
f 412 387 219
f 81 240 158
f 344 423 261
f 608 20 607
f 672 111 124
f 513 78 167
f 575 73 72
f 29 509 616
f 166 14 165
f 155 42 443
f 305 596 19
f 646 101 159
f 101 646 77
f 328 257 71
f 54 386 433
f 524 523 226
f 657 54 266
f 56 69 617
f 110 116 39
f 139 236 140
f 150 237 177
f 615 487 486
f 354 63 353
f 648 141 242
f 91 83 528
f 493 468 156
f 209 680 221
f 778 144 266
f 15 8 14
f 313 740 71
f 200 695 103
f 414 304 275
f 52 420 384
f 2 58 623
f 8 9 38
f 589 172 343
f 693 489 69
f 156 185 481
f 100 9 146
f 626 133 457
f 441 260 190
f 58 242 121
f 486 367 208
f 465 13 339
f 8 574 53
f 233 36 415
f 471 81 232
f 208 50 747
f 627 133 468
f 7 282 311
f 222 416 81
f 306 299 217
f 52 725 185
f 40 167 137
f 78 777 29
f 683 50 302
f 44 205 568
f 550 72 492
f 242 95 209
f 643 422 547
f 602 324 100
f 633 307 260
f 51 250 736
f 65 67 733
f 144 341 10
f 133 16 577
f 282 428 20
f 95 242 418
f 149 670 493
f 61 95 278
f 156 742 260
f 339 195 479
f 432 451 659
f 339 202 297
f 284 167 663
f 612 618 402
f 51 31 55
f 407 7 22
f 326 231 4
f 111 782 112
f 90 390 102
f 22 282 298
f 624 716 20
f 257 65 748
f 375 144 778
f 272 45 61
f 206 618 741
f 660 67 217
f 133 258 232
f 304 303 532
f 440 59 114
f 615 557 208
f 602 146 324
f 640 223 170
f 189 197 196
f 9 37 38
f 16 232 99
f 146 9 372
f 759 497 58
f 50 243 715
f 69 242 545
f 65 675 83
f 241 69 745
f 271 238 133
f 223 263 172
f 269 437 666
f 261 269 666
f 50 208 160
f 508 474 50
f 91 528 353
f 117 118 59
f 155 302 357
f 6 34 381
f 282 22 311
f 675 77 83
f 304 787 275
f 571 508 50
f 232 244 87
f 592 110 798
f 155 179 634
f 276 447 100
f 422 643 486
f 85 542 248
f 266 507 83
f 337 506 219
f 755 47 11
f 271 362 363
f 231 578 4
f 48 194 13
f 277 753 6
f 304 313 787
f 303 304 11
f 598 102 28
f 210 149 511
f 89 58 496
f 310 492 158
f 482 120 119
f 717 414 12
f 446 18 157
f 53 724 451
f 137 90 570
f 460 547 256
f 58 698 367
f 25 394 67
f 514 3 324
f 273 734 61
f 330 162 122
f 85 249 128
f 34 710 9
f 718 336 412
f 769 337 13
f 211 185 156
f 454 586 281
f 207 160 208
f 108 365 23
f 599 10 334
f 180 660 217
f 239 114 573
f 94 229 63
f 142 648 242
f 392 65 74
f 317 28 284
f 787 313 275
f 50 49 243
f 168 17 2
f 668 111 110
f 156 150 742
f 10 494 293
f 500 128 6
f 45 272 765
f 110 111 225
f 87 16 99
f 76 464 97
f 516 561 11
f 337 631 303
f 645 324 452
f 27 26 241
f 371 224 225
f 482 553 732
f 13 303 689
f 114 118 138
f 8 451 758
f 724 53 330
f 563 304 347
f 79 80 40
f 231 345 427
f 36 655 353
f 238 699 133
f 17 259 145
f 58 671 242
f 270 226 255
f 742 150 260
f 669 51 55
f 749 463 224
f 61 774 46
f 340 87 131
f 469 76 486
f 739 405 11
f 256 422 729
f 200 42 155
f 239 152 613
f 103 237 150
f 241 26 69
f 391 90 137
f 76 58 367
f 649 428 383
f 83 375 761
f 434 25 209
f 103 263 789
f 368 262 339
f 173 318 601
f 634 179 197
f 36 353 786
f 28 629 628
f 423 386 10
f 558 149 559
f 40 399 320
f 39 610 287
f 176 87 213
f 58 141 569
f 447 738 110
f 23 365 746
f 369 288 540
f 468 493 476
f 185 773 260
f 238 468 699
f 45 221 46
f 706 692 23
f 349 60 137
f 184 629 28
f 30 22 105
f 242 209 376
f 549 52 251
f 439 442 438
f 615 289 290
f 20 750 672
f 239 613 205
f 330 329 210
f 37 8 38
f 507 344 83
f 195 498 499
f 55 31 30
f 604 179 189
f 635 94 101
f 179 501 441
f 636 114 81
f 29 780 132
f 410 561 346
f 711 324 3
f 393 43 39
f 406 254 784
f 367 486 606
f 505 344 261
f 495 306 25
f 185 441 799
f 347 430 561
f 10 386 54
f 270 255 85
f 664 123 521
f 149 81 466
f 144 50 335
f 349 137 167
f 180 299 306
f 186 176 796
f 305 577 16
f 176 186 87
f 173 721 318
f 607 20 428
f 451 98 53
f 34 231 710
f 66 65 113
f 108 35 677
f 205 44 59
f 35 459 83
f 530 85 3
f 351 350 324
f 457 232 470
f 771 157 29
f 106 315 757
f 228 113 101
f 712 658 346
f 100 350 39
f 228 227 113
f 134 186 321
f 67 448 25
f 14 100 110
f 70 545 760
f 345 458 128
f 251 664 521
f 374 389 243
f 2 47 719
f 341 144 342
f 573 114 636
f 568 210 44
f 285 576 53
f 288 110 540
f 8 758 41
f 76 701 464
f 483 100 165
f 60 167 690
f 712 346 11
f 650 106 107
f 474 139 722
f 705 47 43
f 182 181 411
f 24 532 303
f 16 626 457
f 59 118 203
f 503 178 219
f 260 197 189
f 431 213 81
f 129 74 318
f 16 86 301
f 65 71 748
f 384 420 373
f 184 183 90
f 187 188 9
f 77 63 370
f 206 397 9
f 393 39 11
f 373 52 621
f 49 50 373
f 103 220 263
f 106 81 315
f 39 287 96
f 322 135 266
f 709 59 440
f 407 22 30
f 141 2 1
f 90 33 570
f 164 85 255
f 39 96 110
f 243 389 715
f 590 152 151
f 20 130 417
f 231 775 6
f 20 124 298
f 266 687 657
f 85 524 226
f 377 292 254
f 158 240 106
f 363 362 150
f 424 44 285
f 100 585 165
f 714 375 459
f 201 197 695
f 790 610 39
f 783 110 276
f 150 533 260
f 399 40 625
f 108 587 551
f 195 34 622
f 69 760 745
f 451 432 153
f 232 688 471
f 221 95 61
f 224 371 111
f 250 51 47
f 358 9 595
f 252 259 694
f 96 55 105
f 389 763 302
f 8 53 98
f 288 369 53
f 77 159 772
f 550 492 118
f 554 144 10
f 75 359 51
f 297 262 368
f 736 109 51
f 735 286 313
f 28 317 94
f 242 671 142
f 278 2 61
f 67 62 448
f 50 792 323
f 612 402 518
f 51 359 16
f 339 262 548
f 42 200 641
f 49 373 243
f 112 782 672
f 472 184 60
f 387 297 526
f 50 160 541
f 279 158 665
f 567 607 428
f 13 194 339
f 280 279 552
f 429 402 206
f 486 487 170
f 65 318 74
f 206 246 396
f 242 69 512
f 198 199 696
f 520 83 344
f 193 48 339
f 585 100 166
f 756 306 531
f 219 257 304
f 662 197 200
f 229 230 284
f 549 456 149
f 455 375 23
f 125 324 350
f 64 18 762
f 28 102 390
f 69 70 760
f 65 503 219
f 17 145 2
f 64 762 132
f 621 52 389
f 118 20 445
f 250 109 736
f 596 305 51
f 343 263 422
f 795 293 361
f 209 71 65
f 159 63 772
f 504 9 216
f 375 455 144
f 552 118 158
f 181 67 411
f 423 281 586
f 50 474 722
f 392 74 67
f 269 261 74
f 664 251 52
f 274 275 313
f 402 403 647
f 214 60 349
f 446 157 132
f 434 209 65
f 562 767 11
f 47 755 561
f 204 67 180
f 3 11 781
f 178 257 219
f 638 369 442
f 128 523 85
f 687 135 657
f 300 282 649
f 29 291 509
f 167 60 214
f 175 436 437
f 287 610 96
f 294 325 726
f 39 43 678
f 652 452 3
f 700 36 29
f 181 617 69
f 412 527 387
f 545 745 760
f 488 593 13
f 179 744 197
f 85 164 3
f 738 276 110
f 232 87 99
f 474 508 58
f 104 665 73
f 105 594 30
f 678 43 47
f 200 201 695
f 127 527 412
f 422 525 729
f 788 387 113
f 615 486 557
f 766 558 493
f 39 324 405
f 18 35 157
f 110 797 116
f 603 64 132
f 282 340 131
f 797 327 116
f 725 481 185
f 30 51 7
f 470 232 16
f 327 110 783
f 705 11 47
f 665 158 73
f 655 654 353
f 734 273 272
f 323 108 754
f 173 65 539
f 169 58 89
f 523 128 226
f 128 427 345
f 233 229 284
f 44 93 59
f 244 426 87
f 76 169 89
f 319 126 251
f 13 128 120
f 7 407 30
f 132 780 616
f 553 482 128
f 52 799 441
f 218 102 479
f 544 97 47
f 359 75 16
f 333 29 91
f 625 40 188
f 51 96 703
f 347 561 410
f 19 701 76
f 208 200 605
f 473 90 34
f 610 790 51
f 498 195 622
f 58 293 795
f 225 224 110
f 51 409 7
f 76 367 606
f 564 157 35
f 765 313 45
f 60 690 28
f 23 551 144
f 175 437 269
f 133 699 468
f 12 61 2
f 639 128 198
f 227 101 65
f 667 200 103
f 357 302 356
f 69 489 281
f 249 248 128
f 469 522 76
f 674 209 25
f 313 61 414
f 542 85 231
f 432 330 122
f 67 644 261
f 698 160 367
f 76 522 547
f 663 167 233
f 71 286 735
f 128 502 198
f 425 123 384
f 372 9 265
f 242 512 121
f 6 775 34
f 28 94 598
f 118 552 264
f 581 81 158
f 306 394 531
f 794 773 185
f 297 13 727
f 9 358 637
f 465 262 13
f 91 654 333
f 800 48 34
f 144 338 382
f 403 41 691
f 492 72 73
f 10 139 380
f 149 258 133
f 422 172 589
f 752 78 29
f 318 175 269
f 377 731 291
f 102 498 90
f 110 288 798
f 67 660 180
f 112 510 463
f 219 113 565
f 764 93 285
f 642 330 210
f 252 694 253
f 202 101 297
f 291 292 377
f 600 50 144
f 400 337 303
f 501 52 441
f 197 103 695
f 321 186 213
f 528 83 353
f 580 327 276
f 149 688 232
f 638 442 53
f 102 499 498
f 490 123 41
f 69 56 591
f 88 87 7
f 294 34 398
f 422 589 343
f 561 401 346
f 556 76 97
f 791 605 289
f 289 615 208
f 594 55 30
f 128 119 120
f 219 788 113
f 117 20 716
f 123 664 52
f 737 248 231
f 277 6 325
f 391 137 60
f 231 3 68
f 130 282 417
f 160 207 161
f 406 206 254
f 325 34 726
f 156 728 149
f 219 387 788
f 623 497 2
f 648 142 141
f 95 1 2
f 713 651 255
f 592 14 484
