v 2.229345 -0.992723 -0.862826
v 2.407309 -0.97498 -0.805091
v 2.5392 -0.727778 -0.750475
v 2.669281 -0.930664 -0.557166
v 2.318787 -1.29409 -0.673863
v 2.126237 -1.330172 -0.721011
v 2.61797 -1.235597 -0.520238
v 2.663024 -1.440487 -0.478149
v 2.931756 -1.129655 0.0
v 2.706963 -1.528854 0.0
v 1.920432 -1.567396 0.0
v 2.881063 -0.493146 -0.521968
v 2.835437 -0.231101 -0.57789
v 2.993075 -0.708434 -0.342596
v 3.065544 -0.788768 0.0
v -2.033406 -0.91003 -0.96422
v -2.462835 -1.3055 -0.966395
v -1.776785 -1.275107 -0.914703
v -1.456655 -1.295527 -0.89424
v -2.591357 -1.510845 -0.88547
v -2.049879 -1.562369 -0.829319
v -1.552229 -1.555077 -0.735708
v -1.200688 -1.577575 -0.799188
v -0.953236 -1.545941 -0.89918
v -0.063012 -1.583021 -0.865082
v -0.977375 -1.793126 -0.498747
v -1.576196 -1.696317 -0.358146
v 0.489819 -1.524947 -0.672392
v 0.44655 -1.67295 0.0
v -0.956007 -1.825728 0.0
v -2.734184 -1.717948 -0.749581
v -2.267049 -1.753901 -0.662106
v -1.88316 -1.829718 -0.401567
v -2.126375 -1.866497 -0.502895
v -2.446375 -1.893261 -0.49411
v -2.941731 -1.787431 -0.442574
v -2.892162 -1.781087 0.0
v -3.139394 -1.687482 -0.638546
v -3.387254 -1.486027 -0.672861
v -3.557869 -1.325941 -0.37803
v -3.686518 -0.955181 -0.320349
v -3.616627 -0.350374 -0.338492
v -3.55232 0.219613 0.0
v -3.637643 -0.356271 0.0
v -3.650579 -1.142448 0.0
v -3.569993 -0.731989 -0.649435
v -3.27979 -1.162072 -0.784602
v -3.556552 0.704883 -0.28063
v 1.734568 -2.965876 -0.986396
v 1.718315 -2.775468 -0.921796
v 1.911792 -2.895773 -0.950117
v 1.970051 -3.141862 -1.065178
v 2.110033 -3.148257 -1.068816
v 2.247981 -3.342804 -1.127459
v 2.025468 -3.556842 -1.204841
v 1.705953 -3.006628 -0.83263
v 1.83279 -3.296508 -0.865078
v 1.900481 -3.131932 -0.728621
v 2.126553 -3.549679 -0.701005
v 1.857471 -2.950722 -0.669988
v 1.884318 -2.724404 -0.701999
v -2.837147 -1.791733 -0.921563
v -3.23261 -1.834299 -1.087832
v -3.078699 -2.553982 -1.046834
v -3.177824 -2.279173 -1.04758
v -3.327526 -2.075729 -1.005328
v -3.347304 -2.573628 -0.955211
v -2.981187 -2.142718 -0.858353
v -3.030605 -2.311222 -0.88433
v -3.240554 -2.555467 -0.856262
v 1.953911 -2.462233 -0.830594
v 1.98533 -2.221319 -0.893145
v 2.021591 -1.755289 -0.912093
v 1.678986 -2.513137 -0.891745
v 1.648793 -2.280014 -0.929365
v 1.572979 -1.827591 -0.985823
v 1.54175 -1.643613 -1.01419
v 1.473886 -1.818947 -0.799576
v 1.945206 -2.015769 -0.672724
v 2.111557 -1.376942 -0.89657
v 1.966698 -1.22816 -1.153716
v 1.49748 -1.283201 -1.088258
v 1.310865 -1.136322 -0.914838
v 3.233975 2.059193 -0.072431
v 3.276333 1.863773 -0.294266
v 3.377233 1.5878 -0.400781
v 3.528445 1.060127 -0.489443
v 3.559394 0.706516 -0.452535
v 3.36004 0.165487 -0.412685
v 3.43895 -0.08258 -0.257015
v 3.737014 0.181837 -0.176819
v 3.71636 2.343387 0.0
v 3.4583 2.151656 -0.102662
v 4.120842 0.627141 -0.185461
v 3.929251 0.411689 0.0
v 4.068249 0.798926 -0.400813
v 4.041657 1.039756 -0.496922
v 3.98851 1.297806 -0.539537
v 3.886058 1.550141 -0.50483
v 3.814876 1.968416 -0.443
v 3.758215 2.206683 -0.323051
v 2.361089 1.76666 -0.202595
v 2.723503 1.898839 0.0
v 2.738132 1.687333 -0.295046
v 2.637461 1.01726 -0.581611
v 2.747937 0.712253 -0.615674
v 2.91987 0.084875 -0.64246
v 2.396355 1.242239 -0.597722
v 2.734183 0.038769 -0.86581
v 2.346081 -0.74535 -1.013296
v 2.495354 0.250522 -1.132081
v 2.50049 -0.035029 -1.170179
v 2.013534 -0.662303 -1.191491
v 2.108912 -0.357128 -1.259691
v 1.807583 1.756546 -0.177627
v 1.975941 0.827957 -1.018423
v 0.737904 1.604213 -0.281713
v 0.223642 1.684075 -0.160743
v 0.760722 1.205036 -0.700545
v 0.939271 0.379986 -1.185872
v 0.960321 -0.308052 -1.243133
v 0.939974 -0.894739 -1.019809
v -0.221516 1.686349 -0.151403
v -0.559706 1.69418 -0.186107
v -0.406155 1.005088 -0.971088
v -0.11519 0.458427 -1.346197
v -0.969076 0.901205 -1.146223
v -0.752416 0.438132 -1.467349
v 0.034087 -0.225059 -1.542949
v 0.021051 -0.831931 -1.511548
v -0.487217 -1.193519 -1.504026
v -0.894132 1.712652 -0.151911
v -1.215563 1.757097 -0.133494
v -1.017767 1.607824 -0.541965
v -1.551526 1.400025 -1.050193
v -1.479588 0.295746 -1.440042
v -1.053434 -0.342553 -1.690245
v -1.395501 -0.698702 -1.553257
v 1.640095 -0.674556 -1.246804
v 1.504951 1.483493 -0.585976
v 1.604939 -1.556997 0.0
v -1.79513 0.033439 -1.37116
v -1.802864 -0.282523 -1.401315
v -1.683863 1.789041 -0.121501
v -1.744732 1.734849 -0.433807
v -1.996117 1.387891 -1.064104
v -2.079597 1.817785 -0.138375
v -2.298249 0.768333 -1.203884
v -2.187634 -0.375454 -1.406902
v -2.276341 -0.689823 -1.268026
v -2.672899 1.90511 -0.067168
v -2.703112 1.825435 -0.395127
v -2.68493 1.262021 -1.11049
v -2.47375 0.300945 -1.316695
v -3.053102 1.96881 -0.051104
v -3.08565 1.65734 -0.784479
v -2.649338 -0.241719 -1.339644
v -3.35851 1.810253 -0.380095
v -3.519716 1.685231 -0.31713
v -3.507689 1.700214 0.0
v -3.476235 1.287798 -0.704766
v -3.112555 0.457376 -1.084816
v -3.096267 -0.6681 -1.140081
v -2.937658 -1.002749 -1.219413
v -3.582867 0.734419 -0.697787
v -3.424258 0.158638 -0.918279
v -3.709741 1.351194 -0.211745
v -3.302419 -3.017921 -1.128514
v -3.32033 -2.827513 -1.063914
v -3.107105 -2.947818 -1.092235
v -2.946527 -2.939327 -0.986343
v -3.042899 -3.193907 -1.207296
v -2.888628 -3.200302 -1.210934
v -2.736599 -3.394849 -1.269577
v -2.981824 -3.608887 -1.346959
v -3.333954 -3.058673 -0.974748
v -3.223246 -3.225388 -0.976573
v -3.087335 -3.350463 -0.831656
v -2.870422 -3.601724 -0.843123
v -3.137383 -2.776449 -0.844117
v -3.623861 0.911561 0.0
v -3.900566 1.002504 0.0
v -3.84447 0.498176 -0.053132
v -3.87514 1.480358 0.0
v -3.712832 1.794492 0.0
v -3.47843 1.975409 0.0
v -3.80184 1.012668 -0.115288
v -3.674766 0.517345 -6.3e-05
v -1.933565 -1.993029 -0.438902
v -2.120746 -2.045137 -0.411171
v -2.499138 -2.03809 -0.504529
v -2.571019 -1.995375 -0.58623
v 4.897808 1.946794 -0.628057
v 4.973133 1.992779 -0.533466
v 5.001903 1.914398 -0.486724
v 4.926194 1.859813 -0.582137
v 4.760921 1.881357 -0.61312
v 4.963546 1.783161 -0.553515
v 4.918466 2.084725 -0.532713
v 4.825996 2.089176 -0.576083
v 4.872539 2.159259 -0.542891
v 5.00244 2.105746 -0.468233
v 5.075994 1.900999 -0.443793
v 4.752337 1.723388 -0.591296
v 4.995978 2.148785 -0.344534
v 4.982822 1.503071 -0.507606
v 4.79841 1.473149 -0.570618
v 4.615408 1.639641 -0.577768
v 4.533113 1.989009 -0.578975
v 4.561299 2.133066 -0.547248
v 5.04969 2.032731 7.1e-05
v 5.218821 1.803552 -0.199306
v 4.634996 2.369115 -0.140117
v 5.158322 1.23677 -0.418043
v 5.378289 1.768448 0.000441
v 4.733657 1.227371 -0.592883
v 4.522247 1.398278 -0.644892
v 5.588763 1.573846 0.000686
v 5.528186 1.44018 -0.250666
v 5.397967 1.174238 -0.346802
v 5.730427 1.435668 -0.209848
v 5.608974 1.317869 -0.319719
v 5.672187 1.164767 -0.35408
v 5.908842 1.388968 0.001026
v 5.979357 1.325532 -0.125337
v 5.931474 1.233483 -0.215613
v 5.92711 1.131195 0.001118
v 5.923808 1.025283 -0.153084
v 5.800778 1.078596 -0.31945
v 5.884856 1.062202 -0.249545
v 5.757506 0.9579 -0.210732
v 5.672385 1.007694 -0.341778
v 5.470775 1.009574 -0.355371
v 5.373646 0.885375 -0.20884
v 5.511556 0.863525 -0.177613
v 5.851404 0.929008 -0.105362
v 5.836005 0.945722 0.001092
v 5.247762 0.848549 -0.108546
v 4.920855 0.812339 0.000318
v 4.99671 0.81056 -0.280771
v 4.712067 0.770512 -0.333393
v 4.416475 0.921264 -0.458839
v 4.312225 1.683392 -0.639944
v 4.148883 1.759918 -0.573765
v 4.342351 2.581176 -0.140317
v 4.440143 2.510529 -0.269164
v 4.187258 2.590221 -0.135844
v 4.209941 2.600612 -0.337597
v 4.22473 2.624525 -0.491916
v 4.407729 2.53164 -0.486692
v 4.359483 2.615839 -0.596817
v 4.35668 2.682996 -0.71905
v 4.47609 2.606654 -0.692301
v 4.509555 2.719807 -0.819972
v 4.59262 2.569879 -0.790452
v 4.656565 2.680542 -0.799684
v 4.801436 2.750224 -0.858918
v 4.474625 2.465214 -0.75189
v 4.314039 2.32946 -0.57751
v 4.681847 2.551036 -0.886235
v 4.262798 2.490674 -0.818316
v 4.113935 2.334131 -0.526471
v 4.342998 2.664049 -0.904347
v 4.6248 2.708372 -0.989445
v 4.104292 2.537976 -0.543437
v 3.961908 2.347745 -0.374747
v 4.146067 2.278102 -0.707372
v 4.273005 2.310529 -0.762172
v 4.215419 2.350484 -0.885764
v 4.061989 2.231988 -1.178382
v 4.102304 2.29996 -1.025862
v 4.094116 2.426172 -1.381032
v 4.022592 2.123052 -0.903284
v 4.036947 1.992167 -1.072561
v 4.082988 2.175805 -1.45093
v 4.152166 1.868775 -1.225002
v 3.98291 1.987391 -0.639809
v 4.314791 2.142163 -0.54065
v 4.199317 2.304652 -1.17454
v 4.38099 2.207701 -0.839016
v 4.369751 2.298204 -0.921894
v 4.154566 2.19048 -1.129552
v 2.407309 -0.97498 0.805091
v 2.410367 -0.777999 0.841105
v 2.229345 -0.992723 0.862826
v 2.669281 -0.930664 0.557166
v 2.126237 -1.330172 0.721011
v 2.318787 -1.29409 0.673863
v 2.61797 -1.235597 0.520238
v 2.857666 -0.930625 0.391195
v 2.663024 -1.440487 0.478149
v 2.835437 -0.231101 0.57789
v 2.688131 -0.517509 0.672975
v -2.306662 -1.116976 0.961238
v -1.782298 -1.020581 0.943381
v -2.042059 -1.312976 0.940911
v -1.456655 -1.295527 0.89424
v -2.591357 -1.510845 0.88547
v -2.223917 -1.541268 0.87926
v -1.778934 -1.550199 0.776454
v -1.200688 -1.577575 0.799188
v -1.266738 -1.691944 0.557922
v -0.535144 -1.615983 0.920556
v -0.07847 -1.688266 0.80023
v -0.977375 -1.793126 0.498747
v -1.764045 -1.764987 0.406586
v -2.508885 -1.719933 0.721675
v -2.734184 -1.717948 0.749581
v -2.126375 -1.866497 0.502895
v -2.684452 -1.891207 0.447388
v -3.304804 -1.582192 0.643445
v -3.53391 -1.330455 0.568246
v -3.665774 -0.73408 0.446286
v -3.595973 -0.346391 0.426453
v -3.536654 0.442277 0.322
v -3.55012 -0.984868 0.675228
v 1.806371 -2.949735 0.984058
v 1.771416 -2.769024 0.9461
v 2.021366 -2.881725 0.945561
v 1.721745 -3.116887 0.979111
v 2.031262 -3.256709 1.111122
v 2.138771 -3.397683 1.214726
v 2.201939 -3.226457 0.996503
v 2.113587 -3.011851 0.851648
v 1.83279 -3.296508 0.865078
v 2.078928 -3.584991 0.917088
v 1.900481 -3.131932 0.728621
v 2.126553 -3.549679 0.701005
v 1.841282 -2.716008 0.708009
v -2.918293 -1.904184 1.004659
v -2.955052 -1.49684 1.128812
v -3.23261 -1.834299 1.087832
v -3.498521 -1.762078 0.762472
v -3.068444 -2.260195 1.03507
v -3.162498 -2.556375 1.058409
v -3.327526 -2.075729 1.005328
v -3.347304 -2.573628 0.955211
v -2.981187 -2.142718 0.858353
v -3.132772 -2.528669 0.848639
v -3.339489 -2.328145 0.827572
v 2.02453 -2.195334 0.811284
v 1.930747 -2.463535 0.894743
v 2.053108 -1.738285 0.824853
v 1.710406 -2.272223 0.954296
v 1.717145 -1.80953 1.004092
v 1.650318 -1.645881 1.053347
v 1.473886 -1.818947 0.799576
v 1.596751 -1.722028 0.684655
v 1.941767 -1.759457 0.997454
v 1.918641 -2.083654 1.001275
v 2.141273 -1.234642 0.941254
v 1.966698 -1.22816 1.153716
v 1.974215 -1.469208 1.068951
v 1.49748 -1.283201 1.088258
v 1.310865 -1.136322 0.914838
v 3.115383 1.49239 0.380228
v 3.377233 1.5878 0.400781
v 3.47341 1.366149 0.454658
v 3.189664 0.907503 0.500122
v 3.280681 0.510802 0.499434
v 3.559394 0.706516 0.452535
v 3.737014 0.181837 0.176819
v 3.4583 2.151656 0.102662
v 4.068249 0.798926 0.400813
v 3.886058 1.550141 0.50483
v 3.814876 1.968416 0.443
v 3.479418 1.97825 0.317478
v 3.342159 -0.384674 0.201349
v 2.361089 1.76666 0.202595
v 2.519027 1.485931 0.422962
v 2.637461 1.01726 0.581611
v 2.811504 0.469098 0.657443
v 2.679445 0.687427 0.720573
v 2.60743 -0.208248 0.974218
v 2.399389 0.782091 0.915279
v 2.013534 -0.662303 1.191491
v 2.108912 -0.357128 1.259691
v 1.807583 1.756546 0.177627
v 2.0817 0.283249 1.259461
v 1.859443 1.450393 0.632222
v 0.737904 1.604213 0.281713
v 0.760722 1.205036 0.700545
v 0.316341 0.785311 1.08626
v 0.939271 0.379986 1.185872
v 0.960321 -0.308052 1.243133
v 0.546875 -0.39094 1.363244
v 0.939974 -0.894739 1.019809
v 0.544825 -1.133123 1.096902
v -0.559706 1.69418 0.186107
v -0.910602 1.204118 0.83774
v -0.406155 1.005088 0.971088
v -0.969076 0.901205 1.146223
v -0.11519 0.458427 1.346197
v -0.752416 0.438132 1.467349
v -0.536767 -0.144454 1.682232
v -0.524231 -1.399266 1.313019
v -1.292756 1.656509 0.51403
v -1.551526 1.400025 1.050193
v -1.479588 0.295746 1.440042
v -1.395501 -0.698702 1.553257
v 1.640095 -0.674556 1.246804
v 1.19204 -1.330605 0.678707
v -1.807421 0.657142 1.209422
v -1.79513 0.033439 1.37116
v -1.744732 1.734849 0.433807
v -1.929731 1.617188 0.80639
v -2.137524 1.753182 0.433142
v -2.296056 1.06281 1.171139
v -2.070413 0.207766 1.335106
v -2.187634 -0.375454 1.406902
v -2.276341 -0.689823 1.268026
v -2.71748 1.576797 0.875971
v -2.566746 -1.211312 1.167101
v -2.649338 -0.241719 1.339644
v -3.519716 1.685231 0.31713
v -3.476235 1.287798 0.704766
v -3.379131 0.767915 0.885996
v -3.306875 0.379713 0.98762
v -3.160225 -0.018852 1.113626
v -3.223286 -3.00178 1.126176
v -2.986345 -2.93377 1.087679
v -3.053267 -2.764905 1.043008
v -3.316551 -3.168932 1.121229
v -2.975439 -3.308754 1.25324
v -2.856957 -3.449728 1.356844
v -2.787341 -3.278502 1.138621
v -2.884711 -3.063896 0.993766
v -3.19417 -3.348553 1.007196
v -2.922908 -3.637036 1.059206
v -3.256731 -3.032131 0.849693
v -2.52472 -3.561609 1.161535
v -3.67645 -0.551317 0.077574
v -3.72947 -0.869371 0.096946
v -3.733767 -1.141917 0.111139
v -3.823638 -1.557534 0.081533
v -3.581963 -1.413947 -0.104371
v -4.107191 -1.83652 0.120149
v -4.018866 -1.413191 0.154149
v -4.029726 -1.043238 0.136305
v -4.229164 -1.473093 0.11156
v -3.921874 -0.538502 -0.145307
v -4.042715 -0.87671 -0.168968
v -4.252683 -1.437854 -0.14562
v -4.331331 -1.69259 -0.043593
v -3.86074 -0.188349 -0.024962
v -3.81743 0.150343 0.048629
v -3.469715 1.961504 0.071141
v -3.660928 1.770041 0.115431
v -3.75063 -0.191863 0.063305
v -3.716312 1.021474 0.057693
v -3.67251 0.16663 -0.048579
v -1.971059 -1.992958 0.500845
v -2.106039 -2.019111 0.510759
v -2.513608 -2.012858 0.558673
v -2.641567 -2.003164 0.575611
v 4.925499 1.917814 0.613413
v 5.001903 1.914398 0.486724
v 4.973133 1.992779 0.533466
v 4.861611 2.001639 0.621913
v 4.760921 1.881357 0.61312
v 4.963546 1.783161 0.553515
v 4.918466 2.084725 0.532713
v 5.075994 1.900999 0.443793
v 4.871155 1.741238 0.592326
v 4.688114 2.046378 0.604518
v 4.74405 2.179337 0.556057
v 4.837331 2.235678 0.479332
v 5.127157 1.942759 0.211214
v 5.133171 1.715563 0.334258
v 4.982822 1.503071 0.507606
v 4.79841 1.473149 0.570618
v 4.615408 1.639641 0.577768
v 4.533113 1.989009 0.578975
v 5.233176 1.442459 0.362988
v 4.634996 2.369115 0.140117
v 4.472349 2.325133 0.443764
v 5.158322 1.23677 0.418043
v 4.733657 1.227371 0.592883
v 4.430999 1.535753 0.638888
v 5.566339 1.498677 0.190905
v 5.471928 1.345179 0.313899
v 5.397967 1.174238 0.346802
v 5.608974 1.317869 0.319719
v 5.672187 1.164767 0.35408
v 5.813217 1.415581 0.195261
v 5.979357 1.325532 0.125337
v 5.931474 1.233483 0.215613
v 5.85775 0.997026 0.236768
v 5.573803 0.952578 0.243886
v 5.373646 0.885375 0.20884
v 5.511556 0.863525 0.177613
v 5.70463 0.849158 0.12813
v 4.99671 0.81056 0.280771
v 4.712067 0.770512 0.333393
v 4.496191 1.024566 0.579491
v 4.416475 0.921264 0.458839
v 4.312225 1.683392 0.639944
v 4.148883 1.759918 0.573765
v 4.452383 2.524558 0.130255
v 4.187258 2.590221 0.135844
v 4.328606 2.563996 0.343892
v 4.277169 2.652435 0.591369
v 4.423033 2.561337 0.603562
v 4.411541 2.663824 0.713132
v 4.546655 2.709095 0.80378
v 4.59262 2.569879 0.790452
v 4.821336 2.621498 0.789636
v 4.801436 2.750224 0.858918
v 5.096148 2.75972 0.774729
v 4.314039 2.32946 0.57751
v 4.382053 2.433474 0.798757
v 4.681847 2.551036 0.886235
v 4.497719 2.54748 0.937659
v 4.352603 2.524888 0.890532
v 4.192789 2.411967 0.668016
v 4.113935 2.334131 0.526471
v 4.854957 2.660227 0.92431
v 4.615662 2.63387 0.977986
v 4.104292 2.537976 0.543437
v 3.961908 2.347745 0.374747
v 3.967085 2.280648 0.537643
v 4.04473 2.254459 0.744209
v 4.215419 2.350484 0.885764
v 4.273005 2.310529 0.762172
v 4.097362 2.3666 1.239986
v 4.155551 2.388662 1.09196
v 4.061989 2.231988 1.178382
v 4.022592 2.123052 0.903284
v 4.036947 1.992167 1.072561
v 4.082988 2.175805 1.45093
v 4.152166 1.868775 1.225002
v 4.3427 2.112281 0.516692
v 4.354411 2.102985 0.80258
v 4.369751 2.298204 0.921894
v 4.153175 2.084823 0.799668
v 4.148865 2.148829 0.986567
v 4.154566 2.19048 1.129552
v -3.008323 -1.759271 0.655672
f 3 2 1
f 3 4 2
f 1 2 6
f 2 5 6
f 7 5 2
f 4 7 2
f 7 8 5
f 8 6 5
f 4 9 7
f 10 7 9
f 7 10 8
f 6 8 11
f 8 10 11
f 3 12 4
f 4 12 14
f 14 15 4
f 18 16 19
f 16 18 21
f 18 19 22
f 22 19 23
f 23 19 24
f 26 23 24
f 22 23 26
f 27 22 26
f 28 29 25
f 24 25 26
f 25 30 26
f 26 30 27
f 20 17 31
f 32 31 16
f 31 17 16
f 16 21 32
f 21 18 32
f 32 18 22
f 27 32 22
f 34 35 32
f 32 35 31
f 37 36 34
f 36 35 34
f 34 33 30
f 27 30 33
f 39 38 36
f 36 40 39
f 42 41 44
f 44 41 45
f 41 40 45
f 36 45 40
f 45 36 37
f 43 42 44
f 46 41 42
f 41 46 40
f 40 46 47
f 40 47 39
f 48 42 43
f 54 55 53
f 55 52 53
f 49 50 51
f 52 57 49
f 56 49 57
f 57 52 55
f 57 58 56
f 57 55 58
f 58 55 59
f 52 49 51
f 56 58 60
f 58 51 60
f 60 51 61
f 61 51 50
f 58 53 51
f 54 53 59
f 58 59 53
f 61 56 60
f 55 54 59
f 62 20 31
f 20 62 63
f 65 63 62
f 65 66 63
f 64 67 65
f 68 65 62
f 68 69 65
f 65 69 64
f 38 68 62
f 39 63 38
f 68 38 66
f 38 63 66
f 66 70 68
f 68 70 69
f 66 65 70
f 70 65 67
f 76 75 78
f 74 71 50
f 73 76 77
f 75 76 72
f 74 75 71
f 76 73 72
f 72 71 75
f 52 51 53
f 61 74 56
f 74 61 72
f 61 50 71
f 6 78 73
f 75 79 78
f 79 73 78
f 72 73 79
f 71 72 61
f 6 80 1
f 81 80 73
f 77 81 73
f 81 77 82
f 73 80 6
f 80 81 1
f 76 82 77
f 85 86 84
f 90 89 88
f 88 91 90
f 94 95 96
f 87 98 96
f 98 97 96
f 86 99 87
f 99 98 87
f 100 99 86
f 101 100 85
f 100 86 85
f 85 93 101
f 101 93 92
f 14 90 15
f 102 103 104
f 104 87 102
f 105 102 87
f 87 106 105
f 107 88 89
f 13 107 89
f 12 13 90
f 13 89 90
f 14 12 90
f 92 93 84
f 103 84 104
f 104 84 86
f 87 104 86
f 87 88 106
f 91 88 95
f 96 95 88
f 88 87 96
f 93 85 84
f 1 12 3
f 13 12 109
f 109 106 88
f 88 107 109
f 109 107 13
f 102 105 108
f 108 105 106
f 108 106 111
f 111 106 109
f 111 109 112
f 12 112 109
f 112 12 110
f 12 1 110
f 110 1 113
f 114 110 113
f 110 114 112
f 111 112 114
f 111 114 108
f 114 116 108
f 108 116 115
f 108 115 102
f 119 118 117
f 29 28 122
f 125 124 123
f 126 127 125
f 127 126 128
f 128 126 129
f 130 131 129
f 25 131 130
f 24 131 25
f 132 134 133
f 127 135 134
f 127 128 135
f 137 136 135
f 136 137 138
f 82 139 113
f 116 140 115
f 140 116 114
f 121 140 114
f 114 113 121
f 139 121 113
f 1 81 113
f 81 82 113
f 141 78 11
f 78 6 11
f 76 141 82
f 78 141 76
f 83 82 141
f 83 139 82
f 141 29 122
f 141 122 83
f 139 83 121
f 83 122 121
f 140 121 120
f 140 120 119
f 140 119 117
f 115 140 117
f 119 125 118
f 125 123 118
f 125 119 126
f 120 126 119
f 126 120 129
f 121 129 120
f 129 121 130
f 25 130 122
f 122 130 121
f 28 25 122
f 134 132 124
f 124 125 134
f 127 134 125
f 129 135 128
f 135 129 137
f 131 138 129
f 138 137 129
f 138 131 24
f 138 143 136
f 143 142 136
f 143 138 16
f 19 16 138
f 134 145 133
f 145 144 133
f 146 145 135
f 135 145 134
f 136 146 135
f 19 138 24
f 145 147 144
f 142 148 136
f 143 149 142
f 150 149 143
f 16 150 143
f 147 152 151
f 145 152 147
f 146 152 145
f 152 146 153
f 136 153 146
f 153 136 148
f 154 148 142
f 149 154 142
f 152 155 151
f 152 156 155
f 153 156 152
f 153 148 154
f 149 157 154
f 158 159 160
f 161 159 153
f 153 159 158
f 157 164 163
f 20 47 164
f 162 165 161
f 162 157 166
f 157 163 166
f 20 39 47
f 159 167 160
f 161 167 159
f 165 48 161
f 162 42 165
f 42 48 165
f 42 162 166
f 166 163 42
f 42 163 46
f 150 17 164
f 17 20 164
f 150 164 149
f 149 164 157
f 154 157 162
f 161 153 162
f 153 154 162
f 156 153 158
f 155 156 158
f 150 16 17
f 75 74 79
f 72 79 74
f 63 39 20
f 69 70 64
f 174 175 173
f 175 172 173
f 173 170 171
f 170 168 169
f 176 168 177
f 172 177 168
f 174 177 175
f 177 172 175
f 177 174 178
f 178 174 179
f 172 168 170
f 168 176 169
f 177 171 176
f 176 171 180
f 180 171 170
f 171 177 173
f 177 178 173
f 179 173 178
f 174 173 179
f 172 170 173
f 67 64 169
f 170 169 64
f 169 176 67
f 70 67 176
f 176 180 70
f 170 64 180
f 64 70 180
f 163 164 46
f 46 164 47
f 161 48 181
f 181 48 43
f 181 167 161
f 184 185 182
f 187 183 182
f 182 185 187
f 185 186 160
f 187 188 183
f 185 160 187
f 155 158 186
f 33 189 27
f 32 27 189
f 32 189 34
f 189 190 34
f 34 190 33
f 190 189 33
f 31 35 192
f 35 191 192
f 31 192 36
f 35 36 191
f 36 192 191
f 194 195 193
f 193 195 196
f 195 198 196
f 194 193 199
f 199 195 194
f 193 200 199
f 197 200 193
f 201 199 200
f 201 202 199
f 202 195 199
f 203 198 195
f 204 193 196
f 197 193 204
f 205 202 201
f 205 203 202
f 203 206 198
f 196 198 206
f 196 206 207
f 204 196 207
f 207 208 204
f 204 200 197
f 209 200 204
f 201 200 210
f 210 200 209
f 212 203 205
f 209 204 208
f 210 213 201
f 214 207 206
f 211 212 205
f 212 211 215
f 203 212 206
f 216 217 207
f 208 207 217
f 215 219 212
f 212 219 206
f 219 214 206
f 222 219 221
f 221 219 215
f 214 219 222
f 214 222 220
f 224 225 221
f 221 215 224
f 218 224 215
f 226 221 225
f 225 224 227
f 228 230 226
f 231 230 227
f 228 227 230
f 230 231 229
f 222 221 223
f 229 226 230
f 223 221 226
f 232 229 231
f 222 223 232
f 222 232 220
f 220 232 233
f 234 233 235
f 233 231 235
f 214 220 233
f 233 234 214
f 227 236 231
f 237 236 227
f 231 236 235
f 236 237 235
f 234 235 238
f 240 238 239
f 239 241 240
f 234 238 240
f 207 214 240
f 214 234 240
f 216 207 240
f 216 240 241
f 242 216 241
f 242 241 239
f 239 96 242
f 97 242 96
f 98 242 97
f 242 217 216
f 242 98 217
f 243 208 217
f 209 208 243
f 98 243 217
f 213 205 201
f 246 245 213
f 248 247 245
f 245 246 248
f 248 246 250
f 249 248 251
f 248 250 251
f 249 251 252
f 252 251 253
f 252 253 254
f 255 256 253
f 254 253 256
f 246 213 210
f 246 210 250
f 250 258 251
f 253 251 258
f 210 259 250
f 259 258 250
f 258 255 253
f 256 255 260
f 260 257 256
f 261 258 259
f 261 263 258
f 258 263 255
f 255 264 260
f 259 249 261
f 265 249 259
f 259 262 265
f 248 265 262
f 264 257 260
f 249 265 248
f 264 254 256
f 247 248 262
f 249 252 261
f 261 252 263
f 263 252 255
f 252 254 255
f 257 264 256
f 255 254 264
f 262 92 247
f 262 266 92
f 266 101 92
f 101 266 100
f 262 267 266
f 267 262 259
f 269 267 268
f 259 268 267
f 269 271 267
f 273 267 271
f 274 271 270
f 272 275 270
f 274 270 275
f 273 274 276
f 273 271 274
f 100 266 277
f 99 100 244
f 100 277 244
f 277 267 273
f 266 267 277
f 277 273 244
f 278 259 210
f 278 210 209
f 280 259 278
f 268 259 269
f 259 280 269
f 269 280 281
f 269 281 271
f 270 271 272
f 279 272 271
f 243 280 278
f 282 271 281
f 271 282 279
f 281 280 282
f 282 280 276
f 276 280 273
f 276 274 282
f 274 279 282
f 274 275 279
f 275 272 279
f 278 209 243
f 280 243 244
f 273 280 244
f 225 227 226
f 227 228 226
f 232 223 229
f 229 223 226
f 233 232 231
f 195 202 203
f 99 244 243
f 243 98 99
f 239 94 96
f 56 74 50
f 49 56 50
f 36 38 31
f 160 186 158
f 31 38 62
f 283 284 285
f 283 286 284
f 285 287 283
f 287 288 283
f 283 288 289
f 286 283 289
f 291 289 288
f 288 10 291
f 10 288 287
f 9 4 290
f 289 9 290
f 10 9 289
f 291 10 289
f 287 11 10
f 15 292 286
f 286 292 284
f 290 15 286
f 290 4 15
f 286 289 290
f 292 293 284
f 295 294 296
f 296 294 299
f 296 299 300
f 295 296 300
f 300 297 295
f 300 301 297
f 305 303 301
f 302 305 301
f 301 300 302
f 305 302 300
f 304 25 29
f 304 303 25
f 303 305 25
f 305 30 25
f 300 30 305
f 306 30 300
f 308 307 298
f 307 294 298
f 299 294 307
f 300 299 306
f 309 299 307
f 37 34 310
f 34 307 310
f 309 307 34
f 34 30 309
f 30 306 309
f 314 315 43
f 314 44 313
f 313 44 312
f 45 312 44
f 311 312 45
f 37 311 45
f 44 314 43
f 316 313 312
f 311 316 312
f 321 322 323
f 324 319 323
f 317 319 318
f 321 320 325
f 326 322 325
f 322 321 325
f 320 327 325
f 326 325 327
f 328 326 327
f 319 317 321
f 320 321 317
f 328 323 322
f 327 319 324
f 329 319 327
f 329 318 319
f 327 324 323
f 329 327 320
f 328 327 323
f 326 328 322
f 330 308 298
f 331 330 298
f 332 330 331
f 330 332 334
f 332 336 334
f 334 337 335
f 333 336 332
f 338 330 334
f 334 335 338
f 333 330 338
f 338 336 333
f 336 338 340
f 338 339 340
f 339 337 340
f 340 334 336
f 337 334 340
f 311 333 332
f 329 342 344
f 345 347 344
f 346 347 345
f 341 329 344
f 348 344 347
f 350 341 349
f 341 343 349
f 342 341 350
f 350 345 344
f 350 344 342
f 345 349 346
f 349 343 346
f 350 349 345
f 323 319 321
f 320 342 329
f 318 329 341
f 341 342 318
f 287 343 348
f 344 348 341
f 348 343 341
f 287 285 351
f 352 353 351
f 353 352 346
f 352 354 346
f 346 354 347
f 354 355 347
f 343 353 346
f 351 353 343
f 343 287 351
f 285 352 351
f 84 356 357
f 357 356 358
f 359 358 356
f 360 361 359
f 358 359 361
f 361 360 362
f 362 360 91
f 94 364 95
f 358 364 365
f 357 358 365
f 366 357 365
f 367 357 366
f 367 92 363
f 90 368 15
f 102 369 103
f 356 103 369
f 369 370 356
f 359 370 371
f 360 359 372
f 292 360 372
f 368 292 15
f 84 363 92
f 360 368 91
f 91 368 90
f 84 103 356
f 359 356 370
f 360 292 368
f 362 91 95
f 362 95 361
f 361 95 364
f 361 364 358
f 367 84 357
f 84 367 363
f 372 359 373
f 293 292 374
f 374 372 373
f 292 372 374
f 373 359 371
f 373 371 375
f 374 373 293
f 373 284 293
f 377 376 284
f 369 102 378
f 115 378 102
f 284 373 377
f 379 377 373
f 379 373 375
f 380 375 370
f 375 371 370
f 370 369 380
f 378 380 369
f 381 117 118
f 382 381 118
f 118 383 382
f 382 383 384
f 385 384 383
f 385 383 386
f 387 385 386
f 388 387 386
f 388 29 387
f 124 389 123
f 390 391 389
f 123 389 391
f 393 391 392
f 391 390 392
f 392 394 393
f 394 395 393
f 393 395 386
f 304 395 303
f 395 396 303
f 389 132 133
f 389 133 397
f 392 398 394
f 395 398 399
f 399 400 395
f 396 395 400
f 396 400 297
f 376 401 354
f 380 384 375
f 379 375 384
f 377 379 384
f 377 384 385
f 377 385 376
f 376 385 401
f 285 376 352
f 376 285 284
f 376 354 352
f 141 11 348
f 11 287 348
f 348 347 402
f 348 402 141
f 402 29 141
f 355 402 347
f 117 378 115
f 387 29 402
f 402 355 387
f 387 355 354
f 401 385 354
f 385 387 354
f 384 380 382
f 381 382 380
f 381 380 378
f 117 381 378
f 383 118 391
f 118 123 391
f 391 393 383
f 393 386 383
f 386 395 388
f 395 304 388
f 388 304 29
f 124 132 389
f 389 397 390
f 397 398 390
f 390 398 392
f 395 394 398
f 396 301 303
f 398 403 399
f 399 403 404
f 400 399 404
f 400 404 297
f 397 133 405
f 406 397 405
f 397 406 398
f 403 398 406
f 404 294 295
f 301 396 297
f 404 295 297
f 144 147 133
f 407 405 147
f 133 147 405
f 405 407 406
f 406 408 403
f 403 408 409
f 403 409 404
f 409 410 404
f 411 404 410
f 404 411 294
f 147 151 407
f 406 407 412
f 412 408 406
f 411 413 294
f 407 151 412
f 151 155 412
f 409 414 410
f 416 412 415
f 412 416 417
f 331 410 316
f 316 311 331
f 416 315 417
f 418 417 315
f 315 314 418
f 418 314 419
f 314 313 419
f 411 410 413
f 410 331 413
f 410 414 419
f 419 414 418
f 418 414 409
f 417 418 409
f 409 408 417
f 412 417 408
f 415 412 155
f 298 294 413
f 298 413 331
f 331 311 332
f 335 339 338
f 424 425 426
f 427 421 426
f 420 421 422
f 422 337 420
f 424 423 428
f 429 424 428
f 425 424 429
f 427 428 423
f 427 429 428
f 426 429 427
f 423 337 430
f 421 420 424
f 423 424 420
f 420 337 423
f 422 421 427
f 426 425 431
f 423 430 427
f 430 422 427
f 429 426 431
f 426 421 424
f 431 425 429
f 335 337 422
f 430 337 339
f 430 339 422
f 422 339 335
f 419 313 410
f 410 313 316
f 416 181 315
f 43 315 181
f 415 160 167
f 416 415 167
f 416 167 181
f 434 435 436
f 434 433 438
f 434 438 435
f 435 438 437
f 433 439 438
f 439 440 438
f 438 440 437
f 433 441 442
f 433 442 439
f 439 443 440
f 440 443 444
f 440 444 437
f 442 436 439
f 436 443 439
f 183 446 182
f 185 184 186
f 186 447 155
f 184 448 186
f 186 448 447
f 449 446 445
f 188 446 449
f 446 450 182
f 182 450 184
f 450 448 184
f 448 160 447
f 446 188 450
f 188 187 450
f 450 187 448
f 187 160 448
f 188 449 451
f 451 183 188
f 449 442 451
f 442 445 451
f 445 446 451
f 451 446 183
f 445 433 432
f 449 445 432
f 445 442 441
f 445 441 433
f 449 432 442
f 432 433 434
f 442 432 434
f 442 434 436
f 444 435 437
f 443 436 435
f 444 443 435
f 447 415 155
f 299 452 306
f 299 309 452
f 309 453 452
f 309 306 453
f 306 452 453
f 307 308 454
f 308 455 454
f 308 310 455
f 307 454 310
f 454 455 310
f 456 457 458
f 458 459 456
f 457 456 461
f 459 458 462
f 460 459 462
f 458 457 462
f 461 463 457
f 464 461 456
f 460 464 456
f 466 465 462
f 467 466 462
f 211 467 457
f 462 457 467
f 211 457 463
f 467 211 213
f 463 468 211
f 461 469 463
f 470 469 461
f 464 470 461
f 471 470 464
f 471 464 472
f 464 465 472
f 472 465 473
f 473 465 466
f 463 469 468
f 473 213 475
f 473 475 476
f 470 474 469
f 477 474 470
f 471 477 470
f 211 468 215
f 468 469 215
f 469 474 215
f 478 477 471
f 478 471 472
f 215 474 480
f 474 481 480
f 474 482 481
f 477 482 474
f 218 215 480
f 481 483 480
f 482 483 481
f 485 486 224
f 485 224 480
f 480 224 218
f 487 486 485
f 486 227 224
f 227 487 488
f 483 484 485
f 483 485 480
f 485 488 487
f 488 485 484
f 483 489 484
f 489 488 484
f 482 489 483
f 490 491 482
f 491 489 482
f 491 488 489
f 492 488 491
f 482 477 490
f 227 488 237
f 488 492 237
f 235 237 492
f 491 235 492
f 491 490 235
f 238 235 490
f 239 238 490
f 493 239 490
f 239 493 494
f 493 490 477
f 494 493 478
f 493 477 478
f 494 478 495
f 496 494 495
f 239 494 496
f 495 364 496
f 495 479 364
f 495 472 479
f 479 472 497
f 497 472 473
f 364 479 365
f 479 497 365
f 365 497 498
f 213 211 205
f 245 499 213
f 499 245 500
f 245 247 500
f 499 500 501
f 502 504 501
f 501 504 503
f 475 213 499
f 476 499 501
f 476 501 503
f 505 506 504
f 508 507 506
f 507 508 509
f 475 499 476
f 510 476 503
f 511 503 504
f 511 504 506
f 512 506 509
f 509 506 507
f 513 506 512
f 514 511 513
f 513 511 506
f 514 515 511
f 515 503 511
f 510 503 515
f 510 515 516
f 509 517 512
f 518 512 517
f 512 518 513
f 515 519 516
f 500 519 501
f 518 506 505
f 504 514 505
f 519 502 501
f 500 516 519
f 516 500 247
f 514 504 502
f 515 502 519
f 515 514 502
f 513 505 514
f 517 506 518
f 506 517 508
f 509 508 517
f 513 518 505
f 516 247 92
f 516 92 520
f 92 367 520
f 521 516 520
f 521 520 367
f 367 366 521
f 521 522 516
f 522 510 516
f 523 524 522
f 522 524 510
f 527 525 526
f 523 522 526
f 521 528 522
f 526 522 528
f 527 526 529
f 525 527 530
f 530 527 529
f 529 526 528
f 529 528 521
f 498 521 366
f 498 529 521
f 476 510 532
f 473 476 532
f 532 510 533
f 523 510 524
f 510 523 533
f 534 533 523
f 523 526 534
f 497 532 533
f 536 533 534
f 537 536 534
f 534 526 537
f 526 525 537
f 536 531 533
f 535 533 531
f 536 537 531
f 531 537 529
f 529 537 530
f 537 525 530
f 532 497 473
f 533 535 497
f 486 487 227
f 472 495 478
f 465 464 462
f 460 462 464
f 460 456 459
f 213 473 467
f 466 467 473
f 529 498 535
f 529 535 531
f 239 496 94
f 496 364 94
f 365 498 366
f 498 497 535
f 320 318 342
f 317 318 320
f 37 538 311
f 37 310 538
f 310 308 538
f 415 447 160
f 308 330 538
f 333 311 330
f 330 311 538
