v 2.229345 -0.992723 -0.862826
v 2.931756 -1.129655 0.0
v 1.920432 -1.567396 0.0
v 2.881063 -0.493146 -0.521968
v -2.033406 -0.91003 -0.96422
v -1.200688 -1.577575 -0.799188
v -0.063012 -1.583021 -0.865082
v -2.734184 -1.717948 -0.749581
v -2.267049 -1.753901 -0.662106
v -2.941731 -1.787431 -0.442574
v -3.557869 -1.325941 -0.37803
v -3.616627 -0.350374 -0.338492
v 1.734568 -2.965876 -0.986396
v 1.911792 -2.895773 -0.950117
v -3.23261 -1.834299 -1.087832
v -3.078699 -2.553982 -1.046834
v -3.240554 -2.555467 -0.856262
v 1.953911 -2.462233 -0.830594
v 1.98533 -2.221319 -0.893145
v 2.021591 -1.755289 -0.912093
v 1.966698 -1.22816 -1.153716
v 3.233975 2.059193 -0.072431
v 3.528445 1.060127 -0.489443
v 3.36004 0.165487 -0.412685
v 3.71636 2.343387 0.0
v 4.120842 0.627141 -0.185461
v 3.98851 1.297806 -0.539537
v 2.361089 1.76666 -0.202595
v 2.637461 1.01726 -0.581611
v 0.737904 1.604213 -0.281713
v 0.939271 0.379986 -1.185872
v -0.406155 1.005088 -0.971088
v 0.021051 -0.831931 -1.511548
v -1.215563 1.757097 -0.133494
v -1.551526 1.400025 -1.050193
v -1.479588 0.295746 -1.440042
v -2.187634 -0.375454 -1.406902
v -2.672899 1.90511 -0.067168
v -2.68493 1.262021 -1.11049
v -3.35851 1.810253 -0.380095
v -3.507689 1.700214 0.0
v -3.302419 -3.017921 -1.128514
v -3.900566 1.002504 0.0
v -3.674766 0.517345 -6.3e-05
v 4.897808 1.946794 -0.628057
v 4.752337 1.723388 -0.591296
v 4.982822 1.503071 -0.507606
v 4.533113 1.989009 -0.578975
v 5.04969 2.032731 7.1e-05
v 5.218821 1.803552 -0.199306
v 4.634996 2.369115 -0.140117
v 5.158322 1.23677 -0.418043
v 5.528186 1.44018 -0.250666
v 5.672187 1.164767 -0.35408
v 5.908842 1.388968 0.001026
v 5.757506 0.9579 -0.210732
v 4.920855 0.812339 0.000318
v 4.312225 1.683392 -0.639944
v 4.342351 2.581176 -0.140317
v 4.407729 2.53164 -0.486692
v 4.113935 2.334131 -0.526471
v 4.061989 2.231988 -1.178382
v 2.407309 -0.97498 0.805091
v 2.835437 -0.231101 0.57789
v -2.306662 -1.116976 0.961238
v -1.782298 -1.020581 0.943381
v -0.535144 -1.615983 0.920556
v -1.764045 -1.764987 0.406586
v -2.684452 -1.891207 0.447388
v -3.304804 -1.582192 0.643445
v -3.665774 -0.73408 0.446286
v 1.806371 -2.949735 0.984058
v -2.918293 -1.904184 1.004659
v -3.347304 -2.573628 0.955211
v -2.981187 -2.142718 0.858353
v 2.02453 -2.195334 0.811284
v 1.710406 -2.272223 0.954296
v 1.717145 -1.80953 1.004092
v 1.966698 -1.22816 1.153716
v 3.189664 0.907503 0.500122
v 4.068249 0.798926 0.400813
v 2.013534 -0.662303 1.191491
v 1.859443 1.450393 0.632222
v 0.760722 1.205036 0.700545
v -0.752416 0.438132 1.467349
v -1.479588 0.295746 1.440042
v -1.744732 1.734849 0.433807
v -2.187634 -0.375454 1.406902
v -2.71748 1.576797 0.875971
v -3.379131 0.767915 0.885996
v -3.223286 -3.00178 1.126176
v -3.72947 -0.869371 0.096946
v -3.86074 -0.188349 -0.024962
v 4.925499 1.917814 0.613413
v 5.133171 1.715563 0.334258
v 4.615408 1.639641 0.577768
v 5.233176 1.442459 0.362988
v 4.472349 2.325133 0.443764
v 4.733657 1.227371 0.592883
v 5.672187 1.164767 0.35408
v 4.187258 2.590221 0.135844
v 4.423033 2.561337 0.603562
v 4.314039 2.32946 0.57751
v 4.04473 2.254459 0.744209
v 4.036947 1.992167 1.072561
v 0.939271 0.379986 1.185872
v -0.956007 -1.825728 0.0
v 3.115383 1.49239 0.380228
v -0.559706 1.69418 0.18610700000000002
v -3.55232 0.21961300000000006 0.0
v 2.91987 0.084875 -0.64246
v -2.981187 -2.142718 -0.858353
v 2.126237 -1.330172 0.721011
v -3.921874 -0.538502 -0.145307
v -3.132772 -2.528669 0.848639
v 4.312225 1.683392 0.639944
v 4.546655 2.709095 0.80378
v 5.573803 0.952578 0.243886
v 5.378289 1.768448 0.00044099999999999695
v 4.314039 2.32946 -0.57751
v 1.705953 -3.006628 -0.83263
v -3.84447 0.498176 -0.053132
v 0.44655 -1.67295 0.0
v -2.47375 0.300945 -1.316695
v -0.910602 1.204118 0.83774
v 3.886058 1.550141 0.50483
v -0.11519000000000001 0.458427 -1.346197
v 0.960321 -0.308052 1.243133
v 3.342159 -0.384674 0.201349
v 2.247981 -3.342804 -1.127459
v -2.462835 -1.3055 -0.966395
v 1.807583 1.756546 -0.177627
v -2.591357 -1.510845 0.88547
v 4.38099 2.207701 -0.839016
v 2.053108 -1.738285 0.824853
v 2.318787 -1.29409 -0.673863
v 1.841282 -2.716008 0.708009
v 4.35668 2.682996 -0.71905
v -3.733767 -1.141917 0.111139
v 4.688114 2.046378 0.604518
v 5.92711 1.131195 0.0011180000000000079
v -2.986345 -2.93377 1.087679
v 4.215419 2.350484 0.885764
v 4.681847 2.551036 0.886235
v -3.107105 -2.947818 -1.092235
v 4.79841 1.473149 -0.570618
v -3.469715 1.961504 0.07114100000000001
v -1.395501 -0.698702 1.553257
v -3.177824 -2.279173 -1.04758
v -1.551526 1.400025 1.050193
v 2.495354 0.250522 -1.132081
v -1.576196 -1.696317 -0.358146
v 4.416475 0.921264 -0.458839
v 1.678986 -2.513137 -0.891745
v -3.569993 -0.731989 -0.649435
v 1.49748 -1.283201 1.088258
v 3.961908 2.347745 0.374747
v -2.955052 -1.49684 1.128812
v 2.723503 1.898839 0.0
v -3.823638 -1.557534 0.081533
v 4.097362 2.3666 1.239986
v 3.065544 -0.788768 0.0
v 4.022592 2.123052 -0.903284
v 5.471928 1.345179 0.313899
v 5.470775 1.009574 -0.355371
v 4.262798 2.490674 -0.818316
v -2.946527 -2.939327 -0.986343
v -3.316551 -3.168932 1.121229
v 1.771416 -2.769024 0.9461
v 4.918466 2.084725 0.532713
v 4.59262 2.569879 0.790452
v 4.973133 1.992779 -0.533466
v -3.67645 -0.551317 0.077574
v 2.013534 -0.662303 -1.191491
v -3.160225 -0.018851999999999994 1.113626
v -0.977375 -1.793126 0.498747
v -3.476235 1.287798 -0.704766
v -0.969076 0.901205 -1.146223
v 1.572979 -1.827591 -0.985823
v 2.637461 1.01726 0.581611
v -0.406155 1.005088 0.971088
v 5.096148 2.75972 0.774729
v -4.252683 -1.437854 -0.14561999999999997
v 2.126553 -3.549679 -0.701005
v -1.776785 -1.275107 -0.914703
v -2.892162 -1.781087 0.0
v -3.23261 -1.834299 1.087832
v 2.031262 -3.256709 1.111122
v -2.975439 -3.308754 1.25324
v -2.126375 -1.866497 0.502895
v 4.152166 1.868775 -1.225002
v 2.669281 -0.930664 0.557166
v 3.559394 0.706516 -0.452535
v 3.758215 2.206683 -0.323051
v 2.61797 -1.235597 -0.520238
v 4.982822 1.503071 0.507606
v 4.354411 2.102985 0.80258
v 4.99671 0.81056 -0.280771
v -3.042899 -3.193907 -1.207296
v 4.328606 2.563996 0.343892
v 5.813217 1.415581 0.195261
v 4.837331 2.235678 0.479332
v 4.760921 1.881357 -0.61312
v 4.47609 2.606654 -0.692301
v -1.395501 -0.698702 -1.553257
v -2.296056 1.06281 1.171139
v 1.975941 0.827957 -1.018423
v 0.316341 0.785311 1.08626
v 0.960321 -0.308052 -1.243133
v -3.08565 1.65734 -0.784479
v -2.937658 -1.002749 -1.219413
v -3.556552 0.704883 -0.28063
v -3.87514 1.480358 0.0
v -0.07847 -1.688266 0.80023
v -1.683863 1.789041 -0.121501
v 3.98291 1.987391 -0.639809
v -2.223917 -1.541268 0.87926
v -3.650579 -1.142448 0.0
v 2.5392 -0.727778 -0.750475
v 3.280681 0.510802 0.499434
v -4.107191 -1.83652 0.12014900000000002
v -3.068444 -2.260195 1.03507
v -2.922908 -3.637036 1.059206
v 1.640095 -0.674556 1.246804
v 1.83279 -3.296508 -0.865078
v 1.918641 -2.083654 1.001275
v 1.83279 -3.296508 0.865078
v 1.604939 -1.556997 0.0
v 2.61797 -1.235597 0.520238
v 3.4583 2.151656 0.102662
v 4.094116 2.426172 -1.381032
v -2.446375 -1.893261 -0.49411
v -3.223246 -3.225388 -0.976573
v 4.277169 2.652435 0.591369
v 4.382053 2.433474 0.798757
v 4.209941 2.600612 -0.337597
v 5.373646 0.885375 0.20884
v 4.148865 2.148829 0.986567
v 5.730427 1.435668 -0.209848
v 5.923808 1.025283 -0.153084
v 4.59262 2.569879 -0.790452
v 4.963546 1.783161 0.553515
v 5.00244 2.105746 -0.468233
v -3.476235 1.287798 0.704766
v 2.811504 0.469098 0.657443
v -3.112555 0.457376 -1.084816
v -0.487217 -1.193519 -1.504026
v 4.634996 2.369115 0.140117
v 0.223642 1.684075 -0.160743
v -3.80184 1.012668 -0.115288
v -0.524231 -1.399266 1.313019
v 3.737014 0.181837 -0.176819
v -1.996117 1.387891 -1.064104
v -3.47843 1.975409 0.0
v 3.814876 1.968416 0.443
v -1.79513 0.033438999999999997 1.37116
v 2.361089 1.76666 0.202595
v -4.018866 -1.413191 0.154149
v -3.595973 -0.346391 0.426453
v -1.88316 -1.829718 -0.401567
v 4.496191 1.024566 0.579491
v 2.346081 -0.74535 -1.013296
v -3.256731 -3.032131 0.849693
v 1.884318 -2.724404 -0.701999
v 3.276333 1.863773 -0.294266
v -3.139394 -1.687482 -0.638546
v 1.310865 -1.136322 0.914838
v 4.821336 2.621498 0.789636
v 5.588763 1.573846 0.0006859999999999922
v 4.082988 2.175805 1.45093
v -2.508885 -1.719933 0.721675
v 4.199317 2.304652 -1.17454
v 4.733657 1.227371 -0.592883
v 2.141273 -1.234642 0.941254
v 1.900481 -3.131932 0.728621
v 4.113935 2.334131 0.526471
v 5.70463 0.849158 0.12813
v 4.146067 2.278102 -0.707372
v 4.509555 2.719807 -0.819972
v 5.800778 1.078596 -0.31945
v -2.888628 -3.200302 -1.210934
v 5.001903 1.914398 0.486724
v 4.918466 2.084725 -0.532713
v -1.053434 -0.342553 -1.690245
v 2.0817 0.283249 1.259461
v 1.504951 1.483493 -0.585976
v 1.473886 -1.818947 -0.799576
v -0.536767 -0.144454 1.682232
v -3.709741 1.351194 -0.211745
v 1.473886 -1.818947 0.799576
v -2.649338 -0.241719 -1.339644
v -1.017767 1.607824 -0.541965
v 1.49748 -1.283201 -1.088258
v -0.977375 -1.793126 -0.498747
v -1.456655 -1.295527 0.89424
v -3.306875 0.379713 0.98762
v -3.053102 1.96881 -0.051104
v 2.078928 -3.584991 0.917088
v -3.67251 0.16663 -0.048579
v -3.55012 -0.984868 0.675228
v -3.347304 -2.573628 -0.955211
v -4.029726 -1.043238 0.13630500000000004
v 3.929251 0.411689 0.0
v 2.688131 -0.517509 0.672975
v 2.396355 1.242239 -0.597722
v -3.387254 -1.486027 -0.672861
v -3.162498 -2.556375 1.058409
v 2.993075 -0.708434 -0.342596
v 3.377233 1.5878 0.400781
v 1.970051 -3.141862 -1.065178
v 4.522247 1.398278 -0.644892
v 2.021366 -2.881725 0.945561
v 1.974215 -1.469208 1.068951
v -2.736599 -3.394849 -1.269577
v 3.961908 2.347745 -0.374747
v -2.126375 -1.866497 -0.502895
v 5.158322 1.23677 0.418043
v -2.787341 -3.278502 1.138621
v 5.373646 0.885375 -0.20884
v 4.036947 1.992167 -1.072561
v 2.663024 -1.440487 0.478149
v 2.663024 -1.440487 -0.478149
v 4.022592 2.123052 0.903284
v 4.148883 1.759918 0.573765
v 4.497719 2.54748 0.937659
v 4.314791 2.142163 -0.54065
v 4.440143 2.510529 -0.269164
v 5.979357 1.325532 0.125337
v 4.995978 2.148785 -0.344534
v 4.656565 2.680542 -0.799684
v 4.871155 1.741238 0.592326
v 4.926194 1.859813 -0.582137
v -1.292756 1.656509 0.5140300000000001
v 4.152166 1.868775 1.225002
v -3.096267 -0.6681 -1.140081
v 0.489819 -1.524947 -0.672392
v -1.807421 0.657142 1.209422
v 2.399389 0.782091 0.915279
v 0.939974 -0.894739 1.019809
v -0.221516 1.686349 -0.151403
v 2.60743 -0.208248 0.974218
v -1.778934 -1.550199 0.776454
v -3.582867 0.734419 -0.697787
v -1.79513 0.033438999999999997 -1.37116
v -2.079597 1.817785 -0.13837499999999997
v 1.640095 -0.674556 -1.246804
v 1.648793 -2.280014 -0.929365
v -3.75063 -0.191863 0.063305
v 2.738132 1.687333 -0.295046
v -3.27979 -1.162072 -0.784602
v -2.276341 -0.689823 1.268026
v -3.53391 -1.330455 0.568246
v 3.559394 0.706516 0.452535
v -3.581963 -1.413947 -0.10437099999999999
v 2.108912 -0.357128 1.259691
v -1.456655 -1.295527 -0.89424
v -3.519716 1.685231 0.31713
v 2.669281 -0.930664 -0.557166
v 2.734183 0.038769 -0.86581
v 4.99671 0.81056 0.280771
v 3.479418 1.97825 0.317478
v -3.339489 -2.328145 0.827572
v 3.886058 1.550141 -0.50483
v 5.397967 1.174238 -0.346802
v 1.900481 -3.131932 -0.728621
v -3.137383 -2.776449 -0.844117
v 5.127157 1.942759 0.211214
v 4.452383 2.524558 0.130255
v -3.087335 -3.350463 -0.831656
v 1.941767 -1.759457 0.997454
v -2.734184 -1.717948 0.749581
v 4.430999 1.535753 0.638888
v -2.837147 -1.791733 -0.921563
v -2.856957 -3.449728 1.356844
v 4.342998 2.664049 -0.904347
v 2.138771 -3.397683 1.214726
v 4.104292 2.537976 -0.543437
v 4.615662 2.63387 0.977986
v 2.318787 -1.29409 0.673863
v 2.126237 -1.330172 -0.721011
v 5.397967 1.174238 0.346802
v 4.192789 2.411967 0.668016
v 4.102304 2.29996 -1.025862
v 4.801436 2.750224 -0.858918
v 4.155551 2.388662 1.09196
v 5.979357 1.325532 -0.125337
v 4.561299 2.133066 -0.547248
v 5.851404 0.929008 -0.105362
v 4.861611 2.001639 0.621913
v 5.001903 1.914398 -0.486724
v -2.298249 0.768333 -1.203884
v 0.03408699999999998 -0.225059 -1.542949
v -0.11519 0.458427 1.346197
v 0.737904 1.604213 0.281713
v 4.712067 0.770512 -0.333393
v -3.716312 1.021474 0.057693
v -1.929731 1.617188 0.80639
v -2.649338 -0.241719 1.339644
v 0.544825 -1.133123 1.096902
v -3.424258 0.158638 -0.918279
v 2.706963 -1.528854 0.0
v -3.686518 -0.955181 -0.320349
v 4.153175 2.084823 0.799668
v -1.200688 -1.577575 0.799188
v 2.519027 1.485931 0.422962
v 5.85775 0.997026 0.236768
v 1.945206 -2.015769 -0.672724
v -4.042715 -0.87671 -0.168968
v -3.623861 0.911561 0.0
v -2.276341 -0.689823 -1.268026
v -0.559706 1.69418 -0.186107
v -2.703112 1.825435 -0.395127
v -2.981824 -3.608887 -1.346959
v -2.042059 -1.312976 0.940911
v -1.552229 -1.555077 -0.735708
v 2.025468 -3.556842 -1.204841
v 3.377233 1.5878 -0.400781
v 3.43895 -0.08258 -0.257015
v 1.310865 -1.136322 -0.914838
v 4.712067 0.770512 0.333393
v -3.498521 -1.762078 0.762472
v 2.50049 -0.03502899999999998 -1.170179
v -4.331331 -1.69259 -0.04359299999999999
v 2.201939 -3.226457 0.996503
v 4.068249 0.798926 -0.400813
v -3.327526 -2.075729 -1.005328
v 3.47341 1.366149 0.454658
v -2.513608 -2.012858 0.558673
v -3.712832 1.794492 0.0
v 4.6248 2.708372 -0.989445
v 4.104292 2.537976 0.543437
v 4.215419 2.350484 -0.885764
v -3.32033 -2.827513 -1.063914
v 1.718315 -2.775468 -0.921796
v -1.971059 -1.992958 0.500845
v 2.410367 -0.777999 0.841105
v 1.596751 -1.722028 0.684655
v 4.148883 1.759918 -0.573765
v -2.884711 -3.063896 0.993766
v 2.407309 -0.97498 -0.805091
v 1.721745 -3.116887 0.979111
v -1.933565 -1.993029 -0.438902
v 4.533113 1.989009 0.578975
v 4.369751 2.298204 0.921894
v 5.608974 1.317869 -0.319719
v 4.22473 2.624525 -0.491916
v -2.499138 -2.03809 -0.504529
v 4.352603 2.524888 0.890532
v 4.474625 2.465214 -0.75189
v 4.061989 2.231988 1.178382
v 4.801436 2.750224 0.858918
v 5.511556 0.863525 -0.17761299999999997
v 5.608974 1.317869 0.319719
v 5.931474 1.233483 -0.215613
v 4.154566 2.19048 -1.129552
v 4.825996 2.089176 -0.576083
v 4.973133 1.992779 0.533466
v 4.963546 1.783161 -0.553515
v 0.760722 1.205036 -0.700545
v 1.930747 -2.463535 0.894743
v -3.008323 -1.759271 0.655672
v -0.752416 0.438132 -1.467349
v -3.536654 0.442277 0.322
v 0.939974 -0.894739 -1.019809
v 4.3427 2.112281 0.516692
v 2.857666 -0.930625 0.39119500000000007
v 0.546875 -0.39094 1.363244
v -0.969076 0.901205 1.146223
v 3.814876 1.968416 -0.443
v -2.566746 -1.211312 1.167101
v -2.049879 -1.562369 -0.829319
v -2.52472 -3.561609 1.161535
v -2.137524 1.753182 0.433142
v 1.807583 1.756546 0.177627
v 3.737014 0.18183699999999997 0.176819
v -3.81743 0.150343 0.048629
v -3.637643 -0.356271 0.0
v -0.894132 1.712652 -0.151911
v -2.870422 -3.601724 -0.843123
v 1.19204 -1.330605 0.678707
v -2.070413 0.207766 1.335106
v 2.108912 -0.357128 -1.259691
v 2.747937 0.712253 -0.615674
v -1.744732 1.734849 -0.433807
v -1.802864 -0.282523 -1.401315
v -1.266738 -1.691944 0.557922
v -3.660928 1.770041 0.115431
v -3.327526 -2.075729 1.005328
v 2.835437 -0.231101 -0.57789
v -0.953236 -1.545941 -0.89918
v 2.679445 0.687427 0.720573
v 4.041657 1.039756 -0.496922
v 4.082988 2.175805 -1.45093
v -2.591357 -1.510845 -0.88547
v 4.615408 1.639641 -0.577768
v -3.19417 -3.348553 1.007196
v 3.4583 2.151656 -0.102662
v 1.857471 -2.950722 -0.669988
v 2.126553 -3.549679 0.701005
v -4.229164 -1.473093 0.11156000000000002
v -3.519716 1.685231 -0.31713
v 5.566339 1.498677 0.190905
v 4.79841 1.473149 0.570618
v -2.120746 -2.045137 -0.411171
v 1.54175 -1.643613 -1.01419
v 2.229345 -0.992723 0.862826
v -3.053267 -2.764905 1.043008
v 2.113587 -3.011851 0.851648
v 1.650318 -1.645881 1.053347
v 2.111557 -1.376942 -0.89657
v 4.416475 0.921264 0.458839
v -3.030605 -2.311222 -0.88433
v 3.967085 2.280648 0.537643
v 5.247762 0.848549 -0.10854599999999999
v -3.333954 -3.058673 -0.974748
v 5.672385 1.007694 -0.341778
v 4.760921 1.881357 0.61312
v 4.187258 2.590221 -0.135844
v 4.74405 2.179337 0.556057
v 4.411541 2.663824 0.713132
v 4.154566 2.19048 1.129552
v 4.359483 2.615839 -0.596817
v 4.273005 2.310529 0.762172
v 4.273005 2.310529 -0.762172
v 2.110033 -3.148257 -1.068816
v -2.106039 -2.019111 0.510759
v 5.931474 1.233483 0.215613
v 4.681847 2.551036 -0.886235
v -2.641567 -2.003164 0.575611
v 5.511556 0.863525 0.177613
v 4.854957 2.660227 0.92431
v 4.369751 2.298204 -0.921894
v -2.571019 -1.995375 -0.58623
v 5.884856 1.062202 -0.249545
v 5.836005 0.945722 0.0010920000000000166
v 4.872539 2.159259 -0.542891
v 5.075994 1.900999 0.443793
v 5.075994 1.900999 -0.443793
v 1.63008 0.420236 -1.172369
v -1.610025 -1.711571 0.0
v -3.19641 0.797564 -0.985913
v -0.536767 -0.144454 -1.682232
v 2.986408 -0.413503 0.42896400000000007
v -1.807421 0.657142 -1.209422
v 0.544825 -1.133123 -1.096902
v -0.533528 -0.58228 1.701405
v 1.975941 0.827957 1.018423
v -2.955052 -1.49684 -1.128812
v -0.535144 -1.615983 -0.920556
v -3.271035 -1.609292 0.0
v -2.47375 0.300945 1.316695
v -3.087335 -3.350463 0.831656
v 5.763952 1.062109 0.338641
v -2.79063 0.46881 -1.224273
v -1.996117 1.387891 1.064104
v -2.037371 -1.73636 0.656787
v -3.84447 0.498176 0.053132
v 1.462507 1.745481 0.222394
v 3.280681 0.510802 -0.499434
v 0.289039 1.496446 -0.430055
v -3.15021 -1.259588 1.001021
v 4.245225 2.008532 -0.772641
v 2.396607 -1.593239 -0.389972
v -2.137524 1.753182 -0.433142
v 5.096148 2.75972 -0.774729
v -3.684619 1.35069 0.501428
v -3.570243 -0.06009300000000001 -0.344854
v -3.26181 -2.821069 1.088218
v 4.95536 1.236724 -0.50523
v -3.529709 -0.06599799999999997 0.437217
v -0.626493 1.585426 0.4431360000000001
v -3.077669 1.871112 0.217368
v -1.292756 1.656509 -0.51403
v 2.440236 -3.509564 -1.019417
v -0.953236 -1.545941 0.89918
v 1.529305 -2.092083 0.887353
v 4.041657 1.039756 0.496922
v -1.74779 -1.667608 -0.60634
v 1.645819 -1.087442 1.173773
v 1.645819 -1.087442 -1.173773
v 4.739441 2.299169 -0.369987
v 3.06109 0.397226 0.574193
v -1.776785 -1.275107 0.914703
v 2.649413 0.03153500000000001 1.024796
v 2.688131 -0.517509 -0.672975
v 3.009101 1.971604 -0.03422
v 2.347317 1.066114 -0.758763
v -2.119856 -1.1288 -0.97096
v 4.277227 1.077746 -0.550819
v -3.890388 -1.750102 0.017612000000000013
v -3.873622 -0.759035 -0.197169
v -2.631547 -3.559891 -1.33738
v 4.063205 2.509679 0.342987
v 2.803736 -1.255869 0.43832800000000005
v 5.06084 2.053335 0.309324
v 5.197562 0.922406 0.302473
v 1.960643 -2.71286 0.90089
v 1.6249 -2.087301 -0.963391
v 1.857471 -2.950722 0.669988
v 2.059222 -3.230076 -0.674936
v -3.211005 -1.850398 -0.700723
v 2.346081 -0.74535 1.013296
v -3.357009 1.781675 -0.071216
v 2.036036 -1.57908 -0.967151
v 1.991892 -1.7484 0.65277
v 2.514167 -1.077721 -0.706614
v -3.030605 -2.311222 0.88433
v 3.967085 2.280648 -0.537643
v 4.079812 2.571649 -0.000951
v -3.169489 -2.110039 -1.076796
v 1.880971 -2.733242 -0.8902
v 4.059885 1.86046 0.470087
v 4.440713 2.398472 0.629128
v -3.091252 -3.340925 -1.235864
v 4.560751 1.785154 0.562428
v 1.926176 -3.28888 -1.093746
v 5.421809 1.685349 0.123555
v -2.03574 -1.981182 -0.547873
v -3.256731 -3.032131 -0.849693
v 4.43261 1.878873 -0.577888
v 4.303193 2.347123 1.044413
v -3.042899 -3.193907 1.207296
v 4.440143 2.510529 0.269164
v -2.685663 -2.028649 -0.514928
v 1.970051 -3.141862 1.065178
v 4.058311 2.293363 1.338054
v 4.26732 2.121987 0.61494
v 4.155551 2.388662 -1.09196
v 5.77341 1.225861 -0.323025
v 4.753015 2.699695 0.973279
v 4.32063 2.385528 -0.682583
v 4.462368 2.725999 0.882675
v 5.580727 0.99933 0.349867
v 4.146067 2.278102 0.707372
v -2.539874 -2.049824 0.460098
v 5.934596 1.054796 0.07703900000000001
v 5.00244 2.105746 0.468233
v 5.105589 1.864086 -0.347113
v 5.370709 0.980272 -0.337432
v -2.120746 -2.045137 0.411171
v 4.554459 2.511417 -0.850571
v 4.852578 1.889721 0.605031
v 4.852578 1.889721 -0.605031
v 1.63008 0.42023599999999994 1.172369
v 1.570685 0.938327 -0.989108
v -3.695452 -0.193624 -0.101369
v 0.034087000000000006 -0.225059 1.542949
v -1.061272 -1.141877 -1.49623
v -3.283698 -0.730967 0.793898
v 0.927497 -1.558489 0.0
v -2.68493 1.262021 1.11049
v 0.546875 -0.39094 -1.363244
v -0.543078 -1.810473 0.563825
v -0.543078 -1.810473 -0.563825
v 1.451825 -1.576856 -0.702758
v 2.616001 0.447717 0.960748
v 2.399389 0.782091 -0.915279
v -2.070413 0.207766 -1.335106
v -3.49052 -1.760417 -0.903104
v 2.396355 1.242239 0.597722
v 0.223642 1.684075 0.160743
v -3.283698 -0.730967 -0.793898
v -1.802864 -0.282523 1.401315
v -3.520188 0.140164 -0.618561
v 3.528445 1.060127 0.489443
v 1.756349 -2.446399 -0.705428
v -3.675638 1.471512 0.062201
v 4.103303 2.038565 -1.363737
v 5.233176 1.442459 -0.362988
v -2.930312 1.10358 -1.125876
v -1.552899 1.128654 1.15104
v -1.552899 1.128654 -1.15104
v -0.626493 1.585426 -0.443136
v 1.677597 -2.237953 0.696318
v -2.292049 -0.933921 -1.128136
v -3.583763 -0.052271 0.0
v 4.655453 0.758022 9.800000000000086e-05
v -1.215563 1.757097 0.13349400000000006
v -3.424258 0.15863800000000003 0.918279
v 3.06109 0.397226 -0.574193
v 2.857666 -0.930625 -0.39119499999999996
v 1.428883 -0.98669 1.133905
v -3.734989 1.589433 0.295202
v -3.184812 -2.768053 0.850127
v -3.335942 -1.365685 0.72459
v -1.552229 -1.555077 0.735708
v 2.13239 1.755821 -0.180271
v -2.508885 -1.719933 -0.721675
v -2.64722 -1.84401 0.594347
v 3.881998 1.764428 -0.476337
v 3.945464 2.1301 0.689536
v 3.036361 1.913989 0.169838
v 2.690576 -0.368057 -0.819343
v -1.376186 -1.661988 -0.718954
v -4.297769 -1.889903 0.177707
v -3.242148 2.021387 0.0
v 3.955635 0.432417 0.197586
v 2.743995 -0.129852 0.718277
v 1.737623 -2.485017 0.918334
v 2.534227 -1.617078 0.0
v -3.900964 -0.780883 0.091579
v 2.254361 -3.550931 1.235118
v -2.649491 -3.404362 -1.100352
v 4.567896 1.149805 -0.642484
v 5.072165 2.04363 -0.209228
v 4.235494 2.636171 0.803613
v 2.514167 -1.077721 0.706614
v 1.818266 -2.313852 -0.968652
v 1.92973 -3.298418 0.689538
v 1.92973 -3.298418 -0.689538
v 4.063205 2.509679 -0.342987
v -3.330406 -3.18519 0.950058
v 1.804927 -1.581954 1.089198
v 4.74325 1.05921 0.563421
v -3.120761 -2.15777 0.766432
v -3.120761 -2.15777 -0.766432
v 5.218821 1.803552 0.199306
v 1.805207 -1.268427 -1.165317
v 2.0796 -1.473377 -0.654997
v 3.727093 2.308406 0.150049
v -1.985123 -2.116661 0.394256
v 4.43261 1.878873 0.577888
v 4.477781 1.687858 -0.597407
v -3.227676 -3.14166 -1.103969
v -2.147113 -1.903198 -0.362462
v 4.094116 2.426172 1.381032
v 1.802387 -3.089615 -0.961851
v 2.201939 -3.226457 -0.996503
v -2.884711 -3.063896 -0.993766
v 4.084506 2.570978 0.218168
v 4.192789 2.411967 -0.668016
v -2.770335 -3.208138 1.031045
v -3.660928 1.770041 -0.115431
v -2.629199 -2.138983 0.436227
v -2.552923 -2.142304 -0.454579
v 4.199317 2.304652 1.17454
v 1.898573 -3.068274 0.994338
v 4.245225 2.008532 0.772641
v 4.752337 1.723388 0.591296
v 5.783731 1.341471 0.28459
v 4.354411 2.102985 -0.80258
v 5.710154 1.360653 -0.290072
v 5.757506 0.9579 0.210732
v 4.04473 2.254459 -0.744209
v 4.497719 2.54748 -0.937659
v 4.149438 2.34055 -1.353693
v 4.212974 2.303184 0.587113
v 5.47963 1.11131 0.364188
v 5.47963 1.11131 -0.364188
v 5.961686 1.110978 -0.090324
v 5.449164 0.847535 -0.10390899999999999
v -3.817381 0.150348 -0.048728
v 4.748031 2.683805 -0.800044
v 4.674691 2.598833 0.808006
v 4.935561 2.016016 0.5857
v 4.788476 2.028047 -0.608619
v 4.982364 1.8733 0.53619
v 4.982364 1.8733 -0.53619
f 563 700 3
f 308 162 681
f 9 688 588
f 152 9 578
f 11 155 350
f 548 373 15
f 601 716 373
f 716 601 426
f 426 17 716
f 426 149 17
f 154 666 19
f 666 154 18
f 719 287 20
f 18 19 666
f 21 510 604
f 505 718 604
f 23 27 425
f 417 363 23
f 194 469 265
f 308 418 162
f 29 28 23
f 23 349 417
f 252 193 303
f 359 483 680
f 422 585 262
f 549 247 7
f 178 672 292
f 284 36 672
f 36 284 205
f 207 286 132
f 645 207 482
f 209 539 482
f 1 21 174
f 287 719 3
f 655 228 293
f 287 228 655
f 228 650 545
f 346 419 209
f 209 127 30
f 392 652 33
f 7 33 545
f 545 33 652
f 673 32 292
f 247 648 542
f 485 205 5
f 5 410 485
f 253 412 484
f 412 253 39
f 544 39 253
f 37 124 658
f 246 343 541
f 400 335 12
f 297 210 40
f 598 154 407
f 19 407 154
f 659 306 548
f 301 16 433
f 17 301 619
f 145 16 366
f 335 211 662
f 155 211 350
f 8 533 10
f 46 332 146
f 48 756 46
f 620 46 723
f 387 51 581
f 49 50 705
f 638 50 669
f 50 53 669
f 53 52 669
f 239 119 55
f 534 56 280
f 629 742 454
f 445 516 749
f 569 52 198
f 52 319 198
f 153 395 677
f 589 27 311
f 620 723 58
f 27 58 311
f 327 51 387
f 59 48 120
f 377 446 731
f 61 25 609
f 469 608 216
f 58 61 134
f 608 744 216
f 120 134 432
f 58 741 326
f 326 620 58
f 113 3 700
f 543 64 192
f 176 107 7
f 342 107 176
f 68 540 342
f 342 556 68
f 186 316 69
f 316 271 69
f 190 271 316
f 725 540 190
f 71 477 352
f 218 352 477
f 550 70 218
f 421 73 715
f 715 488 421
f 488 715 362
f 362 222 488
f 76 137 674
f 76 135 370
f 460 76 226
f 226 77 460
f 437 605 76
f 509 156 290
f 135 313 713
f 418 129 162
f 220 129 252
f 80 108 405
f 475 697 353
f 353 697 81
f 353 81 665
f 602 656 355
f 285 355 656
f 83 547 660
f 468 85 393
f 393 288 647
f 288 671 86
f 86 148 288
f 251 288 148
f 355 285 644
f 506 82 79
f 3 113 437
f 437 480 228
f 480 650 228
f 224 128 682
f 394 84 83
f 394 83 558
f 208 661 181
f 467 546 399
f 546 214 399
f 399 214 123
f 663 65 295
f 663 351 65
f 345 38 473
f 397 473 89
f 473 38 89
f 561 88 300
f 300 685 561
f 566 463 90
f 463 570 296
f 296 398 551
f 551 651 90
f 89 90 651
f 357 89 572
f 307 568 507
f 507 74 115
f 684 115 307
f 175 649 88
f 566 683 289
f 566 289 409
f 122 557 43
f 429 213 254
f 213 487 254
f 557 396 43
f 396 667 213
f 396 250 667
f 348 646 299
f 591 93 299
f 93 591 348
f 202 49 51
f 503 739 96
f 537 95 717
f 717 95 617
f 95 97 617
f 99 317 503
f 99 503 96
f 164 118 55
f 453 740 502
f 743 277 535
f 452 535 277
f 57 514 596
f 360 596 317
f 360 317 714
f 261 372 577
f 51 49 329
f 59 368 51
f 368 59 101
f 98 623 200
f 98 200 102
f 103 98 613
f 276 730 609
f 382 706 234
f 276 609 720
f 361 255 513
f 513 634 276
f 105 323 691
f 612 691 255
f 612 105 691
f 98 103 465
f 443 98 465
f 627 747 197
f 238 334 197
f 677 511 26
f 511 81 26
f 69 689 461
f 371 73 461
f 73 70 461
f 83 547 106
f 83 106 84
f 294 7 107
f 260 540 725
f 692 159 108
f 361 309 255
f 34 30 125
f 678 333 87
f 12 259 212
f 567 343 246
f 24 680 111
f 24 111 489
f 16 149 512
f 16 512 17
f 321 700 379
f 506 274 79
f 701 93 408
f 139 591 173
f 607 307 115
f 607 115 362
f 372 126 116
f 615 116 722
f 102 382 448
f 520 706 234
f 100 453 633
f 100 633 743
f 50 49 119
f 50 119 53
f 60 387 120
f 166 731 446
f 225 416 710
f 434 154 18
f 429 43 250
f 41 250 667
f 7 214 123
f 336 650 545
f 670 391 554
f 670 246 541
f 109 678 333
f 571 181 340
f 577 665 126
f 577 126 372
f 32 459 127
f 462 542 672
f 106 208 128
f 644 128 355
f 64 543 129
f 64 129 220
f 310 225 416
f 728 184 600
f 588 688 131
f 588 131 675
f 687 305 132
f 257 474 83
f 65 351 470
f 217 271 190
f 163 562 741
f 163 134 278
f 274 313 135
f 113 605 437
f 1 21 510
f 681 195 2
f 597 76 137
f 699 137 77
f 522 446 138
f 60 449 631
f 92 173 139
f 302 354 408
f 739 615 140
f 202 443 51
f 55 56 240
f 454 534 280
f 263 568 507
f 263 684 115
f 634 747 523
f 323 385 105
f 235 382 448
f 235 448 520
f 433 16 145
f 619 167 366
f 47 332 146
f 47 569 52
f 696 254 147
f 572 147 357
f 295 251 148
f 295 148 663
f 373 15 610
f 373 610 112
f 468 85 671
f 333 397 87
f 359 483 151
f 359 422 693
f 294 694 152
f 294 152 107
f 425 677 153
f 492 589 27
f 121 434 154
f 121 154 264
f 12 402 155
f 12 662 335
f 79 509 156
f 79 579 82
f 720 276 157
f 720 157 361
f 133 73 158
f 470 158 88
f 257 108 159
f 28 349 23
f 139 591 354
f 500 183 302
f 143 104 385
f 621 736 521
f 466 192 543
f 466 543 681
f 383 744 163
f 191 163 134
f 97 502 164
f 317 748 237
f 516 749 165
f 516 165 56
f 449 731 166
f 138 166 446
f 145 366 167
f 281 729 233
f 91 568 712
f 91 622 142
f 460 76 597
f 599 312 137
f 94 140 202
f 282 202 49
f 117 520 171
f 531 182 144
f 458 47 638
f 203 756 46
f 44 476 348
f 44 348 299
f 422 262 482
f 151 482 657
f 296 398 175
f 679 175 259
f 653 404 176
f 653 176 7
f 501 670 177
f 501 289 41
f 32 127 178
f 32 178 292
f 19 598 179
f 19 179 20
f 80 405 180
f 80 180 491
f 125 571 181
f 468 181 393
f 754 144 182
f 754 182 531
f 354 302 183
f 695 423 500
f 416 710 184
f 416 184 525
f 5 9 356
f 5 356 205
f 10 316 186
f 10 550 218
f 158 73 187
f 158 187 685
f 72 312 275
f 441 599 137
f 168 91 622
f 496 223 552
f 68 540 190
f 68 435 556
f 455 134 191
f 455 191 668
f 436 64 192
f 707 229 379
f 23 425 193
f 23 559 483
f 25 497 194
f 25 315 61
f 136 606 195
f 719 563 3
f 95 242 196
f 95 196 97
f 143 747 197
f 444 197 238
f 57 514 198
f 57 198 395
f 145 724 199
f 145 281 729
f 101 368 200
f 101 200 593
f 55 502 201
f 743 553 100
f 170 519 202
f 170 202 282
f 45 756 203
f 643 203 46
f 138 522 204
f 138 745 375
f 490 247 648
f 490 648 356
f 555 337 206
f 555 651 89
f 657 482 207
f 305 207 132
f 84 661 208
f 84 208 106
f 31 539 209
f 31 652 392
f 39 412 210
f 39 210 40
f 131 410 211
f 548 211 350
f 110 567 212
f 110 463 570
f 43 429 213
f 43 213 396
f 67 546 214
f 653 214 7
f 573 35 484
f 678 345 87
f 438 469 216
f 438 216 163
f 65 271 217
f 414 217 342
f 402 477 218
f 11 218 10
f 1 4 358
f 606 358 195
f 80 245 582
f 80 353 665
f 160 258 221
f 590 221 423
f 73 75 222
f 73 222 187
f 732 552 223
f 189 223 496
f 82 579 224
f 82 224 128
f 727 310 225
f 727 225 121
f 370 76 226
f 78 226 77
f 188 441 275
f 424 709 508
f 3 287 228
f 3 228 437
f 192 707 229
f 192 229 466
f 22 25 361
f 22 361 309
f 383 320 455
f 628 455 532
f 9 688 232
f 316 232 10
f 619 729 233
f 724 233 199
f 200 520 234
f 200 234 431
f 171 520 235
f 171 235 325
f 327 60 236
f 518 711 61
f 530 748 237
f 530 237 751
f 105 334 521
f 105 521 270
f 53 119 239
f 445 742 54
f 750 454 534
f 750 534 56
f 449 375 745
f 279 745 138
f 537 95 242
f 282 242 170
f 581 51 329
f 638 705 50
f 89 357 244
f 89 244 90
f 64 582 245
f 304 656 602
f 554 670 246
f 124 246 291
f 33 542 247
f 33 247 7
f 443 51 248
f 443 248 98
f 394 84 661
f 645 459 31
f 122 43 250
f 122 250 44
f 67 546 251
f 67 251 575
f 418 193 252
f 418 252 129
f 35 484 253
f 672 253 544
f 40 297 254
f 40 254 41
f 126 309 255
f 126 255 612
f 86 148 663
f 337 481 206
f 28 159 257
f 687 257 474
f 139 92 258
f 139 258 160
f 71 477 259
f 649 259 175
f 152 540 260
f 152 618 9
f 714 420 261
f 99 261 96
f 1 174 262
f 1 262 585
f 712 568 263
f 712 263 439
f 14 498 264
f 14 264 611
f 497 194 265
f 586 417 349
f 10 8 266
f 10 306 11
f 156 290 267
f 682 339 128
f 378 144 531
f 378 630 754
f 119 55 502
f 617 502 97
f 450 105 270
f 161 270 521
f 133 65 271
f 133 371 73
f 746 628 272
f 493 272 668
f 569 198 273
f 723 311 58
f 113 506 274
f 113 274 135
f 227 441 275
f 499 709 424
f 747 634 276
f 382 431 234
f 530 743 277
f 530 277 452
f 61 608 278
f 61 278 120
f 204 138 279
f 204 279 330
f 629 454 280
f 516 280 56
f 199 145 281
f 614 413 233
f 94 242 757
f 755 457 170
f 390 45 283
f 390 283 329
f 542 672 284
f 542 284 648
f 338 656 285
f 547 285 106
f 30 132 286
f 30 286 459
f 598 179 287
f 598 287 407
f 85 393 288
f 85 288 671
f 177 501 289
f 177 289 409
f 576 78 290
f 674 437 76
f 37 124 291
f 37 291 211
f 34 478 292
f 34 573 484
f 718 505 293
f 718 580 174
f 654 7 294
f 6 294 694
f 66 663 295
f 583 342 414
f 90 463 296
f 90 296 551
f 412 210 297
f 38 572 89
f 227 376 298
f 227 298 709
f 122 44 299
f 122 299 752
f 71 352 300
f 649 300 88
f 149 16 301
f 149 301 17
f 92 258 302
f 701 302 408
f 425 193 303
f 26 697 81
f 64 436 304
f 698 584 245
f 29 28 305
f 483 657 151
f 266 10 306
f 266 306 659
f 222 74 307
f 222 307 607
f 4 681 308
f 4 308 418
f 108 692 309
f 108 665 80
f 14 727 310
f 14 728 600
f 273 146 311
f 704 311 589
f 597 137 312
f 597 312 72
f 79 274 313
f 79 313 713
f 281 479 703
f 281 413 614
f 194 25 315
f 194 608 469
f 9 618 316
f 9 316 232
f 97 196 317
f 97 317 381
f 622 142 318
f 472 732 223
f 639 52 319
f 165 452 56
f 163 191 320
f 163 320 383
f 594 379 321
f 594 321 401
f 195 136 322
f 195 322 401
f 104 691 323
f 104 323 385
f 116 126 612
f 116 738 197
f 144 171 325
f 144 325 378
f 120 387 326
f 120 326 134
f 59 51 327
f 59 327 236
f 55 201 328
f 55 328 141
f 243 536 329
f 243 329 538
f 241 204 330
f 745 430 279
f 242 642 331
f 242 331 196
f 45 758 332
f 643 332 46
f 125 571 333
f 125 333 150
f 403 197 334
f 403 334 105
f 291 211 335
f 291 335 400
f 7 545 336
f 7 336 123
f 86 671 337
f 86 337 256
f 180 491 338
f 180 547 660
f 267 682 339
f 480 339 650
f 560 32 340
f 661 340 181
f 304 64 341
f 304 341 656
f 486 176 342
f 295 686 583
f 212 177 343
f 212 343 567
f 391 124 658
f 36 485 205
f 484 34 345
f 484 564 412
f 174 580 346
f 174 346 209
f 18 154 708
f 18 708 19
f 173 93 348
f 173 348 591
f 159 28 349
f 159 349 586
f 306 11 350
f 306 350 548
f 88 663 351
f 88 351 470
f 685 300 352
f 70 352 218
f 220 80 353
f 220 353 475
f 160 139 354
f 590 354 183
f 82 602 355
f 82 355 128
f 185 5 356
f 185 578 9
f 41 147 357
f 41 683 289
f 219 440 358
f 219 358 4
f 111 489 359
f 111 359 680
f 57 596 360
f 677 420 511
f 230 22 361
f 230 361 720
f 74 115 362
f 74 362 222
f 27 23 363
f 27 363 58
f 52 445 364
f 52 364 165
f 121 225 365
f 498 365 14
f 17 16 366
f 17 366 619
f 49 595 367
f 49 367 119
f 248 51 368
f 248 623 98
f 233 281 369
f 233 369 592
f 713 135 370
f 78 370 226
f 271 133 371
f 271 689 428
f 615 116 372
f 96 372 261
f 8 494 373
f 8 373 266
f 189 318 374
f 189 374 223
f 166 449 375
f 166 375 138
f 188 227 376
f 625 424 312
f 61 731 377
f 61 377 711
f 632 325 378
f 632 378 754
f 113 707 379
f 113 379 700
f 136 440 380
f 136 719 563
f 164 97 381
f 453 748 633
f 103 613 382
f 103 382 276
f 62 320 383
f 62 628 746
f 330 528 430
f 330 430 279
f 450 105 385
f 161 736 521
f 55 239 386
f 55 386 750
f 48 756 387
f 48 387 326
f 56 750 388
f 56 388 452
f 94 457 755
f 642 517 739
f 172 45 390
f 172 390 283
f 544 658 391
f 544 391 39
f 127 31 392
f 127 542 462
f 208 181 393
f 208 393 647
f 30 661 394
f 30 394 558
f 273 198 395
f 704 395 153
f 44 557 396
f 44 396 250
f 150 333 397
f 671 555 337
f 88 551 398
f 88 398 175
f 339 467 399
f 339 399 123
f 246 291 400
f 246 664 567
f 2 195 401
f 2 401 594
f 11 218 402
f 11 402 155
f 612 105 403
f 612 738 116
f 295 686 404
f 295 575 251
f 257 108 405
f 257 660 83
f 527 636 406
f 527 406 553
f 20 287 407
f 20 407 19
f 114 701 408
f 114 591 93
f 212 177 409
f 212 409 110
f 37 485 410
f 37 410 211
f 340 109 411
f 340 673 32
f 38 564 412
f 38 412 297
f 314 281 413
f 592 413 233
f 65 583 414
f 65 414 217
f 356 185 415
f 356 694 6
f 574 525 416
f 574 416 184
f 265 586 417
f 265 417 469
f 24 193 418
f 24 418 489
f 293 228 419
f 580 419 346
f 360 677 420
f 360 420 714
f 685 187 421
f 70 421 73
f 151 359 422
f 151 422 482
f 183 500 423
f 183 423 590
f 376 188 424
f 702 424 499
f 26 303 425
f 26 425 677
f 15 610 426
f 659 426 601
f 309 108 427
f 309 427 126
f 69 271 635
f 69 529 689
f 41 254 733
f 41 733 250
f 384 528 430
f 384 430 753
f 276 382 431
f 276 593 730
f 744 628 432
f 524 432 120
f 619 301 433
f 42 433 145
f 13 121 434
f 13 611 14
f 190 556 435
f 190 640 68
f 506 82 436
f 63 436 192
f 290 674 437
f 290 437 480
f 58 690 438
f 58 562 741
f 142 318 439
f 507 439 263
f 1 219 440
f 1 440 380
f 72 737 441
f 72 441 169
f 260 152 442
f 260 504 725
f 140 615 443
f 519 443 202
f 143 197 444
f 143 444 385
f 53 52 445
f 53 445 239
f 236 377 446
f 236 446 522
f 232 10 533
f 232 533 688
f 325 235 448
f 325 448 632
f 204 522 449
f 204 449 641
f 161 385 450
f 626 450 270
f 268 754 451
f 268 451 182
f 319 165 452
f 514 751 237
f 164 502 453
f 164 453 381
f 386 742 454
f 386 454 750
f 272 628 455
f 272 455 668
f 283 45 456
f 283 536 243
f 282 94 457
f 282 457 637
f 332 758 458
f 332 458 47
f 560 30 459
f 560 459 32
f 441 137 699
f 441 699 169
f 186 70 461
f 186 461 69
f 178 127 462
f 178 462 672
f 409 566 463
f 409 463 110
f 419 209 545
f 419 545 228
f 116 197 465
f 116 465 722
f 2 594 466
f 2 466 681
f 128 208 467
f 128 467 339
f 125 181 468
f 125 468 150
f 690 417 469
f 690 469 438
f 133 65 470
f 133 470 158
f 185 588 471
f 185 471 9
f 374 223 472
f 374 472 318
f 87 345 473
f 87 473 397
f 132 687 474
f 132 558 30
f 252 220 475
f 252 475 303
f 93 348 476
f 93 752 299
f 12 402 477
f 12 477 676
f 673 292 478
f 411 478 109
f 369 592 479
f 369 479 281
f 267 290 480
f 267 480 339
f 256 337 481
f 256 481 88
f 174 262 482
f 174 482 209
f 29 23 483
f 29 483 657
f 215 34 484
f 215 484 345
f 344 36 485
f 344 485 37
f 404 176 486
f 404 486 686
f 147 254 487
f 147 487 603
f 187 222 488
f 187 488 421
f 4 418 489
f 693 489 359
f 6 356 490
f 6 654 294
f 245 80 491
f 245 656 584
f 425 27 492
f 425 492 153
f 746 62 493
f 746 493 272
f 131 688 494
f 131 548 211
f 146 46 495
f 146 495 311
f 168 622 496
f 712 496 552
f 22 25 497
f 22 497 265
f 121 365 498
f 121 498 264
f 298 709 499
f 298 499 702
f 258 302 500
f 258 500 221
f 40 41 501
f 40 501 670
f 269 55 502
f 269 502 617
f 196 331 503
f 196 503 317
f 618 725 504
f 442 504 260
f 655 293 505
f 179 505 604
f 63 436 506
f 707 506 113
f 142 91 507
f 142 507 439
f 312 424 508
f 312 508 599
f 78 290 509
f 78 713 370
f 380 1 510
f 719 510 604
f 261 420 511
f 261 511 577
f 112 149 512
f 716 512 17
f 157 276 513
f 157 513 361
f 319 751 514
f 319 514 198
f 42 433 515
f 724 515 233
f 54 280 516
f 54 516 445
f 389 170 517
f 389 517 642
f 59 101 518
f 59 518 236
f 140 170 519
f 140 519 443
f 102 200 520
f 613 520 235
f 238 621 521
f 238 521 334
f 60 236 522
f 60 522 449
f 143 634 523
f 143 523 747
f 278 432 524
f 278 524 120
f 616 416 525
f 310 728 14
f 435 190 640
f 435 640 68
f 328 740 527
f 328 527 141
f 241 330 528
f 745 528 430
f 428 689 529
f 635 529 69
f 118 748 530
f 118 530 743
f 451 754 531
f 451 531 182
f 134 432 532
f 134 532 455
f 447 232 533
f 447 624 10
f 240 454 534
f 240 534 750
f 388 750 535
f 388 535 452
f 456 283 536
f 756 536 387
f 757 242 537
f 282 595 49
f 390 243 538
f 390 538 458
f 645 482 539
f 645 539 31
f 107 152 540
f 107 540 342
f 177 670 541
f 177 541 343
f 392 127 542
f 392 542 33
f 162 681 543
f 162 543 129
f 36 672 544
f 36 544 344
f 464 652 545
f 464 545 419
f 288 647 546
f 288 546 251
f 338 285 547
f 338 547 180
f 494 373 548
f 494 548 131
f 490 6 549
f 490 549 247
f 186 10 550
f 186 550 70
f 481 651 551
f 481 551 88
f 439 712 552
f 439 552 732
f 740 100 553
f 740 553 527
f 124 391 554
f 124 554 246
f 397 150 555
f 397 555 89
f 217 342 556
f 217 556 190
f 476 122 557
f 476 557 44
f 474 132 558
f 474 558 83
f 193 23 559
f 193 559 24
f 249 30 560
f 249 560 340
f 158 88 561
f 158 561 685
f 438 163 562
f 438 562 58
f 322 700 563
f 322 563 136
f 345 484 564
f 345 564 38
f 384 753 565
f 384 565 528
f 244 357 566
f 244 566 90
f 12 676 567
f 12 567 664
f 74 307 568
f 74 568 263
f 146 47 569
f 146 569 273
f 259 676 570
f 259 570 679
f 109 340 571
f 109 571 333
f 297 38 572
f 696 572 147
f 292 34 573
f 292 573 35
f 130 416 574
f 130 574 728
f 404 295 575
f 404 575 67
f 77 78 576
f 77 674 137
f 81 511 577
f 81 577 665
f 415 152 578
f 415 578 185
f 156 79 579
f 156 579 267
f 293 718 580
f 293 580 419
f 536 329 581
f 536 581 387
f 220 80 582
f 220 582 64
f 66 65 583
f 66 583 295
f 341 656 584
f 341 584 698
f 4 219 585
f 4 693 489
f 22 265 586
f 22 692 309
f 305 29 587
f 305 587 207
f 5 185 588
f 5 588 675
f 153 492 589
f 153 589 704
f 160 354 590
f 160 590 221
f 408 114 591
f 408 591 354
f 314 413 592
f 703 592 479
f 431 276 593
f 431 593 200
f 229 379 594
f 229 594 466
f 537 282 595
f 537 595 367
f 237 317 596
f 237 596 514
f 169 72 597
f 169 597 460
f 708 19 598
f 708 598 154
f 275 508 599
f 275 599 441
f 365 14 600
f 710 600 184
f 266 659 601
f 266 601 373
f 436 82 602
f 436 602 304
f 41 254 603
f 41 603 254
f 20 719 604
f 20 604 179
f 135 113 605
f 135 605 76
f 440 358 606
f 440 606 136
f 75 222 607
f 715 607 362
f 315 61 608
f 315 608 194
f 518 101 609
f 518 609 61
f 149 426 610
f 149 610 112
f 434 13 611
f 434 611 18
f 324 126 612
f 324 612 116
f 102 98 613
f 102 613 520
f 199 281 614
f 199 614 233
f 96 739 615
f 96 615 372
f 310 525 616
f 310 616 416
f 119 717 617
f 119 617 269
f 442 152 618
f 442 618 504
f 515 433 619
f 515 619 233
f 48 46 620
f 48 620 326
f 444 385 621
f 444 621 238
f 189 318 622
f 189 622 496
f 368 248 623
f 368 623 200
f 533 10 624
f 533 624 735
f 188 424 625
f 188 625 227
f 161 450 626
f 161 726 270
f 465 747 627
f 465 627 197
f 383 62 628
f 383 628 744
f 54 280 629
f 54 629 742
f 531 378 630
f 531 630 754
f 120 60 631
f 120 731 61
f 117 754 632
f 117 632 448
f 118 743 633
f 118 633 748
f 104 513 634
f 104 634 143
f 428 271 635
f 428 734 529
f 141 535 636
f 141 636 527
f 170 457 637
f 170 637 282
f 538 705 638
f 538 638 458
f 165 319 639
f 165 639 52
f 526 190 640
f 526 721 435
f 241 204 641
f 241 641 528
f 94 389 642
f 94 642 242
f 45 332 643
f 45 643 203
f 106 285 644
f 106 644 128
f 286 207 645
f 286 645 459
f 591 299 646
f 591 646 348
f 467 208 647
f 467 647 546
f 205 284 648
f 205 648 356
f 71 259 649
f 71 649 300
f 123 336 650
f 123 650 339
f 206 555 651
f 206 651 481
f 209 31 652
f 209 652 464
f 67 214 653
f 67 653 404
f 549 7 654
f 549 654 6
f 179 505 655
f 179 655 287
f 491 338 656
f 491 656 245
f 587 29 657
f 587 657 207
f 344 544 658
f 344 658 37
f 15 426 659
f 15 659 548
f 405 180 660
f 405 660 257
f 249 30 661
f 249 661 340
f 155 12 662
f 155 662 211
f 256 86 663
f 256 663 88
f 400 246 664
f 400 664 12
f 427 108 665
f 427 665 126
f 264 154 666
f 264 666 611
f 487 213 667
f 487 667 603
f 320 191 668
f 320 668 62
f 47 638 669
f 47 669 52
f 39 391 670
f 39 670 40
f 150 468 671
f 150 671 555
f 35 292 672
f 35 672 253
f 411 340 673
f 411 673 478
f 576 77 674
f 576 674 290
f 410 5 675
f 410 675 131
f 110 567 676
f 110 676 570
f 57 395 677
f 57 677 360
f 34 478 678
f 34 678 215
f 296 570 679
f 296 679 175
f 559 483 680
f 559 680 24
f 358 4 681
f 358 681 195
f 579 224 682
f 579 682 267
f 357 41 683
f 357 683 566
f 507 263 684
f 507 684 307
f 70 352 685
f 70 685 421
f 342 583 686
f 342 686 486
f 28 257 687
f 28 687 305
f 8 494 688
f 8 688 533
f 371 271 689
f 371 689 461
f 363 417 690
f 363 690 58
f 513 104 691
f 513 691 255
f 586 22 692
f 586 692 159
f 585 4 693
f 585 693 422
f 415 356 694
f 415 694 152
f 221 500 695
f 221 695 423
f 297 572 696
f 297 696 254
f 303 26 697
f 303 697 475
f 64 245 698
f 64 698 341
f 460 169 699
f 460 699 77
f 401 322 700
f 401 700 321
f 92 173 701
f 92 701 302
f 376 298 702
f 376 702 424
f 314 592 703
f 314 703 281
f 273 311 704
f 273 704 395
f 329 49 705
f 329 705 538
f 448 382 706
f 448 706 520
f 63 192 707
f 63 707 506
f 347 598 708
f 347 708 154
f 275 227 709
f 275 709 508
f 365 225 710
f 365 710 600
f 236 377 711
f 236 711 518
f 168 91 712
f 168 712 496
f 509 78 713
f 509 713 79
f 99 317 714
f 99 714 261
f 75 607 715
f 75 715 73
f 112 512 716
f 112 716 373
f 367 537 717
f 367 717 119
f 21 604 718
f 21 718 174
f 380 136 719
f 380 719 510
f 25 230 720
f 25 720 609
f 640 435 721
f 640 721 526
f 443 615 722
f 443 722 465
f 495 46 723
f 495 723 311
f 42 515 724
f 42 724 145
f 316 618 725
f 316 725 190
f 626 161 726
f 626 726 270
f 13 121 727
f 13 727 14
f 525 130 728
f 525 728 310
f 167 145 729
f 167 729 619
f 101 609 730
f 101 730 593
f 631 449 731
f 631 731 120
f 318 439 732
f 318 732 472
f 429 254 733
f 429 733 250
f 635 529 734
f 635 734 428
f 447 624 735
f 447 735 533
f 385 161 736
f 385 736 621
f 625 312 737
f 625 737 441
f 403 197 738
f 403 738 612
f 331 642 739
f 331 739 503
f 201 502 740
f 201 740 328
f 134 326 741
f 134 741 163
f 239 445 742
f 239 742 386
f 406 636 743
f 406 743 553
f 278 608 744
f 278 744 432
f 641 528 745
f 641 745 449
f 231 62 746
f 231 746 493
f 103 276 747
f 103 747 465
f 381 453 748
f 381 748 317
f 364 445 749
f 364 749 165
f 141 55 750
f 141 750 535
f 452 319 751
f 452 751 530
f 476 93 752
f 476 752 122
f 330 430 753
f 330 753 565
f 171 117 754
f 171 754 144
f 389 94 755
f 389 755 170
f 456 45 756
f 456 756 536
f 282 94 757
f 282 757 537
f 390 45 758
f 390 758 458
