v 2.229345 -0.992723 -0.862826
v 2.931756 -1.129655 0.0
v 1.920432 -1.567396 0.0
v 2.881063 -0.493146 -0.521968
v -2.033406 -0.91003 -0.96422
v -1.200688 -1.577575 -0.799188
v -0.063012 -1.583021 -0.865082
v -2.734184 -1.717948 -0.749581
v -2.267049 -1.753901 -0.662106
v -2.941731 -1.787431 -0.442574
v -3.557869 -1.325941 -0.37803
v -3.616627 -0.350374 -0.338492
v 1.734568 -2.965876 -0.986396
v 1.911792 -2.895773 -0.950117
v -3.23261 -1.834299 -1.087832
v -3.078699 -2.553982 -1.046834
v -3.240554 -2.555467 -0.856262
v 1.953911 -2.462233 -0.830594
v 1.98533 -2.221319 -0.893145
v 2.021591 -1.755289 -0.912093
v 1.966698 -1.22816 -1.153716
v 3.233975 2.059193 -0.072431
v 3.528445 1.060127 -0.489443
v 3.36004 0.165487 -0.412685
v 3.71636 2.343387 0.0
v 4.120842 0.627141 -0.185461
v 3.98851 1.297806 -0.539537
v 2.361089 1.76666 -0.202595
v 2.637461 1.01726 -0.581611
v 0.737904 1.604213 -0.281713
v 0.939271 0.379986 -1.185872
v -0.406155 1.005088 -0.971088
v 0.021051 -0.831931 -1.511548
v -1.215563 1.757097 -0.133494
v -1.551526 1.400025 -1.050193
v -1.479588 0.295746 -1.440042
v -2.187634 -0.375454 -1.406902
v -2.672899 1.90511 -0.067168
v -2.68493 1.262021 -1.11049
v -3.35851 1.810253 -0.380095
v -3.507689 1.700214 0.0
v -3.302419 -3.017921 -1.128514
v -3.900566 1.002504 0.0
v -3.674766 0.517345 -6.3e-05
v 4.897808 1.946794 -0.628057
v 4.752337 1.723388 -0.591296
v 4.982822 1.503071 -0.507606
v 4.533113 1.989009 -0.578975
v 5.04969 2.032731 7.1e-05
v 5.218821 1.803552 -0.199306
v 4.634996 2.369115 -0.140117
v 5.158322 1.23677 -0.418043
v 5.528186 1.44018 -0.250666
v 5.672187 1.164767 -0.35408
v 5.908842 1.388968 0.001026
v 5.757506 0.9579 -0.210732
v 4.920855 0.812339 0.000318
v 4.312225 1.683392 -0.639944
v 4.342351 2.581176 -0.140317
v 4.407729 2.53164 -0.486692
v 4.113935 2.334131 -0.526471
v 4.061989 2.231988 -1.178382
v 2.407309 -0.97498 0.805091
v 2.835437 -0.231101 0.57789
v -2.306662 -1.116976 0.961238
v -1.782298 -1.020581 0.943381
v -0.535144 -1.615983 0.920556
v -1.764045 -1.764987 0.406586
v -2.684452 -1.891207 0.447388
v -3.304804 -1.582192 0.643445
v -3.665774 -0.73408 0.446286
v 1.806371 -2.949735 0.984058
v -2.918293 -1.904184 1.004659
v -3.347304 -2.573628 0.955211
v -2.981187 -2.142718 0.858353
v 2.02453 -2.195334 0.811284
v 1.710406 -2.272223 0.954296
v 1.717145 -1.80953 1.004092
v 1.966698 -1.22816 1.153716
v 3.189664 0.907503 0.500122
v 4.068249 0.798926 0.400813
v 2.013534 -0.662303 1.191491
v 1.859443 1.450393 0.632222
v 0.760722 1.205036 0.700545
v -0.752416 0.438132 1.467349
v -1.479588 0.295746 1.440042
v -1.744732 1.734849 0.433807
v -2.187634 -0.375454 1.406902
v -2.71748 1.576797 0.875971
v -3.379131 0.767915 0.885996
v -3.223286 -3.00178 1.126176
v -3.72947 -0.869371 0.096946
v -3.86074 -0.188349 -0.024962
v 4.925499 1.917814 0.613413
v 5.133171 1.715563 0.334258
v 4.615408 1.639641 0.577768
v 5.233176 1.442459 0.362988
v 4.472349 2.325133 0.443764
v 4.733657 1.227371 0.592883
v 5.672187 1.164767 0.35408
v 4.187258 2.590221 0.135844
v 4.423033 2.561337 0.603562
v 4.314039 2.32946 0.57751
v 4.04473 2.254459 0.744209
v 4.036947 1.992167 1.072561
v 0.939271 0.379986 1.185872
v -0.956007 -1.825728 0.0
v 3.115383 1.49239 0.380228
v -0.559706 1.69418 0.18610700000000002
v -3.55232 0.21961300000000006 0.0
v 2.91987 0.084875 -0.64246
v -2.981187 -2.142718 -0.858353
v 2.126237 -1.330172 0.721011
v -3.921874 -0.538502 -0.145307
v -3.132772 -2.528669 0.848639
v 4.312225 1.683392 0.639944
v 4.546655 2.709095 0.80378
v 5.573803 0.952578 0.243886
v 5.378289 1.768448 0.00044099999999999695
v 4.314039 2.32946 -0.57751
v 1.705953 -3.006628 -0.83263
v -3.84447 0.498176 -0.053132
v 0.44655 -1.67295 0.0
v -2.47375 0.300945 -1.316695
v -0.910602 1.204118 0.83774
v 3.886058 1.550141 0.50483
v -0.11519000000000001 0.458427 -1.346197
v 0.960321 -0.308052 1.243133
v 3.342159 -0.384674 0.201349
v 2.247981 -3.342804 -1.127459
v -2.462835 -1.3055 -0.966395
v 1.807583 1.756546 -0.177627
v -2.591357 -1.510845 0.88547
v 4.38099 2.207701 -0.839016
v 2.053108 -1.738285 0.824853
v 2.318787 -1.29409 -0.673863
v 1.841282 -2.716008 0.708009
v 4.35668 2.682996 -0.71905
v -3.733767 -1.141917 0.111139
v 4.688114 2.046378 0.604518
v 5.92711 1.131195 0.0011180000000000079
v -2.986345 -2.93377 1.087679
v 4.215419 2.350484 0.885764
v 4.681847 2.551036 0.886235
v -3.107105 -2.947818 -1.092235
v 4.79841 1.473149 -0.570618
v -3.469715 1.961504 0.07114100000000001
v -1.395501 -0.698702 1.553257
v -3.177824 -2.279173 -1.04758
v -1.551526 1.400025 1.050193
v 2.495354 0.250522 -1.132081
v -1.576196 -1.696317 -0.358146
v 4.416475 0.921264 -0.458839
v 1.678986 -2.513137 -0.891745
v -3.569993 -0.731989 -0.649435
v 1.49748 -1.283201 1.088258
v 3.961908 2.347745 0.374747
v -2.955052 -1.49684 1.128812
v 2.723503 1.898839 0.0
v -3.823638 -1.557534 0.081533
v 4.097362 2.3666 1.239986
v 3.065544 -0.788768 0.0
v 4.022592 2.123052 -0.903284
v 5.471928 1.345179 0.313899
v 5.470775 1.009574 -0.355371
v 4.262798 2.490674 -0.818316
v -2.946527 -2.939327 -0.986343
v -3.316551 -3.168932 1.121229
v 1.771416 -2.769024 0.9461
v 4.918466 2.084725 0.532713
v 4.59262 2.569879 0.790452
v 4.973133 1.992779 -0.533466
v -3.67645 -0.551317 0.077574
v 2.013534 -0.662303 -1.191491
v -3.160225 -0.018851999999999994 1.113626
v -0.977375 -1.793126 0.498747
v -3.476235 1.287798 -0.704766
v -0.969076 0.901205 -1.146223
v 1.572979 -1.827591 -0.985823
v 2.637461 1.01726 0.581611
v -0.406155 1.005088 0.971088
v 5.096148 2.75972 0.774729
v -4.252683 -1.437854 -0.14561999999999997
v 2.126553 -3.549679 -0.701005
v -1.776785 -1.275107 -0.914703
v -2.892162 -1.781087 0.0
v -3.23261 -1.834299 1.087832
v 2.031262 -3.256709 1.111122
v -2.975439 -3.308754 1.25324
v -2.126375 -1.866497 0.502895
v 4.152166 1.868775 -1.225002
v 2.669281 -0.930664 0.557166
v 3.559394 0.706516 -0.452535
v 3.758215 2.206683 -0.323051
v 2.61797 -1.235597 -0.520238
v 4.982822 1.503071 0.507606
v 4.354411 2.102985 0.80258
v 4.99671 0.81056 -0.280771
v -3.042899 -3.193907 -1.207296
v 4.328606 2.563996 0.343892
v 5.813217 1.415581 0.195261
v 4.837331 2.235678 0.479332
v 4.760921 1.881357 -0.61312
v 4.47609 2.606654 -0.692301
v -1.395501 -0.698702 -1.553257
v -2.296056 1.06281 1.171139
v 1.975941 0.827957 -1.018423
v 0.316341 0.785311 1.08626
v 0.960321 -0.308052 -1.243133
v -3.08565 1.65734 -0.784479
v -2.937658 -1.002749 -1.219413
v -3.556552 0.704883 -0.28063
v -3.87514 1.480358 0.0
v -0.07847 -1.688266 0.80023
v -1.683863 1.789041 -0.121501
v 3.98291 1.987391 -0.639809
v -2.223917 -1.541268 0.87926
v -3.650579 -1.142448 0.0
v 2.5392 -0.727778 -0.750475
v 3.280681 0.510802 0.499434
v -4.107191 -1.83652 0.12014900000000002
v -3.068444 -2.260195 1.03507
v -2.922908 -3.637036 1.059206
v 1.640095 -0.674556 1.246804
v 1.83279 -3.296508 -0.865078
v 1.918641 -2.083654 1.001275
v 1.83279 -3.296508 0.865078
v 1.604939 -1.556997 0.0
v 2.61797 -1.235597 0.520238
v 3.4583 2.151656 0.102662
v 4.094116 2.426172 -1.381032
v -2.446375 -1.893261 -0.49411
v -3.223246 -3.225388 -0.976573
v 4.277169 2.652435 0.591369
v 4.382053 2.433474 0.798757
v 4.209941 2.600612 -0.337597
v 5.373646 0.885375 0.20884
v 4.148865 2.148829 0.986567
v 5.730427 1.435668 -0.209848
v 5.923808 1.025283 -0.153084
v 4.59262 2.569879 -0.790452
v 4.963546 1.783161 0.553515
v 5.00244 2.105746 -0.468233
v -3.476235 1.287798 0.704766
v 2.811504 0.469098 0.657443
v -3.112555 0.457376 -1.084816
v -0.487217 -1.193519 -1.504026
v 4.634996 2.369115 0.140117
v 0.223642 1.684075 -0.160743
v -3.80184 1.012668 -0.115288
v -0.524231 -1.399266 1.313019
v 3.737014 0.181837 -0.176819
v -1.996117 1.387891 -1.064104
v -3.47843 1.975409 0.0
v 3.814876 1.968416 0.443
v -1.79513 0.033438999999999997 1.37116
v 2.361089 1.76666 0.202595
v -4.018866 -1.413191 0.154149
v -3.595973 -0.346391 0.426453
v -1.88316 -1.829718 -0.401567
v 4.496191 1.024566 0.579491
v 2.346081 -0.74535 -1.013296
v -3.256731 -3.032131 0.849693
v 1.884318 -2.724404 -0.701999
v 3.276333 1.863773 -0.294266
v -3.139394 -1.687482 -0.638546
v 1.310865 -1.136322 0.914838
v 4.821336 2.621498 0.789636
v 5.588763 1.573846 0.0006859999999999922
v 4.082988 2.175805 1.45093
v -2.508885 -1.719933 0.721675
v 4.199317 2.304652 -1.17454
v 4.733657 1.227371 -0.592883
v 2.141273 -1.234642 0.941254
v 1.900481 -3.131932 0.728621
v 4.113935 2.334131 0.526471
v 5.70463 0.849158 0.12813
v 4.146067 2.278102 -0.707372
v 4.509555 2.719807 -0.819972
v 5.800778 1.078596 -0.31945
v -2.888628 -3.200302 -1.210934
v 5.001903 1.914398 0.486724
v 4.918466 2.084725 -0.532713
v -1.053434 -0.342553 -1.690245
v 2.0817 0.283249 1.259461
v 1.504951 1.483493 -0.585976
v 1.473886 -1.818947 -0.799576
v -0.536767 -0.144454 1.682232
v -3.709741 1.351194 -0.211745
v 1.473886 -1.818947 0.799576
v -2.649338 -0.241719 -1.339644
v -1.017767 1.607824 -0.541965
v 1.49748 -1.283201 -1.088258
v -0.977375 -1.793126 -0.498747
v -1.456655 -1.295527 0.89424
v -3.306875 0.379713 0.98762
v -3.053102 1.96881 -0.051104
v 2.078928 -3.584991 0.917088
v -3.67251 0.16663 -0.048579
v -3.55012 -0.984868 0.675228
v -3.347304 -2.573628 -0.955211
v -4.029726 -1.043238 0.13630500000000004
v 3.929251 0.411689 0.0
v 2.688131 -0.517509 0.672975
v 2.396355 1.242239 -0.597722
v -3.387254 -1.486027 -0.672861
v -3.162498 -2.556375 1.058409
v 2.993075 -0.708434 -0.342596
v 3.377233 1.5878 0.400781
v 1.970051 -3.141862 -1.065178
v 4.522247 1.398278 -0.644892
v 2.021366 -2.881725 0.945561
v 1.974215 -1.469208 1.068951
v -2.736599 -3.394849 -1.269577
v 3.961908 2.347745 -0.374747
v -2.126375 -1.866497 -0.502895
v 5.158322 1.23677 0.418043
v -2.787341 -3.278502 1.138621
v 5.373646 0.885375 -0.20884
v 4.036947 1.992167 -1.072561
v 2.663024 -1.440487 0.478149
v 2.663024 -1.440487 -0.478149
v 4.022592 2.123052 0.903284
v 4.148883 1.759918 0.573765
v 4.497719 2.54748 0.937659
v 4.314791 2.142163 -0.54065
v 4.440143 2.510529 -0.269164
v 5.979357 1.325532 0.125337
v 4.995978 2.148785 -0.344534
v 4.656565 2.680542 -0.799684
v 4.871155 1.741238 0.592326
v 4.926194 1.859813 -0.582137
v -1.292756 1.656509 0.5140300000000001
v 4.152166 1.868775 1.225002
v -3.096267 -0.6681 -1.140081
v 0.489819 -1.524947 -0.672392
v -1.807421 0.657142 1.209422
v 2.399389 0.782091 0.915279
v 0.939974 -0.894739 1.019809
v -0.221516 1.686349 -0.151403
v 2.60743 -0.208248 0.974218
v -1.778934 -1.550199 0.776454
v -3.582867 0.734419 -0.697787
v -1.79513 0.033438999999999997 -1.37116
v -2.079597 1.817785 -0.13837499999999997
v 1.640095 -0.674556 -1.246804
v 1.648793 -2.280014 -0.929365
v -3.75063 -0.191863 0.063305
v 2.738132 1.687333 -0.295046
v -3.27979 -1.162072 -0.784602
v -2.276341 -0.689823 1.268026
v -3.53391 -1.330455 0.568246
v 3.559394 0.706516 0.452535
v -3.581963 -1.413947 -0.10437099999999999
v 2.108912 -0.357128 1.259691
v -1.456655 -1.295527 -0.89424
v -3.519716 1.685231 0.31713
v 2.669281 -0.930664 -0.557166
v 2.734183 0.038769 -0.86581
v 4.99671 0.81056 0.280771
v 3.479418 1.97825 0.317478
v -3.339489 -2.328145 0.827572
v 3.886058 1.550141 -0.50483
v 5.397967 1.174238 -0.346802
v 1.900481 -3.131932 -0.728621
v -3.137383 -2.776449 -0.844117
v 5.127157 1.942759 0.211214
v 4.452383 2.524558 0.130255
v -3.087335 -3.350463 -0.831656
v 1.941767 -1.759457 0.997454
v -2.734184 -1.717948 0.749581
v 4.430999 1.535753 0.638888
v -2.837147 -1.791733 -0.921563
v -2.856957 -3.449728 1.356844
v 4.342998 2.664049 -0.904347
v 2.138771 -3.397683 1.214726
v 4.104292 2.537976 -0.543437
v 4.615662 2.63387 0.977986
v 2.318787 -1.29409 0.673863
v 2.126237 -1.330172 -0.721011
v 5.397967 1.174238 0.346802
v 4.192789 2.411967 0.668016
v 4.102304 2.29996 -1.025862
v 4.801436 2.750224 -0.858918
v 4.155551 2.388662 1.09196
v 5.979357 1.325532 -0.125337
v 4.561299 2.133066 -0.547248
v 5.851404 0.929008 -0.105362
v 4.861611 2.001639 0.621913
v 5.001903 1.914398 -0.486724
f 322 2 3
f 308 162 358
f 9 8 5
f 152 9 356
f 11 155 350
f 131 373 15
f 266 112 373
f 112 266 15
f 15 17 112
f 15 149 17
f 154 264 19
f 264 154 18
f 380 287 20
f 18 19 264
f 21 380 20
f 179 21 20
f 23 27 26
f 265 363 23
f 194 363 265
f 308 24 162
f 29 28 23
f 23 349 265
f 252 193 303
f 359 29 193
f 151 4 262
f 6 247 7
f 178 35 292
f 284 36 35
f 36 284 205
f 207 286 132
f 286 207 174
f 209 286 174
f 1 21 174
f 287 380 3
f 179 228 293
f 287 228 179
f 228 123 293
f 346 293 209
f 209 127 30
f 127 209 33
f 7 33 293
f 293 33 209
f 340 32 292
f 247 205 127
f 344 205 5
f 5 37 344
f 253 38 215
f 38 253 39
f 36 39 253
f 37 124 344
f 246 343 177
f 246 335 12
f 297 210 40
f 347 154 20
f 19 20 154
f 15 306 131
f 301 16 42
f 17 301 42
f 145 16 366
f 335 211 155
f 155 211 350
f 8 232 10
f 46 332 146
f 48 283 46
f 48 46 146
f 387 51 283
f 49 50 329
f 390 50 47
f 50 53 47
f 53 52 47
f 239 119 55
f 240 56 280
f 54 239 386
f 53 54 364
f 146 52 198
f 52 319 198
f 153 273 57
f 153 27 311
f 48 146 58
f 27 58 311
f 327 51 387
f 59 48 120
f 377 236 120
f 61 25 59
f 363 315 216
f 58 61 134
f 315 278 216
f 120 134 278
f 58 134 326
f 326 48 58
f 113 3 2
f 162 64 192
f 176 107 7
f 342 107 176
f 68 107 342
f 342 217 68
f 186 316 69
f 316 271 69
f 190 271 316
f 316 107 190
f 71 12 352
f 218 352 12
f 186 70 218
f 70 73 75
f 75 187 70
f 187 75 362
f 362 222 187
f 76 137 77
f 76 135 370
f 72 76 226
f 226 77 72
f 290 135 76
f 78 156 290
f 135 313 78
f 24 129 162
f 220 129 252
f 80 108 257
f 252 303 353
f 353 303 81
f 353 81 309
f 63 245 355
f 285 355 245
f 83 338 257
f 125 85 208
f 208 288 128
f 288 150 86
f 86 148 288
f 251 288 148
f 355 285 106
f 63 82 79
f 3 113 290
f 290 267 228
f 267 123 228
f 224 128 156
f 30 84 83
f 30 83 132
f 208 249 181
f 128 288 339
f 288 214 339
f 339 214 123
f 256 65 295
f 256 351 65
f 345 38 87
f 150 87 89
f 87 38 89
f 158 88 300
f 300 70 158
f 244 212 90
f 212 259 296
f 296 88 256
f 256 206 90
f 89 90 206
f 357 89 297
f 307 74 142
f 142 74 115
f 142 115 307
f 175 71 88
f 244 357 289
f 244 289 212
f 122 93 43
f 41 213 254
f 213 147 254
f 93 44 43
f 44 147 213
f 44 250 147
f 348 114 299
f 114 93 299
f 93 114 348
f 202 49 51
f 196 331 96
f 282 95 367
f 367 95 119
f 95 97 119
f 99 317 196
f 99 196 96
f 164 118 55
f 164 201 269
f 328 277 388
f 319 388 277
f 57 319 237
f 360 237 317
f 360 317 99
f 261 372 81
f 51 49 329
f 59 368 51
f 368 59 101
f 98 368 200
f 98 200 102
f 103 98 102
f 276 101 59
f 382 325 234
f 276 59 25
f 361 255 157
f 157 104 276
f 105 323 157
f 324 157 255
f 324 105 157
f 98 103 116
f 140 98 116
f 116 103 197
f 238 334 197
f 57 261 26
f 261 81 26
f 69 371 186
f 371 73 186
f 73 70 186
f 83 338 106
f 83 106 84
f 294 7 107
f 260 107 316
f 22 159 108
f 361 309 255
f 34 30 125
f 34 333 87
f 12 259 212
f 12 343 246
f 24 193 111
f 24 111 4
f 16 149 112
f 16 112 17
f 321 2 379
f 63 274 79
f 92 93 114
f 139 114 173
f 75 307 115
f 75 115 362
f 372 126 116
f 96 116 140
f 102 382 325
f 102 325 234
f 100 164 118
f 100 118 328
f 50 49 119
f 50 119 53
f 60 387 120
f 166 120 236
f 225 130 365
f 13 154 18
f 41 43 250
f 41 250 147
f 7 214 123
f 336 123 293
f 39 36 124
f 39 246 177
f 109 34 333
f 109 181 340
f 81 309 126
f 81 126 372
f 32 249 127
f 178 127 35
f 106 208 128
f 106 128 355
f 64 162 129
f 64 129 220
f 310 225 130
f 310 184 365
f 5 8 131
f 5 131 37
f 28 305 132
f 257 132 83
f 65 351 133
f 217 271 190
f 163 58 134
f 163 134 278
f 274 313 135
f 113 135 290
f 1 21 380
f 358 195 2
f 169 76 137
f 72 137 77
f 60 236 138
f 60 204 120
f 92 173 139
f 302 354 114
f 331 96 140
f 202 140 51
f 55 56 240
f 386 240 280
f 263 74 142
f 263 142 115
f 104 103 143
f 323 385 105
f 235 382 325
f 235 325 102
f 42 16 145
f 42 167 366
f 47 332 146
f 47 146 52
f 297 254 147
f 297 147 357
f 295 251 148
f 295 148 256
f 373 15 149
f 373 149 112
f 125 85 150
f 333 150 87
f 359 29 151
f 359 151 4
f 294 356 152
f 294 152 107
f 26 57 153
f 26 153 27
f 121 13 154
f 121 154 264
f 12 11 155
f 12 155 335
f 79 78 156
f 79 156 82
f 25 276 157
f 25 157 361
f 133 73 158
f 133 158 88
f 257 108 159
f 28 349 23
f 139 114 354
f 258 183 302
f 143 104 385
f 143 385 238
f 2 192 162
f 2 162 358
f 383 278 163
f 191 163 134
f 97 269 164
f 317 381 237
f 54 364 165
f 54 165 56
f 204 120 166
f 138 166 236
f 145 366 167
f 281 167 233
f 91 74 168
f 91 189 142
f 72 76 169
f 275 312 137
f 94 140 202
f 282 202 49
f 117 102 171
f 268 182 144
f 332 47 390
f 203 283 46
f 44 93 348
f 44 348 299
f 151 262 174
f 151 174 305
f 296 88 175
f 296 175 259
f 67 295 176
f 67 176 7
f 40 39 177
f 40 289 41
f 32 127 178
f 32 178 292
f 19 347 179
f 19 179 20
f 80 257 180
f 80 180 245
f 125 109 181
f 125 181 208
f 171 144 182
f 171 182 268
f 354 302 183
f 221 183 258
f 130 365 184
f 130 184 310
f 5 9 356
f 5 356 205
f 10 316 186
f 10 186 218
f 158 73 187
f 158 187 70
f 72 312 275
f 72 275 137
f 168 91 189
f 168 223 142
f 68 107 190
f 68 190 217
f 272 134 191
f 272 191 320
f 63 64 192
f 63 229 379
f 23 26 193
f 23 193 29
f 25 22 194
f 25 315 61
f 136 1 195
f 380 322 3
f 95 242 196
f 95 196 97
f 143 103 197
f 143 197 238
f 57 319 198
f 57 198 273
f 145 42 199
f 145 281 167
f 101 368 200
f 101 200 276
f 55 269 201
f 328 201 100
f 170 140 202
f 170 202 282
f 45 283 203
f 45 203 46
f 138 60 204
f 138 241 375
f 6 247 205
f 6 205 356
f 150 337 206
f 150 206 89
f 305 174 207
f 305 207 132
f 84 249 208
f 84 208 106
f 31 286 209
f 31 209 127
f 39 38 210
f 39 210 40
f 131 37 211
f 131 211 350
f 110 12 212
f 110 212 259
f 43 41 213
f 43 213 44
f 67 288 214
f 67 214 7
f 292 35 215
f 34 345 87
f 58 363 216
f 58 216 163
f 65 271 217
f 65 217 342
f 11 12 218
f 11 218 10
f 1 4 358
f 1 358 195
f 80 245 220
f 80 353 309
f 160 258 221
f 160 221 183
f 73 75 222
f 73 222 187
f 318 142 223
f 189 223 168
f 82 156 224
f 82 224 128
f 13 310 225
f 13 225 121
f 370 76 226
f 78 226 77
f 188 72 275
f 376 275 312
f 3 287 228
f 3 228 290
f 192 63 229
f 192 229 2
f 22 25 361
f 22 361 309
f 383 320 272
f 383 272 134
f 9 8 232
f 316 232 10
f 42 167 233
f 42 233 199
f 200 102 234
f 200 234 276
f 171 102 235
f 171 235 325
f 327 60 236
f 59 236 61
f 118 381 237
f 118 237 319
f 105 334 238
f 105 238 270
f 53 119 239
f 53 239 54
f 141 386 240
f 141 240 56
f 204 375 241
f 279 241 138
f 282 95 242
f 282 242 170
f 283 51 329
f 390 329 50
f 89 357 244
f 89 244 90
f 64 220 245
f 304 245 63
f 124 39 246
f 124 246 291
f 33 127 247
f 33 247 7
f 140 51 248
f 140 248 98
f 30 84 249
f 286 249 31
f 122 43 250
f 122 250 44
f 67 288 251
f 67 251 295
f 24 193 252
f 24 252 129
f 35 215 253
f 35 253 36
f 40 297 254
f 40 254 41
f 126 309 255
f 126 255 324
f 86 148 256
f 337 256 206
f 28 159 257
f 28 257 132
f 139 92 258
f 139 258 160
f 71 12 259
f 71 259 175
f 152 107 260
f 152 260 9
f 99 360 261
f 99 261 96
f 1 174 262
f 1 262 4
f 168 74 263
f 168 263 142
f 14 121 264
f 14 264 13
f 22 194 265
f 22 265 349
f 10 8 266
f 10 306 11
f 156 290 267
f 156 339 128
f 378 144 268
f 378 268 171
f 119 55 269
f 119 269 97
f 161 105 270
f 161 270 238
f 133 65 271
f 133 371 73
f 231 383 272
f 231 272 320
f 146 198 273
f 146 311 58
f 113 63 274
f 113 274 135
f 227 72 275
f 298 275 376
f 103 104 276
f 382 276 234
f 118 328 277
f 118 277 319
f 61 315 278
f 61 278 120
f 204 138 279
f 204 279 330
f 54 386 280
f 54 280 56
f 199 145 281
f 199 314 233
f 94 242 282
f 389 282 170
f 390 45 283
f 390 283 329
f 127 35 284
f 127 284 205
f 338 245 285
f 338 285 106
f 30 132 286
f 30 286 249
f 347 179 287
f 347 287 20
f 85 208 288
f 85 288 150
f 177 40 289
f 177 289 212
f 77 78 290
f 77 290 76
f 37 124 291
f 37 291 211
f 34 340 292
f 34 292 215
f 21 179 293
f 21 293 174
f 6 7 294
f 6 294 356
f 66 256 295
f 66 342 65
f 90 212 296
f 90 296 256
f 38 210 297
f 38 297 89
f 227 376 298
f 227 298 275
f 122 44 299
f 122 299 93
f 71 352 300
f 71 300 88
f 149 16 301
f 149 301 17
f 92 258 302
f 92 302 114
f 26 193 303
f 26 303 81
f 64 63 304
f 64 341 245
f 29 28 305
f 29 305 151
f 266 10 306
f 266 306 15
f 222 74 307
f 222 307 75
f 4 358 308
f 4 308 24
f 108 22 309
f 108 309 80
f 14 13 310
f 14 310 365
f 273 146 311
f 273 311 153
f 169 137 312
f 169 312 72
f 79 274 313
f 79 313 78
f 281 369 314
f 281 314 199
f 194 25 315
f 194 315 363
f 9 260 316
f 9 316 232
f 97 196 317
f 97 317 381
f 189 142 318
f 374 318 223
f 165 52 319
f 165 319 56
f 163 191 320
f 163 320 383
f 229 379 321
f 229 321 2
f 195 136 322
f 195 322 2
f 104 157 323
f 104 323 385
f 116 126 324
f 116 324 197
f 144 171 325
f 144 325 378
f 120 387 326
f 120 326 134
f 59 51 327
f 59 327 236
f 55 201 328
f 55 328 141
f 243 283 329
f 243 329 390
f 241 204 330
f 241 384 279
f 242 94 331
f 242 331 196
f 45 390 332
f 45 332 46
f 125 109 333
f 125 333 150
f 324 197 334
f 324 334 105
f 291 211 335
f 291 335 246
f 7 293 336
f 7 336 123
f 86 150 337
f 86 337 256
f 180 245 338
f 180 338 257
f 267 156 339
f 267 339 123
f 249 32 340
f 249 340 181
f 304 64 341
f 304 341 245
f 295 176 342
f 295 342 66
f 212 177 343
f 212 343 12
f 36 124 344
f 36 344 205
f 215 34 345
f 215 345 38
f 174 293 346
f 174 346 209
f 18 154 347
f 18 347 19
f 173 93 348
f 173 348 114
f 159 28 349
f 159 349 22
f 306 11 350
f 306 350 131
f 88 256 351
f 88 351 133
f 70 300 352
f 70 352 218
f 220 80 353
f 220 353 252
f 160 139 354
f 160 354 183
f 82 63 355
f 82 355 128
f 185 5 356
f 185 356 9
f 41 147 357
f 41 357 289
f 219 1 358
f 219 358 4
f 111 4 359
f 111 359 193
f 57 237 360
f 57 360 261
f 230 22 361
f 230 361 25
f 74 115 362
f 74 362 222
f 27 23 363
f 27 363 58
f 52 53 364
f 52 364 165
f 121 225 365
f 121 365 14
f 17 16 366
f 17 366 42
f 49 282 367
f 49 367 119
f 248 51 368
f 248 368 98
f 233 281 369
f 233 369 314
f 78 135 370
f 78 370 226
f 271 133 371
f 271 371 69
f 96 116 372
f 96 372 261
f 8 131 373
f 8 373 266
f 189 318 374
f 189 374 223
f 166 204 375
f 166 375 138
f 188 227 376
f 188 376 312
f 61 120 377
f 61 377 236
f 117 325 378
f 117 378 171
f 113 63 379
f 113 379 2
f 136 1 380
f 136 380 322
f 164 97 381
f 164 381 118
f 103 102 382
f 103 382 276
f 62 320 383
f 62 383 231
f 330 241 384
f 330 384 279
f 161 105 385
f 161 385 238
f 55 239 386
f 55 386 141
f 48 283 387
f 48 387 326
f 56 141 388
f 56 388 319
f 94 282 389
f 94 389 331
f 172 45 390
f 172 390 283
