v 2.229345 -0.992723 -0.862826
v 2.5392 -0.727778 -0.750475
v 2.669281 -0.930664 -0.557166
v 2.514167 -1.077721 -0.706614
v 2.318787 -1.29409 -0.673863
v 2.960118 -0.941827 -0.284743
v 2.881063 -0.493146 -0.521968
v -2.033406 -0.91003 -0.96422
v -1.782298 -1.020581 -0.943381
v -2.462835 -1.3055 -0.966395
v -2.049879 -1.562369 -0.829319
v -1.200688 -1.577575 -0.799188
v -0.972089 -1.774507 -0.76857
v -0.063012 -1.583021 -0.865082
v -0.543078 -1.810473 -0.563825
v -1.108758 -1.770749 -0.473033
v -0.523838 -1.850065 -0.388007
v -2.267049 -1.753901 -0.662106
v -1.88316 -1.829718 -0.401567
v -2.941731 -1.787431 -0.442574
v -3.616627 -0.350374 -0.338492
v -3.570243 -0.060093 -0.344854
v -3.535416 0.191408 -0.338478
v -3.55232 0.219613 0.0
v 1.734568 -2.965876 -0.986396
v 1.802387 -3.089615 -0.961851
v 1.721745 -3.116887 -0.979111
v 2.247981 -3.342804 -1.127459
v 1.709173 -3.133145 -0.80794
v 1.900481 -3.131932 -0.728621
v 2.126553 -3.549679 -0.701005
v 1.857471 -2.950722 -0.669988
v 1.884318 -2.724404 -0.701999
v -2.837147 -1.791733 -0.921563
v -2.918293 -1.904184 -1.004659
v -3.23261 -1.834299 -1.087832
v -3.49052 -1.760417 -0.903104
v -3.078699 -2.553982 -1.046834
v -3.177824 -2.279173 -1.04758
v -3.327526 -2.075729 -1.005328
v -3.347304 -2.573628 -0.955211
v -3.030605 -2.311222 -0.88433
v 1.953911 -2.462233 -0.830594
v 1.98533 -2.221319 -0.893145
v 1.678986 -2.513137 -0.891745
v 1.648793 -2.280014 -0.929365
v 1.6249 -2.087301 -0.963391
v 1.60129 -2.267132 -0.787696
v 1.473886 -1.818947 -0.799576
v 1.756349 -2.446399 -0.705428
v 1.804927 -1.581954 -1.089198
v 1.818266 -2.313852 -0.968652
v 1.945206 -2.015769 -0.672724
v 1.966698 -1.22816 -1.153716
v 3.233975 2.059193 -0.072431
v 3.276333 1.863773 -0.294266
v 3.528445 1.060127 -0.489443
v 3.71636 2.343387 0.0
v 3.4583 2.151656 -0.102662
v 4.120842 0.627141 -0.185461
v 4.041657 1.039756 -0.496922
v 2.361089 1.76666 -0.202595
v 2.637461 1.01726 -0.581611
v 2.811504 0.469098 -0.657443
v 2.91987 0.084875 -0.64246
v 2.734183 0.038769 -0.86581
v 2.70696 0.393597 -0.849582
v 2.346081 -0.74535 -1.013296
v 0.737904 1.604213 -0.281713
v 0.316341 0.785311 -1.08626
v -0.559706 1.69418 -0.186107
v 0.034087 -0.225059 -1.542949
v -1.053434 -0.342553 -1.690245
v 1.644178 -0.857872 -1.208494
v 1.640095 -0.674556 -1.246804
v 1.504951 1.483493 -0.585976
v -1.683863 1.789041 -0.121501
v -1.744732 1.734849 -0.433807
v -2.030191 0.547622 -1.189762
v -2.079597 1.817785 -0.138375
v -2.298249 0.768333 -1.203884
v -2.292049 -0.933921 -1.128136
v -3.08565 1.65734 -0.784479
v -3.35851 1.810253 -0.380095
v -3.19641 0.797564 -0.985913
v -3.709741 1.351194 -0.211745
v -3.302419 -3.017921 -1.128514
v -3.107105 -2.947818 -1.092235
v -3.227676 -3.14166 -1.103969
v -3.316551 -3.168932 -1.121229
v -2.736599 -3.394849 -1.269577
v -2.631547 -3.559891 -1.33738
v -2.981824 -3.608887 -1.346959
v -3.091252 -3.340925 -1.235864
v -3.333954 -3.058673 -0.974748
v -3.19417 -3.348553 -1.007196
v -2.52472 -3.561609 -1.161535
v -2.944625 -3.282121 -0.817054
v -3.900566 1.002504 0.0
v -3.84447 0.498176 -0.053132
v -3.87514 1.480358 0.0
v -3.712832 1.794492 0.0
v -3.47843 1.975409 0.0
v -3.242148 2.021387 0.0
v -3.80184 1.012668 -0.115288
v -3.357009 1.781675 -0.071216
v -3.674766 0.517345 -6.3e-05
v -3.348274 1.767738 -8.5e-05
v -2.03574 -1.981182 -0.547873
v -2.120746 -2.045137 -0.411171
v -2.499138 -2.03809 -0.504529
v -2.571019 -1.995375 -0.58623
v -2.685663 -2.028649 -0.514928
v -2.065655 -2.124623 -0.36872
v -1.978016 -2.086834 -0.494327
v -2.552923 -2.142304 -0.454579
v -2.629199 -2.138983 -0.436227
v -2.583303 -2.089191 -0.577616
v 4.897808 1.946794 -0.628057
v 4.973133 1.992779 -0.533466
v 5.001903 1.914398 -0.486724
v 4.760921 1.881357 -0.61312
v 4.963546 1.783161 -0.553515
v 4.918466 2.084725 -0.532713
v 5.00244 2.105746 -0.468233
v 4.752337 1.723388 -0.591296
v 4.995978 2.148785 -0.344534
v 4.912303 2.162645 -9e-05
v 5.158322 1.23677 -0.418043
v 4.761601 1.363013 -0.57137
v 4.733657 1.227371 -0.592883
v 5.588763 1.573846 0.000686
v 5.730427 1.435668 -0.209848
v 5.710154 1.360653 -0.290072
v 5.672187 1.164767 -0.35408
v 5.931474 1.233483 -0.215613
v 5.92711 1.131195 0.001118
v 5.923808 1.025283 -0.153084
v 5.959462 1.157227 -0.187097
v 5.370709 0.980272 -0.337432
v 5.373646 0.885375 -0.20884
v 4.567896 1.149805 -0.642484
v 4.496191 1.024566 -0.579491
v 4.148883 1.759918 -0.573765
v 4.342351 2.581176 -0.140317
v 4.454962 2.523303 -0.000603
v 4.209941 2.600612 -0.337597
v 4.328606 2.563996 -0.343892
v 4.47609 2.606654 -0.692301
v 4.509555 2.719807 -0.819972
v 4.801436 2.750224 -0.858918
v 5.096148 2.75972 -0.774729
v 4.440713 2.398472 -0.629128
v 4.681847 2.551036 -0.886235
v 4.262798 2.490674 -0.818316
v 4.735139 2.645464 -0.95089
v 4.035753 2.399538 -0.343957
v 3.870548 2.292106 -0.368964
v 4.273005 2.310529 -0.762172
v 4.215419 2.350484 -0.885764
v 4.061989 2.231988 -1.178382
v 4.097362 2.3666 -1.239986
v 4.094116 2.426172 -1.381032
v 4.046673 2.341349 -1.45253
v 4.094112 1.889281 -0.578435
v 4.148927 2.388726 -1.376879
v 4.199317 2.304652 -1.17454
v 4.153175 2.084823 -0.799668
v 4.148865 2.148829 -0.986567
v 4.11268 2.195089 -1.366908
v 4.111934 2.234814 -1.399949
v 2.407309 -0.97498 0.805091
v 2.126237 -1.330172 0.721011
v 2.45706 -1.400958 0.539866
v 2.803736 -1.255869 0.438328
v 2.663024 -1.440487 0.478149
v 2.835437 -0.231101 0.57789
v 2.688131 -0.517509 0.672975
v -2.306662 -1.116976 0.961238
v -1.778934 -1.550199 0.776454
v -1.266738 -1.691944 0.557922
v -1.108758 -1.770749 0.473033
v -2.126375 -1.866497 0.502895
v -3.55012 -0.984868 0.675228
v -3.283698 -0.730967 0.793898
v 1.806371 -2.949735 0.984058
v 2.021366 -2.881725 0.945561
v 1.721745 -3.116887 0.979111
v 1.802387 -3.089615 0.961851
v 2.031262 -3.256709 1.111122
v 2.113587 -3.011851 0.851648
v 1.709173 -3.133145 0.80794
v 1.83279 -3.296508 0.865078
v 2.078928 -3.584991 0.917088
v 2.126553 -3.549679 0.701005
v 2.377814 -3.484109 0.800332
v 1.841282 -2.716008 0.708009
v -2.918293 -1.904184 1.004659
v -3.23261 -1.834299 1.087832
v -3.498521 -1.762078 0.762472
v -3.068444 -2.260195 1.03507
v -3.162498 -2.556375 1.058409
v -3.347304 -2.573628 0.955211
v -2.981187 -2.142718 0.858353
v -3.030605 -2.311222 0.88433
v -3.132772 -2.528669 0.848639
v 2.02453 -2.195334 0.811284
v 1.930747 -2.463535 0.894743
v 2.053108 -1.738285 0.824853
v 1.710406 -2.272223 0.954296
v 1.717145 -1.80953 1.004092
v 1.529305 -2.092083 0.887353
v 1.663494 -2.485963 0.790773
v 1.473886 -1.818947 0.799576
v 1.596751 -1.722028 0.684655
v 1.601721 -1.262359 1.14142
v 3.115383 1.49239 0.380228
v 3.98851 1.297806 0.539537
v 2.60743 -0.208248 0.974218
v 2.346081 -0.74535 1.013296
v 2.0817 0.283249 1.259461
v 1.859443 1.450393 0.632222
v 0.939271 0.379986 1.185872
v -0.406155 1.005088 0.971088
v -0.536767 -0.144454 1.682232
v -0.487217 -1.193519 1.504026
v -1.292756 1.656509 0.51403
v 1.644178 -0.857872 1.208494
v 1.63008 0.420236 1.172369
v -1.79513 0.033439 1.37116
v -1.683863 1.789041 0.121501
v -2.030191 0.547622 1.189762
v -2.296056 1.06281 1.171139
v -3.160225 -0.018852 1.113626
v -3.424258 0.158638 0.918279
v -3.223286 -3.00178 1.126176
v -3.316551 -3.168932 1.121229
v -3.227676 -3.14166 1.103969
v -2.975439 -3.308754 1.25324
v -2.856957 -3.449728 1.356844
v -2.729567 -3.602976 1.377236
v -2.787341 -3.278502 1.138621
v -3.330406 -3.18519 0.950058
v -3.19417 -3.348553 1.007196
v -2.922908 -3.637036 1.059206
v -3.256731 -3.032131 0.849693
v -2.52472 -3.561609 1.161535
v -3.67645 -0.551317 0.077574
v -3.72947 -0.869371 0.096946
v -3.699784 -0.759901 0.088664
v -3.697889 -0.951955 0.098793
v -3.733767 -1.141917 0.111139
v -3.743747 -1.367219 0.100951
v -3.823638 -1.557534 0.081533
v -3.828485 -1.786559 -0.114095
v -3.805841 -0.798961 0.099237
v -3.884588 -1.261469 0.148322
v -4.297769 -1.889903 0.177707
v -4.227645 -1.227895 0.069894
v -3.921874 -0.538502 -0.145307
v -4.252683 -1.437854 -0.14562
v -4.331331 -1.69259 -0.043593
v -3.86074 -0.188349 -0.024962
v -3.81743 0.150343 0.048629
v -3.84447 0.498176 0.053132
v -3.469715 1.961504 0.071141
v -3.660928 1.770041 0.115431
v -3.75063 -0.191863 0.063305
v -3.675638 1.471512 0.062201
v -3.357009 1.781675 0.071216
v -3.67251 0.16663 -0.048579
v -1.971059 -1.992958 0.500845
v -2.120746 -2.045137 0.411171
v -2.513608 -2.012858 0.558673
v -2.539874 -2.049824 0.460098
v -1.985123 -2.116661 0.394256
v -1.978016 -2.086834 0.494327
v -2.513187 -2.130859 0.49792
v -2.629199 -2.138983 0.436227
v -2.583303 -2.089191 0.577616
v 4.925499 1.917814 0.613413
v 5.001903 1.914398 0.486724
v 4.973133 1.992779 0.533466
v 4.963546 1.783161 0.553515
v 4.918466 2.084725 0.532713
v 5.00244 2.105746 0.468233
v 4.615408 1.639641 0.577768
v 4.761601 1.363013 0.57137
v 5.566339 1.498677 0.190905
v 5.672187 1.164767 0.35408
v 5.931474 1.233483 0.215613
v 5.85775 0.997026 0.236768
v 5.370709 0.980272 0.337432
v 4.359483 2.615839 0.596817
v 4.546655 2.709095 0.80378
v 4.59262 2.569879 0.790452
v 4.821336 2.621498 0.789636
v 4.801436 2.750224 0.858918
v 5.096148 2.75972 0.774729
v 4.382053 2.433474 0.798757
v 4.681847 2.551036 0.886235
v 4.497719 2.54748 0.937659
v 4.854957 2.660227 0.92431
v 4.615662 2.63387 0.977986
v 4.138687 2.474013 0.642311
v 4.088356 2.510913 0.453793
v 4.035753 2.399538 0.343957
v 4.753015 2.699695 0.973279
v 3.857922 2.141554 0.521067
v 4.215419 2.350484 0.885764
v 4.273005 2.310529 0.762172
v 4.097362 2.3666 1.239986
v 4.058311 2.293363 1.338054
v 4.094116 2.426172 1.381032
v 4.022592 2.123052 0.903284
v 4.036947 1.992167 1.072561
v 4.103303 2.038565 1.363737
v 3.966639 1.969285 0.549291
v 4.303193 2.347123 1.044413
v 4.211815 2.28249 1.039137
v 4.153175 2.084823 0.799668
v 4.11268 2.195089 1.366908
v 4.111934 2.234814 1.399949
v -3.507689 1.700214 0.0
v -0.956007 -1.825728 0.0
v -2.68493 1.262021 -1.11049
v -1.551526 1.400025 1.050193
v -2.734184 -1.717948 -0.749581
v 3.36004 0.16548699999999994 -0.412685
v 3.881998 1.764428 -0.476337
v 4.472349 2.325133 0.443764
v 5.528186 1.44018 -0.250666
v 0.760722 1.205036 0.700545
v 0.927497 -1.558489 0.0
v -2.684452 -1.891207 0.447388
v -2.187634 -0.375454 -1.406902
v 2.384638 -0.591919 -1.043058
v -2.47375 0.300945 1.316695
v 4.113935 2.334131 0.526471
v 3.189664 0.907503 0.500122
v 4.920855 0.812339 0.0003180000000000127
v 4.533113 1.989009 -0.578975
v 5.133171 1.715563 0.334258
v -1.479588 0.295746 1.440042
v -0.535144 -1.615983 0.920556
v 2.970902 -0.959664 0.0
v -2.955052 -1.49684 1.128812
v -3.557869 -1.325941 -0.37803
v -0.40615500000000004 1.005088 -0.971088
v -3.109047 1.789477 0.565323
v 2.811504 0.469098 0.657443
v 3.98851 1.297806 -0.539537
v 5.218821 1.803552 -0.199306
v 4.187258 2.590221 0.135844
v 4.38099 2.207701 -0.839016
v 5.573803 0.952578 0.243886
v 1.975941 0.827957 -1.018423
v -3.096267 -0.6681 -1.140081
v 1.451825 -1.576856 0.702758
v -0.752416 0.438132 1.467349
v 3.814876 1.968416 0.443
v -3.304804 -1.582192 0.643445
v -1.744732 1.734849 0.433807
v -1.610025 -1.711571 0.0
v 2.706963 -1.528854 0.0
v -0.969076 0.901205 -1.146223
v 4.022592 2.123052 -0.903284
v 2.637461 1.01726 0.581611
v -2.187634 -0.375454 1.406902
v 4.733657 1.227371 0.592883
v 3.189664 0.907503 -0.500122
v 5.127157 1.942759 0.211214
v 5.884856 1.062202 -0.24954499999999996
v 4.407729 2.53164 -0.486692
v 5.471928 1.345179 0.313899
v 0.960321 -0.308052 -1.243133
v -3.665774 -0.73408 0.446286
v -1.395501 -0.698702 -1.553257
v 0.939974 -0.894739 1.019809
v -3.476235 1.287798 0.704766
v 2.021591 -1.755289 -0.912093
v -1.017767 1.607824 -0.541965
v 3.342159 -0.384674 -0.201349
v 1.807583 1.756546 -0.177627
v -1.782298 -1.020581 0.943381
v 2.384638 -0.591919 1.043058
v -2.892162 -1.781087 0.0
v 4.00011 2.424158 -0.313254
v 4.120842 0.627141 0.185461
v 4.26732 2.121987 0.61494
v 4.982822 1.503071 -0.507606
v 4.982822 1.503071 0.507606
v 5.908842 1.388968 0.0010259999999999991
v 4.634996 2.369115 0.140117
v 5.373646 0.885375 0.20884
v 4.497719 2.54748 -0.937659
v 0.939271 0.379986 -1.185872
v -2.47375 0.300945 -1.316695
v 0.316341 0.785311 1.08626
v 1.604939 -1.556997 0.0
v -2.672899 1.90511 -0.067168
v 0.034087 -0.225059 1.542949
v -1.405685 0.573835 -1.352181
v -3.379131 0.767915 0.885996
v -0.977375 -1.793126 0.498747
v -2.591357 -1.510845 0.88547
v 1.966698 -1.22816 1.153716
v 2.723503 1.898839 0.0
v -3.650579 -1.142448 0.0
v 3.280681 0.510802 0.49943399999999993
v 3.559394 0.706516 -0.452535
v 5.233176 1.442459 0.362988
v 4.477781 1.687858 -0.597407
v 4.655453 0.758022 9.799999999998699e-05
v 4.440143 2.510529 0.269164
v 5.470775 1.009574 -0.355371
v 4.688114 2.046378 0.604518
v 4.04473 2.254459 0.744209
v 5.70463 0.849158 0.12813000000000002
v 5.959462 1.157227 0.187097
v 4.192789 2.411967 -0.668016
v 2.0817 0.283249 -1.259461
v 1.601721 -1.262359 -1.14142
v -1.576196 -1.696317 -0.358146
v 0.960321 -0.308052 1.243133
v 0.480235 -1.631521 0.401961
v 4.634996 2.369115 -0.140117
v -3.101125 -0.35476 1.162409
v -2.955052 -1.49684 -1.128812
v 0.223642 1.684075 -0.16074299999999997
v -3.556552 0.704883 -0.28063
v -1.929731 1.617188 0.80639
v -1.929731 1.617188 -0.80639
v -1.456655 -1.295527 0.89424
v 2.396607 -1.593239 -0.389972
v -3.271035 -1.609292 0.0
v 3.857922 2.141554 -0.521067
v 2.669281 -0.930664 0.557166
v 2.738132 1.687333 -0.295046
v -2.466779 -1.857679 0.570461
v 3.559394 0.706516 0.452535
v 2.993075 -0.708434 -0.342596
v 5.813217 1.415581 0.195261
v 1.804927 -1.581954 1.089198
v 4.152166 1.868775 1.225002
v 4.430999 1.535753 0.638888
v 1.83279 -3.296508 -0.865078
v 5.197562 0.922406 0.302473
v 4.440713 2.398472 0.629128
v 4.79841 1.473149 -0.570618
v 4.837331 2.235678 0.479332
v 4.063205 2.509679 -0.342987
v 5.757506 0.9579 -0.210732
v 4.314039 2.32946 -0.57751
v -2.566746 -1.211312 1.167101
v -1.551526 1.400025 -1.050193
v -2.71748 1.576797 0.875971
v -3.595973 -0.346391 0.426453
v 0.489819 -1.524947 -0.672392
v 0.760722 1.205036 -0.700545
v 2.013534 -0.662303 -1.191491
v -1.053434 -0.342553 1.690245
v -2.649338 -0.241719 -1.339644
v 2.399389 0.782091 0.915279
v -2.572286 0.835495 -1.252192
v -1.456655 -1.295527 -0.89424
v -3.601668 1.293049 0.0
v -4.229164 -1.473093 0.11156
v 2.361089 1.76666 0.202595
v -3.686518 -0.955181 -0.320349
v 1.348219 -1.282064 0.845204
v 4.152166 1.868775 -1.225002
v -0.559706 1.69418 0.18610700000000002
v -3.53391 -1.330455 0.568246
v 3.929251 0.411689 0.0
v -2.037371 -1.73636 0.656787
v 4.496191 1.024566 0.579491
v 3.4583 2.151656 0.102662
v 2.986408 -0.413503 0.428964
v 1.451825 -1.576856 -0.702758
v 5.378289 1.768448 0.00044099999999999695
v 5.397967 1.174238 -0.346802
v 4.063205 2.509679 0.342987
v 2.857666 -0.930625 -0.391195
v 2.141273 -1.234642 0.941254
v 4.38099 2.207701 0.839016
v 1.970051 -3.141862 -1.065178
v 5.397967 1.174238 0.346802
v 4.389484 2.190421 0.47332
v 4.59262 2.569879 -0.790452
v 4.561299 2.133066 -0.547248
v 4.146067 2.278102 -0.707372
v 5.851404 0.929008 -0.10536199999999998
v 4.871155 1.741238 0.592326
v 4.926194 1.859813 -0.582137
v -0.487217 -1.193519 -1.504026
v -1.79513 0.033438999999999997 -1.37116
v 0.939974 -0.894739 -1.019809
v -0.752416 0.438132 -1.467349
v -0.969076 0.901205 1.146223
v 4.00011 2.424158 0.313254
v 4.99671 0.81056 0.28077100000000005
v 0.737904 1.604213 0.281713
v -1.807421 0.657142 1.209422
v 2.396607 -1.593239 0.389972
v -3.582867 0.734419 -0.697787
v -0.07847000000000001 -1.688266 0.80023
v -2.986345 -2.93377 1.087679
v -4.107191 -1.83652 0.120149
v -3.536654 0.442277 0.322
v -3.053102 1.96881 -0.051104
v -2.937658 -1.002749 -1.219413
v 3.36004 0.165487 0.412685
v 4.141189 1.008775 -0.499342
v -3.008323 -1.759271 0.655672
v 4.314791 2.142163 -0.54065
v -0.894132 1.712652 -0.151911
v 2.396355 1.242239 -0.597722
v -2.042059 -1.312976 0.940911
v 3.377233 1.5878 -0.400781
v -3.137383 -2.776449 -0.844117
v -1.74779 -1.667608 -0.60634
v 4.068249 0.798926 0.400813
v 3.377233 1.5878 0.400781
v 2.835437 -0.23110100000000003 -0.57789
v 1.572979 -1.827591 -0.985823
v -2.709403 -1.879947 -0.508775
v 4.995978 2.148785 0.344534
v 5.783731 1.341471 -0.28459
v -3.042899 -3.193907 -1.207296
v 1.612396 -1.485728 1.099731
v 2.201939 -3.226457 0.996503
v 2.343303 -3.507846 -1.195262
v 2.126237 -1.330172 -0.721011
v 2.410367 -0.777999 0.841105
v 4.342998 2.664049 0.904347
v 4.312225 1.683392 0.639944
v 4.102304 2.29996 -1.025862
v 4.113935 2.334131 -0.526471
v 4.155551 2.388662 1.09196
v 5.421809 1.685349 0.123555
v 4.314039 2.32946 0.57751
v 4.359483 2.615839 -0.596817
v 4.328606 2.563996 0.343892
v 5.511556 0.863525 -0.17761299999999997
v 5.608974 1.317869 0.319719
v 5.757506 0.9579 0.21073200000000003
v 4.861611 2.001639 0.621913
v 4.825996 2.089176 -0.576083
v -0.11519 0.458427 1.346197
v -2.137524 1.753182 0.433142
v -3.476235 1.287798 -0.704766
v 1.63008 0.42023599999999994 -1.172369
v 2.519027 1.485931 0.422962
v -2.825835 0.755899 1.209042
v 0.544825 -1.133123 -1.096902
v -3.27979 -1.162072 -0.784602
v 0.544825 -1.133123 1.096902
v -0.221516 1.686349 -0.151403
v 3.737014 0.181837 -0.176819
v -2.870422 -3.601724 -0.843123
v -1.807421 0.657142 -1.209422
v 2.495354 0.250522 -1.132081
v 4.712067 0.770512 -0.333393
v -1.200688 -1.577575 0.799188
v 1.310865 -1.136322 -0.914838
v -4.111927 -1.333141 -0.26716
v -2.79063 0.46881 -1.224273
v -1.278903 1.192051 0.946843
v 1.807583 1.756546 0.177627
v -3.637643 -0.356271 0.0
v 2.803736 -1.255869 -0.438328
v -3.15021 -1.259588 1.001021
v 2.747937 0.712253 -0.615674
v -1.215563 1.757097 -0.133494
v 2.025468 -3.556842 -1.204841
v -1.552229 -1.555077 -0.735708
v -3.519716 1.685231 0.31713
v 2.61797 -1.235597 0.520238
v -2.223917 -1.541268 0.87926
v 4.522247 1.398278 -0.644892
v -2.981187 -2.142718 -0.858353
v 3.115383 1.49239 -0.380228
v 3.479418 1.97825 0.317478
v -3.339489 -2.328145 0.827572
v 3.886058 1.550141 0.50483
v 4.354411 2.102985 -0.80258
v 2.679445 0.687427 0.720573
v 4.359048 0.700414 0.166651
v 1.918641 -2.083654 1.001275
v -2.037371 -1.73636 -0.656787
v 5.158322 1.23677 0.418043
v 1.900481 -3.131932 0.728621
v 2.138771 -3.397683 1.214726
v 4.6248 2.708372 -0.989445
v 2.318787 -1.29409 0.673863
v 1.838895 -1.087204 1.201408
v 1.911792 -2.895773 -0.950117
v -2.946527 -2.939327 -0.986343
v -2.884711 -3.063896 0.993766
v 2.407309 -0.97498 -0.805091
v 2.036036 -1.57908 -0.967151
v 4.303193 2.347123 -1.044413
v 3.945464 2.1301 0.689536
v 4.533113 1.989009 0.578975
v 5.608974 1.317869 -0.319719
v 5.979357 1.325532 -0.125337
v 4.760921 1.881357 0.61312
v 4.148865 2.148829 0.986567
v 3.967085 2.280648 -0.537643
v 4.187258 2.590221 -0.135844
v 4.474625 2.465214 -0.75189
v 4.411541 2.663824 0.713132
v 5.511556 0.863525 0.177613
v 5.836005 0.945722 0.0010920000000000183
v 4.872539 2.159259 -0.542891
v 5.075994 1.900999 0.443793
v 5.075994 1.900999 -0.443793
v 1.660355 0.019397 1.246002
v -3.424258 0.158638 -0.918279
v -1.576196 -1.696317 0.358146
v 1.737623 -2.485017 0.918334
v 0.021051 -0.831931 1.511548
v -0.536767 -0.14445399999999997 -1.682232
v -1.395501 -0.698702 1.553257
v -3.716312 1.021474 0.057693
v 2.893096 -1.302168 0.332049
v 1.975941 0.827957 1.018423
v -3.569993 -0.731989 -0.649435
v 0.93066 -1.216516 -0.831196
v 3.528445 1.060127 0.489443
v -3.623861 0.911561 0.0
v -2.276341 -0.689823 1.268026
v 3.737014 0.181837 0.176819
v -1.996117 1.387891 1.064104
v 1.462507 1.745481 0.222394
v 0.289039 1.496446 -0.430055
v 2.108912 -0.357128 -1.259691
v 1.428883 -0.98669 1.133905
v -3.240554 -2.555467 -0.856262
v -1.802864 -0.282523 -1.401315
v -3.139394 -1.687482 -0.638546
v -2.930312 1.10358 -1.125876
v -3.529709 -0.065998 0.437217
v -0.626493 1.585426 0.443136
v -1.292756 1.656509 -0.51403
v 4.068249 0.798926 -0.400813
v -2.508885 -1.719933 0.721675
v 1.933899 -3.546253 -0.912438
v -3.327526 -2.075729 1.005328
v -0.953236 -1.545941 0.89918
v 4.036947 1.992167 -1.072561
v -3.742608 -0.729374 -0.149361
v 4.739441 2.299169 -0.369987
v -1.776785 -1.275107 0.914703
v -2.591357 -1.510845 -0.88547
v 2.649413 0.03153500000000001 1.024796
v 2.688131 -0.517509 -0.672975
v 3.009101 1.971604 -0.03422
v 2.347317 1.066114 -0.758763
v 2.910769 -0.638444 0.431191
v -3.734989 1.589433 0.295202
v 1.643403 -2.076583 0.689565
v -3.519086 1.70322 -0.066709
v -2.126375 -1.866497 -0.502895
v 4.354411 2.102985 0.80258
v -3.087335 -3.350463 0.831656
v 1.974215 -1.469208 1.068951
v -4.018866 -1.413191 0.154149
v 1.718315 -2.775468 -0.921796
v 4.104292 2.537976 -0.543437
v 4.79841 1.473149 0.570618
v 2.254361 -3.550931 1.235118
v 4.148883 1.759918 0.573765
v -2.649491 -3.404362 -1.100352
v 1.54175 -1.643613 -1.01419
v 2.229345 -0.992723 0.862826
v -3.053267 -2.764905 1.043008
v 1.960643 -2.71286 0.90089
v 2.111557 -1.376942 -0.89657
v 2.201939 -3.226457 -0.996503
v -3.141072 -2.785287 -1.032318
v 4.366867 1.131136 0.630581
v 5.247762 0.848549 -0.10854599999999998
v 4.430999 1.535753 -0.638888
v 5.672385 1.007694 -0.341778
v 3.967085 2.280648 0.537643
v 5.979357 1.325532 0.125337
v 4.061989 2.231988 1.178382
v 4.74405 2.179337 0.556057
v 4.43261 1.878873 -0.577888
v 4.35668 2.682996 -0.71905
v 4.084506 2.570978 0.218168
v 4.352603 2.524888 0.890532
v 4.656565 2.680542 -0.799684
v 4.369751 2.298204 -0.921894
v 5.06084 2.053335 0.309324
v 4.462368 2.725999 0.882675
v 5.580727 0.99933 0.34986700000000004
v 4.04473 2.254459 -0.744209
v 5.105589 1.864086 -0.347113
v 5.851404 0.929008 0.10536200000000003
v 4.852578 1.889721 0.605031
v 4.852578 1.889721 -0.605031
v 0.44655 -1.67295 0.0
v -3.306875 0.379713 0.98762
v -3.122061 -0.998702 1.065015
v -3.387254 -1.486027 -0.672861
v -3.695452 -0.193624 -0.101369
v 0.546875 -0.39094 -1.363244
v 1.570685 0.938327 -0.989108
v 0.539252 0.353984 1.254493
v -0.543078 -1.810473 0.563825
v 3.342159 -0.384674 0.201349
v 0.93066 -1.216516 0.831196
v -2.276341 -0.689823 -1.268026
v -3.112555 0.457376 -1.084816
v 2.616001 0.447717 0.960748
v 3.280681 0.510802 -0.499434
v -3.977657 -1.750845 -0.184909
v -2.703112 1.825435 -0.395127
v -2.070413 0.207766 1.335106
v 2.396355 1.242239 0.597722
v 0.223642 1.684075 0.160743
v -3.283698 -0.730967 -0.793898
v 5.233176 1.442459 -0.362988
v 4.99671 0.81056 -0.280771
v -1.552899 1.128654 1.15104
v -1.552899 1.128654 -1.15104
v -3.27808 1.432418 0.853958
v -0.626493 1.585426 -0.443136
v -3.082741 -3.598298 -1.054556
v -3.583763 -0.052271 0.0
v -0.953236 -1.545941 -0.89918
v -1.215563 1.757097 0.133494
v 1.328862 -1.352627 -0.758733
v 4.041657 1.039756 0.496922
v -1.776785 -1.275107 -0.914703
v 4.359048 0.700414 -0.166651
v 2.663024 -1.440487 -0.478149
v -3.335942 -1.365685 0.72459
v -1.552229 -1.555077 0.735708
v 2.13239 1.755821 -0.180271
v -2.734184 -1.717948 0.749581
v -2.508885 -1.719933 -0.721675
v 3.036361 1.913989 0.169838
v -3.519716 1.685231 -0.31713
v 2.690576 -0.368057 -0.819343
v -3.32033 -2.827513 -1.063914
v -3.008412 -2.89976 0.904635
v 4.342998 2.664049 -0.904347
v 1.90637 -2.282284 0.964887
v 2.743995 -0.129852 0.718277
v 1.857471 -2.950722 0.669988
v 2.059222 -3.230076 -0.674936
v -3.896204 -0.629183 0.077883
v 1.771416 -2.769024 0.9461
v 5.072165 2.04363 -0.209228
v 1.645819 -1.087442 1.173773
v 1.991892 -1.7484 0.65277
v 2.514167 -1.077721 0.706614
v -1.933565 -1.993029 -0.438902
v 1.880971 -2.733242 -0.8902
v 4.74325 1.05921 0.563421
v 4.312225 1.683392 -0.639944
v 3.945464 2.1301 -0.689536
v -3.120761 -2.15777 0.766432
v -3.120761 -2.15777 -0.766432
v 5.218821 1.803552 0.199306
v 1.805207 -1.268427 -1.165317
v 2.0796 -1.473377 -0.654997
v -2.944625 -3.282121 0.817054
v 5.800778 1.078596 -0.31945
v -2.856957 -3.449728 -1.356844
v 4.22473 2.624525 -0.491916
v 4.449011 1.260929 -0.647431
v 3.727093 2.308406 0.150049
v 4.235494 2.636171 0.803613
v 4.43261 1.878873 0.577888
v -2.147113 -1.903198 0.362462
v -3.042899 -3.193907 1.207296
v 2.110033 -3.148257 -1.068816
v -2.884711 -3.063896 -0.993766
v 5.763952 1.062109 0.338641
v 1.970051 -3.141862 1.065178
v 5.842092 1.427708 -0.130724
v 4.199317 2.304652 1.17454
v 4.32063 2.385528 0.682583
v 4.154566 2.19048 -1.129552
v 5.685194 1.452202 0.188749
v 4.209941 2.600612 0.337597
v 4.369751 2.298204 0.921894
v -3.821694 1.477989 -0.107631
v 4.752337 1.723388 0.591296
v 4.146067 2.278102 0.707372
v 5.934596 1.054796 0.07703900000000004
v 4.212974 2.303184 -0.587113
v 5.47963 1.11131 0.364188
v 5.47963 1.11131 -0.364188
v 5.449164 0.847535 -0.10390899999999999
v -3.817381 0.150348 -0.048728
v 4.748031 2.683805 -0.800044
v 4.674691 2.598833 0.808006
v 4.935561 2.016016 0.5857
v 4.788476 2.028047 -0.608619
v 4.982364 1.8733 0.53619
v 4.982364 1.8733 -0.53619
v 0.021051 -0.831931 -1.511548
v -1.407658 -1.236026 -1.11293
v -0.11519 0.458427 -1.346197
v -2.649338 -0.24171899999999996 1.339644
v -1.395728 -1.723811 0.0
v 0.546875 -0.39094 1.363244
v -0.533528 -0.58228 1.701405
v -0.535144 -1.615983 -0.920556
v 2.857666 -0.930625 0.391195
v -3.673607 -0.720796 0.0
v 1.289448 -1.546597 0.0
v 1.504951 1.483493 0.585976
v -3.672559 0.166625 0.048678
v 1.462507 1.745481 -0.222394
v -2.033406 -0.91003 0.96422
v 4.712067 0.770512 0.333393
v -3.675638 1.471512 -0.062201
v 2.399389 0.782091 -0.915279
v -2.070413 0.207766 -1.335106
v 3.199571 -0.15373900000000004 -0.38015
v -2.137524 1.753182 -0.433142
v -3.82037 -1.239135 -0.269807
v -4.070739 -0.947648 0.110554
v -0.221516 1.686349 0.151403
v -2.298249 0.768333 1.203884
v 2.495354 0.250522 1.132081
v -1.454529 0.875045 -1.238858
v -3.520188 0.140164 -0.618561
v -2.90708 -0.345582 -1.281557
v -3.169489 -2.110039 -1.076796
v -1.017767 1.607824 0.541965
v 3.886058 1.550141 -0.50483
v 3.758215 2.206683 0.323051
v 2.948387 0.783357 0.515058
v -3.15021 -1.259588 -1.001021
v -3.556552 0.704883 0.28063
v 3.06109 0.397226 -0.574193
v -3.709741 1.351194 0.211745
v -3.355398 -0.969157 0.766213
v -3.655148 1.190938 -0.573692
v 0.97453 -0.525273 -1.140353
v 2.60743 -0.208248 -0.974218
v -2.119856 -1.1288 -0.97096
v -1.407658 -1.236026 1.11293
v -3.184812 -2.768053 0.850127
v -2.64722 -1.84401 0.594347
v 5.241466 1.040469 -0.383965
v -1.74779 -1.667608 0.60634
v 4.175444 1.350332 0.613988
v 2.339597 1.807702 0.0
v -1.376186 -1.661988 -0.718954
v -3.314868 -1.599081 0.439626
v -0.422877 -1.7512 0.823423
v 3.955635 0.432417 0.197586
v -3.077669 1.871112 -0.217368
v 1.596751 -1.722028 -0.684655
v 2.534227 -1.617078 0.0
v 1.612396 -1.485728 -1.099731
v 3.058366 1.773346 0.297337
v 4.561299 2.133066 0.547248
v -3.26181 -2.821069 1.088218
v -3.211005 -1.850398 -0.700723
v 3.922437 1.972461 -0.483563
v 1.650318 -1.645881 1.053347
v -4.075028 -1.904403 -0.041324
v 2.486533 -1.274971 -0.627822
v 1.92973 -3.298418 0.689538
v 1.92973 -3.298418 -0.689538
v 4.079812 2.571649 -0.0009510000000000005
v 2.013095 -2.051912 -0.911043
v 2.736198 -0.346225 0.659345
v 1.981186 -3.441282 1.180532
v 2.024692 -1.074646 1.172465
v 2.0796 -1.473377 0.654997
v -3.519086 1.70322 0.066709
v -0.866132 1.75467 6.938893903907228e-18
v 4.017509 1.996169 0.731654
v 2.222082 -0.957342 -1.014137
v 5.421809 1.685349 -0.123555
v -3.047974 -2.109628 1.063497
v -2.888628 -3.200302 -1.210934
v 5.250485 1.123029 0.385234
v 4.154566 2.19048 1.129552
v 4.245225 2.008532 0.772641
v 4.245225 2.008532 -0.772641
v 4.477781 1.687858 0.597407
v 4.143794 2.01372 -1.201386
v -2.147113 -1.903198 -0.362462
v 5.103427 1.624404 0.434275
v 4.554459 2.511417 -0.850571
v 1.994078 -2.713047 -0.824553
v 1.756349 -2.446399 0.705428
v 4.452383 2.524558 0.130255
v 4.74405 2.179337 -0.556057
v -2.770335 -3.208138 1.031045
v 2.217369 -3.156093 -0.888927
v -3.330406 -3.18519 -0.950058
v -3.144012 -2.333635 -0.829994
v 4.102304 2.29996 1.025862
v 4.155551 2.388662 -1.09196
v 4.104292 2.537976 0.543437
v 5.77341 1.225861 -0.323025
v 5.783731 1.341471 0.28459
v 5.137075 0.824518 -0.144842
v -3.851206 1.007586 0.099831
v 1.911792 -2.895773 0.950117
v 4.212974 2.303184 0.587113
v 5.598282 1.094735 0.38699400000000006
v 4.07851 2.41181 -0.472193
v 5.961686 1.110978 -0.090324
v -3.805575 -0.190109 -0.101447
v 5.60337 0.852748 0.16233500000000003
v 5.580727 0.99933 -0.349867
v 4.418954 2.707401 -0.782531
v 4.47609 2.606654 0.692301
v 5.030289 1.827419 -0.440803
v 4.656565 2.680542 0.799684
v 4.674691 2.598833 -0.808006
v 4.852582 1.816115 0.603105
v 4.697607 1.768061 -0.576663
v 4.953739 1.95258 -0.592256
v 5.020077 1.97817 0.480978
v -0.910602 1.204118 0.83774
v 1.920432 -1.567396 0.0
v 1.210555 -1.460061 -0.576841
v -2.870422 -3.601724 0.843123
v -2.941731 -1.787431 0.442574
v -0.533528 -0.58228 -1.701405
v 0.539252 0.353984 -1.254493
v -0.09413500000000002 -1.769086 -0.556924
v -4.042715 -0.87671 -0.168968
v -1.996117 1.387891 -1.064104
v 2.327021 -3.352317 0.958234
v 1.958254 1.130271 0.861813
v -0.04157 -1.143825 1.395176
v 0.289039 1.496446 0.430055
v -1.802864 -0.282523 1.401315
v -3.339489 -2.328145 -0.827572
v -3.415655 -0.308965 0.671045
v 3.43895 -0.08257999999999999 0.257015
v 2.50049 -0.035029000000000005 1.170179
v 2.50049 -0.035029000000000005 -1.170179
v -3.077669 1.871112 0.217368
v -2.572286 0.835495 1.252192
v -1.454529 0.875045 1.238858
v -2.446375 -1.893261 -0.49411
v -1.837859 -0.540871 -1.295851
v -0.247999 1.565146 -0.389142
v 1.821946 1.618209 -0.403751
v 1.991892 -1.7484 -0.65277
v -3.522115 -1.366623 0.0
v -3.044646 0.224321 -1.164934
v -3.55012 -0.984868 -0.675228
v -3.422698 -2.070796 0.773898
v -3.544507 0.467147 0.0
v 3.47341 1.366149 0.454658
v -2.566746 -1.211312 -1.167101
v 5.011084 1.06677 -0.458562
v -3.655148 1.190938 0.573692
v -1.04607 1.509097 -0.76106
v 0.97453 -0.525273 1.140353
v -3.734989 1.589433 -0.295202
v 1.454817 -1.430228 -0.976569
v 1.19204 -1.330605 0.678707
v 1.926176 -3.28888 -1.093746
v -3.112555 0.457376 1.084816
v 2.13239 1.755821 0.180271
v 5.011084 1.06677 0.4585620000000001
v -2.337617 -1.334842 0.966761
v 1.337875 -0.945716 -1.021299
v 1.921881 -2.157616 -0.692678
v -3.36599 -1.48517 -0.888076
v 2.898733 0.271916 0.651298
v -3.890388 -1.750102 0.017611999999999996
v -1.777628 -1.473076 -0.845827
v -1.764045 -1.764987 0.406586
v -3.36599 -1.48517 0.888076
v 2.440236 -3.509564 -1.019417
v 3.955635 0.432417 -0.197586
v -1.266738 -1.691944 -0.557922
v 2.743995 -0.129852 -0.718277
v 4.389484 2.190421 -0.47332
v 2.406969 1.645328 -0.341479
v 5.04969 2.032731 7.100000000000162e-05
v 1.838895 -1.087204 -1.201408
v -3.843256 -0.981402 0.116282
v -1.091175 -1.70712 0.727242
v -3.030627 -3.493327 1.32265
v 4.416475 0.921264 0.458839
v 4.416475 0.921264 -0.458839
v -4.387148 -1.967814 0.045602
v 2.931756 -1.129655 0.0
v 2.61797 -1.235597 -0.520238
v 3.98291 1.987391 -0.639809
v 1.720031 -2.105568 0.971354
v 2.690576 -0.368057 0.819343
v 1.805207 -1.268427 1.165317
v -3.022819 -2.52224 0.979148
v 4.059885 1.86046 0.470087
v 1.921881 -2.157616 0.692678
v -2.641567 -2.003164 0.575611
v 2.486533 -1.274971 0.627822
v 4.560751 1.785154 0.562428
v 2.222082 -0.957342 1.014137
v 2.637655 -0.768176 -0.637039
v 3.727093 2.308406 -0.150049
v -2.106039 -2.019111 0.510759
v 2.141273 -1.234642 -0.941254
v 5.133171 1.715563 -0.334258
v -1.365948 1.769608 0.133901
v 3.036361 1.913989 -0.169838
v 5.647186 1.394606 0.257833
v 2.059222 -3.230076 0.674936
v -2.787341 -3.278502 -1.138621
v 4.084506 2.570978 -0.218168
v 4.560751 1.785154 -0.562428
v -2.892438 -1.95081 0.87812
v -2.892438 -1.95081 -0.87812
v -3.333954 -3.058673 0.974748
v 1.705953 -3.006628 0.83263
v 5.471928 1.345179 -0.313899
v 1.529305 -2.092083 -0.887353
v 4.303615 1.799914 0.610388
v 4.303615 1.799914 -0.610388
v 4.339601 2.592642 -0.258891
v -3.223246 -3.225388 -0.976573
v 5.213434 0.856784 0.0005650000000000273
v 1.741854 -3.114181 -0.700705
v 5.837875 1.141493 0.305184
v 1.926176 -3.28888 1.093746
v 2.021366 -2.881725 -0.945561
v -2.946527 -2.939327 0.986343
v 2.057496 -2.887282 0.844225
v 4.079122 2.264104 0.84501
v 4.079122 2.264104 -0.84501
v 4.837331 2.235678 -0.479332
v 5.598282 1.094735 -0.386994
v 4.169404 2.306276 1.284031
v 4.169404 2.306276 -1.284031
v -3.716312 1.021474 -0.057693
v -2.062725 -1.884246 -0.307336
v 5.470775 1.009574 0.355371
v 4.825996 2.089176 0.576083
v 4.07851 2.41181 0.472193
v 4.3427 2.112281 0.516692
v 4.289048 2.172969 0.858693
v 4.289048 2.172969 -0.858693
v 4.444739 2.475795 0.860515
v -3.765736 0.50707 0.106281
v 5.60337 0.852748 -0.16233499999999998
v -3.022819 -2.52224 -0.979148
v 4.748031 2.683805 0.800044
v 5.755282 1.004149 -0.307505
v 5.835498 1.43628 0.0009459999999999955
v 5.030289 1.827419 0.440803
v 4.138687 2.474013 -0.642311
v 4.423033 2.561337 0.603562
v 5.923808 1.025283 0.15308400000000003
v 4.520603 2.639162 -0.745542
v 4.755192 2.568818 0.876311
v 4.755192 2.568818 -0.876311
v 4.821325 2.691794 -0.791887
v -3.469715 1.961504 -0.071141
v 4.908019 1.796041 -0.587882
v 5.020077 1.97817 -0.480978
v 4.861611 2.001639 -0.621913
v 4.926194 1.859813 0.582137
v -3.695565 -0.19362 0.051497
f 1012 3 601
f 3 4 601
f 4 873 601
f 3 1000 4
f 6 346 484
f 1012 7 3
f 484 442 6
f 6 442 346
f 850 982 11
f 15 815 937
f 15 13 815
f 987 12 16
f 12 13 16
f 15 17 13
f 17 15 937
f 17 937 13
f 850 11 591
f 11 982 591
f 591 982 522
f 1048 19 364
f 424 364 19
f 23 22 733
f 22 21 733
f 25 26 27
f 27 29 25
f 27 26 29
f 447 972 576
f 875 649 31
f 1035 30 32
f 30 1038 32
f 32 1038 33
f 755 903 1038
f 755 31 903
f 33 1035 32
f 649 985 31
f 34 656 328
f 656 34 35
f 429 35 36
f 40 837 39
f 37 36 40
f 38 41 39
f 837 582 39
f 582 42 39
f 39 42 1058
f 869 37 768
f 768 945 905
f 945 41 640
f 945 39 41
f 37 40 768
f 46 45 48
f 1029 46 48
f 1029 48 45
f 45 43 670
f 877 52 47
f 46 47 52
f 46 52 45
f 45 52 43
f 526 51 381
f 526 381 877
f 44 43 52
f 487 1038 681
f 50 45 33
f 33 45 1035
f 898 50 33
f 45 50 978
f 50 898 43
f 1029 53 863
f 53 957 863
f 877 957 53
f 43 44 50
f 602 51 54
f 865 770 51
f 1015 54 885
f 352 61 647
f 56 59 1013
f 63 990 371
f 844 64 574
f 65 844 525
f 58 59 55
f 371 439 583
f 439 1018 583
f 560 411 986
f 59 56 55
f 1 658 2
f 67 574 64
f 66 67 844
f 67 64 844
f 844 65 66
f 66 65 988
f 825 67 563
f 658 1 337
f 68 337 1
f 68 1 461
f 337 68 461
f 422 563 638
f 518 357 956
f 397 70 460
f 349 731 955
f 808 496 935
f 403 73 378
f 935 378 73
f 74 75 461
f 357 76 956
f 75 848 461
f 423 74 461
f 75 74 423
f 566 736 498
f 75 977 848
f 711 460 76
f 821 76 69
f 810 936 72
f 710 72 936
f 403 624 73
f 78 77 575
f 456 433 646
f 466 935 734
f 78 80 77
f 562 79 81
f 562 826 79
f 826 81 79
f 82 716 8
f 81 465 562
f 826 465 81
f 716 82 964
f 326 83 721
f 552 747 643
f 847 86 969
f 717 23 506
f 835 620 21
f 620 358 21
f 21 358 725
f 85 643 717
f 643 85 552
f 83 326 84
f 862 83 84
f 82 850 964
f 1029 45 53
f 978 53 45
f 37 429 36
f 37 979 429
f 1025 34 328
f 87 89 90
f 92 93 774
f 774 93 888
f 93 94 888
f 90 904 87
f 90 89 904
f 1033 89 96
f 94 96 530
f 96 94 93
f 89 87 88
f 97 92 675
f 904 599 521
f 783 1033 98
f 1021 783 98
f 675 1021 98
f 561 98 1033
f 675 98 561
f 97 675 732
f 93 92 732
f 732 92 97
f 41 38 749
f 682 749 38
f 749 95 41
f 640 41 95
f 95 521 640
f 22 23 21
f 467 969 86
f 847 467 86
f 105 100 99
f 99 793 105
f 793 824 1047
f 1070 106 664
f 1047 107 100
f 106 108 664
f 108 324 664
f 104 862 1070
f 862 84 1070
f 591 424 109
f 424 762 109
f 109 110 895
f 1048 110 19
f 745 953 112
f 953 111 112
f 328 112 527
f 112 113 527
f 953 527 111
f 527 113 111
f 762 110 114
f 762 115 109
f 114 115 762
f 111 113 116
f 113 117 116
f 112 117 113
f 118 117 112
f 111 116 112
f 116 118 112
f 110 109 115
f 114 110 115
f 116 117 118
f 120 121 928
f 807 123 495
f 120 928 124
f 124 1072 120
f 122 805 1073
f 125 1072 124
f 122 704 927
f 127 125 1043
f 127 618 125
f 1016 391 123
f 1071 123 391
f 1023 805 122
f 129 130 450
f 991 353 758
f 130 129 131
f 450 130 131
f 886 332 726
f 133 332 481
f 132 1061 481
f 133 529 134
f 136 529 607
f 138 373 139
f 138 917 373
f 606 134 529
f 136 139 529
f 607 139 136
f 140 416 141
f 854 416 140
f 140 141 854
f 131 965 727
f 142 131 143
f 143 131 564
f 997 564 739
f 143 776 142
f 514 352 776
f 128 127 654
f 148 147 1032
f 1032 146 148
f 148 146 147
f 921 1066 150
f 146 128 427
f 152 151 1069
f 146 427 491
f 146 491 374
f 149 543 612
f 491 454 543
f 897 154 490
f 1068 152 925
f 1068 156 152
f 155 751 612
f 452 916 157
f 595 156 154
f 156 151 152
f 157 388 452
f 388 876 1022
f 155 921 751
f 921 150 396
f 156 595 802
f 156 802 151
f 916 158 1013
f 388 157 916
f 158 610 437
f 160 492 159
f 797 159 492
f 161 538 162
f 367 700 538
f 161 162 163
f 163 164 161
f 367 538 652
f 516 454 989
f 163 166 164
f 163 162 166
f 159 797 160
f 603 907 696
f 167 1046 907
f 587 168 1054
f 603 696 169
f 169 1054 472
f 472 1054 367
f 894 789 169
f 161 170 789
f 170 1046 789
f 1046 170 166
f 171 166 170
f 165 1031 144
f 587 367 168
f 1054 168 367
f 607 917 139
f 917 138 139
f 134 606 133
f 142 776 131
f 164 166 161
f 161 166 171
f 171 170 161
f 330 165 144
f 839 330 765
f 330 144 765
f 514 61 352
f 61 514 647
f 158 437 1013
f 1035 45 670
f 987 16 13
f 324 1070 84
f 108 1070 324
f 328 642 1025
f 596 1009 761
f 176 175 174
f 174 175 579
f 175 627 579
f 174 627 176
f 596 505 174
f 816 346 661
f 878 178 535
f 181 182 994
f 182 405 994
f 565 742 181
f 621 181 742
f 183 476 580
f 665 440 335
f 1048 364 780
f 184 377 474
f 377 185 946
f 846 377 184
f 474 846 184
f 188 189 186
f 191 187 532
f 188 186 192
f 188 192 189
f 785 189 193
f 193 189 192
f 194 879 193
f 194 193 874
f 195 194 874
f 785 913 189
f 913 186 189
f 754 1040 191
f 197 1040 754
f 1020 191 532
f 196 874 532
f 195 874 196
f 194 195 673
f 195 196 673
f 347 198 406
f 199 198 347
f 198 199 887
f 201 203 202
f 204 1024 887
f 201 205 204
f 201 1005 205
f 200 1024 767
f 767 961 200
f 961 767 585
f 205 585 767
f 205 206 585
f 585 201 650
f 984 200 199
f 212 1002 211
f 213 622 210
f 211 214 212
f 214 211 359
f 213 210 663
f 215 663 214
f 215 214 359
f 207 752 208
f 622 757 208
f 679 208 757
f 590 211 1002
f 208 752 622
f 590 209 211
f 1027 213 197
f 359 663 215
f 679 197 899
f 899 208 679
f 881 760 359
f 663 359 1007
f 359 760 1007
f 899 207 208
f 216 531 1004
f 485 668 209
f 359 871 471
f 631 523 218
f 361 524 586
f 661 346 714
f 746 408 217
f 947 479 714
f 634 861 441
f 178 1003 219
f 753 980 657
f 219 948 178
f 535 386 220
f 597 535 220
f 597 220 386
f 221 386 833
f 723 974 222
f 831 645 224
f 360 225 550
f 942 226 345
f 226 625 851
f 597 968 228
f 819 223 941
f 229 221 223
f 221 628 223
f 221 229 619
f 386 968 597
f 597 228 759
f 931 881 359
f 759 228 968
f 223 619 229
f 223 819 333
f 503 819 636
f 224 550 399
f 813 942 558
f 942 507 558
f 558 507 426
f 227 569 930
f 226 651 345
f 627 175 176
f 625 344 944
f 625 944 851
f 77 231 1017
f 227 735 363
f 227 432 327
f 77 80 231
f 231 80 735
f 635 233 504
f 504 832 232
f 504 232 722
f 232 832 722
f 551 350 457
f 973 234 428
f 706 235 234
f 234 235 428
f 706 644 235
f 235 946 428
f 555 457 404
f 663 1007 213
f 406 455 347
f 347 984 199
f 1005 206 205
f 237 238 236
f 239 240 242
f 237 236 243
f 237 243 238
f 781 238 244
f 244 238 243
f 245 239 244
f 995 239 245
f 933 245 667
f 1026 868 246
f 781 508 238
f 508 236 238
f 247 240 241
f 242 240 247
f 243 246 600
f 600 772 243
f 902 772 600
f 245 933 247
f 995 245 241
f 242 508 781
f 247 241 245
f 203 868 202
f 868 203 246
f 246 203 206
f 246 206 852
f 248 249 250
f 250 249 251
f 251 249 252
f 252 253 254
f 252 981 255
f 248 256 249
f 249 256 252
f 993 257 252
f 252 257 253
f 257 254 253
f 993 259 468
f 468 258 509
f 830 938 259
f 259 261 468
f 468 261 262
f 468 262 258
f 259 262 261
f 262 872 998
f 264 265 100
f 100 265 99
f 102 101 103
f 103 266 104
f 101 267 103
f 103 267 266
f 268 264 263
f 820 264 1075
f 264 820 1056
f 1056 626 912
f 912 626 101
f 626 269 101
f 101 269 267
f 882 270 266
f 626 1047 269
f 1047 664 269
f 269 664 882
f 102 24 267
f 270 882 108
f 267 24 108
f 107 1075 271
f 271 100 107
f 1075 709 271
f 709 918 271
f 263 801 271
f 271 801 100
f 263 756 248
f 268 263 248
f 263 260 756
f 1075 248 653
f 248 251 252
f 829 938 252
f 653 248 252
f 720 262 829
f 829 252 255
f 829 255 981
f 266 950 104
f 266 578 950
f 476 272 983
f 476 183 272
f 780 983 273
f 983 272 273
f 440 853 274
f 440 275 335
f 275 1008 335
f 274 275 440
f 272 276 273
f 273 276 1014
f 1014 277 272
f 277 276 272
f 274 278 275
f 275 278 1008
f 278 279 1008
f 1008 279 274
f 279 280 274
f 280 278 274
f 277 1014 276
f 280 279 278
f 281 282 283
f 806 1074 284
f 804 283 285
f 285 283 286
f 283 929 286
f 929 285 286
f 794 417 1010
f 991 528 372
f 867 128 394
f 592 672 288
f 991 372 481
f 370 592 288
f 672 370 288
f 541 412 289
f 132 541 790
f 790 1061 132
f 291 688 910
f 1036 292 420
f 291 910 420
f 420 910 1036
f 688 291 420
f 395 1049 293
f 293 1049 889
f 293 889 395
f 796 547 702
f 547 419 702
f 1057 615 419
f 502 341 448
f 502 448 889
f 589 823 996
f 737 683 218
f 331 544 1064
f 295 296 922
f 298 297 1059
f 297 298 299
f 300 449 922
f 1055 922 296
f 1067 803 299
f 299 803 297
f 302 296 301
f 302 1055 296
f 299 303 1067
f 304 301 303
f 301 304 302
f 694 305 788
f 788 305 339
f 694 778 305
f 1051 908 306
f 483 1051 306
f 307 1051 483
f 303 308 304
f 304 924 698
f 613 536 295
f 908 294 544
f 483 501 307
f 483 306 908
f 305 778 294
f 308 1059 304
f 308 303 1059
f 1059 303 298
f 299 298 303
f 302 304 698
f 501 1051 307
f 840 309 687
f 310 311 795
f 795 311 914
f 310 1041 540
f 313 314 312
f 906 418 315
f 313 689 317
f 316 317 689
f 316 906 315
f 309 840 318
f 309 318 687
f 316 315 604
f 1006 316 884
f 390 914 486
f 310 914 311
f 792 540 319
f 320 319 540
f 792 319 320
f 666 1053 321
f 609 445 1053
f 316 1053 445
f 317 890 322
f 890 1045 322
f 1045 314 322
f 322 314 323
f 1006 674 779
f 666 321 316
f 316 321 1053
f 608 1050 794
f 323 314 313
f 313 317 322
f 313 322 323
f 674 1006 586
f 361 586 318
f 181 405 182
f 251 248 250
f 324 266 108
f 744 1024 515
f 200 362 1024
f 266 270 108
f 106 1070 108
f 843 632 966
f 510 404 706
f 937 13 325
f 705 507 426
f 939 721 326
f 939 326 562
f 360 225 952
f 500 569 930
f 850 18 745
f 850 745 10
f 525 719 329
f 714 560 947
f 520 839 330
f 56 330 1013
f 867 394 331
f 779 1052 666
f 129 726 1028
f 799 606 1044
f 503 819 333
f 943 399 224
f 863 931 400
f 863 400 932
f 387 665 335
f 409 474 817
f 954 8 716
f 826 398 465
f 949 658 337
f 949 337 638
f 722 951 338
f 811 973 428
f 777 501 1051
f 777 1051 840
f 963 586 631
f 723 941 222
f 1034 448 341
f 141 727 854
f 1023 805 342
f 1031 691 516
f 769 541 343
f 1062 896 284
f 952 462 344
f 728 504 635
f 405 994 713
f 405 713 937
f 435 740 864
f 931 505 881
f 846 707 573
f 846 573 984
f 979 429 842
f 436 958 859
f 70 637 349
f 810 499 624
f 578 950 350
f 467 966 632
f 410 177 980
f 464 833 221
f 57 647 352
f 57 839 583
f 701 758 353
f 1016 886 726
f 900 145 354
f 544 483 908
f 797 516 355
f 797 355 160
f 290 546 915
f 290 915 547
f 638 422 553
f 638 553 848
f 964 716 512
f 429 512 842
f 400 971 359
f 400 359 931
f 500 550 360
f 500 360 952
f 584 524 361
f 478 840 777
f 335 934 515
f 335 515 853
f 80 735 363
f 551 432 457
f 812 424 364
f 983 364 780
f 999 572 365
f 999 627 816
f 349 810 366
f 349 366 967
f 1001 766 367
f 1001 367 165
f 340 554 368
f 841 368 588
f 722 338 369
f 944 633 822
f 287 672 370
f 446 683 856
f 57 583 371
f 719 371 574
f 617 697 372
f 617 769 343
f 773 139 373
f 416 453 545
f 147 146 374
f 775 692 155
f 289 412 375
f 910 546 290
f 808 72 710
f 459 630 334
f 571 458 377
f 817 377 474
f 466 935 809
f 9 954 8
f 639 968 379
f 971 715 334
f 350 457 730
f 350 730 578
f 771 863 957
f 680 602 54
f 731 349 967
f 575 646 78
f 442 346 383
f 525 827 329
f 743 518 956
f 974 570 222
f 822 944 385
f 519 655 180
f 178 948 386
f 178 386 535
f 527 665 387
f 20 436 958
f 1013 876 388
f 1013 388 916
f 60 414 589
f 861 523 441
f 1006 316 891
f 1006 891 779
f 126 1071 450
f 765 685 352
f 284 896 392
f 794 672 287
f 786 481 1061
f 786 607 529
f 146 128 394
f 415 394 331
f 614 1049 395
f 614 395 800
f 154 897 396
f 154 396 595
f 711 460 397
f 711 553 422
f 336 826 398
f 620 717 835
f 333 943 399
f 333 399 223
f 818 932 400
f 818 400 971
f 828 433 721
f 80 551 363
f 225 550 402
f 814 942 226
f 499 624 403
f 729 562 939
f 730 457 404
f 966 404 843
f 621 181 405
f 325 405 937
f 976 455 406
f 580 648 440
f 485 668 407
f 485 880 1011
f 469 217 408
f 990 439 371
f 470 817 409
f 348 958 20
f 841 351 410
f 631 441 523
f 57 371 411
f 57 411 647
f 896 392 412
f 343 412 541
f 927 685 413
f 1023 413 691
f 564 739 414
f 341 414 502
f 900 394 415
f 900 791 354
f 1044 799 416
f 920 416 453
f 1050 794 417
f 451 867 128
f 339 914 795
f 687 884 318
f 919 547 419
f 919 419 1057
f 1065 292 420
f 137 420 688
f 155 612 421
f 155 1063 775
f 825 563 422
f 825 422 357
f 865 770 423
f 970 423 736
f 13 987 424
f 13 424 812
f 223 619 425
f 712 813 402
f 334 705 426
f 334 426 715
f 654 128 427
f 654 427 491
f 185 946 428
f 185 428 707
f 656 35 429
f 964 429 512
f 503 333 943
f 460 637 70
f 23 962 431
f 23 431 506
f 363 227 432
f 363 432 551
f 78 646 433
f 78 433 828
f 655 742 434
f 385 434 944
f 5 740 435
f 771 931 863
f 387 20 436
f 387 436 859
f 330 1013 437
f 330 870 165
f 535 878 438
f 761 579 1009
f 408 990 439
f 408 439 1018
f 183 580 440
f 183 440 665
f 410 340 441
f 947 441 634
f 7 484 442
f 7 442 383
f 790 1061 443
f 1019 910 546
f 211 209 444
f 871 531 471
f 317 316 445
f 317 445 890
f 287 683 446
f 893 1030 779
f 29 26 447
f 29 447 30
f 395 889 448
f 395 448 1034
f 331 1064 449
f 1052 914 390
f 391 1071 450
f 391 450 129
f 285 690 451
f 285 451 929
f 147 611 452
f 775 452 671
f 373 917 453
f 373 453 1060
f 153 543 454
f 153 454 421
f 633 179 455
f 369 707 428
f 366 967 729
f 499 834 403
f 233 635 457
f 951 457 555
f 733 571 458
f 510 644 706
f 937 507 705
f 14 808 496
f 69 637 460
f 69 460 76
f 54 885 461
f 992 461 423
f 225 952 462
f 814 462 226
f 336 398 463
f 336 836 512
f 368 588 464
f 368 941 723
f 326 562 465
f 643 465 568
f 9 954 466
f 982 577 522
f 845 969 467
f 845 467 966
f 669 993 468
f 669 468 509
f 857 408 469
f 743 974 570
f 348 409 470
f 557 960 512
f 216 531 471
f 639 471 379
f 652 367 472
f 161 894 789
f 71 559 473
f 735 473 838
f 741 846 474
f 859 474 958
f 60 389 475
f 647 986 411
f 180 580 476
f 855 476 983
f 764 823 477
f 370 683 287
f 55 58 478
f 55 584 524
f 177 410 479
f 878 661 438
f 49 526 480
f 863 480 932
f 353 991 886
f 353 886 1016
f 129 1028 482
f 129 482 416
f 693 501 483
f 354 483 791
f 3 7 484
f 3 484 1000
f 173 677 485
f 881 485 209
f 310 914 486
f 310 792 540
f 26 598 487
f 26 487 447
f 375 412 488
f 546 798 915
f 331 867 489
f 331 489 542
f 149 897 490
f 1066 695 150
f 342 805 491
f 342 989 516
f 539 797 492
f 610 766 1001
f 453 917 493
f 453 493 1057
f 284 926 494
f 284 494 392
f 928 807 495
f 704 1071 126
f 815 14 496
f 734 496 935
f 378 403 641
f 809 954 466
f 848 977 498
f 710 498 556
f 366 810 499
f 366 499 834
f 224 550 500
f 224 500 930
f 876 693 501
f 876 501 777
f 764 823 502
f 764 502 975
f 69 724 503
f 69 503 636
f 344 952 504
f 344 504 230
f 864 174 505
f 864 505 931
f 85 552 506
f 85 506 717
f 345 942 507
f 713 507 937
f 202 868 678
f 1005 852 206
f 254 669 509
f 981 720 829
f 24 644 510
f 962 843 632
f 551 350 950
f 721 862 83
f 358 836 512
f 358 512 725
f 410 441 513
f 410 513 479
f 997 647 514
f 143 514 776
f 859 934 515
f 362 515 1024
f 165 367 892
f 165 892 1031
f 731 382 517
f 71 883 473
f 63 990 518
f 574 825 67
f 179 655 519
f 976 580 648
f 56 1018 520
f 56 520 330
f 1058 682 521
f 1058 521 640
f 424 577 522
f 424 522 591
f 389 861 523
f 389 523 996
f 217 866 524
f 217 963 631
f 7 827 525
f 849 988 66
f 1029 49 526
f 47 526 877
f 642 328 527
f 20 527 387
f 451 929 528
f 451 528 128
f 135 606 529
f 773 909 139
f 89 88 530
f 89 530 96
f 444 1004 531
f 444 531 871
f 785 187 532
f 940 532 196
f 903 31 985
f 28 576 782
f 5 601 534
f 5 771 435
f 1011 597 535
f 172 535 438
f 302 694 536
f 302 536 698
f 446 893 537
f 446 537 856
f 160 1042 907
f 160 907 696
f 421 454 539
f 671 916 452
f 787 320 540
f 689 906 316
f 481 769 541
f 481 541 132
f 449 331 542
f 788 542 339
f 374 147 543
f 374 543 491
f 415 900 544
f 415 544 331
f 141 416 545
f 1034 800 395
f 375 289 546
f 375 546 488
f 292 796 547
f 292 547 784
f 281 283 804
f 926 608 794
f 124 1073 549
f 124 616 125
f 712 399 550
f 712 550 402
f 401 80 551
f 401 551 950
f 632 467 847
f 431 847 506
f 397 711 553
f 397 553 376
f 217 469 554
f 217 554 340
f 338 951 555
f 338 973 811
f 459 630 556
f 459 556 14
f 348 960 557
f 348 557 708
f 379 813 558
f 715 558 426
f 637 349 955
f 943 831 224
f 329 411 560
f 329 560 383
f 732 1033 561
f 732 561 675
f 403 834 562
f 403 562 497
f 66 67 563
f 66 949 849
f 341 414 564
f 727 564 131
f 434 742 565
f 434 651 226
f 423 736 566
f 423 977 75
f 259 938 567
f 259 567 262
f 398 465 568
f 398 959 463
f 327 227 569
f 728 569 500
f 384 743 570
f 821 636 69
f 21 470 571
f 21 571 733
f 484 1000 572
f 484 572 999
f 347 707 573
f 347 573 984
f 63 371 574
f 63 574 825
f 517 382 575
f 883 735 473
f 533 649 576
f 533 576 28
f 466 982 577
f 466 858 12
f 324 266 578
f 324 662 969
f 438 761 579
f 438 816 661
f 519 976 580
f 519 580 180
f 450 131 581
f 450 581 927
f 1025 837 582
f 1025 768 869
f 520 1018 583
f 520 583 839
f 478 840 584
f 478 584 55
f 203 206 585
f 203 585 201
f 218 631 586
f 218 586 537
f 516 355 587
f 516 587 1031
f 351 841 588
f 980 718 657
f 389 60 589
f 389 589 996
f 207 209 590
f 207 590 752
f 18 850 591
f 953 665 527
f 412 392 592
f 412 889 488
f 192 193 593
f 1027 754 197
f 190 532 594
f 1037 879 193
f 150 396 595
f 150 595 695
f 173 761 596
f 881 596 505
f 1004 759 597
f 880 597 1011
f 25 26 598
f 898 1038 33
f 682 521 599
f 88 783 1021
f 508 242 600
f 750 600 246
f 1 2 601
f 1 601 534
f 381 51 602
f 957 602 771
f 167 907 603
f 789 603 169
f 418 687 604
f 418 604 315
f 417 1010 605
f 867 605 489
f 332 133 606
f 1028 606 482
f 393 786 607
f 393 607 917
f 548 1050 608
f 548 608 703
f 320 792 609
f 320 890 787
f 916 158 610
f 539 610 492
f 145 354 611
f 1032 611 147
f 153 543 612
f 153 612 421
f 294 778 613
f 1064 922 449
f 356 1049 614
f 356 919 547
f 493 917 615
f 493 615 1057
f 549 124 616
f 805 901 491
f 929 697 617
f 806 1062 284
f 1072 125 618
f 121 923 123
f 386 221 619
f 386 619 968
f 836 959 620
f 836 620 358
f 812 364 621
f 812 621 405
f 1027 213 622
f 1027 622 757
f 402 814 623
f 402 623 813
f 72 810 624
f 72 935 808
f 462 344 625
f 462 625 226
f 107 1056 626
f 107 626 1047
f 365 999 627
f 365 627 174
f 464 221 628
f 464 628 368
f 470 21 629
f 470 960 348
f 498 556 630
f 498 630 736
f 340 217 631
f 340 631 441
f 431 847 632
f 431 632 962
f 369 944 633
f 369 633 707
f 560 947 634
f 560 634 475
f 432 327 635
f 432 635 457
f 570 821 636
f 570 636 222
f 430 69 637
f 430 637 955
f 461 337 638
f 461 638 848
f 759 968 639
f 759 639 471
f 905 945 640
f 905 640 1058
f 497 403 641
f 497 641 336
f 708 37 642
f 20 642 527
f 326 465 643
f 326 643 84
f 458 733 644
f 946 644 235
f 473 831 645
f 473 645 838
f 382 575 646
f 967 646 456
f 60 986 647
f 739 647 997
f 406 976 648
f 406 744 198
f 447 576 649
f 447 649 875
f 199 887 650
f 199 650 200
f 565 434 651
f 994 651 345
f 161 538 652
f 161 652 472
f 938 252 653
f 938 709 918
f 1043 127 654
f 901 654 491
f 385 179 655
f 385 655 434
f 10 745 656
f 964 656 429
f 219 948 657
f 219 657 753
f 7 1012 658
f 7 748 988
f 55 56 1018
f 55 866 524
f 518 63 660
f 518 660 357
f 479 878 661
f 479 661 714
f 578 324 662
f 578 662 380
f 212 210 663
f 212 663 214
f 102 1070 664
f 824 664 1047
f 591 18 665
f 591 665 109
f 390 486 666
f 390 666 1052
f 244 243 667
f 244 667 245
f 444 407 668
f 444 668 209
f 257 993 669
f 257 669 254
f 25 1035 670
f 25 763 598
f 1063 916 671
f 1063 671 775
f 392 494 672
f 392 672 592
f 879 194 673
f 594 940 532
f 1030 779 674
f 537 674 586
f 91 92 675
f 91 675 1021
f 526 480 676
f 526 676 51
f 172 535 677
f 761 677 173
f 508 236 678
f 1039 750 600
f 913 186 679
f 1040 679 197
f 534 1 680
f 771 680 602
f 28 782 681
f 28 903 985
f 88 87 682
f 88 682 599
f 477 370 683
f 996 683 737
f 141 800 684
f 141 911 727
f 581 927 685
f 776 685 352
f 1060 453 686
f 135 1044 606
f 1051 840 687
f 339 687 795
f 393 443 688
f 393 688 137
f 312 906 689
f 312 689 313
f 417 1050 690
f 417 867 605
f 342 1023 691
f 342 691 516
f 543 775 692
f 543 692 149
f 354 876 693
f 354 693 483
f 1055 302 694
f 300 694 788
f 490 1066 925
f 490 925 154
f 355 160 696
f 1054 696 169
f 528 929 697
f 528 697 372
f 295 924 698
f 295 698 536
f 356 547 699
f 356 699 1049
f 492 610 700
f 492 1042 160
f 618 758 701
f 923 1016 123
f 615 796 702
f 615 702 419
f 281 548 703
f 1074 926 284
f 928 495 704
f 119 704 122
f 459 937 705
f 459 705 334
f 555 404 973
f 555 973 338
f 455 633 707
f 455 707 347
f 20 642 708
f 20 708 348
f 653 938 709
f 653 709 1075
f 376 936 710
f 848 710 498
f 357 76 711
f 357 711 422
f 223 399 712
f 223 712 425
f 860 507 713
f 860 713 994
f 383 346 714
f 383 714 560
f 379 558 715
f 379 715 971
f 336 954 716
f 336 716 512
f 568 643 717
f 568 959 398
f 588 464 718
f 588 718 351
f 411 371 719
f 411 719 329
f 872 262 720
f 872 720 981
f 401 828 721
f 401 721 862
f 230 504 722
f 230 722 369
f 554 368 723
f 554 723 469
f 430 69 724
f 430 724 831
f 629 21 725
f 960 725 512
f 391 1016 726
f 391 726 129
f 341 911 727
f 341 727 564
f 327 569 728
f 327 728 635
f 456 967 729
f 456 729 939
f 380 578 730
f 380 730 404
f 71 955 731
f 71 731 517
f 96 93 732
f 96 732 1033
f 24 23 733
f 24 733 644
f 12 466 734
f 12 734 13
f 575 883 735
f 575 1017 77
f 480 676 736
f 480 736 932
f 523 218 737
f 523 737 996
f 9 850 738
f 9 738 466
f 60 414 739
f 60 739 647
f 572 873 740
f 572 740 365
f 362 474 741
f 362 984 200
f 180 655 742
f 855 742 621
f 857 974 743
f 990 743 518
f 648 406 744
f 648 853 440
f 328 656 745
f 328 745 112
f 659 55 746
f 659 746 408
f 84 324 747
f 84 747 643
f 658 7 748
f 658 849 949
f 87 95 749
f 87 749 682
f 678 1039 750
f 678 852 1005
f 396 612 751
f 396 751 921
f 1002 590 752
f 210 752 622
f 177 980 753
f 1003 753 219
f 593 191 754
f 593 754 1027
f 30 1038 755
f 875 755 31
f 256 248 756
f 830 756 938
f 186 679 757
f 186 757 1027
f 127 991 758
f 127 758 618
f 216 1004 759
f 216 759 471
f 209 881 760
f 209 760 207
f 172 438 761
f 172 761 677
f 19 424 762
f 19 762 110
f 670 25 763
f 670 763 43
f 370 592 764
f 370 764 477
f 413 685 765
f 413 1031 691
f 700 610 766
f 700 766 367
f 204 205 767
f 204 767 1024
f 582 905 768
f 582 768 1025
f 372 617 769
f 372 769 481
f 54 51 770
f 54 992 461
f 534 5 771
f 534 771 680
f 667 243 772
f 667 772 902
f 135 909 773
f 135 1060 686
f 91 888 774
f 91 774 92
f 147 452 775
f 147 775 543
f 581 685 776
f 581 776 131
f 58 478 777
f 1013 777 876
f 536 694 778
f 536 778 613
f 605 1010 779
f 605 779 1052
f 183 665 780
f 1014 780 273
f 239 242 781
f 239 781 244
f 487 681 782
f 487 972 447
f 599 88 783
f 599 783 904
f 290 547 784
f 290 1036 910
f 190 532 785
f 1037 785 193
f 133 481 786
f 133 786 529
f 1045 540 787
f 1045 787 890
f 449 542 788
f 449 788 300
f 167 603 789
f 167 789 1046
f 289 541 790
f 1019 790 910
f 544 900 791
f 544 791 483
f 486 310 792
f 1053 792 609
f 101 99 793
f 101 793 102
f 494 926 794
f 494 794 672
f 418 687 795
f 1041 795 310
f 137 615 796
f 137 1065 420
f 454 539 797
f 454 797 516
f 488 546 798
f 488 1049 889
f 482 606 799
f 482 799 416
f 545 141 800
f 1057 800 919
f 264 263 801
f 264 801 100
f 695 595 802
f 925 1069 152
f 296 295 803
f 296 803 301
f 548 281 804
f 548 804 285
f 549 1073 805
f 549 805 901
f 282 281 806
f 282 806 1062
f 121 928 807
f 121 807 123
f 556 14 808
f 556 808 710
f 378 935 809
f 378 809 954
f 70 349 810
f 70 810 936
f 369 338 811
f 369 811 428
f 325 13 812
f 325 812 405
f 425 712 813
f 968 813 379
f 225 402 814
f 225 814 462
f 734 13 815
f 734 815 496
f 579 438 816
f 579 816 627
f 571 470 817
f 571 817 377
f 334 932 818
f 334 818 971
f 222 636 819
f 222 819 941
f 107 1075 820
f 107 820 1056
f 384 570 821
f 956 821 76
f 179 385 822
f 179 822 633
f 414 502 823
f 414 823 589
f 102 793 824
f 102 824 664
f 660 63 825
f 660 825 357
f 497 562 826
f 497 826 336
f 383 7 827
f 383 827 329
f 80 78 828
f 80 828 401
f 567 938 829
f 567 829 262
f 256 756 830
f 256 830 259
f 559 473 831
f 559 831 430
f 233 504 832
f 233 951 457
f 718 464 833
f 718 833 657
f 729 366 834
f 729 834 562
f 23 717 835
f 23 835 21
f 463 959 836
f 463 836 336
f 36 35 837
f 36 837 40
f 227 735 838
f 227 838 645
f 352 57 839
f 352 839 765
f 361 584 840
f 361 840 318
f 340 368 841
f 340 841 410
f 557 512 842
f 557 842 979
f 510 962 843
f 510 843 404
f 719 574 844
f 719 844 525
f 662 969 845
f 662 845 966
f 185 377 846
f 185 846 707
f 552 969 847
f 552 847 506
f 376 710 848
f 376 848 553
f 748 658 849
f 748 849 988
f 8 9 850
f 8 850 82
f 434 226 851
f 434 851 944
f 750 246 852
f 750 852 678
f 744 648 853
f 744 853 515
f 129 416 854
f 129 965 131
f 180 742 855
f 180 855 476
f 218 683 856
f 218 856 537
f 62 408 857
f 62 857 743
f 577 466 858
f 577 987 424
f 362 474 859
f 362 859 515
f 345 994 860
f 345 860 507
f 475 389 861
f 475 861 634
f 511 401 862
f 511 862 104
f 49 1029 863
f 49 863 480
f 365 740 864
f 365 864 174
f 676 51 865
f 970 865 423
f 746 55 866
f 746 866 217
f 690 417 867
f 690 867 451
f 236 678 868
f 236 868 1026
f 642 37 869
f 642 869 1025
f 437 330 870
f 437 870 610
f 211 444 871
f 211 871 359
f 509 998 872
f 509 872 981
f 5 601 873
f 5 873 740
f 593 193 874
f 593 1020 191
f 30 447 875
f 30 875 755
f 611 1022 876
f 611 876 354
f 978 53 877
f 44 877 52
f 177 753 878
f 177 878 479
f 594 673 879
f 594 879 190
f 407 485 880
f 1004 880 597
f 173 596 881
f 173 881 485
f 267 269 882
f 267 882 266
f 517 575 883
f 517 883 71
f 604 316 884
f 604 884 687
f 1 1015 885
f 1 885 461
f 481 991 886
f 481 886 332
f 201 204 887
f 201 887 650
f 530 94 888
f 530 1021 88
f 592 412 889
f 975 889 502
f 609 320 890
f 609 890 445
f 666 779 891
f 666 891 316
f 587 1031 892
f 587 892 367
f 287 446 893
f 1010 893 779
f 472 169 894
f 472 894 161
f 665 109 895
f 665 1048 780
f 343 1062 896
f 343 896 412
f 612 149 897
f 612 897 396
f 763 1038 898
f 763 898 43
f 213 197 899
f 213 899 1007
f 146 394 900
f 146 900 145
f 616 549 901
f 1043 901 654
f 242 600 902
f 242 902 247
f 681 1038 903
f 681 903 28
f 95 87 904
f 95 904 521
f 42 582 905
f 42 905 1058
f 540 312 906
f 540 906 1041
f 538 162 907
f 538 907 1042
f 305 1051 908
f 305 908 294
f 529 135 909
f 529 909 139
f 443 790 910
f 443 910 688
f 1034 341 911
f 684 911 141
f 99 265 912
f 99 912 101
f 187 679 913
f 187 913 785
f 542 339 914
f 542 914 1052
f 699 547 915
f 699 915 1049
f 539 1063 916
f 539 916 610
f 137 393 917
f 137 917 615
f 263 271 918
f 263 918 260
f 614 356 919
f 614 919 800
f 686 453 920
f 686 1044 135
f 692 1066 921
f 692 921 155
f 613 1064 922
f 613 922 295
f 618 121 923
f 618 923 701
f 803 295 924
f 803 1059 297
f 695 1066 925
f 695 925 802
f 703 608 926
f 703 926 1074
f 126 704 927
f 126 927 450
f 1073 124 928
f 119 928 704
f 282 283 929
f 282 929 617
f 645 224 930
f 645 930 227
f 435 771 931
f 435 931 864
f 630 334 932
f 630 932 736
f 902 667 933
f 902 933 247
f 387 335 934
f 387 934 859
f 624 72 935
f 624 935 73
f 397 70 936
f 397 936 376
f 14 815 937
f 14 937 459
f 260 756 938
f 260 938 918
f 433 456 939
f 433 939 721
f 673 594 940
f 673 940 196
f 628 368 941
f 628 941 223
f 623 814 942
f 623 942 813
f 724 503 943
f 724 943 831
f 230 344 944
f 230 944 369
f 40 768 945
f 40 945 39
f 458 644 946
f 458 946 377
f 513 441 947
f 513 947 479
f 833 657 948
f 833 948 386
f 563 66 949
f 563 949 638
f 511 401 950
f 511 950 104
f 832 233 951
f 832 951 722
f 728 500 952
f 728 952 504
f 18 665 953
f 18 953 745
f 641 378 954
f 641 954 336
f 559 71 955
f 559 955 430
f 384 743 956
f 384 956 821
f 381 602 957
f 381 957 877
f 409 348 958
f 409 958 474
f 717 568 959
f 717 959 620
f 629 470 960
f 629 960 725
f 650 585 961
f 650 961 200
f 24 23 962
f 24 962 510
f 524 217 963
f 524 963 586
f 10 850 964
f 10 964 656
f 854 727 965
f 854 965 129
f 380 662 966
f 380 966 404
f 382 646 967
f 382 967 731
f 425 813 968
f 425 968 619
f 747 324 969
f 747 969 552
f 676 736 970
f 676 970 865
f 471 359 971
f 471 971 379
f 782 576 972
f 782 972 487
f 706 404 973
f 706 973 234
f 469 857 974
f 469 974 723
f 592 764 975
f 592 975 889
f 179 455 976
f 179 976 519
f 566 423 977
f 566 977 498
f 44 877 978
f 44 978 50
f 708 37 979
f 708 979 557
f 351 410 980
f 351 980 718
f 254 252 981
f 254 981 509
f 738 850 982
f 738 982 466
f 621 364 983
f 621 983 855
f 741 362 984
f 741 984 846
f 533 28 985
f 533 985 649
f 475 60 986
f 475 986 560
f 858 12 987
f 858 987 577
f 525 7 988
f 525 988 65
f 491 342 989
f 491 989 454
f 62 408 990
f 62 990 743
f 128 127 991
f 128 991 528
f 770 54 992
f 770 992 423
f 256 252 993
f 256 993 259
f 565 651 994
f 565 994 181
f 240 241 995
f 240 995 239
f 477 823 996
f 477 996 683
f 143 564 997
f 143 997 514
f 258 262 998
f 258 998 509
f 346 484 999
f 346 999 816
f 873 4 1000
f 873 1000 572
f 870 610 1001
f 870 1001 165
f 210 752 1002
f 210 1002 212
f 878 178 1003
f 878 1003 753
f 407 444 1004
f 407 1004 880
f 202 201 1005
f 202 1005 678
f 318 586 1006
f 318 1006 884
f 207 899 1007
f 207 1007 760
f 853 274 1008
f 853 1008 335
f 174 596 1009
f 174 1009 579
f 287 794 1010
f 287 1010 893
f 677 485 1011
f 677 1011 535
f 2 601 1012
f 2 1012 658
f 58 59 1013
f 58 1013 777
f 183 272 1014
f 183 1014 780
f 680 1 1015
f 680 1015 54
f 701 923 1016
f 701 1016 353
f 735 575 1017
f 735 1017 231
f 659 55 1018
f 659 1018 408
f 289 790 1019
f 289 1019 546
f 874 593 1020
f 874 1020 532
f 888 91 1021
f 888 1021 530
f 452 611 1022
f 452 1022 388
f 927 122 1023
f 927 1023 413
f 198 744 1024
f 198 1024 887
f 35 34 1025
f 35 1025 837
f 243 236 1026
f 243 1026 246
f 192 186 1027
f 192 1027 593
f 332 726 1028
f 332 1028 606
f 47 46 1029
f 47 1029 526
f 537 893 1030
f 537 1030 674
f 765 413 1031
f 765 1031 144
f 145 146 1032
f 145 1032 611
f 904 89 1033
f 904 1033 783
f 684 800 1034
f 684 1034 911
f 29 30 1035
f 29 1035 25
f 784 292 1036
f 784 1036 290
f 190 879 1037
f 190 1037 785
f 598 763 1038
f 598 1038 487
f 508 678 1039
f 508 1039 600
f 187 679 1040
f 187 1040 191
f 418 795 1041
f 418 1041 906
f 700 492 1042
f 700 1042 538
f 616 901 1043
f 616 1043 125
f 920 686 1044
f 920 1044 416
f 312 314 1045
f 312 1045 540
f 162 166 1046
f 162 1046 907
f 105 100 1047
f 105 1047 793
f 895 110 1048
f 895 1048 665
f 798 915 1049
f 798 1049 488
f 285 548 1050
f 285 1050 690
f 339 305 1051
f 339 1051 687
f 489 605 1052
f 489 1052 542
f 486 792 1053
f 486 1053 666
f 355 696 1054
f 355 1054 587
f 300 922 1055
f 300 1055 694
f 265 264 1056
f 265 1056 912
f 545 453 1057
f 545 1057 800
f 38 39 1058
f 38 1058 682
f 924 803 1059
f 924 1059 304
f 773 373 1060
f 773 1060 135
f 393 786 1061
f 393 1061 443
f 617 282 1062
f 617 1062 343
f 421 155 1063
f 421 1063 539
f 294 544 1064
f 294 1064 613
f 796 292 1065
f 796 1065 137
f 149 692 1066
f 149 1066 490
f 301 803 1067
f 301 1067 303
f 154 925 1068
f 154 1068 156
f 802 151 1069
f 802 1069 925
f 103 102 1070
f 103 1070 104
f 495 704 1071
f 495 1071 123
f 121 120 1072
f 121 1072 618
f 119 928 1073
f 119 1073 122
f 281 806 1074
f 281 1074 703
f 268 264 1075
f 268 1075 248
