v 2.229345 -0.992723 -0.862826
v 2.931756 -1.129655 0.0
v 1.920432 -1.567396 0.0
v 2.881063 -0.493146 -0.521968
v -2.033406 -0.91003 -0.96422
v -1.200688 -1.577575 -0.799188
v -0.063012 -1.583021 -0.865082
v -2.734184 -1.717948 -0.749581
v -2.267049 -1.753901 -0.662106
v -2.941731 -1.787431 -0.442574
v -3.557869 -1.325941 -0.37803
v -3.616627 -0.350374 -0.338492
v 1.734568 -2.965876 -0.986396
v 1.911792 -2.895773 -0.950117
v -3.23261 -1.834299 -1.087832
v -3.078699 -2.553982 -1.046834
v -3.240554 -2.555467 -0.856262
v 1.953911 -2.462233 -0.830594
v 1.98533 -2.221319 -0.893145
v 2.021591 -1.755289 -0.912093
v 1.966698 -1.22816 -1.153716
v 3.233975 2.059193 -0.072431
v 3.528445 1.060127 -0.489443
v 3.36004 0.165487 -0.412685
v 3.71636 2.343387 0.0
v 4.120842 0.627141 -0.185461
v 3.98851 1.297806 -0.539537
v 2.361089 1.76666 -0.202595
v 2.637461 1.01726 -0.581611
v 0.737904 1.604213 -0.281713
v 0.939271 0.379986 -1.185872
v -0.406155 1.005088 -0.971088
v 0.021051 -0.831931 -1.511548
v -1.215563 1.757097 -0.133494
v -1.551526 1.400025 -1.050193
v -1.479588 0.295746 -1.440042
v -2.187634 -0.375454 -1.406902
v -2.672899 1.90511 -0.067168
v -2.68493 1.262021 -1.11049
v -3.35851 1.810253 -0.380095
v -3.507689 1.700214 0.0
v -3.302419 -3.017921 -1.128514
v -3.900566 1.002504 0.0
v -3.674766 0.517345 -6.3e-05
v 4.897808 1.946794 -0.628057
v 4.752337 1.723388 -0.591296
v 4.982822 1.503071 -0.507606
v 4.533113 1.989009 -0.578975
v 5.04969 2.032731 7.1e-05
v 5.218821 1.803552 -0.199306
v 4.634996 2.369115 -0.140117
v 5.158322 1.23677 -0.418043
v 5.528186 1.44018 -0.250666
v 5.672187 1.164767 -0.35408
v 5.908842 1.388968 0.001026
v 5.757506 0.9579 -0.210732
v 4.920855 0.812339 0.000318
v 4.312225 1.683392 -0.639944
v 4.342351 2.581176 -0.140317
v 4.407729 2.53164 -0.486692
v 4.113935 2.334131 -0.526471
v 4.061989 2.231988 -1.178382
v 2.407309 -0.97498 0.805091
v 2.835437 -0.231101 0.57789
v -2.306662 -1.116976 0.961238
v -1.782298 -1.020581 0.943381
v -0.535144 -1.615983 0.920556
v -1.764045 -1.764987 0.406586
v -2.684452 -1.891207 0.447388
v -3.304804 -1.582192 0.643445
v -3.665774 -0.73408 0.446286
v 1.806371 -2.949735 0.984058
v -2.918293 -1.904184 1.004659
v -3.347304 -2.573628 0.955211
v -2.981187 -2.142718 0.858353
v 2.02453 -2.195334 0.811284
v 1.710406 -2.272223 0.954296
v 1.717145 -1.80953 1.004092
v 1.966698 -1.22816 1.153716
v 3.189664 0.907503 0.500122
v 4.068249 0.798926 0.400813
v 2.013534 -0.662303 1.191491
v 1.859443 1.450393 0.632222
v 0.760722 1.205036 0.700545
v -0.752416 0.438132 1.467349
v -1.479588 0.295746 1.440042
v -1.744732 1.734849 0.433807
v -2.187634 -0.375454 1.406902
v -2.71748 1.576797 0.875971
v -3.379131 0.767915 0.885996
v -3.223286 -3.00178 1.126176
v -3.72947 -0.869371 0.096946
v -3.86074 -0.188349 -0.024962
v 4.925499 1.917814 0.613413
v 5.133171 1.715563 0.334258
v 4.615408 1.639641 0.577768
v 5.233176 1.442459 0.362988
v 4.472349 2.325133 0.443764
v 4.733657 1.227371 0.592883
v 5.672187 1.164767 0.35408
v 4.187258 2.590221 0.135844
v 4.423033 2.561337 0.603562
v 4.314039 2.32946 0.57751
v 4.04473 2.254459 0.744209
v 4.036947 1.992167 1.072561
v 0.939271 0.379986 1.185872
v -0.956007 -1.825728 0.0
v 3.115383 1.49239 0.380228
v -0.559706 1.69418 0.18610700000000002
v -3.55232 0.21961300000000006 0.0
v 2.91987 0.084875 -0.64246
v -2.981187 -2.142718 -0.858353
v 2.126237 -1.330172 0.721011
v -3.921874 -0.538502 -0.145307
v -3.132772 -2.528669 0.848639
v 4.312225 1.683392 0.639944
v 4.546655 2.709095 0.80378
v 5.573803 0.952578 0.243886
v 5.378289 1.768448 0.00044099999999999695
v 4.314039 2.32946 -0.57751
v 1.705953 -3.006628 -0.83263
v -3.84447 0.498176 -0.053132
v 0.44655 -1.67295 0.0
v -2.47375 0.300945 -1.316695
v -0.910602 1.204118 0.83774
v 3.886058 1.550141 0.50483
v -0.11519000000000001 0.458427 -1.346197
v 0.960321 -0.308052 1.243133
v 3.342159 -0.384674 0.201349
v 2.247981 -3.342804 -1.127459
v -2.462835 -1.3055 -0.966395
v 1.807583 1.756546 -0.177627
v -2.591357 -1.510845 0.88547
v 4.38099 2.207701 -0.839016
v 2.053108 -1.738285 0.824853
v 2.318787 -1.29409 -0.673863
v 1.841282 -2.716008 0.708009
v 4.35668 2.682996 -0.71905
v -3.733767 -1.141917 0.111139
v 4.688114 2.046378 0.604518
v 5.92711 1.131195 0.0011180000000000079
v -2.986345 -2.93377 1.087679
v 4.215419 2.350484 0.885764
v 4.681847 2.551036 0.886235
v -3.107105 -2.947818 -1.092235
v 4.79841 1.473149 -0.570618
f 136 2 3
f 4 2 1
f 9 8 5
f 6 9 5
f 11 12 10
f 131 8 15
f 10 112 8
f 112 10 15
f 15 17 112
f 15 8 17
f 121 14 19
f 14 121 18
f 136 18 20
f 18 19 14
f 21 136 20
f 19 21 20
f 23 27 26
f 22 27 23
f 25 27 22
f 4 24 2
f 29 28 23
f 23 28 22
f 24 23 26
f 111 29 23
f 111 4 1
f 6 33 7
f 32 35 34
f 127 36 35
f 36 127 6
f 29 30 132
f 30 29 111
f 31 30 111
f 1 21 111
f 18 136 3
f 19 3 21
f 18 3 19
f 3 123 21
f 111 21 31
f 31 127 30
f 127 31 33
f 7 33 21
f 21 33 31
f 30 32 34
f 33 6 127
f 36 6 5
f 5 37 36
f 35 38 34
f 38 35 39
f 36 39 35
f 37 124 36
f 124 110 40
f 124 37 12
f 38 39 40
f 18 121 20
f 19 20 121
f 15 10 131
f 8 16 42
f 17 8 42
f 145 16 17
f 37 131 12
f 12 131 10
f 8 9 10
f 46 45 146
f 48 45 46
f 48 46 146
f 48 51 45
f 49 50 45
f 45 50 47
f 50 53 47
f 53 52 47
f 53 119 55
f 141 56 54
f 54 53 55
f 53 54 52
f 146 52 57
f 52 54 57
f 26 146 57
f 26 27 146
f 48 146 58
f 27 58 146
f 59 51 48
f 59 48 120
f 61 59 120
f 61 25 59
f 27 25 58
f 58 61 134
f 25 61 58
f 120 134 61
f 58 134 120
f 120 48 58
f 113 3 2
f 2 64 63
f 67 107 7
f 66 107 67
f 68 107 66
f 66 65 68
f 10 9 69
f 9 133 69
f 68 133 9
f 9 107 68
f 71 12 70
f 11 70 12
f 10 70 11
f 70 73 75
f 75 133 70
f 133 75 74
f 74 73 133
f 76 137 77
f 76 135 78
f 72 76 78
f 78 77 72
f 77 135 76
f 78 79 77
f 135 79 78
f 24 129 2
f 80 129 24
f 80 108 28
f 24 26 80
f 80 26 81
f 80 81 108
f 63 64 82
f 80 82 64
f 83 80 28
f 125 85 84
f 84 85 128
f 85 125 86
f 86 66 85
f 67 85 66
f 82 80 106
f 63 82 79
f 3 113 77
f 77 79 3
f 79 123 3
f 82 128 79
f 30 84 83
f 30 83 132
f 84 30 125
f 128 85 79
f 85 67 79
f 79 67 123
f 86 65 66
f 86 88 65
f 34 38 87
f 125 87 89
f 87 38 89
f 133 88 71
f 71 70 133
f 89 110 90
f 110 71 90
f 90 88 86
f 86 125 90
f 89 90 125
f 41 89 38
f 73 74 142
f 142 74 115
f 142 115 73
f 90 71 88
f 89 41 40
f 89 40 110
f 122 93 43
f 41 43 40
f 43 38 40
f 93 44 43
f 44 38 43
f 44 122 38
f 44 114 122
f 114 93 122
f 93 114 44
f 94 49 51
f 95 94 96
f 94 95 49
f 49 95 119
f 95 97 119
f 99 97 95
f 99 95 96
f 97 118 55
f 97 55 119
f 55 118 56
f 54 56 118
f 57 54 118
f 57 118 97
f 57 97 99
f 99 96 81
f 51 49 45
f 59 140 51
f 140 59 101
f 98 140 101
f 98 101 102
f 103 98 102
f 103 101 59
f 103 144 101
f 103 59 25
f 22 126 25
f 25 104 103
f 105 104 25
f 116 25 126
f 116 105 25
f 98 103 116
f 140 98 116
f 116 103 143
f 105 116 143
f 57 99 26
f 99 81 26
f 69 133 10
f 133 73 10
f 73 70 10
f 83 80 106
f 83 106 84
f 6 7 107
f 6 107 9
f 22 28 108
f 22 108 126
f 34 30 125
f 34 125 87
f 12 71 110
f 12 110 124
f 24 23 111
f 24 111 4
f 16 8 112
f 16 112 17
f 63 2 113
f 63 113 79
f 92 93 114
f 139 114 44
f 75 73 115
f 75 115 74
f 96 126 116
f 96 116 140
f 102 103 144
f 102 144 101
f 100 97 118
f 100 118 55
f 50 49 119
f 50 119 53
f 60 48 120
f 138 120 59
f 13 130 121
f 13 121 18
f 41 43 122
f 41 122 38
f 7 67 123
f 7 123 21
f 39 36 124
f 39 124 40
f 109 34 125
f 109 125 30
f 81 108 126
f 81 126 96
f 32 30 127
f 32 127 35
f 106 84 128
f 106 128 82
f 64 2 129
f 64 129 80
f 14 13 130
f 14 130 121
f 5 8 131
f 5 131 37
f 28 29 132
f 28 132 83
f 65 88 133
f 65 133 68
f 62 58 134
f 62 134 61
f 113 79 135
f 113 135 77
f 1 21 136
f 1 136 2
f 72 76 137
f 72 137 77
f 60 59 138
f 60 138 120
f 92 44 139
f 92 139 114
f 94 96 140
f 94 140 51
f 55 56 141
f 55 141 54
f 91 74 142
f 91 142 115
f 104 103 143
f 104 143 105
f 117 103 144
f 117 144 102
f 42 16 145
f 42 145 17
f 47 45 146
f 47 146 52
