v 2.229345 -0.992723 -0.862826
v 2.5392 -0.727778 -0.750475
v 2.669281 -0.930664 -0.557166
v 2.514167 -1.077721 -0.706614
v 2.318787 -1.29409 -0.673863
v 2.960118 -0.941827 -0.284743
v 2.881063 -0.493146 -0.521968
v -2.033406 -0.91003 -0.96422
v -1.782298 -1.020581 -0.943381
v -2.462835 -1.3055 -0.966395
v -2.049879 -1.562369 -0.829319
v -1.200688 -1.577575 -0.799188
v -0.972089 -1.774507 -0.76857
v -0.063012 -1.583021 -0.865082
v -0.543078 -1.810473 -0.563825
v -1.108758 -1.770749 -0.473033
v -0.523838 -1.850065 -0.388007
v -2.267049 -1.753901 -0.662106
v -1.88316 -1.829718 -0.401567
v -2.941731 -1.787431 -0.442574
v -3.616627 -0.350374 -0.338492
v -3.570243 -0.060093 -0.344854
v -3.535416 0.191408 -0.338478
v -3.55232 0.219613 0.0
v 1.734568 -2.965876 -0.986396
v 1.802387 -3.089615 -0.961851
v 1.721745 -3.116887 -0.979111
v 2.247981 -3.342804 -1.127459
v 1.709173 -3.133145 -0.80794
v 1.900481 -3.131932 -0.728621
v 2.126553 -3.549679 -0.701005
v 1.857471 -2.950722 -0.669988
v 1.884318 -2.724404 -0.701999
v -2.837147 -1.791733 -0.921563
v -2.918293 -1.904184 -1.004659
v -3.23261 -1.834299 -1.087832
v -3.49052 -1.760417 -0.903104
v -3.078699 -2.553982 -1.046834
v -3.177824 -2.279173 -1.04758
v -3.327526 -2.075729 -1.005328
v -3.347304 -2.573628 -0.955211
v -3.030605 -2.311222 -0.88433
v 1.953911 -2.462233 -0.830594
v 1.98533 -2.221319 -0.893145
v 1.678986 -2.513137 -0.891745
v 1.648793 -2.280014 -0.929365
v 1.6249 -2.087301 -0.963391
v 1.60129 -2.267132 -0.787696
v 1.473886 -1.818947 -0.799576
v 1.756349 -2.446399 -0.705428
v 1.804927 -1.581954 -1.089198
v 1.818266 -2.313852 -0.968652
v 1.945206 -2.015769 -0.672724
v 1.966698 -1.22816 -1.153716
v 3.233975 2.059193 -0.072431
v 3.276333 1.863773 -0.294266
v 3.528445 1.060127 -0.489443
v 3.71636 2.343387 0.0
v 3.4583 2.151656 -0.102662
v 4.120842 0.627141 -0.185461
v 4.041657 1.039756 -0.496922
v 2.361089 1.76666 -0.202595
v 2.637461 1.01726 -0.581611
v 2.811504 0.469098 -0.657443
v 2.91987 0.084875 -0.64246
v 2.734183 0.038769 -0.86581
v 2.70696 0.393597 -0.849582
v 2.346081 -0.74535 -1.013296
v 0.737904 1.604213 -0.281713
v 0.316341 0.785311 -1.08626
v -0.559706 1.69418 -0.186107
v 0.034087 -0.225059 -1.542949
v -1.053434 -0.342553 -1.690245
v 1.644178 -0.857872 -1.208494
v 1.640095 -0.674556 -1.246804
v 1.504951 1.483493 -0.585976
v -1.683863 1.789041 -0.121501
v -1.744732 1.734849 -0.433807
v -2.030191 0.547622 -1.189762
v -2.079597 1.817785 -0.138375
v -2.298249 0.768333 -1.203884
v -2.292049 -0.933921 -1.128136
v -3.08565 1.65734 -0.784479
v -3.35851 1.810253 -0.380095
v -3.19641 0.797564 -0.985913
v -3.709741 1.351194 -0.211745
v -3.302419 -3.017921 -1.128514
v -3.107105 -2.947818 -1.092235
v -3.227676 -3.14166 -1.103969
v -3.316551 -3.168932 -1.121229
v -2.736599 -3.394849 -1.269577
v -2.631547 -3.559891 -1.33738
v -2.981824 -3.608887 -1.346959
v -3.091252 -3.340925 -1.235864
v -3.333954 -3.058673 -0.974748
v -3.19417 -3.348553 -1.007196
v -2.52472 -3.561609 -1.161535
v -2.944625 -3.282121 -0.817054
v -3.900566 1.002504 0.0
v -3.84447 0.498176 -0.053132
v -3.87514 1.480358 0.0
v -3.712832 1.794492 0.0
v -3.47843 1.975409 0.0
v -3.242148 2.021387 0.0
v -3.80184 1.012668 -0.115288
v -3.357009 1.781675 -0.071216
v -3.674766 0.517345 -6.3e-05
v -3.348274 1.767738 -8.5e-05
v -2.03574 -1.981182 -0.547873
v -2.120746 -2.045137 -0.411171
v -2.499138 -2.03809 -0.504529
v -2.571019 -1.995375 -0.58623
v -2.685663 -2.028649 -0.514928
v -2.065655 -2.124623 -0.36872
v -1.978016 -2.086834 -0.494327
v -2.552923 -2.142304 -0.454579
v -2.629199 -2.138983 -0.436227
v -2.583303 -2.089191 -0.577616
v 4.897808 1.946794 -0.628057
v 4.973133 1.992779 -0.533466
v 5.001903 1.914398 -0.486724
v 4.760921 1.881357 -0.61312
v 4.963546 1.783161 -0.553515
v 4.918466 2.084725 -0.532713
v 5.00244 2.105746 -0.468233
v 4.752337 1.723388 -0.591296
v 4.995978 2.148785 -0.344534
v 4.912303 2.162645 -9e-05
v 5.158322 1.23677 -0.418043
v 4.761601 1.363013 -0.57137
v 4.733657 1.227371 -0.592883
v 5.588763 1.573846 0.000686
v 5.730427 1.435668 -0.209848
v 5.710154 1.360653 -0.290072
v 5.672187 1.164767 -0.35408
v 5.931474 1.233483 -0.215613
v 5.92711 1.131195 0.001118
v 5.923808 1.025283 -0.153084
v 5.959462 1.157227 -0.187097
v 5.370709 0.980272 -0.337432
v 5.373646 0.885375 -0.20884
v 4.567896 1.149805 -0.642484
v 4.496191 1.024566 -0.579491
v 4.148883 1.759918 -0.573765
v 4.342351 2.581176 -0.140317
v 4.454962 2.523303 -0.000603
v 4.209941 2.600612 -0.337597
v 4.328606 2.563996 -0.343892
v 4.47609 2.606654 -0.692301
v 4.509555 2.719807 -0.819972
v 4.801436 2.750224 -0.858918
v 5.096148 2.75972 -0.774729
v 4.440713 2.398472 -0.629128
v 4.681847 2.551036 -0.886235
v 4.262798 2.490674 -0.818316
v 4.735139 2.645464 -0.95089
v 4.035753 2.399538 -0.343957
v 3.870548 2.292106 -0.368964
v 4.273005 2.310529 -0.762172
v 4.215419 2.350484 -0.885764
v 4.061989 2.231988 -1.178382
v 4.097362 2.3666 -1.239986
v 4.094116 2.426172 -1.381032
v 4.046673 2.341349 -1.45253
v 4.094112 1.889281 -0.578435
v 4.148927 2.388726 -1.376879
v 4.199317 2.304652 -1.17454
v 4.153175 2.084823 -0.799668
v 4.148865 2.148829 -0.986567
v 4.11268 2.195089 -1.366908
v 4.111934 2.234814 -1.399949
v 2.407309 -0.97498 0.805091
v 2.126237 -1.330172 0.721011
v 2.45706 -1.400958 0.539866
v 2.803736 -1.255869 0.438328
v 2.663024 -1.440487 0.478149
v 2.835437 -0.231101 0.57789
v 2.688131 -0.517509 0.672975
v -2.306662 -1.116976 0.961238
v -1.778934 -1.550199 0.776454
v -1.266738 -1.691944 0.557922
v -1.108758 -1.770749 0.473033
v -2.126375 -1.866497 0.502895
v -3.55012 -0.984868 0.675228
v -3.283698 -0.730967 0.793898
v 1.806371 -2.949735 0.984058
v 2.021366 -2.881725 0.945561
v 1.721745 -3.116887 0.979111
v 1.802387 -3.089615 0.961851
v 2.031262 -3.256709 1.111122
v 2.113587 -3.011851 0.851648
v 1.709173 -3.133145 0.80794
v 1.83279 -3.296508 0.865078
v 2.078928 -3.584991 0.917088
v 2.126553 -3.549679 0.701005
v 2.377814 -3.484109 0.800332
v 1.841282 -2.716008 0.708009
v -2.918293 -1.904184 1.004659
v -3.23261 -1.834299 1.087832
v -3.498521 -1.762078 0.762472
v -3.068444 -2.260195 1.03507
v -3.162498 -2.556375 1.058409
v -3.347304 -2.573628 0.955211
v -2.981187 -2.142718 0.858353
v -3.030605 -2.311222 0.88433
v -3.132772 -2.528669 0.848639
v 2.02453 -2.195334 0.811284
v 1.930747 -2.463535 0.894743
v 2.053108 -1.738285 0.824853
v 1.710406 -2.272223 0.954296
v 1.717145 -1.80953 1.004092
v 1.529305 -2.092083 0.887353
v 1.663494 -2.485963 0.790773
v 1.473886 -1.818947 0.799576
v 1.596751 -1.722028 0.684655
v 1.601721 -1.262359 1.14142
v 3.115383 1.49239 0.380228
v 3.98851 1.297806 0.539537
v 2.60743 -0.208248 0.974218
v 2.346081 -0.74535 1.013296
v 2.0817 0.283249 1.259461
v 1.859443 1.450393 0.632222
v 0.939271 0.379986 1.185872
v -0.406155 1.005088 0.971088
v -0.536767 -0.144454 1.682232
v -0.487217 -1.193519 1.504026
v -1.292756 1.656509 0.51403
v 1.644178 -0.857872 1.208494
v 1.63008 0.420236 1.172369
v -1.79513 0.033439 1.37116
v -1.683863 1.789041 0.121501
v -2.030191 0.547622 1.189762
v -2.296056 1.06281 1.171139
v -3.160225 -0.018852 1.113626
v -3.424258 0.158638 0.918279
v -3.223286 -3.00178 1.126176
v -3.316551 -3.168932 1.121229
v -3.227676 -3.14166 1.103969
v -2.975439 -3.308754 1.25324
v -2.856957 -3.449728 1.356844
v -2.729567 -3.602976 1.377236
v -2.787341 -3.278502 1.138621
v -3.330406 -3.18519 0.950058
v -3.19417 -3.348553 1.007196
v -2.922908 -3.637036 1.059206
v -3.256731 -3.032131 0.849693
v -2.52472 -3.561609 1.161535
v -3.67645 -0.551317 0.077574
v -3.72947 -0.869371 0.096946
v -3.699784 -0.759901 0.088664
v -3.697889 -0.951955 0.098793
v -3.733767 -1.141917 0.111139
v -3.743747 -1.367219 0.100951
v -3.823638 -1.557534 0.081533
v -3.828485 -1.786559 -0.114095
v -3.805841 -0.798961 0.099237
v -3.884588 -1.261469 0.148322
v -4.297769 -1.889903 0.177707
v -4.227645 -1.227895 0.069894
v -3.921874 -0.538502 -0.145307
v -4.252683 -1.437854 -0.14562
v -4.331331 -1.69259 -0.043593
v -3.86074 -0.188349 -0.024962
v -3.81743 0.150343 0.048629
v -3.84447 0.498176 0.053132
v -3.469715 1.961504 0.071141
v -3.660928 1.770041 0.115431
v -3.75063 -0.191863 0.063305
v -3.675638 1.471512 0.062201
v -3.357009 1.781675 0.071216
v -3.67251 0.16663 -0.048579
v -1.971059 -1.992958 0.500845
v -2.120746 -2.045137 0.411171
v -2.513608 -2.012858 0.558673
v -2.539874 -2.049824 0.460098
v -1.985123 -2.116661 0.394256
v -1.978016 -2.086834 0.494327
v -2.513187 -2.130859 0.49792
v -2.629199 -2.138983 0.436227
v -2.583303 -2.089191 0.577616
v 4.925499 1.917814 0.613413
v 5.001903 1.914398 0.486724
v 4.973133 1.992779 0.533466
v 4.963546 1.783161 0.553515
v 4.918466 2.084725 0.532713
v 5.00244 2.105746 0.468233
v 4.615408 1.639641 0.577768
v 4.761601 1.363013 0.57137
v 5.566339 1.498677 0.190905
v 5.672187 1.164767 0.35408
v 5.931474 1.233483 0.215613
v 5.85775 0.997026 0.236768
v 5.370709 0.980272 0.337432
v 4.359483 2.615839 0.596817
v 4.546655 2.709095 0.80378
v 4.59262 2.569879 0.790452
v 4.821336 2.621498 0.789636
v 4.801436 2.750224 0.858918
v 5.096148 2.75972 0.774729
v 4.382053 2.433474 0.798757
v 4.681847 2.551036 0.886235
v 4.497719 2.54748 0.937659
v 4.854957 2.660227 0.92431
v 4.615662 2.63387 0.977986
v 4.138687 2.474013 0.642311
v 4.088356 2.510913 0.453793
v 4.035753 2.399538 0.343957
v 4.753015 2.699695 0.973279
v 3.857922 2.141554 0.521067
v 4.215419 2.350484 0.885764
v 4.273005 2.310529 0.762172
v 4.097362 2.3666 1.239986
v 4.058311 2.293363 1.338054
v 4.094116 2.426172 1.381032
v 4.022592 2.123052 0.903284
v 4.036947 1.992167 1.072561
v 4.103303 2.038565 1.363737
v 3.966639 1.969285 0.549291
v 4.303193 2.347123 1.044413
v 4.211815 2.28249 1.039137
v 4.153175 2.084823 0.799668
v 4.11268 2.195089 1.366908
v 4.111934 2.234814 1.399949
v -3.507689 1.700214 0.0
v -0.956007 -1.825728 0.0
v -2.68493 1.262021 -1.11049
v -1.551526 1.400025 1.050193
v -2.734184 -1.717948 -0.749581
v 3.36004 0.16548699999999994 -0.412685
v 3.881998 1.764428 -0.476337
v 4.472349 2.325133 0.443764
v 5.528186 1.44018 -0.250666
v 0.760722 1.205036 0.700545
v 0.927497 -1.558489 0.0
v -2.684452 -1.891207 0.447388
v -2.187634 -0.375454 -1.406902
v 2.384638 -0.591919 -1.043058
v -2.47375 0.300945 1.316695
v 4.113935 2.334131 0.526471
v 3.189664 0.907503 0.500122
v 4.920855 0.812339 0.0003180000000000127
v 4.533113 1.989009 -0.578975
v 5.133171 1.715563 0.334258
v -1.479588 0.295746 1.440042
v -0.535144 -1.615983 0.920556
v 2.970902 -0.959664 0.0
v -2.955052 -1.49684 1.128812
v -3.557869 -1.325941 -0.37803
v -0.40615500000000004 1.005088 -0.971088
v -3.109047 1.789477 0.565323
v 2.811504 0.469098 0.657443
v 3.98851 1.297806 -0.539537
v 5.218821 1.803552 -0.199306
v 4.187258 2.590221 0.135844
v 4.38099 2.207701 -0.839016
v 5.573803 0.952578 0.243886
v 1.975941 0.827957 -1.018423
v -3.096267 -0.6681 -1.140081
v 1.451825 -1.576856 0.702758
v -0.752416 0.438132 1.467349
v 3.814876 1.968416 0.443
v -3.304804 -1.582192 0.643445
v -1.744732 1.734849 0.433807
v -1.610025 -1.711571 0.0
v 2.706963 -1.528854 0.0
v -0.969076 0.901205 -1.146223
v 4.022592 2.123052 -0.903284
v 2.637461 1.01726 0.581611
v -2.187634 -0.375454 1.406902
v 4.733657 1.227371 0.592883
v 3.189664 0.907503 -0.500122
v 5.127157 1.942759 0.211214
v 5.884856 1.062202 -0.24954499999999996
v 4.407729 2.53164 -0.486692
v 5.471928 1.345179 0.313899
v 0.960321 -0.308052 -1.243133
v -3.665774 -0.73408 0.446286
v -1.395501 -0.698702 -1.553257
v 0.939974 -0.894739 1.019809
v -3.476235 1.287798 0.704766
v 2.021591 -1.755289 -0.912093
v -1.017767 1.607824 -0.541965
v 3.342159 -0.384674 -0.201349
v 1.807583 1.756546 -0.177627
v -1.782298 -1.020581 0.943381
v 2.384638 -0.591919 1.043058
v -2.892162 -1.781087 0.0
v 4.00011 2.424158 -0.313254
v 4.120842 0.627141 0.185461
v 4.26732 2.121987 0.61494
v 4.982822 1.503071 -0.507606
v 4.982822 1.503071 0.507606
v 5.908842 1.388968 0.0010259999999999991
v 4.634996 2.369115 0.140117
v 5.373646 0.885375 0.20884
v 4.497719 2.54748 -0.937659
v 0.939271 0.379986 -1.185872
v -2.47375 0.300945 -1.316695
v 0.316341 0.785311 1.08626
v 1.604939 -1.556997 0.0
v -2.672899 1.90511 -0.067168
v 0.034087 -0.225059 1.542949
v -1.405685 0.573835 -1.352181
v -3.379131 0.767915 0.885996
v -0.977375 -1.793126 0.498747
v -2.591357 -1.510845 0.88547
v 1.966698 -1.22816 1.153716
v 2.723503 1.898839 0.0
v -3.650579 -1.142448 0.0
v 3.280681 0.510802 0.49943399999999993
v 3.559394 0.706516 -0.452535
v 5.233176 1.442459 0.362988
v 4.477781 1.687858 -0.597407
v 4.655453 0.758022 9.799999999998699e-05
v 4.440143 2.510529 0.269164
v 5.470775 1.009574 -0.355371
v 4.688114 2.046378 0.604518
v 4.04473 2.254459 0.744209
v 5.70463 0.849158 0.12813000000000002
v 5.959462 1.157227 0.187097
v 4.192789 2.411967 -0.668016
v 2.0817 0.283249 -1.259461
v 1.601721 -1.262359 -1.14142
v -1.576196 -1.696317 -0.358146
v 0.960321 -0.308052 1.243133
v 0.480235 -1.631521 0.401961
v 4.634996 2.369115 -0.140117
v -3.101125 -0.35476 1.162409
v -2.955052 -1.49684 -1.128812
v 0.223642 1.684075 -0.16074299999999997
v -3.556552 0.704883 -0.28063
v -1.929731 1.617188 0.80639
v -1.929731 1.617188 -0.80639
v -1.456655 -1.295527 0.89424
v 2.396607 -1.593239 -0.389972
v -3.271035 -1.609292 0.0
v 3.857922 2.141554 -0.521067
v 2.669281 -0.930664 0.557166
v 2.738132 1.687333 -0.295046
v -2.466779 -1.857679 0.570461
v 3.559394 0.706516 0.452535
v 2.993075 -0.708434 -0.342596
v 5.813217 1.415581 0.195261
v 1.804927 -1.581954 1.089198
v 4.152166 1.868775 1.225002
v 4.430999 1.535753 0.638888
v 1.83279 -3.296508 -0.865078
v 5.197562 0.922406 0.302473
v 4.440713 2.398472 0.629128
v 4.79841 1.473149 -0.570618
v 4.837331 2.235678 0.479332
v 4.063205 2.509679 -0.342987
v 5.757506 0.9579 -0.210732
v 4.314039 2.32946 -0.57751
v -2.566746 -1.211312 1.167101
v -1.551526 1.400025 -1.050193
v -2.71748 1.576797 0.875971
v -3.595973 -0.346391 0.426453
v 0.489819 -1.524947 -0.672392
v 0.760722 1.205036 -0.700545
v 2.013534 -0.662303 -1.191491
v -1.053434 -0.342553 1.690245
v -2.649338 -0.241719 -1.339644
v 2.399389 0.782091 0.915279
v -2.572286 0.835495 -1.252192
v -1.456655 -1.295527 -0.89424
v -3.601668 1.293049 0.0
v -4.229164 -1.473093 0.11156
v 2.361089 1.76666 0.202595
v -3.686518 -0.955181 -0.320349
v 1.348219 -1.282064 0.845204
v 4.152166 1.868775 -1.225002
v -0.559706 1.69418 0.18610700000000002
v -3.53391 -1.330455 0.568246
v 3.929251 0.411689 0.0
v -2.037371 -1.73636 0.656787
v 4.496191 1.024566 0.579491
v 3.4583 2.151656 0.102662
v 2.986408 -0.413503 0.428964
v 1.451825 -1.576856 -0.702758
v 5.378289 1.768448 0.00044099999999999695
v 5.397967 1.174238 -0.346802
v 4.063205 2.509679 0.342987
v 2.857666 -0.930625 -0.391195
v 2.141273 -1.234642 0.941254
v 4.38099 2.207701 0.839016
v 1.970051 -3.141862 -1.065178
v 5.397967 1.174238 0.346802
v 4.389484 2.190421 0.47332
v 4.59262 2.569879 -0.790452
v 4.561299 2.133066 -0.547248
v 4.146067 2.278102 -0.707372
v 5.851404 0.929008 -0.10536199999999998
v 4.871155 1.741238 0.592326
v 4.926194 1.859813 -0.582137
v -0.487217 -1.193519 -1.504026
v -1.79513 0.033438999999999997 -1.37116
v 0.939974 -0.894739 -1.019809
v -0.752416 0.438132 -1.467349
v -0.969076 0.901205 1.146223
v 4.00011 2.424158 0.313254
v 4.99671 0.81056 0.28077100000000005
v 0.737904 1.604213 0.281713
v -1.807421 0.657142 1.209422
v 2.396607 -1.593239 0.389972
v -3.582867 0.734419 -0.697787
v -0.07847000000000001 -1.688266 0.80023
v -2.986345 -2.93377 1.087679
v -4.107191 -1.83652 0.120149
v -3.536654 0.442277 0.322
v -3.053102 1.96881 -0.051104
v -2.937658 -1.002749 -1.219413
v 3.36004 0.165487 0.412685
v 4.141189 1.008775 -0.499342
v -3.008323 -1.759271 0.655672
v 4.314791 2.142163 -0.54065
v -0.894132 1.712652 -0.151911
v 2.396355 1.242239 -0.597722
v -2.042059 -1.312976 0.940911
v 3.377233 1.5878 -0.400781
v -3.137383 -2.776449 -0.844117
v -1.74779 -1.667608 -0.60634
v 4.068249 0.798926 0.400813
v 3.377233 1.5878 0.400781
v 2.835437 -0.23110100000000003 -0.57789
v 1.572979 -1.827591 -0.985823
v -2.709403 -1.879947 -0.508775
v 4.995978 2.148785 0.344534
v 5.783731 1.341471 -0.28459
v -3.042899 -3.193907 -1.207296
v 1.612396 -1.485728 1.099731
v 2.201939 -3.226457 0.996503
v 2.343303 -3.507846 -1.195262
v 2.126237 -1.330172 -0.721011
v 2.410367 -0.777999 0.841105
v 4.342998 2.664049 0.904347
v 4.312225 1.683392 0.639944
v 4.102304 2.29996 -1.025862
v 4.113935 2.334131 -0.526471
v 4.155551 2.388662 1.09196
v 5.421809 1.685349 0.123555
v 4.314039 2.32946 0.57751
v 4.359483 2.615839 -0.596817
v 4.328606 2.563996 0.343892
v 5.511556 0.863525 -0.17761299999999997
v 5.608974 1.317869 0.319719
v 5.757506 0.9579 0.21073200000000003
v 4.861611 2.001639 0.621913
v 4.825996 2.089176 -0.576083
v -0.11519 0.458427 1.346197
v -2.137524 1.753182 0.433142
v -3.476235 1.287798 -0.704766
v 1.63008 0.42023599999999994 -1.172369
v 2.519027 1.485931 0.422962
v -2.825835 0.755899 1.209042
v 0.544825 -1.133123 -1.096902
v -3.27979 -1.162072 -0.784602
v 0.544825 -1.133123 1.096902
v -0.221516 1.686349 -0.151403
v 3.737014 0.181837 -0.176819
v -2.870422 -3.601724 -0.843123
v -1.807421 0.657142 -1.209422
v 2.495354 0.250522 -1.132081
v 4.712067 0.770512 -0.333393
v -1.200688 -1.577575 0.799188
v 1.310865 -1.136322 -0.914838
v -4.111927 -1.333141 -0.26716
v -2.79063 0.46881 -1.224273
v -1.278903 1.192051 0.946843
v 1.807583 1.756546 0.177627
v -3.637643 -0.356271 0.0
v 2.803736 -1.255869 -0.438328
v -3.15021 -1.259588 1.001021
v 2.747937 0.712253 -0.615674
v -1.215563 1.757097 -0.133494
v 2.025468 -3.556842 -1.204841
v -1.552229 -1.555077 -0.735708
v -3.519716 1.685231 0.31713
v 2.61797 -1.235597 0.520238
v -2.223917 -1.541268 0.87926
v 4.522247 1.398278 -0.644892
v -2.981187 -2.142718 -0.858353
v 3.115383 1.49239 -0.380228
v 3.479418 1.97825 0.317478
v -3.339489 -2.328145 0.827572
v 3.886058 1.550141 0.50483
v 4.354411 2.102985 -0.80258
v 2.679445 0.687427 0.720573
v 4.359048 0.700414 0.166651
v 1.918641 -2.083654 1.001275
v -2.037371 -1.73636 -0.656787
v 5.158322 1.23677 0.418043
v 1.900481 -3.131932 0.728621
v 2.138771 -3.397683 1.214726
v 4.6248 2.708372 -0.989445
v 2.318787 -1.29409 0.673863
v 1.838895 -1.087204 1.201408
v 1.911792 -2.895773 -0.950117
v -2.946527 -2.939327 -0.986343
v -2.884711 -3.063896 0.993766
v 2.407309 -0.97498 -0.805091
v 2.036036 -1.57908 -0.967151
v 4.303193 2.347123 -1.044413
v 3.945464 2.1301 0.689536
v 4.533113 1.989009 0.578975
v 5.608974 1.317869 -0.319719
v 5.979357 1.325532 -0.125337
v 4.760921 1.881357 0.61312
v 4.148865 2.148829 0.986567
v 3.967085 2.280648 -0.537643
v 4.187258 2.590221 -0.135844
v 4.474625 2.465214 -0.75189
v 4.411541 2.663824 0.713132
v 5.511556 0.863525 0.177613
v 5.836005 0.945722 0.0010920000000000183
v 4.872539 2.159259 -0.542891
v 5.075994 1.900999 0.443793
v 5.075994 1.900999 -0.443793
v 1.660355 0.019397 1.246002
v -3.424258 0.158638 -0.918279
v -1.576196 -1.696317 0.358146
v 1.737623 -2.485017 0.918334
v 0.021051 -0.831931 1.511548
v -0.536767 -0.14445399999999997 -1.682232
v -1.395501 -0.698702 1.553257
v -3.716312 1.021474 0.057693
v 2.893096 -1.302168 0.332049
v 1.975941 0.827957 1.018423
v -3.569993 -0.731989 -0.649435
v 0.93066 -1.216516 -0.831196
v 3.528445 1.060127 0.489443
v -3.623861 0.911561 0.0
v -2.276341 -0.689823 1.268026
v 3.737014 0.181837 0.176819
v -1.996117 1.387891 1.064104
v 1.462507 1.745481 0.222394
v 0.289039 1.496446 -0.430055
v 2.108912 -0.357128 -1.259691
v 1.428883 -0.98669 1.133905
v -3.240554 -2.555467 -0.856262
v -1.802864 -0.282523 -1.401315
v -3.139394 -1.687482 -0.638546
v -2.930312 1.10358 -1.125876
v -3.529709 -0.065998 0.437217
v -0.626493 1.585426 0.443136
v -1.292756 1.656509 -0.51403
v 4.068249 0.798926 -0.400813
v -2.508885 -1.719933 0.721675
v 1.933899 -3.546253 -0.912438
v -3.327526 -2.075729 1.005328
v -0.953236 -1.545941 0.89918
v 4.036947 1.992167 -1.072561
v -3.742608 -0.729374 -0.149361
v 4.739441 2.299169 -0.369987
v -1.776785 -1.275107 0.914703
v -2.591357 -1.510845 -0.88547
v 2.649413 0.03153500000000001 1.024796
v 2.688131 -0.517509 -0.672975
v 3.009101 1.971604 -0.03422
v 2.347317 1.066114 -0.758763
v 2.910769 -0.638444 0.431191
v -3.734989 1.589433 0.295202
v 1.643403 -2.076583 0.689565
v -3.519086 1.70322 -0.066709
v -2.126375 -1.866497 -0.502895
v 4.354411 2.102985 0.80258
v -3.087335 -3.350463 0.831656
v 1.974215 -1.469208 1.068951
v -4.018866 -1.413191 0.154149
v 1.718315 -2.775468 -0.921796
v 4.104292 2.537976 -0.543437
v 4.79841 1.473149 0.570618
v 2.254361 -3.550931 1.235118
v 4.148883 1.759918 0.573765
v -2.649491 -3.404362 -1.100352
v 1.54175 -1.643613 -1.01419
v 2.229345 -0.992723 0.862826
v -3.053267 -2.764905 1.043008
v 1.960643 -2.71286 0.90089
v 2.111557 -1.376942 -0.89657
v 2.201939 -3.226457 -0.996503
v -3.141072 -2.785287 -1.032318
v 4.366867 1.131136 0.630581
v 5.247762 0.848549 -0.10854599999999998
v 4.430999 1.535753 -0.638888
v 5.672385 1.007694 -0.341778
v 3.967085 2.280648 0.537643
v 5.979357 1.325532 0.125337
v 4.061989 2.231988 1.178382
v 4.74405 2.179337 0.556057
v 4.43261 1.878873 -0.577888
v 4.35668 2.682996 -0.71905
v 4.084506 2.570978 0.218168
v 4.352603 2.524888 0.890532
v 4.656565 2.680542 -0.799684
v 4.369751 2.298204 -0.921894
v 5.06084 2.053335 0.309324
v 4.462368 2.725999 0.882675
v 5.580727 0.99933 0.34986700000000004
v 4.04473 2.254459 -0.744209
v 5.105589 1.864086 -0.347113
v 5.851404 0.929008 0.10536200000000003
v 4.852578 1.889721 0.605031
v 4.852578 1.889721 -0.605031
f 2 3 601
f 3 4 601
f 4 5 601
f 3 5 4
f 6 346 484
f 2 7 3
f 484 442 6
f 6 442 346
f 8 9 11
f 15 12 14
f 15 13 12
f 577 12 16
f 12 13 16
f 15 17 13
f 17 15 14
f 17 14 13
f 8 11 591
f 11 9 591
f 591 9 522
f 665 19 364
f 424 364 19
f 23 22 24
f 22 21 24
f 25 26 27
f 27 29 25
f 27 26 29
f 447 487 576
f 30 649 31
f 29 30 32
f 30 598 32
f 32 598 33
f 30 681 598
f 30 31 681
f 33 29 32
f 649 533 31
f 34 656 328
f 656 34 35
f 429 35 36
f 40 36 39
f 37 36 40
f 38 41 39
f 36 582 39
f 582 42 39
f 39 42 38
f 642 37 582
f 582 40 42
f 40 41 640
f 40 39 41
f 37 40 582
f 46 45 48
f 47 46 48
f 47 48 45
f 45 43 670
f 44 52 47
f 46 47 52
f 46 52 45
f 45 52 43
f 526 51 381
f 526 381 44
f 44 43 52
f 487 598 681
f 50 45 33
f 33 45 29
f 670 50 33
f 45 50 44
f 50 670 43
f 47 53 49
f 53 381 49
f 44 381 53
f 43 44 50
f 602 51 54
f 676 54 51
f 680 54 1
f 352 61 647
f 56 59 58
f 63 62 371
f 411 64 574
f 65 411 525
f 58 59 55
f 371 439 583
f 439 659 583
f 560 411 475
f 59 56 55
f 1 658 2
f 67 574 64
f 66 67 411
f 67 64 411
f 411 65 66
f 66 65 525
f 660 67 563
f 658 1 337
f 68 337 1
f 68 1 461
f 337 68 461
f 422 563 638
f 518 357 384
f 397 70 460
f 349 71 559
f 556 496 624
f 403 73 378
f 624 378 73
f 74 75 461
f 357 76 384
f 75 376 461
f 423 74 461
f 75 74 423
f 566 480 498
f 75 566 376
f 357 460 76
f 384 76 69
f 70 397 72
f 376 72 397
f 403 624 73
f 78 77 575
f 456 433 646
f 466 624 12
f 78 80 77
f 562 79 81
f 562 497 79
f 497 81 79
f 82 336 8
f 81 465 562
f 497 465 81
f 336 82 10
f 326 83 401
f 552 84 643
f 552 86 84
f 568 23 506
f 23 620 21
f 620 358 21
f 21 358 629
f 85 643 568
f 643 85 552
f 83 326 84
f 511 83 84
f 82 8 10
f 47 45 53
f 44 53 45
f 37 429 36
f 37 20 429
f 35 34 328
f 87 89 90
f 92 93 91
f 91 93 530
f 93 94 530
f 90 95 87
f 90 89 95
f 95 89 96
f 94 96 530
f 96 94 93
f 89 87 88
f 97 92 675
f 95 599 521
f 599 95 98
f 530 599 98
f 675 530 98
f 561 98 95
f 675 98 561
f 97 675 96
f 93 92 96
f 96 92 97
f 41 38 87
f 682 87 38
f 87 95 41
f 640 41 95
f 95 521 640
f 22 23 21
f 467 84 86
f 552 467 86
f 105 100 99
f 99 101 105
f 101 102 105
f 103 106 664
f 105 107 100
f 106 108 664
f 108 324 664
f 104 511 103
f 511 84 103
f 591 424 109
f 424 19 109
f 109 110 665
f 665 110 19
f 328 18 112
f 18 111 112
f 328 112 527
f 112 113 527
f 18 527 111
f 527 113 111
f 19 110 114
f 19 115 109
f 114 115 19
f 111 113 116
f 113 117 116
f 112 117 113
f 118 117 112
f 111 116 112
f 116 118 112
f 110 109 115
f 114 110 115
f 116 117 118
f 120 121 119
f 121 123 495
f 120 119 124
f 124 121 120
f 122 549 119
f 125 121 124
f 122 704 126
f 127 125 616
f 127 618 125
f 701 391 123
f 495 123 391
f 126 549 122
f 129 130 450
f 128 353 127
f 130 129 131
f 450 130 131
f 481 332 391
f 133 332 481
f 132 393 481
f 133 529 134
f 136 529 607
f 138 373 139
f 138 137 373
f 606 134 529
f 136 139 529
f 607 139 136
f 140 416 141
f 129 416 140
f 140 141 129
f 131 129 341
f 142 131 143
f 143 131 564
f 143 564 60
f 143 581 142
f 514 352 581
f 128 127 654
f 148 147 145
f 145 146 148
f 148 146 147
f 692 149 150
f 146 128 427
f 152 151 695
f 146 427 491
f 146 491 374
f 149 543 612
f 491 454 543
f 612 154 490
f 154 152 695
f 154 156 152
f 155 396 612
f 452 539 157
f 595 156 154
f 156 151 152
f 157 388 452
f 388 611 452
f 155 692 396
f 692 150 396
f 156 595 695
f 156 695 151
f 539 158 58
f 388 157 539
f 158 610 437
f 160 492 159
f 454 159 492
f 161 538 162
f 367 700 538
f 161 162 163
f 163 164 161
f 367 538 652
f 516 454 491
f 163 166 164
f 163 162 166
f 159 454 160
f 603 538 696
f 167 162 538
f 587 168 355
f 603 696 169
f 169 355 472
f 472 355 367
f 472 167 169
f 161 170 167
f 170 162 167
f 162 170 166
f 171 166 170
f 165 413 144
f 587 367 168
f 355 168 367
f 607 137 139
f 137 138 139
f 134 606 133
f 142 581 131
f 164 166 161
f 161 166 171
f 171 170 161
f 330 165 144
f 352 330 413
f 330 144 413
f 514 61 352
f 61 514 647
f 158 437 58
f 29 45 670
f 577 16 13
f 324 103 84
f 108 103 324
f 328 642 35
f 596 174 172
f 176 175 174
f 174 175 579
f 175 627 579
f 174 627 176
f 596 505 174
f 579 346 661
f 177 178 535
f 181 182 565
f 182 405 565
f 565 180 181
f 621 181 180
f 183 476 580
f 665 440 335
f 665 364 183
f 184 377 474
f 377 185 458
f 185 377 184
f 474 185 184
f 188 189 186
f 191 187 532
f 188 186 192
f 188 192 189
f 190 189 193
f 193 189 192
f 194 594 193
f 194 193 593
f 195 194 593
f 190 187 189
f 187 186 189
f 593 187 191
f 197 187 593
f 593 191 532
f 196 593 532
f 195 593 196
f 194 195 673
f 195 196 673
f 347 198 406
f 199 198 347
f 198 199 201
f 201 203 202
f 204 198 201
f 201 205 204
f 201 202 205
f 200 198 204
f 204 650 200
f 650 204 585
f 205 585 204
f 205 206 585
f 585 201 650
f 362 200 199
f 212 210 211
f 213 622 210
f 211 214 212
f 214 211 359
f 213 210 663
f 215 663 214
f 215 214 359
f 207 210 208
f 622 186 208
f 679 208 186
f 590 211 210
f 208 210 622
f 590 209 211
f 192 213 197
f 359 663 215
f 679 197 213
f 213 208 679
f 173 209 359
f 663 359 207
f 359 209 207
f 213 207 208
f 216 531 407
f 485 668 209
f 359 211 471
f 631 523 218
f 361 524 586
f 661 346 383
f 659 408 217
f 513 479 383
f 634 475 441
f 178 177 219
f 177 351 657
f 219 588 178
f 535 386 220
f 597 535 220
f 597 220 386
f 221 386 588
f 554 469 222
f 559 645 224
f 360 225 550
f 623 226 345
f 226 625 434
f 597 425 228
f 222 223 628
f 229 221 223
f 221 628 223
f 221 229 619
f 386 425 597
f 597 228 216
f 435 173 359
f 216 228 425
f 223 619 229
f 223 222 333
f 503 222 636
f 224 550 399
f 425 623 558
f 623 507 558
f 558 507 426
f 227 569 645
f 226 651 345
f 627 175 176
f 625 344 230
f 625 230 434
f 77 231 575
f 227 575 363
f 227 432 327
f 77 80 231
f 231 80 575
f 635 233 504
f 504 233 232
f 504 232 230
f 232 233 230
f 551 350 457
f 555 234 428
f 555 235 234
f 234 235 428
f 555 644 235
f 235 458 428
f 555 457 404
f 663 207 213
f 406 455 347
f 347 362 199
f 202 206 205
f 237 238 236
f 239 240 242
f 237 236 243
f 237 243 238
f 239 238 244
f 244 238 243
f 245 239 244
f 240 239 245
f 242 245 667
f 243 236 246
f 239 508 238
f 508 236 238
f 247 240 241
f 242 240 247
f 243 246 600
f 600 667 243
f 242 667 600
f 245 242 247
f 240 245 241
f 242 508 239
f 247 241 245
f 203 236 202
f 236 203 246
f 246 203 206
f 246 206 678
f 248 249 250
f 250 249 251
f 251 249 252
f 252 253 254
f 252 254 255
f 248 256 249
f 249 256 252
f 256 257 252
f 252 257 253
f 257 254 253
f 256 259 468
f 468 258 509
f 256 260 259
f 259 261 468
f 468 261 262
f 468 262 258
f 259 262 261
f 262 509 258
f 264 265 100
f 100 265 99
f 102 101 103
f 103 266 104
f 101 267 103
f 103 267 266
f 268 264 263
f 107 264 268
f 264 107 265
f 265 626 99
f 99 626 101
f 626 269 101
f 101 269 267
f 267 270 266
f 626 105 269
f 105 664 269
f 269 664 267
f 102 24 267
f 270 267 108
f 267 24 108
f 107 268 271
f 271 100 107
f 268 653 271
f 653 263 271
f 263 264 271
f 271 264 100
f 263 256 248
f 268 263 248
f 263 260 256
f 268 248 653
f 248 251 252
f 567 260 252
f 653 248 252
f 509 262 567
f 567 252 255
f 567 255 254
f 266 511 104
f 266 578 511
f 476 272 621
f 476 183 272
f 183 621 273
f 621 272 273
f 440 648 274
f 440 275 335
f 275 648 335
f 274 275 440
f 272 276 273
f 273 276 183
f 183 277 272
f 277 276 272
f 274 278 275
f 275 278 648
f 278 279 648
f 648 279 274
f 279 280 274
f 280 278 274
f 277 183 276
f 280 279 278
f 281 282 283
f 282 281 284
f 548 283 285
f 285 283 286
f 283 282 286
f 282 285 286
f 494 417 287
f 128 528 372
f 690 128 394
f 592 672 288
f 128 372 481
f 370 592 288
f 672 370 288
f 541 412 289
f 132 541 289
f 289 393 132
f 291 688 443
f 290 292 420
f 291 443 420
f 420 443 290
f 688 291 420
f 395 488 293
f 293 488 592
f 293 592 395
f 137 547 702
f 547 419 702
f 545 615 419
f 502 341 448
f 502 448 592
f 589 414 477
f 523 683 218
f 331 544 294
f 295 296 613
f 298 297 296
f 297 298 299
f 300 449 613
f 300 613 296
f 301 296 299
f 299 296 297
f 302 296 301
f 302 300 296
f 299 303 301
f 304 301 303
f 301 304 302
f 694 305 449
f 449 305 339
f 694 536 305
f 339 305 306
f 483 339 306
f 307 339 483
f 303 308 304
f 304 296 698
f 613 536 295
f 305 294 544
f 483 501 307
f 483 306 305
f 305 536 294
f 308 296 304
f 308 303 296
f 296 303 298
f 299 298 303
f 302 304 698
f 501 339 307
f 361 309 687
f 310 311 418
f 418 311 542
f 310 418 540
f 313 314 312
f 540 418 315
f 313 689 317
f 316 317 689
f 316 540 315
f 309 361 318
f 309 318 687
f 316 315 604
f 318 316 604
f 390 542 486
f 310 542 311
f 486 540 319
f 320 319 540
f 486 319 320
f 666 486 321
f 609 445 486
f 316 486 445
f 317 609 322
f 609 312 322
f 312 314 322
f 322 314 323
f 318 674 605
f 666 321 316
f 316 321 486
f 608 285 494
f 323 314 313
f 313 317 322
f 313 322 323
f 674 318 586
f 361 586 318
f 181 405 182
f 251 248 250
f 324 266 108
f 648 198 515
f 200 362 198
f 266 270 108
f 106 103 108
f 510 632 380
f 510 404 555
f 14 13 325
f 459 507 426
f 433 401 326
f 433 326 562
f 360 225 327
f 500 569 645
f 8 18 328
f 8 328 10
f 525 411 329
f 383 560 513
f 520 352 330
f 56 330 58
f 690 394 331
f 605 489 666
f 129 391 332
f 482 606 686
f 503 222 333
f 430 399 224
f 49 435 400
f 49 400 630
f 387 665 335
f 409 474 571
f 641 8 336
f 497 398 465
f 563 658 337
f 563 337 638
f 230 233 338
f 369 555 428
f 58 501 339
f 58 339 361
f 524 586 631
f 554 628 222
f 684 448 341
f 141 341 129
f 126 549 342
f 413 691 516
f 372 541 343
f 617 343 284
f 327 462 344
f 327 504 635
f 405 565 345
f 405 345 14
f 435 572 365
f 435 505 173
f 185 455 573
f 185 573 362
f 20 429 557
f 436 409 362
f 70 637 349
f 70 499 624
f 578 511 350
f 467 380 632
f 410 177 351
f 464 588 221
f 57 647 352
f 57 352 583
f 701 127 353
f 701 481 391
f 146 145 354
f 544 483 305
f 454 516 355
f 454 355 160
f 290 546 699
f 290 699 547
f 638 422 553
f 638 553 376
f 10 336 512
f 429 512 557
f 400 471 359
f 400 359 435
f 500 550 360
f 500 360 327
f 584 524 361
f 478 361 58
f 335 387 515
f 335 515 648
f 80 575 363
f 551 432 457
f 325 424 364
f 621 364 183
f 346 572 365
f 346 627 579
f 349 70 366
f 349 366 382
f 437 700 367
f 437 367 165
f 340 554 368
f 340 368 588
f 230 338 369
f 230 633 179
f 287 672 370
f 446 683 218
f 57 583 371
f 411 371 574
f 617 697 372
f 617 372 343
f 135 139 373
f 416 453 545
f 147 146 374
f 147 692 155
f 289 412 375
f 443 546 290
f 556 72 376
f 459 630 334
f 571 458 377
f 571 377 474
f 466 624 378
f 9 641 8
f 639 425 379
f 471 379 334
f 350 457 380
f 350 380 578
f 534 49 381
f 680 602 54
f 71 349 382
f 575 646 78
f 442 346 383
f 525 383 329
f 62 518 384
f 469 570 222
f 179 230 385
f 519 655 180
f 178 588 386
f 178 386 535
f 527 665 387
f 20 436 409
f 58 611 388
f 58 388 539
f 60 414 589
f 475 523 441
f 318 316 666
f 318 666 605
f 126 495 450
f 413 685 352
f 284 343 392
f 494 672 287
f 133 481 393
f 133 607 529
f 146 128 394
f 415 394 331
f 614 488 395
f 614 395 545
f 154 612 396
f 154 396 595
f 357 460 397
f 357 553 422
f 336 497 398
f 620 568 23
f 333 430 399
f 333 399 223
f 334 630 400
f 334 400 471
f 80 433 401
f 80 551 363
f 225 550 402
f 225 623 226
f 499 624 403
f 456 562 433
f 380 457 404
f 380 404 510
f 621 181 405
f 325 405 14
f 179 455 406
f 580 648 440
f 485 668 407
f 485 407 677
f 469 217 408
f 62 439 371
f 470 571 409
f 348 409 20
f 340 351 410
f 631 441 523
f 57 371 411
f 57 411 647
f 343 392 412
f 343 412 541
f 126 685 413
f 126 413 691
f 564 60 414
f 341 414 502
f 146 394 415
f 146 544 354
f 686 482 416
f 686 416 453
f 285 494 417
f 451 690 128
f 339 542 418
f 687 604 318
f 614 547 419
f 614 419 545
f 137 292 420
f 137 420 688
f 155 612 421
f 155 421 147
f 660 563 422
f 660 422 357
f 676 54 423
f 676 423 480
f 13 577 424
f 13 424 325
f 223 619 425
f 223 425 402
f 334 459 426
f 334 426 379
f 654 128 427
f 654 427 491
f 185 458 428
f 185 428 455
f 656 35 429
f 10 429 512
f 503 333 430
f 460 637 70
f 23 24 431
f 23 431 506
f 363 227 432
f 363 432 551
f 78 646 433
f 78 433 80
f 655 180 434
f 385 434 230
f 5 572 435
f 534 435 49
f 387 20 436
f 387 436 362
f 330 58 437
f 330 437 165
f 535 177 438
f 172 579 174
f 408 62 439
f 408 439 659
f 183 580 440
f 183 440 665
f 410 340 441
f 513 441 634
f 7 484 442
f 7 442 383
f 289 393 443
f 289 443 546
f 211 209 444
f 211 531 471
f 317 316 445
f 317 445 609
f 287 683 446
f 287 537 605
f 29 26 447
f 29 447 30
f 395 592 448
f 395 448 684
f 331 294 449
f 489 542 390
f 391 495 450
f 391 450 129
f 285 690 451
f 285 451 282
f 147 611 452
f 147 452 671
f 373 137 453
f 373 453 135
f 153 543 454
f 153 454 421
f 633 179 455
f 369 455 428
f 366 382 456
f 499 456 403
f 233 635 457
f 233 457 555
f 24 571 458
f 510 644 555
f 14 507 459
f 14 556 496
f 69 637 460
f 69 460 76
f 54 1 461
f 54 461 423
f 225 327 462
f 225 462 226
f 336 398 463
f 336 463 512
f 368 588 464
f 368 628 554
f 326 562 465
f 643 465 568
f 9 641 466
f 9 577 522
f 662 84 467
f 662 467 380
f 669 256 468
f 669 468 509
f 62 408 469
f 62 469 570
f 348 409 470
f 557 629 512
f 216 531 471
f 639 471 379
f 652 367 472
f 161 472 167
f 71 559 473
f 575 473 227
f 362 185 474
f 362 474 409
f 60 389 475
f 647 475 411
f 180 580 476
f 180 476 621
f 370 414 477
f 370 683 287
f 55 58 478
f 55 584 524
f 177 410 479
f 177 661 438
f 49 526 480
f 49 480 630
f 353 128 481
f 353 481 701
f 129 332 482
f 129 482 416
f 693 501 483
f 354 483 544
f 3 7 484
f 3 484 5
f 173 677 485
f 173 485 209
f 310 542 486
f 310 486 540
f 26 598 487
f 26 487 447
f 375 412 488
f 546 488 699
f 331 690 489
f 331 489 542
f 149 612 490
f 149 695 150
f 342 549 491
f 342 491 516
f 539 454 492
f 610 700 437
f 453 137 493
f 453 493 545
f 284 703 494
f 284 494 392
f 119 121 495
f 704 495 126
f 12 14 496
f 12 496 624
f 378 403 641
f 378 641 466
f 376 566 498
f 376 498 556
f 366 70 499
f 366 499 456
f 224 550 500
f 224 500 645
f 611 693 501
f 611 501 58
f 370 414 502
f 370 502 592
f 69 430 503
f 69 503 636
f 344 327 504
f 344 504 230
f 365 174 505
f 365 505 435
f 85 552 506
f 85 506 568
f 345 623 507
f 345 507 14
f 202 236 678
f 202 678 206
f 254 669 509
f 254 509 567
f 24 644 510
f 24 510 632
f 551 350 511
f 401 511 83
f 358 463 512
f 358 512 629
f 410 441 513
f 410 513 479
f 143 647 514
f 143 514 581
f 362 387 515
f 362 515 198
f 165 367 587
f 165 587 413
f 71 382 517
f 71 517 473
f 63 62 518
f 574 660 67
f 179 655 519
f 179 580 648
f 56 659 520
f 56 520 330
f 38 682 521
f 38 521 640
f 424 577 522
f 424 522 591
f 389 475 523
f 389 523 477
f 217 659 524
f 217 524 631
f 7 383 525
f 658 525 66
f 47 49 526
f 47 526 44
f 642 328 527
f 20 527 387
f 451 282 528
f 451 528 128
f 135 606 529
f 135 529 139
f 89 88 530
f 89 530 96
f 444 407 531
f 444 531 211
f 190 187 532
f 673 532 196
f 681 31 533
f 28 576 487
f 5 601 534
f 5 534 435
f 677 597 535
f 172 535 438
f 302 694 536
f 302 536 698
f 446 287 537
f 446 537 218
f 160 700 538
f 160 538 696
f 421 454 539
f 671 539 452
f 312 320 540
f 689 540 316
f 481 372 541
f 481 541 132
f 449 331 542
f 449 542 339
f 374 147 543
f 374 543 491
f 415 146 544
f 415 544 331
f 141 416 545
f 684 545 395
f 375 289 546
f 375 546 488
f 292 137 547
f 292 547 290
f 281 283 548
f 703 608 494
f 124 119 549
f 124 616 125
f 223 399 550
f 223 550 402
f 401 80 551
f 401 551 511
f 632 467 552
f 431 552 506
f 397 357 553
f 397 553 376
f 217 469 554
f 217 554 340
f 338 233 555
f 338 555 369
f 459 630 556
f 459 556 14
f 348 629 557
f 348 557 20
f 379 425 558
f 379 558 426
f 637 349 559
f 430 559 224
f 329 411 560
f 329 560 383
f 96 95 561
f 96 561 675
f 403 456 562
f 403 562 497
f 66 67 563
f 66 563 658
f 341 414 564
f 341 564 131
f 434 180 565
f 434 651 226
f 423 480 566
f 423 566 75
f 259 260 567
f 259 567 262
f 398 465 568
f 398 568 463
f 327 227 569
f 327 569 500
f 384 62 570
f 384 636 69
f 21 470 571
f 21 571 24
f 484 5 572
f 484 572 346
f 347 455 573
f 347 573 362
f 63 371 574
f 63 574 660
f 517 382 575
f 517 575 473
f 533 649 576
f 533 576 28
f 466 9 577
f 466 577 12
f 324 266 578
f 324 662 84
f 438 172 579
f 438 579 661
f 519 179 580
f 519 580 180
f 450 131 581
f 450 581 126
f 35 36 582
f 35 582 642
f 520 659 583
f 520 583 352
f 478 361 584
f 478 584 55
f 203 206 585
f 203 585 201
f 218 631 586
f 218 586 537
f 516 355 587
f 516 587 413
f 351 340 588
f 351 588 657
f 389 60 589
f 389 589 477
f 207 209 590
f 207 590 210
f 18 8 591
f 18 665 527
f 412 392 592
f 412 592 488
f 192 193 593
f 192 593 197
f 190 532 594
f 190 594 193
f 150 396 595
f 150 595 695
f 173 172 596
f 173 596 505
f 407 216 597
f 407 597 677
f 25 26 598
f 670 598 33
f 682 521 599
f 88 599 530
f 508 242 600
f 678 600 246
f 1 2 601
f 1 601 534
f 381 51 602
f 381 602 534
f 167 538 603
f 167 603 169
f 418 687 604
f 418 604 315
f 417 287 605
f 690 605 489
f 332 133 606
f 332 606 482
f 393 133 607
f 393 607 137
f 548 285 608
f 548 608 703
f 320 486 609
f 320 609 312
f 539 158 610
f 539 610 492
f 145 354 611
f 145 611 147
f 153 543 612
f 153 612 421
f 294 536 613
f 294 613 449
f 356 488 614
f 356 614 547
f 493 137 615
f 493 615 545
f 549 124 616
f 549 616 491
f 282 697 617
f 282 617 284
f 121 125 618
f 121 618 123
f 386 221 619
f 386 619 425
f 463 568 620
f 463 620 358
f 325 364 621
f 325 621 405
f 192 213 622
f 192 622 186
f 402 225 623
f 402 623 425
f 72 70 624
f 72 624 556
f 462 344 625
f 462 625 226
f 107 265 626
f 107 626 105
f 365 346 627
f 365 627 174
f 464 221 628
f 464 628 368
f 470 21 629
f 470 629 348
f 498 556 630
f 498 630 480
f 340 217 631
f 340 631 441
f 431 552 632
f 431 632 24
f 369 230 633
f 369 633 455
f 560 513 634
f 560 634 475
f 432 327 635
f 432 635 457
f 570 384 636
f 570 636 222
f 430 69 637
f 430 637 559
f 461 337 638
f 461 638 376
f 216 425 639
f 216 639 471
f 42 40 640
f 42 640 38
f 497 403 641
f 497 641 336
f 20 37 642
f 20 642 527
f 326 465 643
f 326 643 84
f 458 24 644
f 458 644 235
f 473 559 645
f 473 645 227
f 382 575 646
f 382 646 456
f 60 475 647
f 60 647 143
f 406 179 648
f 406 648 198
f 447 576 649
f 447 649 30
f 199 201 650
f 199 650 200
f 565 434 651
f 565 651 345
f 161 538 652
f 161 652 472
f 260 252 653
f 260 653 263
f 616 127 654
f 616 654 491
f 385 179 655
f 385 655 434
f 10 328 656
f 10 656 429
f 219 588 657
f 219 657 177
f 7 2 658
f 7 658 525
f 55 56 659
f 55 659 524
f 518 63 660
f 518 660 357
f 479 177 661
f 479 661 383
f 578 324 662
f 578 662 380
f 212 210 663
f 212 663 214
f 102 103 664
f 102 664 105
f 591 18 665
f 591 665 109
f 390 486 666
f 390 666 489
f 244 243 667
f 244 667 245
f 444 407 668
f 444 668 209
f 257 256 669
f 257 669 254
f 25 29 670
f 25 670 598
f 421 539 671
f 421 671 147
f 392 494 672
f 392 672 592
f 594 194 673
f 594 673 532
f 537 605 674
f 537 674 586
f 91 92 675
f 91 675 530
f 526 480 676
f 526 676 51
f 172 535 677
f 172 677 173
f 508 236 678
f 508 678 600
f 187 186 679
f 187 679 197
f 534 1 680
f 534 680 602
f 28 487 681
f 28 681 533
f 88 87 682
f 88 682 599
f 477 370 683
f 477 683 523
f 141 545 684
f 141 684 341
f 581 126 685
f 581 685 352
f 135 453 686
f 135 686 606
f 339 361 687
f 339 687 418
f 393 443 688
f 393 688 137
f 312 540 689
f 312 689 313
f 417 285 690
f 417 690 605
f 342 126 691
f 342 691 516
f 543 147 692
f 543 692 149
f 354 611 693
f 354 693 483
f 300 302 694
f 300 694 449
f 490 149 695
f 490 695 154
f 355 160 696
f 355 696 169
f 528 282 697
f 528 697 372
f 295 296 698
f 295 698 536
f 356 547 699
f 356 699 488
f 492 610 700
f 492 700 160
f 618 127 701
f 618 701 123
f 615 137 702
f 615 702 419
f 281 548 703
f 281 703 284
f 119 495 704
f 119 704 122
