v 2.229345 -0.992723 -0.862826
v 2.5392 -0.727778 -0.750475
v 2.669281 -0.930664 -0.557166
v 2.514167 -1.077721 -0.706614
v 2.318787 -1.29409 -0.673863
v 2.960118 -0.941827 -0.284743
v 2.881063 -0.493146 -0.521968
v -2.033406 -0.91003 -0.96422
v -1.782298 -1.020581 -0.943381
v -2.462835 -1.3055 -0.966395
v -2.049879 -1.562369 -0.829319
v -1.200688 -1.577575 -0.799188
v -0.972089 -1.774507 -0.76857
v -0.063012 -1.583021 -0.865082
v -0.543078 -1.810473 -0.563825
v -1.108758 -1.770749 -0.473033
v -0.523838 -1.850065 -0.388007
v -2.267049 -1.753901 -0.662106
v -1.88316 -1.829718 -0.401567
v -2.941731 -1.787431 -0.442574
v -3.616627 -0.350374 -0.338492
v -3.570243 -0.060093 -0.344854
v -3.535416 0.191408 -0.338478
v -3.55232 0.219613 0.0
v 1.734568 -2.965876 -0.986396
v 1.802387 -3.089615 -0.961851
v 1.721745 -3.116887 -0.979111
v 2.247981 -3.342804 -1.127459
v 1.709173 -3.133145 -0.80794
v 1.900481 -3.131932 -0.728621
v 2.126553 -3.549679 -0.701005
v 1.857471 -2.950722 -0.669988
v 1.884318 -2.724404 -0.701999
v -2.837147 -1.791733 -0.921563
v -2.918293 -1.904184 -1.004659
v -3.23261 -1.834299 -1.087832
v -3.49052 -1.760417 -0.903104
v -3.078699 -2.553982 -1.046834
v -3.177824 -2.279173 -1.04758
v -3.327526 -2.075729 -1.005328
v -3.347304 -2.573628 -0.955211
v -3.030605 -2.311222 -0.88433
v 1.953911 -2.462233 -0.830594
v 1.98533 -2.221319 -0.893145
v 1.678986 -2.513137 -0.891745
v 1.648793 -2.280014 -0.929365
v 1.6249 -2.087301 -0.963391
v 1.60129 -2.267132 -0.787696
v 1.473886 -1.818947 -0.799576
v 1.756349 -2.446399 -0.705428
v 1.804927 -1.581954 -1.089198
v 1.818266 -2.313852 -0.968652
v 1.945206 -2.015769 -0.672724
v 1.966698 -1.22816 -1.153716
v 3.233975 2.059193 -0.072431
v 3.276333 1.863773 -0.294266
v 3.528445 1.060127 -0.489443
v 3.71636 2.343387 0.0
v 3.4583 2.151656 -0.102662
v 4.120842 0.627141 -0.185461
v 4.041657 1.039756 -0.496922
v 2.361089 1.76666 -0.202595
v 2.637461 1.01726 -0.581611
v 2.811504 0.469098 -0.657443
v 2.91987 0.084875 -0.64246
v 2.734183 0.038769 -0.86581
v 2.70696 0.393597 -0.849582
v 2.346081 -0.74535 -1.013296
v 0.737904 1.604213 -0.281713
v 0.316341 0.785311 -1.08626
v -0.559706 1.69418 -0.186107
v 0.034087 -0.225059 -1.542949
v -1.053434 -0.342553 -1.690245
v 1.644178 -0.857872 -1.208494
v 1.640095 -0.674556 -1.246804
v 1.504951 1.483493 -0.585976
v -1.683863 1.789041 -0.121501
v -1.744732 1.734849 -0.433807
v -2.030191 0.547622 -1.189762
v -2.079597 1.817785 -0.138375
v -2.298249 0.768333 -1.203884
v -2.292049 -0.933921 -1.128136
v -3.08565 1.65734 -0.784479
v -3.35851 1.810253 -0.380095
v -3.19641 0.797564 -0.985913
v -3.709741 1.351194 -0.211745
v -3.302419 -3.017921 -1.128514
v -3.107105 -2.947818 -1.092235
v -3.227676 -3.14166 -1.103969
v -3.316551 -3.168932 -1.121229
v -2.736599 -3.394849 -1.269577
v -2.631547 -3.559891 -1.33738
v -2.981824 -3.608887 -1.346959
v -3.091252 -3.340925 -1.235864
v -3.333954 -3.058673 -0.974748
v -3.19417 -3.348553 -1.007196
v -2.52472 -3.561609 -1.161535
v -2.944625 -3.282121 -0.817054
v -3.900566 1.002504 0.0
v -3.84447 0.498176 -0.053132
v -3.87514 1.480358 0.0
v -3.712832 1.794492 0.0
v -3.47843 1.975409 0.0
v -3.242148 2.021387 0.0
v -3.80184 1.012668 -0.115288
v -3.357009 1.781675 -0.071216
v -3.674766 0.517345 -6.3e-05
v -3.348274 1.767738 -8.5e-05
v -2.03574 -1.981182 -0.547873
v -2.120746 -2.045137 -0.411171
v -2.499138 -2.03809 -0.504529
v -2.571019 -1.995375 -0.58623
v -2.685663 -2.028649 -0.514928
v -2.065655 -2.124623 -0.36872
v -1.978016 -2.086834 -0.494327
v -2.552923 -2.142304 -0.454579
v -2.629199 -2.138983 -0.436227
v -2.583303 -2.089191 -0.577616
v 4.897808 1.946794 -0.628057
v 4.973133 1.992779 -0.533466
v 5.001903 1.914398 -0.486724
v 4.760921 1.881357 -0.61312
v 4.963546 1.783161 -0.553515
v 4.918466 2.084725 -0.532713
v 5.00244 2.105746 -0.468233
v 4.752337 1.723388 -0.591296
v 4.995978 2.148785 -0.344534
v 4.912303 2.162645 -9e-05
v 5.158322 1.23677 -0.418043
v 4.761601 1.363013 -0.57137
v 4.733657 1.227371 -0.592883
v 5.588763 1.573846 0.000686
v 5.730427 1.435668 -0.209848
v 5.710154 1.360653 -0.290072
v 5.672187 1.164767 -0.35408
v 5.931474 1.233483 -0.215613
v 5.92711 1.131195 0.001118
v 5.923808 1.025283 -0.153084
v 5.959462 1.157227 -0.187097
v 5.370709 0.980272 -0.337432
v 5.373646 0.885375 -0.20884
v 4.567896 1.149805 -0.642484
v 4.496191 1.024566 -0.579491
v 4.148883 1.759918 -0.573765
v 4.342351 2.581176 -0.140317
v 4.454962 2.523303 -0.000603
v 4.209941 2.600612 -0.337597
v 4.328606 2.563996 -0.343892
v 4.47609 2.606654 -0.692301
v 4.509555 2.719807 -0.819972
v 4.801436 2.750224 -0.858918
v 5.096148 2.75972 -0.774729
v 4.440713 2.398472 -0.629128
v 4.681847 2.551036 -0.886235
v 4.262798 2.490674 -0.818316
v 4.735139 2.645464 -0.95089
v 4.035753 2.399538 -0.343957
v 3.870548 2.292106 -0.368964
v 4.273005 2.310529 -0.762172
v 4.215419 2.350484 -0.885764
v 4.061989 2.231988 -1.178382
v 4.097362 2.3666 -1.239986
v 4.094116 2.426172 -1.381032
v 4.046673 2.341349 -1.45253
v 4.094112 1.889281 -0.578435
v 4.148927 2.388726 -1.376879
v 4.199317 2.304652 -1.17454
v 4.153175 2.084823 -0.799668
v 4.148865 2.148829 -0.986567
v 4.11268 2.195089 -1.366908
v 4.111934 2.234814 -1.399949
v 2.407309 -0.97498 0.805091
v 2.126237 -1.330172 0.721011
v 2.45706 -1.400958 0.539866
v 2.803736 -1.255869 0.438328
v 2.663024 -1.440487 0.478149
v 2.835437 -0.231101 0.57789
v 2.688131 -0.517509 0.672975
v -2.306662 -1.116976 0.961238
v -1.778934 -1.550199 0.776454
v -1.266738 -1.691944 0.557922
v -1.108758 -1.770749 0.473033
v -2.126375 -1.866497 0.502895
v -3.55012 -0.984868 0.675228
v -3.283698 -0.730967 0.793898
v 1.806371 -2.949735 0.984058
v 2.021366 -2.881725 0.945561
v 1.721745 -3.116887 0.979111
v 1.802387 -3.089615 0.961851
v 2.031262 -3.256709 1.111122
v 2.113587 -3.011851 0.851648
v 1.709173 -3.133145 0.80794
v 1.83279 -3.296508 0.865078
v 2.078928 -3.584991 0.917088
v 2.126553 -3.549679 0.701005
v 2.377814 -3.484109 0.800332
v 1.841282 -2.716008 0.708009
v -2.918293 -1.904184 1.004659
v -3.23261 -1.834299 1.087832
v -3.498521 -1.762078 0.762472
v -3.068444 -2.260195 1.03507
v -3.162498 -2.556375 1.058409
v -3.347304 -2.573628 0.955211
v -2.981187 -2.142718 0.858353
v -3.030605 -2.311222 0.88433
v -3.132772 -2.528669 0.848639
v 2.02453 -2.195334 0.811284
v 1.930747 -2.463535 0.894743
v 2.053108 -1.738285 0.824853
v 1.710406 -2.272223 0.954296
v 1.717145 -1.80953 1.004092
v 1.529305 -2.092083 0.887353
v 1.663494 -2.485963 0.790773
v 1.473886 -1.818947 0.799576
v 1.596751 -1.722028 0.684655
v 1.601721 -1.262359 1.14142
v 3.115383 1.49239 0.380228
v 3.98851 1.297806 0.539537
v 2.60743 -0.208248 0.974218
v 2.346081 -0.74535 1.013296
v 2.0817 0.283249 1.259461
v 1.859443 1.450393 0.632222
v 0.939271 0.379986 1.185872
v -0.406155 1.005088 0.971088
v -0.536767 -0.144454 1.682232
v -0.487217 -1.193519 1.504026
v -1.292756 1.656509 0.51403
v 1.644178 -0.857872 1.208494
v 1.63008 0.420236 1.172369
v -1.79513 0.033439 1.37116
v -1.683863 1.789041 0.121501
v -2.030191 0.547622 1.189762
v -2.296056 1.06281 1.171139
v -3.160225 -0.018852 1.113626
v -3.424258 0.158638 0.918279
v -3.223286 -3.00178 1.126176
v -3.316551 -3.168932 1.121229
v -3.227676 -3.14166 1.103969
v -2.975439 -3.308754 1.25324
v -2.856957 -3.449728 1.356844
v -2.729567 -3.602976 1.377236
v -2.787341 -3.278502 1.138621
v -3.330406 -3.18519 0.950058
v -3.19417 -3.348553 1.007196
v -2.922908 -3.637036 1.059206
v -3.256731 -3.032131 0.849693
v -2.52472 -3.561609 1.161535
v -3.67645 -0.551317 0.077574
v -3.72947 -0.869371 0.096946
v -3.699784 -0.759901 0.088664
v -3.697889 -0.951955 0.098793
v -3.733767 -1.141917 0.111139
v -3.743747 -1.367219 0.100951
v -3.823638 -1.557534 0.081533
v -3.828485 -1.786559 -0.114095
v -3.805841 -0.798961 0.099237
v -3.884588 -1.261469 0.148322
v -4.297769 -1.889903 0.177707
v -4.227645 -1.227895 0.069894
v -3.921874 -0.538502 -0.145307
v -4.252683 -1.437854 -0.14562
v -4.331331 -1.69259 -0.043593
v -3.86074 -0.188349 -0.024962
v -3.81743 0.150343 0.048629
v -3.84447 0.498176 0.053132
v -3.469715 1.961504 0.071141
v -3.660928 1.770041 0.115431
v -3.75063 -0.191863 0.063305
v -3.675638 1.471512 0.062201
v -3.357009 1.781675 0.071216
v -3.67251 0.16663 -0.048579
v -1.971059 -1.992958 0.500845
v -2.120746 -2.045137 0.411171
v -2.513608 -2.012858 0.558673
v -2.539874 -2.049824 0.460098
v -1.985123 -2.116661 0.394256
v -1.978016 -2.086834 0.494327
v -2.513187 -2.130859 0.49792
v -2.629199 -2.138983 0.436227
v -2.583303 -2.089191 0.577616
v 4.925499 1.917814 0.613413
v 5.001903 1.914398 0.486724
v 4.973133 1.992779 0.533466
v 4.963546 1.783161 0.553515
v 4.918466 2.084725 0.532713
v 5.00244 2.105746 0.468233
v 4.615408 1.639641 0.577768
v 4.761601 1.363013 0.57137
v 5.566339 1.498677 0.190905
v 5.672187 1.164767 0.35408
v 5.931474 1.233483 0.215613
v 5.85775 0.997026 0.236768
v 5.370709 0.980272 0.337432
v 4.359483 2.615839 0.596817
v 4.546655 2.709095 0.80378
v 4.59262 2.569879 0.790452
v 4.821336 2.621498 0.789636
v 4.801436 2.750224 0.858918
v 5.096148 2.75972 0.774729
v 4.382053 2.433474 0.798757
v 4.681847 2.551036 0.886235
v 4.497719 2.54748 0.937659
v 4.854957 2.660227 0.92431
v 4.615662 2.63387 0.977986
v 4.138687 2.474013 0.642311
v 4.088356 2.510913 0.453793
v 4.035753 2.399538 0.343957
v 4.753015 2.699695 0.973279
v 3.857922 2.141554 0.521067
v 4.215419 2.350484 0.885764
v 4.273005 2.310529 0.762172
v 4.097362 2.3666 1.239986
v 4.058311 2.293363 1.338054
v 4.094116 2.426172 1.381032
v 4.022592 2.123052 0.903284
v 4.036947 1.992167 1.072561
v 4.103303 2.038565 1.363737
v 3.966639 1.969285 0.549291
v 4.303193 2.347123 1.044413
v 4.211815 2.28249 1.039137
v 4.153175 2.084823 0.799668
v 4.11268 2.195089 1.366908
v 4.111934 2.234814 1.399949
v -3.507689 1.700214 0.0
v -0.956007 -1.825728 0.0
v -2.68493 1.262021 -1.11049
v -1.551526 1.400025 1.050193
v -2.734184 -1.717948 -0.749581
v 3.36004 0.16548699999999994 -0.412685
v 3.881998 1.764428 -0.476337
v 4.472349 2.325133 0.443764
v 5.528186 1.44018 -0.250666
f 2 3 1
f 3 4 1
f 4 5 1
f 3 5 4
f 6 5 3
f 2 7 3
f 3 7 6
f 6 7 5
f 8 9 11
f 15 12 14
f 15 13 12
f 9 12 16
f 12 13 16
f 15 17 13
f 17 15 14
f 17 14 13
f 8 11 18
f 11 9 18
f 18 9 13
f 18 19 325
f 13 325 19
f 23 22 24
f 22 21 24
f 25 26 27
f 27 29 25
f 27 26 29
f 29 26 28
f 30 29 31
f 29 30 32
f 30 25 32
f 32 25 33
f 30 28 25
f 30 31 28
f 33 29 32
f 29 28 31
f 34 10 328
f 10 34 35
f 10 35 36
f 40 36 39
f 37 36 40
f 38 41 39
f 36 35 39
f 35 42 39
f 39 42 38
f 20 37 35
f 35 40 42
f 40 41 42
f 40 39 41
f 37 40 35
f 46 45 48
f 47 46 48
f 47 48 45
f 45 43 25
f 44 52 47
f 46 47 52
f 46 52 45
f 45 52 43
f 47 51 5
f 47 5 44
f 44 43 52
f 26 25 28
f 50 45 33
f 33 45 29
f 25 50 33
f 45 50 44
f 50 25 43
f 47 53 49
f 53 5 49
f 44 5 53
f 43 44 50
f 5 51 54
f 47 54 51
f 5 54 1
f 57 61 60
f 56 59 58
f 63 62 57
f 57 64 63
f 65 57 7
f 58 59 55
f 57 62 56
f 62 55 56
f 329 57 60
f 59 56 55
f 1 7 2
f 67 63 64
f 66 67 57
f 67 64 57
f 57 65 66
f 66 65 7
f 63 67 66
f 7 1 66
f 68 66 1
f 68 1 54
f 66 68 54
f 63 66 54
f 63 54 62
f 54 70 69
f 70 71 69
f 14 12 72
f 70 73 9
f 72 9 73
f 74 75 54
f 54 76 62
f 75 14 54
f 47 74 54
f 75 74 47
f 47 49 14
f 75 47 14
f 54 69 76
f 62 76 69
f 70 54 72
f 14 72 54
f 70 72 73
f 78 77 71
f 70 78 71
f 9 72 12
f 78 80 77
f 70 79 81
f 70 9 79
f 9 81 79
f 82 9 8
f 81 326 70
f 9 326 81
f 9 82 10
f 326 83 80
f 23 84 326
f 23 86 84
f 9 23 85
f 23 9 21
f 9 10 21
f 21 10 20
f 85 326 9
f 326 85 23
f 83 326 84
f 80 83 84
f 82 8 10
f 47 45 53
f 44 53 45
f 37 10 36
f 37 20 10
f 35 34 328
f 87 89 90
f 92 93 91
f 91 93 89
f 93 94 89
f 90 95 87
f 90 89 95
f 95 89 96
f 94 96 89
f 96 94 93
f 89 87 88
f 97 92 91
f 95 88 38
f 88 95 98
f 89 88 98
f 91 89 98
f 96 98 95
f 91 98 96
f 97 91 96
f 93 92 96
f 96 92 97
f 41 38 87
f 88 87 38
f 87 95 41
f 42 41 95
f 95 38 42
f 22 23 21
f 324 84 86
f 23 324 86
f 105 100 99
f 99 101 105
f 101 102 105
f 103 106 102
f 105 107 100
f 106 108 102
f 108 324 102
f 104 80 103
f 80 84 103
f 18 13 109
f 13 19 109
f 109 110 18
f 18 110 19
f 328 18 112
f 18 111 112
f 328 112 20
f 112 113 20
f 18 20 111
f 20 113 111
f 19 110 114
f 19 115 109
f 114 115 19
f 111 113 116
f 113 117 116
f 112 117 113
f 118 117 112
f 111 116 112
f 116 118 112
f 110 109 115
f 114 110 115
f 116 117 118
f 120 121 119
f 121 123 119
f 120 119 124
f 124 121 120
f 122 124 119
f 125 121 124
f 122 119 126
f 127 125 124
f 127 121 125
f 121 126 123
f 119 123 126
f 126 124 122
f 129 130 126
f 128 121 127
f 130 129 131
f 126 130 131
f 121 332 126
f 133 332 121
f 132 133 121
f 133 135 134
f 136 135 133
f 138 135 139
f 138 137 135
f 332 134 135
f 136 139 135
f 133 139 136
f 140 135 141
f 129 135 140
f 140 141 129
f 131 129 141
f 142 131 143
f 143 131 141
f 143 141 60
f 143 126 142
f 143 57 126
f 128 127 124
f 148 147 145
f 145 146 148
f 148 146 147
f 147 149 150
f 146 128 124
f 152 151 149
f 146 124 126
f 146 126 147
f 149 147 153
f 126 153 147
f 153 154 149
f 154 152 149
f 154 156 152
f 155 154 153
f 147 155 157
f 150 156 154
f 156 151 152
f 157 58 147
f 58 145 147
f 155 147 154
f 147 150 154
f 156 150 149
f 156 149 151
f 155 158 58
f 58 157 155
f 158 155 330
f 160 155 159
f 153 159 155
f 161 160 162
f 330 155 160
f 161 162 163
f 163 164 161
f 330 160 161
f 165 153 126
f 163 166 164
f 163 162 166
f 159 153 160
f 167 160 153
f 167 162 160
f 165 168 153
f 167 153 169
f 169 153 161
f 161 153 330
f 161 167 169
f 161 170 167
f 170 162 167
f 162 170 166
f 171 166 170
f 165 126 144
f 165 330 168
f 153 168 330
f 133 137 139
f 137 138 139
f 134 332 133
f 142 126 131
f 164 166 161
f 161 166 171
f 171 170 161
f 330 165 144
f 57 330 126
f 330 144 126
f 143 61 57
f 61 143 60
f 158 330 58
f 29 45 25
f 9 16 13
f 324 103 84
f 108 103 324
f 328 20 35
f 173 174 172
f 176 175 174
f 174 175 172
f 175 5 172
f 174 5 176
f 173 5 174
f 172 5 177
f 177 178 172
f 181 182 179
f 182 325 179
f 179 180 181
f 325 181 180
f 183 180 179
f 18 183 20
f 18 325 183
f 184 21 20
f 21 185 24
f 185 21 184
f 20 185 184
f 188 189 186
f 191 187 190
f 188 186 192
f 188 192 189
f 190 189 193
f 193 189 192
f 194 190 193
f 194 193 192
f 195 194 192
f 190 187 189
f 187 186 189
f 192 187 191
f 197 187 192
f 192 191 190
f 196 192 190
f 195 192 196
f 194 195 190
f 195 196 190
f 185 198 179
f 199 198 185
f 198 199 201
f 201 203 202
f 204 198 201
f 201 205 204
f 201 202 205
f 200 198 204
f 204 199 200
f 199 204 203
f 205 203 204
f 205 206 203
f 203 201 199
f 20 200 199
f 212 210 211
f 213 192 210
f 211 214 212
f 214 211 49
f 213 210 212
f 215 212 214
f 215 214 49
f 207 210 208
f 192 186 208
f 187 208 186
f 207 211 210
f 208 210 192
f 207 209 211
f 192 213 197
f 49 212 215
f 187 197 213
f 213 208 187
f 173 209 49
f 212 49 207
f 49 209 207
f 213 207 208
f 216 211 173
f 173 211 209
f 49 211 216
f 217 60 218
f 55 217 218
f 177 5 7
f 55 62 217
f 217 177 7
f 329 60 217
f 178 177 219
f 177 217 219
f 219 217 178
f 172 178 220
f 173 172 220
f 173 220 178
f 221 178 217
f 217 62 222
f 69 71 224
f 224 225 223
f 225 226 325
f 226 225 179
f 173 223 228
f 222 223 217
f 229 221 223
f 221 217 223
f 221 229 178
f 178 223 173
f 173 228 216
f 5 173 49
f 216 228 223
f 223 178 229
f 223 222 69
f 69 222 62
f 224 223 69
f 223 225 216
f 225 325 216
f 216 325 49
f 227 327 71
f 226 179 325
f 5 175 176
f 225 327 230
f 225 230 179
f 77 231 71
f 227 71 80
f 227 80 327
f 77 80 231
f 231 80 71
f 80 233 327
f 327 233 232
f 327 232 230
f 232 233 230
f 80 324 233
f 230 234 185
f 230 235 234
f 234 235 185
f 230 24 235
f 235 24 185
f 230 233 324
f 212 207 213
f 179 230 185
f 185 20 199
f 202 206 205
f 237 238 236
f 239 240 242
f 237 236 243
f 237 243 238
f 239 238 244
f 244 238 243
f 245 239 244
f 240 239 245
f 242 245 244
f 243 236 246
f 239 202 238
f 202 236 238
f 247 240 241
f 242 240 247
f 243 246 202
f 202 244 243
f 242 244 202
f 245 242 247
f 240 245 241
f 242 202 239
f 247 241 245
f 203 236 202
f 236 203 246
f 246 203 206
f 246 206 202
f 248 249 250
f 250 249 251
f 251 249 252
f 252 253 254
f 252 254 255
f 248 256 249
f 249 256 252
f 256 257 252
f 252 257 253
f 257 254 253
f 256 259 257
f 257 258 254
f 256 260 259
f 259 261 257
f 257 261 262
f 257 262 258
f 259 262 261
f 262 254 258
f 264 265 100
f 100 265 99
f 102 101 103
f 103 266 104
f 101 267 103
f 103 267 266
f 268 264 263
f 107 264 268
f 264 107 265
f 265 107 99
f 99 107 101
f 107 269 101
f 101 269 267
f 267 270 266
f 107 105 269
f 105 102 269
f 269 102 267
f 102 24 267
f 270 267 108
f 267 24 108
f 107 268 271
f 271 100 107
f 268 260 271
f 260 263 271
f 263 264 271
f 271 264 100
f 263 256 248
f 268 263 248
f 263 260 256
f 268 248 260
f 248 251 252
f 259 260 252
f 260 248 252
f 254 262 259
f 259 252 255
f 259 255 254
f 266 80 104
f 266 324 80
f 180 272 325
f 180 183 272
f 183 325 273
f 325 272 273
f 183 179 274
f 183 275 20
f 275 179 20
f 274 275 183
f 272 276 273
f 273 276 183
f 183 277 272
f 277 276 272
f 274 278 275
f 275 278 179
f 278 279 179
f 179 279 274
f 279 280 274
f 280 278 274
f 277 183 276
f 280 279 278
f 281 282 283
f 282 281 284
f 281 283 285
f 285 283 286
f 283 282 286
f 282 285 286
f 284 285 287
f 128 285 282
f 285 128 146
f 282 284 288
f 128 282 121
f 287 282 288
f 284 287 288
f 121 282 289
f 132 121 289
f 289 133 132
f 291 133 289
f 290 292 137
f 291 289 137
f 137 289 290
f 133 291 137
f 290 289 293
f 293 289 282
f 293 282 290
f 137 292 135
f 292 290 135
f 141 135 290
f 287 141 290
f 287 290 282
f 60 141 287
f 60 287 218
f 331 146 294
f 295 296 294
f 298 297 296
f 297 298 299
f 300 331 294
f 300 294 296
f 301 296 299
f 299 296 297
f 302 296 301
f 302 300 296
f 299 303 301
f 304 301 303
f 301 304 302
f 300 305 331
f 331 305 58
f 300 302 305
f 58 305 306
f 146 58 306
f 307 58 146
f 303 308 304
f 304 296 295
f 294 302 295
f 305 294 146
f 146 145 307
f 146 306 305
f 305 302 294
f 308 296 304
f 308 303 296
f 296 303 298
f 299 298 303
f 302 304 295
f 145 58 307
f 55 309 58
f 310 311 58
f 58 311 331
f 310 58 312
f 313 314 312
f 312 58 315
f 313 312 317
f 316 317 312
f 316 312 315
f 309 55 318
f 309 318 58
f 316 315 58
f 318 316 58
f 318 331 310
f 310 331 311
f 310 312 319
f 320 319 312
f 310 319 320
f 318 310 321
f 320 317 310
f 316 310 317
f 317 320 322
f 320 312 322
f 312 314 322
f 322 314 323
f 318 287 285
f 318 321 316
f 316 321 310
f 281 285 284
f 323 314 313
f 313 317 322
f 313 322 323
f 287 318 218
f 55 218 318
f 181 325 182
f 251 248 250
f 324 266 108
f 179 198 20
f 200 20 198
f 266 270 108
f 106 103 108
f 24 23 324
f 24 324 230
f 14 13 325
f 14 325 49
f 78 80 326
f 78 326 70
f 224 225 327
f 224 327 71
f 8 18 328
f 8 328 10
f 7 57 329
f 7 329 217
f 56 57 330
f 56 330 58
f 285 146 331
f 285 331 318
f 129 126 332
f 129 332 135
