v 2.229345 -0.992723 -0.862826
v 2.5392 -0.727778 -0.750475
v 2.669281 -0.930664 -0.557166
v 2.514167 -1.077721 -0.706614
v 2.318787 -1.29409 -0.673863
v 2.960118 -0.941827 -0.284743
v 2.881063 -0.493146 -0.521968
v -2.033406 -0.91003 -0.96422
v -1.782298 -1.020581 -0.943381
v -2.462835 -1.3055 -0.966395
v -2.049879 -1.562369 -0.829319
v -1.200688 -1.577575 -0.799188
v -0.972089 -1.774507 -0.76857
v -0.063012 -1.583021 -0.865082
v -0.543078 -1.810473 -0.563825
v -1.108758 -1.770749 -0.473033
v -0.523838 -1.850065 -0.388007
v -2.267049 -1.753901 -0.662106
v -1.88316 -1.829718 -0.401567
v -2.941731 -1.787431 -0.442574
v -3.616627 -0.350374 -0.338492
v -3.570243 -0.060093 -0.344854
v -3.535416 0.191408 -0.338478
v -3.55232 0.219613 0.0
v 1.734568 -2.965876 -0.986396
v 1.802387 -3.089615 -0.961851
v 1.721745 -3.116887 -0.979111
v 2.247981 -3.342804 -1.127459
v 1.709173 -3.133145 -0.80794
v 1.900481 -3.131932 -0.728621
v 2.126553 -3.549679 -0.701005
v 1.857471 -2.950722 -0.669988
v 1.884318 -2.724404 -0.701999
v -2.837147 -1.791733 -0.921563
v -2.918293 -1.904184 -1.004659
v -3.23261 -1.834299 -1.087832
v -3.49052 -1.760417 -0.903104
v -3.078699 -2.553982 -1.046834
v -3.177824 -2.279173 -1.04758
v -3.327526 -2.075729 -1.005328
v -3.347304 -2.573628 -0.955211
v -3.030605 -2.311222 -0.88433
v 1.953911 -2.462233 -0.830594
v 1.98533 -2.221319 -0.893145
v 1.678986 -2.513137 -0.891745
v 1.648793 -2.280014 -0.929365
v 1.6249 -2.087301 -0.963391
v 1.60129 -2.267132 -0.787696
v 1.473886 -1.818947 -0.799576
v 1.756349 -2.446399 -0.705428
v 1.804927 -1.581954 -1.089198
v 1.818266 -2.313852 -0.968652
v 1.945206 -2.015769 -0.672724
v 1.966698 -1.22816 -1.153716
v 3.233975 2.059193 -0.072431
v 3.276333 1.863773 -0.294266
v 3.528445 1.060127 -0.489443
v 3.71636 2.343387 0.0
v 3.4583 2.151656 -0.102662
v 4.120842 0.627141 -0.185461
v 4.041657 1.039756 -0.496922
v 2.361089 1.76666 -0.202595
v 2.637461 1.01726 -0.581611
v 2.811504 0.469098 -0.657443
v 2.91987 0.084875 -0.64246
v 2.734183 0.038769 -0.86581
v 2.70696 0.393597 -0.849582
v 2.346081 -0.74535 -1.013296
v 0.737904 1.604213 -0.281713
v 0.316341 0.785311 -1.08626
v -0.559706 1.69418 -0.186107
v 0.034087 -0.225059 -1.542949
v -1.053434 -0.342553 -1.690245
v 1.644178 -0.857872 -1.208494
v 1.640095 -0.674556 -1.246804
v 1.504951 1.483493 -0.585976
v -1.683863 1.789041 -0.121501
v -1.744732 1.734849 -0.433807
v -2.030191 0.547622 -1.189762
v -2.079597 1.817785 -0.138375
v -2.298249 0.768333 -1.203884
v -2.292049 -0.933921 -1.128136
v -3.08565 1.65734 -0.784479
v -3.35851 1.810253 -0.380095
v -3.19641 0.797564 -0.985913
v -3.709741 1.351194 -0.211745
v -3.302419 -3.017921 -1.128514
v -3.107105 -2.947818 -1.092235
v -3.227676 -3.14166 -1.103969
v -3.316551 -3.168932 -1.121229
v -2.736599 -3.394849 -1.269577
v -2.631547 -3.559891 -1.33738
v -2.981824 -3.608887 -1.346959
v -3.091252 -3.340925 -1.235864
v -3.333954 -3.058673 -0.974748
v -3.19417 -3.348553 -1.007196
v -2.52472 -3.561609 -1.161535
v -2.944625 -3.282121 -0.817054
v -3.900566 1.002504 0.0
v -3.84447 0.498176 -0.053132
v -3.87514 1.480358 0.0
v -3.712832 1.794492 0.0
v -3.47843 1.975409 0.0
v -3.242148 2.021387 0.0
v -3.80184 1.012668 -0.115288
v -3.357009 1.781675 -0.071216
v -3.674766 0.517345 -6.3e-05
v -3.348274 1.767738 -8.5e-05
v -2.03574 -1.981182 -0.547873
v -2.120746 -2.045137 -0.411171
v -2.499138 -2.03809 -0.504529
v -2.571019 -1.995375 -0.58623
v -2.685663 -2.028649 -0.514928
v -2.065655 -2.124623 -0.36872
v -1.978016 -2.086834 -0.494327
v -2.552923 -2.142304 -0.454579
v -2.629199 -2.138983 -0.436227
v -2.583303 -2.089191 -0.577616
v 4.897808 1.946794 -0.628057
v 4.973133 1.992779 -0.533466
v 5.001903 1.914398 -0.486724
v 4.760921 1.881357 -0.61312
v 4.963546 1.783161 -0.553515
v 4.918466 2.084725 -0.532713
v 5.00244 2.105746 -0.468233
v 4.752337 1.723388 -0.591296
v 4.995978 2.148785 -0.344534
v 4.912303 2.162645 -9e-05
v 5.158322 1.23677 -0.418043
v 4.761601 1.363013 -0.57137
v 4.733657 1.227371 -0.592883
v 5.588763 1.573846 0.000686
v 5.730427 1.435668 -0.209848
v 5.710154 1.360653 -0.290072
v 5.672187 1.164767 -0.35408
v 5.931474 1.233483 -0.215613
v 5.92711 1.131195 0.001118
v 5.923808 1.025283 -0.153084
v 5.959462 1.157227 -0.187097
v 5.370709 0.980272 -0.337432
v 5.373646 0.885375 -0.20884
v 4.567896 1.149805 -0.642484
v 4.496191 1.024566 -0.579491
v 4.148883 1.759918 -0.573765
v 4.342351 2.581176 -0.140317
v 4.454962 2.523303 -0.000603
v 4.209941 2.600612 -0.337597
v 4.328606 2.563996 -0.343892
v 4.47609 2.606654 -0.692301
v 4.509555 2.719807 -0.819972
v 4.801436 2.750224 -0.858918
v 5.096148 2.75972 -0.774729
v 4.440713 2.398472 -0.629128
v 4.681847 2.551036 -0.886235
v 4.262798 2.490674 -0.818316
v 4.735139 2.645464 -0.95089
v 4.035753 2.399538 -0.343957
v 3.870548 2.292106 -0.368964
v 4.273005 2.310529 -0.762172
v 4.215419 2.350484 -0.885764
v 4.061989 2.231988 -1.178382
v 4.097362 2.3666 -1.239986
v 4.094116 2.426172 -1.381032
v 4.046673 2.341349 -1.45253
v 4.094112 1.889281 -0.578435
v 4.148927 2.388726 -1.376879
v 4.199317 2.304652 -1.17454
v 4.153175 2.084823 -0.799668
v 4.148865 2.148829 -0.986567
v 4.11268 2.195089 -1.366908
v 4.111934 2.234814 -1.399949
v 2.407309 -0.97498 0.805091
v 2.126237 -1.330172 0.721011
v 2.45706 -1.400958 0.539866
v 2.803736 -1.255869 0.438328
v 2.663024 -1.440487 0.478149
v 2.835437 -0.231101 0.57789
v 2.688131 -0.517509 0.672975
v -2.306662 -1.116976 0.961238
v -1.778934 -1.550199 0.776454
v -1.266738 -1.691944 0.557922
v -1.108758 -1.770749 0.473033
v -2.126375 -1.866497 0.502895
v -3.55012 -0.984868 0.675228
v -3.283698 -0.730967 0.793898
v 1.806371 -2.949735 0.984058
v 2.021366 -2.881725 0.945561
v 1.721745 -3.116887 0.979111
v 1.802387 -3.089615 0.961851
v 2.031262 -3.256709 1.111122
v 2.113587 -3.011851 0.851648
v 1.709173 -3.133145 0.80794
v 1.83279 -3.296508 0.865078
v 2.078928 -3.584991 0.917088
v 2.126553 -3.549679 0.701005
v 2.377814 -3.484109 0.800332
v 1.841282 -2.716008 0.708009
v -2.918293 -1.904184 1.004659
v -3.23261 -1.834299 1.087832
v -3.498521 -1.762078 0.762472
v -3.068444 -2.260195 1.03507
v -3.162498 -2.556375 1.058409
v -3.347304 -2.573628 0.955211
v -2.981187 -2.142718 0.858353
v -3.030605 -2.311222 0.88433
v -3.132772 -2.528669 0.848639
v 2.02453 -2.195334 0.811284
v 1.930747 -2.463535 0.894743
v 2.053108 -1.738285 0.824853
v 1.710406 -2.272223 0.954296
v 1.717145 -1.80953 1.004092
v 1.529305 -2.092083 0.887353
v 1.663494 -2.485963 0.790773
v 1.473886 -1.818947 0.799576
v 1.596751 -1.722028 0.684655
v 1.601721 -1.262359 1.14142
v 3.115383 1.49239 0.380228
v 3.98851 1.297806 0.539537
v 2.60743 -0.208248 0.974218
v 2.346081 -0.74535 1.013296
v 2.0817 0.283249 1.259461
v 1.859443 1.450393 0.632222
v 0.939271 0.379986 1.185872
v -0.406155 1.005088 0.971088
v -0.536767 -0.144454 1.682232
v -0.487217 -1.193519 1.504026
v -1.292756 1.656509 0.51403
v 1.644178 -0.857872 1.208494
v 1.63008 0.420236 1.172369
v -1.79513 0.033439 1.37116
v -1.683863 1.789041 0.121501
v -2.030191 0.547622 1.189762
v -2.296056 1.06281 1.171139
v -3.160225 -0.018852 1.113626
v -3.424258 0.158638 0.918279
v -3.223286 -3.00178 1.126176
v -3.316551 -3.168932 1.121229
v -3.227676 -3.14166 1.103969
v -2.975439 -3.308754 1.25324
v -2.856957 -3.449728 1.356844
v -2.729567 -3.602976 1.377236
v -2.787341 -3.278502 1.138621
v -3.330406 -3.18519 0.950058
v -3.19417 -3.348553 1.007196
v -2.922908 -3.637036 1.059206
v -3.256731 -3.032131 0.849693
v -2.52472 -3.561609 1.161535
v -3.67645 -0.551317 0.077574
v -3.72947 -0.869371 0.096946
v -3.699784 -0.759901 0.088664
v -3.697889 -0.951955 0.098793
v -3.733767 -1.141917 0.111139
v -3.743747 -1.367219 0.100951
v -3.823638 -1.557534 0.081533
v -3.828485 -1.786559 -0.114095
v -3.805841 -0.798961 0.099237
v -3.884588 -1.261469 0.148322
v -4.297769 -1.889903 0.177707
v -4.227645 -1.227895 0.069894
v -3.921874 -0.538502 -0.145307
v -4.252683 -1.437854 -0.14562
v -4.331331 -1.69259 -0.043593
v -3.86074 -0.188349 -0.024962
v -3.81743 0.150343 0.048629
v -3.84447 0.498176 0.053132
v -3.469715 1.961504 0.071141
v -3.660928 1.770041 0.115431
v -3.75063 -0.191863 0.063305
v -3.675638 1.471512 0.062201
v -3.357009 1.781675 0.071216
v -3.67251 0.16663 -0.048579
v -1.971059 -1.992958 0.500845
v -2.120746 -2.045137 0.411171
v -2.513608 -2.012858 0.558673
v -2.539874 -2.049824 0.460098
v -1.985123 -2.116661 0.394256
v -1.978016 -2.086834 0.494327
v -2.513187 -2.130859 0.49792
v -2.629199 -2.138983 0.436227
v -2.583303 -2.089191 0.577616
v 4.925499 1.917814 0.613413
v 5.001903 1.914398 0.486724
v 4.973133 1.992779 0.533466
v 4.963546 1.783161 0.553515
v 4.918466 2.084725 0.532713
v 5.00244 2.105746 0.468233
v 4.615408 1.639641 0.577768
v 4.761601 1.363013 0.57137
v 5.566339 1.498677 0.190905
v 5.672187 1.164767 0.35408
v 5.931474 1.233483 0.215613
v 5.85775 0.997026 0.236768
v 5.370709 0.980272 0.337432
v 4.359483 2.615839 0.596817
v 4.546655 2.709095 0.80378
v 4.59262 2.569879 0.790452
v 4.821336 2.621498 0.789636
v 4.801436 2.750224 0.858918
v 5.096148 2.75972 0.774729
v 4.382053 2.433474 0.798757
v 4.681847 2.551036 0.886235
v 4.497719 2.54748 0.937659
v 4.854957 2.660227 0.92431
v 4.615662 2.63387 0.977986
v 4.138687 2.474013 0.642311
v 4.088356 2.510913 0.453793
v 4.035753 2.399538 0.343957
v 4.753015 2.699695 0.973279
v 3.857922 2.141554 0.521067
v 4.215419 2.350484 0.885764
v 4.273005 2.310529 0.762172
v 4.097362 2.3666 1.239986
v 4.058311 2.293363 1.338054
v 4.094116 2.426172 1.381032
v 4.022592 2.123052 0.903284
v 4.036947 1.992167 1.072561
v 4.103303 2.038565 1.363737
v 3.966639 1.969285 0.549291
v 4.303193 2.347123 1.044413
v 4.211815 2.28249 1.039137
v 4.153175 2.084823 0.799668
v 4.11268 2.195089 1.366908
v 4.111934 2.234814 1.399949
v -3.507689 1.700214 0.0
v -0.956007 -1.825728 0.0
v -2.68493 1.262021 -1.11049
v -1.551526 1.400025 1.050193
v -2.734184 -1.717948 -0.749581
v 3.36004 0.16548699999999994 -0.412685
v 3.881998 1.764428 -0.476337
v 4.472349 2.325133 0.443764
v 5.528186 1.44018 -0.250666
v 0.760722 1.205036 0.700545
v 0.927497 -1.558489 0.0
v -2.684452 -1.891207 0.447388
v -2.187634 -0.375454 -1.406902
v 2.384638 -0.591919 -1.043058
v -2.47375 0.300945 1.316695
v 4.113935 2.334131 0.526471
v 3.189664 0.907503 0.500122
v 4.920855 0.812339 0.0003180000000000127
v 4.533113 1.989009 -0.578975
v 5.133171 1.715563 0.334258
v -1.479588 0.295746 1.440042
v -0.535144 -1.615983 0.920556
v 2.970902 -0.959664 0.0
v -2.955052 -1.49684 1.128812
v -3.557869 -1.325941 -0.37803
v -0.40615500000000004 1.005088 -0.971088
v -3.109047 1.789477 0.565323
v 2.811504 0.469098 0.657443
v 3.98851 1.297806 -0.539537
v 5.218821 1.803552 -0.199306
v 4.187258 2.590221 0.135844
v 4.38099 2.207701 -0.839016
v 5.573803 0.952578 0.243886
v 1.975941 0.827957 -1.018423
v -3.096267 -0.6681 -1.140081
v 1.451825 -1.576856 0.702758
v -0.752416 0.438132 1.467349
v 3.814876 1.968416 0.443
v -3.304804 -1.582192 0.643445
v -1.744732 1.734849 0.433807
v -1.610025 -1.711571 0.0
v 2.706963 -1.528854 0.0
v -0.969076 0.901205 -1.146223
v 4.022592 2.123052 -0.903284
v 2.637461 1.01726 0.581611
v -2.187634 -0.375454 1.406902
v 4.733657 1.227371 0.592883
v 3.189664 0.907503 -0.500122
v 5.127157 1.942759 0.211214
v 5.884856 1.062202 -0.24954499999999996
v 4.407729 2.53164 -0.486692
v 5.471928 1.345179 0.313899
v 0.960321 -0.308052 -1.243133
v -3.665774 -0.73408 0.446286
v -1.395501 -0.698702 -1.553257
v 0.939974 -0.894739 1.019809
v -3.476235 1.287798 0.704766
v 2.021591 -1.755289 -0.912093
v -1.017767 1.607824 -0.541965
v 3.342159 -0.384674 -0.201349
v 1.807583 1.756546 -0.177627
v -1.782298 -1.020581 0.943381
v 2.384638 -0.591919 1.043058
v -2.892162 -1.781087 0.0
v 4.00011 2.424158 -0.313254
v 4.120842 0.627141 0.185461
v 4.26732 2.121987 0.61494
v 4.982822 1.503071 -0.507606
v 4.982822 1.503071 0.507606
v 5.908842 1.388968 0.0010259999999999991
v 4.634996 2.369115 0.140117
v 5.373646 0.885375 0.20884
v 4.497719 2.54748 -0.937659
v 0.939271 0.379986 -1.185872
v -2.47375 0.300945 -1.316695
v 0.316341 0.785311 1.08626
v 1.604939 -1.556997 0.0
v -2.672899 1.90511 -0.067168
v 0.034087 -0.225059 1.542949
v -1.405685 0.573835 -1.352181
v -3.379131 0.767915 0.885996
v -0.977375 -1.793126 0.498747
v -2.591357 -1.510845 0.88547
v 1.966698 -1.22816 1.153716
v 2.723503 1.898839 0.0
v -3.650579 -1.142448 0.0
v 3.280681 0.510802 0.49943399999999993
v 3.559394 0.706516 -0.452535
v 5.233176 1.442459 0.362988
v 4.477781 1.687858 -0.597407
v 4.655453 0.758022 9.799999999998699e-05
v 4.440143 2.510529 0.269164
v 5.470775 1.009574 -0.355371
v 4.688114 2.046378 0.604518
v 4.04473 2.254459 0.744209
v 5.70463 0.849158 0.12813000000000002
v 5.959462 1.157227 0.187097
v 4.192789 2.411967 -0.668016
v 2.0817 0.283249 -1.259461
v 1.601721 -1.262359 -1.14142
v -1.576196 -1.696317 -0.358146
v 0.960321 -0.308052 1.243133
v 0.480235 -1.631521 0.401961
v 4.634996 2.369115 -0.140117
v -3.101125 -0.35476 1.162409
v -2.955052 -1.49684 -1.128812
v 0.223642 1.684075 -0.16074299999999997
v -3.556552 0.704883 -0.28063
v -1.929731 1.617188 0.80639
v -1.929731 1.617188 -0.80639
v -1.456655 -1.295527 0.89424
v 2.396607 -1.593239 -0.389972
v -3.271035 -1.609292 0.0
v 3.857922 2.141554 -0.521067
v 2.669281 -0.930664 0.557166
v 2.738132 1.687333 -0.295046
v -2.466779 -1.857679 0.570461
v 3.559394 0.706516 0.452535
v 2.993075 -0.708434 -0.342596
v 5.813217 1.415581 0.195261
v 1.804927 -1.581954 1.089198
v 4.152166 1.868775 1.225002
v 4.430999 1.535753 0.638888
v 1.83279 -3.296508 -0.865078
v 5.197562 0.922406 0.302473
v 4.440713 2.398472 0.629128
v 4.79841 1.473149 -0.570618
v 4.837331 2.235678 0.479332
v 4.063205 2.509679 -0.342987
v 5.757506 0.9579 -0.210732
v 4.314039 2.32946 -0.57751
v -2.566746 -1.211312 1.167101
v -1.551526 1.400025 -1.050193
v -2.71748 1.576797 0.875971
v -3.595973 -0.346391 0.426453
v 0.489819 -1.524947 -0.672392
v 0.760722 1.205036 -0.700545
v 2.013534 -0.662303 -1.191491
v -1.053434 -0.342553 1.690245
v -2.649338 -0.241719 -1.339644
v 2.399389 0.782091 0.915279
v -2.572286 0.835495 -1.252192
v -1.456655 -1.295527 -0.89424
v -3.601668 1.293049 0.0
v -4.229164 -1.473093 0.11156
v 2.361089 1.76666 0.202595
v -3.686518 -0.955181 -0.320349
v 1.348219 -1.282064 0.845204
v 4.152166 1.868775 -1.225002
v -0.559706 1.69418 0.18610700000000002
v -3.53391 -1.330455 0.568246
v 3.929251 0.411689 0.0
v -2.037371 -1.73636 0.656787
v 4.496191 1.024566 0.579491
v 3.4583 2.151656 0.102662
v 2.986408 -0.413503 0.428964
v 1.451825 -1.576856 -0.702758
v 5.378289 1.768448 0.00044099999999999695
v 5.397967 1.174238 -0.346802
v 4.063205 2.509679 0.342987
v 2.857666 -0.930625 -0.391195
v 2.141273 -1.234642 0.941254
v 4.38099 2.207701 0.839016
v 1.970051 -3.141862 -1.065178
v 5.397967 1.174238 0.346802
v 4.389484 2.190421 0.47332
v 4.59262 2.569879 -0.790452
v 4.561299 2.133066 -0.547248
v 4.146067 2.278102 -0.707372
v 5.851404 0.929008 -0.10536199999999998
v 4.871155 1.741238 0.592326
v 4.926194 1.859813 -0.582137
f 2 3 1
f 3 4 1
f 4 5 1
f 3 5 4
f 6 346 484
f 2 7 3
f 484 442 6
f 6 442 346
f 8 9 11
f 15 12 14
f 15 13 12
f 466 12 16
f 12 13 16
f 15 17 13
f 17 15 14
f 17 14 13
f 8 11 18
f 11 9 18
f 18 9 424
f 18 19 364
f 424 364 19
f 23 22 24
f 22 21 24
f 25 26 27
f 27 29 25
f 27 26 29
f 447 487 28
f 30 447 31
f 29 30 32
f 30 25 32
f 32 25 33
f 30 28 25
f 30 31 28
f 33 29 32
f 447 28 31
f 34 10 328
f 10 34 35
f 429 35 36
f 40 36 39
f 37 36 40
f 38 41 39
f 36 35 39
f 35 42 39
f 39 42 38
f 20 37 35
f 35 40 42
f 40 41 42
f 40 39 41
f 37 40 35
f 46 45 48
f 47 46 48
f 47 48 45
f 45 43 25
f 44 52 47
f 46 47 52
f 46 52 45
f 45 52 43
f 47 51 381
f 47 381 44
f 44 43 52
f 487 25 28
f 50 45 33
f 33 45 29
f 25 50 33
f 45 50 44
f 50 25 43
f 47 53 49
f 53 381 49
f 44 381 53
f 43 44 50
f 381 51 54
f 47 54 51
f 5 54 1
f 352 61 60
f 56 59 58
f 63 62 371
f 411 64 63
f 65 411 7
f 58 59 55
f 371 439 56
f 439 55 56
f 329 411 475
f 59 56 55
f 1 7 2
f 67 63 64
f 66 67 411
f 67 64 411
f 411 65 66
f 66 65 7
f 63 67 66
f 7 1 337
f 68 337 1
f 68 1 461
f 337 68 461
f 422 66 461
f 63 357 384
f 397 70 460
f 349 71 430
f 459 12 72
f 403 73 378
f 72 378 73
f 74 75 461
f 357 76 384
f 75 376 461
f 423 74 461
f 75 74 423
f 423 480 376
f 75 423 376
f 357 460 76
f 384 76 69
f 70 397 72
f 376 72 397
f 403 72 73
f 78 77 71
f 456 433 382
f 466 72 12
f 78 80 77
f 403 79 81
f 403 378 79
f 378 81 79
f 82 336 8
f 81 465 403
f 378 465 81
f 336 82 10
f 326 83 401
f 431 84 326
f 431 86 84
f 398 23 85
f 23 463 21
f 463 358 21
f 21 358 470
f 85 326 398
f 326 85 431
f 83 326 84
f 401 83 84
f 82 8 10
f 47 45 53
f 44 53 45
f 37 429 36
f 37 20 429
f 35 34 328
f 87 89 90
f 92 93 91
f 91 93 89
f 93 94 89
f 90 95 87
f 90 89 95
f 95 89 96
f 94 96 89
f 96 94 93
f 89 87 88
f 97 92 91
f 95 88 38
f 88 95 98
f 89 88 98
f 91 89 98
f 96 98 95
f 91 98 96
f 97 91 96
f 93 92 96
f 96 92 97
f 41 38 87
f 88 87 38
f 87 95 41
f 42 41 95
f 95 38 42
f 22 23 21
f 467 84 86
f 431 467 86
f 105 100 99
f 99 101 105
f 101 102 105
f 103 106 102
f 105 107 100
f 106 108 102
f 108 324 102
f 104 401 103
f 401 84 103
f 18 424 109
f 424 19 109
f 109 110 18
f 18 110 19
f 328 18 112
f 18 111 112
f 328 112 20
f 112 113 20
f 18 20 111
f 20 113 111
f 19 110 114
f 19 115 109
f 114 115 19
f 111 113 116
f 113 117 116
f 112 117 113
f 118 117 112
f 111 116 112
f 116 118 112
f 110 109 115
f 114 110 115
f 116 117 118
f 120 121 119
f 121 123 495
f 120 119 124
f 124 121 120
f 122 124 119
f 125 121 124
f 122 119 126
f 127 125 124
f 127 121 125
f 121 391 123
f 495 123 391
f 126 124 122
f 129 130 450
f 128 353 127
f 130 129 131
f 450 130 131
f 481 332 391
f 133 332 481
f 132 393 481
f 133 135 134
f 136 135 393
f 138 373 139
f 138 137 373
f 332 134 135
f 136 139 135
f 393 139 136
f 140 416 141
f 129 416 140
f 140 141 129
f 131 129 341
f 142 131 143
f 143 131 341
f 143 341 60
f 143 450 142
f 143 352 450
f 128 127 124
f 148 147 145
f 145 146 148
f 148 146 147
f 374 149 150
f 146 128 427
f 152 151 490
f 146 427 491
f 146 491 374
f 149 374 153
f 491 454 374
f 153 154 490
f 154 152 490
f 154 156 152
f 155 396 153
f 452 421 157
f 150 156 154
f 156 151 152
f 157 388 452
f 388 145 452
f 155 374 396
f 374 150 396
f 156 150 490
f 156 490 151
f 421 158 58
f 388 157 421
f 158 421 437
f 160 492 159
f 454 159 492
f 161 160 162
f 367 492 160
f 161 162 163
f 163 164 161
f 367 160 161
f 165 454 491
f 163 166 164
f 163 162 166
f 159 454 160
f 167 160 355
f 167 162 160
f 165 168 355
f 167 355 169
f 169 355 472
f 472 355 367
f 472 167 169
f 161 170 167
f 170 162 167
f 162 170 166
f 171 166 170
f 165 413 144
f 165 367 168
f 355 168 367
f 393 137 139
f 137 138 139
f 134 332 133
f 142 450 131
f 164 166 161
f 161 166 171
f 171 170 161
f 330 165 144
f 352 330 413
f 330 144 413
f 143 61 352
f 61 143 60
f 158 437 58
f 29 45 25
f 466 16 13
f 324 103 84
f 108 103 324
f 328 20 35
f 173 174 172
f 176 175 174
f 174 175 438
f 175 365 438
f 174 365 176
f 173 365 174
f 438 346 479
f 177 178 172
f 181 182 434
f 182 405 434
f 434 180 181
f 325 181 180
f 183 476 179
f 18 440 335
f 18 364 183
f 184 377 474
f 377 185 458
f 185 377 184
f 474 185 184
f 188 189 186
f 191 187 190
f 188 186 192
f 188 192 189
f 190 189 193
f 193 189 192
f 194 190 193
f 194 193 192
f 195 194 192
f 190 187 189
f 187 186 189
f 192 187 191
f 197 187 192
f 192 191 190
f 196 192 190
f 195 192 196
f 194 195 190
f 195 196 190
f 347 198 406
f 199 198 347
f 198 199 201
f 201 203 202
f 204 198 201
f 201 205 204
f 201 202 205
f 200 198 204
f 204 199 200
f 199 204 203
f 205 203 204
f 205 206 203
f 203 201 199
f 362 200 199
f 212 210 211
f 213 192 210
f 211 214 212
f 214 211 359
f 213 210 212
f 215 212 214
f 215 214 359
f 207 210 208
f 192 186 208
f 187 208 186
f 207 211 210
f 208 210 192
f 207 209 211
f 192 213 197
f 359 212 215
f 187 197 213
f 213 208 187
f 173 209 359
f 212 359 207
f 359 209 207
f 213 207 208
f 216 444 407
f 485 444 209
f 359 211 471
f 340 389 218
f 361 217 218
f 479 346 383
f 55 408 217
f 410 479 383
f 329 475 441
f 178 177 219
f 177 351 219
f 219 351 178
f 172 386 220
f 407 172 220
f 407 220 386
f 221 386 351
f 217 469 222
f 430 473 224
f 360 225 223
f 402 226 345
f 226 462 434
f 407 425 228
f 222 223 464
f 229 221 223
f 221 464 223
f 221 229 386
f 386 425 407
f 407 228 216
f 435 173 359
f 216 228 425
f 223 386 229
f 223 222 333
f 69 222 384
f 224 223 399
f 425 402 379
f 402 345 379
f 379 345 426
f 227 327 473
f 226 434 345
f 365 175 176
f 462 344 230
f 462 230 434
f 77 231 71
f 227 71 363
f 227 432 327
f 77 80 231
f 231 80 71
f 432 233 344
f 344 233 232
f 344 232 230
f 232 233 230
f 401 350 457
f 338 234 428
f 338 235 234
f 234 235 428
f 338 458 235
f 235 458 428
f 338 457 404
f 212 207 213
f 406 455 347
f 347 362 199
f 202 206 205
f 237 238 236
f 239 240 242
f 237 236 243
f 237 243 238
f 239 238 244
f 244 238 243
f 245 239 244
f 240 239 245
f 242 245 244
f 243 236 246
f 239 202 238
f 202 236 238
f 247 240 241
f 242 240 247
f 243 246 202
f 202 244 243
f 242 244 202
f 245 242 247
f 240 245 241
f 242 202 239
f 247 241 245
f 203 236 202
f 236 203 246
f 246 203 206
f 246 206 202
f 248 249 250
f 250 249 251
f 251 249 252
f 252 253 254
f 252 254 255
f 248 256 249
f 249 256 252
f 256 257 252
f 252 257 253
f 257 254 253
f 256 259 468
f 468 258 254
f 256 260 259
f 259 261 468
f 468 261 262
f 468 262 258
f 259 262 261
f 262 254 258
f 264 265 100
f 100 265 99
f 102 101 103
f 103 266 104
f 101 267 103
f 103 267 266
f 268 264 263
f 107 264 268
f 264 107 265
f 265 107 99
f 99 107 101
f 107 269 101
f 101 269 267
f 267 270 266
f 107 105 269
f 105 102 269
f 269 102 267
f 102 24 267
f 270 267 108
f 267 24 108
f 107 268 271
f 271 100 107
f 268 260 271
f 260 263 271
f 263 264 271
f 271 264 100
f 263 256 248
f 268 263 248
f 263 260 256
f 268 248 260
f 248 251 252
f 259 260 252
f 260 248 252
f 254 262 259
f 259 252 255
f 259 255 254
f 266 401 104
f 266 324 401
f 476 272 325
f 476 183 272
f 183 325 273
f 325 272 273
f 440 406 274
f 440 275 335
f 275 406 335
f 274 275 440
f 272 276 273
f 273 276 183
f 183 277 272
f 277 276 272
f 274 278 275
f 275 278 406
f 278 279 406
f 406 279 274
f 279 280 274
f 280 278 274
f 277 183 276
f 280 279 278
f 281 282 283
f 282 281 284
f 281 283 285
f 285 283 286
f 283 282 286
f 282 285 286
f 494 417 287
f 128 451 372
f 417 128 394
f 412 392 288
f 128 372 481
f 370 412 288
f 392 370 288
f 481 412 289
f 132 481 289
f 289 393 132
f 291 393 443
f 290 292 420
f 291 443 420
f 420 443 290
f 393 291 420
f 395 488 293
f 293 488 412
f 293 412 395
f 137 292 493
f 292 419 493
f 141 493 419
f 370 341 448
f 370 448 412
f 389 414 477
f 389 477 218
f 331 415 294
f 295 296 294
f 298 297 296
f 297 298 299
f 300 449 294
f 300 294 296
f 301 296 299
f 299 296 297
f 302 296 301
f 302 300 296
f 299 303 301
f 304 301 303
f 301 304 302
f 300 305 449
f 449 305 339
f 300 302 305
f 339 305 306
f 483 339 306
f 307 339 483
f 303 308 304
f 304 296 295
f 294 302 295
f 305 294 415
f 483 145 307
f 483 306 305
f 305 302 294
f 308 296 304
f 308 303 296
f 296 303 298
f 299 298 303
f 302 304 295
f 145 339 307
f 361 309 339
f 310 311 418
f 418 311 449
f 310 418 312
f 313 314 312
f 312 418 315
f 313 312 317
f 316 317 312
f 316 312 315
f 309 361 318
f 309 318 339
f 316 315 418
f 318 316 418
f 390 449 486
f 310 449 311
f 486 312 319
f 320 319 312
f 486 319 320
f 390 486 321
f 320 445 486
f 316 486 445
f 317 320 322
f 320 312 322
f 312 314 322
f 322 314 323
f 318 446 417
f 390 321 316
f 316 321 486
f 281 285 494
f 323 314 313
f 313 317 322
f 313 322 323
f 446 318 218
f 361 218 318
f 181 405 182
f 251 248 250
f 324 266 108
f 406 198 362
f 200 362 198
f 266 270 108
f 106 103 108
f 24 431 380
f 24 404 338
f 14 13 325
f 459 345 426
f 433 401 326
f 433 326 403
f 360 225 327
f 224 327 473
f 8 18 328
f 8 328 10
f 7 411 329
f 383 329 410
f 56 352 330
f 56 330 58
f 417 394 331
f 417 489 390
f 129 391 332
f 482 332 135
f 69 222 333
f 430 399 224
f 49 435 400
f 49 400 376
f 387 18 335
f 409 474 21
f 378 8 336
f 378 398 465
f 66 7 337
f 66 337 461
f 230 233 338
f 369 338 428
f 58 145 339
f 58 339 361
f 217 218 340
f 217 464 222
f 141 448 341
f 141 341 129
f 126 124 342
f 413 342 165
f 372 481 343
f 282 343 284
f 327 462 344
f 327 344 432
f 405 434 345
f 405 345 14
f 435 484 365
f 435 365 173
f 185 455 347
f 185 347 362
f 20 429 348
f 436 409 362
f 70 430 349
f 70 366 72
f 324 401 350
f 467 380 431
f 410 177 351
f 464 351 221
f 57 60 352
f 57 352 56
f 121 127 353
f 121 481 391
f 146 145 354
f 415 483 305
f 454 165 355
f 454 355 160
f 290 375 356
f 290 356 292
f 461 422 397
f 461 397 376
f 10 336 358
f 429 358 348
f 400 471 359
f 400 359 435
f 224 223 360
f 224 360 327
f 478 217 361
f 478 361 58
f 335 387 362
f 335 362 406
f 80 71 363
f 401 432 457
f 325 424 364
f 325 364 183
f 346 484 365
f 346 365 438
f 349 70 366
f 349 366 382
f 437 492 367
f 437 367 165
f 340 217 368
f 340 368 351
f 230 338 369
f 230 369 179
f 287 392 370
f 446 477 218
f 57 56 371
f 411 371 63
f 282 451 372
f 282 372 343
f 135 139 373
f 416 453 141
f 147 146 374
f 147 374 155
f 289 412 375
f 443 375 290
f 459 72 376
f 459 376 334
f 21 458 377
f 21 377 474
f 466 72 378
f 9 378 8
f 216 425 379
f 471 379 334
f 350 457 380
f 350 380 324
f 5 49 381
f 5 381 54
f 71 349 382
f 71 382 78
f 442 346 383
f 7 383 329
f 62 63 384
f 469 384 222
f 179 230 385
f 179 385 180
f 178 351 386
f 178 386 172
f 20 18 387
f 20 436 409
f 58 145 388
f 58 388 421
f 60 414 389
f 475 389 441
f 318 316 390
f 318 390 417
f 126 495 450
f 413 450 352
f 284 343 392
f 494 392 287
f 133 481 393
f 133 393 135
f 146 128 394
f 415 394 331
f 356 488 395
f 356 395 141
f 154 153 396
f 154 396 150
f 357 460 397
f 357 397 422
f 336 378 398
f 463 398 23
f 333 430 399
f 333 399 223
f 334 376 400
f 334 400 471
f 80 433 401
f 80 401 363
f 225 223 402
f 225 402 226
f 366 72 403
f 456 403 433
f 380 457 404
f 380 404 24
f 325 181 405
f 325 405 14
f 179 455 406
f 179 406 440
f 485 444 407
f 485 407 172
f 469 217 408
f 62 439 371
f 470 21 409
f 348 409 20
f 340 351 410
f 340 441 389
f 57 371 411
f 57 411 60
f 343 392 412
f 343 412 481
f 126 450 413
f 126 413 342
f 341 60 414
f 341 414 370
f 146 394 415
f 146 415 354
f 135 482 416
f 135 416 453
f 285 494 417
f 451 417 128
f 339 449 418
f 339 418 318
f 356 292 419
f 356 419 141
f 137 292 420
f 137 420 393
f 155 153 421
f 155 421 147
f 63 66 422
f 63 422 357
f 47 54 423
f 47 423 480
f 13 466 424
f 13 424 325
f 223 386 425
f 223 425 402
f 334 459 426
f 334 426 379
f 124 128 427
f 124 427 491
f 185 458 428
f 185 428 455
f 10 35 429
f 10 429 358
f 69 333 430
f 460 430 70
f 23 24 431
f 23 431 85
f 363 227 432
f 363 432 401
f 78 382 433
f 78 433 80
f 385 180 434
f 385 434 230
f 5 484 435
f 5 435 49
f 387 20 436
f 387 436 362
f 330 58 437
f 330 437 165
f 172 177 438
f 172 438 174
f 408 62 439
f 408 439 55
f 183 179 440
f 183 440 18
f 410 340 441
f 410 441 329
f 7 484 442
f 7 442 383
f 289 393 443
f 289 443 375
f 211 209 444
f 211 444 471
f 317 316 445
f 317 445 320
f 287 477 446
f 287 446 417
f 29 26 447
f 29 447 30
f 395 412 448
f 395 448 141
f 331 294 449
f 489 449 390
f 391 495 450
f 391 450 129
f 285 417 451
f 285 451 282
f 147 145 452
f 147 452 421
f 373 137 453
f 373 453 135
f 153 374 454
f 153 454 421
f 369 179 455
f 369 455 428
f 366 382 456
f 366 456 403
f 233 432 457
f 233 457 338
f 24 21 458
f 24 458 338
f 14 345 459
f 14 459 12
f 69 430 460
f 69 460 76
f 54 1 461
f 54 461 423
f 225 327 462
f 225 462 226
f 336 398 463
f 336 463 358
f 368 351 464
f 368 464 217
f 326 403 465
f 326 465 398
f 9 378 466
f 9 466 424
f 324 84 467
f 324 467 380
f 257 256 468
f 257 468 254
f 62 408 469
f 62 469 384
f 348 409 470
f 348 470 358
f 216 444 471
f 216 471 379
f 161 367 472
f 161 472 167
f 71 430 473
f 71 473 227
f 362 185 474
f 362 474 409
f 60 389 475
f 60 475 411
f 180 179 476
f 180 476 325
f 370 414 477
f 370 477 287
f 55 58 478
f 55 478 217
f 177 410 479
f 177 479 438
f 49 47 480
f 49 480 376
f 353 128 481
f 353 481 121
f 129 332 482
f 129 482 416
f 354 145 483
f 354 483 415
f 3 7 484
f 3 484 5
f 173 172 485
f 173 485 209
f 310 449 486
f 310 486 312
f 26 25 487
f 26 487 447
f 375 412 488
f 375 488 356
f 331 417 489
f 331 489 449
f 149 153 490
f 149 490 150
f 342 124 491
f 342 491 165
f 421 454 492
f 421 492 437
f 453 137 493
f 453 493 141
f 284 281 494
f 284 494 392
f 119 121 495
f 119 495 126
