v 2.229345 -0.992723 -0.862826
v 2.407309 -0.97498 -0.805091
v 2.5392 -0.727778 -0.750475
v 2.669281 -0.930664 -0.557166
v 2.514167 -1.077721 -0.706614
v 2.318787 -1.29409 -0.673863
v 2.126237 -1.330172 -0.721011
v 2.857666 -0.930625 -0.391195
v 2.803736 -1.255869 -0.438328
v 2.960118 -0.941827 -0.284743
v 2.396607 -1.593239 -0.389972
v 2.970902 -0.959664 0.0
v 2.706963 -1.528854 0.0
v 2.881063 -0.493146 -0.521968
v 2.835437 -0.231101 -0.57789
v 2.993075 -0.708434 -0.342596
v -2.033406 -0.91003 -0.96422
v -1.782298 -1.020581 -0.943381
v -2.462835 -1.3055 -0.966395
v -1.456655 -1.295527 -0.89424
v -2.049879 -1.562369 -0.829319
v -1.552229 -1.555077 -0.735708
v -1.200688 -1.577575 -0.799188
v -0.972089 -1.774507 -0.76857
v -0.063012 -1.583021 -0.865082
v -0.543078 -1.810473 -0.563825
v -1.108758 -1.770749 -0.473033
v -1.576196 -1.696317 -0.358146
v -0.523838 -1.850065 -0.388007
v 0.489819 -1.524947 -0.672392
v -0.956007 -1.825728 0.0
v -1.610025 -1.711571 0.0
v -1.74779 -1.667608 -0.60634
v -2.734184 -1.717948 -0.749581
v -2.267049 -1.753901 -0.662106
v -2.037371 -1.73636 -0.656787
v -1.88316 -1.829718 -0.401567
v -2.941731 -1.787431 -0.442574
v -2.709403 -1.879947 -0.508775
v -2.892162 -1.781087 0.0
v -3.557869 -1.325941 -0.37803
v -3.686518 -0.955181 -0.320349
v -3.616627 -0.350374 -0.338492
v -3.570243 -0.060093 -0.344854
v -3.535416 0.191408 -0.338478
v -3.55232 0.219613 0.0
v -3.637643 -0.356271 0.0
v -3.650579 -1.142448 0.0
v -3.271035 -1.609292 0.0
v -3.27979 -1.162072 -0.784602
v -3.556552 0.704883 -0.28063
v 1.734568 -2.965876 -0.986396
v 1.911792 -2.895773 -0.950117
v 1.802387 -3.089615 -0.961851
v 1.721745 -3.116887 -0.979111
v 1.970051 -3.141862 -1.065178
v 2.247981 -3.342804 -1.127459
v 2.343303 -3.507846 -1.195262
v 2.025468 -3.556842 -1.204841
v 1.709173 -3.133145 -0.80794
v 1.83279 -3.296508 -0.865078
v 1.900481 -3.131932 -0.728621
v 2.126553 -3.549679 -0.701005
v 1.857471 -2.950722 -0.669988
v 1.884318 -2.724404 -0.701999
v -2.837147 -1.791733 -0.921563
v -2.918293 -1.904184 -1.004659
v -2.955052 -1.49684 -1.128812
v -3.23261 -1.834299 -1.087832
v -3.49052 -1.760417 -0.903104
v -3.078699 -2.553982 -1.046834
v -3.177824 -2.279173 -1.04758
v -3.327526 -2.075729 -1.005328
v -3.347304 -2.573628 -0.955211
v -2.981187 -2.142718 -0.858353
v -3.030605 -2.311222 -0.88433
v 1.953911 -2.462233 -0.830594
v 1.98533 -2.221319 -0.893145
v 2.021591 -1.755289 -0.912093
v 2.036036 -1.57908 -0.967151
v 1.678986 -2.513137 -0.891745
v 1.648793 -2.280014 -0.929365
v 1.6249 -2.087301 -0.963391
v 1.572979 -1.827591 -0.985823
v 1.60129 -2.267132 -0.787696
v 1.473886 -1.818947 -0.799576
v 1.451825 -1.576856 -0.702758
v 1.756349 -2.446399 -0.705428
v 1.804927 -1.581954 -1.089198
v 1.818266 -2.313852 -0.968652
v 1.945206 -2.015769 -0.672724
v 1.966698 -1.22816 -1.153716
v 1.601721 -1.262359 -1.14142
v 1.310865 -1.136322 -0.914838
v 3.233975 2.059193 -0.072431
v 3.276333 1.863773 -0.294266
v 3.377233 1.5878 -0.400781
v 3.115383 1.49239 -0.380228
v 3.528445 1.060127 -0.489443
v 3.189664 0.907503 -0.500122
v 3.559394 0.706516 -0.452535
v 3.36004 0.165487 -0.412685
v 3.737014 0.181837 -0.176819
v 3.71636 2.343387 0.0
v 3.4583 2.151656 -0.102662
v 4.120842 0.627141 -0.185461
v 3.929251 0.411689 0.0
v 4.041657 1.039756 -0.496922
v 3.98851 1.297806 -0.539537
v 3.881998 1.764428 -0.476337
v 3.342159 -0.384674 -0.201349
v 2.361089 1.76666 -0.202595
v 2.723503 1.898839 0.0
v 2.738132 1.687333 -0.295046
v 2.637461 1.01726 -0.581611
v 2.747937 0.712253 -0.615674
v 2.811504 0.469098 -0.657443
v 2.91987 0.084875 -0.64246
v 2.396355 1.242239 -0.597722
v 2.734183 0.038769 -0.86581
v 2.70696 0.393597 -0.849582
v 2.346081 -0.74535 -1.013296
v 2.495354 0.250522 -1.132081
v 2.384638 -0.591919 -1.043058
v 2.013534 -0.662303 -1.191491
v 1.807583 1.756546 -0.177627
v 2.0817 0.283249 -1.259461
v 1.975941 0.827957 -1.018423
v 0.737904 1.604213 -0.281713
v 0.223642 1.684075 -0.160743
v 0.760722 1.205036 -0.700545
v 0.939271 0.379986 -1.185872
v 0.316341 0.785311 -1.08626
v 0.960321 -0.308052 -1.243133
v 0.939974 -0.894739 -1.019809
v 0.544825 -1.133123 -1.096902
v 0.927497 -1.558489 0.0
v -0.221516 1.686349 -0.151403
v -0.559706 1.69418 -0.186107
v -0.406155 1.005088 -0.971088
v -0.969076 0.901205 -1.146223
v -0.752416 0.438132 -1.467349
v 0.034087 -0.225059 -1.542949
v -0.487217 -1.193519 -1.504026
v -0.894132 1.712652 -0.151911
v -1.215563 1.757097 -0.133494
v -1.017767 1.607824 -0.541965
v -1.551526 1.400025 -1.050193
v -1.405685 0.573835 -1.352181
v -1.053434 -0.342553 -1.690245
v -1.395501 -0.698702 -1.553257
v 1.644178 -0.857872 -1.208494
v 1.640095 -0.674556 -1.246804
v 1.504951 1.483493 -0.585976
v 1.63008 0.420236 -1.172369
v 1.604939 -1.556997 0.0
v -1.807421 0.657142 -1.209422
v -1.79513 0.033439 -1.37116
v -1.683863 1.789041 -0.121501
v -1.744732 1.734849 -0.433807
v -1.929731 1.617188 -0.80639
v -2.030191 0.547622 -1.189762
v -2.079597 1.817785 -0.138375
v -2.298249 0.768333 -1.203884
v -2.187634 -0.375454 -1.406902
v -2.292049 -0.933921 -1.128136
v -2.672899 1.90511 -0.067168
v -2.68493 1.262021 -1.11049
v -2.572286 0.835495 -1.252192
v -2.47375 0.300945 -1.316695
v -3.053102 1.96881 -0.051104
v -3.08565 1.65734 -0.784479
v -2.79063 0.46881 -1.224273
v -2.649338 -0.241719 -1.339644
v -3.35851 1.810253 -0.380095
v -3.507689 1.700214 0.0
v -3.476235 1.287798 -0.704766
v -3.19641 0.797564 -0.985913
v -3.096267 -0.6681 -1.140081
v -2.937658 -1.002749 -1.219413
v -3.582867 0.734419 -0.697787
v -3.709741 1.351194 -0.211745
v -3.302419 -3.017921 -1.128514
v -3.107105 -2.947818 -1.092235
v -2.946527 -2.939327 -0.986343
v -3.227676 -3.14166 -1.103969
v -3.316551 -3.168932 -1.121229
v -3.042899 -3.193907 -1.207296
v -2.736599 -3.394849 -1.269577
v -2.631547 -3.559891 -1.33738
v -2.981824 -3.608887 -1.346959
v -3.091252 -3.340925 -1.235864
v -3.333954 -3.058673 -0.974748
v -3.19417 -3.348553 -1.007196
v -2.870422 -3.601724 -0.843123
v -2.52472 -3.561609 -1.161535
v -3.137383 -2.776449 -0.844117
v -2.944625 -3.282121 -0.817054
v -3.601668 1.293049 0.0
v -3.900566 1.002504 0.0
v -3.84447 0.498176 -0.053132
v -3.87514 1.480358 0.0
v -3.712832 1.794492 0.0
v -3.47843 1.975409 0.0
v -3.242148 2.021387 0.0
v -3.80184 1.012668 -0.115288
v -3.357009 1.781675 -0.071216
v -3.674766 0.517345 -6.3e-05
v -3.348274 1.767738 -8.5e-05
v -2.03574 -1.981182 -0.547873
v -2.120746 -2.045137 -0.411171
v -2.499138 -2.03809 -0.504529
v -2.571019 -1.995375 -0.58623
v -2.685663 -2.028649 -0.514928
v -2.065655 -2.124623 -0.36872
v -1.978016 -2.086834 -0.494327
v -2.552923 -2.142304 -0.454579
v -2.629199 -2.138983 -0.436227
v -2.583303 -2.089191 -0.577616
v 4.897808 1.946794 -0.628057
v 4.973133 1.992779 -0.533466
v 5.001903 1.914398 -0.486724
v 4.926194 1.859813 -0.582137
v 4.760921 1.881357 -0.61312
v 4.963546 1.783161 -0.553515
v 4.918466 2.084725 -0.532713
v 4.825996 2.089176 -0.576083
v 4.872539 2.159259 -0.542891
v 5.00244 2.105746 -0.468233
v 5.075994 1.900999 -0.443793
v 4.752337 1.723388 -0.591296
v 4.995978 2.148785 -0.344534
v 4.982822 1.503071 -0.507606
v 4.79841 1.473149 -0.570618
v 4.533113 1.989009 -0.578975
v 4.561299 2.133066 -0.547248
v 4.912303 2.162645 -9e-05
v 5.218821 1.803552 -0.199306
v 4.477781 1.687858 -0.597407
v 4.634996 2.369115 -0.140117
v 5.158322 1.23677 -0.418043
v 4.761601 1.363013 -0.57137
v 5.378289 1.768448 0.000441
v 4.733657 1.227371 -0.592883
v 4.522247 1.398278 -0.644892
v 5.588763 1.573846 0.000686
v 5.528186 1.44018 -0.250666
v 5.397967 1.174238 -0.346802
v 5.730427 1.435668 -0.209848
v 5.710154 1.360653 -0.290072
v 5.608974 1.317869 -0.319719
v 5.672187 1.164767 -0.35408
v 5.908842 1.388968 0.001026
v 5.979357 1.325532 -0.125337
v 5.783731 1.341471 -0.28459
v 5.931474 1.233483 -0.215613
v 5.92711 1.131195 0.001118
v 5.923808 1.025283 -0.153084
v 5.884856 1.062202 -0.249545
v 5.959462 1.157227 -0.187097
v 5.757506 0.9579 -0.210732
v 5.470775 1.009574 -0.355371
v 5.370709 0.980272 -0.337432
v 5.373646 0.885375 -0.20884
v 5.511556 0.863525 -0.177613
v 5.851404 0.929008 -0.105362
v 5.836005 0.945722 0.001092
v 4.920855 0.812339 0.000318
v 4.712067 0.770512 -0.333393
v 4.655453 0.758022 9.8e-05
v 4.567896 1.149805 -0.642484
v 4.496191 1.024566 -0.579491
v 4.141189 1.008775 -0.499342
v 4.148883 1.759918 -0.573765
v 4.342351 2.581176 -0.140317
v 4.454962 2.523303 -0.000603
v 4.187258 2.590221 -0.135844
v 4.209941 2.600612 -0.337597
v 4.328606 2.563996 -0.343892
v 4.407729 2.53164 -0.486692
v 4.359483 2.615839 -0.596817
v 4.47609 2.606654 -0.692301
v 4.509555 2.719807 -0.819972
v 4.59262 2.569879 -0.790452
v 4.801436 2.750224 -0.858918
v 5.096148 2.75972 -0.774729
v 4.440713 2.398472 -0.629128
v 4.474625 2.465214 -0.75189
v 4.314039 2.32946 -0.57751
v 4.681847 2.551036 -0.886235
v 4.497719 2.54748 -0.937659
v 4.262798 2.490674 -0.818316
v 4.192789 2.411967 -0.668016
v 4.113935 2.334131 -0.526471
v 4.735139 2.645464 -0.95089
v 4.6248 2.708372 -0.989445
v 4.063205 2.509679 -0.342987
v 4.035753 2.399538 -0.343957
v 4.00011 2.424158 -0.313254
v 3.870548 2.292106 -0.368964
v 3.967085 2.280648 -0.537643
v 3.857922 2.141554 -0.521067
v 4.146067 2.278102 -0.707372
v 4.273005 2.310529 -0.762172
v 4.215419 2.350484 -0.885764
v 4.061989 2.231988 -1.178382
v 4.102304 2.29996 -1.025862
v 4.097362 2.3666 -1.239986
v 4.094116 2.426172 -1.381032
v 4.046673 2.341349 -1.45253
v 4.022592 2.123052 -0.903284
v 4.152166 1.868775 -1.225002
v 4.094112 1.889281 -0.578435
v 4.314791 2.142163 -0.54065
v 4.148927 2.388726 -1.376879
v 4.199317 2.304652 -1.17454
v 4.38099 2.207701 -0.839016
v 4.354411 2.102985 -0.80258
v 4.303193 2.347123 -1.044413
v 4.153175 2.084823 -0.799668
v 4.148865 2.148829 -0.986567
v 4.11268 2.195089 -1.366908
v 4.111934 2.234814 -1.399949
v 2.407309 -0.97498 0.805091
v 2.410367 -0.777999 0.841105
v 2.669281 -0.930664 0.557166
v 2.126237 -1.330172 0.721011
v 2.318787 -1.29409 0.673863
v 2.45706 -1.400958 0.539866
v 2.61797 -1.235597 0.520238
v 2.803736 -1.255869 0.438328
v 2.663024 -1.440487 0.478149
v 2.396607 -1.593239 0.389972
v 2.835437 -0.231101 0.57789
v 2.986408 -0.413503 0.428964
v 2.688131 -0.517509 0.672975
v -2.306662 -1.116976 0.961238
v -1.782298 -1.020581 0.943381
v -2.042059 -1.312976 0.940911
v -1.456655 -1.295527 0.89424
v -2.591357 -1.510845 0.88547
v -2.223917 -1.541268 0.87926
v -1.778934 -1.550199 0.776454
v -1.200688 -1.577575 0.799188
v -1.266738 -1.691944 0.557922
v -0.535144 -1.615983 0.920556
v -0.07847 -1.688266 0.80023
v -0.977375 -1.793126 0.498747
v -1.108758 -1.770749 0.473033
v 0.480235 -1.631521 0.401961
v -2.037371 -1.73636 0.656787
v -2.126375 -1.866497 0.502895
v -2.466779 -1.857679 0.570461
v -2.684452 -1.891207 0.447388
v -3.304804 -1.582192 0.643445
v -3.53391 -1.330455 0.568246
v -3.665774 -0.73408 0.446286
v -3.595973 -0.346391 0.426453
v -3.536654 0.442277 0.322
v -3.55012 -0.984868 0.675228
v -3.283698 -0.730967 0.793898
v 1.806371 -2.949735 0.984058
v 2.021366 -2.881725 0.945561
v 1.721745 -3.116887 0.979111
v 1.802387 -3.089615 0.961851
v 2.031262 -3.256709 1.111122
v 2.138771 -3.397683 1.214726
v 2.201939 -3.226457 0.996503
v 2.113587 -3.011851 0.851648
v 1.709173 -3.133145 0.80794
v 1.83279 -3.296508 0.865078
v 2.078928 -3.584991 0.917088
v 1.900481 -3.131932 0.728621
v 2.126553 -3.549679 0.701005
v 2.377814 -3.484109 0.800332
v 1.841282 -2.716008 0.708009
v -2.918293 -1.904184 1.004659
v -2.955052 -1.49684 1.128812
v -3.23261 -1.834299 1.087832
v -3.498521 -1.762078 0.762472
v -3.068444 -2.260195 1.03507
v -3.162498 -2.556375 1.058409
v -3.347304 -2.573628 0.955211
v -2.981187 -2.142718 0.858353
v -3.030605 -2.311222 0.88433
v -3.132772 -2.528669 0.848639
v -3.339489 -2.328145 0.827572
v 2.02453 -2.195334 0.811284
v 1.930747 -2.463535 0.894743
v 2.053108 -1.738285 0.824853
v 1.710406 -2.272223 0.954296
v 1.717145 -1.80953 1.004092
v 1.529305 -2.092083 0.887353
v 1.663494 -2.485963 0.790773
v 1.473886 -1.818947 0.799576
v 1.451825 -1.576856 0.702758
v 1.596751 -1.722028 0.684655
v 1.918641 -2.083654 1.001275
v 1.804927 -1.581954 1.089198
v 2.141273 -1.234642 0.941254
v 1.966698 -1.22816 1.153716
v 1.601721 -1.262359 1.14142
v 1.612396 -1.485728 1.099731
v 1.348219 -1.282064 0.845204
v 1.838895 -1.087204 1.201408
v 3.115383 1.49239 0.380228
v 3.377233 1.5878 0.400781
v 3.189664 0.907503 0.500122
v 3.280681 0.510802 0.499434
v 3.559394 0.706516 0.452535
v 3.36004 0.165487 0.412685
v 3.4583 2.151656 0.102662
v 4.120842 0.627141 0.185461
v 4.068249 0.798926 0.400813
v 3.98851 1.297806 0.539537
v 3.886058 1.550141 0.50483
v 3.814876 1.968416 0.443
v 3.479418 1.97825 0.317478
v 2.361089 1.76666 0.202595
v 2.519027 1.485931 0.422962
v 2.637461 1.01726 0.581611
v 2.811504 0.469098 0.657443
v 2.679445 0.687427 0.720573
v 2.60743 -0.208248 0.974218
v 2.346081 -0.74535 1.013296
v 2.399389 0.782091 0.915279
v 2.384638 -0.591919 1.043058
v 1.807583 1.756546 0.177627
v 2.0817 0.283249 1.259461
v 1.859443 1.450393 0.632222
v 0.737904 1.604213 0.281713
v 0.760722 1.205036 0.700545
v 0.316341 0.785311 1.08626
v 0.939271 0.379986 1.185872
v 0.960321 -0.308052 1.243133
v 0.939974 -0.894739 1.019809
v 0.544825 -1.133123 1.096902
v -0.559706 1.69418 0.186107
v -0.406155 1.005088 0.971088
v -0.969076 0.901205 1.146223
v -0.11519 0.458427 1.346197
v -0.752416 0.438132 1.467349
v -0.536767 -0.144454 1.682232
v 0.034087 -0.225059 1.542949
v -0.487217 -1.193519 1.504026
v -1.292756 1.656509 0.51403
v -1.551526 1.400025 1.050193
v -1.278903 1.192051 0.946843
v -1.479588 0.295746 1.440042
v -1.053434 -0.342553 1.690245
v 1.644178 -0.857872 1.208494
v 1.63008 0.420236 1.172369
v -1.807421 0.657142 1.209422
v -1.79513 0.033439 1.37116
v -1.683863 1.789041 0.121501
v -1.744732 1.734849 0.433807
v -1.929731 1.617188 0.80639
v -2.030191 0.547622 1.189762
v -2.137524 1.753182 0.433142
v -2.296056 1.06281 1.171139
v -2.187634 -0.375454 1.406902
v -2.71748 1.576797 0.875971
v -2.47375 0.300945 1.316695
v -2.566746 -1.211312 1.167101
v -3.109047 1.789477 0.565323
v -2.825835 0.755899 1.209042
v -3.519716 1.685231 0.31713
v -3.476235 1.287798 0.704766
v -3.379131 0.767915 0.885996
v -3.160225 -0.018852 1.113626
v -3.101125 -0.35476 1.162409
v -3.15021 -1.259588 1.001021
v -3.424258 0.158638 0.918279
v -3.223286 -3.00178 1.126176
v -2.986345 -2.93377 1.087679
v -3.316551 -3.168932 1.121229
v -3.227676 -3.14166 1.103969
v -2.975439 -3.308754 1.25324
v -2.856957 -3.449728 1.356844
v -2.729567 -3.602976 1.377236
v -2.787341 -3.278502 1.138621
v -2.884711 -3.063896 0.993766
v -3.330406 -3.18519 0.950058
v -3.19417 -3.348553 1.007196
v -2.922908 -3.637036 1.059206
v -3.256731 -3.032131 0.849693
v -2.52472 -3.561609 1.161535
v -3.67645 -0.551317 0.077574
v -3.72947 -0.869371 0.096946
v -3.699784 -0.759901 0.088664
v -3.697889 -0.951955 0.098793
v -3.733767 -1.141917 0.111139
v -3.743747 -1.367219 0.100951
v -3.823638 -1.557534 0.081533
v -3.828485 -1.786559 -0.114095
v -3.805841 -0.798961 0.099237
v -3.884588 -1.261469 0.148322
v -4.107191 -1.83652 0.120149
v -4.297769 -1.889903 0.177707
v -4.227645 -1.227895 0.069894
v -4.229164 -1.473093 0.11156
v -3.921874 -0.538502 -0.145307
v -4.252683 -1.437854 -0.14562
v -4.331331 -1.69259 -0.043593
v -4.111927 -1.333141 -0.26716
v -3.86074 -0.188349 -0.024962
v -3.81743 0.150343 0.048629
v -3.84447 0.498176 0.053132
v -3.469715 1.961504 0.071141
v -3.660928 1.770041 0.115431
v -3.75063 -0.191863 0.063305
v -3.675638 1.471512 0.062201
v -3.357009 1.781675 0.071216
v -3.67251 0.16663 -0.048579
v -1.971059 -1.992958 0.500845
v -2.120746 -2.045137 0.411171
v -2.513608 -2.012858 0.558673
v -2.539874 -2.049824 0.460098
v -1.985123 -2.116661 0.394256
v -1.978016 -2.086834 0.494327
v -2.513187 -2.130859 0.49792
v -2.629199 -2.138983 0.436227
v -2.583303 -2.089191 0.577616
v 4.925499 1.917814 0.613413
v 5.001903 1.914398 0.486724
v 4.973133 1.992779 0.533466
v 4.861611 2.001639 0.621913
v 4.760921 1.881357 0.61312
v 4.963546 1.783161 0.553515
v 4.918466 2.084725 0.532713
v 5.00244 2.105746 0.468233
v 5.075994 1.900999 0.443793
v 4.871155 1.741238 0.592326
v 4.688114 2.046378 0.604518
v 4.837331 2.235678 0.479332
v 4.995978 2.148785 0.344534
v 5.127157 1.942759 0.211214
v 5.133171 1.715563 0.334258
v 4.982822 1.503071 0.507606
v 4.615408 1.639641 0.577768
v 4.533113 1.989009 0.578975
v 5.233176 1.442459 0.362988
v 4.634996 2.369115 0.140117
v 4.472349 2.325133 0.443764
v 4.389484 2.190421 0.47332
v 5.158322 1.23677 0.418043
v 4.761601 1.363013 0.57137
v 5.421809 1.685349 0.123555
v 4.733657 1.227371 0.592883
v 4.430999 1.535753 0.638888
v 5.566339 1.498677 0.190905
v 5.471928 1.345179 0.313899
v 5.397967 1.174238 0.346802
v 5.608974 1.317869 0.319719
v 5.672187 1.164767 0.35408
v 5.813217 1.415581 0.195261
v 5.931474 1.233483 0.215613
v 5.85775 0.997026 0.236768
v 5.959462 1.157227 0.187097
v 5.757506 0.9579 0.210732
v 5.573803 0.952578 0.243886
v 5.370709 0.980272 0.337432
v 5.373646 0.885375 0.20884
v 5.511556 0.863525 0.177613
v 5.70463 0.849158 0.12813
v 5.197562 0.922406 0.302473
v 4.99671 0.81056 0.280771
v 4.496191 1.024566 0.579491
v 4.359048 0.700414 0.166651
v 4.312225 1.683392 0.639944
v 4.440143 2.510529 0.269164
v 4.187258 2.590221 0.135844
v 4.328606 2.563996 0.343892
v 4.359483 2.615839 0.596817
v 4.411541 2.663824 0.713132
v 4.546655 2.709095 0.80378
v 4.59262 2.569879 0.790452
v 4.821336 2.621498 0.789636
v 4.801436 2.750224 0.858918
v 5.096148 2.75972 0.774729
v 4.440713 2.398472 0.629128
v 4.314039 2.32946 0.57751
v 4.382053 2.433474 0.798757
v 4.681847 2.551036 0.886235
v 4.497719 2.54748 0.937659
v 4.113935 2.334131 0.526471
v 4.854957 2.660227 0.92431
v 4.615662 2.63387 0.977986
v 4.138687 2.474013 0.642311
v 4.342998 2.664049 0.904347
v 4.088356 2.510913 0.453793
v 4.063205 2.509679 0.342987
v 4.035753 2.399538 0.343957
v 4.753015 2.699695 0.973279
v 4.00011 2.424158 0.313254
v 3.857922 2.141554 0.521067
v 4.04473 2.254459 0.744209
v 3.945464 2.1301 0.689536
v 4.215419 2.350484 0.885764
v 4.273005 2.310529 0.762172
v 4.097362 2.3666 1.239986
v 4.155551 2.388662 1.09196
v 4.058311 2.293363 1.338054
v 4.094116 2.426172 1.381032
v 4.022592 2.123052 0.903284
v 4.036947 1.992167 1.072561
v 4.103303 2.038565 1.363737
v 4.152166 1.868775 1.225002
v 3.966639 1.969285 0.549291
v 4.26732 2.121987 0.61494
v 4.38099 2.207701 0.839016
v 4.303193 2.347123 1.044413
v 4.211815 2.28249 1.039137
v 4.153175 2.084823 0.799668
v 4.148865 2.148829 0.986567
v 4.11268 2.195089 1.366908
v 4.111934 2.234814 1.399949
v -3.008323 -1.759271 0.655672
f 3 2 1
f 3 4 2
f 4 5 2
f 1 2 7
f 2 6 7
f 5 6 2
f 4 6 5
f 8 9 6
f 6 9 11
f 11 7 6
f 10 12 8
f 8 12 9
f 13 9 12
f 9 13 11
f 3 14 4
f 4 14 8
f 8 14 16
f 8 16 10
f 10 16 12
f 8 6 4
f 17 18 21
f 18 20 22
f 22 20 23
f 26 23 25
f 26 24 23
f 22 23 27
f 23 24 27
f 28 22 24
f 26 29 24
f 29 26 25
f 29 25 24
f 25 31 24
f 24 31 28
f 32 28 31
f 22 28 33
f 22 33 18
f 35 34 17
f 34 19 17
f 35 17 36
f 17 21 36
f 21 18 36
f 36 18 33
f 28 36 33
f 38 39 40
f 40 39 36
f 39 35 36
f 36 37 32
f 28 32 37
f 45 44 46
f 43 42 47
f 47 42 48
f 42 41 48
f 38 48 41
f 48 38 49
f 49 38 40
f 44 43 46
f 46 43 47
f 41 42 50
f 41 50 38
f 51 45 46
f 52 54 55
f 58 59 57
f 57 59 56
f 55 60 52
f 55 54 60
f 56 61 54
f 60 54 61
f 61 56 59
f 61 62 60
f 62 61 63
f 56 54 53
f 54 52 53
f 60 62 64
f 62 53 64
f 64 53 65
f 65 53 52
f 62 57 53
f 58 57 63
f 62 63 57
f 65 60 64
f 61 58 63
f 58 61 59
f 66 19 34
f 19 66 67
f 68 19 67
f 68 67 69
f 73 69 72
f 70 69 73
f 71 74 72
f 75 69 67
f 69 75 72
f 75 76 72
f 72 76 71
f 38 75 67
f 38 70 75
f 75 73 76
f 73 74 76
f 73 72 74
f 70 73 75
f 82 81 85
f 83 82 85
f 84 83 86
f 87 84 86
f 83 85 81
f 81 77 52
f 83 84 78
f 78 90 83
f 82 83 90
f 82 90 81
f 81 90 77
f 84 89 79
f 89 80 79
f 84 79 78
f 78 77 90
f 56 53 57
f 88 81 65
f 65 81 60
f 52 88 65
f 81 88 78
f 88 52 77
f 7 86 79
f 83 91 86
f 91 79 86
f 7 79 80
f 78 79 91
f 77 78 88
f 92 7 80
f 80 89 92
f 93 92 84
f 84 92 89
f 84 87 93
f 87 94 93
f 7 92 1
f 96 97 95
f 97 98 95
f 100 98 99
f 101 100 99
f 101 103 102
f 99 109 106
f 109 108 106
f 98 109 99
f 110 109 97
f 109 98 97
f 104 110 96
f 110 97 96
f 96 105 104
f 16 111 12
f 112 113 114
f 112 114 100
f 115 112 100
f 100 116 115
f 101 117 116
f 118 101 15
f 14 15 111
f 16 14 111
f 104 105 95
f 102 103 111
f 113 95 114
f 100 114 98
f 114 95 98
f 100 101 116
f 15 101 102
f 111 15 102
f 103 101 107
f 106 107 101
f 101 99 106
f 105 96 95
f 1 14 3
f 15 14 120
f 121 116 117
f 120 121 101
f 121 117 101
f 101 118 120
f 120 118 15
f 112 115 119
f 119 115 116
f 121 119 116
f 119 121 123
f 123 121 120
f 14 123 120
f 123 14 124
f 14 1 124
f 122 124 1
f 122 1 125
f 124 122 125
f 124 125 123
f 127 123 125
f 123 127 119
f 127 128 119
f 119 128 126
f 119 126 112
f 131 130 129
f 130 131 133
f 132 133 131
f 136 134 135
f 136 135 30
f 137 30 135
f 140 139 138
f 133 141 140
f 141 133 142
f 142 133 143
f 136 144 143
f 25 144 136
f 23 144 25
f 145 147 146
f 141 148 147
f 141 142 148
f 142 149 148
f 149 150 151
f 143 151 150
f 152 153 125
f 128 154 126
f 155 128 127
f 125 155 127
f 134 155 125
f 153 134 125
f 1 92 125
f 93 152 125
f 92 93 125
f 156 86 11
f 86 7 11
f 86 135 87
f 86 156 135
f 156 137 135
f 94 153 93
f 153 152 93
f 94 87 135
f 153 94 134
f 94 135 134
f 155 134 132
f 155 132 128
f 128 132 131
f 128 131 154
f 154 131 129
f 126 154 129
f 133 140 130
f 140 138 130
f 133 132 143
f 134 143 132
f 143 134 136
f 30 25 136
f 147 145 139
f 139 140 147
f 141 147 140
f 143 149 142
f 149 143 150
f 143 144 23
f 148 149 157
f 158 157 149
f 151 158 149
f 147 160 146
f 160 159 146
f 161 160 147
f 148 161 147
f 157 161 148
f 158 18 17
f 151 143 20
f 20 143 23
f 151 20 158
f 20 18 158
f 160 163 159
f 160 161 163
f 157 162 164
f 157 158 162
f 158 164 162
f 166 165 17
f 17 165 158
f 161 167 163
f 167 161 168
f 157 168 161
f 168 157 169
f 164 169 157
f 170 169 158
f 158 169 164
f 165 170 158
f 165 166 19
f 167 172 171
f 168 172 167
f 168 169 173
f 170 173 169
f 165 174 170
f 177 175 168
f 174 180 179
f 68 50 180
f 178 181 177
f 173 181 178
f 68 38 50
f 177 182 175
f 181 51 177
f 173 45 181
f 45 51 181
f 174 45 173
f 45 174 43
f 174 179 43
f 43 179 42
f 165 19 180
f 19 68 180
f 165 180 174
f 170 174 173
f 178 168 173
f 168 178 177
f 172 168 175
f 171 172 175
f 166 17 19
f 83 81 91
f 78 91 81
f 70 68 69
f 70 38 68
f 67 66 34
f 183 186 187
f 190 191 189
f 189 191 188
f 191 192 188
f 188 184 185
f 187 193 183
f 187 186 193
f 188 194 186
f 193 186 194
f 192 194 188
f 194 192 191
f 193 194 195
f 188 186 184
f 186 183 184
f 196 190 189
f 193 185 197
f 197 185 184
f 185 193 198
f 188 185 198
f 189 188 198
f 195 198 193
f 189 198 195
f 196 189 194
f 189 195 194
f 191 190 194
f 194 190 196
f 74 71 183
f 184 183 71
f 183 193 74
f 76 74 193
f 193 197 76
f 184 71 197
f 71 76 197
f 179 180 42
f 42 180 50
f 44 45 43
f 199 175 182
f 177 199 182
f 51 199 177
f 206 201 200
f 200 202 206
f 202 203 206
f 204 207 203
f 206 208 201
f 207 209 203
f 209 176 203
f 205 171 204
f 171 175 204
f 36 28 210
f 28 37 210
f 210 211 36
f 36 211 37
f 34 35 213
f 35 212 213
f 34 213 39
f 213 214 39
f 35 39 212
f 39 214 212
f 37 211 215
f 37 216 210
f 215 216 37
f 212 214 217
f 214 218 217
f 213 218 214
f 219 218 213
f 212 217 213
f 217 219 213
f 211 210 216
f 215 211 216
f 217 218 219
f 221 222 220
f 220 222 223
f 222 225 223
f 221 220 226
f 226 222 221
f 220 227 226
f 224 227 220
f 228 226 227
f 228 229 226
f 229 222 226
f 230 225 222
f 231 220 223
f 224 220 231
f 232 229 228
f 232 230 229
f 230 233 225
f 223 225 233
f 223 233 234
f 231 223 234
f 231 227 224
f 235 227 231
f 228 227 236
f 236 227 235
f 238 230 232
f 235 231 239
f 237 228 240
f 236 240 228
f 233 241 234
f 241 242 234
f 237 238 232
f 238 237 243
f 238 243 230
f 230 243 233
f 242 241 244
f 234 242 244
f 244 245 234
f 231 234 245
f 231 245 239
f 243 247 233
f 233 247 241
f 247 248 241
f 251 247 249
f 249 247 243
f 247 251 248
f 253 254 249
f 249 243 253
f 246 253 243
f 249 255 250
f 256 255 254
f 249 254 255
f 254 253 257
f 258 259 260
f 261 259 257
f 258 257 259
f 259 261 252
f 251 255 252
f 251 250 255
f 252 260 259
f 256 260 255
f 254 260 256
f 251 252 248
f 248 252 262
f 263 262 264
f 264 262 265
f 262 261 265
f 241 248 262
f 241 262 263
f 263 264 241
f 257 266 261
f 267 266 257
f 261 266 265
f 266 267 265
f 268 270 269
f 241 264 268
f 244 241 268
f 244 268 269
f 271 244 272
f 272 244 269
f 269 270 106
f 272 269 106
f 272 245 271
f 273 272 106
f 273 245 272
f 273 109 245
f 109 239 245
f 237 232 228
f 279 278 275
f 278 277 275
f 275 276 279
f 279 276 278
f 278 276 280
f 278 280 281
f 281 282 283
f 276 237 240
f 283 282 284
f 286 285 284
f 276 240 236
f 276 236 280
f 281 280 236
f 287 288 281
f 282 281 288
f 287 281 289
f 236 289 281
f 284 282 288
f 288 290 284
f 290 286 284
f 291 290 288
f 292 288 293
f 288 287 293
f 289 293 287
f 294 293 289
f 290 295 286
f 292 291 288
f 291 296 290
f 297 293 294
f 297 294 298
f 296 295 290
f 295 285 286
f 278 297 277
f 278 293 297
f 296 283 284
f 298 299 297
f 299 277 297
f 278 281 292
f 293 278 292
f 292 281 291
f 281 283 291
f 295 296 284
f 295 284 285
f 291 283 296
f 299 104 277
f 299 294 104
f 294 300 104
f 299 298 294
f 300 294 301
f 300 301 302
f 294 303 301
f 303 294 289
f 305 303 304
f 289 304 303
f 306 307 308
f 305 307 303
f 311 303 307
f 306 308 309
f 309 310 306
f 311 306 312
f 311 307 306
f 110 302 313
f 302 303 311
f 301 303 302
f 302 311 313
f 314 289 236
f 314 236 235
f 309 315 310
f 309 308 315
f 318 317 314
f 317 289 314
f 304 289 305
f 289 317 305
f 305 317 307
f 319 307 317
f 316 308 307
f 316 307 319
f 239 318 314
f 318 320 317
f 316 319 321
f 319 317 321
f 321 317 312
f 312 317 311
f 312 316 321
f 312 306 316
f 306 322 316
f 322 308 316
f 308 322 315
f 323 315 322
f 314 235 239
f 313 239 274
f 318 311 320
f 317 320 311
f 254 257 260
f 257 258 260
f 252 255 260
f 262 252 261
f 250 251 249
f 271 245 244
f 222 229 230
f 310 315 306
f 306 315 323
f 311 318 313
f 323 322 306
f 110 313 274
f 109 110 239
f 110 274 239
f 273 108 109
f 108 273 106
f 302 110 104
f 300 302 104
f 318 239 313
f 60 81 52
f 22 27 24
f 39 38 34
f 176 204 175
f 209 204 176
f 34 38 67
f 324 326 325
f 327 328 324
f 324 329 330
f 328 329 324
f 326 324 330
f 332 331 329
f 329 331 330
f 331 13 330
f 329 13 332
f 328 333 329
f 333 328 327
f 13 12 330
f 333 13 329
f 327 11 333
f 11 13 333
f 335 334 326
f 326 334 325
f 330 335 326
f 330 12 335
f 334 336 325
f 338 337 339
f 339 337 342
f 339 342 343
f 338 339 343
f 343 340 338
f 343 344 340
f 348 346 344
f 345 349 344
f 349 348 344
f 344 343 345
f 31 345 343
f 348 345 31
f 350 347 30
f 347 25 30
f 347 346 25
f 346 348 25
f 348 31 25
f 342 337 341
f 343 342 351
f 343 351 31
f 352 351 342
f 352 342 353
f 341 353 342
f 40 36 354
f 36 353 354
f 352 353 36
f 36 32 352
f 32 31 352
f 358 359 46
f 358 47 357
f 357 47 356
f 48 356 47
f 355 356 48
f 49 355 48
f 40 355 49
f 47 358 46
f 360 357 356
f 357 361 358
f 361 357 360
f 356 361 360
f 355 361 356
f 364 365 362
f 366 367 368
f 369 363 368
f 364 362 370
f 364 370 365
f 366 365 371
f 371 365 370
f 372 367 371
f 367 366 371
f 370 373 371
f 372 371 373
f 374 372 373
f 366 363 365
f 363 362 365
f 375 368 367
f 373 363 369
f 376 363 373
f 373 369 368
f 376 373 370
f 375 373 368
f 374 373 375
f 372 374 367
f 374 375 367
f 378 377 341
f 379 377 378
f 377 379 381
f 381 383 382
f 384 377 381
f 381 385 384
f 381 382 385
f 380 377 384
f 384 379 380
f 379 384 387
f 385 387 384
f 385 386 387
f 386 383 387
f 387 381 379
f 383 381 387
f 355 380 379
f 393 391 392
f 394 370 391
f 392 395 393
f 395 392 396
f 394 391 393
f 397 393 395
f 397 395 396
f 398 388 390
f 388 391 389
f 391 388 398
f 370 362 389
f 363 389 362
f 398 392 391
f 389 391 370
f 392 390 399
f 398 390 392
f 368 363 366
f 370 394 376
f 396 393 397
f 363 376 394
f 394 389 363
f 327 390 396
f 393 396 388
f 396 390 388
f 394 388 389
f 327 324 400
f 401 399 400
f 402 403 401
f 399 401 403
f 403 402 404
f 401 405 402
f 403 392 399
f 400 399 390
f 390 327 400
f 324 401 400
f 396 392 404
f 392 403 404
f 95 406 407
f 407 406 408
f 409 410 408
f 409 411 410
f 410 411 103
f 106 413 107
f 413 414 107
f 408 414 415
f 407 408 416
f 408 415 416
f 417 407 416
f 418 407 417
f 418 417 412
f 417 104 412
f 335 12 111
f 112 419 113
f 406 113 419
f 419 420 406
f 408 420 421
f 409 408 422
f 334 409 422
f 335 409 334
f 95 412 104
f 411 111 103
f 95 113 406
f 408 406 420
f 335 411 409
f 411 335 111
f 103 107 410
f 410 107 414
f 410 414 408
f 418 95 407
f 95 418 412
f 422 408 423
f 336 334 424
f 424 422 423
f 334 422 424
f 423 408 421
f 423 421 426
f 424 423 336
f 423 427 336
f 336 427 325
f 325 427 425
f 405 325 425
f 405 425 427
f 419 112 428
f 126 428 112
f 429 427 423
f 429 423 426
f 430 426 420
f 426 421 420
f 420 419 430
f 428 430 419
f 431 129 130
f 432 431 130
f 130 433 432
f 432 433 434
f 437 436 435
f 437 350 436
f 30 137 350
f 436 350 137
f 139 438 138
f 138 438 439
f 441 439 440
f 439 438 440
f 440 442 441
f 442 443 441
f 441 443 444
f 443 445 444
f 347 444 346
f 444 445 346
f 438 145 146
f 438 146 446
f 446 447 448
f 440 448 447
f 440 447 442
f 450 447 449
f 445 450 340
f 405 435 451
f 430 434 426
f 452 429 434
f 429 426 434
f 429 452 427
f 427 435 405
f 324 405 401
f 405 324 325
f 405 451 402
f 156 11 396
f 11 327 396
f 396 404 156
f 404 137 156
f 402 451 435
f 129 428 126
f 436 137 404
f 436 404 402
f 435 436 402
f 434 435 427
f 434 427 452
f 434 430 432
f 431 432 430
f 431 430 428
f 129 431 428
f 433 130 439
f 130 138 439
f 439 441 433
f 433 441 434
f 441 444 434
f 434 444 435
f 435 444 437
f 444 347 437
f 437 347 350
f 139 145 438
f 446 448 438
f 438 448 440
f 443 442 447
f 447 450 443
f 443 450 445
f 445 344 346
f 13 331 332
f 447 453 449
f 449 453 454
f 450 449 454
f 450 454 340
f 159 455 146
f 446 146 456
f 457 446 456
f 446 457 447
f 453 447 457
f 454 337 338
f 344 445 340
f 454 338 340
f 159 163 455
f 455 163 146
f 459 456 163
f 146 163 456
f 456 459 457
f 457 460 453
f 453 460 458
f 453 458 454
f 458 460 454
f 454 461 337
f 459 163 167
f 457 459 462
f 457 462 460
f 463 454 460
f 461 454 463
f 461 464 337
f 167 171 459
f 459 171 465
f 459 465 462
f 462 466 460
f 466 463 460
f 466 470 471
f 464 472 378
f 466 473 470
f 470 473 471
f 472 464 361
f 361 355 472
f 472 355 378
f 176 175 467
f 468 359 469
f 466 469 359
f 359 358 466
f 466 358 473
f 473 358 471
f 358 361 471
f 471 464 461
f 471 461 466
f 466 461 463
f 466 462 469
f 468 469 462
f 465 468 462
f 467 468 465
f 467 465 171
f 341 337 464
f 393 388 394
f 341 464 378
f 378 355 379
f 382 386 385
f 476 477 474
f 478 479 481
f 482 475 481
f 476 474 483
f 476 483 477
f 478 477 484
f 484 477 483
f 485 478 484
f 479 478 485
f 481 485 484
f 483 474 486
f 478 475 477
f 475 474 477
f 487 479 480
f 481 479 487
f 483 486 482
f 486 475 482
f 482 484 483
f 481 484 482
f 485 481 487
f 479 485 480
f 481 475 478
f 487 480 485
f 383 474 382
f 382 474 475
f 474 383 486
f 486 383 386
f 486 386 475
f 475 386 382
f 471 361 464
f 468 51 359
f 46 359 51
f 467 175 199
f 468 467 199
f 468 199 51
f 488 489 490
f 490 489 491
f 491 489 492
f 492 493 494
f 492 494 495
f 488 496 489
f 489 496 492
f 496 497 492
f 492 497 493
f 497 494 493
f 494 497 498
f 496 500 501
f 496 501 497
f 497 501 498
f 501 499 498
f 496 502 500
f 500 503 501
f 501 503 504
f 501 504 499
f 502 505 500
f 500 505 504
f 500 504 503
f 504 498 499
f 507 508 201
f 201 508 200
f 203 202 204
f 204 509 205
f 202 510 204
f 204 510 509
f 511 507 506
f 208 507 511
f 507 208 508
f 508 208 200
f 200 208 202
f 208 512 202
f 202 512 510
f 510 513 509
f 208 206 512
f 206 203 512
f 512 203 510
f 203 176 510
f 513 510 209
f 510 176 209
f 208 511 514
f 514 201 208
f 511 502 514
f 502 506 514
f 506 507 514
f 514 507 201
f 506 496 488
f 511 506 488
f 506 502 496
f 511 488 502
f 488 491 492
f 505 502 492
f 502 488 492
f 498 504 505
f 505 492 495
f 505 495 494
f 498 505 494
f 509 171 205
f 509 467 171
f 351 515 31
f 351 352 515
f 352 31 516
f 31 515 516
f 353 341 517
f 353 518 354
f 518 341 354
f 517 518 353
f 515 519 516
f 516 519 352
f 352 520 515
f 520 519 515
f 517 521 518
f 518 521 341
f 521 522 341
f 341 522 517
f 522 523 517
f 523 521 517
f 520 352 519
f 523 522 521
f 524 525 526
f 526 527 524
f 525 524 529
f 527 526 530
f 528 527 530
f 530 526 531
f 526 525 531
f 529 532 525
f 533 529 524
f 528 533 524
f 525 530 531
f 535 534 530
f 536 535 525
f 530 525 535
f 536 525 532
f 535 536 237
f 532 537 536
f 529 538 532
f 539 538 529
f 533 539 529
f 539 533 540
f 533 534 540
f 540 534 541
f 237 536 537
f 532 538 537
f 534 237 543
f 534 543 544
f 545 534 544
f 541 534 545
f 539 542 538
f 546 542 539
f 546 539 547
f 237 537 243
f 548 243 537
f 537 538 548
f 538 542 548
f 549 546 547
f 539 549 547
f 549 539 540
f 548 246 243
f 548 542 551
f 542 552 551
f 542 553 552
f 546 553 542
f 246 548 551
f 552 554 551
f 553 554 552
f 556 253 551
f 551 253 246
f 557 253 556
f 257 559 558
f 560 257 558
f 558 555 560
f 554 555 556
f 554 556 551
f 555 558 559
f 557 556 559
f 559 556 555
f 253 557 559
f 554 561 555
f 561 560 555
f 553 561 554
f 563 553 562
f 563 564 553
f 564 561 553
f 564 560 561
f 565 560 564
f 562 553 546
f 562 546 563
f 566 563 546
f 257 560 267
f 560 565 267
f 265 267 565
f 564 265 565
f 564 563 265
f 264 265 563
f 566 264 563
f 268 264 566
f 567 268 566
f 268 567 270
f 567 566 546
f 270 567 549
f 567 546 549
f 270 549 568
f 569 106 270
f 569 270 568
f 414 568 415
f 568 550 415
f 568 540 550
f 550 540 570
f 570 540 541
f 415 550 570
f 276 275 572
f 275 277 572
f 276 572 573
f 276 573 571
f 543 237 276
f 543 276 571
f 544 571 573
f 544 573 574
f 576 577 575
f 579 578 577
f 578 579 580
f 543 571 544
f 544 574 581
f 581 574 575
f 582 544 581
f 583 581 575
f 583 575 577
f 584 577 580
f 580 577 578
f 585 577 584
f 585 583 577
f 582 581 586
f 580 587 584
f 588 584 587
f 584 588 585
f 583 589 581
f 581 589 586
f 583 585 590
f 583 590 589
f 586 589 591
f 592 586 591
f 593 586 592
f 587 594 588
f 572 592 573
f 592 589 573
f 588 577 576
f 575 590 576
f 589 574 573
f 572 595 592
f 592 595 593
f 595 572 277
f 592 591 589
f 590 575 574
f 589 590 574
f 585 576 590
f 594 577 588
f 594 587 577
f 577 587 579
f 580 579 587
f 585 588 576
f 595 277 104
f 595 104 586
f 104 417 586
f 595 586 593
f 417 596 586
f 586 598 597
f 597 582 586
f 599 600 597
f 597 600 582
f 599 597 602
f 603 604 601
f 598 605 597
f 602 597 605
f 601 602 606
f 603 601 607
f 608 607 606
f 606 607 601
f 606 602 605
f 596 417 609
f 596 609 586
f 606 605 598
f 609 598 586
f 609 606 598
f 545 544 582
f 610 545 582
f 610 582 611
f 599 582 600
f 582 599 611
f 599 602 611
f 611 602 612
f 601 613 602
f 613 612 602
f 541 545 610
f 611 612 613
f 610 611 614
f 615 611 613
f 613 601 615
f 615 608 611
f 606 611 608
f 608 615 607
f 607 615 616
f 615 601 616
f 601 604 616
f 616 604 617
f 609 570 541
f 610 614 606
f 606 614 611
f 253 559 257
f 540 568 549
f 534 533 530
f 528 530 533
f 528 524 527
f 237 534 535
f 617 604 603
f 609 610 606
f 603 607 616
f 603 616 617
f 569 413 106
f 570 609 416
f 570 416 415
f 569 568 413
f 568 414 413
f 417 416 609
f 609 541 610
f 345 348 349
f 40 618 355
f 40 354 618
f 354 341 618
f 491 488 490
f 467 509 176
f 176 509 209
f 341 377 618
f 380 355 377
f 377 355 618
f 509 513 209
f 207 204 209
